<?xml version="1.0" encoding="UTF-8" standalone="no"?>
<svg
   width="15.99624"
   height="15.187568"
   viewBox="0 0 15.99624 15.187568"
   version="1.1"
   xml:space="preserve"
   style="clip-rule:evenodd;fill-rule:evenodd;stroke-linejoin:round;stroke-miterlimit:2"
   id="svg1"
   xmlns="http://www.w3.org/2000/svg"
   xmlns:svg="http://www.w3.org/2000/svg"><defs
   id="defs1" />
    <g
   transform="matrix(3.99998,0,0,3.99998,-503.99936,-502.40385)"
   id="g1">
        <path
   d="m 129.63888,127.39329 c 0.006,-0.009 0.0123,-0.019 0.0183,-0.0287 0.11139,-0.1802 0.16614,-0.3894 0.16614,-0.60078 v -0.0111 c 0,-0.22753 -0.0637,-0.45176 -0.19122,-0.64075 -0.18901,-0.28034 -0.49762,-0.47433 -0.85339,-0.51037 h -1.12823 c -0.0429,-1.1e-4 -0.0841,0.0169 -0.11453,0.0472 -0.0304,0.03 -0.0475,0.071 -0.0475,0.11375 v 0.51227 c 0,0.0445 0.0181,0.0848 0.0475,0.11376 0.0304,0.0303 0.0716,0.0473 0.11453,0.0472 h 1.01668 c 0.17449,0 0.31586,0.14072 0.31586,0.31372 v 0.0166 c 0,0.17331 -0.14137,0.31372 -0.31586,0.31372 h -1.66465 c -0.0429,8e-5 -0.0841,-0.0169 -0.11455,-0.0472 -0.0304,-0.03 -0.0475,-0.071 -0.0475,-0.11375 v -1.15629 c 0,-0.0445 -0.0181,-0.0848 -0.0475,-0.11377 -0.0304,-0.0303 -0.0716,-0.0473 -0.11452,-0.0472 h -0.51594 c -0.0894,0 -0.16203,0.0721 -0.16203,0.16094 v 3.475 c 0,0.0442 0.0181,0.0846 0.0475,0.11376 0.0304,0.0303 0.0716,0.0473 0.11453,0.0472 h 0.51578 c 0.0448,0 0.0852,-0.018 0.11454,-0.0472 0.0304,-0.03 0.0475,-0.071 0.0475,-0.11376 v -1.1563 c 0,-0.0888 0.0726,-0.16094 0.16203,-0.16094 h 1.65661 c 0.0274,0 0.0543,-10e-4 0.0811,-0.003 h 0.10475 c 0.17419,0 0.31586,0.14041 0.31586,0.31372 v 0.0163 c 0,0.17331 -0.14167,0.31372 -0.31586,0.31372 H 127.656 c -0.002,-3.2e-4 -0.004,-3.2e-4 -0.006,-3.2e-4 -0.002,0 -0.004,0 -0.006,3.2e-4 -0.041,0.001 -0.08,0.018 -0.10901,0.047 -0.0304,0.0301 -0.0475,0.0711 -0.0475,0.11392 v 0.51555 c 0,0.0442 0.0182,0.0846 0.0475,0.11376 0.0304,0.0303 0.0716,0.0473 0.11454,0.0472 h 1.26849 c 0.33132,-0.0229 0.62478,-0.18287 0.82293,-0.42325 0.17041,-0.20653 0.2586,-0.46806 0.2586,-0.73509 v -0.002 c 0,-0.26028 -0.0836,-0.51539 -0.24628,-0.71942 -0.0355,-0.0445 -0.0741,-0.0863 -0.11564,-0.1252 h 3.1e-4 z"
   style="fill:#000030;fill-rule:nonzero;stroke-width:0.015625"
   id="path1" />
    </g>
</svg>
