<svg xmlns="http://www.w3.org/2000/svg" width="16" height="16" fill="none"><path fill="#F7931A" d="M13.654 6.323c.247-1.652-1.011-2.54-2.732-3.134L11.48.951 10.117.61l-.543 2.18c-.359-.09-.727-.174-1.092-.257L9.029.34 7.667 0l-.559 2.238a45.568 45.568 0 0 1-.87-.204l.001-.007-1.88-.47-.362 1.456s1.011.232.99.246c.552.138.652.503.635.792l-.636 2.551c.038.01.088.024.142.045l-.144-.035-.891 3.573c-.068.167-.24.419-.625.323.014.02-.99-.247-.99-.247l-.677 1.56 1.773.442c.33.083.654.17.972.25l-.564 2.265 1.361.34.559-2.24c.372.1.733.194 1.086.281l-.556 2.23 1.362.34.564-2.26c2.325.44 4.072.262 4.808-1.84.593-1.692-.03-2.668-1.252-3.305.89-.205 1.56-.79 1.74-2ZM10.54 10.69c-.421 1.692-3.271.777-4.195.548l.748-3c.924.23 3.887.687 3.447 2.452Zm.421-4.391c-.384 1.54-2.756.757-3.525.565l.678-2.72c.77.191 3.247.55 2.847 2.155Z"/></svg>