<?xml version="1.0" encoding="UTF-8" standalone="no"?>
<svg
   width="15.9996"
   height="16"
   viewBox="0 0 15.9996 16"
   version="1.1"
   xml:space="preserve"
   style="clip-rule:evenodd;fill-rule:evenodd;stroke-linejoin:round;stroke-miterlimit:2"
   id="svg2"
   xmlns="http://www.w3.org/2000/svg"
   xmlns:svg="http://www.w3.org/2000/svg"><defs
   id="defs2" />
    <g
   transform="matrix(0.512,0,0,0.512,-504.0004,-504)"
   id="g1">
        <path
   d="m 1008.9748,1010.5216 c 0.3344,0.3343 0.5021,0.8014 0.4569,1.272 -0.045,0.4706 -0.2986,0.8972 -0.6903,1.1617 -2.4977,1.6838 -5.5053,2.6697 -8.7414,2.6697 -3.23614,0 -6.24381,-0.9859 -8.73872,-2.6736 -0.39064,-0.2637 -0.64337,-0.6891 -0.68836,-1.1583 -0.045,-0.4692 0.12222,-0.9348 0.45556,-1.2681 -0.003,0 -0.003,0 -0.003,0 0.69974,-0.6997 1.7888,-0.8262 2.63035,-0.3056 1.84031,1.1523 4.01548,1.8154 6.34427,1.8154 2.3289,0 4.5041,-0.6631 6.3472,-1.8109 0.8394,-0.5192 1.9256,-0.393 2.6236,0.305 0,0 0,0 0,0 z m 1.5468,-19.49643 c 0.3343,-0.33433 0.8014,-0.50208 1.272,-0.45694 0.4706,0.0451 0.8972,0.2986 1.1617,0.69041 1.6838,2.49755 2.6697,5.50522 2.6697,8.74136 0,3.2361 -0.9859,6.2437 -2.6736,8.7387 -0.2637,0.3907 -0.6891,0.6433 -1.1583,0.6883 -0.4692,0.045 -0.9348,-0.1222 -1.2681,-0.4554 0,0 0,0 0,0 -0.6997,-0.6997 -0.8262,-1.7889 -0.3056,-2.6303 1.1523,-1.8403 1.8154,-4.0155 1.8154,-6.3444 0,-2.32883 -0.6631,-4.504 -1.8109,-6.34717 -0.5192,-0.83941 -0.393,-1.92567 0.305,-2.62358 0,-0.004 0,-0.004 0,-0.004 z m -23.47308,0.23611 c 0.29353,-0.43453 0.7849,-0.69558 1.30929,-0.69558 0.41889,0 0.82105,0.16658 1.11725,0.46278 0.003,-0.003 0.003,-0.003 0.004,-0.003 0.69967,0.69974 0.82625,1.7888 0.30571,2.63035 -1.15243,1.84031 -1.81552,4.01548 -1.81552,6.34427 0,2.3289 0.66309,4.5041 1.81091,6.3472 0.5192,0.8394 0.39292,1.9256 -0.305,2.6236 0.004,0 0.004,0 0.004,0 -0.33432,0.3344 -0.80129,0.5021 -1.27191,0.4569 -0.47063,-0.045 -0.8972,-0.2986 -1.16186,-0.6903 -1.68367,-2.4977 -2.66961,-5.5053 -2.66961,-8.74136 0,-3.23614 0.98594,-6.24381 2.67352,-8.73872 z M 1000,990.15625 c 5.433,0 9.8437,4.41084 9.8437,9.84375 0,5.433 -4.4107,9.8437 -9.8437,9.8437 -5.43291,0 -9.84375,-4.4107 -9.84375,-9.8437 0,-5.43291 4.41084,-9.84375 9.84375,-9.84375 z m -8.97483,-0.67787 c -0.29709,-0.29708 -0.46419,-0.70044 -0.46419,-1.1206 0,-0.52594 0.26183,-1.01876 0.69766,-1.31317 2.49755,-1.68367 5.50522,-2.66961 8.74136,-2.66961 3.2361,0 6.2437,0.98594 8.7387,2.67352 0.3907,0.26389 0.6433,0.68918 0.6883,1.1584 0.045,0.46922 -0.1222,0.93481 -0.4554,1.26814 0,0.003 0,0.003 0,0.004 -0.6997,0.69967 -1.7889,0.82625 -2.6303,0.30571 -1.8403,-1.15243 -4.0155,-1.81552 -6.3444,-1.81552 -2.32883,0 -4.504,0.66309 -6.34717,1.81091 -0.83941,0.5192 -1.92567,0.39292 -2.62358,-0.305 -0.004,0.004 -0.004,0.004 -0.004,0.004 z"
   style="fill:#208e7a;stroke-width:0.015625"
   id="path1" />
    </g>
    <g
   transform="matrix(4,0,0,4,-504.0004,-504)"
   id="g2">
        <path
   d="m 127.49397,128.35133 c -0.0279,0 -0.0509,0.023 -0.0509,0.0508 v 0.13527 c 0,0.0279 0.023,0.0508 0.0509,0.0508 h 0.37122 v 0.34324 c 0,0.0279 0.023,0.0508 0.0509,0.0508 h 0.16323 c 0.0279,0 0.0509,-0.023 0.0509,-0.0508 v -0.34324 h 0.37589 c 0.0279,0 0.0508,-0.023 0.0508,-0.0508 v -0.13527 c 0,-0.0279 -0.023,-0.0508 -0.0508,-0.0508 z m 1.01322,-0.16817 c 0.0279,0 0.0509,-0.023 0.0509,-0.0509 v -0.13292 c 0,-0.0279 -0.023,-0.0508 -0.0508,-0.0508 0,0 -1e-5,0 -1e-5,0 h -0.31857 l 0.43046,-0.76126 c 0.009,-0.0157 0.009,-0.0351 -3.3e-4,-0.0507 -0.009,-0.0156 -0.0259,-0.0252 -0.0439,-0.0252 h -0.18887 c -0.0183,0 -0.0353,0.01 -0.0443,0.0259 l -0.34253,0.60667 -0.3383,-0.60644 c -0.009,-0.0161 -0.026,-0.0261 -0.0444,-0.0261 h -0.19122 c -2e-5,0 -3e-5,0 -7e-5,0 -0.0279,0 -0.0508,0.0229 -0.0508,0.0508 0,0.009 0.002,0.0174 0.007,0.025 l 0.42841,0.76136 h -0.31413 c -0.0279,0 -0.0508,0.0229 -0.0509,0.0508 v 0.13292 c 0,0.0279 0.0229,0.0509 0.0509,0.0509 z"
   style="fill:#ffffff;fill-rule:nonzero;stroke-width:0.015625"
   id="path2" />
    </g>
</svg>
