<svg xmlns="http://www.w3.org/2000/svg" xml:space="preserve" style="fill-rule:evenodd;clip-rule:evenodd;stroke-linejoin:round;stroke-miterlimit:2" viewBox="0 0 16 16"><path d="M1655.75 1754.74C1480.14 1907.48 1250.79 2000 1000 2000c-206.19 0-397.888-62.54-557.141-169.66a104.054 104.054 0 0 1-43.861-76.15 104.042 104.042 0 0 1 30.084-82.57c28.177-29.88 56.8-58.51 70.284-71.99a12.503 12.503 0 0 1 16.701-.81C648.394 1705.86 816.765 1770 1000 1770c148.35 0 286.96-42.05 404.58-114.88 52.79-34.15 122.27-26.78 166.73 17.68 42.56 40.07 84.44 81.94 84.44 81.94Zm88.69-1400.186a13.494 13.494 0 0 1 10.1-3.994c3.78.141 7.32 1.86 9.78 4.738C1911.31 529.469 2000 754.459 2000 1000c0 245.93-88.97 471.25-236.45 645.48a12.51 12.51 0 0 1-9.01 4.38c-3.48.14-6.86-1.19-9.33-3.65l-74.54-74.54c-44.51-44.57-51.8-114.18-17.51-167.01C1727.72 1287.72 1770 1148.76 1770 1000c0-148.354-42.05-286.964-114.88-404.576-34.15-52.795-26.78-122.272 17.68-166.733 27.58-30.077 56.68-59.18 71.64-74.137ZM169.664 442.859a104.04 104.04 0 0 1 158.714-13.777c39.766 38.057 77.944 76.235 79.917 78.208a.125.125 0 0 1 .007.169C296.98 641.031 230 812.755 230 1000c0 187.25 66.98 358.97 178.302 492.54.041.05.039.12-.007.17-1.985 1.98-40.633 40.63-79.798 79.8a104.379 104.379 0 0 1-82.807 30.28 104.387 104.387 0 0 1-76.447-43.93C62.792 1398.66 0 1206.61 0 1000c0-206.19 62.539-397.888 169.664-557.141ZM1000 370c347.71 0 630 282.294 630 630 0 347.71-282.29 630-630 630-347.706 0-630-282.29-630-630 0-347.706 282.294-630 630-630Zm-572.508-41.503a104.372 104.372 0 0 1 13.648-159.254C601.337 62.792 793.393 0 1000 0c250.79 0 480.14 92.52 655.75 245.256 0 0-42.47 42.474-84.08 84.074-44.57 44.505-114.18 51.802-167.01 17.505C1287.72 272.276 1148.76 230 1000 230c-183.235 0-351.606 64.142-483.907 171.21a12.485 12.485 0 0 1-16.718-.849c-13.606-13.587-42.6-42.581-71.883-71.864Z" style="fill:#208e7a" transform="scale(.008)"/><path d="M95.614 150.485a3.254 3.254 0 0 0-3.254 3.255v8.656a3.254 3.254 0 0 0 3.254 3.254h23.758v21.967a3.255 3.255 0 0 0 3.255 3.255h10.447a3.255 3.255 0 0 0 3.255-3.255V165.65h24.057a3.254 3.254 0 0 0 3.254-3.254v-8.656a3.254 3.254 0 0 0-3.254-3.255H95.614Zm64.846-10.763a3.255 3.255 0 0 0 3.255-3.255v-8.507a3.254 3.254 0 0 0-3.255-3.254h-20.388l27.549-48.721a3.257 3.257 0 0 0-.021-3.243 3.257 3.257 0 0 0-2.812-1.614H152.7a3.257 3.257 0 0 0-2.835 1.654l-21.922 38.827-21.651-38.812a3.253 3.253 0 0 0-2.842-1.669H91.212a3.253 3.253 0 0 0-2.837 4.851l27.418 48.727H95.689a3.255 3.255 0 0 0-3.255 3.254v8.507a3.255 3.255 0 0 0 3.255 3.255h64.771Z" style="fill:#fff;fill-rule:nonzero" transform="scale(.0625)"/></svg>