<svg width="16" height="16" fill="none" xmlns="http://www.w3.org/2000/svg"><g clip-path="url(#a)"><path d="M15.892 7.162A1.252 1.252 0 0 0 14.566 6h-.049a1.213 1.213 0 0 0-1.072 1.305v.049c.058.432.058.871 0 1.304v.049a6.073 6.073 0 0 1-.395 1.421 5.534 5.534 0 0 1-4.377 3.334 5.515 5.515 0 0 1-5.082-2.1 5.54 5.54 0 0 1 3.563-8.865 6.109 6.109 0 0 1 1.95.05A1.463 1.463 0 0 1 10.343 4.2a1.338 1.338 0 0 1-1.56 1.002h-.05a1.498 1.498 0 0 0-.326-.044h-.044a4.167 4.167 0 0 0-.536-.024 2.872 2.872 0 0 0-2.483 1.75 2.888 2.888 0 0 0 .465 3.006 2.877 2.877 0 0 0 2.897.913 2.875 2.875 0 0 0 2.1-2.196l.069-.42c.02-.232.028-.466.024-.699 0-.902.325-1.774.915-2.455a3.733 3.733 0 0 1 2.299-1.253h.073c.153-.02.308-.028.463-.024h.117A8.032 8.032 0 0 0 7.988 0 8.111 8.111 0 0 0 2.32 2.44 8.142 8.142 0 0 0 0 8.169a8.04 8.04 0 0 0 1.866 4.954 8.003 8.003 0 0 0 9.774 2.01 8.025 8.025 0 0 0 3.662-3.817l.025-.044c.373-.867.6-1.79.673-2.731-.015-.513-.064-.933-.108-1.378Z" fill="#46B549"/></g><defs><clipPath id="a"><path fill="#fff" d="M0 0h16v16H0z"/></clipPath></defs></svg>