<svg width="16" height="16" fill="none" xmlns="http://www.w3.org/2000/svg"><g clip-path="url(#a)" fill="#3551F2"><path d="M9.152 4.875 7.824 8.001H4.705c-.867 0-1.563.696-1.563 1.564 0 .867.696 1.563 1.563 1.563h1.79l-1.32 3.103a4.693 4.693 0 0 1-5.16-4.666 4.693 4.693 0 0 1 4.69-4.69H9.16h-.008Z"/><path d="M16 6.438a4.693 4.693 0 0 1-4.69 4.69H6.497L7.825 8h3.486c.86 0 1.563-.704 1.563-1.563 0-.86-.704-1.564-1.563-1.564H9.154l1.297-3.048a4.693 4.693 0 0 1 5.55 4.611Z"/></g><defs><clipPath id="a"><path fill="#fff" d="M0 0h16v16H0z"/></clipPath></defs></svg>