<svg width="16" height="16" fill="none" xmlns="http://www.w3.org/2000/svg"><g clip-path="url(#a)"><g clip-path="url(#b)" fill="#1066DF"><path d="M14.036 13.232a.623.623 0 0 0-.43-.223.641.641 0 0 0-.509.187l-.035.029a6.73 6.73 0 0 1-.572.417l-.026.018a4.35 4.35 0 0 1-.131.082l-.03.018-.03.018-.016.01-.031.019-.03.017a6.755 6.755 0 0 1-.356.193l-.03.015-.042.021-.054.027-.004.002-.055.026-.042.02-.027.012-.043.02-.058.025a4.066 4.066 0 0 1-.118.05l-.06.023-.116.046a4.11 4.11 0 0 1-.117.042l-.008.003-.055.02-.058.02-.058.018a.545.545 0 0 1-.016.006l-.038.011-.031.01-.095.03-.021.006-.04.011-.044.012-.036.01-.023.007-.03.008a4.597 4.597 0 0 1-.102.025l-.026.007-.036.009-.03.007-.008.002-.046.01a3.06 3.06 0 0 1-.086.018l-.08.017-.066.012-.041.007-.037.007a9.388 9.388 0 0 0-.052.009l-.051.008-.007.001-.062.01-.06.008-.013.002-.05.006h-.003l-.041.005-.037.004a5.279 5.279 0 0 1-.109.012H9.47a.34.34 0 0 1-.036.005l-.03.003a.772.772 0 0 1-.038.003l-.037.003-.147.01-.066.003-.037.002H9.05l-.036.002h-.036l-.037.002h-.208a6.756 6.756 0 0 1-2.05-.344l-.071-.024a2.299 2.299 0 0 1-.035-.012l-.034-.013a2.14 2.14 0 0 1-.057-.02l-.024-.009-.063-.024-.01-.004c-.008-.003-.017-.006-.024-.01l-.009-.003-.006-.002-.014-.005-.013-.006H6.32l-.006-.003-.026-.01-.035-.014-.056-.024h-.003l-.038-.016-.044-.02a6.777 6.777 0 0 1-2.923-2.465 6.776 6.776 0 0 1-1.113-3.707v-.1l.001-.076V7.82a6.74 6.74 0 0 1 .433-2.2l.029-.073.025-.066.019-.044.03-.072.035-.08.002-.005.003-.007.025-.055v-.002l.024-.05.006-.014.004-.009a.308.308 0 0 1 .011-.024l.008-.015.007-.015.001-.004.005-.01.028-.056.004-.01.038-.073.026-.052.006-.01v-.002l.001-.001.016-.03.006-.011.012-.022.01-.021.003-.004.005-.008.02-.038c.21-.38.457-.74.737-1.071l.014-.018a.632.632 0 0 0-.981-.796c-.236.28-.452.575-.647.884l-.005.007-.05.081c-.01.014-.017.028-.026.043a7.977 7.977 0 0 0-.882 2.074l-.017.064-.005.019-.008.034-.01.035a2.394 2.394 0 0 0-.016.07v.006c-.001.003-.003.006-.003.01v.002l-.01.044-.004.011a7.995 7.995 0 0 0-.091 3.066l.004.024a7.971 7.971 0 0 0 1.107 2.919l.028.045.026.04.027.042.039.06.023.034.01.014c.012.02.026.039.04.058a.15.15 0 0 1 .007.013l.005.006.004.006a1.994 1.994 0 0 0 .09.128l.051.07.042.057a.913.913 0 0 0 .02.027l.033.044.022.027.032.041a.73.73 0 0 0 .018.023l.036.045a.21.21 0 0 0 .022.028l.032.04.023.027.034.04.024.028.033.039.054.062.058.064.06.067.062.066.062.065c.435.452.921.851 1.45 1.188l.012.008.043.026c.794.5 1.671.858 2.59 1.054l.042.008.04.008.082.017a.993.993 0 0 0 .04.007l.022.004.021.003.044.008.01.002.016.003.048.008.058.01.06.008.058.01.059.007.059.008.037.005.038.004.034.005.072.007.052.005.031.003.044.005c.075.007.15.012.225.017l.089.004.147.006h.02l.089.002h.23l.09-.002h.007c.032 0 .062-.002.093-.003.016 0 .032 0 .048-.002l.048-.002.087-.005.128-.008a5.732 5.732 0 0 0 .284-.027l.053-.005a1.36 1.36 0 0 0 .051-.007l.02-.002.05-.007.06-.008.012-.002.07-.01.008-.001.044-.007.043-.007.025-.005h.004c.032-.005.064-.01.097-.017h.006l.056-.011a7.983 7.983 0 0 0 2.66-1.015l.043-.027a7.572 7.572 0 0 0 .189-.12c.272-.177.533-.371.781-.58a.63.63 0 0 0 .076-.889h-.002Z"/><path d="M5.116 2.257c.112 0 .221-.03.317-.086a6.796 6.796 0 0 1 .59-.304l.042-.019.042-.019a1.39 1.39 0 0 1 .03-.012l.055-.024.042-.018.085-.035.033-.013.053-.02.04-.016c.06-.023.122-.044.184-.066l.037-.012c.072-.024.146-.048.22-.07l.036-.01c.095-.028.19-.053.287-.077l.032-.007.037-.01.026-.005.027-.006a.505.505 0 0 1 .053-.012l.082-.017.045-.01c.062-.01.123-.022.184-.033l.09-.014.09-.013.007-.002.13-.017.092-.01a2.418 2.418 0 0 1 .185-.017c.02 0 .039-.003.057-.004l.116-.007.058-.003.035-.001.032-.001.036-.001.037-.002h.16a6.65 6.65 0 0 1 1.006.075l.038.006.064.01.013.003.01.002.049.008.016.003.02.004.022.004.04.008a.896.896 0 0 1 .042.008l.011.002.096.021.03.007.066.015.078.019.072.018.026.007.028.007h.001l.052.014.007.002.025.007.033.01.028.007.039.011.03.01.028.008.013.004h.001l.016.005.034.01.02.007.028.009.05.016.074.025c.109.038.216.079.324.123l.036.015.08.033a1.898 1.898 0 0 1 .995 2.488 1.898 1.898 0 0 1-2.489.995 2.965 2.965 0 0 0-1.131-.24H8.84a2.945 2.945 0 0 0-.558.048l-.02.004-.025.004-.038.008h-.002a.983.983 0 0 1-.04.01l-.032.007-.019.005-.03.008-.03.007-.02.005-.12.037-.049.016-.024.008-.024.009-.024.009c-.023.009-.047.017-.07.027a2.956 2.956 0 0 0-.344.164l-.021.012-.045.025c-.014.01-.028.017-.043.027a2.377 2.377 0 0 0-.04.026c-.013.007-.024.015-.036.023l-.024.016a.19.19 0 0 0-.014.009l-.017.012-.02.014-.04.029-.04.03-.02.015a2.957 2.957 0 0 0-.39.36l-.003.004-.03.034-.029.033-.01.013a2.195 2.195 0 0 0-.035.042l-.011.014-.03.037c-.006.01-.013.018-.02.027a2.91 2.91 0 0 0-.383.683v.003l-.011.026-.01.026-.008.02a1.068 1.068 0 0 0-.009.026l-.01.03-.01.033a2.914 2.914 0 0 0-.09 1.51c.073.365.216.712.42 1.024l.016.025c.209.314.477.585.789.797l.03.02c.39.26.835.423 1.3.475l.034.004.03.002.014.002a2.884 2.884 0 0 0 .583-.008h.002c.39-.044.765-.164 1.107-.354a.633.633 0 0 0 .243-.86.628.628 0 0 0-.626-.318.634.634 0 0 0-.234.076 1.69 1.69 0 0 1-1.01.201l-.019-.002-.032-.004-.034-.006a1.038 1.038 0 0 1-.106-.022c-.007 0-.013-.002-.019-.004l-.02-.005-.022-.005-.021-.006-.018-.005-.023-.008-.04-.012-.02-.008-.04-.014a1.796 1.796 0 0 1-.06-.024l-.015-.007-.016-.007-.016-.008-.025-.011a1.698 1.698 0 0 1-.637-.541l-.014-.021-.014-.02a1.701 1.701 0 0 1-.283-.905V7.97l.001-.027.001-.027.001-.02.002-.019c0-.016.002-.032.004-.047 0-.007 0-.013.002-.02l.005-.038a.457.457 0 0 1 .004-.028l.003-.022.007-.039.008-.037.008-.04.007-.027.005-.022.013-.044a1.792 1.792 0 0 1 .177-.397l.02-.031a.495.495 0 0 1 .023-.035l.016-.021.024-.035.013-.017.014-.018a.621.621 0 0 1 .019-.023l.018-.023.019-.022a.392.392 0 0 1 .034-.037l.002-.003a1.302 1.302 0 0 1 .072-.071l.008-.008a1.702 1.702 0 0 1 .248-.194l.023-.014a.562.562 0 0 1 .024-.015l.026-.015c.088-.05.18-.093.277-.127l.04-.014.028-.009.028-.008.028-.008.028-.007.06-.013.026-.005.019-.004.02-.004a.855.855 0 0 1 .038-.005h.001c.08-.012.161-.018.242-.018h.028c.219.004.434.05.636.137 1.31.561 2.84.173 3.722-.944a3.166 3.166 0 0 0 .68-1.942v-.005A3.155 3.155 0 0 0 11.965.644l-.06-.026a4.405 4.405 0 0 0-.156-.064l-.095-.036-.05-.02-.052-.018-.045-.017-.041-.014-.063-.022a8.904 8.904 0 0 0-.131-.044l-.03-.01-.036-.011-.055-.017-.036-.012-.033-.01-.045-.013-.093-.026-.064-.017-.06-.016h-.002l-.013-.004-.104-.026-.035-.008-.041-.01-.062-.014-.005-.001-.061-.014c-.043-.01-.086-.018-.13-.027L10.33.14l-.055-.01-.036-.007-.053-.01-.019-.003c-.04-.008-.082-.014-.123-.021a4.968 4.968 0 0 0-.13-.02L9.862.063 9.832.06l-.01-.001-.018-.003-.018-.002L9.752.05 9.73.046 9.683.041 9.67.039 9.614.033 9.563.028 9.545.027l-.05-.005A8.361 8.361 0 0 0 9.161 0h-.032l-.044-.002-.062-.002a11.035 11.035 0 0 0-.139-.002h-.193l-.055.002-.056.001L8.5 0l-.046.002-.022.001-.034.002-.046.002-.04.002h-.007a7.847 7.847 0 0 0-1.08.144l-.013.002-.088.018-.004.001-.04.009a7.938 7.938 0 0 0-2.195.841l-.061.035-.025.014-.01.006-.011.007a.63.63 0 0 0-.269.71.63.63 0 0 0 .607.455v.006Z"/><path d="m4.147 5.134-.006.008a5.441 5.441 0 0 0-.641 1.53l-.003.008-.009.037c0 .006-.003.013-.004.018l-.008.036a5.46 5.46 0 0 0-.082 2.02l.007.046a.706.706 0 0 1 .011.07l.001.006v.004a5.47 5.47 0 0 0 .821 2.089l.011.016c.04.06.081.12.124.18l.048.065a5.468 5.468 0 0 0 3.591 2.149l.008.001.036.005h.005l.03.005h.006l.032.005c.431.055.868.057 1.301.008l.028-.003a.34.34 0 0 1 .026-.003l.038-.005.007-.001h.004l.009-.002.034-.005.013-.002.06-.008h.002a5.466 5.466 0 0 0 2.494-1.067.628.628 0 0 0 .23-.666.628.628 0 0 0-.531-.465.628.628 0 0 0-.47.13 4.209 4.209 0 0 1-1.502.734l-.021.005a4.184 4.184 0 0 1-.418.084h-.006l-.05.007-.018.003a4.223 4.223 0 0 1-1.696-.124l-.004-.002a4.792 4.792 0 0 1-.215-.067l-.065-.023-.028-.011-.008-.003-.05-.019-.014-.005-.025-.01-.006-.002h-.001a1.71 1.71 0 0 1-.05-.02l-.012-.006-.014-.006-.073-.031-.02-.01a4.233 4.233 0 0 1-1.754-1.48l-.01-.015-.018-.028-.016-.024a4.235 4.235 0 0 1-.678-2.256V7.98l.001-.066V7.91a4.222 4.222 0 0 1 .015-.271v-.013a4.198 4.198 0 0 1 .59-1.8l.007-.012.013-.022a4.245 4.245 0 0 1 1.523-1.46 4.253 4.253 0 0 1 1.46-.497c.2-.028.4-.042.602-.042.016 0 .031 0 .047-.002h.003a4.176 4.176 0 0 1 1.583.332l.026.011h.001a.628.628 0 0 0 .83-.33.631.631 0 0 0-.332-.83 5.443 5.443 0 0 0-2.948-.387l-.023.003-.034.005-.007.001-.026.005a5.43 5.43 0 0 0-2.11.817l-.004.003-.029.019-.03.02-.019.013a5.42 5.42 0 0 0-1.462 1.463l-.023.035-.025.038-.005.007-.025.04-.015.022a.562.562 0 0 0-.015.025c-.003.005-.006.01-.01.013l-.01.017v.003-.001Z"/></g></g><defs><clipPath id="a"><path fill="#fff" d="M0 0h16v16H0z"/></clipPath><clipPath id="b"><path fill="#fff" transform="translate(-.313)" d="M0 0h16v16H0z"/></clipPath></defs></svg>