<svg width="16" height="16" fill="none" xmlns="http://www.w3.org/2000/svg"><g clip-path="url(#a)" fill="#46B549"><path d="M8.023 13.318c2.976 0 5.372-2.396 5.372-5.296 0-2.9-2.396-5.295-5.372-5.295-2.975 0-5.37 2.395-5.37 5.295s2.395 5.296 5.37 5.296Z"/><path d="M12.524 13.633c.289.274.271.741-.06.961-3.115 2.073-7.345 1.77-10.112-.974a7.87 7.87 0 0 1 0-11.246C5.105-.38 9.375-.676 12.495 1.42c.317.213.34.659.07.929a.69.69 0 0 1-.866.07C9.104.713 5.569 1.022 3.31 3.28a6.592 6.592 0 0 0-.05 9.431c2.258 2.259 5.794 2.568 8.389.863a.707.707 0 0 1 .874.058Zm1.165-1.138c.274.29.741.273.963-.057a7.984 7.984 0 0 0-.023-8.917c-.213-.314-.657-.335-.926-.066a.69.69 0 0 0-.067.87c1.466 2.198 1.464 5.058-.006 7.294a.708.708 0 0 0 .059.876Z"/></g><defs><clipPath id="a"><path fill="#fff" d="M0 0h16v16H0z"/></clipPath></defs></svg>