<?xml version="1.0" encoding="UTF-8" standalone="no"?>
<svg
   width="15.996431"
   height="19.128796"
   viewBox="0 0 15.996431 19.128796"
   version="1.1"
   xml:space="preserve"
   style="clip-rule:evenodd;fill-rule:evenodd;stroke-linejoin:round;stroke-miterlimit:2"
   id="svg4"
   xmlns="http://www.w3.org/2000/svg"
   xmlns:svg="http://www.w3.org/2000/svg"><defs
   id="defs4" />
    <g
   transform="matrix(0.999959,0,0,0.999959,-432.87508,-502.37856)"
   id="g4">
        <g
   transform="matrix(3.9987,0,0,3.9987,-38.875,0.251891)"
   id="g1">
            <path
   d="m 121.93742,129.53368 c -0.0159,-0.019 -0.0355,-0.0346 -0.0576,-0.046 -0.0221,-0.0114 -0.0461,-0.0184 -0.0708,-0.0206 -0.0499,-0.004 -0.0995,0.0114 -0.13774,0.0437 -0.005,0.004 -0.01,0.008 -0.0146,0.0121 -0.004,0.003 -0.007,0.006 -0.0106,0.009 -0.0548,0.0446 -0.11188,0.0863 -0.17105,0.1249 l -0.008,0.005 c -0.013,0.008 -0.0261,0.0167 -0.0393,0.0247 -0.003,0.002 -0.006,0.004 -0.009,0.005 -0.003,0.002 -0.006,0.004 -0.009,0.005 l -0.005,0.003 -0.009,0.005 c -0.003,0.002 -0.006,0.004 -0.009,0.005 -0.0349,0.0203 -0.0705,0.0396 -0.10658,0.0578 l -0.009,0.005 -0.0125,0.006 -0.0164,0.008 -0.001,6.9e-4 c -0.005,0.003 -0.0109,0.005 -0.0164,0.008 l -0.0125,0.006 -0.008,0.004 c -0.004,0.002 -0.009,0.004 -0.0129,0.006 -0.006,0.002 -0.0115,0.005 -0.0173,0.008 -0.0116,0.005 -0.0234,0.01 -0.0352,0.0148 -0.006,0.002 -0.012,0.005 -0.018,0.007 -0.0115,0.005 -0.0231,0.009 -0.0347,0.0136 h -3.6e-4 c -0.0115,0.004 -0.0231,0.009 -0.0347,0.0127 l -0.002,8.8e-4 c -0.005,0.002 -0.0109,0.004 -0.0166,0.006 -0.006,0.002 -0.0116,0.004 -0.0173,0.006 l -0.0174,0.006 c -0.002,5.6e-4 -0.003,0.001 -0.005,0.002 l -0.0113,0.004 -0.009,0.003 c -0.01,0.003 -0.0188,0.006 -0.0284,0.009 l -0.006,0.002 c -0.004,0.001 -0.008,0.002 -0.0116,0.003 l -0.0134,0.004 -0.0108,0.003 -0.007,0.002 -0.009,0.002 c -0.01,0.003 -0.0203,0.005 -0.0305,0.008 -0.002,7.1e-4 -0.005,10e-4 -0.008,0.002 -0.004,8.8e-4 -0.007,0.002 -0.0109,0.003 l -0.009,0.002 c -7e-4,1.8e-4 -0.002,3.5e-4 -0.002,5.2e-4 -0.005,0.001 -0.009,0.002 -0.0139,0.003 -0.008,0.002 -0.0169,0.004 -0.0255,0.005 -0.008,0.002 -0.0162,0.003 -0.0241,0.005 l -0.0197,0.004 -0.0121,0.002 c -0.004,7.1e-4 -0.007,0.001 -0.0109,0.002 l -0.0157,0.003 -0.0153,0.002 -0.002,3.6e-4 c -0.006,8.8e-4 -0.0125,0.002 -0.0187,0.003 -0.006,8.8e-4 -0.0121,0.002 -0.018,0.002 l -0.004,5.4e-4 -0.0148,0.002 h -0.001 c -0.004,5.2e-4 -0.008,0.001 -0.0123,0.002 l -0.0109,0.001 c -0.0108,10e-4 -0.0217,0.002 -0.0326,0.004 h -0.003 c -0.004,7.1e-4 -0.007,0.001 -0.0108,0.001 l -0.009,8.8e-4 c -0.004,3.5e-4 -0.007,7.1e-4 -0.0111,8.7e-4 l -0.0111,8.8e-4 c -0.0146,0.001 -0.0294,0.002 -0.044,0.003 l -0.0196,0.001 -0.0111,3.6e-4 c -0.003,1e-5 -0.006,1.5e-4 -0.008,3.5e-4 l -0.0107,3.4e-4 h -0.0109 c -0.004,1.8e-4 -0.007,5.4e-4 -0.0111,5.4e-4 h -0.004 c -0.006,0 -0.0123,1.7e-4 -0.0183,1.7e-4 h -0.04 c -0.20843,-0.002 -0.41522,-0.0372 -0.61304,-0.10288 -0.007,-0.002 -0.0143,-0.005 -0.0213,-0.007 -0.004,-0.001 -0.007,-0.002 -0.0104,-0.004 -0.003,-0.001 -0.007,-0.002 -0.0104,-0.004 -0.006,-0.002 -0.0113,-0.004 -0.0169,-0.006 l -0.007,-0.003 c -0.006,-0.002 -0.0127,-0.005 -0.0188,-0.007 l -0.003,-0.001 c -0.002,-8.8e-4 -0.005,-0.002 -0.007,-0.003 l -0.002,-0.001 -0.002,-7.1e-4 -0.004,-0.002 -0.004,-0.002 h -8.8e-4 l -0.002,-8.8e-4 -0.008,-0.003 -0.0102,-0.004 c -0.006,-0.002 -0.0113,-0.005 -0.0169,-0.007 h -8.8e-4 l -0.0113,-0.005 -0.0132,-0.006 c -0.35355,-0.15566 -0.65535,-0.40915 -0.86971,-0.73052 -0.002,-0.002 -0.003,-0.005 -0.005,-0.007 -0.21644,-0.3293 -0.33224,-0.71467 -0.33312,-1.10873 v -0.0299 c 0,-0.008 3.6e-4,-0.0151 5.3e-4,-0.0227 v -0.002 c 0.006,-0.225 0.0499,-0.4474 0.12946,-0.65794 0.003,-0.007 0.006,-0.0146 0.008,-0.022 0.002,-0.007 0.005,-0.013 0.008,-0.0195 l 0.005,-0.0132 c 0.003,-0.007 0.006,-0.0145 0.009,-0.0217 0.003,-0.008 0.007,-0.0158 0.0104,-0.0238 1.8e-4,-5.2e-4 5.4e-4,-0.001 7.1e-4,-0.002 2.4e-4,-7.3e-4 5.4e-4,-10e-4 8.7e-4,-0.002 l 0.007,-0.0164 c 0,0 0,-3.7e-4 1.8e-4,-5.2e-4 0.002,-0.005 0.005,-0.0101 0.007,-0.015 7.1e-4,-0.001 0.001,-0.003 0.002,-0.004 l 10e-4,-0.002 c 0.001,-0.002 0.002,-0.005 0.004,-0.007 7.1e-4,-0.002 0.001,-0.003 0.002,-0.005 l 0.002,-0.005 5.2e-4,-0.001 0.001,-0.003 c 0.003,-0.006 0.005,-0.0113 0.008,-0.0169 5.3e-4,-8.8e-4 8.8e-4,-0.002 0.001,-0.003 0.004,-0.007 0.007,-0.0148 0.0111,-0.022 0.003,-0.005 0.005,-0.0104 0.008,-0.0155 l 0.002,-0.003 c 0,0 0,-3.4e-4 1.9e-4,-5.3e-4 0,0 0,-3.5e-4 1.9e-4,-3.5e-4 0.002,-0.003 0.003,-0.006 0.005,-0.009 5.2e-4,-0.001 0.001,-0.002 0.002,-0.003 l 0.004,-0.007 c 0.001,-0.002 0.002,-0.004 0.003,-0.006 l 7e-4,-0.001 0.001,-0.002 c 0.002,-0.004 0.004,-0.008 0.006,-0.0113 0.0628,-0.11373 0.13666,-0.22106 0.22038,-0.32044 10e-4,-0.002 0.003,-0.004 0.004,-0.005 0.0303,-0.039 0.0442,-0.0883 0.0386,-0.13741 -0.0117,-0.10154 -0.10366,-0.17617 -0.20542,-0.16663 -0.0492,0.005 -0.0947,0.0284 -0.12664,0.0661 -0.0705,0.0836 -0.13508,0.17195 -0.19343,0.26441 l -0.001,0.002 c -0.005,0.008 -0.01,0.0162 -0.0151,0.0241 -0.003,0.004 -0.005,0.008 -0.008,0.0129 -0.0774,0.12795 -0.14253,0.2629 -0.19465,0.40304 -0.026,0.07 -0.0487,0.14117 -0.068,0.21331 -3.4e-4,0.001 -6.9e-4,0.002 -10e-4,0.004 -0.002,0.006 -0.003,0.0129 -0.005,0.0194 -5.4e-4,0.002 -9e-4,0.004 -10e-4,0.005 -8.8e-4,0.003 -0.002,0.007 -0.003,0.0104 l -0.003,0.0104 c -0.002,0.007 -0.003,0.0137 -0.005,0.0208 0,5.4e-4 -3.7e-4,0.001 -3.7e-4,0.002 -1.7e-4,0.001 -5.1e-4,0.002 -6.9e-4,0.003 v 7.1e-4 c -0.001,0.004 -0.002,0.009 -0.003,0.013 -3.4e-4,0.001 -5.3e-4,0.002 -8.8e-4,0.004 -0.0682,0.30105 -0.0775,0.6125 -0.0273,0.91708 3.6e-4,0.002 7.1e-4,0.005 10e-4,0.007 0.0517,0.30997 0.16422,0.60668 0.331,0.87303 0.003,0.004 0.006,0.009 0.008,0.0134 l 0.008,0.0123 c 0.003,0.004 0.005,0.008 0.008,0.0123 0.004,0.006 0.008,0.0118 0.0116,0.0178 0.002,0.004 0.005,0.007 0.007,0.0102 8.8e-4,10e-4 0.002,0.003 0.003,0.004 0.004,0.006 0.008,0.0116 0.012,0.0174 9e-4,10e-4 0.002,0.002 0.002,0.004 3.5e-4,7.1e-4 8.8e-4,0.001 10e-4,0.002 l 0.001,0.002 c 0.009,0.0128 0.0178,0.0256 0.027,0.0382 0.005,0.007 0.01,0.0139 0.0152,0.0208 0.004,0.006 0.008,0.0115 0.0125,0.0171 0.002,0.003 0.004,0.005 0.006,0.008 l 0.01,0.0132 c 0.002,0.003 0.004,0.005 0.006,0.008 0.003,0.004 0.007,0.008 0.01,0.0125 0.002,0.002 0.004,0.005 0.005,0.007 0.004,0.005 0.007,0.009 0.0108,0.0136 0.002,0.003 0.004,0.006 0.007,0.008 0.003,0.004 0.006,0.008 0.01,0.0118 0.002,0.003 0.005,0.005 0.007,0.008 0.003,0.004 0.007,0.008 0.01,0.012 0.002,0.003 0.005,0.006 0.007,0.008 0.003,0.004 0.007,0.008 0.01,0.0116 0.005,0.006 0.0108,0.0125 0.0162,0.0185 0.005,0.006 0.0115,0.0129 0.0173,0.0194 0.006,0.006 0.012,0.0134 0.0181,0.0199 0.006,0.007 0.0122,0.0132 0.0183,0.0197 0.006,0.007 0.0123,0.013 0.0187,0.0196 0.12997,0.1352 0.27555,0.25448 0.43369,0.3553 l 0.004,0.002 0.0127,0.008 c 0.23771,0.14978 0.49999,0.25648 0.77475,0.31515 l 0.0127,0.003 0.0116,0.002 c 0.008,0.002 0.0164,0.003 0.0247,0.005 0.004,8.8e-4 0.008,0.002 0.0123,0.002 l 0.006,10e-4 0.006,0.001 0.013,0.002 0.003,5.4e-4 0.005,8.8e-4 c 0.005,8.8e-4 0.01,0.002 0.0144,0.002 l 0.0174,0.003 0.0176,0.003 0.0176,0.003 c 0.006,8.8e-4 0.0118,0.002 0.0176,0.002 l 0.0176,0.002 0.0111,0.001 0.0114,0.001 c 0.003,3.5e-4 0.007,8.7e-4 0.0102,0.001 0.007,8.8e-4 0.0143,0.002 0.0215,0.002 l 0.0155,0.002 0.009,8.8e-4 0.013,0.001 c 0.0312,0.003 0.0626,0.005 0.0939,0.007 0.0147,7.6e-4 0.0293,0.001 0.044,0.002 h 0.006 l 0.0268,5.3e-4 h 0.0687 c 0.009,0 0.0182,-3.6e-4 0.0273,-5.3e-4 h 0.002 c 0.009,-1.8e-4 0.0185,-5.4e-4 0.0278,-8.9e-4 l 0.0143,-5.3e-4 0.0143,-7.1e-4 c 0.009,-3.3e-4 0.0174,-8.8e-4 0.0261,-0.001 0.0129,-7.1e-4 0.0255,-0.002 0.0384,-0.002 0.0284,-0.002 0.0568,-0.005 0.0851,-0.008 0.005,-5.2e-4 0.0102,-10e-4 0.0155,-0.002 0.005,-5.3e-4 0.0104,-0.001 0.0155,-0.002 l 0.006,-6.9e-4 c 0.005,-5.4e-4 0.01,-0.001 0.0146,-0.002 0.006,-7.1e-4 0.0122,-0.002 0.0181,-0.002 l 0.004,-5.2e-4 c 0.007,-0.001 0.0137,-0.002 0.0208,-0.003 l 0.002,-3.6e-4 0.0134,-0.002 0.0127,-0.002 0.008,-10e-4 h 10e-4 c 0.01,-0.002 0.0192,-0.003 0.0289,-0.005 l 0.002,-3.6e-4 0.0169,-0.003 c 0.28126,-0.0525 0.55077,-0.15532 0.79553,-0.3035 0.004,-0.003 0.009,-0.005 0.0131,-0.008 0.019,-0.0116 0.0378,-0.0236 0.0564,-0.0358 0.0814,-0.0532 0.1594,-0.11127 0.23377,-0.17386 0.0382,-0.0323 0.062,-0.0784 0.0662,-0.12825 0.004,-0.0498 -0.0114,-0.0993 -0.0435,-0.13758 h -7.1e-4 z"
   style="fill:#1066df;fill-rule:nonzero;stroke-width:0.0186953"
   id="path1" />
        </g>
        <g
   transform="matrix(3.9987,0,0,3.9987,-38.875,0.251891)"
   id="g2">
            <path
   d="m 119.26846,126.251 c 0.0333,4e-5 0.066,-0.009 0.0948,-0.0257 0.0374,-0.0217 0.0755,-0.0422 0.11416,-0.0615 0.0247,-0.0123 0.0497,-0.024 0.0748,-0.0353 0.004,-0.002 0.008,-0.004 0.0127,-0.006 0.003,-0.001 0.006,-0.002 0.009,-0.004 0.006,-0.002 0.0111,-0.005 0.0167,-0.007 l 0.0125,-0.005 c 0.008,-0.004 0.017,-0.007 0.0255,-0.0104 l 0.01,-0.004 0.016,-0.006 c 0.004,-0.002 0.008,-0.003 0.0116,-0.004 0.0183,-0.007 0.0366,-0.0134 0.0553,-0.0197 l 0.0109,-0.004 c 0.0218,-0.007 0.0437,-0.0143 0.0657,-0.0208 l 0.0109,-0.003 c 0.0285,-0.008 0.0572,-0.0159 0.086,-0.0229 l 0.01,-0.002 0.0111,-0.003 0.008,-0.002 0.008,-0.002 c 0.005,-0.001 0.0108,-0.002 0.016,-0.004 0.008,-0.002 0.0162,-0.004 0.0245,-0.005 l 0.0136,-0.003 c 0.0183,-0.004 0.0366,-0.007 0.055,-0.01 0.009,-0.001 0.0178,-0.003 0.0266,-0.004 0.009,-10e-4 0.018,-0.003 0.0273,-0.004 l 0.002,-3.4e-4 c 0.013,-0.002 0.0261,-0.004 0.0391,-0.005 l 0.0275,-0.003 c 0.009,-0.001 0.0183,-0.002 0.0275,-0.003 0.009,-8.9e-4 0.0183,-0.002 0.0277,-0.002 0.006,-3.5e-4 0.0116,-8.7e-4 0.0173,-0.001 l 0.0347,-0.002 c 0.006,-3.6e-4 0.0116,-5.3e-4 0.0173,-8.8e-4 0.004,0 0.007,-3.8e-4 0.0104,-3.8e-4 l 0.009,-3.3e-4 0.0109,-3.6e-4 0.0109,-3.5e-4 c 0.007,-1.9e-4 0.0148,-3.4e-4 0.022,-3.4e-4 h 0.0261 c 0.0832,0 0.1663,0.005 0.24875,0.0155 0.0174,0.002 0.0349,0.005 0.0523,0.007 0.004,5.2e-4 0.008,0.001 0.0115,0.002 l 0.0192,0.003 0.004,6.9e-4 0.003,5.5e-4 c 0.005,8.7e-4 0.01,0.002 0.0144,0.002 l 0.005,8.8e-4 0.006,0.001 0.006,0.001 0.012,0.002 c 0.004,7.1e-4 0.008,0.002 0.0125,0.002 l 0.003,7.1e-4 c 0.009,0.002 0.0192,0.004 0.0287,0.006 l 0.009,0.002 c 0.007,0.001 0.0132,0.003 0.0199,0.005 0.008,0.002 0.0155,0.004 0.0233,0.006 0.007,0.002 0.0144,0.004 0.0217,0.005 l 0.008,0.002 0.008,0.002 h 3.5e-4 c 0.005,0.001 0.0106,0.003 0.0157,0.004 7.1e-4,0 0.001,3.5e-4 0.002,5.2e-4 0.002,7.1e-4 0.005,0.001 0.007,0.002 0.003,8.9e-4 0.007,0.002 0.01,0.003 l 0.008,0.002 c 0.004,0.001 0.008,0.002 0.0116,0.003 l 0.009,0.003 0.008,0.002 0.004,0.001 h 3.6e-4 l 0.005,10e-4 0.0101,0.003 0.006,0.002 0.008,0.003 c 0.005,0.002 0.01,0.003 0.0146,0.005 0.007,0.002 0.0148,0.005 0.0222,0.008 0.0326,0.0114 0.0649,0.0237 0.0969,0.0366 l 0.0109,0.005 c 0.008,0.003 0.0159,0.007 0.0238,0.01 0.0271,0.0116 0.0532,0.0252 0.0782,0.0409 0.23218,0.14568 0.33065,0.44357 0.21932,0.70323 -0.0593,0.13802 -0.17108,0.247 -0.31057,0.3028 -0.13949,0.0558 -0.29561,0.0539 -0.43369,-0.005 -0.10702,-0.0458 -0.22201,-0.0701 -0.33841,-0.0715 h -3.3e-4 c -0.0338,-3.5e-4 -0.0675,0.001 -0.10113,0.005 -0.0151,0.002 -0.0301,0.004 -0.0453,0.006 -0.007,10e-4 -0.0135,0.002 -0.0203,0.004 l -0.006,0.001 c -0.002,5.4e-4 -0.005,8.7e-4 -0.008,0.001 -0.004,7.1e-4 -0.008,10e-4 -0.0113,0.002 h -6.9e-4 c -0.004,0.001 -0.008,0.002 -0.012,0.003 l -0.01,0.002 -0.006,0.001 -0.009,0.002 c -0.003,7.1e-4 -0.006,0.002 -0.009,0.002 l -0.006,0.002 c -0.0122,0.003 -0.0243,0.007 -0.0363,0.0109 -0.005,0.002 -0.01,0.003 -0.0144,0.005 l -0.007,0.002 c -0.002,8.7e-4 -0.005,0.002 -0.007,0.003 l -0.007,0.003 c -0.007,0.003 -0.0143,0.005 -0.0211,0.008 -0.0352,0.0141 -0.0696,0.0305 -0.10271,0.049 -0.002,0.001 -0.004,0.002 -0.006,0.004 -0.004,0.002 -0.009,0.005 -0.0132,0.008 -0.004,0.003 -0.009,0.005 -0.013,0.008 -0.004,0.003 -0.008,0.005 -0.0122,0.008 l -0.0106,0.007 c -0.002,0.002 -0.005,0.003 -0.007,0.005 -0.001,8.8e-4 -0.003,0.002 -0.004,0.003 -10e-4,10e-4 -0.003,0.002 -0.005,0.004 -0.002,0.001 -0.004,0.003 -0.006,0.004 -0.004,0.003 -0.008,0.006 -0.012,0.009 -0.004,0.003 -0.008,0.006 -0.0122,0.009 -0.002,10e-4 -0.004,0.003 -0.006,0.004 -0.042,0.0324 -0.081,0.0685 -0.11644,0.10798 l -10e-4,10e-4 c -0.003,0.003 -0.006,0.007 -0.009,0.0102 -0.003,0.003 -0.006,0.007 -0.008,0.01 l -0.003,0.004 c -0.004,0.004 -0.007,0.008 -0.0104,0.0127 -0.001,0.001 -0.002,0.003 -0.003,0.004 -0.003,0.004 -0.006,0.007 -0.009,0.0111 -0.002,0.003 -0.004,0.005 -0.006,0.008 -0.006,0.007 -0.0111,0.0148 -0.0164,0.0224 v 1.7e-4 c -0.0398,0.0565 -0.0727,0.11752 -0.0981,0.18179 0,3.6e-4 -1.9e-4,5.4e-4 -3.6e-4,8.8e-4 l -0.003,0.008 -0.003,0.008 c -6.9e-4,0.002 -0.002,0.004 -0.002,0.006 -7.1e-4,0.002 -0.002,0.005 -0.003,0.008 -0.001,0.003 -0.002,0.006 -0.003,0.009 -0.001,0.003 -0.002,0.007 -0.003,0.01 -0.0468,0.14038 -0.057,0.29038 -0.0298,0.43581 8.8e-4,0.005 0.002,0.0104 0.003,0.0157 0.0219,0.10922 0.0645,0.21322 0.12559,0.30635 l 0.005,0.008 c 0.0624,0.094 0.14249,0.17499 0.23586,0.23834 0.003,0.002 0.006,0.004 0.009,0.006 0.11638,0.0779 0.24979,0.12662 0.38896,0.14216 l 0.01,0.001 0.009,9e-4 0.004,3.4e-4 c 0.0558,0.005 0.11203,0.005 0.16787,-0.001 0.002,-1.7e-4 0.004,-5.3e-4 0.007,-8.8e-4 h 5.3e-4 c 0.11632,-0.013 0.2289,-0.0491 0.33117,-0.10604 0.0216,-0.0121 0.0406,-0.0283 0.056,-0.0478 0.0154,-0.0195 0.0267,-0.0418 0.0335,-0.0657 0.007,-0.0239 0.009,-0.0488 0.006,-0.0734 -0.003,-0.0246 -0.0106,-0.0485 -0.0227,-0.0701 -0.0121,-0.0217 -0.0284,-0.0407 -0.0479,-0.056 -0.0195,-0.0154 -0.0418,-0.0268 -0.0657,-0.0335 -0.0239,-0.007 -0.0488,-0.009 -0.0734,-0.006 -0.0247,0.003 -0.0484,0.0106 -0.0701,0.0227 -0.092,0.0511 -0.19772,0.0722 -0.30229,0.0602 l -0.005,-7.1e-4 c -0.003,-3.5e-4 -0.006,-8.8e-4 -0.009,-0.001 -0.003,-5.3e-4 -0.007,-8.8e-4 -0.0102,-0.002 -0.004,-6.7e-4 -0.008,-0.001 -0.0125,-0.002 -0.006,-0.001 -0.013,-0.003 -0.0194,-0.004 -0.002,-3.5e-4 -0.004,-8.9e-4 -0.005,-0.001 l -0.006,-0.002 c -0.002,-5.4e-4 -0.004,-0.001 -0.006,-0.002 l -0.006,-0.002 c -0.002,-5.4e-4 -0.004,-0.001 -0.005,-0.002 l -0.007,-0.002 c -0.004,-0.001 -0.008,-0.003 -0.0122,-0.004 -0.002,-7.1e-4 -0.004,-0.001 -0.006,-0.002 -0.004,-0.001 -0.008,-0.003 -0.012,-0.004 -0.006,-0.002 -0.0119,-0.005 -0.0178,-0.007 l -0.005,-0.002 -0.005,-0.002 -0.005,-0.002 -0.007,-0.004 c -0.076,-0.0372 -0.14153,-0.0928 -0.1906,-0.16171 l -0.004,-0.006 c -0.001,-0.002 -0.003,-0.004 -0.004,-0.006 -0.001,-0.002 -0.002,-0.004 -0.004,-0.005 -0.0511,-0.0792 -0.0791,-0.17107 -0.081,-0.26529 v -0.0166 c 0,-0.002 0,-0.005 1.6e-4,-0.008 1.7e-4,-0.003 1.7e-4,-0.005 3.6e-4,-0.008 0,-0.002 0,-0.004 3.5e-4,-0.006 l 3.4e-4,-0.006 c 3.6e-4,-0.005 7.1e-4,-0.01 0.001,-0.0141 1.9e-4,-0.002 3.6e-4,-0.004 7.2e-4,-0.006 3.5e-4,-0.004 8.7e-4,-0.007 0.001,-0.0113 3.3e-4,-0.003 6.9e-4,-0.006 10e-4,-0.008 l 0.001,-0.006 c 7.1e-4,-0.004 0.001,-0.008 0.002,-0.0116 7.1e-4,-0.004 0.001,-0.007 0.002,-0.0111 8.8e-4,-0.004 0.002,-0.008 0.003,-0.0122 7.1e-4,-0.003 10e-4,-0.005 0.002,-0.008 5.3e-4,-0.002 0.001,-0.004 0.002,-0.006 l 0.004,-0.0132 c 0.006,-0.0183 0.0122,-0.0365 0.0197,-0.0541 0.011,-0.0258 0.0242,-0.0506 0.0395,-0.0742 0.002,-0.003 0.004,-0.007 0.007,-0.0102 0.001,-0.002 0.003,-0.004 0.005,-0.007 0.002,-0.004 0.005,-0.007 0.007,-0.0102 l 0.004,-0.005 c 0.001,-0.002 0.003,-0.004 0.004,-0.005 0.002,-0.002 0.004,-0.005 0.005,-0.007 0.002,-0.002 0.004,-0.005 0.005,-0.007 l 0.006,-0.007 c 0.003,-0.004 0.007,-0.008 0.0102,-0.0113 l 6.9e-4,-6.9e-4 c 0.004,-0.004 0.008,-0.008 0.0118,-0.0123 0.003,-0.003 0.006,-0.006 0.01,-0.009 l 0.002,-0.002 c 0.0193,-0.0182 0.04,-0.0348 0.0618,-0.0497 0.004,-0.003 0.008,-0.006 0.0125,-0.008 0.002,-0.001 0.004,-0.003 0.007,-0.004 0.002,-0.002 0.005,-0.003 0.007,-0.005 0.002,-0.001 0.005,-0.003 0.008,-0.004 0.0265,-0.015 0.0542,-0.0277 0.0828,-0.0379 l 0.0123,-0.004 c 0.003,-8.8e-4 0.005,-0.002 0.008,-0.003 0.003,-9e-4 0.005,-0.002 0.008,-0.002 0.003,-7.1e-4 0.006,-0.002 0.008,-0.002 0.003,-6.9e-4 0.005,-10e-4 0.008,-0.002 0.006,-0.001 0.012,-0.003 0.018,-0.004 l 0.008,-0.002 0.006,-0.001 0.006,-10e-4 c 0.004,-7.1e-4 0.008,-0.001 0.0115,-0.002 h 3.3e-4 c 0.0239,-0.004 0.0481,-0.005 0.0722,-0.005 h 0.008 c 0.0655,0.001 0.12998,0.0151 0.19024,0.0409 0.39178,0.16805 0.84961,0.052 1.11349,-0.28239 0.13052,-0.16548 0.20216,-0.36985 0.20347,-0.58061 v -0.002 c 7.1e-4,-0.18542 -0.0532,-0.36701 -0.15503,-0.52198 -0.10177,-0.15498 -0.24702,-0.27658 -0.4175,-0.34949 -0.006,-0.003 -0.0121,-0.005 -0.0183,-0.008 -0.006,-0.002 -0.0125,-0.005 -0.0187,-0.008 -0.009,-0.004 -0.0185,-0.008 -0.028,-0.0113 -0.009,-0.004 -0.0187,-0.007 -0.028,-0.0109 l -0.0153,-0.006 c -0.005,-0.002 -0.0102,-0.004 -0.0153,-0.006 -0.005,-0.002 -0.009,-0.003 -0.0136,-0.005 l -0.0122,-0.004 -0.0188,-0.007 c -0.013,-0.004 -0.0261,-0.009 -0.0393,-0.013 l -0.009,-0.003 -0.0108,-0.004 -0.0162,-0.005 -0.0109,-0.003 -0.01,-0.003 -0.0138,-0.004 -0.0276,-0.008 c -0.006,-0.002 -0.0127,-0.003 -0.019,-0.005 l -0.018,-0.005 h -7.1e-4 l -0.004,-0.001 c -0.0104,-0.003 -0.0206,-0.005 -0.031,-0.008 l -0.0106,-0.002 -0.0123,-0.003 c -0.006,-0.001 -0.0123,-0.003 -0.0185,-0.004 l -0.001,-3.5e-4 -0.0185,-0.004 c -0.0129,-0.003 -0.0257,-0.005 -0.0386,-0.008 l -0.0113,-0.002 -0.0164,-0.003 c -0.004,-7.1e-4 -0.007,-10e-4 -0.0109,-0.002 l -0.0157,-0.003 -0.006,-0.001 c -0.0123,-0.002 -0.0247,-0.004 -0.037,-0.006 -0.013,-0.002 -0.0259,-0.004 -0.0389,-0.006 l -0.0155,-0.002 -0.009,-0.001 c -0.001,0 -0.002,-3.3e-4 -0.003,-3.3e-4 l -0.005,-7.1e-4 -0.005,-7.2e-4 -0.0102,-0.001 -0.007,-8.8e-4 -0.0136,-0.002 -0.004,-5.2e-4 c -0.005,-5.2e-4 -0.0109,-0.001 -0.0166,-0.002 l -0.0153,-0.001 -0.005,-5.4e-4 -0.0151,-0.001 c -0.006,-5.3e-4 -0.012,-10e-4 -0.018,-10e-4 -0.0271,-0.002 -0.0543,-0.004 -0.0815,-0.005 h -0.006 l -0.004,-1.9e-4 -0.0132,-5.2e-4 -0.0187,-5.3e-4 c -0.0138,-3.1e-4 -0.0276,-5.6e-4 -0.0414,-7.1e-4 h -0.0405 c -0.006,0 -0.0115,0 -0.0173,1.9e-4 -0.006,1.7e-4 -0.0111,1.7e-4 -0.0166,3.4e-4 -0.005,0 -0.0109,1.8e-4 -0.0166,3.7e-4 -0.008,1.7e-4 -0.016,5.1e-4 -0.024,8.6e-4 l -0.0139,5.4e-4 -0.006,3.4e-4 -0.0104,5.4e-4 -0.0136,6.9e-4 -0.0123,7.1e-4 h -0.002 c -0.1087,0.007 -0.21668,0.0211 -0.32326,0.0428 l -0.004,6.9e-4 c -0.009,0.002 -0.0173,0.004 -0.0261,0.005 l -0.001,3.7e-4 c -0.004,8.6e-4 -0.008,0.002 -0.0116,0.002 -0.0382,0.008 -0.0761,0.0178 -0.1138,0.028 -0.18952,0.0518 -0.37189,0.12686 -0.54291,0.22355 l -0.0185,0.0106 -0.007,0.004 -0.003,0.002 -0.003,0.002 c -0.0346,0.0219 -0.0611,0.0545 -0.0756,0.0928 -0.0144,0.0383 -0.0161,0.0803 -0.005,0.11962 0.0115,0.0393 0.0353,0.0738 0.068,0.0985 0.0328,0.0246 0.0727,0.0378 0.11363,0.0377 h 1.8e-4 z"
   style="fill:#1066df;fill-rule:nonzero;stroke-width:0.0186953"
   id="path2" />
        </g>
        <g
   transform="matrix(3.9987,0,0,3.9987,-38.875,0.251891)"
   id="g3">
            <path
   d="m 118.97937,127.11119 -0.002,0.003 c -0.087,0.14173 -0.15173,0.29596 -0.192,0.45731 -1.9e-4,8.7e-4 -5.2e-4,0.002 -7.1e-4,0.003 l -0.003,0.0111 c -3.5e-4,0.002 -8.7e-4,0.004 -0.001,0.005 -8.8e-4,0.004 -0.002,0.007 -0.002,0.0106 -0.0468,0.20267 -0.0544,0.41244 -0.0225,0.61797 3.5e-4,0.002 5.2e-4,0.004 7.1e-4,0.005 9.1e-4,0.005 0.002,0.0105 0.003,0.0157 l 3.6e-4,0.002 c 0,0 0,8.8e-4 1.8e-4,0.001 0.0378,0.22294 0.12141,0.43566 0.24555,0.62467 l 0.003,0.005 c 0.012,0.0182 0.0243,0.036 0.037,0.0536 0.005,0.007 0.01,0.0132 0.0145,0.0197 0.25857,0.34811 0.64523,0.57948 1.07421,0.6428 l 0.002,3.6e-4 0.0108,0.002 h 0.002 l 0.009,0.001 h 0.002 l 0.01,10e-4 c 0.1292,0.0163 0.2599,0.0172 0.38931,0.002 l 0.008,-0.001 c 0.003,-3.5e-4 0.005,-7.1e-4 0.008,-8.8e-4 l 0.0111,-0.001 0.002,-3.5e-4 h 10e-4 l 0.002,-5.3e-4 0.0104,-0.001 0.004,-5.4e-4 c 0.006,-8.8e-4 0.0123,-0.002 0.0183,-0.003 h 1.7e-4 c 0.27158,-0.0419 0.52825,-0.15163 0.7462,-0.31901 0.0199,-0.015 0.0366,-0.0338 0.0491,-0.0553 0.0126,-0.0216 0.0208,-0.0454 0.0241,-0.0701 0.007,-0.0499 -0.007,-0.10051 -0.0374,-0.1404 -0.0152,-0.0198 -0.0342,-0.0363 -0.0558,-0.0488 -0.0216,-0.0125 -0.0455,-0.0205 -0.0703,-0.0236 -0.0248,-0.003 -0.0499,-10e-4 -0.074,0.005 -0.024,0.007 -0.0465,0.018 -0.0662,0.0333 -0.13363,0.10256 -0.28651,0.17727 -0.44955,0.21967 -0.002,5.2e-4 -0.004,8.8e-4 -0.006,0.001 -0.0412,0.0105 -0.083,0.0189 -0.12507,0.0252 h -0.002 c -0.005,0.001 -0.01,0.002 -0.0148,0.002 l -0.005,7.1e-4 c -0.054,0.007 -0.10847,0.0106 -0.16295,0.0106 h -3.5e-4 c -0.11633,0 -0.23211,-0.0161 -0.34404,-0.0477 l -0.001,-3.6e-4 c -0.009,-0.003 -0.0174,-0.005 -0.0261,-0.008 -0.0128,-0.004 -0.0256,-0.008 -0.0382,-0.0125 l -0.0196,-0.007 -0.008,-0.003 -0.002,-8.7e-4 c -0.005,-0.002 -0.01,-0.004 -0.0148,-0.006 l -0.004,-0.002 -0.007,-0.003 -0.002,-7.1e-4 h -3.5e-4 c -0.005,-0.002 -0.01,-0.004 -0.0148,-0.006 l -0.004,-0.002 -0.004,-0.002 c -0.007,-0.003 -0.0146,-0.006 -0.022,-0.01 l -0.006,-0.003 c -0.21221,-0.0965 -0.3937,-0.24981 -0.5244,-0.44288 l -0.003,-0.005 -0.005,-0.008 -0.005,-0.007 c -0.12993,-0.2012 -0.20019,-0.43518 -0.20258,-0.67468 v -0.0162 c 0,-0.007 0,-0.013 1.9e-4,-0.0196 v -0.002 c 5.2e-4,-0.0247 0.002,-0.0491 0.004,-0.0735 1.7e-4,-0.003 3.6e-4,-0.005 6.9e-4,-0.008 0,-0.001 1.9e-4,-0.002 3.8e-4,-0.004 0.0118,-0.13219 0.0445,-0.2617 0.0969,-0.38366 0.0234,-0.0546 0.0506,-0.10754 0.0814,-0.15835 10e-4,-0.002 0.003,-0.004 0.004,-0.007 0.0225,-0.0362 0.0468,-0.0712 0.0728,-0.10497 0.067,-0.0873 0.14509,-0.16547 0.23234,-0.23253 0.0257,-0.0198 0.0522,-0.0386 0.0794,-0.0564 0.0233,-0.0151 0.047,-0.0294 0.0712,-0.043 0.1353,-0.0757 0.28329,-0.12601 0.43669,-0.14848 0.0596,-0.008 0.11969,-0.0127 0.17987,-0.0127 h 3.5e-4 c 0.005,0 0.009,-1.9e-4 0.0139,-5.3e-4 h 8.8e-4 c 0.16273,0.002 0.32352,0.0356 0.47333,0.0992 0.003,0.001 0.005,0.002 0.008,0.003 h 3.5e-4 c 0.046,0.0199 0.0981,0.0206 0.14463,0.002 0.0716,-0.0285 0.11888,-0.0982 0.11888,-0.17536 0,-0.024 -0.005,-0.0479 -0.0135,-0.0702 -0.0186,-0.0465 -0.055,-0.0838 -0.10094,-0.10357 h -3.5e-4 c -0.27748,-0.11967 -0.58289,-0.15974 -0.88184,-0.11573 l -0.007,0.001 -0.0104,0.002 -0.002,3.6e-4 -0.008,0.001 c -0.22515,0.0363 -0.44016,0.11959 -0.63098,0.24448 l -10e-4,8.8e-4 c -0.003,0.002 -0.006,0.004 -0.009,0.006 l -0.009,0.006 c -0.002,10e-4 -0.004,0.003 -0.006,0.004 -0.17609,0.11887 -0.32712,0.2712 -0.44445,0.44832 -0.002,0.004 -0.005,0.007 -0.007,0.0111 l -10e-4,0.002 -0.008,0.0118 -0.004,0.007 c -0.002,0.002 -0.003,0.005 -0.005,0.007 -8.8e-4,10e-4 -0.002,0.003 -0.003,0.004 l -0.003,0.005 -3.4e-4,9e-4 1.9e-4,-3.8e-4 z"
   style="fill:#1066df;fill-rule:nonzero;stroke-width:0.0186953"
   id="path3" />
        </g>
    </g>
</svg>
