<?xml version="1.0" encoding="UTF-8" standalone="no"?>
<svg
   width="16.00004"
   height="19.320713"
   viewBox="0 0 16.00004 19.320713"
   version="1.1"
   xml:space="preserve"
   style="clip-rule:evenodd;fill-rule:evenodd;stroke-linejoin:round;stroke-miterlimit:2"
   id="svg1"
   xmlns="http://www.w3.org/2000/svg"
   xmlns:svg="http://www.w3.org/2000/svg"><defs
   id="defs1" />
    <g
   transform="matrix(4,0,0,4,-416,-502.33904)"
   id="g1">
        <path
   d="m 108,126.55078 v -0.96602 h -2 v 0.96602 h 1 c -0.004,0.26009 -0.11174,0.50809 -0.29894,0.68868 -0.18751,0.18111 -0.43966,0.28083 -0.70106,0.2773 v -0.96598 c -0.52268,-0.007 -1.02668,0.19294 -1.40157,0.55509 -0.3749,0.36215 -0.59009,0.85728 -0.59843,1.37691 0.008,0.5196 0.22355,1.01473 0.59843,1.37688 0.37489,0.36215 0.87889,0.56174 1.40157,0.5551 0.52281,0.007 1.02708,-0.19236 1.40206,-0.55461 0.37498,-0.36224 0.59003,-0.85764 0.59794,-1.37737 h -1 c -0.002,0.12879 -0.029,0.25596 -0.0802,0.37415 -0.0513,0.11836 -0.12549,0.22543 -0.2183,0.31503 -0.093,0.0898 -0.20274,0.16044 -0.323,0.20785 -0.12043,0.0475 -0.24904,0.071 -0.37849,0.069 -0.2614,0.004 -0.51351,-0.0962 -0.701,-0.27736 -0.18751,-0.18112 -0.29506,-0.4288 -0.299,-0.68866 0.004,-0.25989 0.11151,-0.50757 0.299,-0.68868 0.18749,-0.18112 0.43958,-0.28089 0.701,-0.27734 v 0.96602 c 0.52268,0.007 1.02668,-0.193 1.40157,-0.55515 0.37488,-0.36214 0.59009,-0.85725 0.59843,-1.37685 z"
   style="fill:#ef6100;fill-rule:nonzero;stroke-width:0.0188679"
   id="path1" />
    </g>
</svg>
