<?xml version="1.0" encoding="UTF-8" standalone="no"?>
<svg
   width="27.966761"
   height="21.877317"
   viewBox="0 0 27.966761 21.877317"
   version="1.1"
   xml:space="preserve"
   style="clip-rule:evenodd;fill-rule:evenodd;stroke-linejoin:round;stroke-miterlimit:2"
   id="svg2"
   xmlns="http://www.w3.org/2000/svg"
   xmlns:svg="http://www.w3.org/2000/svg"><defs
   id="defs2" />
    <g
   transform="matrix(4.00296,0,0,4.00296,-498.90588,-393.35689)"
   id="g2">
        <path
   d="m 128.62784,99.632982 -0.58075,1.366508 H 126.684 c -7.9e-4,0 -0.002,0 -0.002,0 -0.37355,0 -0.6809,0.30735 -0.6809,0.6809 0,7.9e-4 0,0.002 0,0.002 0,7.9e-4 0,0.002 0,0.002 0,0.37355 0.30735,0.6809 0.6809,0.6809 7.9e-4,0 0.002,0 0.002,0 h 0.78233 l -0.57163,1.3665 c -0.13659,-0.001 -0.14238,0 -0.2107,0 -1.13078,0 -2.04976,-0.91897 -2.04976,-2.04975 0,-1.13081 0.91898,-2.049758 2.04976,-2.049758 h 1.94729 z"
   style="fill:#3551f2;fill-rule:nonzero;stroke-width:0.0273181"
   id="path1" />
        <path
   d="m 131.62076,100.31623 c 0,1.13081 -0.91898,2.04976 -2.04976,2.04976 h -2.10442 l 0.58076,-1.3665 h 1.52366 c 0.37579,0 0.68325,-0.30747 0.68325,-0.68323 0,-0.375813 -0.30746,-0.683278 -0.68325,-0.683278 h -0.94291 l 0.58865,-1.366477 c 0.13659,0.0012 0.22444,0 0.35426,0 1.13078,0 2.04976,0.918952 2.04976,2.049725 z"
   style="fill:#3551f2;fill-rule:nonzero;stroke-width:0.0273181"
   id="path2" />
    </g>
</svg>
