<?xml version="1.0" encoding="UTF-8" standalone="no"?>
<svg
   width="23.84898"
   height="23.84893"
   viewBox="0 0 23.84898 23.84893"
   version="1.1"
   xml:space="preserve"
   style="clip-rule:evenodd;fill-rule:evenodd;stroke-linejoin:round;stroke-miterlimit:2"
   id="svg3"
   xmlns="http://www.w3.org/2000/svg"
   xmlns:svg="http://www.w3.org/2000/svg"><defs
   id="defs3" />
    <g
   transform="matrix(1.00373,0,0,1.01105,-499.87891,-505.73254)"
   id="g3">
        <g
   transform="matrix(3.98212,0,0,3.98212,0.583005,2.53258)"
   id="g1">
            <path
   d="m 127.91279,129.92112 c 1.10884,0 2.00152,-0.89268 2.00152,-1.97332 0,-1.08066 -0.89268,-1.97332 -2.00152,-1.97332 -1.10882,0 -2.00151,0.89268 -2.00151,1.97332 0,1.08064 0.89271,1.97332 2.00151,1.97332 z"
   style="fill:#46b549;fill-rule:nonzero;stroke-width:0.0232901"
   id="path1" />
        </g>
        <g
   transform="matrix(3.98212,0,0,3.98212,0.583005,2.53258)"
   id="g2">
            <path
   d="m 129.58937,130.03888 c 0.1076,0.10194 0.10103,0.27608 -0.0224,0.3582 -1.16087,0.77237 -2.73712,0.65911 -3.76805,-0.363 -1.17462,-1.1652 -1.17462,-3.02578 0,-4.19098 1.02555,-1.02556 2.61677,-1.13611 3.77967,-0.35515 0.11794,0.0792 0.1264,0.24536 0.0259,0.34583 -0.0857,0.0857 -0.2214,0.0926 -0.32271,0.026 -0.96693,-0.63494 -2.28436,-0.51988 -3.12583,0.32159 -0.99607,0.96786 -0.99607,2.54653 -0.0188,3.5144 0.84164,0.84163 2.15939,0.95659 3.12635,0.32124 0.1017,-0.0668 0.23744,-0.0619 0.32578,0.0219 z m 0.43364,-0.42384 c 0.10201,0.1077 0.27619,0.10171 0.35894,-0.0214 0.67327,-1.00159 0.67041,-2.32388 -0.009,-3.32273 -0.0796,-0.11703 -0.24492,-0.12485 -0.34499,-0.0248 -0.0862,0.0862 -0.0926,0.22282 -0.025,0.32425 0.54643,0.81936 0.54562,1.88509 -0.002,2.71816 -0.067,0.10194 -0.0618,0.23795 0.0221,0.32652 z"
   style="fill:#46b549;fill-rule:nonzero;stroke-width:0.0232901"
   id="path2" />
        </g>
    </g>
</svg>
