<?xml version="1.0" encoding="UTF-8" standalone="no"?>
<svg
   width="68.58902"
   height="45.366863"
   viewBox="0 0 68.58902 45.366863"
   version="1.1"
   xml:space="preserve"
   style="clip-rule:evenodd;fill-rule:evenodd;stroke-linejoin:round;stroke-miterlimit:2"
   id="svg3"
   xmlns="http://www.w3.org/2000/svg"
   xmlns:svg="http://www.w3.org/2000/svg"><defs
   id="defs3" />
    <g
   transform="matrix(3.98978,0,0,3.98978,-475.81575,-489.73613)"
   id="g3">
        <path
   d="m 121.84269,133.32015 c -0.01,0.002 -0.0199,0.002 -0.0297,0 -0.0253,-0.007 -0.0443,-0.0285 -0.0492,-0.0544 -0.0272,-0.1728 0.7231,-1.7622 1.06841,-2.37965 0.17306,-0.30674 1.46893,-1.15366 2.34241,-1.56894 0.078,-0.0368 0.58291,-0.27918 0.59834,-0.25154 0.0154,0.0276 -0.45586,0.39435 -0.48048,0.41528 -0.76831,0.6157 -2.14185,2.2265 -2.85891,3.14291 -0.45666,0.58385 -0.54018,0.68614 -0.59095,0.69634 z"
   style="fill-rule:nonzero;stroke-width:0.0670775"
   id="path1" />
        <path
   d="m 129.70665,124.82109 c 1.20773,-0.0378 1.8439,0.30681 2.16037,0.61376 0.2557,0.22786 0.40998,0.54876 0.42822,0.89079 0.008,0.45713 -0.48665,0.59417 -0.78252,0.67701 -0.0399,0.0102 -0.0881,0.0236 -0.12806,0.0368 0.20432,0.0816 0.67306,0.22806 1.09498,0.359 1.75468,0.54607 2.49729,0.81821 2.56035,1.05452 0.0134,0.0545 -0.004,0.11222 -0.0451,0.15039 -0.0942,0.0788 -0.2724,0.0654 -0.56956,0.0154 l -0.043,-0.007 c -3.04847,-0.48477 -5.13304,-0.44995 -5.15451,-0.44995 -5.59292,0.0848 -8.45196,4.13378 -9.39219,5.4646 -0.24691,0.35082 -0.34525,0.48953 -0.4358,0.49201 -0.0262,-4.7e-4 -0.0517,-0.009 -0.0728,-0.0246 -0.0461,-0.0388 -0.0714,-0.0973 -0.0681,-0.1575 -0.0204,-0.63107 1.30741,-4.36319 4.13433,-6.48338 1.17627,-0.88334 3.17565,-1.77769 6.05307,-1.07371 -0.16447,-0.17641 -0.25684,-0.4083 -0.25872,-0.64944 -0.84511,0.11041 -2.35609,-0.0102 -3.43202,-0.15039 -0.925,-0.12376 -2.48817,-0.3753 -2.58852,-0.73128 -0.0215,-0.0778 0.0102,-0.16159 0.20995,-0.27824 0.89884,-0.52776 2.18901,-0.64226 2.18901,-0.64226 3.63762,-0.35109 4.14056,0.89367 4.14056,0.89367 z"
   style="fill-rule:nonzero;stroke-width:0.0670775"
   id="path2" />
        <path
   d="m 125.73003,123.62946 c 0,0 -1.0992,-0.6465 -0.92205,-0.81821 0.17722,-0.17172 2.19008,0 3.51372,0.56761 1.32364,0.56754 1.40742,1.20068 1.40742,1.20068 -0.4313,-0.70565 -1.5674,-1.14146 -3.99916,-0.95008 z m 9.39253,4.13097 c -0.19667,0.006 -0.36973,0.009 -0.63093,0.0136 -0.0642,-8e-4 -0.12772,-0.0132 -0.18755,-0.0366 l -1.68197,-0.53387 c -0.0492,-0.0154 -0.36879,-0.1186 -0.34049,-0.16059 0.0284,-0.0421 0.32265,-0.0398 0.37389,-0.0378 h 0.1137 c 2.06411,0.0604 3.27795,0.20398 3.62266,0.42641 0.0461,0.0257 0.0683,0.0804 0.0533,0.131 -0.0187,0.0751 -0.038,0.15992 -1.32257,0.19782 z m -13.15873,0.61382 c -0.0545,0.0104 -0.11081,0.004 -0.16179,-0.0174 -0.085,-0.0348 -0.12504,-0.10222 -0.20432,-0.20398 -0.20425,-0.24953 -0.28682,-0.53179 -0.22022,-0.7343 0.0437,-0.12496 0.14999,-0.21827 0.27958,-0.24544 0.4026,-0.10222 0.85638,0.0544 1.02428,0.24544 0.13616,0.14958 0.0739,0.19842 -0.10236,0.34471 -0.10297,0.0859 -0.2005,0.17823 -0.29199,0.27623 -0.14959,0.15173 -0.20405,0.27656 -0.32318,0.33478 z"
   style="fill-rule:nonzero;stroke-width:0.0670775"
   id="path3" />
    </g>
</svg>
