<svg width="16" height="16" fill="none" xmlns="http://www.w3.org/2000/svg"><g clip-path="url(#a)"><g clip-path="url(#b)" fill="#000"><path d="M2.387 12.582a.056.056 0 0 1-.028 0 .066.066 0 0 1-.046-.051c-.025-.161.674-1.642.996-2.218.161-.285 1.368-1.074 2.182-1.461.073-.035.543-.26.558-.235.014.026-.425.368-.448.387-.716.574-1.996 2.075-2.664 2.929-.425.544-.503.639-.55.649Z"/><path d="M9.715 4.664c1.126-.035 1.719.286 2.013.572a1.199 1.199 0 0 1 .4.83c.007.426-.454.554-.73.63l-.12.035c.191.076.628.213 1.021.335 1.635.509 2.327.762 2.386.982a.144.144 0 0 1-.042.14c-.088.074-.254.061-.53.015l-.041-.007c-2.84-.452-4.783-.42-4.803-.42-5.211.08-7.875 3.853-8.751 5.092-.23.327-.322.457-.406.459a.117.117 0 0 1-.068-.023.18.18 0 0 1-.063-.147c-.02-.588 1.218-4.065 3.852-6.04 1.096-.824 2.959-1.657 5.64-1.001a.898.898 0 0 1-.241-.605c-.788.103-2.195-.01-3.198-.14-.862-.116-2.318-.35-2.412-.682-.02-.072.01-.15.196-.259.837-.492 2.04-.598 2.04-.598 3.389-.328 3.857.832 3.857.832Z"/><path d="M6.01 3.552s-1.024-.602-.86-.762c.166-.16 2.041 0 3.275.529 1.233.528 1.311 1.118 1.311 1.118-.402-.657-1.46-1.063-3.726-.885ZM14.758 7.4c-.183.006-.344.008-.588.013a.497.497 0 0 1-.175-.035l-1.567-.497c-.046-.014-.343-.11-.317-.15.026-.039.3-.037.348-.035h.106c1.924.056 3.055.19 3.376.397a.105.105 0 0 1 .05.122c-.018.07-.036.15-1.233.185ZM2.501 7.973a.26.26 0 0 1-.15-.016c-.08-.032-.117-.095-.191-.19-.19-.232-.267-.495-.205-.684a.352.352 0 0 1 .26-.229c.375-.095.798.051.955.229.126.14.068.185-.096.321-.096.08-.187.166-.272.258-.14.14-.19.257-.301.311Z"/></g></g><defs><clipPath id="a"><path fill="#fff" d="M0 0h16v16H0z"/></clipPath><clipPath id="b"><rect width="16" height="16" rx="4" fill="#fff"/></clipPath></defs></svg>