<svg width="16" height="16" fill="none" xmlns="http://www.w3.org/2000/svg"><g clip-path="url(#a)"><path d="m16 0-5.334 5.333H7.111a1.778 1.778 0 0 0 0 3.556l-1.778 1.777A5.329 5.329 0 0 1 0 5.333 5.333 5.333 0 0 1 5.333 0h10.666Z" fill="#B2FE92"/><path d="M16 10.667A5.333 5.333 0 0 1 10.665 16H0l5.333-5.333h3.556c.981 0 1.777-.796 1.777-1.777l-.001-.075c0-.017-.002-.033-.003-.05l-.001-.012a.276.276 0 0 0-.003-.033l-.003-.028a.145.145 0 0 0-.004-.029c0-.006 0-.012-.002-.017l-.006-.047c0-.001 0-.003-.002-.004a.883.883 0 0 0-.015-.077l-.013-.06-.003-.012a1.67 1.67 0 0 0-.12-.326 1.272 1.272 0 0 0-.036-.07l-.05-.089a1.812 1.812 0 0 0-.124-.176l-.03-.038a3.501 3.501 0 0 0-.103-.112 1.771 1.771 0 0 0-1.258-.522l1.778-1.777.104.001.078.002a4.322 4.322 0 0 1 .279.018 4.792 4.792 0 0 1 .436.054l.07.012.016.004a4.55 4.55 0 0 1 .233.048l.118.029.004.001c.042.01.082.022.123.033a3.979 3.979 0 0 1 .254.08c.036.012.074.025.11.039l.016.006c.039.014.077.028.115.044a6.852 6.852 0 0 1 .364.16c.037.017.073.035.11.054.038.02.076.039.113.06.038.02.075.04.113.062l.11.065.103.063.009.006a5.513 5.513 0 0 1 .507.37l.015.012c.097.08.19.163.28.25l.092.09c.031.03.06.06.09.092.03.03.058.062.088.093.05.056.1.113.148.17l.03.039a4.12 4.12 0 0 1 .223.29c.025.034.049.07.073.105l.071.107.067.108.013.022.053.09c.021.037.043.075.063.113a5.77 5.77 0 0 1 .33.736l.025.073a3.786 3.786 0 0 1 .081.256l.009.028.03.114.002.004.026.109c.013.053.025.107.036.161.007.032.012.064.018.097a2.778 2.778 0 0 1 .03.176l.011.09.007.056c.004.03.008.063.01.095v.001a4.336 4.336 0 0 1 .027.4v.018l.001.128-.002-.003Z" fill="#078465"/></g><defs><clipPath id="a"><path fill="#fff" d="M0 0h16v16H0z"/></clipPath></defs></svg>