<?xml version="1.0" encoding="UTF-8" standalone="no"?>
<svg
   width="16.000021"
   height="16.000202"
   viewBox="0 0 16.000021 16.000202"
   version="1.1"
   xml:space="preserve"
   style="clip-rule:evenodd;fill-rule:evenodd;stroke-linejoin:round;stroke-miterlimit:2"
   id="svg1"
   xmlns="http://www.w3.org/2000/svg"
   xmlns:svg="http://www.w3.org/2000/svg"><defs
   id="defs1" />
    <g
   transform="matrix(4.11463,0,0,4.11463,-519.97266,-519.98562)"
   id="g1">
        <path
   d="m 129.46766,126.753 0.33528,-0.33528 c 0.0572,-0.0572 0.14998,-0.0572 0.20715,-2e-5 l 0.20715,0.20716 c 0.0572,0.0572 0.0572,0.14998 0,0.20715 v -1e-5 l -0.33527,0.33526 c 0.23772,0.32255 0.37823,0.72093 0.37823,1.15188 0,0.43094 -0.14051,0.82933 -0.37815,1.15176 l 0.33529,0.3353 c 0.0572,0.0572 0.0572,0.14997 -1e-5,0.20714 l -0.20716,0.20716 c -0.0571,0.0572 -0.14997,0.0572 -0.20712,0 l -0.3353,-0.3353 c -0.32248,0.23769 -0.72087,0.37819 -1.15181,0.37819 -0.43095,0 -0.82933,-0.1405 -1.1518,-0.37817 l -0.33531,0.33531 c -0.0572,0.0572 -0.14997,0.0572 -0.20714,0 l -0.20716,-0.20716 c -0.0571,-0.0572 -0.0571,-0.14997 0,-0.20712 l 0.33531,-0.33531 c -0.23767,-0.32247 -0.37817,-0.72086 -0.37817,-1.1518 0,-0.43095 0.1405,-0.82933 0.37819,-1.15183 l -0.33528,-0.33528 c -0.0572,-0.0572 -0.0572,-0.14999 -2e-5,-0.20716 l 0.20716,-0.20714 c 0.0572,-0.0572 0.14998,-0.0572 0.20716,0 h -2e-5 l 0.3353,0.3353 c 0.32245,-0.23766 0.72083,-0.37816 1.15178,-0.37816 0.43094,0 0.82933,0.1405 1.15172,0.37813 z m -1.15172,0.20776 c 0.7497,0 1.35836,0.60866 1.35836,1.35838 0,0.7497 -0.60866,1.35836 -1.35836,1.35836 -0.74972,0 -1.35838,-0.60866 -1.35838,-1.35836 0,-0.74972 0.60866,-1.35838 1.35838,-1.35838 z"
   style="fill:#959595;stroke-width:0.015625"
   id="path1" />
    </g>
</svg>
