<svg xmlns="http://www.w3.org/2000/svg" width="20" height="16" fill="none"><path fill="#006F9A" d="M16.648 4.53a6.011 6.011 0 0 0-2.571-2.319c-1.104-.552-2.382-.836-3.817-.836H4.235v5.49H2.437v2.05h1.798v5.71h6.025c1.435 0 2.713-.268 3.817-.82 1.104-.552 1.956-1.325 2.57-2.319.616-.994.916-2.161.916-3.486 0-1.325-.3-2.476-.915-3.47Zm-3.375 6.483c-.789.725-1.846 1.104-3.17 1.104H7.31V8.915h3.312v-2.05H7.311V3.898h2.791c1.325 0 2.382.363 3.17 1.104.79.741 1.184 1.735 1.184 2.997 0 1.262-.395 2.271-1.183 3.013Z"/></svg>