<svg xmlns="http://www.w3.org/2000/svg" width="16" height="16" fill="none"><g fill="#C82020" clip-path="url(#a)"><path d="M15.997 7.996c0 1.06-.284 2.053-.778 2.91a5.843 5.843 0 0 1-2.131 2.13l-.091.052a5.79 5.79 0 0 1-2.817.727H4.362l1.09-2.91H2.18l1.09-2.909h6.91l-1.091 2.91h1.09a2.91 2.91 0 1 0 0-5.819H4.36l1.09-2.91h4.728c1.06 0 2.053.285 2.909.78a5.842 5.842 0 0 1 2.13 2.13c.495.856.78 1.85.78 2.91Z"/><path d="M3.272 7.995H0l1.09-2.91h3.273l-1.091 2.91Z"/></g><defs><clipPath id="a"><path fill="#fff" d="M0 0h16v16H0z"/></clipPath></defs></svg>