<?xml version="1.0" encoding="UTF-8" standalone="no"?>
<svg
   width="16.000011"
   height="11.636722"
   viewBox="0 0 16.000011 11.636722"
   version="1.1"
   xml:space="preserve"
   style="clip-rule:evenodd;fill-rule:evenodd;stroke-linejoin:round;stroke-miterlimit:2"
   id="svg1"
   xmlns="http://www.w3.org/2000/svg"
   xmlns:svg="http://www.w3.org/2000/svg"><defs
   id="defs1" />
    <g
   transform="matrix(4.3809,0,0,4.3809,-528.11263,-554.93482)"
   id="g1">
        <path
   d="m 124.20111,127.99951 c 0,0.24192 -0.0648,0.46858 -0.17773,0.66406 -0.11679,0.20183 -0.2845,0.36955 -0.48633,0.48633 -0.007,0.004 -0.0138,0.008 -0.0208,0.0118 -0.19053,0.10569 -0.40975,0.16596 -0.64301,0.16596 h -1.32791 l 0.24894,-0.66405 h -0.74703 l 0.24894,-0.66406 h 1.57706 l -0.24894,0.66406 h 0.24894 c 0.30944,0 0.56931,-0.21159 0.64301,-0.49811 0.0139,-0.0542 0.0209,-0.10998 0.0208,-0.16595 0,-0.36661 -0.29725,-0.66406 -0.66407,-0.66406 h -1.32792 l 0.24896,-0.66407 h 1.07896 c 0.24193,0 0.46858,0.0648 0.66407,0.17774 0.20183,0.11678 0.36954,0.2845 0.48633,0.48633 0.11292,0.19528 0.17773,0.42212 0.17773,0.66406 z m -2.90539,0 h -0.74683 l 0.24894,-0.66406 h 0.74705 z"
   style="fill:#c82020;fill-rule:nonzero;stroke-width:0.015625"
   id="path1" />
    </g>
</svg>
