<svg width="16" height="16" fill="none" xmlns="http://www.w3.org/2000/svg"><g clip-path="url(#a)" fill-rule="evenodd" clip-rule="evenodd" fill="#959595"><path d="M8.02.242a7.78 7.78 0 0 1 7.776 7.777 7.78 7.78 0 0 1-7.777 7.777A7.78 7.78 0 0 1 .242 8.02 7.78 7.78 0 0 1 8.02.242Zm0 2.344a5.436 5.436 0 0 1 5.433 5.433 5.436 5.436 0 0 1-5.434 5.434 5.436 5.436 0 0 1-5.433-5.434 5.436 5.436 0 0 1 5.433-5.433Z"/><path d="M15.626 2.071a.586.586 0 0 0 0-.828l-.829-.829a.586.586 0 0 0-.829 0l-2.506 2.507a.586.586 0 0 0 0 .828l.829.829c.229.228.6.228.828 0l2.507-2.507ZM4.579 13.118a.586.586 0 0 0 0-.828l-.829-.829a.586.586 0 0 0-.828 0L.415 13.967a.586.586 0 0 0 0 .829l.829.829c.229.228.6.228.829 0l2.506-2.507ZM2.071.413a.586.586 0 0 0-.828 0l-.829.829a.586.586 0 0 0 0 .829l2.507 2.506c.228.228.6.228.828 0l.829-.829a.586.586 0 0 0 0-.828L2.07.413Zm11.047 11.049a.586.586 0 0 0-.828 0l-.829.829a.586.586 0 0 0 0 .828l2.506 2.507c.23.228.6.228.829 0l.829-.829a.586.586 0 0 0 0-.829l-2.507-2.506Z"/></g><defs><clipPath id="a"><path fill="#fff" d="M0 0h16v16H0z"/></clipPath></defs></svg>