<?xml version="1.0" encoding="UTF-8" standalone="no"?>
<svg
   width="16.001431"
   height="20.01602"
   viewBox="0 0 16.001431 20.01602"
   version="1.1"
   xml:space="preserve"
   style="clip-rule:evenodd;fill-rule:evenodd;stroke-linejoin:round;stroke-miterlimit:2"
   id="svg1"
   xmlns="http://www.w3.org/2000/svg"
   xmlns:svg="http://www.w3.org/2000/svg"><defs
   id="defs1" />
    <g
   transform="matrix(4.67367,0,0,4.67367,-919.15096,-1796.2556)"
   id="g1">
        <path
   d="m 196.66578,387.19121 0.1983,-0.47647 h 0.20933 c -0.006,-0.0845 -0.008,-0.16618 -0.008,-0.24512 0,-0.10651 0.005,-0.20565 0.0138,-0.29746 h -0.41313 l 0.1983,-0.47647 h 0.31123 c 0.2901,-0.90703 0.94375,-1.36055 1.96097,-1.36055 0.33416,0 0.65182,0.0422 0.95294,0.12668 v 0.60042 c -0.28275,-0.12303 -0.58298,-0.18453 -0.90061,-0.18453 -0.60959,0 -1.00161,0.27267 -1.17603,0.81798 h 1.815 l -0.1983,0.47647 h -1.73513 c -0.009,0.0587 -0.0138,0.13772 -0.0138,0.23686 0,0.11385 0.004,0.21575 0.011,0.30572 h 1.51203 l -0.19554,0.47647 h -1.21183 c 0.13036,0.3305 0.28919,0.56047 0.47647,0.68991 0.18729,0.12946 0.45443,0.19417 0.80146,0.19417 0.24787,0 0.51962,-0.0588 0.81524,-0.17627 v 0.56461 c -0.28093,0.10282 -0.6151,0.15423 -1.00251,0.15423 -1.01906,0 -1.66353,-0.47555 -1.93343,-1.42665 z"
   style="fill:#003f20;fill-rule:nonzero;stroke-width:0.0195852"
   id="path1" />
    </g>
</svg>
