<svg xmlns="http://www.w3.org/2000/svg" xml:space="preserve" style="fill-rule:evenodd;clip-rule:evenodd;stroke-linejoin:round;stroke-miterlimit:2" viewBox="0 0 16 16"><path d="M1655.75 1754.74C1480.14 1907.48 1250.79 2000 1000 2000c-206.19 0-397.888-62.54-557.141-169.66a104.054 104.054 0 0 1-43.861-76.15 104.042 104.042 0 0 1 30.084-82.57c28.177-29.88 56.8-58.51 70.284-71.99a12.503 12.503 0 0 1 16.701-.81C648.394 1705.86 816.765 1770 1000 1770c148.35 0 286.96-42.05 404.58-114.88 52.79-34.15 122.27-26.78 166.73 17.68 42.56 40.07 84.44 81.94 84.44 81.94Zm88.69-1400.186a13.494 13.494 0 0 1 10.1-3.994c3.78.141 7.32 1.86 9.78 4.738C1911.31 529.469 2000 754.459 2000 1000c0 245.93-88.97 471.25-236.45 645.48a12.51 12.51 0 0 1-9.01 4.38c-3.48.14-6.86-1.19-9.33-3.65l-74.54-74.54c-44.51-44.57-51.8-114.18-17.51-167.01C1727.72 1287.72 1770 1148.76 1770 1000c0-148.354-42.05-286.964-114.88-404.576-34.15-52.795-26.78-122.272 17.68-166.733 27.58-30.077 56.68-59.18 71.64-74.137ZM169.664 442.859a104.04 104.04 0 0 1 158.714-13.777c39.766 38.057 77.944 76.235 79.917 78.208a.125.125 0 0 1 .007.169C296.98 641.031 230 812.755 230 1000c0 187.25 66.98 358.97 178.302 492.54.041.05.039.12-.007.17-1.985 1.98-40.633 40.63-79.798 79.8a104.379 104.379 0 0 1-82.807 30.28 104.387 104.387 0 0 1-76.447-43.93C62.792 1398.66 0 1206.61 0 1000c0-206.19 62.539-397.888 169.664-557.141ZM1000 370c347.71 0 630 282.294 630 630 0 347.71-282.29 630-630 630-347.706 0-630-282.29-630-630 0-347.706 282.294-630 630-630Zm-572.508-41.503a104.372 104.372 0 0 1 13.648-159.254C601.337 62.792 793.393 0 1000 0c250.79 0 480.14 92.52 655.75 245.256 0 0-42.47 42.474-84.08 84.074-44.57 44.505-114.18 51.802-167.01 17.505C1287.72 272.276 1148.76 230 1000 230c-183.235 0-351.606 64.142-483.907 171.21a12.485 12.485 0 0 1-16.718-.849c-13.606-13.587-42.6-42.581-71.883-71.864Z" style="fill:#208e7a" transform="scale(.008)"/><path d="M561 1044.09s-38.404-.03-38.404 53.77c0 56.23 34.783 57.82 47.945 57.82h59.226c27.263 97.77 76.619 172.04 148.066 222.8 71.448 50.77 154.647 76.15 249.597 76.15 40.43 0 77.32-3.52 110.7-10.57 33.37-7.06 61.57-16.46 84.61-28.21 23.03-11.75 40.89-25.38 53.58-40.89 12.69-15.51 19.04-32.2 19.04-50.06 0-18.8-4.47-35.37-15.51-47.95-28.85-32.86-78.85-2.86-117.04 11.99-30.44 11.83-67.69 19.04-112.82 19.04-53.583 0-101.058-12.7-142.423-38.08-41.364-25.38-72.858-63.46-94.48-114.22l317.913-1.59s50.26-10 50.14-56.23c-.14-53.77-50.14-56.4-47.95-56.4L561 1044.09Zm0-84.09s-38.404.024-38.404-53.775c0-56.225 34.783-57.816 47.945-57.816h59.226c27.263-97.771 76.619-172.039 148.066-222.805 71.448-50.765 154.647-76.148 249.597-76.148 40.43 0 77.32 3.526 110.7 10.576 33.37 7.051 61.57 16.452 84.61 28.203 23.03 11.752 40.89 25.383 53.58 40.895 12.69 15.511 19.04 32.198 19.04 50.06 0 18.802-4.47 35.366-15.51 47.945C1251 760 1201 730 1162.81 715.149c-30.44-11.832-67.69-19.037-112.82-19.037-53.583 0-101.058 12.691-142.423 38.074-41.364 25.383-72.858 63.457-94.48 114.223L1131 850s50.26 10 50.14 56.225c-.14 53.775-50.14 56.406-47.95 56.406L561 960Z" style="fill:#fff;fill-rule:nonzero" transform="matrix(.008 0 0 .008 -.032 -.016)"/></svg>