<svg width="16" height="16" fill="none" xmlns="http://www.w3.org/2000/svg"><g clip-path="url(#a)"><path d="M14.116 3.295H7.211c-.089 0-.177 0-.266.003a12.13 12.13 0 0 0-.759.04l-.065.007c-1.418.129-2.54.528-3.37 1.195-.99.81-1.485 1.963-1.485 3.461 0 1.498.494 2.651 1.485 3.462 1.029.829 2.517 1.243 4.46 1.243s3.44-.414 4.46-1.243c.991-.81 1.488-1.963 1.488-3.462 0-.948-.199-1.757-.598-2.43l-.006-.01a.049.049 0 0 0-.009-.014l.009-.004 1.863-1.078c.547-.318.328-1.17-.302-1.17Zm-3.464 2.389-.8 4.634a.45.45 0 0 1-.423.367H8.31c-.198 0-.33-.165-.295-.367l.257-1.487H5.866l-.256 1.487a.45.45 0 0 1-.423.367h-1.12c-.199 0-.33-.165-.296-.367l.8-4.634a.449.449 0 0 1 .423-.367h1.12c.198 0 .33.164.296.367L6.153 7.17h2.404l.257-1.486a.449.449 0 0 1 .422-.367h1.12c.199 0 .33.164.296.367Z" fill="#2BCCB9"/><path d="M15.935 3.43c-.22-.856-.951-1.43-1.817-1.43H7.213c-.1 0-.198 0-.298.002-.302.009-.577.024-.851.048l-.056.004c-1.655.153-3.016.645-4.048 1.473C.66 4.591 0 6.095 0 8c0 1.906.659 3.409 1.967 4.479C3.22 13.489 4.986 14 7.213 14c2.227 0 4.004-.511 5.253-1.527 1.301-1.066 1.963-2.57 1.963-4.473 0-.682-.09-1.318-.263-1.9l.88-.51a1.91 1.91 0 0 0 .889-2.16ZM14.42 4.465l-1.864 1.079-.008.004a.049.049 0 0 1 .008.013l.007.01c.399.674.598 1.483.598 2.43 0 1.5-.497 2.652-1.487 3.463-1.021.828-2.506 1.243-4.461 1.243-1.955 0-3.431-.415-4.46-1.243C1.763 10.652 1.268 9.5 1.268 8c0-1.499.494-2.651 1.485-3.46.83-.667 1.952-1.067 3.37-1.196l.065-.006a11.4 11.4 0 0 1 .759-.041c.089-.003.177-.003.266-.003h6.905c.63 0 .85.853.302 1.17Z" fill="#073744"/><path d="M10.36 5.316H9.24a.449.449 0 0 0-.422.367L8.56 7.17H6.157l.257-1.487c.034-.203-.098-.367-.296-.367h-1.12a.449.449 0 0 0-.423.367l-.8 4.634c-.035.203.097.367.296.367h1.12a.45.45 0 0 0 .423-.367l.256-1.486h2.404l-.256 1.486c-.036.203.097.367.295.367h1.12a.45.45 0 0 0 .423-.367l.8-4.634c.035-.203-.098-.367-.296-.367Z" fill="#073744"/></g><defs><clipPath id="a"><path fill="#fff" transform="translate(0 2)" d="M0 0h16v12H0z"/></clipPath></defs></svg>