<svg width="16" height="16" fill="none" xmlns="http://www.w3.org/2000/svg"><g clip-path="url(#a)"><rect width="16" height="16" rx="4.547" fill="url(#b)"/><path d="M9.516 10.274c-2.09 0-3.79-1.7-3.79-3.789 0-2.09 1.7-3.79 3.79-3.79 2.089 0 3.79 1.7 3.79 3.79s-1.701 3.79-3.79 3.79Zm0-6.098a2.31 2.31 0 0 0-2.308 2.308 2.31 2.31 0 0 0 2.308 2.308 2.31 2.31 0 0 0 2.308-2.308 2.31 2.31 0 0 0-2.308-2.308Z" fill="#EEEDEE"/></g><defs><linearGradient id="b" x1="8" y1="0" x2="8" y2="16" gradientUnits="userSpaceOnUse"><stop stop-color="#373737"/><stop offset="1" stop-color="#242424"/></linearGradient><clipPath id="a"><path fill="#fff" d="M0 0h16v16H0z"/></clipPath></defs></svg>