<?xml version="1.0" encoding="UTF-8" standalone="no"?>
<svg
   width="15.999999"
   height="15.976704"
   viewBox="0 0 15.999999 15.976704"
   version="1.1"
   xml:space="preserve"
   style="clip-rule:evenodd;fill-rule:evenodd;stroke-linejoin:round;stroke-miterlimit:2"
   id="svg1"
   xmlns="http://www.w3.org/2000/svg"
   xmlns:svg="http://www.w3.org/2000/svg"><defs
   id="defs1" />
    <g
   transform="matrix(74.7882,0,0,74.7882,7.9999995,519.24048)"
   id="g1">
        <path
   d="m -0.02196875,-6.843625 -0.03998438,-0.069437 c -0.0041094,-0.00539 -0.0085938,-0.010484 -0.01342187,-0.01525 -0.0055938,-0.00559 -0.01195313,-0.00839 -0.01907813,-0.00839 h -0.007625 v -0.00611 h 0.09154688 v 0.00611 h -0.007625 c -0.007125,0 -0.0109375,0.0028 -0.01145313,0.00839 -5.1562e-4,0.00523 4.375e-4,0.010516 0.00275,0.01525 L 0.0055,-6.8569063 0.04517187,-6.9136719 c 0.0025313,-0.00467 0.0038125,-0.00956 0.0038125,-0.014641 0,-0.00559 -0.0035625,-0.00839 -0.0106875,-0.00839 h -0.007625 v -0.00611 h 0.07629687 v 0.00611 h -0.0076406 c -0.0071094,0 -0.0141875,0.0028 -0.02120313,0.00839 -0.0057969,0.00458 -0.01028125,0.009 -0.01342187,0.013266 l -0.0019844,0.00275 -0.04792187,0.068672 h 0.09217187 v 0.01525 h -0.085 l 0.04059375,0.070344 c 0.0029531,0.00458 0.0070625,0.00936 0.01235938,0.014344 0.0059063,0.00559 0.01240625,0.00839 0.01953125,0.00839 h 0.007625 v 0.00611 H 0.01053125 v -0.00611 h 0.007625 c 0.007125,0 0.0109375,-0.0028 0.01145313,-0.00839 C 0.030125,-6.749 0.029125,-6.7543438 0.02670313,-6.7590938 L -0.0055,-6.8149375 l -0.03859375,0.055234 c -0.0031562,0.00475 -0.0048594,0.010313 -0.0048906,0.016016 0,0.00559 0.0035625,0.00839 0.0106875,0.00839 h 0.007625 v 0.00611 h -0.07629687 v -0.00611 h 0.0076406 c 0.0071094,0 0.01398438,-0.0028 0.02059375,-0.00839 0.0062031,-0.00519 0.01134375,-0.010219 0.01540625,-0.015109 l 0.04867188,-0.069578 h -0.0923125 v -0.01525 z"
   style="fill-rule:nonzero;stroke-width:0.015625"
   id="path1" />
    </g>
</svg>
