<?xml version="1.0" encoding="UTF-8" standalone="no"?>
<svg
   width="16.00304"
   height="16.51404"
   viewBox="0 0 16.00304 16.51404"
   version="1.1"
   xml:space="preserve"
   style="clip-rule:evenodd;fill-rule:evenodd;stroke-linejoin:round;stroke-miterlimit:2"
   id="svg1"
   xmlns="http://www.w3.org/2000/svg"
   xmlns:svg="http://www.w3.org/2000/svg"><defs
   id="defs1" />
    <g
   transform="matrix(4,0,0,4,-488.00016,-503.7394)"
   id="g1">
        <path
   d="m 125.99148,127.15893 c -0.006,-0.0515 -0.0144,-0.10253 -0.0258,-0.15301 -0.0118,-0.0518 -0.0267,-0.10295 -0.0446,-0.15303 -0.0187,-0.0523 -0.0404,-0.10334 -0.0652,-0.15302 -0.0264,-0.0527 -0.0562,-0.10371 -0.0891,-0.15265 -0.0232,-0.0348 -0.0482,-0.0684 -0.0748,-0.10067 -0.0145,-0.0179 -0.0295,-0.0353 -0.0449,-0.0524 -0.034,-0.0382 -0.0703,-0.0742 -0.10863,-0.108 -0.0172,-0.0156 -0.0348,-0.0306 -0.053,-0.045 -0.0324,-0.0263 -0.0661,-0.0509 -0.1009,-0.074 -0.0433,-0.029 -0.0883,-0.0554 -0.13477,-0.0791 -0.006,-0.003 -0.0127,-0.007 -0.0191,-0.01 -0.0499,-0.0248 -0.1013,-0.0465 -0.15392,-0.0648 -0.0503,-0.0177 -0.10155,-0.0325 -0.15356,-0.0443 -0.10105,-0.0226 -0.20429,-0.0341 -0.30786,-0.0341 h -2.23085 c -0.0832,-5e-5 -0.16408,0.0269 -0.23055,0.0769 -0.0292,0.0213 -0.055,0.0469 -0.0766,0.0758 -0.0502,0.066 -0.0774,0.14662 -0.0773,0.22952 v 2.75295 c 0,0.0256 0.001,0.0513 0.003,0.0765 0.004,0.0514 0.0115,0.1025 0.0236,0.15264 0.0251,0.10663 0.068,0.20826 0.12704,0.30055 0.001,0.002 0.002,0.004 0.004,0.005 0.035,0.055 0.0756,0.10629 0.12113,0.15302 0.009,0.01 0.0188,0.0194 0.0287,0.0285 l 3.6e-4,3.7e-4 c 0.0469,0.0452 0.0984,0.0854 0.15355,0.12006 0.002,0.001 0.004,0.003 0.006,0.004 0.0472,0.0298 0.0968,0.0555 0.14838,0.0769 0.0499,0.0206 0.10137,0.0372 0.15394,0.0494 0.0505,0.0119 0.10182,0.0198 0.15355,0.0234 h 3.7e-4 v 0.003 h 1.30766 v -10e-4 c 0.0216,-0.004 0.0411,-0.0156 0.0551,-0.0325 0.014,-0.0169 0.0216,-0.0382 0.0215,-0.0601 2.1e-4,-0.0215 -0.007,-0.0424 -0.021,-0.0589 -0.01,-0.012 -0.022,-0.0214 -0.0361,-0.0274 -0.007,-0.004 -0.0131,-0.007 -0.0195,-0.011 -0.0261,-0.0146 -0.0518,-0.03 -0.077,-0.0461 -0.0265,-0.0165 -0.0519,-0.0344 -0.0769,-0.0527 -0.007,-0.005 -0.014,-0.01 -0.0206,-0.0154 -0.0192,-0.0144 -0.038,-0.0293 -0.0563,-0.0447 -0.0169,-0.014 -0.0335,-0.0284 -0.0497,-0.0432 -0.0231,-0.0209 -0.0455,-0.0426 -0.067,-0.0652 -0.008,-0.008 -0.0167,-0.017 -0.0247,-0.026 -0.004,-0.004 -0.008,-0.009 -0.0125,-0.0135 -0.0328,-0.0362 -0.0638,-0.0741 -0.0928,-0.11349 -0.0216,-0.029 -0.0419,-0.0588 -0.0611,-0.0893 -0.0133,-0.0209 -0.0261,-0.0421 -0.0383,-0.0637 -0.028,-0.0494 -0.0531,-0.10032 -0.0751,-0.15265 -0.0149,-0.0349 -0.0283,-0.0705 -0.0401,-0.10653 -0.005,-0.0153 -0.0104,-0.0308 -0.0147,-0.0465 -0.008,-0.0253 -0.0147,-0.0508 -0.0206,-0.0765 -0.006,-0.0253 -0.0118,-0.0508 -0.0166,-0.0765 -0.009,-0.0506 -0.0162,-0.10169 -0.0203,-0.15302 -0.001,-0.0186 -0.003,-0.0373 -0.003,-0.056 -0.001,-0.0211 -0.002,-0.0422 -0.001,-0.0633 v -0.49238 h -0.51077 c -0.022,8e-5 -0.0434,-0.008 -0.0604,-0.0215 -0.0169,-0.0139 -0.0285,-0.0334 -0.0325,-0.055 -0.005,-0.0249 5.6e-4,-0.0508 0.0155,-0.0714 l 0.003,-0.005 0.0464,-0.0659 0.028,-0.0395 0.0335,-0.0476 0.0921,-0.13105 0.0155,-0.022 0.1079,-0.15303 0.0306,-0.0435 0.077,-0.10947 0.0769,-0.10908 0.0306,-0.0436 0.0464,-0.0659 0.0615,-0.0871 0.0155,-0.022 0.0924,-0.13105 0.0611,-0.0871 0.0464,-0.0659 0.0302,-0.0428 c 0.009,-0.0125 0.0203,-0.0226 0.0338,-0.0296 0.0274,-0.0142 0.0601,-0.0142 0.0875,0 0.0135,0.007 0.0251,0.0172 0.0338,0.0296 l 0.0302,0.0428 0.046,0.0655 0.0615,0.0875 0.0155,0.0216 0.077,0.10945 0.0155,0.022 0.0615,0.0871 0.0464,0.0659 0.0302,0.0432 0.0773,0.10945 0.0766,0.1091 0.0309,0.0439 0.1079,0.15302 0.0151,0.0216 0.0924,0.13143 0.0615,0.0871 0.0464,0.0659 0.003,0.005 c 0.0149,0.0206 0.0205,0.0465 0.0155,0.0714 -0.003,0.0168 -0.0111,0.0324 -0.0226,0.0451 -0.0115,0.0128 -0.0262,0.0222 -0.0426,0.0273 -0.009,0.003 -0.0185,0.004 -0.028,0.004 h -0.5104 v 0.45907 c -5e-5,0.0526 0.0109,0.10455 0.032,0.15264 0.0117,0.027 0.0267,0.0524 0.0446,0.0758 0.0402,0.053 0.0931,0.095 0.15393,0.12192 0.0486,0.0211 0.10099,0.0319 0.15394,0.0318 0.007,0 0.0133,0 0.0199,-3.7e-4 0.0448,-4.5e-4 0.0895,-0.003 0.13404,-0.008 0.0517,-0.006 0.10313,-0.0143 0.15393,-0.0256 0.0501,-0.0113 0.0996,-0.0255 0.14803,-0.0425 h 0.006 v -0.002 c 0.0526,-0.0183 0.10403,-0.04 0.15394,-0.0648 0.052,-0.0256 0.1023,-0.0544 0.15061,-0.0864 h 0.003 v -0.002 c 0.0541,-0.0359 0.10557,-0.0756 0.15394,-0.11897 0.0117,-0.0102 0.0231,-0.0207 0.0342,-0.0315 0.0425,-0.0402 0.0823,-0.0832 0.11931,-0.1285 0.007,-0.008 0.0129,-0.0161 0.0191,-0.0245 0.038,-0.0485 0.0726,-0.0996 0.10348,-0.15302 0.011,-0.0186 0.0214,-0.0375 0.0313,-0.0567 0.0165,-0.0315 0.0317,-0.0636 0.0457,-0.0963 0.0104,-0.0253 0.0202,-0.0508 0.0295,-0.0765 0.009,-0.0251 0.0173,-0.0505 0.0247,-0.0762 0.0145,-0.0503 0.0262,-0.10142 0.035,-0.15303 0.009,-0.0506 0.0143,-0.10173 0.0169,-0.15302 h 0.002 v -0.30608 c -4e-5,-0.051 -0.003,-0.10195 -0.009,-0.15263 z"
   style="fill:#3749e7;fill-rule:nonzero;stroke-width:0.016129"
   id="path1" />
    </g>
</svg>
