<svg width="16" height="16" fill="none" xmlns="http://www.w3.org/2000/svg"><g clip-path="url(#a)"><path d="M15.966 4.74a5.256 5.256 0 0 0-.281-1.185 5.358 5.358 0 0 0-.618-1.185 4.842 4.842 0 0 0-.478-.593 4.946 4.946 0 0 0-.435-.418 5.235 5.235 0 0 0-.616-.461 5.219 5.219 0 0 0-.615-.343A5.605 5.605 0 0 0 10.462 0H1.537A1.566 1.566 0 0 0 .309.592 1.45 1.45 0 0 0 0 1.48v10.668c0 .099.004.198.013.296a3.708 3.708 0 0 0 .617 1.777 3.713 3.713 0 0 0 .6.704l.001.002a3.794 3.794 0 0 0 .637.479 3.955 3.955 0 0 0 1.21.49c.201.046.406.076.613.09h.002V16h5.23v-.006a.38.38 0 0 0 .221-.126.355.355 0 0 0 .002-.46A.37.37 0 0 0 9 15.3l-.078-.043A5.905 5.905 0 0 1 8 14.643a5.661 5.661 0 0 1-.566-.521l-.05-.053a5.674 5.674 0 0 1-.769-1.032 5.487 5.487 0 0 1-.52-1.185 4.241 4.241 0 0 1-.082-.296 5.589 5.589 0 0 1-.166-1.352V8.296H3.802a.385.385 0 0 1-.241-.084.36.36 0 0 1-.13-.357.348.348 0 0 1 .062-.132l.013-.019.185-.255.112-.153.134-.185.369-.508.062-.085.431-.593.122-.168.308-.425.308-.422.122-.17.186-.254.246-.338.062-.085.37-.508.244-.338.186-.255.12-.166a.39.39 0 0 1 .62 0l.122.166.184.254.246.34.062.083.308.424.061.085.247.338.185.255.12.167.31.424.307.423.123.17.432.593.06.084.37.51.246.337.186.255.013.019a.347.347 0 0 1-.028.451.384.384 0 0 1-.283.122h-2.04v1.779a1.426 1.426 0 0 0 .306.885 1.565 1.565 0 0 0 1.232.596c.026 0 .053 0 .08-.002a5.585 5.585 0 0 0 1.151-.13c.2-.044.398-.099.592-.165h.022v-.007a5.48 5.48 0 0 0 1.218-.586h.014v-.008a5.364 5.364 0 0 0 .752-.583 5.35 5.35 0 0 0 1.276-1.78 6.599 6.599 0 0 0 .216-.59 5.261 5.261 0 0 0 .208-1.187H16V5.332c0-.197-.011-.395-.034-.591Z" fill="#3749E7"/></g><defs><clipPath id="a"><path fill="#fff" d="M0 0h16v16H0z"/></clipPath></defs></svg>