<svg width="16" height="16" fill="none" xmlns="http://www.w3.org/2000/svg"><g clip-path="url(#a)"><mask id="b" style="mask-type:luminance" maskUnits="userSpaceOnUse" x="0" y="0" width="16" height="16"><path d="M15.951 0H0v15.943h15.951V0Z" fill="#fff"/></mask><g mask="url(#b)" fill="#281149"><path d="M11.958 16.014a3.986 3.986 0 1 0 0-7.971 3.986 3.986 0 0 0 0 7.971Zm-7.972-7.97a3.986 3.986 0 1 0 0-7.972 3.986 3.986 0 0 0 0 7.972Zm-.797 7.927a3.189 3.189 0 1 0 0-6.377 3.189 3.189 0 0 0 0 6.377ZM12.763.072a3.204 3.204 0 0 0-3.189 3.19 3.205 3.205 0 0 0 3.189 3.188c1.75 0 3.189-1.44 3.189-3.189 0-1.75-1.44-3.189-3.189-3.189Zm-.014 4.783c-.875 0-1.595-.72-1.595-1.595 0-.874.72-1.594 1.595-1.594s1.594.72 1.594 1.594v.001c0 .874-.72 1.594-1.593 1.594h-.001Z"/></g></g><defs><clipPath id="a"><path fill="#fff" d="M0 0h16v16H0z"/></clipPath></defs></svg>