<?xml version="1.0" encoding="UTF-8" standalone="no"?>
<svg
   width="15.999997"
   height="21.66292"
   viewBox="0 0 15.999997 21.66292"
   version="1.1"
   xml:space="preserve"
   style="clip-rule:evenodd;fill-rule:evenodd;stroke-linejoin:round;stroke-miterlimit:2"
   id="svg1"
   xmlns="http://www.w3.org/2000/svg"
   xmlns:svg="http://www.w3.org/2000/svg"><defs
   id="defs1" />
    <g
   transform="matrix(4.91778,0,0,4.91778,-2300.7305,-1648.9685)"
   id="g1">
        <path
   d="m 467.83925,338.57318 h 0.54225 v -0.49351 h -0.54225 v -0.52397 h 0.54225 v -2.24821 h 1.18198 c 0.47523,0 0.84892,0.11982 1.12106,0.35947 0.27214,0.23964 0.40821,0.57474 0.40821,1.00529 0,0.17466 -0.0264,0.34627 -0.0792,0.51484 -0.0528,0.16856 -0.13709,0.32088 -0.25285,0.45695 -0.11576,0.13607 -0.26706,0.24472 -0.45391,0.32596 -0.18684,0.0812 -0.4143,0.12185 -0.68238,0.12185 h -0.65192 v 0.48133 h 0.60927 v 0.52397 h -0.60927 v 0.61536 h -0.59099 v -0.61536 h -0.54225 z m 1.78516,-1.05404 c 0.1706,0 0.31276,-0.0274 0.42649,-0.0822 0.11373,-0.0548 0.2041,-0.12693 0.27112,-0.21629 0.067,-0.0894 0.11475,-0.18177 0.14318,-0.27722 0.0284,-0.0954 0.0427,-0.18177 0.0427,-0.25894 0,-0.11779 -0.0274,-0.23965 -0.0823,-0.36556 -0.0548,-0.12592 -0.14419,-0.23153 -0.26808,-0.31682 -0.12388,-0.0853 -0.29143,-0.12795 -0.50265,-0.12795 h -0.68238 v 1.64503 z"
   style="fill:#003f20;fill-rule:nonzero;stroke-width:0.0211552"
   id="path1" />
    </g>
</svg>
