<svg xmlns="http://www.w3.org/2000/svg" xml:space="preserve" style="fill-rule:evenodd;clip-rule:evenodd;stroke-linejoin:round;stroke-miterlimit:2" viewBox="0 0 16 16"><path d="M1655.75 1754.74C1480.14 1907.48 1250.79 2000 1000 2000c-206.19 0-397.888-62.54-557.141-169.66a104.054 104.054 0 0 1-43.861-76.15 104.042 104.042 0 0 1 30.084-82.57c28.177-29.88 56.8-58.51 70.284-71.99a12.503 12.503 0 0 1 16.701-.81C648.394 1705.86 816.765 1770 1000 1770c148.35 0 286.96-42.05 404.58-114.88 52.79-34.15 122.27-26.78 166.73 17.68 42.56 40.07 84.44 81.94 84.44 81.94Zm88.69-1400.186a13.494 13.494 0 0 1 10.1-3.994c3.78.141 7.32 1.86 9.78 4.738C1911.31 529.469 2000 754.459 2000 1000c0 245.93-88.97 471.25-236.45 645.48a12.51 12.51 0 0 1-9.01 4.38c-3.48.14-6.86-1.19-9.33-3.65l-74.54-74.54c-44.51-44.57-51.8-114.18-17.51-167.01C1727.72 1287.72 1770 1148.76 1770 1000c0-148.354-42.05-286.964-114.88-404.576-34.15-52.795-26.78-122.272 17.68-166.733 27.58-30.077 56.68-59.18 71.64-74.137ZM169.664 442.859a104.04 104.04 0 0 1 158.714-13.777c39.766 38.057 77.944 76.235 79.917 78.208a.125.125 0 0 1 .007.169C296.98 641.031 230 812.755 230 1000c0 187.25 66.98 358.97 178.302 492.54.041.05.039.12-.007.17-1.985 1.98-40.633 40.63-79.798 79.8a104.379 104.379 0 0 1-82.807 30.28 104.387 104.387 0 0 1-76.447-43.93C62.792 1398.66 0 1206.61 0 1000c0-206.19 62.539-397.888 169.664-557.141ZM1000 370c347.71 0 630 282.294 630 630 0 347.71-282.29 630-630 630-347.706 0-630-282.29-630-630 0-347.706 282.294-630 630-630Zm-572.508-41.503a104.372 104.372 0 0 1 13.648-159.254C601.337 62.792 793.393 0 1000 0c250.79 0 480.14 92.52 655.75 245.256 0 0-42.47 42.474-84.08 84.074-44.57 44.505-114.18 51.802-167.01 17.505C1287.72 272.276 1148.76 230 1000 230c-183.235 0-351.606 64.142-483.907 171.21a12.485 12.485 0 0 1-16.718-.849c-13.606-13.587-42.6-42.581-71.883-71.864Z" style="fill:#208e7a" transform="scale(.008)"/><path d="M933.212 926.083c-5.697 0-6.52-7.584-6.52-12.96 0-4.992 1.056-8.496 3.168-10.512s4.704-3.024 7.776-3.024h17.568v-59.616c0-3.456 1.008-6.192 3.024-8.208s4.656-3.504 7.92-4.464c3.072-.96 6.576-1.824 10.512-2.592 3.936-.768 7.968-1.44 12.096-2.016a180.481 180.481 0 0 1 12.384-1.296c4.13-.288 8.02-.432 11.66-.432 23.43 0 41.04 4.8 52.85 14.4 11.81 9.6 17.71 22.656 17.71 39.168 0 15.552-5.42 28.032-16.27 37.44-10.85 9.408-27.02 14.112-48.53 14.112h-85.348Zm58.568 39.456v19.279s-.662 9.072-3.788 12.673c-2.778 3.199-9.652 4.339-12.916 4.339-7.104 0-12.192-1.35-15.264-4.035-3.072-2.688-4.608-7.104-4.608-13.248v-19.008l-20.851.252c-4.093.049-6.221-3.276-6.797-5.292-.576-2.016-.864-4.176-.864-6.48 0-4.416.912-7.536 2.736-9.36 1.824-1.824 4.08-2.736 6.768-2.736 0 0 98.584-.331 120.354.408 6.2.211 8.2 1.883 9.1 4.92a23.343 23.343 0 0 1 1.01 6.768c0 3.84-.96 6.72-2.88 8.64-1.92 1.92-4.22 2.88-6.91 2.88h-65.09Zm22.75-67.392c9.99 0 17.76-1.968 23.33-5.904 5.57-3.936 8.35-9.744 8.35-17.424 0-8.064-2.97-14.112-8.93-18.144-5.95-4.032-14.11-6.048-24.48-6.048-3.45 0-7 .144-10.65.432-3.65.288-7.106.912-10.37 1.872v45.216h22.75Z" style="fill:#fff;fill-rule:nonzero" transform="translate(-31.368 -27.7) scale(.03917)"/></svg>