<?xml version="1.0" encoding="UTF-8" standalone="no"?>
<svg
   width="15.999537"
   height="15.999936"
   viewBox="0 0 15.999537 15.999936"
   version="1.1"
   xml:space="preserve"
   style="clip-rule:evenodd;fill-rule:evenodd;stroke-linejoin:round;stroke-miterlimit:2"
   id="svg3"
   xmlns="http://www.w3.org/2000/svg"
   xmlns:svg="http://www.w3.org/2000/svg"><defs
   id="defs3" />
    <g
   transform="matrix(1.23373,0,0,1.23373,-503.99838,-503.99798)"
   id="g3">
        <g
   transform="scale(0.415)"
   id="g1">
            <path
   d="m 1008.9748,1010.5216 c 0.3344,0.3343 0.5021,0.8014 0.4569,1.272 -0.045,0.4706 -0.2986,0.8972 -0.6903,1.1617 -2.4976,1.6838 -5.5053,2.6697 -8.7414,2.6697 -3.23614,0 -6.24381,-0.9859 -8.73872,-2.6736 -0.39064,-0.2637 -0.64337,-0.6891 -0.68836,-1.1583 -0.045,-0.4692 0.12222,-0.9348 0.45556,-1.2681 -0.003,0 -0.003,0 -0.003,0 0.69974,-0.6997 1.7888,-0.8262 2.63035,-0.3056 1.84031,1.1523 4.01548,1.8155 6.34427,1.8155 2.3289,0 4.5041,-0.6632 6.3472,-1.811 0.8394,-0.5192 1.9256,-0.393 2.6236,0.305 0,0 0,0 0,0 z m 1.5468,-19.49643 c 0.3343,-0.33433 0.8014,-0.50208 1.272,-0.45694 0.4706,0.0451 0.8972,0.2986 1.1617,0.69041 1.6838,2.49755 2.6697,5.50522 2.6697,8.74136 0,3.2361 -0.9859,6.2438 -2.6736,8.7388 -0.2637,0.3906 -0.6891,0.6432 -1.1583,0.6882 -0.4692,0.045 -0.9348,-0.1222 -1.2681,-0.4554 0,0 0,0 0,0 -0.6997,-0.6997 -0.8262,-1.7889 -0.3056,-2.6303 1.1523,-1.8403 1.8155,-4.0155 1.8155,-6.3444 0,-2.32883 -0.6632,-4.504 -1.811,-6.34717 -0.5192,-0.83941 -0.393,-1.92567 0.305,-2.62358 0,-0.004 0,-0.004 0,-0.004 z m -23.47308,0.23611 c 0.29353,-0.43453 0.7849,-0.69558 1.30929,-0.69558 0.41889,0 0.82105,0.16658 1.11725,0.46278 0.003,-0.003 0.003,-0.003 0.004,-0.003 0.69967,0.69974 0.82625,1.7888 0.30571,2.63035 -1.15243,1.84031 -1.81552,4.01548 -1.81552,6.34427 0,2.3289 0.66309,4.5041 1.81091,6.3472 0.5192,0.8394 0.39292,1.9256 -0.305,2.6236 0.004,0 0.004,0 0.004,0 -0.33432,0.3344 -0.80129,0.5021 -1.27191,0.4569 -0.47063,-0.045 -0.8972,-0.2986 -1.16186,-0.6903 -1.68367,-2.4976 -2.66961,-5.5053 -2.66961,-8.74136 0,-3.23614 0.98594,-6.24381 2.67352,-8.73872 z M 1000,990.15625 c 5.433,0 9.8438,4.41084 9.8438,9.84375 0,5.433 -4.4108,9.8438 -9.8438,9.8438 -5.43291,0 -9.84375,-4.4108 -9.84375,-9.8438 0,-5.43291 4.41084,-9.84375 9.84375,-9.84375 z m -8.97483,-0.67787 c -0.29709,-0.29708 -0.46419,-0.70044 -0.46419,-1.1206 0,-0.52594 0.26183,-1.01876 0.69766,-1.31317 2.49755,-1.68367 5.50522,-2.66961 8.74136,-2.66961 3.2361,0 6.2438,0.98594 8.7388,2.67352 0.3906,0.26389 0.6432,0.68918 0.6882,1.1584 0.045,0.46922 -0.1222,0.93481 -0.4554,1.26814 0,0.003 0,0.003 0,0.004 -0.6997,0.69967 -1.7889,0.82625 -2.6303,0.30571 -1.8403,-1.15243 -4.0155,-1.81552 -6.3444,-1.81552 -2.32883,0 -4.504,0.66309 -6.34717,1.81091 -0.83941,0.5192 -1.92567,0.39292 -2.62358,-0.305 -0.004,0.004 -0.004,0.004 -0.004,0.004 z"
   style="fill:#208e7a;stroke-width:0.015625"
   id="path1" />
        </g>
        <g
   transform="matrix(2.03201,0,0,2.03201,-1627.21,-1436.95)"
   id="g2">
            <path
   d="m 1003.8977,911.61784 c -0.089,0 -0.1019,-0.1185 -0.1019,-0.2025 0,-0.078 0.017,-0.13275 0.049,-0.16425 0.033,-0.0315 0.074,-0.0472 0.1215,-0.0472 h 0.2745 v -0.9315 c 0,-0.054 0.016,-0.0967 0.047,-0.12825 0.032,-0.0315 0.073,-0.0548 0.1238,-0.0697 0.048,-0.015 0.1027,-0.0285 0.1642,-0.0405 0.062,-0.012 0.1245,-0.0225 0.189,-0.0315 0.064,-0.009 0.1288,-0.0157 0.1935,-0.0203 0.065,-0.005 0.1254,-0.007 0.1822,-0.007 0.3661,0 0.6413,0.075 0.8258,0.225 0.1845,0.15 0.2767,0.354 0.2767,0.612 0,0.243 -0.085,0.438 -0.2542,0.585 -0.1695,0.147 -0.4222,0.2205 -0.7583,0.2205 z m 0.9151,0.6165 v 0.30123 c 0,0 -0.01,0.14175 -0.059,0.19802 -0.043,0.05 -0.1508,0.0678 -0.2018,0.0678 -0.111,0 -0.1905,-0.0211 -0.2385,-0.063 -0.048,-0.042 -0.072,-0.111 -0.072,-0.207 v -0.297 l -0.3258,0.004 c -0.064,7.7e-4 -0.097,-0.0512 -0.1062,-0.0827 -0.01,-0.0315 -0.014,-0.0652 -0.014,-0.10125 0,-0.069 0.014,-0.11775 0.043,-0.14625 0.029,-0.0285 0.064,-0.0428 0.1058,-0.0428 0,0 1.5404,-0.005 1.8805,0.006 0.097,0.003 0.1281,0.0294 0.1422,0.0769 0.01,0.0343 0.016,0.0699 0.016,0.10575 0,0.06 -0.015,0.105 -0.045,0.135 -0.03,0.03 -0.066,0.045 -0.108,0.045 z m 0.3555,-1.053 c 0.1561,0 0.2775,-0.0308 0.3645,-0.0922 0.087,-0.0615 0.1305,-0.15225 0.1305,-0.27225 0,-0.126 -0.046,-0.2205 -0.1396,-0.2835 -0.093,-0.063 -0.2204,-0.0945 -0.3825,-0.0945 -0.054,0 -0.1093,0.002 -0.1664,0.007 -0.057,0.005 -0.111,0.0142 -0.162,0.0292 v 0.7065 z"
   style="fill:#ffffff;fill-rule:nonzero;stroke-width:0.015625"
   id="path2" />
        </g>
    </g>
</svg>
