<?xml version="1.0" encoding="UTF-8" standalone="no"?>
<svg
   width="16.003559"
   height="15.99996"
   viewBox="0 0 16.003559 15.99996"
   version="1.1"
   xml:space="preserve"
   style="clip-rule:evenodd;fill-rule:evenodd;stroke-linejoin:round;stroke-miterlimit:2"
   id="svg2"
   xmlns="http://www.w3.org/2000/svg"
   xmlns:svg="http://www.w3.org/2000/svg"><defs
   id="defs2" />
    <g
   transform="matrix(3.99977,0,0,3.99977,-503.95758,-503.94258)"
   id="g2">
        <path
   d="m 129.99686,125.99289 -1.33341,1.33341 h -0.88882 c -0.24543,0 -0.44458,0.19898 -0.44458,0.44441 0,0.0499 0.008,0.0981 0.0235,0.14286 0.0219,0.0645 0.0584,0.12306 0.10658,0.17117 0.0804,0.0806 0.19164,0.13055 0.31436,0.13055 l -0.44442,0.44441 c -0.26358,0 -0.50934,-0.0766 -0.71631,-0.20848 -0.37114,-0.23693 -0.61709,-0.65204 -0.61709,-1.12492 0,-0.73648 0.59694,-1.33341 1.33341,-1.33341 z"
   style="fill:#b2fe92;fill-rule:nonzero;stroke-width:0.0156267"
   id="path1" />
        <path
   d="m 129.99686,128.65971 c 0,0.73647 -0.59694,1.3334 -1.33341,1.3334 h -2.66681 l 1.33341,-1.3334 h 0.88899 c 0.24543,0 0.44441,-0.19897 0.44441,-0.4444 0,-0.006 0,-0.0125 -3.3e-4,-0.0187 0,-0.004 -3.3e-4,-0.008 -6.7e-4,-0.0125 0,-0.001 0,-0.002 -3.3e-4,-0.003 0,-0.003 -3.3e-4,-0.005 -6.7e-4,-0.008 0,-0.002 -3.3e-4,-0.005 -6.6e-4,-0.007 -3.3e-4,-0.002 -5e-4,-0.005 -0.001,-0.007 0,-0.001 -3.3e-4,-0.003 -5e-4,-0.004 -5e-4,-0.004 -0.001,-0.008 -0.002,-0.0117 0,-3.2e-4 0,-6.7e-4 -3.3e-4,-10e-4 -8.3e-4,-0.005 -0.002,-0.01 -0.003,-0.0148 -9e-5,-0.002 -4.4e-4,-0.003 -0.001,-0.005 -0.001,-0.005 -0.002,-0.01 -0.003,-0.015 -3.3e-4,-0.001 -5e-4,-0.002 -8.3e-4,-0.003 -0.001,-0.005 -0.002,-0.009 -0.004,-0.014 -0.002,-0.006 -0.004,-0.0117 -0.005,-0.0175 -0.004,-0.0103 -0.008,-0.0206 -0.0117,-0.0306 -0.003,-0.007 -0.006,-0.013 -0.009,-0.0193 -0.003,-0.006 -0.006,-0.012 -0.009,-0.0178 -0.004,-0.007 -0.008,-0.0148 -0.0125,-0.022 -0.003,-0.004 -0.006,-0.009 -0.008,-0.0132 -0.003,-0.005 -0.006,-0.01 -0.01,-0.0143 -10e-4,-0.002 -0.003,-0.004 -0.005,-0.006 -0.002,-0.003 -0.005,-0.007 -0.008,-0.0103 -0.002,-0.003 -0.005,-0.006 -0.008,-0.009 -0.004,-0.004 -0.008,-0.009 -0.0113,-0.013 -0.005,-0.005 -0.009,-0.0102 -0.0143,-0.015 -0.0832,-0.0836 -0.19644,-0.13053 -0.31436,-0.13037 l 0.44441,-0.44443 c 0.009,0 0.0173,0 0.026,3.5e-4 0.006,0 0.013,3.1e-4 0.0197,5e-4 0.0175,5.1e-4 0.035,0.001 0.0524,0.003 0.006,3.4e-4 0.0115,8.4e-4 0.0172,0.002 0.0218,0.002 0.0436,0.004 0.0651,0.007 0.006,8.3e-4 0.0125,0.002 0.0188,0.003 0.008,0.001 0.0168,0.002 0.0251,0.004 l 0.0175,0.003 c 0.001,3.3e-4 0.003,3.3e-4 0.004,8.3e-4 0.008,0.001 0.0155,0.003 0.0231,0.004 0.01,0.002 0.0195,0.004 0.0291,0.006 l 0.006,10e-4 c 0.01,0.002 0.0198,0.005 0.0295,0.007 3.5e-4,0 6.8e-4,0 0.001,3.1e-4 0.0103,0.003 0.0205,0.005 0.0306,0.008 0.0105,0.003 0.0211,0.006 0.0315,0.009 0.009,0.003 0.0188,0.006 0.0281,0.009 0.001,5e-4 0.002,0.001 0.004,0.001 0.009,0.003 0.0185,0.006 0.0276,0.01 0.001,3.5e-4 0.003,10e-4 0.004,10e-4 0.01,0.004 0.0193,0.007 0.0288,0.011 0.0102,0.004 0.0201,0.008 0.0301,0.0123 0.0206,0.009 0.0409,0.0178 0.0609,0.0276 0.009,0.004 0.0182,0.009 0.0271,0.0135 0.01,0.005 0.0191,0.01 0.0285,0.015 0.009,0.005 0.0188,0.0103 0.0282,0.0156 0.009,0.005 0.0185,0.0108 0.0278,0.0163 0.008,0.005 0.0172,0.0103 0.0255,0.0157 8.4e-4,5e-4 0.001,10e-4 0.002,10e-4 0.0179,0.0115 0.0355,0.0235 0.0528,0.0358 0.0174,0.0124 0.0345,0.0252 0.0513,0.0385 0.008,0.006 0.0152,0.012 0.0227,0.0183 0.001,9.8e-4 0.002,0.002 0.004,0.003 0.0241,0.02 0.0475,0.0408 0.0701,0.0624 0.008,0.008 0.0153,0.0148 0.023,0.0225 0.008,0.008 0.015,0.0151 0.0225,0.023 0.007,0.008 0.0145,0.0155 0.0218,0.0233 0.0127,0.014 0.0251,0.0281 0.0371,0.0426 0.003,0.003 0.005,0.006 0.008,0.009 0.006,0.007 0.0115,0.014 0.0172,0.0211 0.0131,0.0165 0.0257,0.0334 0.038,0.0506 0.0122,0.0172 3.4e-4,3.4e-4 3.4e-4,6.7e-4 0.006,0.009 0.0123,0.0175 0.0183,0.0265 0.006,0.009 0.0118,0.0178 0.0178,0.0268 0.006,0.009 0.0113,0.0178 0.0168,0.027 0.001,0.002 0.002,0.004 0.003,0.005 0.004,0.007 0.009,0.015 0.0133,0.0226 0.005,0.009 0.0107,0.0186 0.0157,0.0282 0.004,0.007 0.008,0.0142 0.0113,0.0213 0.01,0.0191 0.0193,0.0384 0.0283,0.0579 0.002,0.005 0.005,0.0107 0.007,0.0161 0.004,0.008 0.007,0.0163 0.0107,0.0246 0.004,0.009 0.007,0.0178 0.0108,0.0266 0.003,0.008 0.007,0.017 0.01,0.0255 0.001,0.004 0.003,0.008 0.004,0.0118 0.002,0.006 0.005,0.0122 0.007,0.0183 0.004,0.0122 0.008,0.0245 0.012,0.0368 0.003,0.009 0.006,0.0181 0.008,0.0271 8.3e-4,0.002 10e-4,0.005 0.002,0.007 0.003,0.009 0.005,0.019 0.008,0.0285 0,3.3e-4 3.3e-4,6.7e-4 3.3e-4,0.001 0.002,0.009 0.005,0.0181 0.007,0.0272 0.003,0.0133 0.006,0.027 0.009,0.0404 0.002,0.008 0.003,0.016 0.004,0.0242 0.002,0.008 0.003,0.017 0.004,0.0255 0.001,0.006 0.002,0.0123 0.003,0.0187 10e-4,0.007 0.002,0.015 0.003,0.0225 6.7e-4,0.005 0.001,0.009 0.002,0.0138 0.001,0.008 0.002,0.0158 0.003,0.0238 v 3.4e-4 c 0.001,0.0108 0.002,0.0215 0.003,0.0323 0,0.001 0,0.002 3.3e-4,0.004 8.2e-4,0.0102 0.001,0.0201 0.002,0.0303 0,0.001 0,0.003 3.5e-4,0.004 5e-4,0.01 8.3e-4,0.0196 9.8e-4,0.0295 v 0.005 c 3.5e-4,0.0107 3.5e-4,0.0213 3.5e-4,0.032 z"
   style="fill:#078465;fill-rule:nonzero;stroke-width:0.0156267"
   id="path2" />
    </g>
</svg>
