<?xml version="1.0" encoding="UTF-8" standalone="no"?>
<svg
   width="16.000063"
   height="21.177752"
   viewBox="0 0 16.000063 21.177752"
   version="1.1"
   xml:space="preserve"
   style="clip-rule:evenodd;fill-rule:evenodd;stroke-linejoin:round;stroke-miterlimit:2"
   id="svg1"
   xmlns="http://www.w3.org/2000/svg"
   xmlns:svg="http://www.w3.org/2000/svg"><defs
   id="defs1" />
    <g
   transform="matrix(4.06892,0,0,4.06892,-496.20593,-501.41212)"
   id="g1">
        <path
   d="m 125.87227,125.32207 c 0.0818,-0.54687 -0.3346,-0.84086 -0.90399,-1.03698 l 0.18469,-0.7408 -0.45097,-0.11238 -0.17982,0.72129 c -0.11856,-0.0296 -0.24032,-0.0574 -0.36132,-0.085 l 0.18109,-0.72604 -0.4507,-0.11238 -0.18484,0.74056 c -0.0981,-0.0224 -0.19446,-0.0445 -0.28797,-0.0677 l 5.1e-4,-0.002 -0.62194,-0.15529 -0.11996,0.48162 c 0,0 0.3346,0.0767 0.32753,0.0814 0.18265,0.0456 0.21566,0.16646 0.21013,0.26227 l -0.21038,0.84394 c 0.0126,0.003 0.0289,0.008 0.0469,0.015 -0.015,-0.004 -0.0311,-0.008 -0.0477,-0.0118 l -0.2949,1.18223 c -0.0224,0.0555 -0.079,0.13871 -0.20668,0.10711 0.005,0.007 -0.32778,-0.0818 -0.32778,-0.0818 l -0.22389,0.51618 0.58687,0.14627 c 0.10919,0.0274 0.21617,0.056 0.32149,0.083 l -0.18662,0.74926 0.45046,0.1124 0.18484,-0.74132 c 0.11945,0.0324 0.23925,0.0635 0.35938,0.0932 l -0.1842,0.73785 0.45098,0.11238 0.18664,-0.74786 c 0.76901,0.14551 1.34728,0.0868 1.59068,-0.60864 0.19614,-0.55998 -0.01,-0.88299 -0.41437,-1.09362 0.29466,-0.0679 0.51662,-0.26175 0.57582,-0.66205 z m -1.03039,1.44472 c -0.13936,0.55998 -1.08228,0.25726 -1.388,0.18135 l 0.24765,-0.99266 c 0.30571,0.0763 1.286,0.22734 1.14035,0.81131 z m 0.13949,-1.45283 c -0.12716,0.50937 -0.91196,0.25058 -1.16656,0.18713 l 0.22453,-0.90031 c 0.2546,0.0635 1.07446,0.18186 0.94203,0.71318 z"
   style="fill:#ef4800;fill-rule:nonzero;stroke-width:0.0206803"
   id="path1" />
    </g>
</svg>
