<svg xmlns="http://www.w3.org/2000/svg" width="16" height="16" fill="none"><g clip-path="url(#a)"><g fill="#EF4800" clip-path="url(#b)"><path d="M8.02 13.348c2.995 0 5.405-2.41 5.405-5.327 0-2.918-2.41-5.328-5.404-5.328-2.994 0-5.404 2.41-5.404 5.328 0 2.917 2.41 5.327 5.404 5.327Z"/><path d="M12.55 13.666c.29.276.272.746-.061.968-3.134 2.085-7.39 1.78-10.173-.98a7.918 7.918 0 0 1 0-11.315C5.085-.43 9.38-.73 12.52 1.38c.319.214.341.662.07.934a.694.694 0 0 1-.87.07C9.108.67 5.551.98 3.28 3.252a6.632 6.632 0 0 0-.05 9.488c2.271 2.273 5.83 2.583 8.44.868a.712.712 0 0 1 .88.058Zm1.169-1.144c.275.29.745.274.969-.058a8.032 8.032 0 0 0-.024-8.97c-.214-.317-.66-.338-.931-.068a.694.694 0 0 0-.068.876c1.476 2.212 1.474 5.09-.006 7.338a.713.713 0 0 0 .06.882Z"/></g></g><defs><clipPath id="a"><path fill="#fff" d="M0 0h16v16H0z"/></clipPath><clipPath id="b"><rect width="16" height="16" fill="#fff" rx="8"/></clipPath></defs></svg>