<?xml version="1.0" encoding="UTF-8" standalone="no"?>
<svg
   width="23.848476"
   height="23.836758"
   viewBox="0 0 23.848476 23.836758"
   version="1.1"
   xml:space="preserve"
   style="clip-rule:evenodd;fill-rule:evenodd;stroke-linejoin:round;stroke-miterlimit:2"
   id="svg2"
   xmlns="http://www.w3.org/2000/svg"
   xmlns:svg="http://www.w3.org/2000/svg"><defs
   id="defs2" />
    <g
   transform="matrix(3.95941,0,0,3.98627,-494.33571,-498.08263)"
   id="g2">
        <path
   d="m 127.87315,129.94061 c 1.11935,0 2.02052,-0.90117 2.02052,-1.99206 0,-1.09088 -0.90117,-1.99202 -2.02052,-1.99202 -1.11932,0 -2.02049,0.90114 -2.02049,1.99202 0,1.09089 0.90117,1.99206 2.02049,1.99206 z"
   style="fill:#ef4800;fill-rule:nonzero;stroke-width:0.0233694"
   id="path1" />
        <path
   d="m 129.56654,130.0596 c 0.10862,0.1029 0.10201,0.27871 -0.0226,0.3616 -1.17186,0.77969 -2.76308,0.66537 -3.80379,-0.36643 -1.18573,-1.17626 -1.18573,-3.05447 0,-4.23072 1.03531,-1.03529 2.64161,-1.1469 3.81554,-0.35851 0.11905,0.08 0.1276,0.24771 0.0262,0.34913 -0.0865,0.0865 -0.2235,0.0934 -0.32577,0.0262 -0.97611,-0.64098 -2.30602,-0.52483 -3.15549,0.32465 -1.00549,0.97702 -1.00549,2.57065 -0.019,3.5477 0.84962,0.84962 2.17985,0.96567 3.15599,0.3243 0.10266,-0.0675 0.23968,-0.0624 0.32885,0.022 z m 0.43766,-0.42775 c 0.10297,0.10869 0.27882,0.10264 0.36235,-0.0216 0.67965,-1.01107 0.67677,-2.34591 -0.009,-3.35425 -0.0803,-0.11813 -0.24725,-0.12603 -0.34827,-0.025 -0.087,0.087 -0.0935,0.2249 -0.0252,0.32728 0.55161,0.82716 0.55077,1.90299 -0.002,2.74396 -0.0677,0.1029 -0.0624,0.2402 0.0223,0.32963 z"
   style="fill:#ef4800;fill-rule:nonzero;stroke-width:0.0233694"
   id="path2" />
    </g>
</svg>
