<svg xmlns="http://www.w3.org/2000/svg" width="16" height="16" fill="none"><g fill="#EF4800" clip-path="url(#a)"><path d="M15.542 7.653c0 1.03-.276 1.994-.757 2.827a5.677 5.677 0 0 1-2.07 2.07l-.089.05a5.62 5.62 0 0 1-2.737.706H4.237l1.06-2.826h-3.18l1.06-2.827h6.712L8.83 10.48h1.06a2.827 2.827 0 1 0 0-5.653H4.236L5.296 2h4.593c1.03 0 1.994.276 2.826.756a5.676 5.676 0 0 1 2.07 2.07 5.63 5.63 0 0 1 .757 2.827Z"/><path d="M3.179 7.653H0l1.06-2.827h3.18L3.178 7.653Z"/></g><defs><clipPath id="a"><path fill="#fff" d="M0 0h16v16H0z"/></clipPath></defs></svg>