<svg xmlns="http://www.w3.org/2000/svg" width="16" height="16" fill="none"><path fill="#26A17B" d="M9.372 8.914v-.002c-.084.006-.518.03-1.483.03-.772 0-1.314-.02-1.505-.03v.002C3.414 8.783 1.2 8.268 1.2 7.649c0-.617 2.216-1.134 5.184-1.264V8.4c.193.014.75.047 1.518.047.923 0 1.384-.039 1.47-.047V6.387c2.964.132 5.172.647 5.172 1.264s-2.21 1.132-5.172 1.265m0-2.738V4.375h4.134v-2.75H2.251v2.75h4.135v1.803C3.026 6.332.5 6.995.5 7.792c0 .796 2.527 1.46 5.886 1.615v5.78h2.988v-5.78c3.354-.154 5.876-.817 5.876-1.614 0-.794-2.521-1.46-5.876-1.613"/></svg>