<?xml version="1.0" encoding="UTF-8" standalone="no"?>
<svg
   width="15.999989"
   height="14.711832"
   viewBox="0 0 15.999989 14.711832"
   version="1.1"
   xml:space="preserve"
   style="clip-rule:evenodd;fill-rule:evenodd;stroke-linejoin:round;stroke-miterlimit:2"
   id="svg1"
   xmlns="http://www.w3.org/2000/svg"
   xmlns:svg="http://www.w3.org/2000/svg"><defs
   id="defs1" />
    <g
   transform="matrix(4.33898,0,0,4.33898,-538.71149,-576.23689)"
   id="g1">
        <path
   d="m 126.37433,134.62684 v -4.8e-4 c -0.021,0.001 -0.1295,0.008 -0.37091,0.008 -0.19303,0 -0.32839,-0.005 -0.37628,-0.008 v 4.8e-4 c -0.74228,-0.0327 -1.29594,-0.16148 -1.29594,-0.31614 0,-0.15415 0.55414,-0.28343 1.29594,-0.31612 v 0.50395 c 0.0484,0.003 0.18766,0.0117 0.3797,0.0117 0.23066,0 0.34597,-0.01 0.36749,-0.0117 v -0.50347 c 0.74081,0.0332 1.29301,0.16197 1.29301,0.31614 0,0.15416 -0.55268,0.28296 -1.29301,0.31613 m 0,-0.68447 v -0.45078 h 1.03353 v -0.68739 h -2.81375 v 0.68739 h 1.03353 v 0.45078 c -0.84003,0.0386 -1.47139,0.20442 -1.47139,0.40347 0,0.19905 0.63184,0.36492 1.47139,0.40394 v 1.44504 h 0.74717 v -1.44504 c 0.83855,-0.0385 1.46894,-0.20441 1.46894,-0.40346 0,-0.19856 -0.63039,-0.36492 -1.46894,-0.40347"
   style="fill:#26a17b;fill-rule:nonzero;stroke-width:0.015625"
   id="path1" />
    </g>
</svg>
