<?xml version="1.0" encoding="UTF-8" standalone="no"?>
<svg
   width="16.001404"
   height="31.279636"
   viewBox="0 0 16.001404 31.279636"
   version="1.1"
   xml:space="preserve"
   style="clip-rule:evenodd;fill-rule:evenodd;stroke-linejoin:round;stroke-miterlimit:2"
   id="svg1"
   xmlns="http://www.w3.org/2000/svg"
   xmlns:svg="http://www.w3.org/2000/svg"><defs
   id="defs1" />
    <g
   transform="matrix(3.12899,0,0,3.12899,-788.32481,-1009.0434)"
   id="g1">
        <path
   d="m 254.66737,332.47886 h -0.92097 v -1.1684 h -1.80414 v -7.45028 h 1.80414 v -1.37804 h 0.92097 v 1.39866 c 0.49944,0.009 0.91869,0.0871 1.25775,0.23368 h -0.003 c 0.26346,0.10997 0.47536,0.31042 0.63573,0.60137 0.071,0.13517 0.12488,0.27092 0.16153,0.40721 0.0367,0.13633 0.055,0.27666 0.055,0.421 0,0.63002 -0.24513,1.14433 -0.7354,1.54296 -0.0596,0.0504 -0.11971,0.0968 -0.18041,0.13917 -0.0607,0.0424 -0.13003,0.0876 -0.20793,0.13574 0.22223,0.0802 0.42558,0.18615 0.60998,0.31787 0.18444,0.13175 0.34536,0.28695 0.48282,0.46565 0.20848,0.27492 0.31274,0.63002 0.31274,1.06531 0,0.37801 -0.0962,0.72853 -0.28867,1.05156 -0.18786,0.31844 -0.44903,0.56816 -0.78351,0.74915 -0.33678,0.18557 -0.77552,0.28524 -1.31619,0.29899 z m 0,-5.57741 c 0.0527,-0.0138 0.10826,-0.0332 0.16669,-0.0584 0.0584,-0.0252 0.11968,-0.055 0.18383,-0.0893 0.0733,-0.0389 0.14433,-0.0962 0.21306,-0.17182 0.0687,-0.0756 0.13059,-0.1684 0.18557,-0.27837 0.055,-0.11226 0.0968,-0.21877 0.12546,-0.31958 0.0286,-0.1008 0.043,-0.19818 0.043,-0.29211 0,-0.23139 -0.0951,-0.42725 -0.28525,-0.58762 -0.10996,-0.10768 -0.32073,-0.18444 -0.63231,-0.23026 z m -0.92097,-2.04814 h -0.60482 v 2.12719 h 0.60482 z m 0.92097,5.47086 c 0.0802,-0.005 0.15753,-0.0132 0.23197,-0.0258 0.0745,-0.0126 0.14833,-0.0303 0.22165,-0.0532 0.0802,-0.0252 0.15349,-0.0567 0.21993,-0.0945 0.0664,-0.0378 0.12717,-0.0819 0.18215,-0.1323 h -0.003 c 0.20619,-0.19931 0.30928,-0.44445 0.30928,-0.7354 0,-0.22223 -0.0642,-0.43416 -0.19244,-0.63577 h 0.003 c -0.11684,-0.17869 -0.3047,-0.3299 -0.56358,-0.45361 -0.13975,-0.0687 -0.27608,-0.12255 -0.40896,-0.1615 z m -1.52579,-2.36429 v 2.36774 h 0.60482 v -2.36774 z"
   style="fill:#003f20;fill-rule:nonzero;stroke-width:0.0305464"
   id="path1" />
    </g>
</svg>
