<?xml version="1.0" encoding="UTF-8" standalone="no"?>
<svg
   width="15.9996"
   height="16"
   viewBox="0 0 15.9996 16"
   version="1.1"
   xml:space="preserve"
   style="clip-rule:evenodd;fill-rule:evenodd;stroke-linejoin:round;stroke-miterlimit:2"
   id="svg4"
   xmlns="http://www.w3.org/2000/svg"
   xmlns:svg="http://www.w3.org/2000/svg"><defs
   id="defs4" />
    <g
   transform="matrix(4,0,0,4,7.9996006,8)"
   id="g4">
        <g
   transform="translate(-128,-128)"
   id="g3">
            <g
   transform="scale(0.128)"
   id="g1">
                <path
   d="m 1008.9748,1010.5216 c 0.3344,0.3343 0.5021,0.8014 0.4569,1.272 -0.045,0.4706 -0.2986,0.8972 -0.6903,1.1617 -2.4977,1.6838 -5.5053,2.6697 -8.7414,2.6697 -3.23614,0 -6.24381,-0.9859 -8.73872,-2.6736 -0.39064,-0.2637 -0.64337,-0.6891 -0.68836,-1.1583 -0.045,-0.4692 0.12222,-0.9348 0.45556,-1.2681 -0.003,0 -0.003,0 -0.003,0 0.69974,-0.6997 1.7888,-0.8262 2.63035,-0.3056 1.84031,1.1523 4.01548,1.8154 6.34427,1.8154 2.3289,0 4.5041,-0.6631 6.3472,-1.8109 0.8394,-0.5192 1.9256,-0.393 2.6236,0.305 0,0 0,0 0,0 z m 1.5468,-19.49643 c 0.3343,-0.33433 0.8014,-0.50208 1.272,-0.45694 0.4706,0.0451 0.8972,0.2986 1.1617,0.69041 1.6838,2.49755 2.6697,5.50522 2.6697,8.74136 0,3.2361 -0.9859,6.2437 -2.6736,8.7387 -0.2637,0.3907 -0.6891,0.6433 -1.1583,0.6883 -0.4692,0.045 -0.9348,-0.1222 -1.2681,-0.4554 0,0 0,0 0,0 -0.6997,-0.6997 -0.8262,-1.7889 -0.3056,-2.6303 1.1523,-1.8403 1.8154,-4.0155 1.8154,-6.3444 0,-2.32883 -0.6631,-4.504 -1.8109,-6.34717 -0.5192,-0.83941 -0.393,-1.92567 0.305,-2.62358 0,-0.004 0,-0.004 0,-0.004 z m -23.47308,0.23611 c 0.29353,-0.43453 0.7849,-0.69558 1.30929,-0.69558 0.41889,0 0.82105,0.16658 1.11725,0.46278 0.003,-0.003 0.003,-0.003 0.004,-0.003 0.69967,0.69974 0.82625,1.7888 0.30571,2.63035 -1.15243,1.84031 -1.81552,4.01548 -1.81552,6.34427 0,2.3289 0.66309,4.5041 1.81091,6.3472 0.5192,0.8394 0.39292,1.9256 -0.305,2.6236 0.004,0 0.004,0 0.004,0 -0.33432,0.3344 -0.80129,0.5021 -1.27191,0.4569 -0.47063,-0.045 -0.8972,-0.2986 -1.16186,-0.6903 -1.68367,-2.4977 -2.66961,-5.5053 -2.66961,-8.74136 0,-3.23614 0.98594,-6.24381 2.67352,-8.73872 z M 1000,990.15625 c 5.433,0 9.8437,4.41084 9.8437,9.84375 0,5.433 -4.4107,9.8437 -9.8437,9.8437 -5.43291,0 -9.84375,-4.4107 -9.84375,-9.8437 0,-5.43291 4.41084,-9.84375 9.84375,-9.84375 z m -8.97483,-0.67787 c -0.29709,-0.29708 -0.46419,-0.70044 -0.46419,-1.1206 0,-0.52594 0.26183,-1.01876 0.69766,-1.31317 2.49755,-1.68367 5.50522,-2.66961 8.74136,-2.66961 3.2361,0 6.2437,0.98594 8.7387,2.67352 0.3907,0.26389 0.6433,0.68918 0.6883,1.1584 0.045,0.46922 -0.1222,0.93481 -0.4554,1.26814 0,0.003 0,0.003 0,0.004 -0.6997,0.69967 -1.7889,0.82625 -2.6303,0.30571 -1.8403,-1.15243 -4.0155,-1.81552 -6.3444,-1.81552 -2.32883,0 -4.504,0.66309 -6.34717,1.81091 -0.83941,0.5192 -1.92567,0.39292 -2.62358,-0.305 -0.004,0.004 -0.004,0.004 -0.004,0.004 z"
   style="fill:#208e7a;stroke-width:0.015625"
   id="path1" />
            </g>
            <g
   transform="matrix(0.49705,0,0,0.49705,-374.924,-322.765)"
   id="g2">
                <path
   d="m 1012.6932,906.77134 c 0.034,-0.0407 0.064,-0.086 0.089,-0.13582 0.055,-0.10893 0.083,-0.22361 0.083,-0.34395 v -0.21986 c 0,-0.23087 -0.09,-0.41625 -0.2698,-0.55642 -0.1633,-0.12727 -0.3755,-0.19583 -0.6386,-0.20016 v -0.34278 c 0,-0.0624 -0.051,-0.11375 -0.1137,-0.11376 h -0.2988 c -0.062,0 -0.1138,0.0514 -0.1138,0.11376 v 0.34256 h -0.4461 c -0.2187,0 -0.396,0.17729 -0.396,0.39596 v 2.35211 c 0,0.11365 0.037,0.20489 0.108,0.27542 0.071,0.0706 0.1618,0.10797 0.2754,0.10797 h 0.4587 v 0.34265 c 0,0.0628 0.051,0.11375 0.1138,0.11375 h 0.2988 c 0.062,0 0.1137,-0.0514 0.1137,-0.11375 v -0.34265 h 0.1766 c 0.2797,0 0.5,-0.0811 0.6634,-0.23669 0.1658,-0.15781 0.2511,-0.36648 0.2511,-0.62792 v -0.19913 c 0,-0.16515 -0.049,-0.30947 -0.1469,-0.43334 -0.058,-0.0736 -0.1268,-0.13294 -0.2075,-0.17795 z m -0.1801,0.61129 v 0.19913 c 0,0.10859 -0.034,0.19659 -0.1061,0.26237 -0.077,0.0698 -0.1824,0.10092 -0.3153,0.10092 h -0.9691 v -0.83446 h 1.052 c 0.1047,0 0.19,0.0243 0.2541,0.0787 0.057,0.0485 0.084,0.11337 0.084,0.19334 z m -1.3905,-0.75679 v -0.80958 h 0.8072 c 0.1248,0 0.2272,0.025 0.3055,0.0806 0.063,0.0444 0.095,0.10223 0.095,0.17481 v 0.21986 c 0,0.1022 -0.027,0.18509 -0.086,0.24661 -0.058,0.06 -0.1358,0.0877 -0.2314,0.0877 z"
   style="fill:#ffffff;fill-rule:nonzero;stroke-width:0.015625"
   id="path2" />
            </g>
        </g>
    </g>
</svg>
