<svg xmlns="http://www.w3.org/2000/svg" xml:space="preserve" style="fill-rule:evenodd;clip-rule:evenodd;stroke-linejoin:round;stroke-miterlimit:2" viewBox="0 0 16 16"><path d="M1655.75 1754.74C1480.14 1907.48 1250.79 2000 1000 2000c-206.19 0-397.888-62.54-557.141-169.66a104.054 104.054 0 0 1-43.861-76.15 104.042 104.042 0 0 1 30.084-82.57c28.177-29.88 56.8-58.51 70.284-71.99a12.503 12.503 0 0 1 16.701-.81C648.394 1705.86 816.765 1770 1000 1770c148.35 0 286.96-42.05 404.58-114.88 52.79-34.15 122.27-26.78 166.73 17.68 42.56 40.07 84.44 81.94 84.44 81.94Zm88.69-1400.186a13.494 13.494 0 0 1 10.1-3.994c3.78.141 7.32 1.86 9.78 4.738C1911.31 529.469 2000 754.459 2000 1000c0 245.93-88.97 471.25-236.45 645.48a12.51 12.51 0 0 1-9.01 4.38c-3.48.14-6.86-1.19-9.33-3.65l-74.54-74.54c-44.51-44.57-51.8-114.18-17.51-167.01C1727.72 1287.72 1770 1148.76 1770 1000c0-148.354-42.05-286.964-114.88-404.576-34.15-52.795-26.78-122.272 17.68-166.733 27.58-30.077 56.68-59.18 71.64-74.137ZM169.664 442.859a104.04 104.04 0 0 1 158.714-13.777c39.766 38.057 77.944 76.235 79.917 78.208a.125.125 0 0 1 .007.169C296.98 641.031 230 812.755 230 1000c0 187.25 66.98 358.97 178.302 492.54.041.05.039.12-.007.17-1.985 1.98-40.633 40.63-79.798 79.8a104.379 104.379 0 0 1-82.807 30.28 104.387 104.387 0 0 1-76.447-43.93C62.792 1398.66 0 1206.61 0 1000c0-206.19 62.539-397.888 169.664-557.141ZM1000 370c347.71 0 630 282.294 630 630 0 347.71-282.29 630-630 630-347.706 0-630-282.29-630-630 0-347.706 282.294-630 630-630Zm-572.508-41.503a104.372 104.372 0 0 1 13.648-159.254C601.337 62.792 793.393 0 1000 0c250.79 0 480.14 92.52 655.75 245.256 0 0-42.47 42.474-84.08 84.074-44.57 44.505-114.18 51.802-167.01 17.505C1287.72 272.276 1148.76 230 1000 230c-183.235 0-351.606 64.142-483.907 171.21a12.485 12.485 0 0 1-16.718-.849c-13.606-13.587-42.6-42.581-71.883-71.864Z" style="fill:#208e7a" transform="scale(.008)"/><path d="M1067.85 899.888c2.17-2.606 4.07-5.503 5.69-8.692 3.54-6.972 5.3-14.311 5.3-22.013v-14.071c0-14.776-5.77-26.64-17.27-35.611-10.45-8.145-24.03-12.533-40.87-12.81v-21.938a7.281 7.281 0 0 0-7.28-7.281H994.3a7.281 7.281 0 0 0-7.281 7.281v21.924h-28.556c-13.996 0-25.341 11.346-25.341 25.341v150.535c0 7.274 2.397 13.113 6.911 17.627 4.515 4.52 10.354 6.91 17.628 6.91h29.358v21.93c0 4.02 3.26 7.28 7.281 7.28h19.12a7.28 7.28 0 0 0 7.28-7.28v-21.93h11.3c17.9 0 32-5.19 42.46-15.148 10.61-10.1 16.07-23.455 16.07-40.187v-12.744c0-10.57-3.16-19.806-9.4-27.734-3.7-4.707-8.12-8.508-13.28-11.389Zm-11.53 39.123v12.744c0 6.95-2.18 12.582-6.79 16.792-4.9 4.467-11.67 6.459-20.18 6.459h-62.018V921.6h67.328c6.7 0 12.16 1.552 16.26 5.037 3.65 3.107 5.4 7.256 5.4 12.374Zm-88.988-48.435v-51.813h51.658c7.99 0 14.54 1.602 19.55 5.161 4.01 2.844 6.09 6.543 6.09 11.188v14.071c0 6.541-1.72 11.846-5.52 15.783-3.71 3.842-8.69 5.61-14.81 5.61h-56.968Z" style="fill:#fff;fill-rule:nonzero" transform="matrix(.03107 0 0 .03107 -23.433 -20.173)"/></svg>