<?xml version="1.0" encoding="UTF-8" standalone="no"?>
<svg
   width="16.00008"
   height="6.5934443"
   viewBox="0 0 16.00008 6.5934443"
   version="1.1"
   xml:space="preserve"
   style="clip-rule:evenodd;fill-rule:evenodd;stroke-linejoin:round;stroke-miterlimit:2"
   id="svg3"
   xmlns="http://www.w3.org/2000/svg"
   xmlns:svg="http://www.w3.org/2000/svg"><defs
   id="defs3" />
    <g
   transform="matrix(4,0,0,4,7.98408,2.798956)"
   id="g3">
        <g
   transform="translate(-128,-53)"
   id="g2">
            <clipPath
   id="_clip1">
                <rect
   x="0"
   y="0"
   width="256"
   height="106"
   id="rect1" />
            </clipPath>
            <g
   clip-path="url(#_clip1)"
   id="g1">
                <path
   d="m 127.02336,52.669886 h 0.30122 c 0.0141,0 0.0255,0.01134 0.0255,0.02539 v 0.826922 c 0,0.01406 -0.0114,0.02539 -0.0255,0.02539 h -0.30122 c -0.0141,0 -0.0255,-0.01134 -0.0255,-0.02539 v -0.826922 c 0,-0.01405 0.0114,-0.02539 0.0255,-0.02539 z m 1.10786,-0.01467 c 0.14866,0 0.26217,0.0385 0.34044,0.115531 0.0763,0.07506 0.11443,0.182391 0.11443,0.321797 v 0.429531 c 0,0.01406 -0.0114,0.02539 -0.0255,0.02539 h -0.30121 c -0.0141,0 -0.0255,-0.01134 -0.0255,-0.02539 V 53.09837 c 0,-0.100469 -0.0734,-0.150656 -0.22006,-0.150656 -0.1467,0 -0.22005,0.05028 -0.22005,0.150656 v 0.423703 c 0,0.01406 -0.0114,0.02539 -0.0255,0.02539 h -0.30122 c -0.0141,0 -0.0255,-0.01134 -0.0255,-0.02539 v -0.826906 c 0,-0.01406 0.0114,-0.02541 0.0255,-0.02541 h 0.30122 c 0.0141,0 0.0255,0.01134 0.0255,0.02541 v 0.07261 c 0.0782,-0.075 0.19068,-0.112562 0.33738,-0.112562 z m 1.87278,0.02581 c -5e-5,-0.01375 -0.0112,-0.02513 -0.025,-0.02539 -0.057,-0.0015 -0.18651,0.0097 -0.27158,0.06737 -0.0205,0.01387 -0.0402,0.02802 -0.0578,0.04484 v 1.71e-4 c -0.10043,-0.07516 -0.24382,-0.112812 -0.43068,-0.112812 -0.1917,0 -0.3385,0.04003 -0.4402,0.119922 -0.0978,0.07805 -0.1467,0.189172 -0.1467,0.333562 0,0.144313 0.0489,0.255532 0.1467,0.333563 0.0654,0.05138 0.14942,0.08616 0.25198,0.104531 v 7.8e-5 c 0.0596,0.01109 0.12913,0.01677 0.21233,0.01592 0.0235,-7.19e-4 0.047,-0.0021 0.0704,-0.0042 0.0184,-0.0014 0.0368,-0.0033 0.0551,-0.0057 0.011,-0.0013 0.0219,-0.0028 0.0329,-0.0044 0.0248,-0.0037 0.0482,0.01358 0.052,0.03834 0.004,0.02477 -0.0138,0.04814 -0.0385,0.0518 -0.0665,0.0098 -0.1389,0.01575 -0.19383,0.01575 -0.0653,0 -0.12625,-0.0044 -0.18278,-0.0132 -0.0371,-0.0057 -0.0738,-0.01372 -0.10993,-0.02413 -0.013,-0.0037 -0.0268,0.0035 -0.0312,0.01633 l -0.0744,0.222438 c -0.004,0.01272 0.002,0.02672 0.0148,0.03166 0.095,0.03817 0.2018,0.05212 0.30352,0.05772 0.14007,0.0077 0.29103,0.0044 0.42745,-0.0303 0.0335,-0.0085 0.0668,-0.01964 0.0971,-0.03572 0.02,-0.01058 0.0388,-0.02336 0.0554,-0.03886 0.0379,-0.03555 0.0625,-0.08387 0.0742,-0.134485 0.0241,-0.103687 0.0102,-0.231062 -0.0907,-0.288781 -0.003,-0.002 -0.007,-0.0039 -0.011,-0.0057 0.0748,-0.0755 0.11223,-0.176406 0.11223,-0.302594 0,-0.0562 -0.008,-0.107312 -0.0223,-0.153437 0.0252,-0.0049 0.0539,-0.0075 0.0863,-0.0075 0.0396,0 0.0738,0.0036 0.10264,0.01102 0.002,5.15e-4 0.004,7.65e-4 0.006,7.65e-4 0.0139,0 0.0254,-0.01147 0.0254,-0.02539 0,0 0,-1.6e-5 0,-1.6e-5 z m -0.78505,0.266782 c 0.15646,0 0.23474,0.05366 0.23474,0.16089 0,0.107328 -0.0783,0.160907 -0.23474,0.160907 -0.15656,0 -0.23475,-0.05367 -0.23475,-0.160907 0,-0.107234 0.0782,-0.16089 0.23475,-0.16089 z m -2.31267,-0.02547 v -0.227094 c 0,-0.01405 -0.0114,-0.02539 -0.0255,-0.02539 h -0.32659 v -0.344063 c 0,-0.01734 -0.0171,-0.02953 -0.0335,-0.02411 l -0.30122,0.100297 c -0.0104,0.0034 -0.0174,0.01319 -0.0174,0.02411 v 0.243844 h -0.17259 c -0.0141,0 -0.0255,0.01134 -0.0255,0.02539 v 0.227016 c 0,0.01405 0.0114,0.02539 0.0255,0.02539 h 0.17259 v 0.278703 c 0,0.121875 0.0406,0.209218 0.12175,0.261875 0.0773,0.04969 0.20299,0.07456 0.37711,0.07456 0.0655,0 0.12692,-0.0051 0.18456,-0.01516 0.012,-0.0022 0.0208,-0.01275 0.0208,-0.02495 v -0.240375 c 0,-0.01591 -0.0145,-0.02784 -0.0302,-0.02489 -0.0463,0.0086 -0.0901,0.01288 -0.13115,0.01288 -0.0656,0 -0.1125,-0.0059 -0.14085,-0.01761 -0.0333,-0.01261 -0.0498,-0.03606 -0.0498,-0.07016 V 52.94771 h 0.32659 c 0.0141,0 0.0255,-0.01134 0.0255,-0.02539 z m 0.4183,-0.343703 h -0.30122 c -0.0141,0 -0.0255,-0.01134 -0.0255,-0.02539 v -0.227594 c 0,-0.01406 0.0114,-0.02539 0.0255,-0.02539 h 0.30122 c 0.0141,0 0.0255,0.01134 0.0255,0.02539 v 0.227594 c 0,0.01397 -0.0115,0.02539 -0.0255,0.02539 z"
   style="fill:#ff9920;fill-rule:nonzero;stroke-width:0.015625"
   id="path1" />
            </g>
        </g>
    </g>
</svg>
