<?xml version="1.0" encoding="UTF-8" standalone="no"?>
<svg
   width="15.999998"
   height="21.302198"
   viewBox="0 0 15.999998 21.302198"
   version="1.1"
   xml:space="preserve"
   style="clip-rule:evenodd;fill-rule:evenodd;stroke-linejoin:round;stroke-miterlimit:2"
   id="svg1"
   xmlns="http://www.w3.org/2000/svg"
   xmlns:svg="http://www.w3.org/2000/svg"><defs
   id="defs1" />
    <g
   transform="matrix(4.02784,0,0,4.02784,-376.18948,-504.87416)"
   id="g1">
        <path
   d="m 93.397324,126.5593 c 0,-0.19074 0.154986,-0.34562 0.345954,-0.34562 h 1.640232 l 0.849248,-0.81025 c 0.08004,-0.0764 0.207668,-0.0764 0.287712,0 l 0.849206,0.81027 v 3.18884 c 0,0.20132 -0.163565,0.36474 -0.365091,0.36474 h -1.621116 l -0.849206,0.81029 c -0.08004,0.0764 -0.207689,0.0764 -0.287733,0 l -0.849206,-0.81031 z m 2.552345,1.24395 c -0.03827,0.0382 -0.101221,0.0382 -0.139494,0 l -6.3e-5,-6e-5 -0.273094,-0.27277 c -0.08473,-0.0847 -0.22239,-0.0847 -0.307119,0 l -0.273074,0.27283 c -0.03831,0.0382 -0.1012,0.0382 -0.139514,0 l -6.3e-5,-6e-5 -0.273261,-0.27299 c -0.08479,-0.0847 -0.22239,-0.0847 -0.307182,0 l -0.307181,0.30687 c -0.08473,0.0847 -0.08473,0.22216 0,0.30686 l 0.307181,0.30681 c 0.08479,0.0847 0.222391,0.0847 0.307182,0 l 0.273324,-0.27305 c 0.03815,-0.0381 0.100867,-0.038 0.138973,6e-5 h 1.25e-4 l 0.27349,0.27324 c 0.08473,0.0847 0.22239,0.0847 0.307119,0 l 0.273511,-0.27324 c 0.03821,-0.0381 0.100992,-0.0381 0.139202,0 l 0.273282,0.27299 c 0.08477,0.0847 0.22239,0.0847 0.307161,0 l 0.307181,-0.30681 c 0.08473,-0.0847 0.08473,-0.22218 0,-0.30686 l -0.307181,-0.30687 c -0.08477,-0.0847 -0.222391,-0.0847 -0.307161,0 z"
   style="fill:#f1a200;stroke-width:0.0208231"
   id="path1" />
    </g>
</svg>
