<?xml version="1.0" encoding="UTF-8" standalone="no"?>
<svg
   width="32"
   height="32.000004"
   viewBox="0 0 32 32.000004"
   version="1.1"
   xml:space="preserve"
   style="clip-rule:evenodd;fill-rule:evenodd;stroke-linejoin:round;stroke-miterlimit:2"
   id="svg2"
   xmlns="http://www.w3.org/2000/svg"
   xmlns:svg="http://www.w3.org/2000/svg"><defs
   id="defs2" />
    <g
   transform="matrix(4,0,0,4,-496,-496.00004)"
   id="g1">
        <path
   d="m 126.82284,124.17657 c 0.372,-0.11484 0.768,-0.17656 1.17716,-0.17656 v 4 h -4 c 0,-0.41028 0.0617,-0.80515 0.17656,-1.17772 0.388,-1.26228 1.384,-2.25828 2.64628,-2.64572 z"
   style="fill:#a2c4b8;fill-rule:nonzero;stroke-width:0.03125"
   id="path1" />
    </g>
    <g
   transform="matrix(4,0,0,4,-496,-496.00004)"
   id="g2">
        <path
   d="m 128,130.00001 c 0,0.55256 -0.224,1.05256 -0.58572,1.41372 -0.17087,0.17131 -0.37147,0.31013 -0.592,0.40972 -0.25844,0.11659 -0.53875,0.17681 -0.82228,0.17656 -0.55256,0 -1.05256,-0.224 -1.41428,-0.58628 C 124.224,131.05257 124,130.55257 124,130.00001 c 0,-0.29315 0.0634,-0.57144 0.17656,-0.82228 0.0994,-0.2205 0.23803,-0.42109 0.40916,-0.592 0.36228,-0.36228 0.86228,-0.58572 1.41428,-0.58572 0,0.55256 0.224,1.05256 0.58572,1.41372 0.36228,0.36228 0.86228,0.58628 1.41428,0.58628 z m 4,-2 h -4 v -4 c 0.40972,0 0.80456,0.0617 1.17656,0.17656 h 6e-4 c 1.26228,0.38744 2.25828,1.38344 2.64628,2.64572 0.1154,0.37257 0.17656,0.76803 0.17656,1.17772 z m 0,0 v 2 c 0,0.55256 -0.224,1.05256 -0.58572,1.41372 -0.36228,0.36228 -0.86228,0.58628 -1.41428,0.58628 -0.28353,2.5e-4 -0.56384,-0.06 -0.82228,-0.17656 -0.22034,-0.0999 -0.42091,-0.23866 -0.592,-0.40972 C 128.224,131.05257 128,130.55257 128,130.00001 v -2 z"
   style="fill:#099250;fill-rule:nonzero;stroke-width:0.03125"
   id="path2" />
    </g>
</svg>
