<?xml version="1.0" encoding="UTF-8" standalone="no"?>
<svg
   width="15.999989"
   height="24.620243"
   viewBox="0 0 15.999989 24.620243"
   version="1.1"
   xml:space="preserve"
   style="clip-rule:evenodd;fill-rule:evenodd;stroke-linejoin:round;stroke-miterlimit:2"
   id="svg1"
   xmlns="http://www.w3.org/2000/svg"
   xmlns:svg="http://www.w3.org/2000/svg"><defs
   id="defs1" />
    <g
   transform="matrix(4.36557,0,0,4.36557,-1408.992,-1890.4739)"
   id="g1">
        <path
   d="m 324.4212,438.10989 c -0.48235,-0.018 -0.86048,-0.13129 -1.13433,-0.3398 -0.27387,-0.20847 -0.45251,-0.52122 -0.53589,-0.93823 l 0.77086,-0.14875 c 0.0473,0.25921 0.14313,0.45081 0.28739,0.57477 0.14426,0.12397 0.34826,0.19723 0.61197,0.21976 v -1.44033 c -0.10142,-0.0248 -0.2085,-0.0535 -0.32119,-0.0862 -0.11272,-0.0327 -0.21978,-0.0676 -0.32119,-0.10481 -0.10144,-0.0372 -0.18485,-0.0749 -0.25022,-0.11326 -0.20059,-0.11495 -0.35105,-0.25698 -0.45136,-0.42602 -0.10031,-0.16905 -0.15046,-0.37868 -0.15046,-0.62887 0,-0.3674 0.12791,-0.65198 0.38375,-0.85372 0.25584,-0.20175 0.62606,-0.31275 1.11067,-0.33302 v -0.4497 h 0.38546 v 0.4497 c 0.2795,0.0135 0.51728,0.0575 0.71338,0.13185 0.19611,0.0744 0.35783,0.19328 0.48518,0.3567 0.12736,0.16342 0.22598,0.38375 0.29585,0.66099 l -0.79116,0.1251 c -0.0383,-0.20061 -0.11271,-0.35612 -0.22316,-0.46658 -0.11043,-0.11045 -0.27049,-0.17806 -0.48009,-0.20287 v 1.29495 c 0.10141,0.0203 0.21073,0.0462 0.32794,0.0778 0.11721,0.0316 0.2457,0.0721 0.38544,0.12173 0.30654,0.11043 0.53252,0.26428 0.67791,0.4615 0.14539,0.19723 0.21807,0.44687 0.21807,0.7489 0,0.39671 -0.13692,0.7072 -0.4108,0.93149 -0.27385,0.22428 -0.67339,0.34769 -1.19856,0.37022 v 0.57816 h -0.38546 z m -0.71002,-3.44529 c 0,0.11272 0.0214,0.20514 0.0642,0.27727 0.0473,0.0856 0.11889,0.15327 0.2147,0.20285 0.0958,0.0496 0.23949,0.1037 0.43107,0.16229 v -1.22394 c -0.47334,0.0315 -0.71002,0.22541 -0.71002,0.58153 z m 1.92383,2.15036 c 0,-0.12396 -0.0231,-0.2254 -0.0693,-0.30429 -0.0462,-0.0789 -0.11326,-0.14425 -0.20116,-0.19612 -0.0902,-0.0496 -0.27614,-0.11382 -0.55787,-0.1927 v 1.35579 c 0.27272,-0.018 0.47896,-0.0828 0.61872,-0.19442 0.13974,-0.11156 0.20963,-0.26764 0.20963,-0.46826 z"
   style="fill:#003f20;fill-rule:nonzero;stroke-width:0.024043"
   id="path1" />
    </g>
</svg>
