<?xml version="1.0" encoding="UTF-8" standalone="no"?>
<svg
   width="15.9996"
   height="16"
   viewBox="0 0 15.9996 16"
   version="1.1"
   xml:space="preserve"
   style="clip-rule:evenodd;fill-rule:evenodd;stroke-linejoin:round;stroke-miterlimit:2"
   id="svg2"
   xmlns="http://www.w3.org/2000/svg"
   xmlns:svg="http://www.w3.org/2000/svg"><defs
   id="defs2" />
    <g
   transform="matrix(0.512,0,0,0.512,-504.0004,-504)"
   id="g1">
        <path
   d="m 1008.9748,1010.5216 c 0.3344,0.3343 0.5021,0.8014 0.4569,1.272 -0.045,0.4706 -0.2986,0.8972 -0.6903,1.1617 -2.4977,1.6838 -5.5053,2.6697 -8.7414,2.6697 -3.23614,0 -6.24381,-0.9859 -8.73872,-2.6736 -0.39064,-0.2637 -0.64337,-0.6891 -0.68836,-1.1583 -0.045,-0.4692 0.12222,-0.9348 0.45556,-1.2681 -0.003,0 -0.003,0 -0.003,0 0.69974,-0.6997 1.7888,-0.8262 2.63035,-0.3056 1.84031,1.1523 4.01548,1.8154 6.34427,1.8154 2.3289,0 4.5041,-0.6631 6.3472,-1.8109 0.8394,-0.5192 1.9256,-0.393 2.6236,0.305 0,0 0,0 0,0 z m 1.5468,-19.49643 c 0.3343,-0.33433 0.8014,-0.50208 1.272,-0.45694 0.4706,0.0451 0.8972,0.2986 1.1617,0.69041 1.6838,2.49755 2.6697,5.50522 2.6697,8.74136 0,3.2361 -0.9859,6.2437 -2.6736,8.7387 -0.2637,0.3907 -0.6891,0.6433 -1.1583,0.6883 -0.4692,0.045 -0.9348,-0.1222 -1.2681,-0.4554 0,0 0,0 0,0 -0.6997,-0.6997 -0.8262,-1.7889 -0.3056,-2.6303 1.1523,-1.8403 1.8154,-4.0155 1.8154,-6.3444 0,-2.32883 -0.6631,-4.504 -1.8109,-6.34717 -0.5192,-0.83941 -0.393,-1.92567 0.305,-2.62358 0,-0.004 0,-0.004 0,-0.004 z m -23.47308,0.23611 c 0.29353,-0.43453 0.7849,-0.69558 1.30929,-0.69558 0.41889,0 0.82105,0.16658 1.11725,0.46278 0.003,-0.003 0.003,-0.003 0.004,-0.003 0.69967,0.69974 0.82625,1.7888 0.30571,2.63035 -1.15243,1.84031 -1.81552,4.01548 -1.81552,6.34427 0,2.3289 0.66309,4.5041 1.81091,6.3472 0.5192,0.8394 0.39292,1.9256 -0.305,2.6236 0.004,0 0.004,0 0.004,0 -0.33432,0.3344 -0.80129,0.5021 -1.27191,0.4569 -0.47063,-0.045 -0.8972,-0.2986 -1.16186,-0.6903 -1.68367,-2.4977 -2.66961,-5.5053 -2.66961,-8.74136 0,-3.23614 0.98594,-6.24381 2.67352,-8.73872 z M 1000,990.15625 c 5.433,0 9.8437,4.41084 9.8437,9.84375 0,5.433 -4.4107,9.8437 -9.8437,9.8437 -5.43291,0 -9.84375,-4.4107 -9.84375,-9.8437 0,-5.43291 4.41084,-9.84375 9.84375,-9.84375 z m -8.97483,-0.67787 c -0.29709,-0.29708 -0.46419,-0.70044 -0.46419,-1.1206 0,-0.52594 0.26183,-1.01876 0.69766,-1.31317 2.49755,-1.68367 5.50522,-2.66961 8.74136,-2.66961 3.2361,0 6.2437,0.98594 8.7387,2.67352 0.3907,0.26389 0.6433,0.68918 0.6883,1.1584 0.045,0.46922 -0.1222,0.93481 -0.4554,1.26814 0,0.003 0,0.003 0,0.004 -0.6997,0.69967 -1.7889,0.82625 -2.6303,0.30571 -1.8403,-1.15243 -4.0155,-1.81552 -6.3444,-1.81552 -2.32883,0 -4.504,0.66309 -6.34717,1.81091 -0.83941,0.5192 -1.92567,0.39292 -2.62358,-0.305 -0.004,0.004 -0.004,0.004 -0.004,0.004 z"
   style="fill:#208e7a;stroke-width:0.015625"
   id="path1" />
    </g>
    <g
   transform="matrix(0.512,0,0,0.512,-501.8684,-509.332)"
   id="g2">
        <path
   d="m 1000.1979,1012.7252 c 0,-2.2785 -1.36721,-3.0598 -4.10159,-3.3853 -1.95312,-0.2604 -2.34375,-0.7812 -2.34375,-1.6928 0,-0.9115 0.6511,-1.4973 1.95313,-1.4973 1.17187,0 1.82297,0.3906 2.14844,1.3672 0.0651,0.1953 0.26046,0.3254 0.45578,0.3254 h 1.04156 c 0.26047,0 0.45578,-0.1953 0.45578,-0.4556 v -0.065 c -0.26047,-1.4324 -1.43234,-2.5391 -2.92969,-2.6693 v -1.5625 c 0,-0.2604 -0.19531,-0.4557 -0.52078,-0.5209 h -0.97656 c -0.26047,0 -0.45578,0.1953 -0.52094,0.5209 v 1.4974 c -1.95312,0.2604 -3.19,1.5625 -3.19,3.1901 0,2.1485 1.30203,2.9947 4.03641,3.3203 1.82297,0.3255 2.4089,0.7161 2.4089,1.7579 0,1.0417 -0.91156,1.7578 -2.14843,1.7578 -1.69282,0 -2.27875,-0.7163 -2.47407,-1.6928 -0.065,-0.2604 -0.26031,-0.3907 -0.45562,-0.3907 h -1.10688 c -0.26031,0 -0.45562,0.1953 -0.45562,0.4558 v 0.065 c 0.26031,1.6275 1.30203,2.7993 3.45047,3.125 v 1.5625 c 0,0.2603 0.19531,0.4556 0.52078,0.5208 h 0.97656 c 0.26047,0 0.45578,-0.1954 0.52094,-0.5208 v -1.5625 c 1.95312,-0.3257 3.25518,-1.6928 3.25518,-3.4507 z"
   style="fill:#ffffff;fill-rule:nonzero;stroke-width:0.015625"
   id="path2" />
    </g>
</svg>
