<?xml version="1.0" encoding="UTF-8" standalone="no"?>
<svg
   width="16.000105"
   height="21.17816"
   viewBox="0 0 16.000105 21.17816"
   version="1.1"
   xml:space="preserve"
   style="clip-rule:evenodd;fill-rule:evenodd;stroke-linejoin:round;stroke-miterlimit:2"
   id="svg1"
   xmlns="http://www.w3.org/2000/svg"
   xmlns:svg="http://www.w3.org/2000/svg"><defs
   id="defs1" />
    <g
   transform="matrix(4.06892,0,0,4.06892,-496.14128,-501.41212)"
   id="g1">
        <path
   d="m 125.85639,125.32207 c 0.0818,-0.54687 -0.33459,-0.84086 -0.904,-1.03697 l 0.1847,-0.74081 -0.45098,-0.11238 -0.17981,0.72129 c -0.11856,-0.0296 -0.24033,-0.0574 -0.36133,-0.085 l 0.18112,-0.72604 -0.45073,-0.11238 -0.18482,0.74056 c -0.0982,-0.0224 -0.19447,-0.0445 -0.28799,-0.0677 l 5.2e-4,-0.002 -0.62194,-0.15529 -0.11995,0.48162 c 0,0 0.33461,0.0767 0.32752,0.0814 0.18267,0.0456 0.21567,0.16646 0.21015,0.26227 l -0.2104,0.84394 c 0.0126,0.003 0.0289,0.008 0.0469,0.015 -0.015,-0.004 -0.0311,-0.008 -0.0477,-0.0118 l -0.2949,1.18222 c -0.0224,0.0555 -0.079,0.13871 -0.20668,0.10711 0.004,0.007 -0.32778,-0.0818 -0.32778,-0.0818 l -0.2239,0.51618 0.58686,0.14628 c 0.10919,0.0274 0.21619,0.056 0.32152,0.083 l -0.18664,0.74927 0.45046,0.1124 0.18484,-0.74133 c 0.11944,0.0324 0.23925,0.0635 0.35938,0.0933 l -0.18418,0.73785 0.45097,0.11238 0.18662,-0.74786 c 0.76902,0.1455 1.34728,0.0868 1.59068,-0.60864 0.19614,-0.55998 -0.01,-0.88299 -0.41437,-1.09362 0.29466,-0.0679 0.51662,-0.26175 0.57583,-0.66205 z m -1.0304,1.44472 c -0.13936,0.55998 -1.08228,0.25726 -1.38797,0.18134 l 0.24764,-0.99265 c 0.3057,0.0763 1.286,0.22734 1.14033,0.81131 z m 0.13949,-1.45283 c -0.12716,0.50937 -0.91196,0.25058 -1.16653,0.18714 l 0.22452,-0.90032 c 0.25458,0.0635 1.07445,0.18186 0.94201,0.71318 z"
   style="fill-rule:nonzero;stroke-width:0.0206803"
   id="path1" />
    </g>
</svg>
