<svg xmlns="http://www.w3.org/2000/svg" width="16" height="16" fill="none"><g clip-path="url(#a)"><g clip-path="url(#b)"><path fill="#000" d="M14.758 4.464a6.116 6.116 0 0 0-2.614-2.362c-1.122-.563-2.42-.852-3.88-.852H2.14v5.593H.312v2.09H2.14v5.817h6.125c1.458 0 2.757-.273 3.88-.836 1.122-.562 1.987-1.35 2.613-2.362.625-1.013.93-2.202.93-3.552s-.305-2.523-.93-3.536Zm-3.431 6.606c-.802.739-1.876 1.125-3.223 1.125H5.266V8.932h3.367v-2.09H5.266v-3.02h2.838c1.347 0 2.421.37 3.223 1.124.801.756 1.202 1.768 1.202 3.054 0 1.286-.4 2.314-1.202 3.07Z"/></g></g><defs><clipPath id="a"><path fill="#fff" d="M0 0h16v16H0z"/></clipPath><clipPath id="b"><path fill="#fff" d="M0 0h15.375v13.5H0z" transform="translate(.313 1.25)"/></clipPath></defs></svg>