<?xml version="1.0" encoding="UTF-8" standalone="no"?>
<svg
   width="15.99912"
   height="15.999699"
   viewBox="0 0 15.99912 15.999699"
   version="1.1"
   xml:space="preserve"
   style="clip-rule:evenodd;fill-rule:evenodd;stroke-linejoin:round;stroke-miterlimit:2"
   id="svg5"
   xmlns="http://www.w3.org/2000/svg"
   xmlns:svg="http://www.w3.org/2000/svg"><defs
   id="defs5" />
    <g
   transform="matrix(4,0,0,4,8.0035593,8.00264)"
   id="g5">
        <g
   transform="translate(-128,-128)"
   id="g4">
            <g
   id="g3">
                <clipPath
   id="_clip1">
                    <rect
   x="0"
   y="0"
   width="256"
   height="256"
   id="rect1" />
                </clipPath>
                <g
   clip-path="url(#_clip1)"
   id="g2">
                    <g
   id="g1">
                        <path
   d="m 129.97245,127.78972 c -0.006,-0.0825 -0.0437,-0.15945 -0.10584,-0.21397 -0.0621,-0.0545 -0.14331,-0.0821 -0.22572,-0.0767 h -0.0121 c -0.0782,0.009 -0.1499,0.0479 -0.19989,0.10872 -0.05,0.0609 -0.0745,0.13883 -0.0683,0.21737 v 0.0122 c 0.0147,0.1082 0.0147,0.21787 0,0.32607 v 0.0122 c -0.0183,0.12203 -0.0515,0.24137 -0.0987,0.35537 -0.0938,0.2224 -0.2442,0.41642 -0.4362,0.56271 -0.19186,0.14617 -0.41872,0.23955 -0.65789,0.27075 -0.23909,0.0311 -0.48223,-9.5e-4 -0.70504,-0.0931 -0.22298,-0.0922 -0.41798,-0.24124 -0.56549,-0.43219 -0.14761,-0.19109 -0.24273,-0.41751 -0.27586,-0.65669 -0.0331,-0.23924 -0.003,-0.48302 0.0869,-0.70711 0.09,-0.22398 0.237,-0.42056 0.42644,-0.57013 0.18931,-0.14947 0.41452,-0.24672 0.65313,-0.28203 0.16216,-0.0221 0.32679,-0.0179 0.48764,0.0122 0.0958,0.014 0.18228,0.0654 0.24024,0.14296 0.058,0.0776 0.083,0.17513 0.0694,0.27109 -0.02,0.0841 -0.0719,0.15724 -0.14464,0.20396 -0.0727,0.0467 -0.16068,0.0633 -0.24537,0.0464 h -0.0123 c -0.0267,-0.007 -0.0541,-0.0103 -0.0817,-0.011 h -0.011 c -0.0445,-0.005 -0.0894,-0.007 -0.13417,-0.006 -0.13391,0.008 -0.26303,0.0528 -0.37264,0.13008 -0.10973,0.0774 -0.19568,0.18387 -0.24811,0.30748 -0.0525,0.1237 -0.0694,0.25962 -0.0488,0.3924 0.0206,0.13273 0.0778,0.25711 0.16525,0.35906 0.0874,0.10189 0.20155,0.17733 0.32954,0.21773 0.12792,0.0403 0.26463,0.044 0.39455,0.0107 0.12996,-0.0334 0.24801,-0.10249 0.34073,-0.19948 0.0928,-0.0971 0.1567,-0.21815 0.1844,-0.34957 l 0.017,-0.10502 c 0.005,-0.0581 0.007,-0.11639 0.006,-0.17467 -1.7e-4,-0.22545 0.0811,-0.44356 0.2287,-0.61394 0.14745,-0.17024 0.35167,-0.28149 0.57467,-0.31305 h 0.0182 c 0.0384,-0.005 0.0771,-0.007 0.11584,-0.006 h 0.0293 c -0.18029,-0.28695 -0.43031,-0.52365 -0.7267,-0.68796 -0.2962,-0.16417 -0.62924,-0.25061 -0.96789,-0.25122 -0.53408,0.009 -1.04363,0.2282 -1.41697,0.6102 -0.37383,0.38242 -0.58229,0.89715 -0.57993,1.43191 0.0113,0.45349 0.17571,0.8901 0.46644,1.23833 0.29038,0.3479 0.69037,0.5872 1.13423,0.67852 0.44371,0.0912 0.9055,0.0291 1.30934,-0.17609 0.40416,-0.20543 0.72698,-0.54193 0.91551,-0.95424 l 0.006,-0.011 c 0.0933,-0.21676 0.15016,-0.44748 0.16824,-0.68277 -0.004,-0.12823 -0.0159,-0.23325 -0.0269,-0.34439 z"
   style="fill:#ef4800;fill-rule:nonzero;stroke-width:0.0156248"
   id="path1" />
                    </g>
                </g>
            </g>
        </g>
    </g>
</svg>
