<?xml version="1.0" encoding="UTF-8" standalone="no"?>
<svg
   width="15.999239"
   height="15.999819"
   viewBox="0 0 15.999239 15.999819"
   version="1.1"
   xml:space="preserve"
   style="clip-rule:evenodd;fill-rule:evenodd;stroke-linejoin:round;stroke-miterlimit:2"
   id="svg1"
   xmlns="http://www.w3.org/2000/svg"
   xmlns:svg="http://www.w3.org/2000/svg"><defs
   id="defs1" />
    <g
   transform="matrix(3.99999,0,0,3.99999,-503.99514,-503.99606)"
   id="g1">
        <path
   d="m 129.97247,127.78972 c -0.006,-0.0825 -0.0437,-0.15945 -0.10584,-0.21397 -0.0621,-0.0545 -0.14332,-0.0821 -0.22572,-0.0767 h -0.0121 c -0.0782,0.009 -0.14991,0.0479 -0.19989,0.10872 -0.05,0.0609 -0.0745,0.13882 -0.0683,0.21737 v 0.0122 c 0.0147,0.1082 0.0147,0.21787 0,0.32607 v 0.0122 c -0.0183,0.12203 -0.0515,0.24137 -0.0987,0.35537 -0.0938,0.22241 -0.2442,0.41642 -0.4362,0.56272 -0.19186,0.14617 -0.41872,0.23955 -0.65789,0.27075 -0.2391,0.0312 -0.48224,-9.5e-4 -0.70505,-0.0931 -0.22299,-0.0922 -0.41799,-0.24124 -0.5655,-0.43219 -0.14761,-0.19109 -0.24274,-0.41752 -0.27586,-0.6567 -0.0331,-0.23924 -0.003,-0.48302 0.0869,-0.70711 0.09,-0.22399 0.237,-0.42056 0.42644,-0.57014 0.18931,-0.14947 0.41453,-0.24672 0.65314,-0.28203 0.16216,-0.0221 0.3268,-0.0179 0.48764,0.0122 0.0958,0.014 0.18228,0.0654 0.24025,0.14295 0.058,0.0776 0.083,0.17514 0.0694,0.2711 -0.02,0.0841 -0.0719,0.15725 -0.14464,0.20397 -0.0727,0.0466 -0.16069,0.0633 -0.24538,0.0464 h -0.0123 c -0.0267,-0.007 -0.0541,-0.0103 -0.0817,-0.011 h -0.011 c -0.0445,-0.005 -0.0894,-0.007 -0.13417,-0.006 -0.13391,0.008 -0.26303,0.0528 -0.37264,0.13008 -0.10974,0.0774 -0.19569,0.18388 -0.24811,0.30749 -0.0525,0.1237 -0.0694,0.25962 -0.0488,0.3924 0.0206,0.13274 0.0778,0.25711 0.16525,0.35907 0.0874,0.10189 0.20154,0.17732 0.32954,0.21773 0.12792,0.0403 0.26463,0.044 0.39455,0.0107 0.12997,-0.0334 0.24801,-0.1025 0.34073,-0.19948 0.0928,-0.0971 0.15671,-0.21816 0.18441,-0.34958 l 0.017,-0.10502 c 0.005,-0.0581 0.007,-0.11639 0.006,-0.17467 -1.7e-4,-0.22545 0.0811,-0.44356 0.2287,-0.61395 0.14745,-0.17024 0.35167,-0.28149 0.57467,-0.31305 h 0.0182 c 0.0384,-0.005 0.0771,-0.007 0.11585,-0.006 h 0.0293 c -0.1803,-0.28695 -0.43032,-0.52366 -0.72671,-0.68797 -0.2962,-0.16417 -0.62925,-0.25061 -0.9679,-0.25122 -0.53408,0.009 -1.04364,0.22821 -1.41699,0.61021 -0.37382,0.38242 -0.58229,0.89715 -0.57993,1.43192 0.0113,0.4535 0.17571,0.89011 0.46645,1.23834 0.29037,0.34791 0.69037,0.58721 1.13423,0.67853 0.44372,0.0912 0.90552,0.0291 1.30936,-0.17609 0.40416,-0.20544 0.72699,-0.54194 0.91552,-0.95425 l 0.006,-0.011 c 0.0933,-0.21676 0.15016,-0.44748 0.16824,-0.68278 -0.004,-0.12823 -0.0159,-0.23325 -0.0269,-0.34439 z"
   style="fill:#46b549;fill-rule:nonzero;stroke-width:0.015625"
   id="path1" />
    </g>
</svg>
