<?xml version="1.0" encoding="UTF-8" standalone="no"?>
<svg
   width="144.00133"
   height="144.00002"
   viewBox="0 0 144.00133 144.00002"
   version="1.1"
   xml:space="preserve"
   style="clip-rule:evenodd;fill-rule:evenodd;stroke-linejoin:round;stroke-miterlimit:2"
   id="svg2"
   xmlns="http://www.w3.org/2000/svg"
   xmlns:svg="http://www.w3.org/2000/svg"><defs
   id="defs2" />
    <g
   transform="matrix(4,0,0,4,-440,-440.00004)"
   id="g1">
        <path
   d="m 122.7028,110.79454 c 1.674,-0.51679 3.456,-0.79453 5.2972,-0.79453 v 18 h -18 c 0,-1.84626 0.27773,-3.6232 0.79453,-5.29973 1.746,-5.68027 6.228,-10.16227 11.90827,-11.90574 z"
   style="fill:#a2c4b8;fill-rule:nonzero;stroke-width:0.140625"
   id="path1" />
    </g>
    <g
   transform="matrix(4,0,0,4,-440,-440.00004)"
   id="g2">
        <path
   d="m 128,137.00001 c 0,2.48653 -1.008,4.73653 -2.63573,6.36174 -0.76894,0.7709 -1.67161,1.39556 -2.664,1.84373 -1.16297,0.52467 -2.42438,0.79566 -3.70027,0.79453 -2.48653,0 -4.73653,-1.008 -6.36427,-2.63826 C 111.008,141.73654 110,139.48654 110,137.00001 c 0,-1.3192 0.28547,-2.57147 0.79453,-3.70026 0.44719,-0.99225 1.07114,-1.89493 1.8412,-2.664 1.63027,-1.63027 3.88027,-2.63574 6.36427,-2.63574 0,2.48653 1.008,4.73653 2.63573,6.36174 1.63027,1.63026 3.88027,2.63826 6.36427,2.63826 z m 18,-9 h -18 v -18 c 1.84373,0 3.62053,0.27774 5.29453,0.79453 h 0.003 c 5.68027,1.74347 10.16227,6.22547 11.90827,11.90574 0.51933,1.67653 0.79453,3.45614 0.79453,5.29973 z m 0,0 v 9 c 0,2.48653 -1.008,4.73653 -2.63573,6.36174 -1.63027,1.63026 -3.88027,2.63826 -6.36427,2.63826 -1.27589,0.001 -2.5373,-0.26986 -3.70027,-0.79453 -0.99154,-0.44944 -1.89407,-1.07395 -2.664,-1.84373 C 129.008,141.73654 128,139.48654 128,137.00001 v -9 z"
   style="fill:#099250;fill-rule:nonzero;stroke-width:0.140625"
   id="path2" />
    </g>
</svg>
