<?xml version="1.0" encoding="UTF-8" standalone="no"?>
<svg
   width="72.000038"
   height="68.343391"
   viewBox="0 0 72.000038 68.343391"
   version="1.1"
   xml:space="preserve"
   style="clip-rule:evenodd;fill-rule:evenodd;stroke-linejoin:round;stroke-miterlimit:2"
   id="svg1"
   xmlns="http://www.w3.org/2000/svg"
   xmlns:svg="http://www.w3.org/2000/svg"><defs
   id="defs1" />
    <g
   transform="matrix(3.99998,0,0,3.99998,-475.9993,-475.8257)"
   id="g1">
        <path
   d="m 135.37322,127.01977 c 0.0284,-0.0423 0.0553,-0.0853 0.0823,-0.12902 0.50126,-0.81092 0.74763,-1.75233 0.74763,-2.70352 v -0.0501 c 0,-1.02389 -0.28687,-2.03295 -0.86048,-2.88338 -0.85057,-1.26154 -2.23932,-2.13447 -3.84026,-2.29668 h -5.07706 c -0.19307,-5e-4 -0.37863,0.0759 -0.51539,0.21227 -0.13682,0.13507 -0.21389,0.31957 -0.21375,0.51187 v 2.3052 c 0,0.20025 0.0816,0.38152 0.21375,0.51195 0.13676,0.13633 0.32232,0.21276 0.51539,0.21227 h 4.5751 c 0.78518,0 1.42137,0.63323 1.42137,1.41173 v 0.0747 c 0,0.7799 -0.63619,1.41173 -1.42137,1.41173 h -7.49095 c -0.19308,3.5e-4 -0.37864,-0.0761 -0.51547,-0.21234 -0.13668,-0.13514 -0.21375,-0.31964 -0.21375,-0.51188 v -5.20334 c 0,-0.20032 -0.0816,-0.38151 -0.21368,-0.51194 -0.13675,-0.1362 -0.32224,-0.21263 -0.51532,-0.21227 h -2.32171 c -0.40254,0 -0.72915,0.32435 -0.72915,0.72421 v 15.6375 c 0,0.19885 0.0816,0.38082 0.21375,0.51195 0.13669,0.13634 0.32232,0.21277 0.5154,0.21227 h 2.32101 c 0.20159,0 0.38334,-0.0811 0.51539,-0.21227 0.13676,-0.13514 0.21375,-0.31964 0.21375,-0.51195 v -5.20333 c 0,-0.3998 0.32653,-0.72422 0.72914,-0.72422 h 7.45474 c 0.12354,0 0.2442,-0.006 0.36493,-0.0134 h 0.47137 c 0.78385,0 1.42137,0.63183 1.42137,1.41174 v 0.0733 c 0,0.77991 -0.63752,1.41174 -1.42137,1.41174 h -5.34965 c -0.008,-0.001 -0.017,-0.001 -0.0248,-0.001 -0.008,0 -0.017,0 -0.0249,0.001 -0.1845,0.005 -0.36021,0.0808 -0.49057,0.2115 -0.13689,0.13535 -0.21389,0.32013 -0.21375,0.51264 v 2.31996 c 0,0.19885 0.0817,0.38082 0.21375,0.51195 0.13676,0.13641 0.32232,0.21284 0.51546,0.21227 h 5.70818 c 1.49098,-0.10293 2.81152,-0.82293 3.70322,-1.90462 0.76683,-0.92939 1.16368,-2.10628 1.16368,-3.30792 v -0.01 c 0,-1.17126 -0.37632,-2.31925 -1.10827,-3.2374 -0.15961,-0.2001 -0.33356,-0.3884 -0.52038,-0.56341 h 0.001 z"
   style="fill:#000030;fill-rule:nonzero;stroke-width:0.0703125"
   id="path1" />
    </g>
</svg>
