<?xml version="1.0" encoding="UTF-8" standalone="no"?>
<svg
   width="71.999992"
   height="72"
   viewBox="0 0 71.999992 72"
   version="1.1"
   xml:space="preserve"
   style="clip-rule:evenodd;fill-rule:evenodd;stroke-linejoin:round;stroke-miterlimit:2"
   id="svg2"
   xmlns="http://www.w3.org/2000/svg"
   xmlns:svg="http://www.w3.org/2000/svg"><defs
   id="defs2" />
    <g
   transform="matrix(0.512,0,0,0.512,-476.00001,-476)"
   id="g1">
        <path
   d="m 1040.3868,1047.347 c 1.5047,1.5047 2.2591,3.6064 2.0559,5.7242 -0.2025,2.1178 -1.3436,4.0373 -3.1064,5.2277 -11.2394,7.5769 -24.7739,12.0136 -39.3363,12.0136 -14.56263,0 -28.09716,-4.4367 -39.32423,-12.0312 -1.75789,-1.1868 -2.89519,-3.1008 -3.09762,-5.2122 -0.20264,-2.1115 0.54998,-4.2068 2.05003,-5.7066 -0.0146,-0.015 -0.0143,-0.015 -0.0141,-0.016 3.1488,-3.1486 8.04958,-3.7181 11.83654,-1.3753 8.28141,5.1856 18.06968,8.1696 28.54938,8.1696 10.4801,0 20.2683,-2.984 28.5623,-8.1492 3.7772,-2.3365 8.6654,-1.7684 11.8062,1.3725 0.018,-0.017 0.018,-0.017 0.018,-0.017 z m 6.9602,-87.73373 c 1.5047,-1.50447 3.6064,-2.25935 5.7242,-2.05622 2.1178,0.203 4.0373,1.34368 5.2277,3.10683 7.5769,11.23896 12.0136,24.77349 12.0136,39.33612 0,14.5624 -4.4367,28.0969 -12.0312,39.3244 -1.1868,1.7578 -3.1008,2.8947 -5.2122,3.0972 -2.1115,0.2032 -4.2068,-0.5498 -5.7066,-2.0496 -0.015,0.014 -0.015,0.014 -0.016,0.014 -3.1486,-3.1486 -3.7181,-8.0501 -1.3753,-11.8364 5.1856,-8.2814 8.1696,-18.0696 8.1696,-28.5497 0,-10.47973 -2.984,-20.268 -8.1492,-28.56227 -2.3365,-3.77733 -1.7684,-8.66553 1.3725,-11.80611 -0.017,-0.0178 -0.017,-0.0181 -0.017,-0.0183 z m -105.62868,1.0625 c 1.32089,-1.9554 3.53208,-3.13011 5.89184,-3.13011 1.885,0 3.69471,0.74961 5.02762,2.08252 0.0152,-0.0146 0.0155,-0.0143 0.0158,-0.0141 3.14852,3.1488 3.71813,8.04958 1.37567,11.83654 -5.1859,8.28141 -8.16983,18.06968 -8.16983,28.54938 0,10.4801 2.98393,20.2683 8.14908,28.5623 2.33642,3.7772 1.76815,8.6654 -1.3725,11.8062 0.0173,0.018 0.017,0.018 0.0167,0.018 -1.50441,1.5047 -3.60577,2.2591 -5.72358,2.0559 -2.11781,-0.2032 -4.03741,-1.3436 -5.22837,-3.1064 -7.57652,-11.2394 -12.01324,-24.7739 -12.01324,-39.33627 0,-14.56263 4.43672,-28.09716 12.03082,-39.32423 z M 1000,955.70312 c 24.4484,0 44.2969,19.8488 44.2969,44.29688 0,24.4484 -19.8485,44.2969 -44.2969,44.2969 -24.44808,0 -44.29688,-19.8485 -44.29688,-44.2969 0,-24.44808 19.8488,-44.29688 44.29688,-44.29688 z m -40.38673,-3.05043 c -1.33692,-1.33685 -2.08884,-3.15197 -2.08884,-5.04267 0,-2.36672 1.17823,-4.58445 3.13945,-5.90928 11.23896,-7.57652 24.77349,-12.01324 39.33612,-12.01324 14.5624,0 28.0969,4.43672 39.3244,12.03082 1.7578,1.18751 2.8947,3.10134 3.0972,5.21283 0.2025,2.11148 -0.5498,4.20665 -2.0496,5.70663 0.014,0.0152 0.014,0.0155 0.014,0.0158 -3.1486,3.14852 -8.0501,3.71813 -11.8364,1.37567 -8.2814,-5.1859 -18.0696,-8.16983 -28.5497,-8.16983 -10.47973,0 -20.268,2.98393 -28.56227,8.14908 -3.77733,2.33642 -8.66553,1.76815 -11.80611,-1.3725 -0.0178,0.0173 -0.0181,0.017 -0.0183,0.0167 z"
   style="fill:#208e7a;stroke-width:0.0703125"
   id="path1" />
    </g>
    <g
   transform="matrix(4,0,0,4,-476.00001,-476)"
   id="g2">
        <path
   d="m 125.72286,129.58098 c -0.12551,0 -0.2288,0.10329 -0.2288,0.22879 v 0.6087 c 0,0.12551 0.10329,0.2288 0.2288,0.2288 h 1.67048 v 1.54455 c 0,0.12558 0.10329,0.22887 0.22887,0.22887 h 0.73456 c 0.12557,0 0.22886,-0.10329 0.22886,-0.22887 v -1.54455 h 1.69151 c 0.12551,0 0.2288,-0.10329 0.2288,-0.2288 v -0.6087 c 0,-0.1255 -0.10329,-0.22879 -0.2288,-0.22879 z m 4.55948,-0.75678 c 0.12558,0 0.22887,-0.10329 0.22887,-0.22886 v -0.59815 c 0,-0.12551 -0.10329,-0.2288 -0.2288,-0.2288 0,0 -7e-5,0 -7e-5,0 h -1.43353 l 1.93704,-3.42569 c 0.04,-0.0708 0.0394,-0.15779 -0.001,-0.22803 -0.041,-0.0702 -0.11643,-0.11348 -0.19771,-0.11348 h -0.84994 c -0.0825,0 -0.15877,0.0445 -0.19934,0.11629 l -1.54139,2.73003 -1.52233,-2.72897 c -0.0404,-0.0724 -0.117,-0.11735 -0.19983,-0.11735 h -0.86049 c -7e-5,0 -1.4e-4,0 -2.8e-4,0 -0.12543,0 -0.22872,0.10322 -0.22872,0.22872 0,0.0394 0.0102,0.078 0.0295,0.11236 l 1.92783,3.42612 h -1.41357 c -0.1255,0 -0.22879,0.10329 -0.22886,0.2288 v 0.59815 c 0,0.12557 0.10328,0.22886 0.22886,0.22886 z"
   style="fill:#ffffff;fill-rule:nonzero;stroke-width:0.0703125"
   id="path2" />
    </g>
</svg>
