<?xml version="1.0" encoding="UTF-8" standalone="no"?>
<svg
   width="72"
   height="86.943291"
   viewBox="0 0 72 86.943291"
   version="1.1"
   xml:space="preserve"
   style="clip-rule:evenodd;fill-rule:evenodd;stroke-linejoin:round;stroke-miterlimit:2"
   id="svg1"
   xmlns="http://www.w3.org/2000/svg"
   xmlns:svg="http://www.w3.org/2000/svg"><defs
   id="defs1" />
    <g
   transform="matrix(4,0,0,4,-388,-468.52776)"
   id="g1">
        <path
   d="m 115,121.47902 v -4.34708 h -9 v 4.34708 h 4.5 c -0.0183,1.17043 -0.50281,2.28643 -1.34525,3.09906 -0.84379,0.81501 -1.97847,1.26373 -3.15475,1.24786 v -4.34692 c -2.35206,-0.0299 -4.62006,0.86825 -6.307047,2.49793 -1.687076,1.62968 -2.655425,3.85777 -2.692953,6.19607 0.03753,2.33822 1.005962,4.56631 2.692953,6.19599 1.686987,1.62968 3.954987,2.52781 6.307047,2.49793 2.35265,0.0319 4.62184,-0.86562 6.30925,-2.49572 1.68742,-1.6301 2.65517,-3.85939 2.69075,-6.1982 h -4.5 c -0.008,0.57957 -0.1305,1.15183 -0.36093,1.68368 -0.23086,0.53261 -0.56471,1.01445 -0.98236,1.41767 -0.41842,0.40407 -0.91231,0.72195 -1.4535,0.93532 -0.54196,0.21379 -1.12067,0.31933 -1.70321,0.31042 -1.17628,0.0159 -2.31079,-0.43302 -3.1545,-1.24812 -0.84379,-0.81501 -1.32775,-1.92956 -1.3455,-3.09897 0.0178,-1.16949 0.50179,-2.28405 1.3455,-3.09905 0.84371,-0.81501 1.97813,-1.264 3.1545,-1.24803 v 4.34708 c 2.35206,0.0299 4.62006,-0.8685 6.30705,-2.49818 1.68699,-1.62959 2.65542,-3.8576 2.69295,-6.19582 z"
   style="fill:#ef6100;fill-rule:nonzero;stroke-width:0.0849057"
   id="path1" />
    </g>
</svg>
