<?xml version="1.0" encoding="UTF-8" standalone="no"?>
<svg
   width="72.005272"
   height="86.180489"
   viewBox="0 0 72.005272 86.180489"
   version="1.1"
   xml:space="preserve"
   style="clip-rule:evenodd;fill-rule:evenodd;stroke-linejoin:round;stroke-miterlimit:2"
   id="svg4"
   xmlns="http://www.w3.org/2000/svg"
   xmlns:svg="http://www.w3.org/2000/svg"><defs
   id="defs4" />
    <g
   transform="matrix(0.999959,0,0,0.999959,-404.87208,-468.84472)"
   id="g4">
        <g
   transform="matrix(3.9987,0,0,3.9987,-38.875,0.251891)"
   id="g1">
            <path
   d="m 128.78293,135.01356 c -0.0718,-0.0855 -0.15993,-0.15581 -0.2592,-0.20688 -0.0993,-0.0512 -0.20746,-0.0828 -0.31868,-0.0928 -0.22446,-0.0196 -0.44774,0.0512 -0.61987,0.19661 -0.0222,0.0182 -0.0444,0.0365 -0.0658,0.0547 -0.0159,0.0136 -0.0317,0.0262 -0.0476,0.0389 -0.2465,0.20073 -0.50343,0.38834 -0.7697,0.56207 l -0.0348,0.023 c -0.0587,0.038 -0.11736,0.0753 -0.17684,0.11097 -0.0142,0.009 -0.0269,0.0167 -0.0404,0.0246 -0.0135,0.008 -0.0262,0.0159 -0.0389,0.0238 l -0.023,0.0142 -0.0412,0.0247 c -0.0135,0.008 -0.0262,0.0158 -0.0396,0.023 -0.15724,0.0915 -0.31717,0.17818 -0.47962,0.25996 l -0.0404,0.0206 -0.0563,0.0286 -0.0738,0.0357 -0.006,0.003 c -0.0246,0.0119 -0.0491,0.0231 -0.0737,0.0349 l -0.0563,0.0262 -0.0364,0.0167 c -0.019,0.009 -0.0389,0.0174 -0.0579,0.0262 -0.0254,0.0111 -0.0516,0.023 -0.0777,0.0341 -0.0523,0.023 -0.10542,0.0452 -0.1585,0.0665 -0.0269,0.0111 -0.0539,0.0222 -0.0808,0.0326 -0.0516,0.0206 -0.10382,0.0412 -0.15614,0.061 h -0.002 c -0.0516,0.0198 -0.1039,0.0389 -0.15615,0.0571 l -0.0103,0.004 c -0.0246,0.009 -0.0491,0.0174 -0.0745,0.0262 -0.0262,0.009 -0.0523,0.0174 -0.0777,0.0269 l -0.0785,0.0253 c -0.007,0.003 -0.0147,0.005 -0.0222,0.007 l -0.0507,0.0159 -0.042,0.0135 c -0.0428,0.0135 -0.0848,0.0262 -0.12762,0.0389 l -0.0285,0.009 c -0.0175,0.005 -0.0349,0.0103 -0.0523,0.0151 l -0.0602,0.0166 -0.0484,0.0135 -0.0317,0.009 -0.0405,0.0103 c -0.0452,0.0119 -0.0911,0.0237 -0.13713,0.0348 -0.0111,0.003 -0.023,0.006 -0.0341,0.009 -0.0158,0.004 -0.0325,0.008 -0.0491,0.0119 l -0.0405,0.01 c -0.003,8.4e-4 -0.007,0.002 -0.0103,0.002 -0.0206,0.005 -0.0421,0.01 -0.0626,0.0143 -0.0381,0.009 -0.0761,0.0166 -0.115,0.0246 -0.0364,0.008 -0.0729,0.0151 -0.10861,0.0222 l -0.0888,0.0167 -0.0547,0.01 c -0.0183,0.003 -0.0325,0.006 -0.0491,0.009 l -0.0706,0.0119 -0.069,0.0111 -0.009,0.002 c -0.0286,0.004 -0.0563,0.009 -0.084,0.0126 -0.0278,0.004 -0.0547,0.008 -0.0808,0.0111 l -0.0174,0.002 -0.0666,0.009 h -0.005 c -0.019,0.002 -0.0372,0.005 -0.0554,0.007 l -0.0491,0.006 c -0.0484,0.006 -0.0975,0.0111 -0.14664,0.0158 h -0.0119 c -0.0158,0.003 -0.0325,0.005 -0.0484,0.006 l -0.042,0.004 c -0.0167,0.002 -0.0333,0.003 -0.05,0.004 l -0.0499,0.004 c -0.0658,0.005 -0.13242,0.009 -0.19821,0.0135 l -0.088,0.005 -0.0499,0.002 c -0.0127,8e-5 -0.0254,6.7e-4 -0.0381,0.002 l -0.0483,0.002 h -0.0492 c -0.0166,8.4e-4 -0.0332,0.002 -0.0499,0.002 h -0.0174 c -0.0278,0 -0.0555,7.6e-4 -0.0824,7.6e-4 h -0.17996 c -0.93795,-0.0111 -1.8685,-0.16725 -2.75867,-0.46296 -0.0317,-0.0111 -0.0642,-0.0214 -0.0959,-0.0325 -0.0158,-0.006 -0.0317,-0.0111 -0.0468,-0.0166 -0.0151,-0.006 -0.0317,-0.0111 -0.0468,-0.0167 -0.0255,-0.009 -0.0508,-0.0181 -0.076,-0.0278 l -0.0317,-0.0119 c -0.0285,-0.0103 -0.0571,-0.0214 -0.0848,-0.0317 l -0.0143,-0.006 c -0.0111,-0.004 -0.0222,-0.009 -0.0325,-0.0126 l -0.0111,-0.005 -0.009,-0.003 -0.019,-0.007 -0.0174,-0.007 h -0.004 l -0.008,-0.004 -0.0357,-0.0143 -0.0459,-0.019 c -0.0254,-0.0103 -0.0507,-0.0206 -0.0761,-0.0317 h -0.004 l -0.0507,-0.0222 -0.0594,-0.0262 c -1.59096,-0.70046 -2.94906,-1.84117 -3.91368,-3.28735 -0.007,-0.0103 -0.0141,-0.0209 -0.0205,-0.0317 -0.97396,-1.48185 -1.49506,-3.21601 -1.49901,-4.98928 v -0.13477 c 0,-0.0341 0.002,-0.0682 0.002,-0.10222 v -0.008 c 0.0276,-1.01249 0.22445,-2.01329 0.58259,-2.96076 0.0127,-0.0332 0.0254,-0.0658 0.0381,-0.0991 0.0111,-0.0293 0.023,-0.0586 0.0348,-0.0879 l 0.0246,-0.0595 c 0.0135,-0.0325 0.0269,-0.065 0.0412,-0.0976 0.0151,-0.0356 0.031,-0.0713 0.0468,-0.10693 8.5e-4,-0.002 0.002,-0.005 0.003,-0.007 0.001,-0.003 0.002,-0.006 0.004,-0.01 l 0.0333,-0.0737 c 0,0 0,-0.002 8.4e-4,-0.002 0.0103,-0.023 0.0205,-0.0453 0.0309,-0.0674 0.003,-0.006 0.006,-0.0135 0.009,-0.0199 l 0.005,-0.0111 c 0.005,-0.0111 0.0103,-0.0222 0.0158,-0.0325 0.003,-0.007 0.006,-0.0143 0.01,-0.0206 l 0.01,-0.0206 0.002,-0.005 0.006,-0.0126 c 0.0119,-0.0254 0.0246,-0.0507 0.0373,-0.0761 0.002,-0.004 0.004,-0.009 0.006,-0.0126 0.0167,-0.0334 0.0333,-0.0666 0.05,-0.0992 0.0119,-0.023 0.0238,-0.0468 0.0357,-0.0697 l 0.008,-0.0143 c 0,0 0,-0.002 8.4e-4,-0.002 0,0 0,-0.002 8.4e-4,-0.002 0.007,-0.0143 0.0142,-0.0269 0.0214,-0.0404 0.002,-0.005 0.006,-0.01 0.008,-0.0143 l 0.0158,-0.0293 c 0.005,-0.01 0.0104,-0.0191 0.0152,-0.0286 l 0.003,-0.006 0.006,-0.011 c 0.009,-0.0175 0.0182,-0.0342 0.0269,-0.0507 0.28284,-0.51176 0.61498,-0.99474 0.99171,-1.44197 0.006,-0.008 0.0135,-0.0158 0.019,-0.0238 0.13645,-0.17541 0.19879,-0.39751 0.17364,-0.61835 -0.0525,-0.4569 -0.4665,-0.79275 -0.92441,-0.74984 -0.22143,0.0209 -0.42603,0.12771 -0.56989,0.29731 -0.31708,0.37622 -0.60783,0.77373 -0.8704,1.18984 l -0.006,0.01 c -0.023,0.0364 -0.0452,0.0729 -0.0681,0.10853 -0.0119,0.0191 -0.023,0.0381 -0.0349,0.058 -0.34813,0.57578 -0.6414,1.18303 -0.87596,1.81366 -0.11719,0.31489 -0.21932,0.63526 -0.30597,0.95991 -0.002,0.006 -0.003,0.0112 -0.005,0.0175 -0.008,0.0286 -0.0152,0.0579 -0.023,0.0872 -0.002,0.008 -0.004,0.0158 -0.006,0.0246 -0.004,0.0151 -0.008,0.0309 -0.0119,0.0468 l -0.0119,0.0468 c -0.008,0.0309 -0.015,0.0618 -0.0221,0.0935 0,0.002 -0.002,0.006 -0.002,0.008 -7.6e-4,0.005 -0.002,0.009 -0.003,0.0135 v 0.003 c -0.005,0.0198 -0.01,0.0395 -0.0143,0.0586 -0.002,0.006 -0.002,0.0111 -0.004,0.0158 -0.3069,1.35473 -0.34863,2.75624 -0.12283,4.12687 0.002,0.0103 0.003,0.0214 0.006,0.0325 0.23279,1.39486 0.73899,2.73007 1.48951,3.92866 0.0126,0.0198 0.0253,0.0405 0.038,0.0602 l 0.0357,0.0555 c 0.0119,0.019 0.0238,0.0373 0.0357,0.0554 0.0174,0.027 0.0349,0.0532 0.0523,0.0801 0.0103,0.0158 0.0206,0.0309 0.0309,0.0459 0.004,0.006 0.009,0.0127 0.0127,0.0191 0.0174,0.0262 0.0357,0.0523 0.0538,0.0784 0.004,0.006 0.008,0.0111 0.0112,0.0167 0.002,0.003 0.004,0.006 0.006,0.009 l 0.006,0.009 c 0.0397,0.0578 0.0802,0.11517 0.12131,0.17196 0.0222,0.031 0.0452,0.0627 0.0682,0.0935 0.019,0.0262 0.038,0.0516 0.0564,0.0769 0.009,0.0119 0.0173,0.0238 0.0269,0.0357 l 0.0452,0.0595 c 0.01,0.0119 0.0182,0.0246 0.0285,0.0364 0.0143,0.019 0.0293,0.0373 0.0436,0.0563 0.008,0.0103 0.0158,0.0206 0.0238,0.0301 0.0158,0.0206 0.0325,0.0405 0.0484,0.0611 0.0103,0.0127 0.0198,0.0253 0.0301,0.0373 0.0143,0.0174 0.0285,0.0357 0.0436,0.0531 0.0103,0.0127 0.0206,0.0246 0.0309,0.0364 0.0143,0.0183 0.0301,0.0357 0.0452,0.0539 0.0104,0.0127 0.0215,0.0254 0.0326,0.038 0.0143,0.0175 0.0293,0.0349 0.0443,0.0523 0.0238,0.0286 0.0484,0.0563 0.0729,0.0833 0.0246,0.0278 0.0516,0.0579 0.0777,0.0872 0.0261,0.0285 0.0538,0.0602 0.0816,0.0896 0.0278,0.0301 0.0547,0.0595 0.0824,0.0888 0.0278,0.0294 0.0555,0.0587 0.0841,0.088 0.58486,0.60842 1.23998,1.14517 1.95162,1.59888 l 0.0167,0.0103 0.057,0.0357 c 1.0697,0.67405 2.24995,1.15417 3.48639,1.41817 l 0.057,0.0119 0.0523,0.0103 c 0.0373,0.007 0.0737,0.0151 0.11097,0.0221 0.0183,0.004 0.0373,0.007 0.0555,0.0103 l 0.0285,0.005 0.0285,0.005 0.0586,0.0103 0.0143,0.002 0.0206,0.004 c 0.0214,0.004 0.0428,0.007 0.0649,0.0111 l 0.0785,0.0126 0.0793,0.012 0.0793,0.0119 c 0.0262,0.004 0.0531,0.007 0.0793,0.0111 l 0.0792,0.0104 0.05,0.006 0.0515,0.006 c 0.0151,0.002 0.031,0.004 0.046,0.006 0.0325,0.004 0.0642,0.007 0.0967,0.0103 l 0.0698,0.007 0.042,0.004 0.0586,0.006 c 0.14058,0.0129 0.2815,0.0226 0.4225,0.0293 0.066,0.003 0.13208,0.006 0.19821,0.008 h 0.0262 l 0.12047,0.002 h 0.30918 c 0.0412,0 0.0817,-0.002 0.12291,-0.002 h 0.009 c 0.0421,-8.4e-4 0.0833,-0.002 0.12526,-0.004 l 0.0642,-0.002 0.0642,-0.003 c 0.0389,-0.002 0.0785,-0.004 0.11736,-0.006 0.0579,-0.003 0.11492,-0.007 0.1728,-0.0111 0.12779,-0.01 0.25541,-0.0219 0.38287,-0.0357 0.023,-0.002 0.046,-0.006 0.0697,-0.008 0.0238,-0.002 0.0468,-0.006 0.0697,-0.009 l 0.027,-0.003 c 0.0222,-0.002 0.0443,-0.006 0.0658,-0.009 0.0269,-0.003 0.0547,-0.007 0.0816,-0.0111 l 0.0159,-0.002 c 0.0309,-0.005 0.0618,-0.009 0.0936,-0.0143 l 0.0111,-0.002 0.0602,-0.01 0.057,-0.01 0.0341,-0.006 h 0.006 c 0.0437,-0.008 0.0864,-0.0151 0.13006,-0.023 l 0.008,-0.002 0.0761,-0.0143 c 1.26563,-0.23632 2.47844,-0.69895 3.57985,-1.36575 0.0199,-0.0119 0.0389,-0.0238 0.0587,-0.0358 0.0853,-0.0523 0.16994,-0.106 0.25365,-0.16085 0.36604,-0.23952 0.71728,-0.50074 1.05195,-0.7824 0.17187,-0.14521 0.27914,-0.35292 0.29798,-0.57713 0.019,-0.22403 -0.0514,-0.44672 -0.19577,-0.6191 h -0.003 z"
   style="fill:#1066df;fill-rule:nonzero;stroke-width:0.0841291"
   id="path1" />
        </g>
        <g
   transform="matrix(3.9987,0,0,3.9987,-38.875,0.251891)"
   id="g2">
            <path
   d="m 116.77258,120.2415 c 0.14992,1.7e-4 0.29715,-0.0398 0.42645,-0.11576 0.16826,-0.0977 0.33955,-0.18988 0.51369,-0.27661 0.11122,-0.0552 0.22354,-0.10803 0.33686,-0.15859 0.0191,-0.009 0.0381,-0.0167 0.0571,-0.0254 0.0126,-0.005 0.0253,-0.011 0.0389,-0.0166 0.0253,-0.0111 0.0499,-0.0215 0.0753,-0.0326 l 0.0563,-0.0237 c 0.0382,-0.016 0.0765,-0.0315 0.11492,-0.0468 l 0.0436,-0.0175 0.0722,-0.0285 c 0.0174,-0.007 0.0348,-0.0135 0.0522,-0.0198 0.0825,-0.031 0.16489,-0.0602 0.24894,-0.0888 l 0.0491,-0.0166 c 0.098,-0.0329 0.19661,-0.0641 0.29571,-0.0936 l 0.0491,-0.0143 c 0.12821,-0.0371 0.25718,-0.0715 0.38682,-0.10306 l 0.0428,-0.0103 0.05,-0.0119 0.0341,-0.008 0.0364,-0.009 c 0.0238,-0.006 0.0484,-0.0111 0.0722,-0.0158 0.0364,-0.008 0.0729,-0.0158 0.11012,-0.023 l 0.0611,-0.0119 c 0.0825,-0.0158 0.16489,-0.0309 0.24734,-0.0452 0.0396,-0.006 0.08,-0.0135 0.11972,-0.019 0.0404,-0.006 0.0808,-0.0119 0.12282,-0.0183 l 0.009,-0.002 c 0.0586,-0.008 0.11728,-0.0158 0.176,-0.023 l 0.12359,-0.0143 c 0.0412,-0.005 0.0824,-0.009 0.12367,-0.0118 0.0412,-0.004 0.0824,-0.007 0.12451,-0.0104 0.0262,-0.002 0.0523,-0.004 0.0777,-0.006 l 0.15614,-0.01 c 0.0262,-0.002 0.0523,-0.002 0.0777,-0.004 0.0158,0 0.0309,-0.002 0.0468,-0.002 l 0.0427,-0.002 0.0492,-0.002 0.0491,-0.002 c 0.0333,-8.5e-4 0.0665,-0.002 0.0991,-0.002 h 0.11728 c 0.3742,0 0.74833,0.023 1.11934,0.0697 0.0785,0.01 0.1569,0.0206 0.23539,0.0325 0.0167,0.002 0.0341,0.006 0.0516,0.008 l 0.0864,0.0143 0.0167,0.003 0.0142,0.002 c 0.0215,0.004 0.0437,0.007 0.065,0.0111 l 0.0214,0.004 0.0286,0.006 0.0285,0.006 0.0538,0.0103 c 0.0191,0.003 0.0381,0.007 0.0563,0.0111 l 0.0151,0.003 c 0.0427,0.009 0.0864,0.0183 0.12914,0.0278 l 0.0396,0.009 c 0.0302,0.006 0.0595,0.0135 0.0896,0.0206 0.0349,0.008 0.0697,0.0167 0.10465,0.0254 0.0325,0.008 0.065,0.0166 0.0975,0.0246 l 0.0349,0.01 0.0372,0.01 h 0.002 c 0.0238,0.006 0.0476,0.0126 0.0706,0.019 0.003,0 0.006,0.002 0.01,0.002 0.0111,0.003 0.0222,0.006 0.0325,0.01 0.0151,0.004 0.0301,0.009 0.0452,0.0127 l 0.0373,0.0104 c 0.0174,0.005 0.0349,0.0103 0.0523,0.0151 l 0.0412,0.0126 0.0373,0.0112 0.0174,0.005 h 0.002 l 0.0214,0.006 0.0453,0.0143 0.0285,0.009 0.0373,0.0119 c 0.0221,0.007 0.0436,0.0143 0.0658,0.0215 0.0332,0.0111 0.0666,0.023 0.0999,0.0341 0.14664,0.0515 0.29201,0.10642 0.43596,0.16489 l 0.0491,0.0206 c 0.0357,0.0151 0.0714,0.0294 0.1071,0.0452 0.1219,0.0521 0.23951,0.11357 0.35191,0.1839 1.0448,0.65554 1.4879,1.99605 0.98692,3.16452 -0.26695,0.62112 -0.76987,1.11151 -1.39756,1.36264 -0.62768,0.25112 -1.33024,0.24254 -1.95162,-0.0238 -0.48156,-0.2062 -0.99903,-0.31549 -1.52282,-0.32179 h -0.002 c -0.15193,-0.002 -0.30387,0.006 -0.45505,0.0214 -0.0681,0.007 -0.13553,0.0167 -0.20376,0.0269 -0.0301,0.005 -0.061,0.0103 -0.0911,0.0159 l -0.0269,0.005 c -0.0111,0.002 -0.023,0.004 -0.0342,0.006 -0.0167,0.003 -0.0341,0.006 -0.0507,0.0103 h -0.003 c -0.0183,0.005 -0.0357,0.009 -0.0539,0.0127 l -0.0428,0.0104 -0.0253,0.006 -0.0412,0.0103 c -0.0127,0.003 -0.0262,0.007 -0.0389,0.0104 l -0.0269,0.007 c -0.0548,0.0151 -0.10945,0.0317 -0.16329,0.0491 -0.0215,0.007 -0.0437,0.0143 -0.065,0.0214 l -0.0325,0.0111 c -0.0111,0.004 -0.0215,0.007 -0.0326,0.0119 l -0.0317,0.0118 c -0.0317,0.0119 -0.0642,0.0238 -0.0951,0.0365 -0.15866,0.0634 -0.31304,0.13713 -0.4622,0.22042 -0.01,0.006 -0.0198,0.0111 -0.0293,0.0167 -0.0198,0.0111 -0.0396,0.023 -0.0595,0.0341 -0.0199,0.0119 -0.0389,0.023 -0.0586,0.0357 -0.0183,0.0114 -0.0366,0.0231 -0.0547,0.0348 l -0.0476,0.031 c -0.0111,0.007 -0.0214,0.0143 -0.0325,0.0214 -0.006,0.004 -0.0124,0.008 -0.0183,0.0127 -0.006,0.005 -0.0151,0.0103 -0.023,0.0158 -0.008,0.006 -0.0183,0.0127 -0.0269,0.0191 -0.0183,0.0126 -0.0365,0.0253 -0.0539,0.0388 -0.0174,0.0127 -0.0365,0.0269 -0.0547,0.0404 -0.009,0.006 -0.0175,0.0135 -0.027,0.0198 -0.18912,0.14563 -0.36453,0.30825 -0.52396,0.48593 l -0.005,0.005 c -0.0135,0.0151 -0.0269,0.0301 -0.0404,0.0459 -0.0127,0.0143 -0.0254,0.0294 -0.038,0.0444 l -0.0143,0.0167 c -0.0158,0.019 -0.0317,0.038 -0.0468,0.057 -0.006,0.006 -0.0103,0.0127 -0.0151,0.0191 -0.0135,0.0166 -0.0262,0.0332 -0.0389,0.0499 -0.01,0.0119 -0.0182,0.0238 -0.0277,0.0357 -0.0254,0.0333 -0.05,0.0666 -0.0738,0.1007 v 7.6e-4 c -0.17912,0.25423 -0.32727,0.52883 -0.44151,0.81807 0,0.002 -8.4e-4,0.002 -0.002,0.004 l -0.0143,0.0357 -0.0135,0.0349 c -0.003,0.009 -0.007,0.0183 -0.0103,0.0278 -0.003,0.009 -0.008,0.0222 -0.0119,0.0341 -0.005,0.0135 -0.009,0.0278 -0.0143,0.0412 -0.005,0.0143 -0.009,0.0294 -0.0142,0.0436 -0.21041,0.63173 -0.25651,1.30669 -0.13394,1.96113 0.004,0.0238 0.009,0.0468 0.0143,0.0706 0.0984,0.49148 0.29017,0.95949 0.56518,1.37854 l 0.0222,0.0341 c 0.28066,0.42317 0.64123,0.78745 1.06138,1.07256 0.0135,0.009 0.027,0.0182 0.0405,0.0269 0.5237,0.3504 1.12405,0.56981 1.75031,0.63972 l 0.0452,0.005 0.0404,0.004 0.0191,0.002 c 0.25121,0.0222 0.5041,0.0206 0.7554,-0.006 0.009,-7.5e-4 0.0198,-0.002 0.0294,-0.004 h 0.002 c 0.52346,-0.0586 1.03008,-0.22084 1.49027,-0.47718 0.0973,-0.0545 0.18289,-0.12746 0.25213,-0.21487 0.0692,-0.0877 0.12031,-0.18819 0.15059,-0.29571 0.0301,-0.10777 0.0396,-0.21958 0.0262,-0.33054 -0.0131,-0.11089 -0.0479,-0.21807 -0.1023,-0.31549 -0.0545,-0.0974 -0.1278,-0.18306 -0.21554,-0.25205 -0.0877,-0.0693 -0.18812,-0.12047 -0.29572,-0.15059 -0.10735,-0.0305 -0.21974,-0.0395 -0.33054,-0.0262 -0.11097,0.0135 -0.21798,0.0475 -0.31548,0.10221 -0.414,0.2301 -0.88975,0.32491 -1.36029,0.27115 l -0.0246,-0.003 c -0.0142,-0.002 -0.0285,-0.004 -0.0427,-0.006 -0.0143,-0.002 -0.0301,-0.004 -0.046,-0.007 -0.0189,-0.003 -0.0376,-0.006 -0.0563,-0.0103 -0.0292,-0.006 -0.0583,-0.0119 -0.0872,-0.019 -0.009,-0.002 -0.0167,-0.004 -0.0246,-0.006 l -0.0286,-0.007 c -0.01,-0.002 -0.0182,-0.005 -0.0285,-0.007 l -0.0285,-0.008 c -0.008,-0.002 -0.0158,-0.005 -0.0238,-0.007 l -0.0309,-0.01 c -0.0182,-0.006 -0.0365,-0.0119 -0.0547,-0.0174 -0.009,-0.003 -0.0183,-0.006 -0.027,-0.01 -0.0182,-0.006 -0.0364,-0.0135 -0.0538,-0.0198 -0.0269,-0.0103 -0.0536,-0.0212 -0.0801,-0.0325 l -0.0206,-0.009 -0.0215,-0.01 -0.0214,-0.0104 -0.0333,-0.0158 c -0.34207,-0.16733 -0.63685,-0.41753 -0.85769,-0.72771 l -0.019,-0.0285 c -0.006,-0.01 -0.0127,-0.0183 -0.0183,-0.027 -0.006,-0.01 -0.0111,-0.0166 -0.0158,-0.0246 -0.22975,-0.35646 -0.35603,-0.76978 -0.36461,-1.19379 v -0.0745 c 0,-0.0111 0,-0.0237 7.5e-4,-0.0364 7.6e-4,-0.0119 7.6e-4,-0.0238 0.002,-0.0364 0,-0.009 0,-0.0175 0.002,-0.0262 l 0.002,-0.0262 c 0.002,-0.0214 0.003,-0.0428 0.006,-0.0634 8.4e-4,-0.01 0.002,-0.0183 0.003,-0.0278 0.002,-0.0167 0.004,-0.0333 0.006,-0.0507 0.002,-0.0127 0.003,-0.0254 0.005,-0.038 l 0.005,-0.0285 c 0.003,-0.0175 0.006,-0.0349 0.01,-0.0523 0.003,-0.0175 0.006,-0.0333 0.01,-0.05 0.004,-0.0167 0.008,-0.0364 0.0119,-0.0547 0.003,-0.0119 0.006,-0.0238 0.009,-0.0365 0.002,-0.01 0.005,-0.0182 0.007,-0.0285 l 0.0167,-0.0594 c 0.0253,-0.0824 0.0547,-0.16414 0.0888,-0.24338 0.0497,-0.11602 0.10912,-0.22766 0.1776,-0.33374 0.009,-0.0143 0.0198,-0.031 0.0309,-0.046 0.006,-0.0103 0.0143,-0.0198 0.0206,-0.0293 0.0111,-0.0159 0.0222,-0.031 0.0333,-0.046 l 0.0174,-0.0237 c 0.006,-0.009 0.0127,-0.0167 0.019,-0.0246 0.008,-0.0103 0.0159,-0.0206 0.0247,-0.031 0.008,-0.0103 0.0166,-0.0206 0.0246,-0.0301 l 0.0253,-0.0294 c 0.0143,-0.0174 0.0301,-0.0341 0.046,-0.0507 l 0.003,-0.003 c 0.0175,-0.0191 0.0349,-0.0373 0.0532,-0.0555 0.0135,-0.0143 0.0277,-0.0278 0.0427,-0.0412 l 0.0111,-0.0103 c 0.0868,-0.0817 0.17987,-0.15648 0.2783,-0.22362 0.019,-0.0126 0.038,-0.0253 0.0563,-0.0372 0.01,-0.006 0.019,-0.0127 0.0301,-0.0191 0.0111,-0.007 0.0222,-0.0142 0.0332,-0.0206 0.0111,-0.006 0.0222,-0.0135 0.0342,-0.0198 0.11904,-0.0675 0.24363,-0.12451 0.37252,-0.17045 l 0.0555,-0.019 c 0.0127,-0.004 0.0246,-0.008 0.0373,-0.0119 0.0126,-0.004 0.0246,-0.007 0.0372,-0.0111 0.0127,-0.003 0.0254,-0.007 0.0381,-0.0104 0.0127,-0.003 0.0246,-0.006 0.0364,-0.01 0.027,-0.006 0.0539,-0.0127 0.0808,-0.0183 l 0.0349,-0.007 0.0262,-0.005 0.0269,-0.005 c 0.0174,-0.003 0.0341,-0.006 0.0516,-0.008 h 0.002 c 0.1076,-0.0158 0.2163,-0.0237 0.32507,-0.0237 h 0.0373 c 0.29488,0.006 0.58495,0.0681 0.8561,0.18391 1.76301,0.75623 3.82325,0.23379 5.01073,-1.27077 0.5873,-0.74463 0.90969,-1.66433 0.91557,-2.61271 v -0.008 c 0.003,-0.83439 -0.23951,-1.65154 -0.69759,-2.34888 -0.458,-0.69743 -1.1116,-1.24461 -1.87877,-1.57271 -0.0277,-0.0118 -0.0547,-0.0237 -0.0824,-0.0348 -0.0282,-0.0112 -0.0562,-0.0228 -0.084,-0.0349 -0.0421,-0.0174 -0.0833,-0.0341 -0.12611,-0.0507 -0.042,-0.0166 -0.084,-0.0333 -0.12603,-0.0491 l -0.0689,-0.0261 c -0.0229,-0.009 -0.0459,-0.0173 -0.069,-0.0254 -0.0206,-0.007 -0.0405,-0.0152 -0.0611,-0.0222 l -0.0547,-0.0199 -0.0848,-0.0293 c -0.0586,-0.0199 -0.11736,-0.0397 -0.17675,-0.0587 l -0.0405,-0.0135 -0.0484,-0.0158 -0.0729,-0.0231 -0.0491,-0.0151 -0.0436,-0.0126 -0.0618,-0.0183 -0.12442,-0.0357 c -0.0284,-0.008 -0.057,-0.0157 -0.0857,-0.023 l -0.0808,-0.0215 h -0.003 l -0.0174,-0.005 c -0.0468,-0.0119 -0.0927,-0.0238 -0.13948,-0.0349 l -0.0476,-0.0111 -0.0554,-0.0135 c -0.0285,-0.006 -0.0555,-0.0126 -0.0833,-0.019 l -0.006,-0.002 -0.0832,-0.0183 c -0.0579,-0.0126 -0.11576,-0.0246 -0.17364,-0.0364 l -0.0507,-0.009 -0.0737,-0.0143 c -0.0167,-0.003 -0.0333,-0.006 -0.0491,-0.01 l -0.0706,-0.0126 -0.0254,-0.005 c -0.0555,-0.009 -0.11097,-0.0182 -0.16641,-0.0278 -0.0583,-0.01 -0.11669,-0.0182 -0.17524,-0.0261 l -0.0697,-0.01 -0.0396,-0.005 c -0.005,0 -0.01,-0.002 -0.0143,-0.002 l -0.0237,-0.003 -0.0238,-0.003 -0.0459,-0.006 -0.0317,-0.004 -0.0611,-0.007 -0.019,-0.002 c -0.0246,-0.002 -0.0491,-0.006 -0.0745,-0.008 l -0.0689,-0.006 -0.0238,-0.002 -0.0681,-0.006 c -0.027,-0.002 -0.0539,-0.005 -0.0809,-0.006 -0.12216,-0.009 -0.24457,-0.0167 -0.36697,-0.0221 h -0.0278 l -0.0158,-8.5e-4 -0.0595,-0.002 -0.0841,-0.002 c -0.0621,-0.001 -0.12417,-0.003 -0.18626,-0.003 h -0.18231 c -0.0262,0 -0.0516,0 -0.0777,8.4e-4 -0.0262,7.5e-4 -0.0499,7.5e-4 -0.0745,0.002 -0.0246,0 -0.0492,8.4e-4 -0.0745,0.002 -0.0357,7.6e-4 -0.0722,0.002 -0.10786,0.004 l -0.0626,0.002 -0.0285,0.002 -0.0468,0.002 -0.0611,0.003 -0.0554,0.003 h -0.008 c -0.48913,0.0309 -0.97506,0.0951 -1.45468,0.19265 l -0.0174,0.003 c -0.0389,0.008 -0.0777,0.0166 -0.11736,0.0246 l -0.006,0.002 c -0.0174,0.004 -0.0349,0.007 -0.0523,0.011 -0.17204,0.0381 -0.3424,0.0801 -0.51209,0.12602 -0.85282,0.23295 -1.6735,0.5709 -2.44311,1.00602 l -0.0833,0.0475 -0.0332,0.019 -0.0143,0.009 -0.0143,0.009 c -0.15573,0.0986 -0.27511,0.24532 -0.33997,0.41778 -0.0649,0.17238 -0.0724,0.36125 -0.0215,0.53826 0.0517,0.17667 0.15909,0.33214 0.30598,0.44311 0.14747,0.11063 0.32701,0.17019 0.51133,0.16969 h 8.4e-4 z"
   style="fill:#1066df;fill-rule:nonzero;stroke-width:0.0841291"
   id="path2" />
        </g>
        <g
   transform="matrix(3.9987,0,0,3.9987,-38.875,0.251891)"
   id="g3">
            <path
   d="m 115.47169,124.11237 -0.007,0.0119 c -0.39145,0.63778 -0.68279,1.33184 -0.864,2.05788 -8.4e-4,0.004 -0.002,0.008 -0.003,0.0119 l -0.0119,0.05 c -0.002,0.008 -0.004,0.0167 -0.006,0.0246 -0.004,0.0158 -0.007,0.0317 -0.0111,0.0475 -0.21057,0.91204 -0.24498,1.85597 -0.10146,2.78089 0.002,0.008 0.002,0.0158 0.003,0.0237 0.004,0.0235 0.008,0.047 0.0119,0.0706 l 0.002,0.008 c 0,0 0,0.004 8.4e-4,0.006 0.17011,1.00324 0.54633,1.96046 1.10495,2.81101 l 0.0143,0.0221 c 0.0538,0.0817 0.10937,0.16178 0.16641,0.24103 0.0215,0.0301 0.0437,0.0595 0.065,0.0888 1.16359,1.56648 2.90355,2.60766 4.83397,2.89261 l 0.0103,0.002 0.0484,0.007 h 0.007 l 0.0396,0.006 h 0.009 l 0.0428,0.006 c 0.58142,0.0734 1.16957,0.0772 1.75191,0.0111 l 0.0373,-0.005 c 0.0119,-0.002 0.0238,-0.003 0.0357,-0.004 l 0.05,-0.006 0.01,-0.002 h 0.006 l 0.0111,-0.002 0.0468,-0.006 0.0167,-0.002 c 0.0285,-0.004 0.0554,-0.008 0.0824,-0.0119 h 7.6e-4 c 1.22214,-0.18862 2.37715,-0.68237 3.35793,-1.43558 0.0896,-0.0674 0.16472,-0.15202 0.22117,-0.24894 0.0565,-0.097 0.0935,-0.20418 0.10861,-0.31548 0.0309,-0.22454 -0.0297,-0.45228 -0.16809,-0.63181 -0.0686,-0.0889 -0.15395,-0.16355 -0.25129,-0.21958 -0.0973,-0.0561 -0.20486,-0.0922 -0.31633,-0.10617 -0.11147,-0.0144 -0.22462,-0.006 -0.3329,0.0237 -0.1081,0.0302 -0.20931,0.0811 -0.29806,0.14983 -0.60136,0.46153 -1.28928,0.79771 -2.02297,0.98852 -0.01,0.002 -0.019,0.004 -0.0285,0.006 -0.18559,0.0474 -0.37345,0.0852 -0.56283,0.1134 h -0.008 c -0.0221,0.005 -0.0443,0.007 -0.0665,0.0103 l -0.0246,0.003 c -0.24313,0.0316 -0.48812,0.0475 -0.73327,0.0475 h -0.002 c -0.52345,0 -1.04446,-0.0723 -1.54814,-0.21479 l -0.005,-0.002 c -0.0392,-0.0113 -0.0783,-0.0229 -0.11736,-0.0348 -0.0577,-0.0176 -0.11509,-0.0363 -0.17204,-0.0563 l -0.088,-0.031 -0.038,-0.0143 -0.0111,-0.004 c -0.0222,-0.008 -0.0443,-0.0167 -0.0665,-0.0253 l -0.019,-0.007 -0.0333,-0.0135 -0.009,-0.003 h -0.002 c -0.0221,-0.009 -0.0443,-0.0174 -0.0665,-0.0269 l -0.0167,-0.007 -0.0183,-0.008 c -0.0332,-0.0143 -0.0658,-0.0285 -0.0991,-0.0428 l -0.0269,-0.0119 c -0.95495,-0.43436 -1.77168,-1.12413 -2.35982,-1.99293 l -0.0143,-0.0206 -0.0246,-0.0372 -0.0215,-0.0333 c -0.5847,-0.9054 -0.90086,-1.95827 -0.91162,-3.03605 v -0.0729 c 0,-0.0294 0,-0.0587 8.4e-4,-0.088 v -0.007 c 0.002,-0.11097 0.008,-0.22118 0.0166,-0.33054 7.6e-4,-0.0119 0.002,-0.0238 0.003,-0.0349 0,-0.006 8.4e-4,-0.0111 0.002,-0.0167 0.0532,-0.59487 0.20023,-1.17763 0.43587,-1.72649 0.10525,-0.24583 0.22766,-0.48391 0.3663,-0.71258 0.006,-0.01 0.0119,-0.0199 0.0174,-0.0294 0.10113,-0.16287 0.21041,-0.32053 0.32743,-0.47239 0.30144,-0.39288 0.65293,-0.74462 1.04556,-1.04639 0.11576,-0.0893 0.23497,-0.1739 0.35747,-0.25365 0.10474,-0.0677 0.21158,-0.13225 0.32027,-0.1935 0.60885,-0.34055 1.27481,-0.56703 1.96509,-0.66815 0.26812,-0.038 0.5386,-0.0571 0.80941,-0.0571 h 0.002 c 0.0206,0 0.0412,-8.5e-4 0.0626,-0.002 h 0.004 c 0.73226,0.009 1.45585,0.16018 2.12998,0.4463 0.0119,0.005 0.0238,0.01 0.0357,0.0151 h 0.002 c 0.20704,0.0896 0.44151,0.0927 0.65082,0.009 0.32238,-0.12846 0.53498,-0.4421 0.53498,-0.78913 0,-0.10819 -0.0207,-0.21545 -0.0609,-0.3159 -0.0838,-0.20923 -0.24726,-0.3769 -0.45421,-0.46608 h -0.002 c -1.24865,-0.53851 -2.62298,-0.7188 -3.96829,-0.52076 l -0.0294,0.005 -0.0468,0.007 -0.009,0.002 -0.0349,0.006 c -1.01317,0.1633 -1.98074,0.53818 -2.83944,1.10016 l -0.006,0.004 c -0.0126,0.009 -0.0261,0.0167 -0.0389,0.0254 l -0.0395,0.0261 c -0.009,0.006 -0.0175,0.0119 -0.0263,0.0183 -0.79241,0.53489 -1.47201,1.22038 -2,2.01741 -0.0103,0.0158 -0.0221,0.0332 -0.0332,0.0499 l -0.006,0.01 -0.0341,0.053 -0.0198,0.031 c -0.007,0.0111 -0.0143,0.0222 -0.0206,0.0333 -0.004,0.006 -0.008,0.0126 -0.0119,0.0183 l -0.0143,0.0221 -0.002,0.004 8.4e-4,-0.002 z"
   style="fill:#1066df;fill-rule:nonzero;stroke-width:0.0841291"
   id="path3" />
        </g>
    </g>
</svg>
