<?xml version="1.0" encoding="UTF-8" standalone="no"?>
<svg
   width="125.85034"
   height="98.460838"
   viewBox="0 0 125.85034 98.460838"
   version="1.1"
   xml:space="preserve"
   style="clip-rule:evenodd;fill-rule:evenodd;stroke-linejoin:round;stroke-miterlimit:2"
   id="svg2"
   xmlns="http://www.w3.org/2000/svg"
   xmlns:svg="http://www.w3.org/2000/svg"><defs
   id="defs2" />
    <g
   transform="matrix(4.00296,0,0,4.00296,-449.96409,-355.06665)"
   id="g2">
        <path
   d="m 130.37905,94.850169 -2.6134,6.149271 h -6.1339 c -0.004,0 -0.007,0 -0.0106,0 -1.68097,0 -3.06407,1.3831 -3.06407,3.06406 0,0.004 0,0.007 0,0.0106 0,0.004 0,0.007 0,0.0106 0,1.68096 1.3831,3.06406 3.06407,3.06406 0.004,0 0.007,0 0.0106,0 h 3.52051 l -2.57234,6.14927 c -0.61466,-0.005 -0.64072,0 -0.94817,0 -5.0885,0 -9.22391,-4.13541 -9.22391,-9.22391 0,-5.088615 4.13541,-9.223901 9.22391,-9.223901 h 8.76279 z"
   style="fill:#3551f2;fill-rule:nonzero;stroke-width:0.122931"
   id="path1" />
        <path
   d="m 143.84716,97.924804 c 0,5.088616 -4.13541,9.223906 -9.22391,9.223906 h -9.46989 l 2.6134,-6.14927 h 6.85649 c 1.69104,0 3.07464,-1.383593 3.07464,-3.074513 0,-1.691166 -1.3836,-3.074758 -3.07464,-3.074758 h -4.2431 l 2.64893,-6.149146 c 0.61465,0.0054 1.01,0 1.59417,0 5.0885,0 9.22391,4.135286 9.22391,9.223781 z"
   style="fill:#3551f2;fill-rule:nonzero;stroke-width:0.122931"
   id="path2" />
    </g>
</svg>
