<?xml version="1.0" encoding="UTF-8" standalone="no"?>
<svg
   width="107.3206"
   height="107.32013"
   viewBox="0 0 107.3206 107.32013"
   version="1.1"
   xml:space="preserve"
   style="clip-rule:evenodd;fill-rule:evenodd;stroke-linejoin:round;stroke-miterlimit:2"
   id="svg3"
   xmlns="http://www.w3.org/2000/svg"
   xmlns:svg="http://www.w3.org/2000/svg"><defs
   id="defs3" />
    <g
   transform="matrix(1.00373,0,0,1.01105,-458.14329,-463.99693)"
   id="g3">
        <g
   transform="matrix(3.98212,0,0,3.98212,0.583005,2.53258)"
   id="g1">
            <path
   d="m 127.9527,136.85998 c 4.98978,0 9.00686,-4.01709 9.00686,-8.87995 0,-4.86297 -4.01708,-8.87994 -9.00686,-8.87994 -4.98968,0 -9.00676,4.01708 -9.00676,8.87994 0,4.86286 4.01718,8.87995 9.00676,8.87995 z"
   style="fill:#46b549;fill-rule:nonzero;stroke-width:0.104805"
   id="path1" />
        </g>
        <g
   transform="matrix(3.98212,0,0,3.98212,0.583005,2.53258)"
   id="g2">
            <path
   d="m 135.49732,137.38987 c 0.4842,0.45874 0.45464,1.24237 -0.10062,1.61191 -5.22391,3.47566 -12.31703,2.96599 -16.95624,-1.6335 -5.28575,-5.24341 -5.28575,-13.61599 0,-18.8594 4.615,-4.615 11.77551,-5.11251 17.00854,-1.59818 0.53074,0.35634 0.56878,1.10413 0.11676,1.55626 -0.38569,0.38568 -0.99628,0.41649 -1.45219,0.11707 -4.3512,-2.85721 -10.27962,-2.33947 -14.06623,1.44715 -4.48232,4.35539 -4.48232,11.45941 -0.0846,15.81481 3.78735,3.78735 9.71723,4.30467 14.06854,1.44558 0.45769,-0.30069 1.06849,-0.27837 1.46602,0.0983 z m 1.95137,-1.90724 c 0.45905,0.48462 1.24288,0.45768 1.61526,-0.0963 3.02971,-4.50715 3.01682,-10.45748 -0.0386,-14.95226 -0.35802,-0.52665 -1.10213,-0.56186 -1.55248,-0.11162 -0.38789,0.38799 -0.41692,1.00267 -0.11256,1.4591 2.45894,3.68716 2.45527,8.48294 -0.0111,12.23173 -0.30174,0.45873 -0.27816,1.07079 0.0995,1.46937 z"
   style="fill:#46b549;fill-rule:nonzero;stroke-width:0.104805"
   id="path2" />
        </g>
    </g>
</svg>
