<?xml version="1.0" encoding="UTF-8" standalone="no"?>
<svg
   width="308.64951"
   height="204.14754"
   viewBox="0 0 308.64951 204.14754"
   version="1.1"
   xml:space="preserve"
   style="clip-rule:evenodd;fill-rule:evenodd;stroke-linejoin:round;stroke-miterlimit:2"
   id="svg3"
   xmlns="http://www.w3.org/2000/svg"
   xmlns:svg="http://www.w3.org/2000/svg"><defs
   id="defs3" />
    <g
   transform="matrix(3.98978,0,0,3.98978,-355.7856,-410.34537)"
   id="g3">
        <path
   d="m 100.80219,150.42536 c -0.0438,0.0109 -0.0896,0.0109 -0.13342,0 -0.1138,-0.0332 -0.19952,-0.12828 -0.22126,-0.2448 -0.12255,-0.77756 3.25393,-7.92987 4.80785,-10.70839 0.77877,-1.38035 6.61019,-5.19149 10.54086,-7.06024 0.35075,-0.16572 2.62307,-1.25629 2.6925,-1.13193 0.0694,0.12406 -2.05137,1.77457 -2.16215,1.86874 -3.45737,2.77067 -9.63833,10.01927 -12.8651,14.14313 -2.05498,2.62729 -2.43078,3.08761 -2.65928,3.13349 z"
   style="fill-rule:nonzero;stroke-width:0.301849"
   id="path1" />
        <path
   d="m 136.19004,112.17961 c 5.43478,-0.16994 8.29752,1.38065 9.72164,2.76191 1.15065,1.02538 1.8449,2.46943 1.927,4.00856 0.0368,2.0571 -2.18991,2.67377 -3.52136,3.04656 -0.1796,0.0459 -0.39663,0.10595 -0.57623,0.16571 0.91943,0.36735 3.02875,1.02629 4.92738,1.6155 7.89606,2.45735 11.23783,3.68195 11.52157,4.74536 0.0604,0.2454 -0.0175,0.50499 -0.20285,0.67675 -0.42409,0.35437 -1.2258,0.2943 -2.56299,0.0691 l -0.19349,-0.0323 c -13.71812,-2.18146 -23.09868,-2.0248 -23.19527,-2.0248 -25.16815,0.38184 -38.033857,18.60204 -42.264872,24.59072 -1.111106,1.57867 -1.553616,2.20289 -1.961112,2.21406 -0.118023,-0.002 -0.232424,-0.0408 -0.327506,-0.11078 -0.207672,-0.17477 -0.321469,-0.43768 -0.306377,-0.70874 -0.09176,-2.83979 5.883336,-19.63436 18.604457,-29.1752 5.29322,-3.97505 14.29042,-7.9996 27.23883,-4.83169 -0.74013,-0.79386 -1.15578,-1.83736 -1.16423,-2.9225 -3.80299,0.49684 -10.60244,-0.0459 -15.44409,-0.67675 -4.1625,-0.55691 -11.19678,-1.68884 -11.64835,-3.29075 -0.0969,-0.35015 0.0459,-0.72716 0.94479,-1.25207 4.04477,-2.37495 9.85053,-2.8902 9.85053,-2.8902 16.36926,-1.57988 18.63253,4.02153 18.63253,4.02153 z"
   style="fill-rule:nonzero;stroke-width:0.301849"
   id="path2" />
        <path
   d="m 118.29523,106.81726 c 0,0 -4.9464,-2.90922 -4.14921,-3.68195 0.79748,-0.77273 9.85536,0 15.81174,2.55425 5.95639,2.55394 6.3334,5.40309 6.3334,5.40309 -1.94089,-3.17545 -7.05331,-5.13656 -17.99623,-4.27539 z m 42.26638,18.58936 c -0.88502,0.0275 -1.66379,0.0417 -2.83919,0.0613 -0.28887,-0.004 -0.57472,-0.0595 -0.84397,-0.16451 l -7.56886,-2.40241 c -0.22125,-0.0691 -1.65956,-0.53367 -1.53218,-0.72263 0.12768,-0.18926 1.45189,-0.1793 1.6825,-0.17024 h 0.51164 c 9.28849,0.27166 14.75075,0.91792 16.30195,1.91885 0.20737,0.11561 0.30758,0.36192 0.23967,0.58951 -0.0839,0.33777 -0.17115,0.71961 -5.95156,0.89015 z m -59.21428,2.76222 c -0.24511,0.0468 -0.49866,0.0196 -0.72806,-0.0785 -0.38245,-0.15666 -0.56265,-0.46002 -0.919436,-0.91792 -0.919129,-1.12288 -1.290705,-2.39306 -0.990969,-3.30434 0.196805,-0.56235 0.674934,-0.98222 1.258106,-1.10447 1.811699,-0.46001 3.853699,0.2448 4.609229,1.10447 0.61276,0.67312 0.33234,0.89287 -0.46062,1.5512 -0.46334,0.38667 -0.90223,0.80201 -1.31395,1.24301 -0.67312,0.68279 -0.91822,1.24453 -1.4543,1.50653 z"
   style="fill-rule:nonzero;stroke-width:0.301849"
   id="path3" />
    </g>
</svg>
