<?xml version="1.0" encoding="UTF-8" standalone="no"?>
<svg
   width="71.999649"
   height="72.000069"
   viewBox="0 0 71.999649 72.000069"
   version="1.1"
   xml:space="preserve"
   style="clip-rule:evenodd;fill-rule:evenodd;stroke-linejoin:round;stroke-miterlimit:2"
   id="svg1"
   xmlns="http://www.w3.org/2000/svg"
   xmlns:svg="http://www.w3.org/2000/svg"><defs
   id="defs1" />
    <g
   transform="matrix(4.11463,0,0,4.11463,-491.97277,-491.98568)"
   id="g1">
        <path
   d="m 133.49868,121.27155 1.50876,-1.50876 c 0.25721,-0.25721 0.67493,-0.25728 0.93221,-7e-5 l 0.93213,0.9322 c 0.25727,0.2572 0.2572,0.67493 0,0.9322 v -7e-5 l -1.5087,1.5087 c 1.06974,1.45146 1.70206,3.24415 1.70206,5.18344 0,1.93922 -0.63232,3.73197 -1.70171,5.18294 l 1.50884,1.50884 c 0.2572,0.2572 0.2572,0.67486 -7e-5,0.93213 l -0.9322,0.9322 c -0.25721,0.25721 -0.67486,0.25721 -0.93207,0 l -1.50883,-1.50883 c -1.45118,1.06959 -3.24394,1.70184 -5.18316,1.70184 -1.93929,0 -3.73197,-0.63225 -5.18308,-1.70177 l -1.50891,1.5089 c -0.2572,0.25728 -0.67486,0.25728 -0.93213,0 l -0.93221,-0.9322 c -0.2572,-0.2572 -0.2572,-0.67486 0,-0.93206 l 1.50891,-1.50891 c -1.06952,-1.45111 -1.70177,-3.24386 -1.70177,-5.18308 0,-1.93929 0.63225,-3.73198 1.70184,-5.18323 l -1.50877,-1.50877 c -0.2572,-0.2572 -0.25727,-0.67493 -7e-5,-0.9322 l 0.93221,-0.93213 c 0.2572,-0.25728 0.67493,-0.2572 0.9322,0 h -7e-5 l 1.50884,1.50883 c 1.45104,-1.06945 3.24372,-1.7017 5.18301,-1.7017 1.93922,0 3.73198,0.63225 5.18274,1.70156 z m -5.18274,0.93495 c 3.37367,0 6.11262,2.73895 6.11262,6.11269 0,3.37366 -2.73895,6.11261 -6.11262,6.11261 -3.37373,0 -6.11269,-2.73895 -6.11269,-6.11261 0,-3.37374 2.73896,-6.11269 6.11269,-6.11269 z"
   style="fill:#959595;stroke-width:0.0703125"
   id="path1" />
    </g>
</svg>
