<?xml version="1.0" encoding="UTF-8" standalone="no"?>
<svg
   width="72.000008"
   height="52.365162"
   viewBox="0 0 72.000008 52.365162"
   version="1.1"
   xml:space="preserve"
   style="clip-rule:evenodd;fill-rule:evenodd;stroke-linejoin:round;stroke-miterlimit:2"
   id="svg1"
   xmlns="http://www.w3.org/2000/svg"
   xmlns:svg="http://www.w3.org/2000/svg"><defs
   id="defs1" />
    <g
   transform="matrix(4.3809,0,0,4.3809,-500.11264,-534.57065)"
   id="g1">
        <path
   d="m 130.59249,127.99954 c 0,1.08864 -0.29165,2.1086 -0.7998,2.98828 -0.52552,0.90822 -1.28025,1.66296 -2.18848,2.18847 -0.0316,0.0177 -0.0622,0.0353 -0.0938,0.053 -0.85739,0.47559 -1.84387,0.74679 -2.89357,0.74679 h -5.97557 l 1.12021,-2.98821 h -3.36164 l 1.12022,-2.98828 h 7.09678 l -1.12022,2.98828 h 1.12022 c 1.39247,0 2.56191,-0.95218 2.89357,-2.2415 0.0625,-0.24398 0.0941,-0.49493 0.0938,-0.74678 0,-1.64975 -1.33762,-2.98829 -2.98828,-2.98829 h -5.97565 l 1.12029,-2.98828 h 4.85536 c 1.08865,0 2.1086,0.29166 2.98828,0.79981 0.90823,0.52551 1.66296,1.28025 2.18848,2.18847 0.50815,0.87877 0.7998,1.89957 0.7998,2.98829 z m -13.07426,0 h -3.36072 l 1.12022,-2.98829 h 3.36171 z"
   style="fill:#c82020;fill-rule:nonzero;stroke-width:0.0703125"
   id="path1" />
    </g>
</svg>
