<?xml version="1.0" encoding="UTF-8" standalone="no"?>
<svg
   width="72.000175"
   height="90.071999"
   viewBox="0 0 72.000175 90.071999"
   version="1.1"
   xml:space="preserve"
   style="clip-rule:evenodd;fill-rule:evenodd;stroke-linejoin:round;stroke-miterlimit:2"
   id="svg1"
   xmlns="http://www.w3.org/2000/svg"
   xmlns:svg="http://www.w3.org/2000/svg"><defs
   id="defs1" />
    <g
   transform="matrix(4.67367,0,0,4.67367,-891.15095,-1761.2276)"
   id="g1">
        <path
   d="m 190.67477,389.69271 0.89235,-2.14411 h 0.94197 c -0.0248,-0.38012 -0.0372,-0.74781 -0.0372,-1.10308 0,-0.47927 0.0206,-0.9254 0.062,-1.33857 h -1.85909 l 0.89235,-2.14411 h 1.40053 c 1.30543,-4.08164 4.24689,-6.12245 8.82436,-6.12245 1.50373,0 2.93317,0.19001 4.28822,0.57004 v 2.70191 c -1.27238,-0.55365 -2.62338,-0.83039 -4.05273,-0.83039 -2.74315,0 -4.50723,1.22699 -5.29215,3.68089 h 8.16751 l -0.89236,2.14411 h -7.80809 c -0.0413,0.2644 -0.062,0.61975 -0.062,1.06589 0,0.51232 0.0165,0.97087 0.0495,1.37576 h 6.80417 l -0.87992,2.14411 h -5.45326 c 0.58662,1.48725 1.30138,2.52211 2.14411,3.10459 0.84282,0.58256 2.04496,0.87375 3.6066,0.87375 1.11541,0 2.33826,-0.2644 3.66855,-0.7932 v 2.54071 c -1.26419,0.4627 -2.76792,0.69405 -4.51129,0.69405 -4.58576,0 -7.48587,-2.13996 -8.70044,-6.4199 z"
   style="fill:#003f20;fill-rule:nonzero;stroke-width:0.0881334"
   id="path1" />
    </g>
</svg>
