<?xml version="1.0" encoding="UTF-8" standalone="no"?>
<svg
   width="71.999992"
   height="72"
   viewBox="0 0 71.999992 72"
   version="1.1"
   xml:space="preserve"
   style="clip-rule:evenodd;fill-rule:evenodd;stroke-linejoin:round;stroke-miterlimit:2"
   id="svg3"
   xmlns="http://www.w3.org/2000/svg"
   xmlns:svg="http://www.w3.org/2000/svg"><defs
   id="defs3" />
    <g
   transform="matrix(4,0,0,4,-476.00001,-476)"
   id="g3">
        <g
   transform="scale(0.128)"
   id="g1">
            <path
   d="m 1040.3868,1047.347 c 1.5047,1.5047 2.2591,3.6064 2.0559,5.7242 -0.2025,2.1178 -1.3436,4.0373 -3.1064,5.2277 -11.2394,7.5769 -24.7739,12.0136 -39.3363,12.0136 -14.56263,0 -28.09716,-4.4367 -39.32423,-12.0312 -1.75789,-1.1868 -2.89519,-3.1008 -3.09762,-5.2122 -0.20264,-2.1115 0.54998,-4.2068 2.05003,-5.7066 -0.0146,-0.015 -0.0143,-0.015 -0.0141,-0.016 3.1488,-3.1486 8.04958,-3.7181 11.83654,-1.3753 8.28141,5.1856 18.06968,8.1696 28.54938,8.1696 10.4801,0 20.2683,-2.984 28.5623,-8.1492 3.7772,-2.3365 8.6654,-1.7684 11.8062,1.3725 0.018,-0.017 0.018,-0.017 0.018,-0.017 z m 6.9602,-87.73373 c 1.5047,-1.50447 3.6064,-2.25935 5.7242,-2.05622 2.1178,0.203 4.0373,1.34368 5.2277,3.10683 7.5769,11.23896 12.0136,24.77349 12.0136,39.33612 0,14.5624 -4.4367,28.0969 -12.0312,39.3244 -1.1868,1.7578 -3.1008,2.8947 -5.2122,3.0972 -2.1115,0.2032 -4.2068,-0.5498 -5.7066,-2.0496 -0.015,0.014 -0.015,0.014 -0.016,0.014 -3.1486,-3.1486 -3.7181,-8.0501 -1.3753,-11.8364 5.1856,-8.2814 8.1696,-18.0696 8.1696,-28.5497 0,-10.47973 -2.984,-20.268 -8.1492,-28.56227 -2.3365,-3.77733 -1.7684,-8.66553 1.3725,-11.80611 -0.017,-0.0178 -0.017,-0.0181 -0.017,-0.0183 z m -105.62868,1.0625 c 1.32089,-1.9554 3.53208,-3.13011 5.89184,-3.13011 1.885,0 3.69471,0.74961 5.02762,2.08252 0.0152,-0.0146 0.0155,-0.0143 0.0158,-0.0141 3.14852,3.1488 3.71813,8.04958 1.37567,11.83654 -5.1859,8.28141 -8.16983,18.06968 -8.16983,28.54938 0,10.4801 2.98393,20.2683 8.14908,28.5623 2.33642,3.7772 1.76815,8.6654 -1.3725,11.8062 0.0173,0.018 0.017,0.018 0.0167,0.018 -1.50441,1.5047 -3.60577,2.2591 -5.72358,2.0559 -2.11781,-0.2032 -4.03741,-1.3436 -5.22837,-3.1064 -7.57652,-11.2394 -12.01324,-24.7739 -12.01324,-39.33627 0,-14.56263 4.43672,-28.09716 12.03082,-39.32423 z M 1000,955.70312 c 24.4484,0 44.2969,19.8488 44.2969,44.29688 0,24.4484 -19.8485,44.2969 -44.2969,44.2969 -24.44808,0 -44.29688,-19.8485 -44.29688,-44.2969 0,-24.44808 19.8488,-44.29688 44.29688,-44.29688 z m -40.38673,-3.05043 c -1.33692,-1.33685 -2.08884,-3.15197 -2.08884,-5.04267 0,-2.36672 1.17823,-4.58445 3.13945,-5.90928 11.23896,-7.57652 24.77349,-12.01324 39.33612,-12.01324 14.5624,0 28.0969,4.43672 39.3244,12.03082 1.7578,1.18751 2.8947,3.10134 3.0972,5.21283 0.2025,2.11148 -0.5498,4.20665 -2.0496,5.70663 0.014,0.0152 0.014,0.0155 0.014,0.0158 -3.1486,3.14852 -8.0501,3.71813 -11.8364,1.37567 -8.2814,-5.1859 -18.0696,-8.16983 -28.5497,-8.16983 -10.47973,0 -20.268,2.98393 -28.56227,8.14908 -3.77733,2.33642 -8.66553,1.76815 -11.80611,-1.3725 -0.0178,0.0173 -0.0181,0.017 -0.0183,0.0167 z"
   style="fill:#208e7a;stroke-width:0.0703125"
   id="path1" />
        </g>
        <g
   transform="matrix(0.128,0,0,0.128,-0.512,-0.262)"
   id="g2">
            <path
   d="m 972.85156,1005.003 c 0,0 -2.70028,0 -2.70028,3.7807 0,3.9537 2.44568,4.0655 3.37113,4.0655 h 4.16433 c 1.91693,6.8745 5.38728,12.0966 10.41089,15.6656 5.02369,3.5698 10.87362,5.3543 17.54977,5.3543 2.8428,0 5.4366,-0.2475 7.7836,-0.7432 2.3463,-0.4964 4.3292,-1.1573 5.9492,-1.9835 1.6193,-0.8262 2.875,-1.7845 3.7673,-2.8751 0.8923,-1.0905 1.3388,-2.264 1.3388,-3.5198 0,-1.3219 -0.3143,-2.487 -1.0906,-3.3715 -2.0285,-2.3105 -5.5441,-0.2011 -8.2294,0.843 -2.1403,0.8318 -4.7594,1.3388 -7.9326,1.3388 -3.7676,0 -7.1057,-0.893 -10.01415,-2.6775 -2.9084,-1.7845 -5.12282,-4.462 -6.64312,-8.0311 l 22.35327,-0.1118 c 0,0 3.5339,-0.7031 3.5255,-3.9537 -0.01,-3.7807 -3.5255,-3.9656 -3.3715,-3.9656 z m 0,-5.91255 c 0,0 -2.70028,0.002 -2.70028,-3.78105 0,-3.95332 2.44568,-4.06519 3.37113,-4.06519 h 4.16433 c 1.91693,-6.87452 5.38728,-12.09649 10.41089,-15.66597 5.02369,-3.56942 10.87362,-5.35416 17.54977,-5.35416 2.8428,0 5.4366,0.24792 7.7836,0.74362 2.3463,0.49578 4.3292,1.15679 5.9492,1.98303 1.6193,0.82631 2.875,1.78474 3.7673,2.87543 0.8923,1.09061 1.3388,2.26392 1.3388,3.51984 0,1.32202 -0.3143,2.48667 -1.0906,3.37113 -2.0285,2.31082 -5.5441,0.20145 -8.2294,-0.84276 -2.1403,-0.83194 -4.7594,-1.33854 -7.9326,-1.33854 -3.7676,0 -7.1057,0.89234 -10.01415,2.67708 -2.9084,1.78474 -5.12282,4.46182 -6.64312,8.0313 l 22.35327,0.11187 c 0,0 3.5339,0.70312 3.5255,3.95332 -0.01,3.78105 -3.5255,3.96605 -3.3715,3.96605 z"
   style="fill:#ffffff;fill-rule:nonzero;stroke-width:0.0703125"
   id="path2" />
        </g>
    </g>
</svg>
