<?xml version="1.0" encoding="UTF-8" standalone="no"?>
<svg
   width="72"
   height="72"
   viewBox="0 0 72 72"
   version="1.1"
   xml:space="preserve"
   style="clip-rule:evenodd;fill-rule:evenodd;stroke-linejoin:round;stroke-miterlimit:2"
   id="svg1"
   xmlns="http://www.w3.org/2000/svg"
   xmlns:svg="http://www.w3.org/2000/svg"><defs
   id="defs1" />
    <g
   transform="matrix(4,0,0,4,-573.01,-378.986)"
   id="g1">
        <path
   d="m 152.25139,112.7465 c -4.96228,0 -8.99889,-4.03647 -8.99889,-8.99889 0,-4.962269 4.03661,-9.00111 8.99889,-9.00111 4.96242,0 9.00111,4.036615 9.00111,9.00111 0,4.96465 -4.03869,8.99889 -9.00111,8.99889 z m 0,-14.48262 c -3.02249,0 -5.48151,2.45902 -5.48151,5.48151 0,3.02249 2.45902,5.48165 5.48151,5.48165 3.02249,0 5.4815,-2.45916 5.4815,-5.48165 0,-3.02249 -2.45901,-5.48151 -5.4815,-5.48151 z"
   style="fill:#282828;fill-rule:nonzero;stroke-width:0.148438"
   id="path1" />
    </g>
</svg>
