<?xml version="1.0" encoding="UTF-8" standalone="no"?>
<svg
   width="72"
   height="71.894814"
   viewBox="0 0 72 71.894814"
   version="1.1"
   xml:space="preserve"
   style="clip-rule:evenodd;fill-rule:evenodd;stroke-linejoin:round;stroke-miterlimit:2"
   id="svg1"
   xmlns="http://www.w3.org/2000/svg"
   xmlns:svg="http://www.w3.org/2000/svg"><defs
   id="defs1" />
    <g
   transform="matrix(74.7882,0,0,74.7882,35.999998,547.19956)"
   id="g1">
        <path
   d="m -0.09885937,-6.8703125 -0.17992969,-0.3124688 c -0.0184922,-0.024258 -0.0386719,-0.04718 -0.0603984,-0.068625 -0.0251719,-0.025172 -0.0537891,-0.037758 -0.0858516,-0.037758 h -0.0343125 v -0.027492 h 0.41196094 v 0.027492 h -0.0343125 c -0.03206251,0 -0.04921876,0.012586 -0.05153907,0.037758 -0.00232,0.023555 0.001969,0.04732 0.012375,0.068625 L 0.02475,-6.9300781 0.20327344,-7.1855234 c 0.0113906,-0.021024 0.0171563,-0.043031 0.0171563,-0.065883 0,-0.025172 -0.0160313,-0.037758 -0.0480938,-0.037758 h -0.0343125 v -0.027492 h 0.34333594 v 0.027492 h -0.0343828 c -0.0319922,0 -0.0638438,0.012586 -0.0954141,0.037758 -0.0260859,0.020602 -0.0462656,0.0405 -0.0603984,0.059695 l -0.00893,0.012375 -0.21564844,0.3090234 h 0.41477344 v 0.068625 H 0.09885937 l 0.18267188,0.3165469 c 0.0132891,0.020602 0.0317812,0.042117 0.0556172,0.064547 0.0265781,0.025172 0.0558281,0.037758 0.0878906,0.037758 h 0.0343125 v 0.027492 H 0.04739062 v -0.027492 h 0.0343125 c 0.03206251,0 0.04921876,-0.012586 0.05153907,-0.037758 0.00232,-0.023906 -0.00218,-0.047953 -0.0130781,-0.069328 L -0.02475,-6.7412188 -0.19842187,-6.4926641 c -0.0142031,0.021375 -0.0218672,0.046406 -0.0220078,0.07207 0,0.025172 0.0160313,0.037758 0.0480938,0.037758 h 0.0343125 v 0.027492 h -0.34333594 v -0.027492 h 0.0343828 c 0.0319922,0 0.0629297,-0.012586 0.0926719,-0.037758 0.0279141,-0.023344 0.0510469,-0.045984 0.0693281,-0.067992 l 0.21902343,-0.3131016 h -0.41540625 v -0.068625 z"
   style="fill-rule:nonzero;stroke-width:0.0703125"
   id="path1" />
    </g>
</svg>
