<?xml version="1.0" encoding="UTF-8" standalone="no"?>
<svg
   width="71.999763"
   height="72.134552"
   viewBox="0 0 71.999763 72.134552"
   version="1.1"
   xml:space="preserve"
   style="clip-rule:evenodd;fill-rule:evenodd;stroke-linejoin:round;stroke-miterlimit:2"
   id="svg7"
   xmlns="http://www.w3.org/2000/svg"
   xmlns:svg="http://www.w3.org/2000/svg"><defs
   id="defs7" />
    <g
   transform="matrix(16,0,0,16,36.964323,36.067277)"
   id="g7">
        <g
   transform="translate(-32,-32)"
   id="g6">
            <clipPath
   id="_clip1">
                <rect
   x="0"
   y="0"
   width="64"
   height="64"
   id="rect1" />
            </clipPath>
            <g
   clip-path="url(#_clip1)"
   id="g5">
                <g
   transform="matrix(0.632461,0,0,0.64,-188.632,0)"
   id="g4">
                    <g
   id="g3">
                        <g
   id="g2">
                            <g
   id="g1">
                                <path
   d="m 346.03578,52.113317 h 0.004 l -0.58137,1.408878 h 1.40888 l 0.58137,-1.408878 h -0.004 l 0.58137,-1.408878 h -1.40887 z m 6.27324,-3.522195 c 0,1.165847 -0.94747,2.113317 -2.11331,2.113317 h -2.16968 l 0.59878,-1.408878 h 1.5709 c 0.38744,0 0.70443,-0.316997 0.70443,-0.704439 0,-0.387441 -0.31699,-0.704439 -0.70443,-0.704439 h -0.97213 l 0.58468,-1.408878 h 0.38745 c 1.16584,0 2.11331,0.947471 2.11331,2.113317 z m -5.12479,0.704439 h -1.40888 l -0.58137,1.408878 h 1.40888 z m 0.99516,-2.817756 h -1.40888 l -0.58137,1.408878 h 1.40888 z"
   style="fill:#77bb65;fill-rule:nonzero;stroke-width:0.0704439"
   id="path1" />
                            </g>
                        </g>
                    </g>
                </g>
            </g>
        </g>
    </g>
</svg>
