<?xml version="1.0" encoding="UTF-8" standalone="no"?>
<svg
   width="72.001442"
   height="74.32412"
   viewBox="0 0 72.001442 74.32412"
   version="1.1"
   xml:space="preserve"
   style="clip-rule:evenodd;fill-rule:evenodd;stroke-linejoin:round;stroke-miterlimit:2"
   id="svg1"
   xmlns="http://www.w3.org/2000/svg"
   xmlns:svg="http://www.w3.org/2000/svg"><defs
   id="defs1" />
    <g
   transform="matrix(4,0,0,4,-459.9998,-474.8388)"
   id="g1">
        <path
   d="m 132.96167,124.21521 c -0.0258,-0.23153 -0.0646,-0.4614 -0.11598,-0.68857 -0.0532,-0.23328 -0.12012,-0.46329 -0.20054,-0.68865 -0.084,-0.23509 -0.18203,-0.46502 -0.2933,-0.68857 -0.11889,-0.23727 -0.2528,-0.4667 -0.40101,-0.68691 -0.10451,-0.15655 -0.2168,-0.30774 -0.33641,-0.45304 -0.0651,-0.0804 -0.1326,-0.15903 -0.20221,-0.2356 -0.15293,-0.1718 -0.31616,-0.33409 -0.48883,-0.486 -0.0772,-0.0703 -0.15677,-0.13783 -0.23865,-0.20257 -0.14595,-0.11809 -0.2975,-0.22914 -0.45406,-0.33279 -0.19481,-0.13071 -0.39738,-0.24953 -0.60648,-0.35586 -0.0282,-0.0152 -0.057,-0.0295 -0.0862,-0.0428 -0.22449,-0.1117 -0.45588,-0.20911 -0.69263,-0.29163 -0.22624,-0.0798 -0.45697,-0.1464 -0.69104,-0.19931 -0.45472,-0.1019 -0.91931,-0.15329 -1.38535,-0.15321 h -10.03885 c -0.37415,-2.2e-4 -0.73836,0.12121 -1.03747,0.34599 -0.13115,0.096 -0.24728,0.21092 -0.34475,0.34098 -0.22602,0.29678 -0.34832,0.65976 -0.34796,1.03282 v 12.38829 c 0,0.11533 0.005,0.23066 0.015,0.34432 0.0165,0.23146 0.0519,0.46125 0.10596,0.6869 0.11287,0.47983 0.30615,0.93716 0.57172,1.35247 0.005,0.009 0.0105,0.0169 0.0167,0.0248 0.15764,0.24757 0.34033,0.47831 0.54508,0.68857 0.0414,0.0445 0.0846,0.0873 0.12933,0.12847 l 0.002,0.002 c 0.21121,0.2033 0.44274,0.38431 0.69097,0.54029 0.008,0.006 0.0163,0.0116 0.025,0.0165 0.2123,0.13412 0.4357,0.24989 0.66774,0.34599 0.22449,0.0928 0.45617,0.16722 0.69271,0.22238 0.2271,0.0536 0.4582,0.0889 0.69097,0.10546 h 0.002 v 0.0148 h 5.88447 v -0.007 c 0.0973,-0.0184 0.18508,-0.0702 0.24815,-0.1464 0.0629,-0.076 0.0971,-0.17173 0.0965,-0.27036 9.4e-4,-0.0968 -0.0326,-0.19082 -0.0945,-0.26521 -0.043,-0.054 -0.0989,-0.0964 -0.16237,-0.12353 -0.0295,-0.0161 -0.0587,-0.0326 -0.0878,-0.0494 -0.11751,-0.0657 -0.23305,-0.13486 -0.34635,-0.20758 -0.11925,-0.0741 -0.23364,-0.15482 -0.34629,-0.2372 -0.032,-0.0216 -0.063,-0.0447 -0.0928,-0.0692 -0.0864,-0.0647 -0.17085,-0.13166 -0.25352,-0.20097 -0.0761,-0.0631 -0.15068,-0.12782 -0.22369,-0.19437 -0.10416,-0.094 -0.20475,-0.19176 -0.30165,-0.29323 -0.0382,-0.0377 -0.0753,-0.0767 -0.11097,-0.11693 -0.02,-0.0198 -0.0382,-0.0412 -0.0564,-0.061 -0.14777,-0.16308 -0.2872,-0.3335 -0.41777,-0.51067 -0.097,-0.13029 -0.18879,-0.26441 -0.27516,-0.40195 -0.06,-0.094 -0.11743,-0.18959 -0.1723,-0.28663 -0.12615,-0.22209 -0.23901,-0.45145 -0.33801,-0.6869 -0.0671,-0.15714 -0.12738,-0.3171 -0.18066,-0.47939 -0.0245,-0.069 -0.0467,-0.13878 -0.0663,-0.20925 -0.035,-0.11367 -0.066,-0.22849 -0.0928,-0.34433 -0.0282,-0.11402 -0.0531,-0.22884 -0.0745,-0.34432 -0.0423,-0.22776 -0.0727,-0.45762 -0.0912,-0.68857 -0.007,-0.0839 -0.0116,-0.16788 -0.0149,-0.252 -0.005,-0.0949 -0.007,-0.18995 -0.007,-0.28503 v -2.21574 h -2.29848 c -0.0991,3.7e-4 -0.19517,-0.0339 -0.27167,-0.0968 -0.0763,-0.0627 -0.12803,-0.15039 -0.14611,-0.24743 -0.0227,-0.11206 0.003,-0.22863 0.0696,-0.32124 l 0.0149,-0.0214 0.20882,-0.29657 0.12592,-0.17789 0.15083,-0.21419 0.41429,-0.58971 0.0695,-0.0989 0.48556,-0.68864 0.13754,-0.19597 0.34643,-0.49261 0.34628,-0.49086 0.13754,-0.19604 0.20882,-0.29656 0.27697,-0.39194 0.0695,-0.0989 0.41596,-0.58971 0.27508,-0.39209 0.20881,-0.29649 0.13587,-0.19277 c 0.0392,-0.056 0.0914,-0.10169 0.15206,-0.13319 0.12324,-0.064 0.27036,-0.064 0.3936,0 0.0607,0.0315 0.11287,0.0772 0.15206,0.13319 l 0.13587,0.19277 0.20715,0.2949 0.27675,0.39368 0.0696,0.0973 0.34628,0.49254 0.0696,0.0988 0.27697,0.39201 0.20881,0.29656 0.13587,0.19437 0.34803,0.49254 0.34468,0.49093 0.13921,0.19771 0.48557,0.68857 0.0679,0.0972 0.41596,0.59146 0.27697,0.39201 0.20881,0.29649 0.0149,0.0215 c 0.0671,0.0926 0.0923,0.20918 0.0696,0.32117 -0.0149,0.0756 -0.0499,0.14589 -0.10154,0.20316 -0.0517,0.0575 -0.11794,0.10001 -0.19175,0.12302 -0.0409,0.0121 -0.0833,0.0182 -0.12593,0.0181 h -2.29682 v 2.0658 c -2.1e-4,0.23646 0.0489,0.47046 0.14422,0.6869 0.0528,0.12135 0.12005,0.23589 0.20047,0.34098 0.18073,0.2385 0.41915,0.42736 0.69271,0.54864 0.21854,0.0949 0.45443,0.14378 0.69271,0.14335 0.0298,0 0.0597,0 0.0895,-0.002 0.20156,-0.002 0.40282,-0.0142 0.60315,-0.0362 0.23284,-0.0257 0.46408,-0.0642 0.69271,-0.11533 0.2255,-0.0509 0.44796,-0.11468 0.66614,-0.19111 h 0.0248 v -0.008 c 0.23683,-0.0825 0.46815,-0.17993 0.69271,-0.29155 0.234,-0.11504 0.46038,-0.24489 0.67776,-0.38882 h 0.0149 v -0.01 c 0.24351,-0.16149 0.47504,-0.34041 0.69271,-0.53536 0.0525,-0.0459 0.10394,-0.0931 0.15409,-0.14167 0.19118,-0.18109 0.37045,-0.37423 0.53688,-0.57825 0.0298,-0.0363 0.058,-0.0725 0.0862,-0.1104 0.17115,-0.21832 0.32676,-0.4484 0.46568,-0.68857 0.0495,-0.0837 0.0965,-0.16883 0.14081,-0.25534 0.0742,-0.14168 0.14269,-0.28626 0.20547,-0.43331 0.0469,-0.11366 0.0911,-0.22848 0.13261,-0.34425 0.041,-0.11286 0.078,-0.22718 0.11097,-0.34265 0.0653,-0.22645 0.11788,-0.45639 0.15743,-0.68865 0.0389,-0.22783 0.0644,-0.45776 0.0762,-0.68857 h 0.01 v -1.37736 c -2.1e-4,-0.2295 -0.013,-0.45878 -0.0383,-0.68683 z"
   style="fill:#3749e7;fill-rule:nonzero;stroke-width:0.0725806"
   id="path1" />
    </g>
</svg>
