<?xml version="1.0" encoding="UTF-8" standalone="no"?>
<svg
   width="72.000038"
   height="97.483185"
   viewBox="0 0 72.000038 97.483185"
   version="1.1"
   xml:space="preserve"
   style="clip-rule:evenodd;fill-rule:evenodd;stroke-linejoin:round;stroke-miterlimit:2"
   id="svg1"
   xmlns="http://www.w3.org/2000/svg"
   xmlns:svg="http://www.w3.org/2000/svg"><defs
   id="defs1" />
    <g
   transform="matrix(4.91778,0,0,4.91778,-2272.7305,-1611.0583)"
   id="g1">
        <path
   d="m 462.14562,342.29429 h 2.44013 v -2.22079 h -2.44013 v -2.35787 h 2.44013 V 327.5987 h 5.31892 c 2.13854,0 3.82013,0.53921 5.04476,1.61761 1.22463,1.07841 1.83695,2.58635 1.83695,4.52383 0,0.78596 -0.11881,1.55821 -0.35642,2.31675 -0.23762,0.75854 -0.61689,1.44397 -1.13782,2.05629 -0.52092,0.61231 -1.20178,1.10125 -2.04257,1.46681 -0.8408,0.36557 -1.86437,0.54835 -3.07072,0.54835 h -2.93364 v 2.16595 h 2.74172 v 2.35788 h -2.74172 v 2.76913 h -2.65946 v -2.76913 h -2.44013 z m 8.03323,-4.74316 c 0.76768,0 1.40741,-0.12338 1.9192,-0.37014 0.51178,-0.24675 0.91847,-0.57119 1.22006,-0.9733 0.30159,-0.40212 0.51636,-0.81795 0.6443,-1.24748 0.12795,-0.42954 0.19192,-0.81795 0.19192,-1.16523 0,-0.53007 -0.12337,-1.07841 -0.37013,-1.64503 -0.24675,-0.56662 -0.64887,-1.04185 -1.20635,-1.42569 -0.55749,-0.38384 -1.31146,-0.57576 -2.26192,-0.57576 h -3.07072 v 7.40263 z"
   style="fill:#003f20;fill-rule:nonzero;stroke-width:0.0951984"
   id="path1" />
    </g>
</svg>
