<?xml version="1.0" encoding="UTF-8" standalone="no"?>
<svg
   width="71.99971"
   height="71.99971"
   viewBox="0 0 71.99971 71.99971"
   version="1.1"
   xml:space="preserve"
   style="clip-rule:evenodd;fill-rule:evenodd;stroke-linejoin:round;stroke-miterlimit:2"
   id="svg3"
   xmlns="http://www.w3.org/2000/svg"
   xmlns:svg="http://www.w3.org/2000/svg"><defs
   id="defs3" />
    <g
   transform="matrix(1.23373,0,0,1.23373,-475.9981,-475.99809)"
   id="g3">
        <g
   transform="scale(0.415)"
   id="g1">
            <path
   d="m 1040.3868,1047.347 c 1.5047,1.5047 2.2591,3.6064 2.0559,5.7242 -0.2025,2.1178 -1.3436,4.0373 -3.1064,5.2277 -11.2394,7.5769 -24.7739,12.0136 -39.3363,12.0136 -14.56263,0 -28.09716,-4.4367 -39.32423,-12.0312 -1.75789,-1.1868 -2.89519,-3.1008 -3.09762,-5.2122 -0.20264,-2.1115 0.54998,-4.2068 2.05003,-5.7066 -0.0146,-0.015 -0.0143,-0.015 -0.0141,-0.016 3.1488,-3.1486 8.04958,-3.7181 11.83654,-1.3753 8.28141,5.1856 18.06968,8.1696 28.54938,8.1696 10.4801,0 20.2683,-2.984 28.5623,-8.1492 3.7772,-2.3365 8.6654,-1.7684 11.8062,1.3725 0.018,-0.017 0.018,-0.017 0.018,-0.017 z m 6.9602,-87.73373 c 1.5047,-1.50447 3.6064,-2.25935 5.7242,-2.05622 2.1178,0.203 4.0373,1.34368 5.2277,3.10683 7.5769,11.23896 12.0136,24.77349 12.0136,39.33612 0,14.5624 -4.4367,28.0969 -12.0312,39.3244 -1.1868,1.7578 -3.1008,2.8947 -5.2122,3.0972 -2.1115,0.2032 -4.2068,-0.5498 -5.7066,-2.0496 -0.015,0.014 -0.015,0.014 -0.016,0.014 -3.1486,-3.1486 -3.7181,-8.0501 -1.3753,-11.8364 5.1856,-8.2814 8.1696,-18.0696 8.1696,-28.5497 0,-10.47973 -2.984,-20.268 -8.1492,-28.56227 -2.3365,-3.77733 -1.7684,-8.66553 1.3725,-11.8061 -0.017,-0.0178 -0.017,-0.0181 -0.017,-0.0184 z m -105.62868,1.0625 c 1.32089,-1.95539 3.53208,-3.13011 5.89184,-3.13011 1.885,0 3.69471,0.74961 5.02762,2.08252 0.0152,-0.0146 0.0155,-0.0143 0.0158,-0.0141 3.14852,3.1488 3.71813,8.04958 1.37567,11.83654 -5.1859,8.28141 -8.16982,18.06968 -8.16982,28.54938 0,10.4801 2.98392,20.2683 8.14907,28.5623 2.33642,3.7772 1.76815,8.6654 -1.3725,11.8062 0.0173,0.018 0.017,0.018 0.0167,0.018 -1.50441,1.5047 -3.60577,2.2591 -5.72358,2.0559 -2.11781,-0.2032 -4.03741,-1.3436 -5.22837,-3.1064 -7.57652,-11.2394 -12.01324,-24.7739 -12.01324,-39.33627 0,-14.56263 4.43672,-28.09716 12.03082,-39.32423 z M 1000,955.70313 c 24.4484,0 44.2969,19.84879 44.2969,44.29687 0,24.4484 -19.8485,44.2969 -44.2969,44.2969 -24.44808,0 -44.29687,-19.8485 -44.29687,-44.2969 0,-24.44808 19.84879,-44.29687 44.29687,-44.29687 z m -40.38673,-3.05044 c -1.33692,-1.33685 -2.08884,-3.15197 -2.08884,-5.04267 0,-2.36672 1.17823,-4.58445 3.13945,-5.90928 11.23896,-7.57652 24.77349,-12.01324 39.33612,-12.01324 14.5624,0 28.0969,4.43672 39.3244,12.03082 1.7578,1.18751 2.8947,3.10134 3.0972,5.21283 0.2025,2.11148 -0.5498,4.20665 -2.0496,5.70663 0.014,0.0152 0.014,0.0155 0.014,0.0158 -3.1486,3.14852 -8.0501,3.71813 -11.8364,1.37567 -8.2814,-5.1859 -18.0696,-8.16982 -28.5497,-8.16982 -10.47973,0 -20.268,2.98392 -28.56227,8.14907 -3.77733,2.33642 -8.66553,1.76815 -11.8061,-1.3725 -0.0178,0.0173 -0.0181,0.017 -0.0184,0.0167 z"
   style="fill:#208e7a;stroke-width:0.0703125"
   id="path1" />
        </g>
        <g
   transform="matrix(2.03201,0,0,2.03201,-1627.21,-1436.95)"
   id="g2">
            <path
   d="m 999.97068,912.42146 c -0.40057,0 -0.45843,-0.53325 -0.45843,-0.91125 0,-0.351 0.0743,-0.59738 0.22275,-0.73913 0.1485,-0.14175 0.3307,-0.21262 0.5467,-0.21262 h 1.2353 v -4.19175 c 0,-0.243 0.071,-0.43538 0.2126,-0.57713 0.1418,-0.14175 0.3274,-0.24637 0.5569,-0.31387 0.216,-0.0675 0.4624,-0.12825 0.7391,-0.18225 0.2768,-0.054 0.5603,-0.10125 0.8505,-0.14175 0.2891,-0.0404 0.5795,-0.0708 0.8708,-0.0911 0.2904,-0.0202 0.5639,-0.0304 0.8198,-0.0304 1.6474,0 2.8856,0.3375 3.716,1.0125 0.8304,0.675 1.2453,1.593 1.2453,2.754 0,1.0935 -0.3811,1.971 -1.144,2.6325 -0.7629,0.6615 -1.8999,0.99225 -3.4123,0.99225 z m 4.11802,2.77425 v 1.35555 c 0,0 -0.047,0.63788 -0.2663,0.89107 -0.1953,0.22493 -0.6787,0.30509 -0.9082,0.30509 -0.4995,0 -0.8572,-0.0949 -1.0732,-0.28371 -0.216,-0.189 -0.324,-0.4995 -0.324,-0.9315 v -1.3365 l -1.4661,0.0177 c -0.28778,0.003 -0.4374,-0.23035 -0.4779,-0.3721 -0.0405,-0.14175 -0.0607,-0.29362 -0.0607,-0.45562 0,-0.3105 0.0641,-0.52988 0.19237,-0.65813 0.12825,-0.12825 0.28688,-0.19237 0.47593,-0.19237 0,0 6.9317,-0.0233 8.4624,0.0287 0.4358,0.0148 0.5765,0.1324 0.6398,0.34594 0.047,0.15427 0.071,0.31465 0.071,0.47588 0,0.27 -0.067,0.4725 -0.2025,0.6075 -0.135,0.135 -0.2967,0.2025 -0.4858,0.2025 z m 1.5997,-4.7385 c 0.7024,0 1.2487,-0.13838 1.6403,-0.41513 0.3917,-0.27675 0.5872,-0.68512 0.5872,-1.22512 0,-0.567 -0.2089,-0.99225 -0.6279,-1.27575 -0.4184,-0.2835 -0.9921,-0.42525 -1.7213,-0.42525 -0.2426,0 -0.4922,0.0101 -0.7488,0.0304 -0.2567,0.0202 -0.4997,0.0641 -0.7292,0.13163 v 3.17925 z"
   style="fill:#ffffff;fill-rule:nonzero;stroke-width:0.0703125"
   id="path2" />
        </g>
    </g>
</svg>
