<?xml version="1.0" encoding="UTF-8" standalone="no"?>
<svg
   width="72.005142"
   height="71.999619"
   viewBox="0 0 72.005142 71.999619"
   version="1.1"
   xml:space="preserve"
   style="clip-rule:evenodd;fill-rule:evenodd;stroke-linejoin:round;stroke-miterlimit:2"
   id="svg2"
   xmlns="http://www.w3.org/2000/svg"
   xmlns:svg="http://www.w3.org/2000/svg"><defs
   id="defs2" />
    <g
   transform="matrix(3.99977,0,0,3.99977,-475.95423,-475.94275)"
   id="g2">
        <path
   d="m 136.99635,118.99253 -6.00034,6.00034 h -3.99966 c -1.10445,0 -2.00061,0.89538 -2.00061,1.99983 0,0.22474 0.0375,0.44133 0.10562,0.64286 0.0986,0.29014 0.26272,0.55377 0.47958,0.77029 0.36187,0.36264 0.86241,0.58745 1.41463,0.58745 l -1.9999,1.99983 c -1.18609,0 -2.29201,-0.34463 -3.2234,-0.93814 -1.6701,-1.06619 -2.77687,-2.93417 -2.77687,-5.06212 0,-3.31419 2.68623,-6.00034 6.00034,-6.00034 z"
   style="fill:#b2fe92;fill-rule:nonzero;stroke-width:0.0703201"
   id="path1" />
        <path
   d="m 136.99635,130.99321 c 0,3.31411 -2.68623,6.00026 -6.00034,6.00026 H 118.9954 l 6.00034,-6.00026 h 4.00044 c 1.10444,0 1.99983,-0.89539 1.99983,-1.99984 0,-0.0285 0,-0.0563 -0.001,-0.084 0,-0.0195 -0.001,-0.0375 -0.003,-0.0562 0,-0.005 0,-0.008 -0.001,-0.0135 0,-0.012 -10e-4,-0.0247 -0.003,-0.0367 0,-0.0105 -0.001,-0.021 -0.003,-0.0314 -10e-4,-0.0105 -0.002,-0.0225 -0.005,-0.033 0,-0.007 -0.001,-0.0135 -0.002,-0.0195 -0.002,-0.018 -0.005,-0.0352 -0.008,-0.0524 0,-0.001 0,-0.003 -0.001,-0.005 -0.004,-0.0225 -0.007,-0.0442 -0.0127,-0.0667 -4.3e-4,-0.007 -0.002,-0.0138 -0.005,-0.0202 -0.005,-0.0225 -0.01,-0.0449 -0.015,-0.0674 -0.001,-0.005 -0.002,-0.009 -0.004,-0.0135 -0.005,-0.0211 -0.0112,-0.0421 -0.0172,-0.0629 -0.008,-0.0264 -0.0158,-0.0527 -0.0248,-0.0787 -0.0157,-0.0464 -0.0337,-0.0929 -0.0525,-0.13783 -0.0125,-0.0293 -0.0257,-0.0583 -0.0397,-0.0869 -0.0126,-0.0272 -0.0261,-0.0539 -0.0404,-0.0802 -0.018,-0.0337 -0.0375,-0.0667 -0.0562,-0.0989 -0.0125,-0.02 -0.0252,-0.0397 -0.0383,-0.0592 -0.0141,-0.0221 -0.0291,-0.0435 -0.0449,-0.0644 -0.007,-0.01 -0.0136,-0.0193 -0.0209,-0.0285 -0.0113,-0.0157 -0.0233,-0.0307 -0.036,-0.0465 -0.0105,-0.0142 -0.0225,-0.0285 -0.0345,-0.0427 -0.0167,-0.0197 -0.0337,-0.0392 -0.051,-0.0584 -0.0209,-0.0233 -0.0419,-0.0457 -0.0644,-0.0674 -0.37438,-0.37607 -0.88399,-0.58739 -1.41463,-0.58668 l 1.99983,-1.9999 c 0.039,0 0.0779,0 0.11688,0.002 0.0292,0 0.0584,0.001 0.0885,0.002 0.0788,0.002 0.15744,0.007 0.23599,0.0127 0.0255,0.002 0.0517,0.004 0.0772,0.007 0.0981,0.007 0.19627,0.0187 0.29296,0.0314 0.0285,0.004 0.0562,0.008 0.0847,0.012 0.0375,0.005 0.0757,0.0113 0.11315,0.018 l 0.0787,0.0135 c 0.006,10e-4 0.0127,10e-4 0.0187,0.004 0.0345,0.006 0.0697,0.0128 0.10414,0.0196 0.0435,0.009 0.0877,0.0187 0.13115,0.0284 l 0.0269,0.007 c 0.0442,0.0106 0.0892,0.021 0.13263,0.0323 0.002,0 0.003,0 0.004,0.001 0.0465,0.012 0.0922,0.0247 0.1379,0.0375 0.0472,0.0134 0.0951,0.0277 0.14162,0.0427 0.0425,0.0127 0.0847,0.0262 0.12665,0.0404 0.005,0.002 0.0112,0.004 0.0172,0.006 0.0412,0.0142 0.0831,0.0284 0.12433,0.0442 0.006,0.002 0.012,0.005 0.018,0.007 0.0435,0.0158 0.0869,0.0315 0.12967,0.0494 0.0457,0.0172 0.0907,0.036 0.13558,0.0555 0.0927,0.0386 0.18417,0.0801 0.27425,0.12439 0.041,0.0196 0.0817,0.0399 0.12214,0.0607 0.0435,0.0225 0.0862,0.0442 0.12813,0.0674 0.0427,0.0225 0.0847,0.0464 0.12664,0.0704 0.0419,0.024 0.0831,0.0487 0.1251,0.0735 0.0383,0.0232 0.0772,0.0464 0.11462,0.0704 0.004,0.002 0.007,0.004 0.0105,0.007 0.0804,0.0519 0.15956,0.10562 0.23747,0.16111 0.0784,0.0557 0.15534,0.11342 0.23079,0.17305 0.0345,0.027 0.0682,0.054 0.1019,0.0825 0.006,0.004 0.0113,0.009 0.0172,0.0134 0.10843,0.0899 0.2137,0.18361 0.31545,0.281 0.0345,0.0338 0.069,0.0667 0.10344,0.10119 0.0345,0.0345 0.0674,0.0681 0.10112,0.10337 0.033,0.0345 0.0652,0.0697 0.0982,0.10492 0.057,0.0629 0.11314,0.12664 0.16708,0.19183 0.012,0.0134 0.0233,0.0284 0.0345,0.0427 0.0262,0.0314 0.0517,0.0629 0.0772,0.0951 0.0589,0.0745 0.11582,0.15041 0.17081,0.22776 0.055,0.0774 0.002,0.002 0.002,0.003 0.0285,0.039 0.0554,0.0787 0.0824,0.11912 0.0269,0.0397 0.0532,0.0802 0.0802,0.12067 0.0255,0.0404 0.051,0.0802 0.0757,0.12137 0.005,0.008 0.01,0.0165 0.0143,0.024 0.0202,0.0337 0.0404,0.0674 0.0599,0.1019 0.024,0.042 0.048,0.0839 0.0705,0.12664 0.0172,0.0314 0.0344,0.0637 0.0509,0.0959 0.0444,0.0859 0.0869,0.17292 0.12742,0.26074 0.0112,0.024 0.0224,0.048 0.0329,0.0727 0.0165,0.0367 0.0323,0.0735 0.048,0.11089 0.0165,0.0397 0.033,0.0802 0.0487,0.1199 0.015,0.0375 0.03,0.0764 0.0435,0.11462 0.007,0.0173 0.0135,0.0352 0.0195,0.0532 0.0105,0.0277 0.0203,0.0547 0.0293,0.0824 0.0187,0.0547 0.0374,0.11012 0.0539,0.1656 0.0135,0.0404 0.0255,0.0816 0.0367,0.12214 0.004,0.0105 0.007,0.0217 0.01,0.0322 0.012,0.0427 0.0233,0.0854 0.0345,0.12812 0,0.001 10e-4,0.003 10e-4,0.005 0.0105,0.0404 0.0209,0.0816 0.0299,0.12215 0.0143,0.0599 0.0277,0.12137 0.0405,0.18206 0.007,0.036 0.0134,0.0719 0.0202,0.10864 0.008,0.0383 0.0135,0.0764 0.0195,0.11463 0.005,0.0278 0.009,0.0555 0.0135,0.084 0.005,0.0337 0.01,0.0674 0.0135,0.10112 0.003,0.021 0.005,0.0412 0.007,0.0622 0.005,0.0352 0.008,0.0712 0.012,0.1071 v 0.002 c 0.005,0.0487 0.01,0.0966 0.0135,0.14535 0,0.005 0,0.0105 0.001,0.0158 0.004,0.0457 0.006,0.0906 0.008,0.13635 0,0.006 0,0.0127 0.002,0.0195 0.002,0.0442 0.004,0.0884 0.004,0.13262 v 0.0203 c 0.002,0.048 0.002,0.0959 0.002,0.14388 z"
   style="fill:#078465;fill-rule:nonzero;stroke-width:0.0703201"
   id="path2" />
    </g>
</svg>
