<?xml version="1.0" encoding="UTF-8" standalone="no"?>
<svg
   width="72.001358"
   height="95.295204"
   viewBox="0 0 72.001358 95.295204"
   version="1.1"
   xml:space="preserve"
   style="clip-rule:evenodd;fill-rule:evenodd;stroke-linejoin:round;stroke-miterlimit:2"
   id="svg1"
   xmlns="http://www.w3.org/2000/svg"
   xmlns:svg="http://www.w3.org/2000/svg"><defs
   id="defs1" />
    <g
   transform="matrix(4.06892,0,0,4.06892,-468.20468,-464.35296)"
   id="g1">
        <path
   d="m 132.71775,123.5373 c 0.36815,-2.46092 -1.50573,-3.78387 -4.06799,-4.66637 l 0.83113,-3.33364 -2.02939,-0.5057 -0.80916,3.24579 c -0.53352,-0.13298 -1.08147,-0.25834 -1.62597,-0.38257 l 0.81494,-3.2672 -2.02818,-0.50569 -0.83178,3.33252 c -0.44158,-0.10069 -0.87506,-0.20008 -1.29588,-0.30468 l 0.002,-0.0103 -2.79873,-0.6988 -0.53984,2.1673 c 0,0 1.50573,0.34508 1.4739,0.36639 0.82192,0.2052 0.97044,0.74905 0.94559,1.1802 l -0.94671,3.79774 c 0.0566,0.0144 0.13001,0.0352 0.21097,0.0676 -0.0677,-0.0168 -0.13987,-0.0353 -0.2145,-0.0531 l -1.32706,5.32003 c -0.1006,0.24959 -0.35549,0.62416 -0.93005,0.48197 0.0203,0.0295 -1.47502,-0.36815 -1.47502,-0.36815 l -1.00748,2.32281 2.64089,0.65822 c 0.49136,0.12312 0.97277,0.25201 1.44673,0.37336 l -0.83979,3.3717 2.02706,0.50579 0.83179,-3.33597 c 0.53752,0.14574 1.07662,0.28561 1.61721,0.41962 l -0.82889,3.32033 2.02938,0.50569 0.83988,-3.36537 c 3.46058,0.65478 6.06276,0.39067 7.15809,-2.73889 0.88259,-2.51991 -0.0439,-3.97343 -1.86467,-4.92126 1.32594,-0.30571 2.32476,-1.17788 2.5912,-2.97926 z m -4.63678,6.50125 c -0.62714,2.51992 -4.87027,1.15769 -6.24599,0.81606 l 1.11441,-4.46694 c 1.37572,0.3433 5.78701,1.02302 5.13158,3.65088 z m 0.6277,-6.53773 c -0.57224,2.29219 -4.10382,1.12762 -5.24949,0.84211 l 1.01036,-4.05142 c 1.14568,0.28551 4.83509,0.81838 4.23913,3.20931 z"
   style="fill:#ef4800;fill-rule:nonzero;stroke-width:0.0930613"
   id="path1" />
    </g>
</svg>
