<?xml version="1.0" encoding="UTF-8" standalone="no"?>
<svg
   width="107.31841"
   height="107.26547"
   viewBox="0 0 107.31841 107.26547"
   version="1.1"
   xml:space="preserve"
   style="clip-rule:evenodd;fill-rule:evenodd;stroke-linejoin:round;stroke-miterlimit:2"
   id="svg2"
   xmlns="http://www.w3.org/2000/svg"
   xmlns:svg="http://www.w3.org/2000/svg"><defs
   id="defs2" />
    <g
   transform="matrix(3.95941,0,0,3.98627,-452.60089,-456.36827)"
   id="g2">
        <path
   d="m 127.91041,136.94482 c 5.03705,0 9.09232,-4.05527 9.09232,-8.96424 0,-4.90897 -4.05527,-8.96412 -9.09232,-8.96412 -5.03695,0 -9.09222,4.05515 -9.09222,8.96412 0,4.90897 4.05527,8.96424 9.09222,8.96424 z"
   style="fill:#ef4800;fill-rule:nonzero;stroke-width:0.105162"
   id="path1" />
        <path
   d="m 135.53067,137.4803 c 0.48879,0.46303 0.45903,1.25417 -0.10159,1.62718 -5.27335,3.50863 -12.43385,2.99417 -17.11703,-1.64895 -5.33582,-5.29312 -5.33582,-13.74511 0,-19.03824 4.65889,-4.65879 11.88721,-5.16104 17.16993,-1.61329 0.53569,0.35987 0.57418,1.11472 0.11788,1.57112 -0.38941,0.38931 -1.00577,0.42044 -1.46596,0.1181 -4.39251,-2.88439 -10.37708,-2.36173 -14.19973,1.46091 -4.5247,4.39662 -4.5247,11.56794 -0.0853,15.96467 3.82327,3.82327 9.80931,4.34551 14.20194,1.45933 0.46197,-0.3036 1.07854,-0.28099 1.47984,0.0992 z m 1.96947,-1.92489 c 0.46335,0.48911 1.25469,0.46188 1.63054,-0.0973 3.05843,-4.54984 3.0455,-10.5566 -0.0389,-15.09413 -0.36144,-0.5316 -1.11261,-0.56714 -1.56723,-0.11253 -0.39162,0.39152 -0.42086,1.01208 -0.11357,1.4728 2.48224,3.72221 2.47846,8.56346 -0.0113,12.34782 -0.30465,0.46303 -0.28078,1.08086 0.10043,1.48331 z"
   style="fill:#ef4800;fill-rule:nonzero;stroke-width:0.105162"
   id="path2" />
    </g>
</svg>
