<?xml version="1.0" encoding="UTF-8" standalone="no"?>
<svg
   width="71.999947"
   height="66.203377"
   viewBox="0 0 71.999947 66.203377"
   version="1.1"
   xml:space="preserve"
   style="clip-rule:evenodd;fill-rule:evenodd;stroke-linejoin:round;stroke-miterlimit:2"
   id="svg1"
   xmlns="http://www.w3.org/2000/svg"
   xmlns:svg="http://www.w3.org/2000/svg"><defs
   id="defs1" />
    <g
   transform="matrix(4.33898,0,0,4.33898,-510.71153,-550.49112)"
   id="g1">
        <path
   d="m 127.68448,135.0708 v -0.002 c -0.0946,0.007 -0.58275,0.0351 -1.66908,0.0351 -0.86864,0 -1.47776,-0.0241 -1.69327,-0.0351 v 0.002 c -3.34026,-0.1471 -5.83172,-0.72668 -5.83172,-1.42264 0,-0.6937 2.49364,-1.27546 5.83172,-1.42256 v 2.26779 c 0.21776,0.0154 0.84446,0.0527 1.70867,0.0527 1.03795,0 1.55686,-0.0439 1.65368,-0.0527 v -2.26561 c 3.33365,0.14927 5.81857,0.72886 5.81857,1.42263 0,0.69371 -2.4871,1.27329 -5.81857,1.42257 m 0,-3.08011 v -2.02852 h 4.65089 v -3.09326 h -12.66188 v 3.09326 h 4.65089 v 2.02852 c -3.78014,0.17346 -6.62125,0.9199 -6.62125,1.81561 0,0.89571 2.84329,1.64215 6.62125,1.81772 v 6.50271 h 3.36228 v -6.50271 c 3.77346,-0.1734 6.61022,-0.91983 6.61022,-1.81554 0,-0.89353 -2.83676,-1.64215 -6.61022,-1.81561"
   style="fill:#26a17b;fill-rule:nonzero;stroke-width:0.0703125"
   id="path1" />
    </g>
</svg>
