<?xml version="1.0" encoding="UTF-8" standalone="no"?>
<svg
   width="71.999969"
   height="140.75824"
   viewBox="0 0 71.999969 140.75824"
   version="1.1"
   xml:space="preserve"
   style="clip-rule:evenodd;fill-rule:evenodd;stroke-linejoin:round;stroke-miterlimit:2"
   id="svg1"
   xmlns="http://www.w3.org/2000/svg"
   xmlns:svg="http://www.w3.org/2000/svg"><defs
   id="defs1" />
    <g
   transform="matrix(3.12899,0,0,3.12899,-760.32483,-954.30409)"
   id="g1">
        <path
   d="m 255.25667,349.9731 h -4.14438 v -5.2578 h -8.1186 v -33.52622 h 8.1186 v -6.20118 h 4.14438 v 6.29396 c 2.24746,0.0412 4.13408,0.39176 5.65987,1.05156 h -0.0154 c 1.18558,0.49486 2.13913,1.39686 2.86079,2.70616 0.31959,0.60825 0.56193,1.21912 0.72688,1.83246 0.16495,0.61348 0.24743,1.24497 0.24743,1.89446 0,2.83509 -1.10311,5.14949 -3.30932,6.94332 -0.26805,0.22681 -0.5387,0.43561 -0.81183,0.62627 -0.27327,0.19079 -0.58517,0.39437 -0.93569,0.61086 1.00002,0.36083 1.91508,0.83768 2.74492,1.4304 0.82998,0.59286 1.55411,1.29129 2.17267,2.09542 0.93816,1.23713 1.40731,2.83509 1.40731,4.79388 0,1.70106 -0.433,3.2784 -1.29899,4.73202 -0.84537,1.43301 -2.02064,2.55674 -3.52582,3.37118 -1.51548,0.83507 -3.4898,1.28359 -5.92283,1.34545 z m 0,-25.09834 c 0.23712,-0.0619 0.48716,-0.14942 0.75012,-0.26282 0.26282,-0.1134 0.53856,-0.24743 0.82722,-0.40207 0.32991,-0.17526 0.6495,-0.43299 0.95878,-0.7732 0.30928,-0.34021 0.58764,-0.75781 0.83506,-1.25267 0.24743,-0.50516 0.43561,-0.98448 0.56455,-1.43809 0.1288,-0.45362 0.19326,-0.89183 0.19326,-1.31452 0,-1.04125 -0.42791,-1.92264 -1.28359,-2.6443 -0.49485,-0.48454 -1.44332,-0.82997 -2.8454,-1.03616 z m -4.14438,-9.21662 h -2.72169 v 9.57236 h 2.72169 z m 4.14438,24.61889 c 0.36083,-0.0206 0.70888,-0.0593 1.04387,-0.11602 0.33512,-0.0566 0.6675,-0.13649 0.9974,-0.23959 0.36083,-0.1134 0.69073,-0.25526 0.9897,-0.4253 0.29897,-0.17017 0.57224,-0.36852 0.81967,-0.59533 h -0.0155 c 0.92784,-0.89692 1.39177,-2.00003 1.39177,-3.30932 0,-1.00002 -0.28867,-1.95371 -0.86599,-2.86093 h 0.0155 c -0.52578,-0.80414 -1.37115,-1.48456 -2.53612,-2.04127 -0.62887,-0.30928 -1.24235,-0.55148 -1.8403,-0.72674 z m -6.86607,-10.63932 v 10.65485 h 2.72169 v -10.65485 z"
   style="fill:#003f20;fill-rule:nonzero;stroke-width:0.137459"
   id="path1" />
    </g>
</svg>
