<?xml version="1.0" encoding="UTF-8" standalone="no"?>
<svg
   width="71.999992"
   height="72"
   viewBox="0 0 71.999992 72"
   version="1.1"
   xml:space="preserve"
   style="clip-rule:evenodd;fill-rule:evenodd;stroke-linejoin:round;stroke-miterlimit:2"
   id="svg4"
   xmlns="http://www.w3.org/2000/svg"
   xmlns:svg="http://www.w3.org/2000/svg"><defs
   id="defs4" />
    <g
   transform="matrix(4,0,0,4,35.999995,36)"
   id="g4">
        <g
   transform="translate(-128,-128)"
   id="g3">
            <g
   transform="scale(0.128)"
   id="g1">
                <path
   d="m 1040.3868,1047.347 c 1.5047,1.5047 2.2591,3.6064 2.0559,5.7242 -0.2025,2.1178 -1.3436,4.0373 -3.1064,5.2277 -11.2394,7.5769 -24.7739,12.0136 -39.3363,12.0136 -14.56263,0 -28.09716,-4.4367 -39.32423,-12.0312 -1.75789,-1.1868 -2.89519,-3.1008 -3.09762,-5.2122 -0.20264,-2.1115 0.54998,-4.2068 2.05003,-5.7066 -0.0146,-0.015 -0.0143,-0.015 -0.0141,-0.016 3.1488,-3.1486 8.04958,-3.7181 11.83654,-1.3753 8.28141,5.1856 18.06968,8.1696 28.54938,8.1696 10.4801,0 20.2683,-2.984 28.5623,-8.1492 3.7772,-2.3365 8.6654,-1.7684 11.8062,1.3725 0.018,-0.017 0.018,-0.017 0.018,-0.017 z m 6.9602,-87.73373 c 1.5047,-1.50447 3.6064,-2.25935 5.7242,-2.05622 2.1178,0.203 4.0373,1.34368 5.2277,3.10683 7.5769,11.23896 12.0136,24.77349 12.0136,39.33612 0,14.5624 -4.4367,28.0969 -12.0312,39.3244 -1.1868,1.7578 -3.1008,2.8947 -5.2122,3.0972 -2.1115,0.2032 -4.2068,-0.5498 -5.7066,-2.0496 -0.015,0.014 -0.015,0.014 -0.016,0.014 -3.1486,-3.1486 -3.7181,-8.0501 -1.3753,-11.8364 5.1856,-8.2814 8.1696,-18.0696 8.1696,-28.5497 0,-10.47973 -2.984,-20.268 -8.1492,-28.56227 -2.3365,-3.77733 -1.7684,-8.66553 1.3725,-11.80611 -0.017,-0.0178 -0.017,-0.0181 -0.017,-0.0183 z m -105.62868,1.0625 c 1.32089,-1.9554 3.53208,-3.13011 5.89184,-3.13011 1.885,0 3.69471,0.74961 5.02762,2.08252 0.0152,-0.0146 0.0155,-0.0143 0.0158,-0.0141 3.14852,3.1488 3.71813,8.04958 1.37567,11.83654 -5.1859,8.28141 -8.16983,18.06968 -8.16983,28.54938 0,10.4801 2.98393,20.2683 8.14908,28.5623 2.33642,3.7772 1.76815,8.6654 -1.3725,11.8062 0.0173,0.018 0.017,0.018 0.0167,0.018 -1.50441,1.5047 -3.60577,2.2591 -5.72358,2.0559 -2.11781,-0.2032 -4.03741,-1.3436 -5.22837,-3.1064 -7.57652,-11.2394 -12.01324,-24.7739 -12.01324,-39.33627 0,-14.56263 4.43672,-28.09716 12.03082,-39.32423 z M 1000,955.70312 c 24.4484,0 44.2969,19.8488 44.2969,44.29688 0,24.4484 -19.8485,44.2969 -44.2969,44.2969 -24.44808,0 -44.29688,-19.8485 -44.29688,-44.2969 0,-24.44808 19.8488,-44.29688 44.29688,-44.29688 z m -40.38673,-3.05043 c -1.33692,-1.33685 -2.08884,-3.15197 -2.08884,-5.04267 0,-2.36672 1.17823,-4.58445 3.13945,-5.90928 11.23896,-7.57652 24.77349,-12.01324 39.33612,-12.01324 14.5624,0 28.0969,4.43672 39.3244,12.03082 1.7578,1.18751 2.8947,3.10134 3.0972,5.21283 0.2025,2.11148 -0.5498,4.20665 -2.0496,5.70663 0.014,0.0152 0.014,0.0155 0.014,0.0158 -3.1486,3.14852 -8.0501,3.71813 -11.8364,1.37567 -8.2814,-5.1859 -18.0696,-8.16983 -28.5497,-8.16983 -10.47973,0 -20.268,2.98393 -28.56227,8.14908 -3.77733,2.33642 -8.66553,1.76815 -11.80611,-1.3725 -0.0178,0.0173 -0.0181,0.017 -0.0183,0.0167 z"
   style="fill:#208e7a;stroke-width:0.0703125"
   id="path1" />
            </g>
            <g
   transform="matrix(0.49705,0,0,0.49705,-374.924,-322.765)"
   id="g2">
                <path
   d="m 1015.7575,906.38893 c 0.1526,-0.18324 0.2862,-0.38693 0.4001,-0.61116 0.2489,-0.49022 0.3726,-1.00624 0.3726,-1.54779 v -0.98936 c 0,-1.03894 -0.4057,-1.87313 -1.2143,-2.5039 -0.7347,-0.5727 -1.6896,-0.88123 -2.8736,-0.90071 v -1.54251 c 0,-0.28083 -0.2314,-0.51188 -0.5119,-0.51195 h -1.3444 c -0.2808,0 -0.5119,0.23112 -0.5119,0.51195 v 1.54153 h -2.0079 c -0.9841,0 -1.7818,0.79777 -1.7818,1.78179 v 10.58449 c 0,0.51145 0.1686,0.92201 0.486,1.2394 0.3174,0.31781 0.728,0.48586 1.2394,0.48586 h 2.0643 v 1.54195 c 0,0.28266 0.2292,0.51188 0.5119,0.51188 h 1.3444 c 0.2805,0 0.5119,-0.23133 0.5119,-0.51188 v -1.54195 h 0.7945 c 1.2586,0 2.25,-0.36492 2.9855,-1.06509 0.746,-0.71016 1.1299,-1.64918 1.1299,-2.82565 v -0.89607 c 0,-0.7432 -0.2222,-1.3926 -0.661,-1.95004 -0.2601,-0.33096 -0.5709,-0.59822 -0.9337,-0.80079 z m -0.8107,2.75083 v 0.89607 c 0,0.48867 -0.1533,0.88467 -0.4774,1.18068 -0.3446,0.31409 -0.8206,0.45415 -1.4189,0.45415 h -4.3607 v -3.75511 h 4.734 c 0.4711,0 0.855,0.10913 1.1433,0.35417 0.2566,0.21846 0.3797,0.51019 0.3797,0.87004 z m -6.257,-3.40558 v -3.6431 h 3.6322 c 0.5618,0 1.0224,0.11264 1.3746,0.36288 0.282,0.19997 0.4282,0.46005 0.4282,0.78666 v 0.98936 c 0,0.45992 -0.1209,0.83293 -0.3881,1.10975 -0.2608,0.27014 -0.611,0.39445 -1.0413,0.39445 z"
   style="fill:#ffffff;fill-rule:nonzero;stroke-width:0.0703125"
   id="path2" />
            </g>
        </g>
    </g>
</svg>
