<?xml version="1.0" encoding="UTF-8" standalone="no"?>
<svg
   width="71.999878"
   height="29.670511"
   viewBox="0 0 71.999878 29.670511"
   version="1.1"
   xml:space="preserve"
   style="clip-rule:evenodd;fill-rule:evenodd;stroke-linejoin:round;stroke-miterlimit:2"
   id="svg3"
   xmlns="http://www.w3.org/2000/svg"
   xmlns:svg="http://www.w3.org/2000/svg"><defs
   id="defs3" />
    <g
   transform="matrix(4,0,0,4,35.98388,14.337444)"
   id="g3">
        <g
   transform="translate(-128,-53)"
   id="g2">
            <clipPath
   id="_clip1">
                <rect
   x="0"
   y="0"
   width="256"
   height="106"
   id="rect1" />
            </clipPath>
            <g
   clip-path="url(#_clip1)"
   id="g1">
                <path
   d="m 123.59112,51.078948 h 1.35548 c 0.0634,0 0.11461,0.05105 0.11461,0.114258 v 3.721148 c 0,0.06328 -0.0512,0.114258 -0.11461,0.114258 h -1.35548 c -0.0634,0 -0.11461,-0.05105 -0.11461,-0.114258 v -3.721148 c 0,-0.06321 0.0512,-0.114258 0.11461,-0.114258 z m 4.98536,-0.06602 c 0.66896,0 1.17978,0.17325 1.53197,0.519891 0.34348,0.337781 0.51497,0.820758 0.51497,1.448086 v 1.93289 c 0,0.06328 -0.0512,0.114258 -0.11461,0.114258 h -1.35541 c -0.0634,0 -0.11461,-0.05105 -0.11461,-0.114258 v -1.906664 c 0,-0.452109 -0.33012,-0.677953 -0.99028,-0.677953 -0.66017,0 -0.99021,0.226266 -0.99021,0.677953 v 1.906664 c 0,0.06328 -0.0513,0.114258 -0.11461,0.114258 h -1.35549 c -0.0634,0 -0.11461,-0.05105 -0.11461,-0.114258 v -3.721078 c 0,-0.06328 0.0512,-0.114328 0.11461,-0.114328 h 1.35549 c 0.0633,0 0.11461,0.05105 0.11461,0.114328 v 0.326743 c 0.35184,-0.3375 0.85802,-0.506532 1.51818,-0.506532 z m 8.42752,0.116157 c -2.1e-4,-0.06188 -0.0505,-0.113063 -0.11236,-0.114258 -0.25636,-0.0069 -0.83932,0.0438 -1.2221,0.303187 -0.0921,0.06244 -0.18113,0.126071 -0.26023,0.201797 v 7.74e-4 c -0.4519,-0.338204 -1.09715,-0.507657 -1.93802,-0.507657 -0.86266,0 -1.52325,0.180141 -1.98091,0.539649 -0.44009,0.351211 -0.66017,0.851273 -0.66017,1.501031 0,0.649406 0.22008,1.149891 0.66017,1.501031 0.29418,0.231188 0.67239,0.387703 1.13392,0.470391 v 3.51e-4 c 0.26818,0.04992 0.58107,0.07545 0.95548,0.07165 0.10575,-0.0032 0.21136,-0.0094 0.31669,-0.0187 0.0829,-0.0063 0.16551,-0.01491 0.24792,-0.02587 0.0494,-0.006 0.0987,-0.01259 0.14787,-0.01983 0.11144,-0.01674 0.21691,0.0611 0.23379,0.172546 0.0163,0.111446 -0.0619,0.216633 -0.17339,0.233086 -0.29918,0.04423 -0.62508,0.07088 -0.87223,0.07088 -0.29377,0 -0.56813,-0.01983 -0.82252,-0.05941 -0.16706,-0.02545 -0.33229,-0.06173 -0.49471,-0.108562 -0.0585,-0.01681 -0.1208,0.01575 -0.14028,0.07348 l -0.33462,1.000969 c -0.019,0.05723 0.0103,0.120235 0.0665,0.142453 0.4275,0.171774 0.90809,0.234563 1.36582,0.259735 0.63035,0.03466 1.30964,0.01983 1.92354,-0.136336 0.15054,-0.03811 0.30066,-0.08838 0.43706,-0.160735 0.0901,-0.0476 0.17459,-0.105117 0.24912,-0.174867 0.17072,-0.159961 0.28118,-0.377437 0.33384,-0.60518 0.10849,-0.466593 0.0459,-1.039781 -0.40802,-1.299515 -0.0156,-0.0088 -0.0324,-0.01758 -0.0496,-0.02587 0.33658,-0.33975 0.50505,-0.793828 0.50505,-1.361672 0,-0.252914 -0.034,-0.482906 -0.10047,-0.690469 0.11348,-0.02215 0.24258,-0.03396 0.38819,-0.03396 0.17796,0 0.33195,0.01638 0.46189,0.04957 0.009,0.0023 0.0184,0.0034 0.0278,0.0034 0.0626,0 0.11426,-0.05161 0.11426,-0.114258 0,0 0,-7e-5 0,-7e-5 z m -3.53271,1.200515 c 0.70404,0 1.0563,0.241453 1.0563,0.724008 0,0.482977 -0.35226,0.724078 -1.0563,0.724078 -0.70453,0 -1.05638,-0.241523 -1.05638,-0.724078 0,-0.482555 0.35185,-0.724008 1.05638,-0.724008 z m -10.40702,-0.114609 v -1.021922 c 0,-0.06321 -0.0511,-0.114258 -0.11461,-0.114258 h -1.46968 V 49.53053 c 0,-0.07805 -0.0768,-0.132891 -0.15089,-0.108492 l -1.35548,0.451336 c -0.0466,0.01547 -0.0783,0.05934 -0.0783,0.108492 v 1.097297 h -0.77667 c -0.0634,0 -0.11461,0.05105 -0.11461,0.114257 v 1.021571 c 0,0.06321 0.0512,0.114258 0.11461,0.114258 h 0.77667 v 1.254164 c 0,0.548437 0.1826,0.941484 0.54788,1.178437 0.34762,0.223594 0.91343,0.335531 1.69699,0.335531 0.29461,0 0.57115,-0.02285 0.83053,-0.0682 0.054,-0.0098 0.0937,-0.05738 0.0937,-0.112289 v -1.081687 c 0,-0.07158 -0.0654,-0.125297 -0.13606,-0.112008 -0.20855,0.03888 -0.40535,0.05794 -0.5902,0.05794 -0.29496,0 -0.50625,-0.02672 -0.6338,-0.07924 -0.14976,-0.05674 -0.2243,-0.162281 -0.2243,-0.315703 v -1.057008 h 1.46968 c 0.0635,0 0.11461,-0.05105 0.11461,-0.114258 z m 1.88233,-1.546664 h -1.35548 c -0.0634,0 -0.11461,-0.05105 -0.11461,-0.114258 v -1.024172 c 0,-0.06328 0.0512,-0.114258 0.11461,-0.114258 h 1.35548 c 0.0634,0 0.11461,0.05105 0.11461,0.114258 v 1.024172 c 0,0.06286 -0.0515,0.114258 -0.11461,0.114258 z"
   style="fill:#ff9920;fill-rule:nonzero;stroke-width:0.0703125"
   id="path1" />
            </g>
        </g>
    </g>
</svg>
