<?xml version="1.0" encoding="UTF-8" standalone="no"?>
<svg
   width="71.999985"
   height="95.85923"
   viewBox="0 0 71.999985 95.85923"
   version="1.1"
   xml:space="preserve"
   style="clip-rule:evenodd;fill-rule:evenodd;stroke-linejoin:round;stroke-miterlimit:2"
   id="svg1"
   xmlns="http://www.w3.org/2000/svg"
   xmlns:svg="http://www.w3.org/2000/svg"><defs
   id="defs1" />
    <g
   transform="matrix(4.02784,0,0,4.02784,-348.18948,-467.59564)"
   id="g1">
        <path
   d="m 86.445708,121.5501 c 0,-0.85833 0.697437,-1.55529 1.556794,-1.55529 h 7.381045 l 3.821614,-3.64611 c 0.360197,-0.34371 0.934509,-0.34371 1.294709,0 l 3.82142,3.6462 v 14.34979 c 0,0.90593 -0.73604,1.64132 -1.64291,1.64132 h -7.295021 l -3.821426,3.64629 c -0.360197,0.34371 -0.934602,0.34371 -1.294799,0 l -3.821426,-3.64639 z m 11.48555,5.59777 c -0.172227,0.17195 -0.455494,0.17195 -0.627721,0 l -2.81e-4,-2.8e-4 -1.228925,-1.22743 c -0.381281,-0.38109 -1.000756,-0.38109 -1.382037,0 l -1.228831,1.22771 c -0.172415,0.17185 -0.4554,0.17185 -0.627815,0 l -2.81e-4,-2.8e-4 -1.229675,-1.22846 c -0.381561,-0.38119 -1.000756,-0.38119 -1.382317,0 l -1.382318,1.38091 c -0.381281,0.3811 -0.381281,0.99973 0,1.38092 l 1.382318,1.38063 c 0.381561,0.38118 1.000756,0.38118 1.382317,0 l 1.229956,-1.22874 c 0.171665,-0.17129 0.453901,-0.1712 0.625379,2.8e-4 h 5.62e-4 l 1.230705,1.22958 c 0.381281,0.38109 1.000756,0.38109 1.382037,0 l 1.230799,-1.22958 c 0.171946,-0.17157 0.454463,-0.17157 0.626409,0 l 1.229769,1.22846 c 0.381468,0.38118 1.000752,0.38118 1.382222,0 l 1.38232,-1.38063 c 0.38128,-0.38119 0.38128,-0.99982 0,-1.38092 l -1.38232,-1.38091 c -0.38147,-0.38119 -1.000754,-0.38119 -1.382222,0 z"
   style="fill:#f1a200;stroke-width:0.0937038"
   id="path1" />
    </g>
</svg>
