<?xml version="1.0" encoding="UTF-8" standalone="no"?>
<svg
   width="72.000038"
   height="110.79031"
   viewBox="0 0 72.000038 110.79031"
   version="1.1"
   xml:space="preserve"
   style="clip-rule:evenodd;fill-rule:evenodd;stroke-linejoin:round;stroke-miterlimit:2"
   id="svg1"
   xmlns="http://www.w3.org/2000/svg"
   xmlns:svg="http://www.w3.org/2000/svg"><defs
   id="defs1" />
    <g
   transform="matrix(4.36557,0,0,4.36557,-1380.992,-1847.3887)"
   id="g1">
        <path
   d="m 323.85314,445.97927 c -2.17058,-0.0811 -3.87214,-0.59084 -5.10446,-1.52909 -1.23244,-0.93815 -2.03632,-2.34553 -2.41153,-4.22204 l 3.4689,-0.6694 c 0.21303,1.16644 0.64408,2.02863 1.29324,2.58648 0.64916,0.55785 1.56718,0.88751 2.75385,0.98889 v -6.48144 c -0.45636,-0.11155 -0.93826,-0.24084 -1.44536,-0.38799 -0.50721,-0.14703 -0.989,-0.30424 -1.44536,-0.47161 -0.45646,-0.16738 -0.83179,-0.33724 -1.12597,-0.5097 -0.90266,-0.51728 -1.57973,-1.15638 -2.03111,-1.91708 -0.45139,-0.76071 -0.67708,-1.70405 -0.67708,-2.82991 0,-1.65331 0.57559,-2.93389 1.72688,-3.84174 1.15129,-0.90785 2.81725,-1.40738 4.998,-1.49859 v -2.02365 h 1.73456 v 2.02365 c 1.25775,0.0608 2.32778,0.25858 3.21021,0.59333 0.88253,0.33475 1.61024,0.86977 2.18335,1.60516 0.5731,0.73539 1.01691,1.72688 1.33132,2.97446 l -3.56022,0.56293 c -0.17246,-0.90277 -0.50721,-1.60256 -1.00425,-2.0996 -0.49694,-0.49704 -1.21718,-0.80128 -2.16041,-0.91294 v 5.8273 c 0.45636,0.0913 0.94832,0.20795 1.47576,0.3499 0.52744,0.14206 1.10563,0.32458 1.73445,0.54779 1.37947,0.49693 2.39638,1.18926 3.05063,2.07677 0.65424,0.88751 0.98131,2.01089 0.98131,3.37001 0,1.7852 -0.61616,3.18241 -1.84859,4.19175 -1.23233,1.00923 -3.03029,1.56458 -5.39356,1.66596 v 2.60173 h -1.73456 z m -3.19506,-15.50381 c 0,0.50721 0.0964,0.92311 0.28909,1.24769 0.21303,0.38539 0.53502,0.68973 0.96617,0.91283 0.43104,0.2232 1.07771,0.46664 1.9398,0.73031 v -5.50771 c -2.13001,0.14195 -3.19506,1.01432 -3.19506,2.61688 z m 8.65721,9.67662 c 0,-0.55785 -0.10397,-1.01432 -0.31192,-1.3693 -0.20795,-0.35509 -0.5097,-0.64916 -0.90526,-0.88253 -0.40572,-0.2231 -1.2426,-0.51219 -2.51041,-0.86718 v 6.10104 c 1.22724,-0.0812 2.15532,-0.37273 2.78425,-0.87485 0.62882,-0.50202 0.94334,-1.20442 0.94334,-2.10718 z"
   style="fill:#003f20;fill-rule:nonzero;stroke-width:0.108194"
   id="path1" />
    </g>
</svg>
