<?xml version="1.0" encoding="UTF-8" standalone="no"?>
<svg
   width="71.999992"
   height="72"
   viewBox="0 0 71.999992 72"
   version="1.1"
   xml:space="preserve"
   style="clip-rule:evenodd;fill-rule:evenodd;stroke-linejoin:round;stroke-miterlimit:2"
   id="svg2"
   xmlns="http://www.w3.org/2000/svg"
   xmlns:svg="http://www.w3.org/2000/svg"><defs
   id="defs2" />
    <g
   transform="matrix(0.512,0,0,0.512,-476.00001,-476)"
   id="g1">
        <path
   d="m 1040.3868,1047.347 c 1.5047,1.5047 2.2591,3.6064 2.0559,5.7242 -0.2025,2.1178 -1.3436,4.0373 -3.1064,5.2277 -11.2394,7.5769 -24.7739,12.0136 -39.3363,12.0136 -14.56263,0 -28.09716,-4.4367 -39.32423,-12.0312 -1.75789,-1.1868 -2.89519,-3.1008 -3.09762,-5.2122 -0.20264,-2.1115 0.54998,-4.2068 2.05003,-5.7066 -0.0146,-0.015 -0.0143,-0.015 -0.0141,-0.016 3.1488,-3.1486 8.04958,-3.7181 11.83654,-1.3753 8.28141,5.1856 18.06968,8.1696 28.54938,8.1696 10.4801,0 20.2683,-2.984 28.5623,-8.1492 3.7772,-2.3365 8.6654,-1.7684 11.8062,1.3725 0.018,-0.017 0.018,-0.017 0.018,-0.017 z m 6.9602,-87.73373 c 1.5047,-1.50447 3.6064,-2.25935 5.7242,-2.05622 2.1178,0.203 4.0373,1.34368 5.2277,3.10683 7.5769,11.23896 12.0136,24.77349 12.0136,39.33612 0,14.5624 -4.4367,28.0969 -12.0312,39.3244 -1.1868,1.7578 -3.1008,2.8947 -5.2122,3.0972 -2.1115,0.2032 -4.2068,-0.5498 -5.7066,-2.0496 -0.015,0.014 -0.015,0.014 -0.016,0.014 -3.1486,-3.1486 -3.7181,-8.0501 -1.3753,-11.8364 5.1856,-8.2814 8.1696,-18.0696 8.1696,-28.5497 0,-10.47973 -2.984,-20.268 -8.1492,-28.56227 -2.3365,-3.77733 -1.7684,-8.66553 1.3725,-11.80611 -0.017,-0.0178 -0.017,-0.0181 -0.017,-0.0183 z m -105.62868,1.0625 c 1.32089,-1.9554 3.53208,-3.13011 5.89184,-3.13011 1.885,0 3.69471,0.74961 5.02762,2.08252 0.0152,-0.0146 0.0155,-0.0143 0.0158,-0.0141 3.14852,3.1488 3.71813,8.04958 1.37567,11.83654 -5.1859,8.28141 -8.16983,18.06968 -8.16983,28.54938 0,10.4801 2.98393,20.2683 8.14908,28.5623 2.33642,3.7772 1.76815,8.6654 -1.3725,11.8062 0.0173,0.018 0.017,0.018 0.0167,0.018 -1.50441,1.5047 -3.60577,2.2591 -5.72358,2.0559 -2.11781,-0.2032 -4.03741,-1.3436 -5.22837,-3.1064 -7.57652,-11.2394 -12.01324,-24.7739 -12.01324,-39.33627 0,-14.56263 4.43672,-28.09716 12.03082,-39.32423 z M 1000,955.70312 c 24.4484,0 44.2969,19.8488 44.2969,44.29688 0,24.4484 -19.8485,44.2969 -44.2969,44.2969 -24.44808,0 -44.29688,-19.8485 -44.29688,-44.2969 0,-24.44808 19.8488,-44.29688 44.29688,-44.29688 z m -40.38673,-3.05043 c -1.33692,-1.33685 -2.08884,-3.15197 -2.08884,-5.04267 0,-2.36672 1.17823,-4.58445 3.13945,-5.90928 11.23896,-7.57652 24.77349,-12.01324 39.33612,-12.01324 14.5624,0 28.0969,4.43672 39.3244,12.03082 1.7578,1.18751 2.8947,3.10134 3.0972,5.21283 0.2025,2.11148 -0.5498,4.20665 -2.0496,5.70663 0.014,0.0152 0.014,0.0155 0.014,0.0158 -3.1486,3.14852 -8.0501,3.71813 -11.8364,1.37567 -8.2814,-5.1859 -18.0696,-8.16983 -28.5497,-8.16983 -10.47973,0 -20.268,2.98393 -28.56227,8.14908 -3.77733,2.33642 -8.66553,1.76815 -11.80611,-1.3725 -0.0178,0.0173 -0.0181,0.017 -0.0183,0.0167 z"
   style="fill:#208e7a;stroke-width:0.0703125"
   id="path1" />
    </g>
    <g
   transform="matrix(0.512,0,0,0.512,-473.86801,-481.332)"
   id="g2">
        <path
   d="m 1015.4647,1020.8144 c 0,-10.2537 -6.1524,-13.7693 -18.45707,-15.2339 -8.78906,-1.1721 -10.54688,-3.5156 -10.54688,-7.61766 0,-4.10203 2.92993,-6.73805 8.78907,-6.73805 5.27348,0 8.20338,1.75781 9.66798,6.15235 0.2932,0.8789 1.1721,1.46461 2.051,1.46461 h 4.687 c 1.1721,0 2.051,-0.87891 2.051,-2.05032 v -0.2932 c -1.1721,-6.44555 -6.4455,-11.42578 -13.1835,-12.01148 v -7.03125 c 0,-1.17211 -0.87895,-2.05102 -2.34356,-2.34422 h -4.39453 c -1.17211,0 -2.05102,0.8789 -2.34422,2.34422 v 6.73804 c -8.78906,1.17211 -14.355,7.03125 -14.355,14.35571 0,9.66795 5.85914,13.47605 18.16383,14.94145 8.20338,1.4646 10.84008,3.2224 10.84008,7.9101 0,4.6877 -4.102,7.9102 -9.66797,7.9102 -7.61766,0 -10.25438,-3.2232 -11.13328,-7.6177 -0.2925,-1.1714 -1.17141,-1.7578 -2.05032,-1.7578 h -4.98093 c -1.17141,0 -2.05032,0.8789 -2.05032,2.051 v 0.2932 c 1.17141,7.3238 5.85914,12.5972 15.52711,14.0625 v 7.0313 c 0,1.1714 0.87891,2.0503 2.34352,2.3435 h 4.39453 c 1.17211,0 2.05106,-0.8789 2.34426,-2.3435 v -7.0313 c 8.789,-1.4653 14.6482,-7.6176 14.6482,-15.5278 z"
   style="fill:#ffffff;fill-rule:nonzero;stroke-width:0.0703125"
   id="path2" />
    </g>
</svg>
