<?xml version="1.0" encoding="UTF-8" standalone="no"?>
<svg
   width="72.001366"
   height="95.29512"
   viewBox="0 0 72.001366 95.29512"
   version="1.1"
   xml:space="preserve"
   style="clip-rule:evenodd;fill-rule:evenodd;stroke-linejoin:round;stroke-miterlimit:2"
   id="svg1"
   xmlns="http://www.w3.org/2000/svg"
   xmlns:svg="http://www.w3.org/2000/svg"><defs
   id="defs1" />
    <g
   transform="matrix(4.06892,0,0,4.06892,-468.14003,-464.353)"
   id="g1">
        <path
   d="m 132.70184,123.5373 c 0.36824,-2.46091 -1.50564,-3.78387 -4.06798,-4.66637 l 0.83113,-3.33363 -2.02939,-0.5057 -0.80916,3.24579 c -0.53352,-0.13298 -1.08147,-0.25834 -1.62597,-0.38257 l 0.81503,-3.26719 -2.02826,-0.5057 -0.83169,3.33252 c -0.44167,-0.10069 -0.87515,-0.20008 -1.29597,-0.30468 l 0.002,-0.0103 -2.79872,-0.6988 -0.53976,2.1673 c 0,0 1.50573,0.34507 1.47381,0.36639 0.82201,0.2052 0.97053,0.74904 0.94569,1.1802 l -0.94681,3.79773 c 0.0567,0.0144 0.1301,0.0352 0.21097,0.0676 -0.0677,-0.0168 -0.13987,-0.0353 -0.21441,-0.0531 l -1.32705,5.32003 c -0.10069,0.24959 -0.3555,0.62416 -0.93005,0.48196 0.0202,0.0295 -1.47502,-0.36815 -1.47502,-0.36815 l -1.00758,2.32281 2.64089,0.65822 c 0.49136,0.12312 0.97286,0.25201 1.44682,0.37336 l -0.83987,3.3717 2.02705,0.50579 0.83178,-3.33597 c 0.53753,0.14574 1.07663,0.28561 1.61722,0.41962 l -0.8288,3.32032 2.02938,0.5057 0.83979,-3.36537 c 3.46057,0.65478 6.06274,0.39067 7.15807,-2.73888 0.88259,-2.51991 -0.0439,-3.97343 -1.86466,-4.92126 1.32593,-0.30571 2.32476,-1.17788 2.59119,-2.97926 z m -4.63677,6.50125 c -0.62714,2.51991 -4.87026,1.15768 -6.24589,0.81605 l 1.11441,-4.46693 c 1.37563,0.3433 5.787,1.02302 5.13148,3.65088 z m 0.6277,-6.53773 c -0.57224,2.29219 -4.10381,1.12762 -5.2494,0.84211 l 1.01037,-4.05142 c 1.14558,0.28551 4.83499,0.81838 4.23903,3.20931 z"
   style="fill-rule:nonzero;stroke-width:0.0930611"
   id="path1" />
    </g>
</svg>
