<?xml version="1.0" encoding="UTF-8" standalone="no"?>
<svg
   width="71.999557"
   height="71.998817"
   viewBox="0 0 71.999557 71.998817"
   version="1.1"
   xml:space="preserve"
   style="clip-rule:evenodd;fill-rule:evenodd;stroke-linejoin:round;stroke-miterlimit:2"
   id="svg5"
   xmlns="http://www.w3.org/2000/svg"
   xmlns:svg="http://www.w3.org/2000/svg"><defs
   id="defs5" />
    <g
   transform="matrix(4,0,0,4,36.002157,36.00264)"
   id="g5">
        <g
   transform="translate(-128,-128)"
   id="g4">
            <g
   id="g3">
                <clipPath
   id="_clip1">
                    <rect
   x="0"
   y="0"
   width="256"
   height="256"
   id="rect1" />
                </clipPath>
                <g
   clip-path="url(#_clip1)"
   id="g2">
                    <g
   id="g1">
                        <path
   d="m 136.87825,127.05658 c -0.0252,-0.37118 -0.1966,-0.71753 -0.4763,-0.96285 -0.27935,-0.24504 -0.6449,-0.36928 -1.01572,-0.34516 h -0.0546 c -0.35184,0.0402 -0.67457,0.21571 -0.8995,0.48923 -0.22514,0.27386 -0.33546,0.62472 -0.30755,0.97817 v 0.0551 c 0.066,0.48691 0.066,0.98043 0,1.46734 v 0.055 c -0.0825,0.54913 -0.23167,1.08618 -0.44416,1.59917 -0.42215,1.00082 -1.0989,1.87388 -1.96289,2.53221 -0.86336,0.65777 -1.88422,1.07795 -2.96048,1.21836 -1.07591,0.14021 -2.17003,-0.004 -3.17268,-0.41891 -1.00342,-0.41491 -1.88091,-1.08555 -2.54472,-1.94483 -0.66424,-0.85991 -1.0923,-1.8788 -1.24136,-2.95513 -0.14906,-1.07655 -0.0142,-2.17355 0.39114,-3.18196 0.40486,-1.00792 1.06649,-1.89252 1.91895,-2.56561 0.8519,-0.67261 1.86538,-1.11023 2.93911,-1.26913 0.72969,-0.0994 1.47057,-0.0807 2.19436,0.055 0.43115,0.0628 0.82026,0.29426 1.08111,0.64329 0.26114,0.34924 0.3735,0.78812 0.31233,1.21991 -0.0901,0.37841 -0.32358,0.70761 -0.65088,0.91785 -0.32702,0.20995 -0.72308,0.2849 -1.10417,0.20882 h -0.0552 c -0.1203,-0.0299 -0.24356,-0.0465 -0.36752,-0.0494 h -0.0493 c -0.20046,-0.0221 -0.40211,-0.0313 -0.60376,-0.0274 -0.60258,0.0347 -1.18363,0.23744 -1.67687,0.58535 -0.4938,0.34811 -0.88059,0.82743 -1.11648,1.38366 -0.23611,0.55666 -0.31219,1.16831 -0.21966,1.76581 0.0925,0.5973 0.35016,1.15699 0.74362,1.61577 0.39319,0.4585 0.90695,0.79797 1.48295,0.9798 0.57564,0.18154 1.1908,0.1982 1.77544,0.048 0.58486,-0.15019 1.11606,-0.46125 1.53329,-0.89767 0.41772,-0.43678 0.70516,-0.9817 0.82982,-1.57309 l 0.0766,-0.47256 c 0.0229,-0.26135 0.0325,-0.52376 0.0279,-0.78602 -7.8e-4,-1.01453 0.36484,-1.99601 1.02915,-2.76276 0.66353,-0.76605 1.58251,-1.26667 2.586,-1.4087 h 0.082 c 0.17276,-0.0229 0.34706,-0.0321 0.52129,-0.0276 h 0.13177 c -0.81133,-1.29128 -1.93639,-2.35643 -3.27014,-3.09583 -1.3329,-0.73877 -2.83159,-1.12773 -4.35553,-1.13047 -2.40333,0.0394 -4.69634,1.0269 -6.37637,2.74588 -1.68221,1.72088 -2.62031,4.03717 -2.60969,6.44359 0.0507,2.04073 0.79073,4.00545 2.09902,5.57249 1.30667,1.56556 3.10665,2.64239 5.104,3.05336 1.99672,0.41048 4.07478,0.13099 5.89206,-0.79241 1.81869,-0.92446 3.2714,-2.4387 4.11978,-4.29409 l 0.0279,-0.0494 c 0.4199,-0.97544 0.67569,-2.01366 0.75704,-3.07249 -0.0165,-0.57705 -0.0717,-1.04961 -0.12107,-1.54974 z"
   style="fill:#ef4800;fill-rule:nonzero;stroke-width:0.0703118"
   id="path1" />
                    </g>
                </g>
            </g>
        </g>
    </g>
</svg>
