<?xml version="1.0" encoding="UTF-8" standalone="no"?>
<svg
   width="72.000099"
   height="71.999359"
   viewBox="0 0 72.000099 71.999359"
   version="1.1"
   xml:space="preserve"
   style="clip-rule:evenodd;fill-rule:evenodd;stroke-linejoin:round;stroke-miterlimit:2"
   id="svg1"
   xmlns="http://www.w3.org/2000/svg"
   xmlns:svg="http://www.w3.org/2000/svg"><defs
   id="defs1" />
    <g
   transform="matrix(3.99999,0,0,3.99999,-475.99625,-475.99581)"
   id="g1">
        <path
   d="m 136.87833,127.05657 c -0.0252,-0.37118 -0.19659,-0.71754 -0.47629,-0.96286 -0.27936,-0.24504 -0.64491,-0.36928 -1.01574,-0.34517 h -0.0546 c -0.35185,0.0402 -0.67458,0.21572 -0.89951,0.48924 -0.22514,0.27387 -0.33546,0.62473 -0.30755,0.97819 v 0.055 c 0.066,0.48692 0.066,0.98044 0,1.46735 v 0.0551 c -0.0825,0.54914 -0.23168,1.08618 -0.44416,1.59918 -0.42216,1.00083 -1.09891,1.8739 -1.96291,2.53224 -0.86337,0.65777 -1.88424,1.07796 -2.96051,1.21837 -1.07592,0.14021 -2.17006,-0.004 -3.17271,-0.41892 -1.00343,-0.41491 -1.88093,-1.08555 -2.54475,-1.94484 -0.66425,-0.85992 -1.09231,-1.87882 -1.24137,-2.95517 -0.14906,-1.07655 -0.0142,-2.17357 0.39115,-3.18199 0.40486,-1.00793 1.0665,-1.89253 1.91897,-2.56563 0.8519,-0.67261 1.86539,-1.11023 2.93913,-1.26914 0.7297,-0.0994 1.47059,-0.0807 2.19438,0.055 0.43116,0.0628 0.82027,0.29426 1.08113,0.64329 0.26114,0.34924 0.3735,0.78814 0.31233,1.21992 -0.0901,0.37843 -0.32358,0.70763 -0.65089,0.91786 -0.32702,0.20996 -0.72309,0.28491 -1.10418,0.20883 h -0.0552 c -0.1203,-0.0299 -0.24356,-0.0465 -0.36752,-0.0494 h -0.0493 c -0.20046,-0.0221 -0.40212,-0.0313 -0.60378,-0.0274 -0.60257,0.0347 -1.18364,0.23745 -1.67688,0.58535 -0.4938,0.34812 -0.88059,0.82744 -1.11649,1.38368 -0.23611,0.55667 -0.31219,1.16831 -0.21966,1.76583 0.0925,0.5973 0.35016,1.15699 0.74363,1.61578 0.39319,0.45851 0.90696,0.79798 1.48296,0.97981 0.57565,0.18154 1.19081,0.19821 1.77546,0.048 0.58486,-0.15019 1.11607,-0.46125 1.5333,-0.89768 0.41773,-0.43678 0.70517,-0.9817 0.82983,-1.5731 l 0.0766,-0.47257 c 0.0229,-0.26135 0.0325,-0.52376 0.0279,-0.78603 -7.8e-4,-1.01453 0.36485,-1.99603 1.02916,-2.76278 0.66354,-0.76606 1.58252,-1.26668 2.58602,-1.40872 h 0.082 c 0.17276,-0.0229 0.34706,-0.0321 0.5213,-0.0276 h 0.13176 c -0.81133,-1.29129 -1.9364,-2.35645 -3.27016,-3.09586 -1.33292,-0.73877 -2.83163,-1.12774 -4.35558,-1.13048 -2.40335,0.0394 -4.69638,1.02691 -6.37643,2.74591 -1.68223,1.7209 -2.62034,4.0372 -2.60972,6.44365 0.0507,2.04075 0.79074,4.00549 2.09904,5.57255 1.30669,1.56558 3.10669,2.64241 5.10405,3.05339 1.99674,0.41048 4.07482,0.13099 5.89212,-0.79242 1.8187,-0.92447 3.27143,-2.43872 4.11982,-4.29413 l 0.0279,-0.0494 c 0.4199,-0.97544 0.6757,-2.01368 0.75705,-3.07251 -0.0165,-0.57706 -0.0717,-1.04963 -0.12108,-1.54976 z"
   style="fill:#46b549;fill-rule:nonzero;stroke-width:0.0703125"
   id="path1" />
    </g>
</svg>
