<svg width="129" height="128" fill="none" xmlns="http://www.w3.org/2000/svg"><g clip-path="url(#a)"><path d="M116.333 60.23c.202-.3.393-.605.585-.915 3.558-5.756 5.306-12.439 5.306-19.19v-.356c0-7.268-2.036-14.43-6.108-20.467A37.416 37.416 0 0 0 88.858 3H52.82a5.161 5.161 0 0 0-3.658 1.507 5.1 5.1 0 0 0-1.517 3.633v16.363c0 1.421.58 2.708 1.517 3.634a5.161 5.161 0 0 0 3.658 1.506h32.475c5.573 0 10.089 4.495 10.089 10.02v.531c0 5.536-4.516 10.02-10.09 10.02H32.124a5.17 5.17 0 0 1-3.659-1.506 5.109 5.109 0 0 1-1.516-3.633V8.14c0-1.421-.58-2.707-1.517-3.633A5.17 5.17 0 0 0 21.77 3H5.294C2.435 3 .117 5.302.117 8.14v110.998c0 1.411.58 2.703 1.517 3.634a5.16 5.16 0 0 0 3.659 1.506h16.474a5.17 5.17 0 0 0 3.659-1.506 5.11 5.11 0 0 0 1.516-3.634V82.204c0-2.838 2.319-5.14 5.176-5.14h52.915c.877 0 1.733-.04 2.59-.096h3.346c5.564 0 10.089 4.485 10.089 10.02v.521c0 5.536-4.525 10.021-10.089 10.021H52.997c-.056-.01-.121-.01-.177-.01-.055 0-.12 0-.176.01-1.36.04-2.59.606-3.482 1.502a5.112 5.112 0 0 0-1.517 3.638v16.468c0 1.411.58 2.703 1.517 3.634a5.16 5.16 0 0 0 3.658 1.506h40.518a37.365 37.365 0 0 0 26.286-13.519c5.443-6.597 8.26-14.95 8.26-23.48v-.07c0-8.314-2.671-16.462-7.867-22.98a37.686 37.686 0 0 0-3.694-3.998h.01Z" fill="#000030"/></g><defs><clipPath id="a"><path fill="#fff" transform="translate(.117)" d="M0 0h128v128H0z"/></clipPath></defs></svg>