<?xml version="1.0" encoding="UTF-8" standalone="no"?>
<svg
   width="127.99972"
   height="121.49942"
   viewBox="0 0 127.99972 121.49942"
   version="1.1"
   xml:space="preserve"
   style="clip-rule:evenodd;fill-rule:evenodd;stroke-linejoin:round;stroke-miterlimit:2"
   id="svg1"
   xmlns="http://www.w3.org/2000/svg"
   xmlns:svg="http://www.w3.org/2000/svg"><defs
   id="defs1" />
    <g
   transform="matrix(3.99998,0,0,3.99998,-447.99952,-449.24775)"
   id="g1">
        <path
   d="m 141.10756,126.64625 c 0.0505,-0.0751 0.0984,-0.15162 0.14638,-0.22937 0.89112,-1.44163 1.32912,-3.11525 1.32912,-4.80625 v -0.0891 c 0,-1.82025 -0.51,-3.61412 -1.52975,-5.126 -1.51212,-2.24275 -3.981,-3.79462 -6.82712,-4.083 h -9.02588 c -0.34325,-8.7e-4 -0.67312,0.135 -0.91625,0.37738 -0.24325,0.24012 -0.38025,0.56812 -0.38,0.91 v 4.09812 c 0,0.356 0.14513,0.67825 0.38,0.91013 0.24313,0.24237 0.573,0.37825 0.91625,0.37737 h 8.1335 c 1.39588,0 2.52688,1.12575 2.52688,2.50975 v 0.13288 c 0,1.3865 -1.131,2.50975 -2.52688,2.50975 h -13.31725 c -0.34325,6.2e-4 -0.67312,-0.13525 -0.91637,-0.3775 -0.243,-0.24025 -0.38,-0.56825 -0.38,-0.91 V 113.6 c 0,-0.35612 -0.145,-0.67825 -0.37988,-0.91012 -0.24312,-0.24213 -0.57287,-0.378 -0.91612,-0.37738 h -4.1275 c -0.71563,0 -1.29625,0.57663 -1.29625,1.2875 v 27.8 c 0,0.3535 0.14512,0.677 0.38,0.91013 0.243,0.24237 0.573,0.37825 0.91625,0.37737 h 4.12625 c 0.35837,0 0.6815,-0.14412 0.91625,-0.37737 0.24312,-0.24025 0.38,-0.56825 0.38,-0.91013 v -9.25037 c 0,-0.71075 0.5805,-1.2875 1.29625,-1.2875 h 13.25287 c 0.21963,0 0.43413,-0.01 0.64875,-0.0238 h 0.838 c 1.3935,0 2.52688,1.12325 2.52688,2.50975 v 0.13037 c 0,1.3865 -1.13338,2.50975 -2.52688,2.50975 h -9.5105 c -0.0139,-0.002 -0.0303,-0.002 -0.0441,-0.002 -0.0139,0 -0.0302,0 -0.0443,0.002 -0.328,0.009 -0.64038,0.14363 -0.87213,0.376 -0.24337,0.24063 -0.38025,0.56913 -0.38,0.91138 V 141.4 c 0,0.3535 0.14525,0.677 0.38,0.91013 0.24313,0.2425 0.573,0.37837 0.91638,0.37737 h 10.14787 c 2.65063,-0.183 4.99825,-1.463 6.5835,-3.386 1.36325,-1.65225 2.06875,-3.7445 2.06875,-5.88075 v -0.0175 c 0,-2.08225 -0.669,-4.12312 -1.97025,-5.75537 -0.28375,-0.35575 -0.593,-0.6905 -0.92512,-1.00163 h 0.002 z"
   style="fill:#000030;fill-rule:nonzero;stroke-width:0.125"
   id="path1" />
    </g>
</svg>
