<?xml version="1.0" encoding="UTF-8" standalone="no"?>
<svg
   width="128"
   height="128"
   viewBox="0 0 128 128"
   version="1.1"
   xml:space="preserve"
   style="clip-rule:evenodd;fill-rule:evenodd;stroke-linejoin:round;stroke-miterlimit:2"
   id="svg2"
   xmlns="http://www.w3.org/2000/svg"
   xmlns:svg="http://www.w3.org/2000/svg"><defs
   id="defs2" />
    <g
   transform="matrix(0.512,0,0,0.512,-448,-448)"
   id="g1">
        <path
   d="m 1071.7988,1084.1725 c 2.675,2.675 4.0162,6.4113 3.655,10.1763 -0.36,3.765 -2.3888,7.1774 -5.5225,9.2937 C 1049.95,1117.1125 1025.8888,1125 1000,1125 c -25.88913,0 -49.9505,-7.8875 -69.90975,-21.3887 -3.12513,-2.11 -5.147,-5.5125 -5.50687,-9.2663 -0.36026,-3.7537 0.97774,-7.4787 3.6445,-10.145 -0.026,-0.028 -0.0255,-0.028 -0.0251,-0.029 5.59787,-5.5974 14.31037,-6.6099 21.04275,-2.4449 14.7225,9.2187 32.12387,14.5237 50.75447,14.5237 18.6313,0 36.0325,-5.305 50.7775,-14.4875 6.715,-4.1538 15.405,-3.1437 20.9888,2.44 0.031,-0.03 0.031,-0.03 0.033,-0.03 z m 12.3737,-155.97113 c 2.675,-2.67462 6.4113,-4.01662 10.1763,-3.65549 3.765,0.36087 7.1774,2.38874 9.2937,5.52324 C 1117.1125,950.0495 1125,974.11087 1125,1000 c 0,25.8888 -7.8875,49.95 -21.3887,69.91 -2.11,3.125 -5.5125,5.1463 -9.2663,5.5063 -3.7537,0.3612 -7.4787,-0.9775 -10.145,-3.6438 -0.028,0.025 -0.028,0.025 -0.029,0.025 -5.5974,-5.5975 -6.6099,-14.3112 -2.4449,-21.0425 9.2187,-14.7225 14.5237,-32.1237 14.5237,-50.755 0,-18.63063 -5.305,-36.032 -14.4875,-50.77738 -4.1538,-6.71524 -3.1437,-15.40537 2.44,-20.98862 -0.03,-0.0316 -0.03,-0.0321 -0.03,-0.0326 z m -187.78438,1.88888 c 2.34825,-3.47625 6.27925,-5.56463 10.47438,-5.56463 3.35112,0 6.56838,1.33263 8.938,3.70226 0.027,-0.026 0.0275,-0.0255 0.028,-0.0251 5.59738,5.59787 6.61,14.31037 2.44563,21.04275 C 909.05475,963.968 903.75,981.36937 903.75,1000 c 0,18.6313 5.30475,36.0325 14.48725,50.7775 4.15363,6.715 3.14337,15.405 -2.44,20.9888 0.0308,0.031 0.0303,0.031 0.0298,0.033 -2.6745,2.675 -6.41025,4.0162 -10.17525,3.655 -3.765,-0.3613 -7.17763,-2.3888 -9.29488,-5.5225 C 882.8875,1049.95 875,1025.8888 875,1000 c 0,-25.88913 7.8875,-49.9505 21.38812,-69.90975 z M 1000,921.25 c 43.4637,0 78.75,35.28675 78.75,78.75 0,43.4637 -35.2863,78.75 -78.75,78.75 -43.46325,0 -78.75,-35.2863 -78.75,-78.75 0,-43.46325 35.28675,-78.75 78.75,-78.75 z m -71.79863,-5.423 c -2.37675,-2.37663 -3.71349,-5.6035 -3.71349,-8.96475 0,-4.2075 2.09462,-8.15012 5.58124,-10.50538 C 950.0495,882.8875 974.11087,875 1000,875 c 25.8888,0 49.95,7.8875 69.91,21.38812 3.125,2.11113 5.1463,5.5135 5.5063,9.26726 0.3599,3.75375 -0.9775,7.47849 -3.6438,10.14512 0.025,0.027 0.025,0.0275 0.025,0.028 -5.5975,5.59738 -14.3112,6.61 -21.0425,2.44563 C 1036.0325,909.05475 1018.6313,903.75 1000,903.75 c -18.63063,0 -36.032,5.30475 -50.77738,14.48725 -6.71524,4.15363 -15.40537,3.14337 -20.98862,-2.44 -0.0316,0.0308 -0.0321,0.0303 -0.0326,0.0298 z"
   style="fill:#208e7a;stroke-width:0.125"
   id="path1" />
    </g>
    <g
   transform="matrix(4,0,0,4,-448,-448)"
   id="g2">
        <path
   d="m 123.95175,130.81063 c -0.22313,0 -0.40675,0.18362 -0.40675,0.40674 v 1.08213 c 0,0.22312 0.18362,0.40675 0.40675,0.40675 h 2.96975 v 2.74587 c 0,0.22325 0.18363,0.40688 0.40687,0.40688 h 1.30588 c 0.22325,0 0.40687,-0.18363 0.40687,-0.40688 v -2.74587 h 3.00713 c 0.22312,0 0.40675,-0.18363 0.40675,-0.40675 v -1.08213 c 0,-0.22312 -0.18363,-0.40674 -0.40675,-0.40674 z m 8.10575,-1.34538 c 0.22325,0 0.40687,-0.18363 0.40687,-0.40688 V 127.995 c 0,-0.22313 -0.18362,-0.40675 -0.40675,-0.40675 0,0 -1.2e-4,0 -1.2e-4,0 h -2.5485 l 3.44362,-6.09012 c 0.0711,-0.12588 0.0701,-0.28051 -0.003,-0.40538 -0.0729,-0.12475 -0.207,-0.20175 -0.3515,-0.20175 h -1.511 c -0.14663,0 -0.28225,0.0791 -0.35438,0.20675 l -2.74025,4.85338 -2.70637,-4.8515 c -0.0718,-0.12863 -0.208,-0.20863 -0.35525,-0.20863 h -1.52975 c -1.2e-4,0 -2.5e-4,0 -5e-4,0 -0.223,0 -0.40662,0.1835 -0.40662,0.40662 0,0.07 0.0181,0.13875 0.0525,0.19976 l 3.42725,6.09087 h -2.51301 c -0.22312,0 -0.40675,0.18362 -0.40687,0.40675 v 1.06337 c 0,0.22325 0.18363,0.40688 0.40687,0.40688 z"
   style="fill:#ffffff;fill-rule:nonzero;stroke-width:0.125"
   id="path2" />
    </g>
</svg>
