<?xml version="1.0" encoding="UTF-8" standalone="no"?>
<svg
   width="128.00127"
   height="153.16516"
   viewBox="0 0 128.00127 153.16516"
   version="1.1"
   xml:space="preserve"
   style="clip-rule:evenodd;fill-rule:evenodd;stroke-linejoin:round;stroke-miterlimit:2"
   id="svg4"
   xmlns="http://www.w3.org/2000/svg"
   xmlns:svg="http://www.w3.org/2000/svg"><defs
   id="defs4" />
    <g
   transform="matrix(0.999959,0,0,0.999959,-376.8713,-435.34802)"
   id="g4">
        <g
   transform="matrix(3.9987,0,0,3.9987,-38.875,0.251891)"
   id="g1">
            <path
   d="m 135.62844,140.49343 c -0.12758,-0.15195 -0.28432,-0.27699 -0.46081,-0.36777 -0.17648,-0.0911 -0.36882,-0.14717 -0.56654,-0.16497 -0.39903,-0.0349 -0.79597,0.0911 -1.10198,0.34953 -0.0395,0.0325 -0.079,0.0649 -0.11696,0.0972 -0.0283,0.0241 -0.0564,0.0465 -0.0846,0.0691 -0.43822,0.35686 -0.89498,0.69038 -1.36835,0.99923 l -0.0619,0.0408 c -0.10439,0.0676 -0.20864,0.13386 -0.31438,0.19727 -0.0253,0.0156 -0.0479,0.0296 -0.0718,0.0437 -0.0239,0.0141 -0.0465,0.0283 -0.0691,0.0423 l -0.0408,0.0253 -0.0733,0.0438 c -0.0239,0.0141 -0.0465,0.0281 -0.0705,0.0408 -0.27953,0.16258 -0.56385,0.31678 -0.85265,0.46215 l -0.0718,0.0366 -0.10006,0.0509 -0.13117,0.0634 -0.01,0.006 c -0.0437,0.0212 -0.0873,0.041 -0.13102,0.0621 l -0.10005,0.0465 -0.0648,0.0296 c -0.0338,0.0154 -0.0691,0.031 -0.1029,0.0465 -0.0452,0.0198 -0.0917,0.0408 -0.1382,0.0606 -0.0929,0.0408 -0.1874,0.0803 -0.28178,0.1183 -0.0479,0.0197 -0.0959,0.0395 -0.14373,0.0579 -0.0917,0.0366 -0.18456,0.0733 -0.27758,0.10843 h -0.003 c -0.0917,0.0353 -0.18471,0.0691 -0.27758,0.10156 l -0.0184,0.007 c -0.0437,0.0154 -0.0873,0.031 -0.13251,0.0465 -0.0465,0.0154 -0.093,0.031 -0.13805,0.0479 l -0.13954,0.045 c -0.013,0.004 -0.0262,0.009 -0.0395,0.0127 l -0.0902,0.0283 -0.0746,0.0239 c -0.0761,0.0239 -0.15076,0.0465 -0.22689,0.0691 l -0.0507,0.0154 c -0.0311,0.009 -0.0621,0.0184 -0.093,0.0268 l -0.10709,0.0296 -0.086,0.0239 -0.0564,0.0155 -0.0719,0.0184 c -0.0803,0.0211 -0.16198,0.0422 -0.24379,0.0619 -0.0197,0.006 -0.0408,0.01 -0.0606,0.0156 -0.0281,0.007 -0.0577,0.0141 -0.0874,0.0211 l -0.0719,0.0169 c -0.006,0.002 -0.0126,0.003 -0.0182,0.004 -0.0366,0.009 -0.0748,0.0169 -0.11128,0.0254 -0.0678,0.0156 -0.13535,0.0296 -0.20445,0.0437 -0.0648,0.0141 -0.12967,0.0268 -0.19309,0.0395 l -0.15778,0.0296 -0.0972,0.0169 c -0.0325,0.006 -0.0577,0.0112 -0.0873,0.0155 l -0.12549,0.0211 -0.12264,0.0197 -0.0154,0.003 c -0.0509,0.007 -0.10006,0.0154 -0.14942,0.0224 -0.0494,0.007 -0.0972,0.0142 -0.14373,0.0197 l -0.031,0.004 -0.11845,0.0154 h -0.009 c -0.0338,0.004 -0.0661,0.009 -0.0986,0.0127 l -0.0873,0.01 c -0.086,0.01 -0.17335,0.0197 -0.26069,0.0281 h -0.0212 c -0.0281,0.006 -0.0577,0.009 -0.086,0.0114 l -0.0746,0.007 c -0.0296,0.003 -0.0592,0.006 -0.0888,0.007 l -0.0887,0.007 c -0.11696,0.009 -0.23541,0.0169 -0.35237,0.0239 l -0.15644,0.009 -0.0887,0.003 c -0.0226,1.4e-4 -0.0452,0.001 -0.0678,0.003 l -0.0859,0.003 h -0.0875 c -0.0295,0.001 -0.0591,0.004 -0.0887,0.004 h -0.031 c -0.0493,0 -0.0987,0.001 -0.14657,0.001 h -0.31991 c -1.66748,-0.0197 -3.32179,-0.29733 -4.90432,-0.82304 -0.0564,-0.0197 -0.11411,-0.038 -0.1705,-0.0577 -0.0281,-0.01 -0.0564,-0.0198 -0.0832,-0.0296 -0.0268,-0.01 -0.0564,-0.0197 -0.0832,-0.0296 -0.0453,-0.0157 -0.0903,-0.0322 -0.13521,-0.0494 l -0.0564,-0.0211 c -0.0507,-0.0182 -0.10156,-0.038 -0.15076,-0.0564 l -0.0254,-0.01 c -0.0197,-0.007 -0.0395,-0.0154 -0.0577,-0.0224 l -0.0197,-0.009 -0.0156,-0.006 -0.0338,-0.0126 -0.031,-0.0127 h -0.007 l -0.0142,-0.007 -0.0634,-0.0254 -0.0817,-0.0338 c -0.0452,-0.0184 -0.0902,-0.0366 -0.13535,-0.0564 h -0.007 l -0.0902,-0.0395 -0.10559,-0.0465 c -2.82838,-1.24526 -5.24277,-3.27318 -6.95766,-5.84416 -0.013,-0.0182 -0.0251,-0.0371 -0.0365,-0.0564 -1.73149,-2.6344 -2.65788,-5.71733 -2.66491,-8.86982 v -0.2396 c 0,-0.0606 0.003,-0.12114 0.004,-0.18172 v -0.0142 c 0.0491,-1.79998 0.39904,-3.57918 1.03573,-5.26356 0.0226,-0.0591 0.0452,-0.11696 0.0678,-0.17618 0.0197,-0.052 0.0408,-0.10425 0.0619,-0.1563 l 0.0437,-0.10574 c 0.0239,-0.0577 0.0479,-0.11561 0.0733,-0.17349 0.0269,-0.0633 0.055,-0.12668 0.0832,-0.19009 0.001,-0.004 0.004,-0.009 0.006,-0.0127 0.002,-0.006 0.004,-0.0114 0.007,-0.0169 l 0.0592,-0.13101 c 0,0 0,-0.003 0.001,-0.004 0.0182,-0.041 0.0365,-0.0805 0.0549,-0.1198 0.006,-0.0114 0.01,-0.0239 0.0154,-0.0353 l 0.009,-0.0197 c 0.008,-0.0197 0.0182,-0.0395 0.0281,-0.0577 0.006,-0.0127 0.0114,-0.0254 0.017,-0.0366 l 0.0169,-0.0366 0.004,-0.009 0.0112,-0.0224 c 0.0212,-0.0452 0.0437,-0.0902 0.0663,-0.13535 0.004,-0.007 0.007,-0.0156 0.0112,-0.0224 0.0296,-0.0594 0.0592,-0.11845 0.0888,-0.17633 0.0211,-0.0408 0.0423,-0.0832 0.0634,-0.12399 l 0.0141,-0.0254 c 0,0 0,-0.003 10e-4,-0.004 0,0 0,-0.003 0.001,-0.003 0.0126,-0.0254 0.0253,-0.0479 0.038,-0.0718 0.004,-0.009 0.01,-0.0169 0.0141,-0.0254 l 0.0281,-0.052 c 0.009,-0.0169 0.0184,-0.034 0.0269,-0.0508 l 0.006,-0.01 0.0112,-0.0196 c 0.0156,-0.0311 0.0325,-0.0607 0.0479,-0.0902 0.50283,-0.90979 1.0933,-1.76843 1.76304,-2.5635 0.0114,-0.0141 0.0239,-0.0281 0.0338,-0.0423 0.2426,-0.31184 0.35342,-0.70668 0.3087,-1.09929 -0.0933,-0.81227 -0.82932,-1.40933 -1.64339,-1.33305 -0.39365,0.0372 -0.75739,0.22704 -1.01314,0.52856 -0.5637,0.66884 -1.08059,1.37552 -1.54738,2.11526 l -0.0114,0.0169 c -0.0408,0.0648 -0.0803,0.12967 -0.12115,0.19294 -0.0212,0.0339 -0.0408,0.0677 -0.0621,0.10305 -0.61889,1.0236 -1.14027,2.10315 -1.55725,3.22427 -0.20834,0.55981 -0.38991,1.12935 -0.54396,1.70651 -0.003,0.01 -0.006,0.0199 -0.008,0.0311 -0.0141,0.0508 -0.0269,0.1029 -0.0408,0.1551 -0.004,0.0141 -0.007,0.0281 -0.0114,0.0437 -0.007,0.0268 -0.0141,0.0549 -0.0211,0.0832 l -0.0212,0.0832 c -0.014,0.0549 -0.0266,0.10993 -0.0393,0.16617 0,0.004 -0.003,0.01 -0.003,0.0142 -0.001,0.008 -0.004,0.0154 -0.006,0.0239 v 0.006 c -0.008,0.0352 -0.0169,0.0703 -0.0254,0.10424 -0.003,0.01 -0.004,0.0198 -0.007,0.0281 -0.54561,2.40841 -0.61979,4.89998 -0.21836,7.33665 0.003,0.0182 0.006,0.038 0.01,0.0577 0.41384,2.47975 1.31376,4.85346 2.64801,6.98428 0.0224,0.0353 0.045,0.0719 0.0676,0.10708 l 0.0634,0.0987 c 0.0211,0.0338 0.0423,0.0662 0.0634,0.0986 0.031,0.048 0.0621,0.0945 0.093,0.14238 0.0182,0.0281 0.0366,0.0549 0.0549,0.0817 0.007,0.0114 0.0155,0.0226 0.0226,0.034 0.031,0.0465 0.0634,0.093 0.0957,0.1394 0.007,0.01 0.0142,0.0197 0.0199,0.0296 0.003,0.006 0.007,0.01 0.01,0.0155 l 0.0112,0.0156 c 0.0706,0.10275 0.14253,0.20475 0.21567,0.3057 0.0395,0.055 0.0803,0.11143 0.12115,0.16632 0.0338,0.0465 0.0676,0.0917 0.1002,0.1367 0.0154,0.0211 0.0308,0.0423 0.0479,0.0634 l 0.0803,0.10574 c 0.0169,0.0211 0.0323,0.0437 0.0507,0.0648 0.0254,0.0338 0.0521,0.0662 0.0775,0.10005 0.0141,0.0184 0.0281,0.0366 0.0423,0.0536 0.0281,0.0366 0.0577,0.0719 0.086,0.10858 0.0182,0.0226 0.0351,0.045 0.0535,0.0662 0.0254,0.031 0.0507,0.0634 0.0775,0.0944 0.0182,0.0226 0.0366,0.0437 0.0549,0.0648 0.0254,0.0325 0.0535,0.0634 0.0803,0.0959 0.0184,0.0226 0.0381,0.0452 0.0579,0.0676 0.0254,0.0311 0.0521,0.0621 0.0788,0.093 0.0423,0.0508 0.086,0.10006 0.12967,0.14807 0.0437,0.0494 0.0917,0.1029 0.1382,0.15494 0.0464,0.0507 0.0957,0.10709 0.14507,0.15929 0.0494,0.0535 0.0972,0.10574 0.14658,0.15779 0.0494,0.0522 0.0987,0.10439 0.14941,0.15644 1.03976,1.08164 2.2044,2.03585 3.46956,2.84244 l 0.0296,0.0184 0.1014,0.0634 c 1.90169,1.1983 3.99991,2.05185 6.19803,2.52118 l 0.10141,0.0211 0.093,0.0184 c 0.0663,0.0126 0.13102,0.0268 0.19728,0.0393 0.0325,0.007 0.0663,0.0127 0.0987,0.0184 l 0.0507,0.008 0.0507,0.009 0.10425,0.0182 0.0254,0.004 0.0367,0.007 c 0.038,0.007 0.0761,0.0127 0.11546,0.0197 l 0.13954,0.0224 0.14104,0.0212 0.14089,0.0211 c 0.0465,0.007 0.0944,0.0127 0.14088,0.0197 l 0.14089,0.0184 0.0888,0.0112 0.0915,0.0112 c 0.0268,0.003 0.055,0.007 0.0818,0.01 0.0577,0.007 0.11411,0.0127 0.17184,0.0184 l 0.12414,0.0127 0.0746,0.007 0.10425,0.01 c 0.24992,0.0229 0.50044,0.0402 0.7511,0.052 0.11741,0.006 0.23482,0.0109 0.35237,0.0142 h 0.0465 l 0.21417,0.004 h 0.54964 c 0.0733,0 0.14523,-0.003 0.21851,-0.004 h 0.0154 c 0.0748,-0.001 0.14807,-0.004 0.2227,-0.007 l 0.11411,-0.004 0.11412,-0.006 c 0.0691,-0.003 0.13954,-0.007 0.20864,-0.0112 0.1029,-0.006 0.2043,-0.0127 0.3072,-0.0197 0.22719,-0.0178 0.45408,-0.0389 0.68066,-0.0634 0.0408,-0.004 0.0818,-0.01 0.12399,-0.0141 0.0423,-0.004 0.0832,-0.01 0.12399,-0.0155 l 0.048,-0.006 c 0.0395,-0.004 0.0788,-0.01 0.11696,-0.0156 0.0479,-0.006 0.0972,-0.0127 0.14507,-0.0197 l 0.0283,-0.004 c 0.0549,-0.009 0.10993,-0.0156 0.16631,-0.0254 l 0.0198,-0.003 0.10708,-0.0169 0.10141,-0.0169 0.0606,-0.01 h 0.01 c 0.0776,-0.0141 0.1536,-0.0268 0.23122,-0.0408 l 0.0141,-0.003 0.13521,-0.0254 c 2.25002,-0.42012 4.40612,-1.24257 6.36419,-2.428 0.0353,-0.0212 0.0691,-0.0423 0.1044,-0.0636 0.15165,-0.093 0.30211,-0.18845 0.45093,-0.28596 0.65075,-0.42581 1.27517,-0.8902 1.87013,-1.39093 0.30556,-0.25815 0.49625,-0.62742 0.52975,-1.026 0.0338,-0.39829 -0.0914,-0.79418 -0.34803,-1.10064 h -0.006 z"
   style="fill:#1066df;fill-rule:nonzero;stroke-width:0.149563"
   id="path1" />
        </g>
        <g
   transform="matrix(3.9987,0,0,3.9987,-38.875,0.251891)"
   id="g2">
            <path
   d="m 114.27671,114.23201 c 0.26652,3e-4 0.52825,-0.0708 0.75813,-0.2058 0.29913,-0.17364 0.60364,-0.33757 0.91323,-0.49176 0.19772,-0.0981 0.39739,-0.19204 0.59885,-0.28193 0.034,-0.0156 0.0678,-0.0296 0.10155,-0.0452 0.0224,-0.01 0.045,-0.0196 0.0691,-0.0295 0.045,-0.0197 0.0887,-0.0381 0.13386,-0.0579 l 0.10006,-0.0422 c 0.0679,-0.0284 0.13595,-0.0561 0.2043,-0.0832 l 0.0775,-0.0311 0.12833,-0.0507 c 0.031,-0.0127 0.0619,-0.0239 0.0929,-0.0351 0.14657,-0.055 0.29314,-0.10709 0.44255,-0.15794 l 0.0874,-0.0295 c 0.17424,-0.0585 0.34953,-0.11396 0.52571,-0.16631 l 0.0874,-0.0254 c 0.22793,-0.066 0.45721,-0.12712 0.68769,-0.18321 l 0.0761,-0.0182 0.0888,-0.0212 0.0606,-0.014 0.0648,-0.0156 c 0.0423,-0.01 0.086,-0.0197 0.12832,-0.0281 0.0648,-0.0141 0.12967,-0.0281 0.19578,-0.0408 l 0.10858,-0.0212 c 0.14657,-0.0281 0.29314,-0.0549 0.43972,-0.0803 0.0704,-0.0112 0.14223,-0.0239 0.21282,-0.0338 0.0718,-0.0112 0.14373,-0.0211 0.21837,-0.0325 l 0.0156,-0.003 c 0.10425,-0.0144 0.20849,-0.0281 0.31289,-0.041 l 0.2197,-0.0254 c 0.0733,-0.008 0.14657,-0.0154 0.21986,-0.0209 0.0733,-0.007 0.14657,-0.0127 0.22135,-0.0184 0.0465,-0.003 0.093,-0.007 0.13805,-0.01 l 0.27759,-0.0169 c 0.0465,-0.003 0.093,-0.004 0.13819,-0.007 0.0281,0 0.0549,-0.003 0.0832,-0.003 l 0.076,-0.003 0.0875,-0.003 0.0874,-0.003 c 0.0592,-0.001 0.1183,-0.003 0.17618,-0.003 h 0.20849 c 0.66526,0 1.33036,0.0408 1.98994,0.12399 0.13954,0.0169 0.27893,0.0366 0.41847,0.0577 0.0296,0.004 0.0606,0.01 0.0917,0.0141 l 0.15361,0.0254 0.0296,0.006 0.0253,0.004 c 0.0381,0.007 0.0776,0.0127 0.11561,0.0197 l 0.038,0.007 0.0509,0.01 0.0507,0.01 0.0957,0.0183 c 0.034,0.006 0.0678,0.0127 0.10006,0.0197 l 0.0269,0.006 c 0.076,0.0156 0.1536,0.0325 0.22958,0.0494 l 0.0704,0.0154 c 0.0537,0.0114 0.10574,0.0239 0.15929,0.0366 0.0621,0.0142 0.12398,0.0296 0.18605,0.0452 0.0577,0.0141 0.11561,0.0296 0.17334,0.0437 l 0.0621,0.0169 0.0661,0.0169 h 0.003 c 0.0423,0.0112 0.0846,0.0224 0.12548,0.0338 0.006,0 0.0112,0.003 0.0169,0.004 0.0197,0.006 0.0395,0.0114 0.0577,0.0169 0.0268,0.007 0.0535,0.0155 0.0803,0.0226 l 0.0663,0.0184 c 0.031,0.008 0.0621,0.0182 0.093,0.0268 l 0.0733,0.0224 0.0663,0.0199 0.031,0.01 h 0.003 l 0.038,0.0114 0.0805,0.0254 0.0507,0.0154 0.0663,0.0211 c 0.0393,0.0127 0.0775,0.0254 0.11696,0.0381 0.0591,0.0197 0.1183,0.0408 0.17753,0.0606 0.26069,0.0915 0.51913,0.1892 0.77503,0.29315 l 0.0874,0.0366 c 0.0636,0.0268 0.12698,0.0522 0.19039,0.0803 0.21672,0.0926 0.42581,0.20191 0.62562,0.32695 1.85742,1.16539 2.64517,3.54852 1.75452,5.6258 -0.47456,1.10422 -1.36864,1.97602 -2.48453,2.42247 -1.11589,0.44644 -2.36489,0.43119 -3.46956,-0.0423 -0.8561,-0.36658 -1.77606,-0.56086 -2.70723,-0.57207 h -0.003 c -0.27011,-0.003 -0.54022,0.01 -0.80898,0.038 -0.12115,0.0127 -0.24095,0.0296 -0.36224,0.0479 -0.0536,0.009 -0.10844,0.0184 -0.16198,0.0283 l -0.0479,0.008 c -0.0197,0.004 -0.041,0.007 -0.0607,0.0114 -0.0296,0.006 -0.0606,0.0112 -0.0902,0.0182 h -0.006 c -0.0325,0.009 -0.0634,0.0156 -0.0959,0.0226 l -0.0761,0.0184 -0.045,0.0112 -0.0733,0.0183 c -0.0226,0.006 -0.0465,0.0127 -0.0691,0.0184 l -0.0479,0.0127 c -0.0974,0.0268 -0.19458,0.0564 -0.2903,0.0874 -0.0381,0.0127 -0.0776,0.0254 -0.11561,0.038 l -0.0577,0.0197 c -0.0197,0.007 -0.0381,0.0127 -0.0579,0.0212 l -0.0564,0.0209 c -0.0564,0.0212 -0.11412,0.0423 -0.16901,0.0649 -0.28207,0.11277 -0.55652,0.24378 -0.8217,0.39185 -0.0169,0.01 -0.0351,0.0197 -0.052,0.0296 -0.0353,0.0198 -0.0704,0.0408 -0.10574,0.0606 -0.0353,0.0211 -0.0691,0.0408 -0.10425,0.0634 -0.0326,0.0203 -0.0651,0.041 -0.0972,0.0619 l -0.0846,0.055 c -0.0197,0.0127 -0.038,0.0254 -0.0577,0.038 -0.0112,0.007 -0.022,0.0147 -0.0324,0.0226 -0.0112,0.009 -0.0268,0.0182 -0.0408,0.0281 -0.014,0.01 -0.0324,0.0226 -0.0479,0.034 -0.0324,0.0224 -0.0649,0.045 -0.0959,0.069 -0.031,0.0226 -0.0649,0.0479 -0.0972,0.0718 -0.0156,0.0114 -0.0311,0.0241 -0.048,0.0353 -0.33622,0.25889 -0.64806,0.548 -0.93148,0.86387 l -0.009,0.009 c -0.0239,0.0268 -0.0479,0.0535 -0.0718,0.0817 -0.0226,0.0254 -0.0452,0.0523 -0.0676,0.079 l -0.0254,0.0296 c -0.0281,0.0338 -0.0564,0.0676 -0.0832,0.1014 -0.01,0.0114 -0.0182,0.0226 -0.0268,0.034 -0.0239,0.0296 -0.0465,0.0591 -0.0691,0.0887 -0.0169,0.0212 -0.0323,0.0423 -0.0492,0.0634 -0.0452,0.0592 -0.0888,0.11845 -0.13117,0.17903 v 10e-4 c -0.31842,0.45198 -0.5818,0.94015 -0.78491,1.45435 0,0.003 -0.001,0.004 -0.003,0.007 l -0.0254,0.0634 -0.0239,0.0621 c -0.006,0.0156 -0.0127,0.0325 -0.0182,0.0494 -0.006,0.0154 -0.0141,0.0395 -0.0212,0.0606 -0.008,0.0239 -0.0167,0.0494 -0.0254,0.0733 -0.008,0.0254 -0.0168,0.0522 -0.0253,0.0775 -0.37406,1.12307 -0.45602,2.32301 -0.2381,3.48646 0.007,0.0423 0.0156,0.0832 0.0254,0.12548 0.17484,0.87375 0.51584,1.70577 1.00477,2.45074 l 0.0395,0.0606 c 0.49894,0.7523 1.13997,1.39991 1.88688,1.90678 0.0239,0.0154 0.048,0.0323 0.0719,0.0479 0.93103,0.62293 1.99831,1.01299 3.11166,1.13727 l 0.0803,0.008 0.0718,0.007 0.034,0.003 c 0.4466,0.0395 0.89618,0.0366 1.34293,-0.0112 0.0169,-10e-4 0.0353,-0.004 0.0522,-0.007 h 0.004 c 0.93058,-0.10424 1.83125,-0.3926 2.64936,-0.84832 0.17289,-0.0969 0.32515,-0.22659 0.44824,-0.38198 0.12294,-0.156 0.21387,-0.33457 0.26771,-0.52571 0.0535,-0.19159 0.0704,-0.39036 0.0465,-0.58764 -0.0233,-0.19712 -0.0851,-0.38766 -0.18187,-0.56086 -0.0969,-0.17319 -0.22719,-0.32545 -0.38318,-0.44809 -0.15584,-0.12324 -0.33442,-0.21417 -0.52571,-0.26771 -0.19085,-0.0543 -0.39066,-0.0701 -0.58764,-0.0465 -0.19727,0.0239 -0.38751,0.0845 -0.56086,0.18172 -0.73599,0.40905 -1.58177,0.57761 -2.41828,0.48204 l -0.0438,-0.006 c -0.0253,-0.003 -0.0507,-0.007 -0.076,-0.01 -0.0254,-0.004 -0.0535,-0.007 -0.0818,-0.0127 -0.0335,-0.005 -0.0668,-0.0115 -0.10005,-0.0182 -0.0519,-0.01 -0.10365,-0.0211 -0.15495,-0.0338 -0.0156,-0.003 -0.0296,-0.007 -0.0437,-0.01 l -0.0509,-0.0127 c -0.0169,-0.004 -0.0323,-0.009 -0.0507,-0.0127 l -0.0507,-0.0141 c -0.0141,-0.004 -0.0281,-0.009 -0.0423,-0.0127 l -0.0549,-0.0169 c -0.0325,-0.01 -0.0649,-0.0211 -0.0972,-0.031 -0.0155,-0.006 -0.0325,-0.0114 -0.048,-0.0171 -0.0323,-0.0112 -0.0648,-0.0239 -0.0957,-0.0351 -0.0479,-0.0184 -0.0953,-0.0377 -0.14238,-0.0577 l -0.0367,-0.0156 -0.0381,-0.0169 -0.038,-0.0184 -0.0592,-0.0281 c -0.60812,-0.29748 -1.13219,-0.74228 -1.52479,-1.29372 l -0.0338,-0.0507 c -0.0112,-0.0169 -0.0226,-0.0325 -0.0325,-0.048 -0.0112,-0.0169 -0.0197,-0.0295 -0.0281,-0.0437 -0.40845,-0.6337 -0.63295,-1.3685 -0.6482,-2.1223 V 127.902 c 0,-0.0197 0,-0.0422 10e-4,-0.0648 0.001,-0.0211 0.001,-0.0423 0.003,-0.0648 0,-0.0156 0,-0.0311 0.003,-0.0465 l 0.003,-0.0465 c 0.003,-0.0381 0.006,-0.0761 0.01,-0.11277 0.001,-0.0169 0.003,-0.0325 0.006,-0.0494 0.003,-0.0296 0.007,-0.0592 0.0114,-0.0902 0.003,-0.0226 0.006,-0.0452 0.01,-0.0676 l 0.009,-0.0507 c 0.006,-0.0311 0.01,-0.0621 0.0169,-0.093 0.006,-0.0311 0.0112,-0.0592 0.0169,-0.0888 0.007,-0.0296 0.0141,-0.0648 0.0211,-0.0972 0.006,-0.0211 0.01,-0.0423 0.0156,-0.0649 0.004,-0.0169 0.009,-0.0323 0.0127,-0.0507 l 0.0296,-0.10559 c 0.045,-0.14658 0.0972,-0.2918 0.15779,-0.43269 0.0884,-0.20625 0.19398,-0.40472 0.31572,-0.59331 0.0154,-0.0254 0.0352,-0.055 0.0549,-0.0818 0.0114,-0.0182 0.0254,-0.0352 0.0367,-0.052 0.0197,-0.0283 0.0395,-0.055 0.0592,-0.0818 l 0.031,-0.0422 c 0.0114,-0.0156 0.0226,-0.0296 0.0338,-0.0437 0.0142,-0.0184 0.0283,-0.0366 0.0438,-0.055 0.0141,-0.0183 0.0295,-0.0366 0.0437,-0.0536 l 0.045,-0.0522 c 0.0254,-0.031 0.0535,-0.0606 0.0818,-0.0902 l 0.006,-0.006 c 0.0311,-0.034 0.0621,-0.0663 0.0945,-0.0987 0.0239,-0.0254 0.0492,-0.0494 0.076,-0.0733 l 0.0197,-0.0182 c 0.15435,-0.14522 0.31977,-0.27818 0.49476,-0.39753 0.0338,-0.0224 0.0676,-0.045 0.10006,-0.0661 0.0169,-0.0114 0.0338,-0.0226 0.0535,-0.034 0.0197,-0.0126 0.0395,-0.0253 0.0591,-0.0366 0.0197,-0.0112 0.0395,-0.0239 0.0607,-0.0352 0.21163,-0.11995 0.43313,-0.22135 0.66226,-0.30302 l 0.0987,-0.0338 c 0.0226,-0.007 0.0437,-0.0141 0.0663,-0.0211 0.0224,-0.007 0.0437,-0.0127 0.0661,-0.0197 0.0226,-0.006 0.0452,-0.0127 0.0678,-0.0184 0.0226,-0.006 0.0437,-0.0112 0.0648,-0.0169 0.048,-0.0112 0.0959,-0.0226 0.14373,-0.0325 l 0.0621,-0.0126 0.0465,-0.009 0.0479,-0.008 c 0.031,-0.006 0.0606,-0.01 0.0917,-0.0142 h 0.003 c 0.19129,-0.0281 0.38452,-0.0422 0.57791,-0.0422 h 0.0662 c 0.52422,0.01 1.03991,0.12115 1.52195,0.32695 3.13424,1.34441 6.79688,0.41563 8.90796,-2.25915 1.0441,-1.32378 1.61722,-2.9588 1.62769,-4.64482 v -0.0141 c 0.006,-1.48336 -0.4258,-2.93607 -1.24017,-4.17579 -0.81422,-1.23988 -1.97617,-2.21263 -3.34004,-2.79593 -0.0492,-0.0209 -0.0972,-0.0422 -0.14657,-0.0619 -0.0501,-0.0199 -0.0999,-0.0405 -0.14926,-0.0621 -0.0748,-0.031 -0.14807,-0.0606 -0.2242,-0.0902 -0.0746,-0.0296 -0.14926,-0.0592 -0.22404,-0.0874 l -0.12249,-0.0464 c -0.0407,-0.0157 -0.0815,-0.0308 -0.12264,-0.0452 -0.0367,-0.0127 -0.0719,-0.0269 -0.10859,-0.0395 l -0.0972,-0.0353 -0.15076,-0.0521 c -0.10425,-0.0353 -0.20864,-0.0706 -0.31423,-0.10439 l -0.0719,-0.0239 -0.086,-0.0281 -0.12967,-0.041 -0.0873,-0.0268 -0.0775,-0.0224 -0.10993,-0.0324 -0.2212,-0.0634 c -0.0506,-0.0142 -0.10141,-0.0278 -0.15226,-0.0408 l -0.14373,-0.0381 h -0.006 l -0.031,-0.008 c -0.0832,-0.0212 -0.16482,-0.0423 -0.24798,-0.0621 l -0.0847,-0.0197 -0.0986,-0.0239 c -0.0507,-0.0112 -0.0987,-0.0224 -0.14807,-0.0338 l -0.0112,-0.003 -0.14792,-0.0324 c -0.1029,-0.0224 -0.2058,-0.0437 -0.3087,-0.0648 l -0.0902,-0.0169 -0.13101,-0.0254 c -0.0296,-0.006 -0.0592,-0.0112 -0.0874,-0.0169 l -0.12548,-0.0224 -0.0452,-0.009 c -0.0986,-0.0169 -0.19727,-0.0324 -0.29583,-0.0493 -0.10365,-0.0169 -0.20745,-0.0323 -0.31154,-0.0464 l -0.12399,-0.017 -0.0704,-0.009 c -0.008,0 -0.0169,-0.003 -0.0254,-0.003 l -0.0422,-0.006 -0.0423,-0.006 -0.0817,-0.01 -0.0564,-0.007 -0.10858,-0.0127 -0.0338,-0.004 c -0.0437,-0.004 -0.0874,-0.01 -0.13252,-0.0141 l -0.12249,-0.0112 -0.0423,-0.004 -0.12115,-0.0112 c -0.048,-0.004 -0.0959,-0.009 -0.14388,-0.0114 -0.21716,-0.0166 -0.43478,-0.0298 -0.65239,-0.0393 h -0.0494 l -0.0281,-0.001 -0.10574,-0.004 -0.14941,-0.004 c -0.11038,-0.003 -0.22075,-0.004 -0.33113,-0.006 h -0.3241 c -0.0465,0 -0.0917,0 -0.1382,10e-4 -0.0465,0.001 -0.0887,0.001 -0.13236,0.003 -0.0438,0 -0.0875,0.001 -0.13252,0.003 -0.0634,0.001 -0.12832,0.004 -0.19174,0.007 l -0.11127,0.004 -0.0507,0.003 -0.0832,0.004 -0.10858,0.006 -0.0986,0.006 h -0.0141 c -0.86956,0.0549 -1.73343,0.16901 -2.58609,0.3425 l -0.031,0.006 c -0.0691,0.0142 -0.13805,0.0296 -0.20864,0.0437 l -0.0112,0.003 c -0.031,0.007 -0.0621,0.0126 -0.093,0.0196 -0.30585,0.0677 -0.60872,0.14238 -0.91039,0.22405 -1.51611,0.41414 -2.9751,1.01493 -4.3433,1.78847 l -0.14806,0.0845 -0.0591,0.0338 -0.0254,0.0156 -0.0254,0.0154 c -0.27684,0.17529 -0.48907,0.43613 -0.60439,0.74273 -0.11531,0.30645 -0.12862,0.64222 -0.0381,0.9569 0.092,0.31408 0.28283,0.59048 0.54396,0.78775 0.26219,0.19667 0.58136,0.30256 0.90905,0.30167 h 0.001 z"
   style="fill:#1066df;fill-rule:nonzero;stroke-width:0.149563"
   id="path2" />
        </g>
        <g
   transform="matrix(3.9987,0,0,3.9987,-38.875,0.251891)"
   id="g3">
            <path
   d="m 111.96402,121.11354 -0.0127,0.0211 c -0.69592,1.13383 -1.21386,2.36773 -1.53601,3.65845 -0.002,0.007 -0.004,0.0141 -0.006,0.0211 l -0.0211,0.0888 c -0.003,0.0141 -0.007,0.0296 -0.01,0.0437 -0.007,0.0281 -0.0127,0.0564 -0.0197,0.0845 -0.37436,1.62141 -0.43553,3.2995 -0.18037,4.94379 0.003,0.0141 0.004,0.0281 0.006,0.0422 0.007,0.0417 0.0144,0.0836 0.0211,0.12548 l 0.003,0.0141 c 0,0 0,0.007 10e-4,0.0112 0.30241,1.78353 0.97126,3.48526 1.96435,4.99734 l 0.0254,0.0393 c 0.0957,0.14523 0.19443,0.28761 0.29584,0.4285 0.0381,0.0536 0.0776,0.10574 0.11561,0.15779 2.0686,2.78486 5.16186,4.63585 8.59372,5.14242 l 0.0182,0.003 0.086,0.0127 h 0.0127 l 0.0704,0.0112 h 0.0154 l 0.0761,0.0112 c 1.03363,0.13056 2.07922,0.13729 3.11449,0.0197 l 0.0663,-0.008 c 0.0211,-0.003 0.0423,-0.006 0.0634,-0.007 l 0.0888,-0.0114 0.0169,-0.003 h 0.0112 l 0.0197,-0.004 0.0832,-0.0112 0.0296,-0.004 c 0.0507,-0.007 0.0986,-0.0141 0.14658,-0.0211 h 10e-4 c 2.1727,-0.33532 4.22605,-1.2131 5.96965,-2.55214 0.15929,-0.11979 0.29284,-0.27025 0.3932,-0.44255 0.10051,-0.17245 0.16617,-0.36299 0.19309,-0.56086 0.0549,-0.39918 -0.0528,-0.80405 -0.29883,-1.12322 -0.12189,-0.15809 -0.2737,-0.29075 -0.44674,-0.39036 -0.17305,-0.0998 -0.36419,-0.16392 -0.56236,-0.18874 -0.19817,-0.0256 -0.39933,-0.0112 -0.59182,0.0422 -0.19219,0.0537 -0.37211,0.14418 -0.5299,0.26637 -1.06908,0.8205 -2.29205,1.41816 -3.59639,1.75737 -0.0169,0.004 -0.0338,0.007 -0.0507,0.0112 -0.32993,0.0842 -0.66391,0.15151 -1.00057,0.20161 h -0.0142 c -0.0393,0.008 -0.0788,0.0127 -0.11831,0.0182 l -0.0437,0.006 c -0.43223,0.0562 -0.86776,0.0845 -1.30359,0.0845 h -0.003 c -0.93058,0 -1.85682,-0.12848 -2.75225,-0.38184 l -0.008,-0.003 c -0.0697,-0.02 -0.13924,-0.0407 -0.20864,-0.0619 -0.1026,-0.0313 -0.2046,-0.0646 -0.30585,-0.10006 l -0.15645,-0.055 -0.0676,-0.0254 -0.0197,-0.007 c -0.0395,-0.0141 -0.0788,-0.0296 -0.11831,-0.045 l -0.0338,-0.0127 -0.0592,-0.0239 -0.0156,-0.006 h -0.003 c -0.0393,-0.0156 -0.0788,-0.031 -0.1183,-0.0479 l -0.0296,-0.0127 -0.0325,-0.0141 c -0.0591,-0.0254 -0.11696,-0.0507 -0.17619,-0.0761 l -0.0479,-0.0211 c -1.69768,-0.77219 -3.14964,-1.99846 -4.19523,-3.54299 l -0.0254,-0.0367 -0.0437,-0.0661 -0.0381,-0.0592 c -1.03946,-1.6096 -1.60152,-3.48137 -1.62066,-5.39742 v -0.12967 c 0,-0.0522 0,-0.1044 10e-4,-0.15645 v -0.0127 c 0.004,-0.19727 0.0141,-0.3932 0.0296,-0.58763 0.001,-0.0211 0.003,-0.0423 0.006,-0.0621 0,-0.01 0.002,-0.0197 0.003,-0.0296 0.0945,-1.05756 0.35596,-2.09358 0.77489,-3.06933 0.1871,-0.43702 0.40471,-0.86028 0.65119,-1.2668 0.01,-0.017 0.0211,-0.0353 0.031,-0.0523 0.17978,-0.28956 0.37406,-0.56984 0.5821,-0.8398 0.53588,-0.69846 1.16076,-1.32378 1.85877,-1.86026 0.2058,-0.15869 0.41773,-0.30915 0.63549,-0.45093 0.1862,-0.1204 0.37615,-0.23511 0.56938,-0.344 1.08239,-0.60543 2.26633,-1.00805 3.49349,-1.18782 0.47666,-0.0676 0.9575,-0.10156 1.43895,-0.10156 h 0.003 c 0.0366,0 0.0733,-0.001 0.11127,-0.004 h 0.007 c 1.3018,0.0153 2.58818,0.28476 3.78663,0.79343 0.0212,0.008 0.0423,0.0169 0.0634,0.0268 h 0.003 c 0.36807,0.15928 0.7849,0.16482 1.15701,0.0156 0.57313,-0.22838 0.95107,-0.78595 0.95107,-1.4029 0,-0.19233 -0.0368,-0.38303 -0.10828,-0.5616 -0.14896,-0.37197 -0.43956,-0.67005 -0.80749,-0.82858 h -0.003 c -2.21981,-0.95735 -4.66307,-1.27787 -7.05473,-0.9258 l -0.0522,0.008 -0.0832,0.0127 -0.0154,0.003 -0.0621,0.01 c -1.80119,0.2903 -3.52131,0.95675 -5.0479,1.95583 l -0.0114,0.007 c -0.0224,0.0156 -0.0464,0.0296 -0.0691,0.0452 l -0.0703,0.0464 c -0.0155,0.0114 -0.0311,0.0212 -0.0467,0.0326 -1.40873,0.95092 -2.6169,2.16955 -3.55556,3.58651 -0.0182,0.0281 -0.0393,0.0591 -0.0591,0.0887 l -0.0114,0.0171 -0.0606,0.0942 -0.0352,0.055 c -0.0127,0.0198 -0.0254,0.0395 -0.0366,0.0592 -0.007,0.0112 -0.0142,0.0224 -0.0212,0.0325 l -0.0254,0.0393 -0.003,0.007 0.001,-0.003 z"
   style="fill:#1066df;fill-rule:nonzero;stroke-width:0.149563"
   id="path3" />
        </g>
    </g>
</svg>
