<?xml version="1.0" encoding="UTF-8" standalone="no"?>
<svg
   width="223.73384"
   height="175.04115"
   viewBox="0 0 223.73384 175.04115"
   version="1.1"
   xml:space="preserve"
   style="clip-rule:evenodd;fill-rule:evenodd;stroke-linejoin:round;stroke-miterlimit:2"
   id="svg2"
   xmlns="http://www.w3.org/2000/svg"
   xmlns:svg="http://www.w3.org/2000/svg"><defs
   id="defs2" />
    <g
   transform="matrix(4.00296,0,0,4.00296,-401.02234,-316.77641)"
   id="g2">
        <path
   d="m 132.13025,90.067356 -4.64604,10.932034 H 116.5795 c -0.006,0 -0.0125,0 -0.0188,0 -2.98837,0 -5.44722,2.45885 -5.44722,5.44722 0,0.006 0,0.0125 0,0.0188 0,0.006 0,0.0125 0,0.0188 0,2.98838 2.45885,5.44723 5.44722,5.44723 0.006,0 0.0125,0 0.0188,0 h 6.25868 l -4.57305,10.93203 c -1.09272,-0.009 -1.13905,0 -1.68563,0 -9.04622,0 -16.39805,-7.35184 -16.39805,-16.39805 0,-9.046434 7.35183,-16.398054 16.39805,-16.398054 h 15.57829 z"
   style="fill:#3551f2;fill-rule:nonzero;stroke-width:0.218545"
   id="path1" />
        <path
   d="m 156.07355,95.533374 c 0,9.046436 -7.35183,16.398056 -16.39805,16.398056 h -16.83536 l 4.64604,-10.93204 h 12.18932 c 3.0063,0 5.46602,-2.459718 5.46602,-5.465798 0,-3.006517 -2.45972,-5.466236 -5.46602,-5.466236 h -7.54328 l 4.7092,-10.931815 c 1.09272,0.0096 1.79556,0 2.83408,0 9.04622,0 16.39805,7.351619 16.39805,16.397833 z"
   style="fill:#3551f2;fill-rule:nonzero;stroke-width:0.218545"
   id="path2" />
    </g>
</svg>
