<svg width="107" height="128" fill="none" xmlns="http://www.w3.org/2000/svg"><path d="M106.5 25.6V0h-53v25.6H80a25.921 25.921 0 0 1-7.922 18.25A26.23 26.23 0 0 1 53.5 51.197V25.599c-13.85-.176-27.207 5.114-37.142 14.71A51.89 51.89 0 0 0 .5 76.797a51.89 51.89 0 0 0 15.858 36.488c9.935 9.597 23.291 14.886 37.142 14.71 13.854.188 27.217-5.098 37.155-14.697a51.842 51.842 0 0 0 15.845-36.5H80a25.823 25.823 0 0 1-2.125 9.914 25.951 25.951 0 0 1-5.785 8.35 26.116 26.116 0 0 1-8.56 5.507 26.241 26.241 0 0 1-10.03 1.828 26.228 26.228 0 0 1-18.577-7.35A25.922 25.922 0 0 1 27 76.797a25.922 25.922 0 0 1 7.923-18.25 26.228 26.228 0 0 1 18.577-7.35v25.6c13.85.176 27.207-5.114 37.142-14.71 9.934-9.598 15.637-22.718 15.858-36.488Z" fill="#EF6100"/></svg>