<?xml version="1.0" encoding="UTF-8" standalone="no"?>
<svg
   width="128"
   height="154.56584"
   viewBox="0 0 128 154.56584"
   version="1.1"
   xml:space="preserve"
   style="clip-rule:evenodd;fill-rule:evenodd;stroke-linejoin:round;stroke-miterlimit:2"
   id="svg1"
   xmlns="http://www.w3.org/2000/svg"
   xmlns:svg="http://www.w3.org/2000/svg"><defs
   id="defs1" />
    <g
   transform="matrix(4,0,0,4,-360,-434.71648)"
   id="g1">
        <path
   d="m 122,116.40727 v -7.72815 h -16 v 7.72815 h 8 c -0.0326,2.08075 -0.89389,4.06475 -2.39155,5.50943 -1.50007,1.44891 -3.51728,2.24664 -5.60845,2.21842 v -7.72785 c -4.18143,-0.0531 -8.213434,1.54355 -11.212528,4.44075 -2.999246,2.89721 -4.720755,6.85827 -4.787472,11.01525 0.06672,4.15683 1.788377,8.11788 4.787472,11.01509 2.999094,2.89721 7.031098,4.49389 11.212528,4.44076 4.18249,0.0567 8.2166,-1.53887 11.21645,-4.43683 2.99985,-2.89797 4.7203,-6.86114 4.78355,-11.01902 h -8 c -0.0139,1.03034 -0.232,2.0477 -0.64166,2.99321 -0.41042,0.94686 -1.00392,1.80347 -1.74642,2.5203 -0.74384,0.71834 -1.62188,1.28347 -2.584,1.66279 -0.96347,0.38008 -1.9923,0.5677 -3.02792,0.55185 -2.09117,0.0282 -4.10808,-0.76981 -5.608,-2.21887 -1.500075,-1.4489 -2.360453,-3.43034 -2.392,-5.50928 0.0317,-2.0791 0.892075,-4.06053 2.392,-5.50944 1.49992,-1.4489 3.51668,-2.24709 5.608,-2.21871 v 7.72815 c 4.18143,0.0531 8.21343,-1.544 11.21253,-4.44121 2.99909,-2.89706 4.72075,-6.85796 4.78747,-11.01479 z"
   style="fill:#ef6100;fill-rule:nonzero;stroke-width:0.150943"
   id="path1" />
    </g>
</svg>
