<svg width="126" height="128" fill="none" xmlns="http://www.w3.org/2000/svg"><g clip-path="url(#a)" fill="#1066DF"><path d="M112.298 105.858a4.988 4.988 0 0 0-1.541-1.23 5.132 5.132 0 0 0-1.894-.551 5.122 5.122 0 0 0-1.96.216 5.036 5.036 0 0 0-1.724.952 26.96 26.96 0 0 0-.391.325 53.56 53.56 0 0 1-4.857 3.571l-.208.137a35.88 35.88 0 0 1-1.05.66l-.24.146c-.08.047-.156.094-.231.141l-.137.085-.245.146c-.08.047-.155.094-.235.136a54.005 54.005 0 0 1-2.85 1.546l-.241.122-.335.17-.438.212-.033.019c-.146.07-.292.136-.438.207-.113.052-.221.104-.334.155l-.217.099-.344.156c-.15.066-.306.136-.462.202-.31.137-.626.269-.942.396a54.248 54.248 0 0 1-1.409.556h-.01a29.48 29.48 0 0 1-.927.339l-.061.024-.443.155c-.156.052-.311.104-.462.16l-.466.151c-.043.014-.085.029-.132.043l-.302.094-.25.08c-.254.08-.504.155-.758.231l-.17.052c-.103.028-.207.061-.31.089l-.359.099-.287.08-.189.052-.24.061a39.26 39.26 0 0 1-.815.208c-.066.018-.136.033-.202.051l-.293.071-.24.057-.061.014c-.123.028-.25.056-.372.085-.226.051-.453.098-.683.146-.217.047-.434.089-.646.131l-.527.099-.326.057c-.108.019-.193.038-.292.052l-.419.07-.41.066-.052.01c-.17.023-.334.052-.499.075-.165.024-.325.047-.48.066l-.104.014-.396.052h-.028l-.33.043-.292.032c-.288.033-.58.066-.872.095h-.07c-.095.019-.194.028-.288.037l-.25.024c-.098.009-.197.019-.296.024l-.297.023c-.391.028-.787.057-1.178.08l-.523.028-.297.01c-.075 0-.15.005-.226.009l-.287.01h-.292c-.1.004-.198.014-.297.014h-.104c-.165 0-.33.005-.49.005h-1.07a54.056 54.056 0 0 1-16.394-2.752c-.189-.066-.382-.127-.57-.193a18.025 18.025 0 0 1-.278-.099c-.09-.033-.189-.066-.278-.099a15.314 15.314 0 0 1-.452-.165l-.189-.07c-.17-.062-.34-.128-.504-.189l-.085-.033c-.066-.023-.132-.052-.193-.075l-.066-.028-.052-.019-.113-.043-.104-.042h-.023l-.047-.024-.212-.085c-.09-.037-.184-.075-.273-.113-.151-.061-.302-.122-.453-.188h-.023l-.302-.132-.353-.155A54.223 54.223 0 0 1 25.526 93.67a54.207 54.207 0 0 1-8.91-29.653v-.801c0-.203.01-.405.015-.608v-.047a53.92 53.92 0 0 1 3.463-17.596l.226-.59c.066-.174.137-.348.207-.522l.146-.354c.08-.193.16-.386.245-.579.09-.212.184-.424.278-.636.005-.014.014-.028.02-.042a.49.49 0 0 1 .023-.057l.197-.438s0-.01.005-.014l.184-.4c.019-.038.033-.08.052-.118l.028-.067a2.45 2.45 0 0 1 .094-.193 3.08 3.08 0 0 1 .057-.122l.056-.123.015-.028.037-.075c.07-.151.146-.302.222-.453.014-.023.023-.051.037-.075.1-.198.198-.396.297-.589.07-.136.141-.278.212-.414l.047-.085s0-.01.005-.014c0 0 0-.01.005-.01.042-.085.084-.16.127-.24.014-.028.033-.057.047-.085l.094-.174c.028-.057.061-.113.09-.17l.019-.033.037-.066c.052-.103.109-.202.16-.301a53.39 53.39 0 0 1 5.894-8.57c.038-.047.08-.094.113-.141a5.053 5.053 0 0 0-7.849-6.365 63.824 63.824 0 0 0-5.173 7.071l-.037.057c-.137.217-.269.433-.405.645-.071.113-.137.227-.208.344a63.816 63.816 0 0 0-5.206 10.78 62.667 62.667 0 0 0-1.847 5.809c-.047.17-.09.343-.136.518-.014.047-.024.094-.038.146l-.07.278-.071.278c-.047.184-.09.367-.132.556 0 .014-.01.033-.01.047-.004.028-.014.052-.018.08v.019l-.085.348c-.01.033-.014.066-.024.095a63.959 63.959 0 0 0-.73 24.526c.01.062.019.128.033.194a63.777 63.777 0 0 0 8.852 23.349c.076.117.151.24.227.358l.212.33c.07.112.14.22.212.33.103.16.207.315.31.475.062.094.123.184.184.273.024.038.052.076.076.113.103.156.212.311.32.467.024.033.047.066.066.099.01.019.023.033.033.051l.038.052a47.623 47.623 0 0 0 .72 1.023c.132.183.269.372.406.556.113.155.226.306.334.457.052.07.104.141.16.212l.269.353c.056.071.108.146.17.217.084.113.174.221.259.334.047.061.094.123.14.179.095.123.194.24.288.363.061.075.118.151.18.221.084.104.169.212.258.316.062.075.123.146.184.217.085.108.18.212.269.32.061.075.127.151.193.226.085.104.174.208.264.311.141.17.287.335.433.495l.462.518c.155.17.32.358.485.532.165.18.325.354.49.528.165.174.33.349.5.523a63.279 63.279 0 0 0 11.599 9.503l.099.061.339.212a63.886 63.886 0 0 0 20.72 8.428l.339.071.311.061c.221.043.438.09.66.132.108.024.221.043.33.061l.169.029.17.028.348.061.085.014.123.024c.127.023.254.042.386.066l.466.075.471.071.471.071c.156.023.316.042.472.066l.47.061.297.037.307.038c.09.01.183.024.273.033.193.024.382.043.575.061l.414.043.25.023.349.033c.598.057 1.201.099 1.804.137.236.014.471.028.707.038.39.018.787.037 1.178.047h.155l.716.014h1.838c.245 0 .485-.01.73-.014h.052a37 37 0 0 0 .744-.024l.382-.014.381-.019c.231-.009.467-.023.698-.037.343-.019.683-.043 1.027-.066a93.994 93.994 0 0 0 2.275-.212c.137-.015.273-.033.415-.048.141-.014.278-.033.414-.051l.16-.019c.132-.014.264-.033.391-.052.16-.019.326-.042.486-.066l.094-.014c.184-.028.367-.052.556-.085l.066-.009.358-.057.34-.056.202-.033h.033c.259-.048.513-.09.772-.137l.047-.009.453-.085a63.658 63.658 0 0 0 21.276-8.118c.118-.07.231-.141.348-.212.368-.226.735-.457 1.093-.688.142-.089.278-.179.415-.268a64.797 64.797 0 0 0 6.252-4.65 5.044 5.044 0 0 0 1.771-3.43 5.063 5.063 0 0 0-1.163-3.679h-.019Z"/><path d="M40.919 18.064a4.99 4.99 0 0 0 2.535-.688c.998-.579 2.02-1.13 3.052-1.644a53.722 53.722 0 0 1 2.003-.942c.113-.052.226-.099.339-.15.075-.034.15-.067.23-.1l.448-.193.335-.141c.226-.094.457-.189.683-.278l.259-.104.429-.17a50.124 50.124 0 0 1 1.79-.645l.292-.099a54.55 54.55 0 0 1 1.757-.556l.293-.084a55.206 55.206 0 0 1 2.299-.613l.254-.061.297-.07.202-.048.217-.052c.142-.033.287-.066.429-.094.217-.047.433-.094.655-.137l.363-.07c.49-.095.98-.184 1.47-.269.235-.038.475-.08.71-.113.241-.038.481-.07.731-.108l.052-.01a77.71 77.71 0 0 1 1.046-.136l.735-.085c.245-.028.49-.052.735-.07.245-.024.49-.043.74-.062.155-.01.31-.024.461-.033l.928-.057c.156-.009.311-.014.462-.023.094 0 .184-.01.278-.01l.254-.009.292-.01.292-.009c.198-.005.396-.01.59-.01h.697a53.218 53.218 0 0 1 8.051.608c.1.015.203.034.306.048l.514.084.099.02.085.013c.127.024.259.043.386.066l.127.024.17.033.17.033.32.061c.113.019.226.042.334.066l.09.019c.254.052.513.108.768.165l.235.052c.18.037.354.08.533.122.207.047.414.099.621.15.194.048.387.1.58.147l.207.057.222.056h.01c.14.038.282.075.418.113.02 0 .038.01.057.014l.193.057c.09.023.18.052.269.075l.221.061c.104.029.207.062.311.09l.245.075.222.066.103.033h.01l.127.038.268.085.17.052.221.07.391.127c.198.066.396.137.594.203.872.306 1.734.631 2.591.98l.292.122c.212.09.424.175.636.269.726.31 1.423.674 2.092 1.093 6.209 3.896 8.843 11.863 5.866 18.807a15.18 15.18 0 0 1-8.306 8.099 15.155 15.155 0 0 1-11.6-.141 23.717 23.717 0 0 0-9.05-1.913h-.01a23.578 23.578 0 0 0-3.914.287 21.31 21.31 0 0 0-.542.094l-.16.029c-.066.014-.137.023-.203.037-.099.02-.202.038-.301.062h-.02a7.89 7.89 0 0 1-.32.075l-.254.061-.15.038-.246.061c-.075.019-.155.043-.23.061l-.16.043c-.326.09-.65.188-.971.292l-.387.127-.193.066c-.066.024-.127.042-.193.07l-.188.071c-.189.071-.382.142-.566.217-.942.377-1.86.815-2.746 1.31l-.175.099c-.117.066-.235.136-.353.202-.118.071-.23.137-.349.212-.113.071-.216.137-.325.208l-.282.183-.194.128a1.63 1.63 0 0 0-.108.075c-.038.028-.09.061-.137.094l-.16.113c-.108.076-.216.151-.32.231-.104.075-.217.16-.325.24-.052.038-.104.08-.16.118a23.193 23.193 0 0 0-3.114 2.888l-.029.029c-.08.089-.16.178-.24.273-.075.085-.15.174-.226.264l-.085.099c-.094.113-.188.226-.278.339a12.5 12.5 0 0 0-.32.41c-.057.07-.109.14-.165.212-.151.197-.297.395-.438.598v.005a23.287 23.287 0 0 0-2.625 4.862c0 .01-.004.014-.009.023l-.085.212-.08.208c-.019.051-.042.108-.061.164a8.576 8.576 0 0 0-.07.203l-.086.245-.084.26a23.309 23.309 0 0 0-.712 12.074 23.246 23.246 0 0 0 3.36 8.193l.131.203a23.212 23.212 0 0 0 6.309 6.374c.08.052.16.108.24.16a23.368 23.368 0 0 0 10.67 3.83l.241.024.113.01a23.15 23.15 0 0 0 4.49-.038c.057-.005.118-.015.174-.024h.014a23.602 23.602 0 0 0 8.858-2.836A5.073 5.073 0 0 0 83.47 83.3a5.05 5.05 0 0 0 1.05-3.722 5.021 5.021 0 0 0-1.89-3.373 5.012 5.012 0 0 0-1.756-.895 5.025 5.025 0 0 0-1.965-.156c-.66.08-1.295.283-1.875.608a13.49 13.49 0 0 1-8.084 1.611l-.146-.019c-.085-.009-.17-.023-.255-.033-.084-.014-.179-.023-.273-.042a8.306 8.306 0 0 1-.334-.061 9.211 9.211 0 0 1-.519-.113c-.052-.01-.099-.024-.146-.033l-.17-.043c-.056-.014-.108-.028-.169-.042l-.17-.047-.14-.043-.185-.056c-.108-.033-.216-.07-.325-.104l-.16-.056c-.108-.038-.217-.08-.32-.118-.16-.061-.32-.127-.476-.193l-.123-.052-.127-.057-.127-.06-.198-.095a13.586 13.586 0 0 1-5.097-4.325l-.114-.17c-.037-.056-.075-.108-.108-.16a13.61 13.61 0 0 1-2.261-7.241v-.443c0-.066 0-.141.005-.217.004-.07.004-.14.009-.216 0-.052 0-.104.01-.156l.009-.155c.01-.127.019-.255.033-.377.004-.057.01-.108.019-.165.009-.099.023-.198.037-.301.01-.076.02-.151.033-.227l.029-.17c.018-.103.032-.207.056-.31l.057-.297c.023-.099.047-.217.07-.325.02-.07.033-.141.052-.217.014-.056.028-.108.042-.17l.1-.353a13.55 13.55 0 0 1 1.422-3.176c.052-.084.104-.169.16-.254.052-.084.118-.183.184-.273.038-.061.085-.118.123-.174.066-.094.132-.184.198-.273l.103-.142a4.64 4.64 0 0 1 .113-.146 4.97 4.97 0 0 1 .146-.184c.047-.06.1-.122.146-.178l.151-.175c.085-.104.18-.202.273-.301l.02-.02a10.453 10.453 0 0 1 .57-.574l.065-.061c.514-.485 1.07-.928 1.654-1.329l.334-.221c.057-.038.113-.076.18-.113a3.77 3.77 0 0 1 .197-.123c.066-.038.132-.08.203-.118.706-.4 1.446-.74 2.214-1.013l.33-.113.221-.07c.076-.024.146-.043.222-.066.075-.019.15-.043.226-.061l.217-.057c.16-.038.32-.075.48-.108l.207-.043.156-.028.16-.028c.104-.02.203-.033.306-.047h.01a13.28 13.28 0 0 1 1.931-.142h.222c1.752.033 3.477.406 5.088 1.093 10.478 4.495 22.722 1.39 29.78-7.552a25.328 25.328 0 0 0 5.441-15.528v-.047A25.247 25.247 0 0 0 95.711 5.16c-.165-.07-.325-.141-.49-.207-.165-.066-.34-.137-.5-.207-.25-.104-.494-.203-.749-.302-.25-.099-.5-.198-.749-.292l-.41-.155a14.354 14.354 0 0 0-.41-.151c-.122-.043-.24-.09-.362-.132l-.325-.118-.505-.174a64.555 64.555 0 0 0-1.05-.349l-.24-.08-.288-.094-.433-.137-.292-.09-.26-.075-.367-.108-.74-.212c-.17-.047-.339-.094-.508-.137l-.481-.127h-.019l-.103-.028c-.278-.07-.552-.142-.83-.207l-.282-.066-.33-.08c-.17-.038-.33-.076-.495-.114l-.037-.009-.495-.108c-.344-.076-.688-.146-1.032-.217l-.302-.057-.438-.084-.292-.057-.419-.075-.15-.029c-.33-.056-.66-.108-.99-.165a39.704 39.704 0 0 0-1.041-.155l-.415-.057-.236-.028c-.028 0-.056-.01-.084-.01L78.42.45l-.14-.02-.274-.033-.189-.023-.362-.043-.114-.014C77.197.303 77.05.284 76.9.27l-.41-.038-.142-.014-.405-.038A66.88 66.88 0 0 0 73.28.01h-.165l-.094-.004-.353-.014-.5-.014a88.27 88.27 0 0 0-1.107-.019h-1.083c-.156 0-.306 0-.462.005-.155.004-.297.004-.443.01a29.104 29.104 0 0 0-1.084.033l-.371.013-.17.01-.278.014-.363.019-.33.018h-.047a63.49 63.49 0 0 0-8.645 1.145l-.103.02c-.231.046-.462.098-.698.145l-.038.01c-.103.023-.207.042-.31.066a63.507 63.507 0 0 0-17.564 6.728l-.495.282-.197.113-.085.052-.085.052a5.039 5.039 0 0 0-2.021 2.482 5.092 5.092 0 0 0-.127 3.2 5.096 5.096 0 0 0 1.818 2.633 5.041 5.041 0 0 0 3.039 1.008h.005l-.005.047Z"/><path d="m33.186 41.069-.043.07a43.529 43.529 0 0 0-5.135 12.231c-.005.024-.014.047-.019.07l-.07.297c-.01.048-.024.1-.034.146-.023.095-.042.189-.065.283a43.682 43.682 0 0 0-.66 16.16l.056.367c.01.047.015.094.02.142l.028.16.042.259.01.047s0 .024.004.038a43.754 43.754 0 0 0 6.568 16.706l.084.132c.32.485.65.96.99 1.432.127.179.259.353.386.528a43.742 43.742 0 0 0 28.73 17.191l.06.009.288.043h.042l.236.037h.052l.254.038c3.453.438 6.95.457 10.412.066l.222-.028c.07-.01.14-.019.212-.024l.296-.037.057-.01h.037l.067-.014.277-.038.1-.014c.169-.023.33-.047.49-.07h.004a43.724 43.724 0 0 0 19.957-8.532 5 5 0 0 0 1.314-1.48 5.075 5.075 0 0 0 .523-3.854 5.013 5.013 0 0 0-.876-1.776 5.088 5.088 0 0 0-1.493-1.305 5.02 5.02 0 0 0-1.88-.631 5.016 5.016 0 0 0-1.979.141c-.64.18-1.244.48-1.771.89a33.666 33.666 0 0 1-12.023 5.876c-.057.014-.114.023-.17.037a33.642 33.642 0 0 1-3.345.674h-.047c-.132.028-.264.042-.396.061l-.146.019a33.722 33.722 0 0 1-4.358.283h-.01c-3.109 0-6.204-.429-9.2-1.277l-.029-.01c-.23-.065-.466-.136-.697-.207a26.068 26.068 0 0 1-1.022-.334l-.523-.184-.226-.085-.066-.023c-.132-.047-.264-.1-.396-.151l-.113-.043-.198-.08-.052-.018h-.01c-.131-.052-.263-.104-.395-.16l-.099-.043-.108-.047-.59-.255-.16-.07a33.87 33.87 0 0 1-14.025-11.844l-.085-.123-.146-.221-.127-.198A33.882 33.882 0 0 1 36.8 64.272v-.434c0-.174 0-.348.005-.523v-.042a33.605 33.605 0 0 1 .118-2.172c0-.033.004-.066.01-.099.315-3.538 1.191-7 2.59-10.26a33.949 33.949 0 0 1 2.177-4.236l.104-.175a33.907 33.907 0 0 1 1.945-2.808 33.77 33.77 0 0 1 8.34-7.726 34.023 34.023 0 0 1 13.583-5.121 34.192 34.192 0 0 1 4.809-.34h.01c.122 0 .244-.004.372-.013h.023a33.403 33.403 0 0 1 12.871 2.742h.01a5.052 5.052 0 1 0 3.986-9.286h-.01a43.544 43.544 0 0 0-23.585-3.095l-.174.028-.278.042-.052.01-.207.032a43.435 43.435 0 0 0-16.876 6.54l-.037.023c-.076.052-.156.1-.231.15l-.236.156c-.052.038-.103.071-.155.109a43.356 43.356 0 0 0-11.887 11.99c-.061.094-.132.198-.198.297l-.037.056-.203.316-.118.184c-.042.066-.085.132-.122.198a2.247 2.247 0 0 1-.07.108l-.086.132-.009.023.005-.01Z"/></g><defs><clipPath id="a"><path fill="#fff" transform="translate(-2.5)" d="M0 0h128v128H0z"/></clipPath></defs></svg>