<svg width="128" height="128" fill="none" xmlns="http://www.w3.org/2000/svg"><path d="M64.196 106.531c23.804 0 42.969-19.165 42.969-42.364 0-23.2-19.165-42.364-42.97-42.364-23.804 0-42.968 19.165-42.968 42.364 0 23.2 19.164 42.364 42.969 42.364Z" fill="#46B549"/><path d="M100.189 109.059c2.31 2.188 2.169 5.927-.48 7.69-24.922 16.582-58.762 14.15-80.894-7.793-25.217-25.015-25.217-64.958 0-89.973C40.832-3.035 74.993-5.408 99.958 11.358c2.532 1.7 2.714 5.268.558 7.424-1.84 1.84-4.753 1.988-6.928.56C72.829 5.708 44.546 8.18 26.48 26.244c-21.384 20.779-21.384 54.67-.404 75.449 18.07 18.068 46.359 20.536 67.118 6.896 2.183-1.434 5.097-1.328 6.994.469Zm9.309-9.099c2.191 2.312 5.93 2.183 7.707-.46 14.454-21.502 14.392-49.89-.184-71.333-1.708-2.513-5.259-2.68-7.407-.532-1.851 1.85-1.989 4.783-.537 6.96 11.731 17.59 11.713 40.47-.053 58.355-1.44 2.188-1.327 5.108.474 7.01Z" fill="#46B549"/></svg>