<?xml version="1.0" encoding="UTF-8" standalone="no"?>
<svg
   width="190.79219"
   height="190.79131"
   viewBox="0 0 190.79219 190.79131"
   version="1.1"
   xml:space="preserve"
   style="clip-rule:evenodd;fill-rule:evenodd;stroke-linejoin:round;stroke-miterlimit:2"
   id="svg3"
   xmlns="http://www.w3.org/2000/svg"
   xmlns:svg="http://www.w3.org/2000/svg"><defs
   id="defs3" />
    <g
   transform="matrix(1.00373,0,0,1.01105,-416.40748,-422.26134)"
   id="g3">
        <g
   transform="matrix(3.98212,0,0,3.98212,0.583005,2.53258)"
   id="g1">
            <path
   d="m 127.99261,143.79883 c 8.87072,0 16.0122,-7.14148 16.0122,-15.78657 0,-8.64527 -7.14148,-15.78657 -16.0122,-15.78657 -8.87054,0 -16.01202,7.14149 -16.01202,15.78657 0,8.64509 7.14167,15.78657 16.01202,15.78657 z"
   style="fill:#46b549;fill-rule:nonzero;stroke-width:0.186321"
   id="path1" />
        </g>
        <g
   transform="matrix(3.98212,0,0,3.98212,0.583005,2.53258)"
   id="g2">
            <path
   d="m 141.40527,144.74087 c 0.8608,0.81553 0.80826,2.20864 -0.17887,2.86561 -9.28696,6.17895 -21.89695,5.27287 -30.14443,-2.90399 -9.3969,-9.32162 -9.3969,-24.20621 0,-33.52783 8.20444,-8.20444 20.93423,-9.0889 30.2374,-2.8412 0.94353,0.63349 1.01117,1.96288 0.20756,2.76667 -0.68566,0.68566 -1.77116,0.74044 -2.58165,0.20812 -7.73547,-5.07947 -18.27488,-4.15905 -25.00665,2.57272 -7.96856,7.74292 -7.96856,20.37229 -0.15036,28.11521 6.73307,6.73307 17.27509,7.65275 25.01075,2.56992 0.81366,-0.53455 1.89953,-0.49487 2.60625,0.17477 z m 3.4691,-3.39066 c 0.81608,0.86154 2.20958,0.81366 2.87157,-0.17123 5.38616,-8.01272 5.36324,-18.59107 -0.0686,-26.5818 -0.63647,-0.93626 -1.95935,-0.99886 -2.75997,-0.19843 -0.68957,0.68976 -0.74118,1.78253 -0.20011,2.59396 4.37146,6.55494 4.36493,15.08078 -0.0197,21.74528 -0.53642,0.81553 -0.49449,1.90364 0.17682,2.61222 z"
   style="fill:#46b549;fill-rule:nonzero;stroke-width:0.186321"
   id="path2" />
        </g>
    </g>
</svg>
