<?xml version="1.0" encoding="UTF-8" standalone="no"?>
<svg
   width="548.71027"
   height="362.9292"
   viewBox="0 0 548.71027 362.9292"
   version="1.1"
   xml:space="preserve"
   style="clip-rule:evenodd;fill-rule:evenodd;stroke-linejoin:round;stroke-miterlimit:2"
   id="svg3"
   xmlns="http://www.w3.org/2000/svg"
   xmlns:svg="http://www.w3.org/2000/svg"><defs
   id="defs3" />
    <g
   transform="matrix(3.98978,0,0,3.98978,-235.75523,-330.95463)"
   id="g3">
        <path
   d="m 79.761686,167.53058 c -0.07781,0.0193 -0.159376,0.0193 -0.237186,0 -0.202305,-0.059 -0.354706,-0.22806 -0.393342,-0.4352 -0.217868,-1.38233 5.784765,-14.09755 8.547285,-19.03714 1.38448,-2.45396 11.751445,-9.22933 18.739307,-12.55154 0.62356,-0.29461 4.66323,-2.23341 4.78666,-2.01233 0.12342,0.22055 -3.64687,3.15479 -3.84381,3.32222 -6.14645,4.92564 -17.134821,17.81203 -22.87129,25.14334 -3.65331,4.67074 -4.321402,5.48908 -4.727624,5.57065 z"
   style="fill-rule:nonzero;stroke-width:0.53662"
   id="path1" />
        <path
   d="m 142.67342,99.538125 c 9.66185,-0.302117 14.75115,2.454505 17.28293,4.910075 2.04559,1.8229 3.27982,4.39009 3.42578,7.12631 0.0655,3.65707 -3.89318,4.75339 -6.26021,5.41611 -0.31929,0.0816 -0.70512,0.18836 -1.02441,0.29461 1.63454,0.65306 5.38445,1.8245 8.75979,2.87199 14.03744,4.36862 19.97836,6.54569 20.48279,8.4362 0.10732,0.43627 -0.0311,0.89777 -0.36061,1.2031 -0.75395,0.63 -2.17922,0.52321 -4.55644,0.12289 l -0.34398,-0.0574 c -24.38777,-3.87815 -41.06432,-3.59965 -41.23603,-3.59965 -44.74339,0.67883 -67.61575,33.07029 -75.137554,43.71684 -1.975299,2.80652 -2.761984,3.91625 -3.486421,3.93611 -0.209819,-0.004 -0.413198,-0.0725 -0.582233,-0.19694 -0.369195,-0.31071 -0.571501,-0.7781 -0.54467,-1.25999 -0.163132,-5.04852 10.459263,-34.90553 33.074582,-51.86702 9.410166,-7.06675 25.405206,-14.2215 48.424596,-8.58968 -1.31579,-1.41131 -2.05471,-3.2664 -2.06974,-5.19555 -6.76088,0.88327 -18.84878,-0.0816 -27.45617,-1.2031 -7.39999,-0.99007 -19.905385,-3.00239 -20.708169,-5.850237 -0.172255,-0.622479 0.08157,-1.292718 1.679621,-2.2259 7.19071,-4.222127 17.512058,-5.138138 17.512058,-5.138138 29.10091,-2.80867 33.12449,7.14939 33.12449,7.14939 z"
   style="fill-rule:nonzero;stroke-width:0.53662"
   id="path2" />
        <path
   d="m 110.86043,90.005068 c 0,0 -8.79359,-5.171944 -7.37638,-6.545692 1.41775,-1.373748 17.52065,0 28.10978,4.54088 10.58912,4.540342 11.25936,9.6055 11.25936,9.6055 -3.45047,-5.645244 -12.5392,-9.131665 -31.99329,-7.600688 z m 75.14024,33.047752 c -1.57337,0.0488 -2.95785,0.074 -5.04745,0.10893 -0.51355,-0.006 -1.02173,-0.10571 -1.50039,-0.29245 l -13.45575,-4.27096 c -0.39334,-0.12289 -2.95034,-0.94875 -2.72389,-1.28467 0.22699,-0.33646 2.58115,-0.31876 2.99113,-0.30266 h 0.90957 c 16.51287,0.48296 26.22355,1.63186 28.98124,3.4113 0.36866,0.20552 0.54682,0.6434 0.42608,1.04802 -0.14918,0.60047 -0.30427,1.2793 -10.58054,1.58249 z m -105.269848,4.91061 c -0.435735,0.0832 -0.886496,0.0349 -1.294327,-0.13952 -0.679898,-0.27851 -1.00026,-0.81781 -1.634545,-1.63186 -1.634009,-1.99623 -2.294588,-4.25433 -1.761724,-5.87438 0.349876,-0.99973 1.199882,-1.74617 2.236633,-1.9635 3.220794,-0.81781 6.851029,0.4352 8.194189,1.9635 1.089339,1.19666 0.590819,1.58732 -0.818882,2.75769 -0.823712,0.68741 -1.603958,1.4258 -2.335908,2.2098 -1.196663,1.21383 -1.632398,2.21248 -2.585436,2.67827 z"
   style="fill-rule:nonzero;stroke-width:0.53662"
   id="path3" />
    </g>
</svg>
