<svg width="128" height="128" fill="none" xmlns="http://www.w3.org/2000/svg"><g clip-path="url(#a)"><g clip-path="url(#b)" fill="#000"><path d="M19.117 100.646a.46.46 0 0 1-.222 0 .518.518 0 0 1-.366-.405c-.203-1.289 5.39-13.136 7.964-17.739 1.29-2.286 10.95-8.599 17.46-11.694.581-.275 4.346-2.082 4.46-1.876.115.206-3.397 2.94-3.581 3.096-5.727 4.59-15.966 16.597-21.31 23.427-3.404 4.353-4.027 5.115-4.405 5.191Z"/><path d="M77.735 37.295c9.003-.282 13.745 2.286 16.104 4.574a9.578 9.578 0 0 1 3.191 6.64c.061 3.408-3.627 4.43-5.833 5.047-.297.076-.657.175-.954.275 1.523.608 5.017 1.7 8.162 2.675 13.079 4.071 18.615 6.1 19.085 7.861a1.15 1.15 0 0 1-.336 1.121c-.702.587-2.03.488-4.245.115l-.321-.054c-22.724-3.614-38.262-3.354-38.422-3.354-41.69.632-63.001 30.813-70.01 40.734-1.84 2.615-2.574 3.649-3.249 3.667a.946.946 0 0 1-.542-.184 1.43 1.43 0 0 1-.507-1.173c-.153-4.705 9.745-32.524 30.817-48.328 8.768-6.584 23.672-13.25 45.12-8.004a7.18 7.18 0 0 1-1.929-4.84c-6.299.823-17.562-.077-25.582-1.121-6.895-.923-18.547-2.798-19.295-5.452-.16-.58.076-1.204 1.565-2.074 6.7-3.933 16.317-4.787 16.317-4.787 27.115-2.617 30.864 6.662 30.864 6.662Z"/><path d="M48.095 28.41s-8.194-4.818-6.873-6.098c1.32-1.28 16.325 0 26.191 4.23 9.867 4.232 10.491 8.951 10.491 8.951-3.215-5.26-11.683-8.508-29.81-7.082ZM118.104 59.203a311.34 311.34 0 0 1-4.704.101 3.972 3.972 0 0 1-1.397-.273l-12.538-3.98c-.366-.114-2.749-.883-2.538-1.196.211-.313 2.405-.297 2.787-.282h.848c15.385.45 24.434 1.52 27.003 3.179a.838.838 0 0 1 .397.976c-.139.56-.283 1.192-9.858 1.475ZM20.02 63.78a2.074 2.074 0 0 1-1.207-.13c-.633-.26-.932-.762-1.522-1.52-1.523-1.86-2.138-3.965-1.642-5.474a2.815 2.815 0 0 1 2.084-1.83c3.001-.762 6.384.406 7.635 1.83 1.016 1.115.55 1.479-.763 2.57a24.122 24.122 0 0 0-2.177 2.058c-1.114 1.132-1.52 2.062-2.409 2.496Z"/></g></g><defs><clipPath id="a"><path fill="#fff" d="M0 0h128v128H0z"/></clipPath><clipPath id="b"><rect width="128" height="128" rx="32" fill="#fff"/></clipPath></defs></svg>