<?xml version="1.0" encoding="UTF-8" standalone="no"?>
<svg
   width="127.99939"
   height="128.00009"
   viewBox="0 0 127.99939 128.00009"
   version="1.1"
   xml:space="preserve"
   style="clip-rule:evenodd;fill-rule:evenodd;stroke-linejoin:round;stroke-miterlimit:2"
   id="svg1"
   xmlns="http://www.w3.org/2000/svg"
   xmlns:svg="http://www.w3.org/2000/svg"><defs
   id="defs1" />
    <g
   transform="matrix(4.11463,0,0,4.11463,-463.97293,-463.98567)"
   id="g1">
        <path
   d="m 137.5297,115.79011 2.68225,-2.68225 c 0.45725,-0.45725 1.19987,-0.45738 1.65725,-1.3e-4 l 1.65712,1.65725 c 0.45738,0.45725 0.45725,1.19988 0,1.65725 v -1.2e-4 l -2.68212,2.68212 c 1.90175,2.58038 3.02587,5.76738 3.02587,9.215 0,3.4475 -1.12412,6.63463 -3.02525,9.21413 l 2.68238,2.68237 c 0.45725,0.45725 0.45725,1.19975 -1.3e-4,1.65713 l -1.65725,1.65725 c -0.45725,0.45725 -1.19975,0.45725 -1.657,0 l -2.68237,-2.68238 c -2.57988,1.9015 -5.767,3.0255 -9.2145,3.0255 -3.44763,0 -6.63463,-1.124 -9.21438,-3.02537 l -2.6825,2.6825 c -0.45725,0.45737 -1.19975,0.45737 -1.65712,0 l -1.65725,-1.65725 c -0.45725,-0.45725 -0.45725,-1.19975 0,-1.657 l 2.6825,-2.6825 c -1.90138,-2.57975 -3.02538,-5.76688 -3.02538,-9.21438 0,-3.44762 1.124,-6.63462 3.0255,-9.21462 l -2.68225,-2.68225 c -0.45725,-0.45725 -0.45737,-1.19988 -1.2e-4,-1.65725 l 1.65725,-1.65713 c 0.45725,-0.45737 1.19987,-0.45725 1.65725,0 h -1.3e-4 l 2.68238,2.68238 c 2.57962,-1.90125 5.76662,-3.02525 9.21425,-3.02525 3.4475,0 6.63462,1.124 9.21375,3.025 z m -9.21375,1.66212 c 5.99762,0 10.86687,4.86925 10.86687,10.867 0,5.99763 -4.86925,10.86688 -10.86687,10.86688 -5.99775,0 -10.867,-4.86925 -10.867,-10.86688 0,-5.99775 4.86925,-10.867 10.867,-10.867 z"
   style="fill:#959595;stroke-width:0.125"
   id="path1" />
    </g>
</svg>
