<svg xmlns="http://www.w3.org/2000/svg" width="146" height="128" fill="none"><path fill="#006F9A" d="M126.182 36.238c-4.921-8.076-11.734-14.26-20.566-18.55C96.784 13.271 86.564 11 75.082 11H26.884v43.914H12.5V71.32h14.384V117h48.198c11.482 0 21.702-2.145 30.534-6.562 8.832-4.417 15.645-10.6 20.566-18.55C131.103 83.938 133.5 74.6 133.5 64c0-10.6-2.397-19.812-7.318-27.762ZM99.181 88.102c-6.309 5.805-14.762 8.834-25.36 8.834H51.486V71.319h26.497V54.914H51.488V31.19H73.82c10.599 0 19.052 2.903 25.36 8.834 6.31 5.93 9.464 13.88 9.464 23.976 0 10.095-3.154 18.171-9.463 24.102Z"/></svg>