<svg xmlns="http://www.w3.org/2000/svg" width="128" height="128" fill="none"><g fill="#C82020" clip-path="url(#a)"><path d="M123.001 63.999a42.577 42.577 0 0 1-5.718 21.363 42.902 42.902 0 0 1-15.646 15.646c-.226.126-.445.252-.671.379a42.515 42.515 0 0 1-20.686 5.339H37.56l8.008-21.364H21.535L29.544 64H80.28l-8.009 21.363h8.01c9.954 0 18.314-6.807 20.685-16.024.439-1.707.671-3.493.671-5.34 0-11.793-9.563-21.363-21.364-21.363h-42.72l8.009-21.363h34.711a42.57 42.57 0 0 1 21.364 5.717 42.902 42.902 0 0 1 15.646 15.646A42.559 42.559 0 0 1 123.001 64Zm-93.471-.001H5.505l8.009-21.363h24.033l-8.015 21.363Z"/></g><defs><clipPath id="a"><path fill="#fff" d="M0 0h128v128H0z"/></clipPath></defs></svg>