<?xml version="1.0" encoding="UTF-8" standalone="no"?>
<svg
   width="128.00005"
   height="93.093597"
   viewBox="0 0 128.00005 93.093597"
   version="1.1"
   xml:space="preserve"
   style="clip-rule:evenodd;fill-rule:evenodd;stroke-linejoin:round;stroke-miterlimit:2"
   id="svg1"
   xmlns="http://www.w3.org/2000/svg"
   xmlns:svg="http://www.w3.org/2000/svg"><defs
   id="defs1" />
    <g
   transform="matrix(4.3809,0,0,4.3809,-472.1126,-514.20612)"
   id="g1">
        <path
   d="m 136.98387,127.99956 c 0,1.93538 -0.5185,3.74863 -1.42187,5.3125 -0.93425,1.61463 -2.276,2.95638 -3.89063,3.89063 -0.0561,0.0314 -0.11062,0.0628 -0.16675,0.0941 -1.52425,0.8455 -3.278,1.32763 -5.14412,1.32763 h -10.62325 l 1.9915,-5.31238 h -5.97625 l 1.9915,-5.3125 h 12.6165 l -1.9915,5.3125 h 1.9915 c 2.4755,0 4.5545,-1.69275 5.14412,-3.98487 0.11113,-0.43375 0.16725,-0.87988 0.16675,-1.32763 0,-2.93287 -2.378,-5.3125 -5.3125,-5.3125 H 115.7355 l 1.99162,-5.3125 h 8.63175 c 1.93538,0 3.74863,0.5185 5.3125,1.42188 1.61463,0.93425 2.95638,2.276 3.89063,3.89062 0.90337,1.56225 1.42187,3.377 1.42187,5.3125 z m -23.24312,0 h -5.97463 l 1.9915,-5.3125 h 5.97638 z"
   style="fill:#c82020;fill-rule:nonzero;stroke-width:0.125"
   id="path1" />
    </g>
</svg>
