<svg width="128" height="128" fill="none" xmlns="http://www.w3.org/2000/svg"><g clip-path="url(#a)" fill-rule="evenodd" clip-rule="evenodd" fill="#959595"><path d="M64.162 1.943c34.338 0 62.216 27.879 62.216 62.217 0 34.338-27.878 62.216-62.216 62.216S1.945 98.498 1.945 64.16 29.824 1.943 64.162 1.943Zm0 18.749c23.99 0 43.468 19.477 43.468 43.468 0 23.99-19.477 43.468-43.468 43.468-23.991 0-43.468-19.478-43.468-43.468 0-23.991 19.477-43.468 43.468-43.468Z"/><path d="M125.001 16.572a4.69 4.69 0 0 0 0-6.63l-6.628-6.628a4.69 4.69 0 0 0-6.629 0l-20.05 20.05a4.689 4.689 0 0 0 0 6.629l6.629 6.628a4.689 4.689 0 0 0 6.628 0l20.05-20.05Zm-88.379 88.383a4.69 4.69 0 0 0 0-6.63l-6.628-6.628a4.69 4.69 0 0 0-6.629 0l-20.05 20.05a4.69 4.69 0 0 0 0 6.629l6.629 6.628a4.689 4.689 0 0 0 6.628.001l20.05-20.05ZM16.576 3.315a4.69 4.69 0 0 0-6.63 0L3.319 9.944a4.69 4.69 0 0 0 0 6.628l20.05 20.05a4.689 4.689 0 0 0 6.629 0l6.628-6.628a4.69 4.69 0 0 0 0-6.629l-20.05-20.05Zm88.379 88.381a4.69 4.69 0 0 0-6.63 0l-6.628 6.629a4.69 4.69 0 0 0 0 6.628l20.05 20.05a4.69 4.69 0 0 0 6.629 0l6.628-6.628a4.69 4.69 0 0 0 .001-6.629l-20.05-20.05Z"/></g><defs><clipPath id="a"><path fill="#fff" d="M0 0h128v128H0z"/></clipPath></defs></svg>