<?xml version="1.0" encoding="UTF-8" standalone="no"?>
<svg
   width="128.00037"
   height="160.12807"
   viewBox="0 0 128.00037 160.12807"
   version="1.1"
   xml:space="preserve"
   style="clip-rule:evenodd;fill-rule:evenodd;stroke-linejoin:round;stroke-miterlimit:2"
   id="svg1"
   xmlns="http://www.w3.org/2000/svg"
   xmlns:svg="http://www.w3.org/2000/svg"><defs
   id="defs1" />
    <g
   transform="matrix(4.67367,0,0,4.67367,-863.15095,-1726.1996)"
   id="g1">
        <path
   d="m 184.68376,392.19421 1.5864,-3.81176 h 1.67461 c -0.0442,-0.67576 -0.0661,-1.32944 -0.0661,-1.96102 0,-0.85204 0.0367,-1.64516 0.11015,-2.37968 h -3.30504 l 1.5864,-3.81176 h 2.48983 c 2.32077,-7.25624 7.55002,-10.88436 15.68775,-10.88436 2.6733,0 5.21452,0.33781 7.6235,1.01342 v 4.80339 c -2.26201,-0.98428 -4.66378,-1.47626 -7.20485,-1.47626 -4.87671,0 -8.01285,2.18133 -9.40826,6.54381 h 14.52 l -1.5864,3.81176 h -13.88106 c -0.0735,0.47004 -0.11014,1.10178 -0.11014,1.8949 0,0.91079 0.0293,1.72601 0.0881,2.4458 h 12.0963 l -1.56431,3.81176 h -9.69468 c 1.04287,2.644 2.31356,4.48376 3.81175,5.51926 1.49835,1.03567 3.63549,1.55335 6.41173,1.55335 1.98296,0 4.15692,-0.47005 6.52187,-1.41014 v 4.51682 c -2.24744,0.82258 -4.92074,1.23387 -8.02006,1.23387 -8.15246,0 -13.30823,-3.80439 -15.46746,-11.41316 z"
   style="fill:#003f20;fill-rule:nonzero;stroke-width:0.156682"
   id="path1" />
    </g>
</svg>
