<svg xmlns="http://www.w3.org/2000/svg" xml:space="preserve" style="fill-rule:evenodd;clip-rule:evenodd;stroke-linejoin:round;stroke-miterlimit:2" viewBox="0 0 128 128"><path d="M1574.75 1673.75c21.32 21.31 32 51.03 29.13 81.03a100.958 100.958 0 0 1-43.95 74.05C1399.99 1936.77 1207.32 2000 1000 2000c-207.32 0-399.989-63.23-559.758-171.43a100.701 100.701 0 0 1-43.818-73.82 100.714 100.714 0 0 1 29.038-80.8l-.211-.21c44.981-44.96 114.971-53.12 169.084-19.69C712.04 1727.65 851.113 1770 1000 1770c148.89 0 287.96-42.35 405.84-115.66 53.98-33.34 123.8-25.21 168.66 19.65.25-.25.25-.25.25-.24Zm99-1248.504a101 101 0 0 1 155.08 14.821C1936.77 600.011 2000 792.68 2000 1000s-63.23 399.99-171.43 559.76a100.704 100.704 0 0 1-154.62 14.78l-.21.21c-44.96-44.98-53.12-114.97-19.69-169.09 73.6-117.7 115.95-256.77 115.95-405.66 0-148.887-42.35-287.96-115.66-405.843-33.34-53.978-25.21-123.793 19.65-168.657-.25-.249-.25-.249-.24-.254ZM171.43 440.242a100.7 100.7 0 0 1 154.615-14.78l.211-.211c44.967 44.981 53.12 114.971 19.696 169.084C272.348 712.04 230 851.113 230 1000c0 148.89 42.348 287.96 115.664 405.84 33.34 53.98 25.201 123.8-19.662 168.67l.249.24a100.973 100.973 0 0 1-81.032 29.13 100.96 100.96 0 0 1-74.048-43.95C63.226 1399.99 0 1207.32 0 1000c0-207.32 63.226-399.989 171.43-559.758ZM1000 370c347.71 0 630 282.294 630 630 0 347.71-282.29 630-630 630-347.706 0-630-282.29-630-630 0-347.706 282.294-630 630-630Zm-574.754-43.749a101 101 0 0 1 14.821-155.08C600.011 63.226 792.68 0 1000 0s399.99 63.226 559.76 171.43a100.698 100.698 0 0 1 14.78 154.615l.21.211c-44.98 44.967-114.97 53.12-169.09 19.696C1287.96 272.348 1148.89 230 1000 230c-148.887 0-287.96 42.348-405.843 115.664-53.978 33.339-123.793 25.202-168.657-19.658-.249.25-.249.25-.254.245Z" style="fill:#208e7a" transform="scale(.064)"/><path d="M561 1044.09s-38.404-.03-38.404 53.77c0 56.23 34.783 57.82 47.945 57.82h59.226c27.263 97.77 76.619 172.04 148.066 222.8 71.448 50.77 154.647 76.15 249.597 76.15 40.43 0 77.32-3.52 110.7-10.57 33.37-7.06 61.57-16.46 84.61-28.21 23.03-11.75 40.89-25.38 53.58-40.89 12.69-15.51 19.04-32.2 19.04-50.06 0-18.8-4.47-35.37-15.51-47.95-28.85-32.86-78.85-2.86-117.04 11.99-30.44 11.83-67.69 19.04-112.82 19.04-53.583 0-101.058-12.7-142.423-38.08-41.364-25.38-72.858-63.46-94.48-114.22l317.913-1.59s50.26-10 50.14-56.23c-.14-53.77-50.14-56.4-47.95-56.4L561 1044.09Zm0-84.09s-38.404.024-38.404-53.775c0-56.225 34.783-57.816 47.945-57.816h59.226c27.263-97.771 76.619-172.039 148.066-222.805 71.448-50.765 154.647-76.148 249.597-76.148 40.43 0 77.32 3.526 110.7 10.576 33.37 7.051 61.57 16.452 84.61 28.203 23.03 11.752 40.89 25.383 53.58 40.895 12.69 15.511 19.04 32.198 19.04 50.06 0 18.802-4.47 35.366-15.51 47.945C1251 760 1201 730 1162.81 715.149c-30.44-11.832-67.69-19.037-112.82-19.037-53.583 0-101.058 12.691-142.423 38.074-41.364 25.383-72.858 63.457-94.48 114.223L1131 850s50.26 10 50.14 56.225c-.14 53.775-50.14 56.406-47.95 56.406L561 960Z" style="fill:#fff;fill-rule:nonzero" transform="matrix(.064 0 0 .064 -.256 -.13)"/></svg>