<svg width="128" height="94" fill="none" xmlns="http://www.w3.org/2000/svg"><g clip-path="url(#a)"><path d="M112.944 10.139H57.703c-.71 0-1.418 0-2.127.02a97.048 97.048 0 0 0-6.069.318c-.167.016-.354.037-.526.053-11.34 1.01-20.317 4.139-26.959 9.362-7.924 6.338-11.881 15.377-11.881 27.11 0 11.734 3.957 20.768 11.881 27.122 8.232 6.49 20.134 9.737 35.68 9.737 15.547 0 27.522-3.247 35.687-9.737 7.924-6.354 11.897-15.377 11.897-27.121 0-7.423-1.59-13.762-4.781-19.032-.021-.036-.037-.052-.052-.083a.413.413 0 0 0-.068-.105l.068-.03 14.91-8.45c4.374-2.487 2.617-9.164-2.419-9.164Zm-27.71 18.713-6.401 36.301c-.282 1.585-1.794 2.872-3.384 2.872h-8.956c-1.59 0-2.649-1.287-2.367-2.872l2.054-11.645H46.947l-2.054 11.645c-.281 1.585-1.793 2.872-3.383 2.872h-8.957c-1.59 0-2.648-1.287-2.367-2.872l6.402-36.3c.277-1.59 1.794-2.873 3.379-2.873h8.962c1.584 0 2.643 1.282 2.366 2.872l-2.054 11.645h19.233l2.054-11.645c.276-1.59 1.793-2.872 3.378-2.872h8.962c1.585 0 2.643 1.282 2.367 2.872Z" fill="#2BCCB9"/><path d="M127.479 11.205c-1.757-6.714-7.607-11.207-14.535-11.207H57.702c-.792 0-1.585 0-2.382.016a117.6 117.6 0 0 0-6.81.375l-.442.031C34.82 1.62 23.935 5.471 15.682 11.961 5.271 20.296 0 32.077 0 47.001S5.27 73.7 15.734 82.08c10.025 7.914 24.154 11.917 41.968 11.917 17.814 0 32.032-4.003 42.026-11.963C110.139 73.684 115.43 61.903 115.43 47c0-5.343-.714-10.327-2.101-14.893l7.033-3.988c6.037-3.414 8.894-10.227 7.117-16.915ZM115.363 19.3l-14.911 8.45-.068.032a.363.363 0 0 1 .068.104c.016.031.032.047.052.083 3.191 5.27 4.781 11.609 4.781 19.032 0 11.744-3.973 20.767-11.897 27.121-8.164 6.49-20.046 9.737-35.686 9.737s-27.448-3.247-35.68-9.737C14.096 67.768 10.14 58.745 10.14 47.001c0-11.744 3.957-20.773 11.881-27.111 6.642-5.224 15.62-8.351 26.96-9.362.171-.016.359-.037.526-.053a97.048 97.048 0 0 1 6.068-.317c.71-.021 1.418-.021 2.127-.021h55.242c5.036 0 6.793 6.677 2.419 9.163Z" fill="#073744"/><path d="M82.868 25.979h-8.962c-1.585 0-3.102 1.282-3.379 2.872l-2.054 11.645H49.241l2.054-11.645c.276-1.59-.782-2.872-2.367-2.872h-8.962c-1.584 0-3.102 1.282-3.378 2.872l-6.402 36.3c-.282 1.585.777 2.873 2.367 2.873h8.957c1.59 0 3.102-1.288 3.383-2.872l2.054-11.645H66.18l-2.055 11.645c-.281 1.584.777 2.872 2.367 2.872h8.957c1.59 0 3.102-1.288 3.383-2.872l6.403-36.301c.276-1.59-.782-2.872-2.367-2.872Z" fill="#073744"/></g><defs><clipPath id="a"><path fill="#fff" d="M0 0h128v94H0z"/></clipPath></defs></svg>