<?xml version="1.0" encoding="UTF-8" standalone="no"?>
<svg
   width="128"
   height="128"
   viewBox="0 0 128 128"
   version="1.1"
   xml:space="preserve"
   style="clip-rule:evenodd;fill-rule:evenodd;stroke-linejoin:round;stroke-miterlimit:2"
   id="svg1"
   xmlns="http://www.w3.org/2000/svg"
   xmlns:svg="http://www.w3.org/2000/svg"><defs
   id="defs1" />
    <g
   transform="matrix(4,0,0,4,-545.01,-350.986)"
   id="g1">
        <path
   d="m 152.25052,119.7465 c -8.82182,0 -15.99802,-7.17594 -15.99802,-15.99802 0,-8.821818 7.1762,-16.00198 15.99802,-16.00198 8.82208,0 16.00198,7.176204 16.00198,16.00198 0,8.82604 -7.1799,15.99802 -16.00198,15.99802 z m 0,-25.746881 c -5.37331,0 -9.7449,4.371589 -9.7449,9.744901 0,5.37331 4.37159,9.74517 9.7449,9.74517 5.37331,0 9.7449,-4.37186 9.7449,-9.74517 0,-5.373312 -4.37159,-9.744901 -9.7449,-9.744901 z"
   style="fill:#282828;fill-rule:nonzero;stroke-width:0.263889"
   id="path1" />
    </g>
</svg>
