<?xml version="1.0" encoding="UTF-8" standalone="no"?>
<svg
   width="128"
   height="127.81303"
   viewBox="0 0 128 127.81303"
   version="1.1"
   xml:space="preserve"
   style="clip-rule:evenodd;fill-rule:evenodd;stroke-linejoin:round;stroke-miterlimit:2"
   id="svg1"
   xmlns="http://www.w3.org/2000/svg"
   xmlns:svg="http://www.w3.org/2000/svg"><defs
   id="defs1" />
    <g
   transform="matrix(74.7882,0,0,74.7882,64.000002,575.15865)"
   id="g1">
        <path
   d="M -0.17575,-6.897 -0.495625,-7.4525 C -0.5285,-7.495625 -0.564375,-7.536375 -0.603,-7.5745 -0.64775,-7.61925 -0.698625,-7.641625 -0.755625,-7.641625 h -0.061 V -7.6905 h 0.732375 v 0.048875 h -0.061 c -0.057,0 -0.0875,0.022375 -0.091625,0.067125 -0.004125,0.041875 0.0035,0.084125 0.022,0.122 L 0.044,-7.00325 0.361375,-7.457375 c 0.02025,-0.037375 0.0305,-0.0765 0.0305,-0.117125 0,-0.04475 -0.0285,-0.067125 -0.0855,-0.067125 h -0.061 V -7.6905 H 0.85575 v 0.048875 H 0.794625 c -0.056875,0 -0.1135,0.022375 -0.169625,0.067125 -0.046375,0.036625 -0.08225,0.072 -0.107375,0.106125 L 0.50175,-7.446375 0.118375,-6.897 H 0.85575 v 0.122 h -0.68 l 0.32475,0.56275 c 0.023625,0.036625 0.0565,0.074875 0.098875,0.11475 0.04725,0.04475 0.09925,0.067125 0.15625,0.067125 h 0.061 V -5.9815 H 0.08425 v -0.048875 h 0.061 c 0.057,0 0.0875,-0.022375 0.091625,-0.067125 C 0.241,-6.14 0.233,-6.18275 0.213625,-6.22075 L -0.044,-6.6675 -0.35275,-6.225625 c -0.02525,0.038 -0.038875,0.0825 -0.039125,0.128125 0,0.04475 0.0285,0.067125 0.0855,0.067125 h 0.061 V -5.9815 H -0.85575 v -0.048875 h 0.061125 c 0.056875,0 0.111875,-0.022375 0.16475,-0.067125 0.049625,-0.0415 0.09075,-0.08175 0.12325,-0.120875 L -0.11725,-6.775 h -0.7385 v -0.122 z"
   style="fill-rule:nonzero;stroke-width:0.125"
   id="path1" />
    </g>
</svg>
