<?xml version="1.0" encoding="UTF-8" standalone="no"?>
<svg
   width="128"
   height="132.12912"
   viewBox="0 0 128 132.12912"
   version="1.1"
   xml:space="preserve"
   style="clip-rule:evenodd;fill-rule:evenodd;stroke-linejoin:round;stroke-miterlimit:2"
   id="svg1"
   xmlns="http://www.w3.org/2000/svg"
   xmlns:svg="http://www.w3.org/2000/svg"><defs
   id="defs1" />
    <g
   transform="matrix(4,0,0,4,-431.99999,-445.9356)"
   id="g1">
        <path
   d="m 139.93187,121.27148 c -0.0459,-0.41161 -0.11484,-0.82026 -0.2062,-1.22413 -0.0946,-0.41471 -0.21355,-0.82361 -0.35651,-1.22425 -0.14942,-0.41794 -0.32362,-0.82671 -0.52142,-1.22413 -0.21136,-0.42181 -0.44942,-0.82968 -0.71291,-1.22117 -0.1858,-0.27832 -0.38542,-0.54709 -0.59806,-0.80541 -0.11574,-0.14297 -0.23574,-0.28271 -0.35948,-0.41884 -0.27188,-0.30542 -0.56207,-0.59394 -0.86904,-0.864 -0.13729,-0.12491 -0.27871,-0.24504 -0.42425,-0.36013 -0.25949,-0.20994 -0.52891,-0.40736 -0.80723,-0.59162 -0.34632,-0.23238 -0.70645,-0.44361 -1.07819,-0.63264 -0.0502,-0.0271 -0.10129,-0.0525 -0.15317,-0.0761 -0.39909,-0.19858 -0.81045,-0.37174 -1.23135,-0.51845 -0.40219,-0.14194 -0.81239,-0.26026 -1.22852,-0.35432 -0.80838,-0.18116 -1.63432,-0.27252 -2.46284,-0.27239 h -17.84683 c -0.66517,-3.9e-4 -1.31265,0.21548 -1.84439,0.6151 -0.23316,0.17071 -0.43961,0.37496 -0.6129,0.60619 -0.40181,0.52761 -0.61923,1.1729 -0.61858,1.83613 v 22.02361 c 0,0.20503 0.009,0.41007 0.0266,0.61213 0.0293,0.41148 0.0923,0.82 0.18838,1.22116 0.20065,0.85303 0.54426,1.66607 1.01639,2.40439 0.009,0.0153 0.0187,0.0301 0.0297,0.044 0.28026,0.44013 0.60503,0.85032 0.96903,1.22413 0.0737,0.0791 0.15032,0.15522 0.22994,0.22839 l 0.003,0.003 c 0.37549,0.36142 0.7871,0.68323 1.22839,0.96052 0.0142,0.0108 0.0289,0.0206 0.0444,0.0293 0.37742,0.23845 0.77458,0.44426 1.18709,0.6151 0.3991,0.16503 0.81097,0.29729 1.23149,0.39535 0.40374,0.0954 0.81458,0.15807 1.22839,0.18748 h 0.003 v 0.0263 h 10.46129 v -0.0117 c 0.17291,-0.0326 0.32904,-0.12478 0.44117,-0.26026 0.11187,-0.1351 0.17264,-0.30529 0.17161,-0.48065 0.002,-0.172 -0.0579,-0.33922 -0.168,-0.47148 -0.0765,-0.096 -0.17574,-0.17136 -0.28865,-0.21961 -0.0524,-0.0286 -0.10438,-0.0579 -0.15613,-0.0879 -0.2089,-0.11677 -0.41432,-0.23974 -0.61574,-0.36903 -0.212,-0.13174 -0.41535,-0.27522 -0.61561,-0.42168 -0.0569,-0.0385 -0.112,-0.0795 -0.16503,-0.12309 -0.15355,-0.11497 -0.30375,-0.23407 -0.45071,-0.35729 -0.13523,-0.11213 -0.26787,-0.22723 -0.39768,-0.34555 -0.18516,-0.1671 -0.364,-0.3409 -0.53626,-0.52129 -0.068,-0.0671 -0.1338,-0.13639 -0.19729,-0.20787 -0.0355,-0.0352 -0.0679,-0.0732 -0.10026,-0.10839 -0.26271,-0.28993 -0.51058,-0.5929 -0.74271,-0.90787 -0.17238,-0.23161 -0.33561,-0.47006 -0.48916,-0.71458 -0.10658,-0.1671 -0.20877,-0.33703 -0.30632,-0.50955 -0.22426,-0.39484 -0.4249,-0.80258 -0.6009,-1.22116 -0.11923,-0.27936 -0.22646,-0.56374 -0.32116,-0.85226 -0.0436,-0.12258 -0.083,-0.24671 -0.11781,-0.372 -0.0622,-0.20206 -0.11729,-0.40619 -0.16503,-0.61213 -0.0501,-0.20271 -0.0943,-0.40684 -0.13252,-0.61213 -0.0752,-0.4049 -0.12929,-0.81354 -0.16206,-1.22413 -0.0119,-0.14916 -0.0207,-0.29845 -0.0265,-0.448 -0.008,-0.16877 -0.0123,-0.33767 -0.0117,-0.50671 v -3.93909 h -4.08619 c -0.17613,6.4e-4 -0.34697,-0.0603 -0.48297,-0.17213 -0.13561,-0.11148 -0.22761,-0.26736 -0.25974,-0.43987 -0.0404,-0.19923 0.005,-0.40645 0.12374,-0.5711 l 0.0266,-0.0381 0.37123,-0.52723 0.22387,-0.31626 0.26813,-0.38077 0.73651,-1.04839 0.12362,-0.17574 0.86322,-1.22426 0.24452,-0.34839 0.61587,-0.87574 0.61561,-0.87264 0.24452,-0.34852 0.37122,-0.52722 0.49239,-0.69678 0.12361,-0.17587 0.73949,-1.04839 0.48903,-0.69703 0.37123,-0.5271 0.24154,-0.34271 c 0.0697,-0.0996 0.16246,-0.18077 0.27033,-0.23677 0.21909,-0.11381 0.48064,-0.11381 0.69974,0 0.10787,0.056 0.20064,0.13729 0.27032,0.23677 l 0.24155,0.34271 0.36826,0.52426 0.492,0.69987 0.12374,0.17291 0.61561,0.87561 0.12374,0.17574 0.49239,0.6969 0.37123,0.52723 0.24155,0.34555 0.61871,0.87561 0.61277,0.87278 0.24748,0.35148 0.86323,1.22413 0.12064,0.17277 0.73949,1.05149 0.49239,0.6969 0.37122,0.5271 0.0264,0.0382 c 0.11923,0.16465 0.16413,0.37187 0.12375,0.57097 -0.0265,0.13445 -0.0888,0.25935 -0.18052,0.36116 -0.0919,0.10219 -0.20968,0.17781 -0.3409,0.21871 -0.0727,0.0216 -0.14813,0.0324 -0.22388,0.0323 h -4.08322 v 3.67251 c -3.9e-4,0.42039 0.087,0.83639 0.25639,1.22116 0.0938,0.21575 0.21342,0.41936 0.35638,0.6062 0.32129,0.424 0.74516,0.75974 1.23149,0.97535 0.38851,0.16878 0.80787,0.25562 1.23148,0.25484 0.0529,0 0.10607,0 0.1591,-0.003 0.35832,-0.004 0.71613,-0.0252 1.07226,-0.0644 0.41393,-0.0457 0.82503,-0.1142 1.23148,-0.20504 0.4009,-0.0905 0.79639,-0.20387 1.18426,-0.33974 h 0.0441 v -0.0146 c 0.42103,-0.14671 0.83225,-0.31987 1.23148,-0.51832 0.416,-0.20452 0.81845,-0.43536 1.2049,-0.69123 h 0.0266 v -0.0177 c 0.43291,-0.2871 0.84452,-0.60517 1.23149,-0.95175 0.0934,-0.0815 0.18477,-0.16554 0.27393,-0.25187 0.33987,-0.32193 0.65858,-0.66529 0.95446,-1.028 0.053,-0.0645 0.10309,-0.1289 0.15316,-0.19625 0.30425,-0.38813 0.5809,-0.79717 0.82787,-1.22413 0.088,-0.14878 0.17148,-0.30013 0.25032,-0.45394 0.13187,-0.25187 0.25368,-0.5089 0.36529,-0.77032 0.0834,-0.20207 0.16194,-0.4062 0.23574,-0.612 0.0729,-0.20065 0.13871,-0.40387 0.19729,-0.60916 0.11613,-0.40258 0.20955,-0.81136 0.27987,-1.22426 0.0692,-0.40503 0.11446,-0.81381 0.13549,-1.22413 H 140 v -2.44865 c -3.9e-4,-0.408 -0.0231,-0.81561 -0.0681,-1.22103 z"
   style="fill:#3749e7;fill-rule:nonzero;stroke-width:0.129032"
   id="path1" />
    </g>
</svg>
