<svg width="124" height="128" fill="none" xmlns="http://www.w3.org/2000/svg"><path d="M123.736 37.927a43.268 43.268 0 0 0-.799-4.744 42.065 42.065 0 0 0-1.381-4.743 43.5 43.5 0 0 0-2.329-5.345 42.85 42.85 0 0 0-2.454-4.131 38.953 38.953 0 0 0-2.318-3.121 37.007 37.007 0 0 0-1.393-1.623 38.937 38.937 0 0 0-3.367-3.348 31.75 31.75 0 0 0-1.644-1.396 40.806 40.806 0 0 0-3.128-2.292 40.23 40.23 0 0 0-4.178-2.452 9.516 9.516 0 0 0-.594-.295 41.068 41.068 0 0 0-4.772-2.008 42.34 42.34 0 0 0-4.76-1.373A43.62 43.62 0 0 0 81.075 0H11.92a11.89 11.89 0 0 0-7.148 2.383 11.332 11.332 0 0 0-2.375 2.35A11.722 11.722 0 0 0 0 11.847v85.34c0 .795.034 1.59.103 2.373.113 1.594.358 3.177.73 4.732a30.034 30.034 0 0 0 3.938 9.317c.035.059.073.116.115.17a29.496 29.496 0 0 0 3.756 4.744c.285.307.582.602.89.885l.012.011a29.463 29.463 0 0 0 4.76 3.723c.054.041.112.079.171.113a30.42 30.42 0 0 0 9.373 3.915c1.564.37 3.156.613 4.76.727h.011V128h40.537v-.045a2.922 2.922 0 0 0 1.71-1.009 2.892 2.892 0 0 0 .665-1.862 2.81 2.81 0 0 0-.65-1.827 2.87 2.87 0 0 0-1.12-.851c-.205-.114-.41-.227-.605-.341a44.88 44.88 0 0 1-2.385-1.43 38.743 38.743 0 0 1-2.386-1.634 8.678 8.678 0 0 1-.64-.477A41.169 41.169 0 0 1 62 117.14a43.843 43.843 0 0 1-1.541-1.339 38.97 38.97 0 0 1-2.078-2.02 16.97 16.97 0 0 1-.765-.806c-.137-.136-.262-.284-.388-.42a45.073 45.073 0 0 1-2.878-3.518 42.436 42.436 0 0 1-1.895-2.769 43.28 43.28 0 0 1-1.188-1.975 44.416 44.416 0 0 1-2.328-4.732 40.94 40.94 0 0 1-1.244-3.302c-.172-.477-.32-.954-.457-1.442a34.737 34.737 0 0 1-.64-2.371 41.957 41.957 0 0 1-.513-2.372c-.291-1.57-.5-3.153-.628-4.744a42.866 42.866 0 0 1-.103-1.736 37.214 37.214 0 0 1-.045-1.963V66.367H29.474a2.927 2.927 0 0 1-1.872-.667 2.895 2.895 0 0 1-1.006-1.705 2.819 2.819 0 0 1 .48-2.213l.102-.148 1.439-2.042.868-1.226 1.038-1.475 2.854-4.063.48-.681 3.345-4.744.947-1.35 2.386-3.393 2.386-3.382.947-1.35 1.439-2.043 1.908-2.7.48-.682 2.864-4.063 1.896-2.7 1.438-2.043.936-1.328a2.923 2.923 0 0 1 2.403-1.248 2.94 2.94 0 0 1 2.403 1.248l.937 1.328 1.426 2.032 1.907 2.712.48.67 2.385 3.393.48.68 1.908 2.701 1.438 2.043.936 1.339 2.398 3.393 2.374 3.382.959 1.362 3.345 4.743.468.67 2.865 4.074 1.908 2.7 1.438 2.044.103.147a2.825 2.825 0 0 1 .48 2.213 2.94 2.94 0 0 1-.7 1.4 2.967 2.967 0 0 1-1.32.847 3.023 3.023 0 0 1-.868.125H69.159v14.23c-.001 1.63.337 3.24.993 4.733.364.836.828 1.624 1.382 2.35a12.184 12.184 0 0 0 4.771 3.778c1.505.654 3.13.99 4.772.988.206 0 .411 0 .617-.011a41.941 41.941 0 0 0 4.155-.25 44.06 44.06 0 0 0 4.772-.794 41.577 41.577 0 0 0 4.59-1.317h.17v-.056a41.093 41.093 0 0 0 4.772-2.01 41.989 41.989 0 0 0 4.669-2.678h.103v-.068a41.726 41.726 0 0 0 4.772-3.688 28.39 28.39 0 0 0 1.062-.976 42.403 42.403 0 0 0 3.698-3.984c.205-.25.4-.499.593-.76a40.66 40.66 0 0 0 3.208-4.744c.343-.578.662-1.157.971-1.759.502-.964.981-1.963 1.415-2.984.32-.783.628-1.567.913-2.372.286-.783.537-1.566.765-2.36.45-1.56.812-3.144 1.085-4.744.268-1.57.443-3.154.524-4.744H124v-9.488a42.988 42.988 0 0 0-.264-4.732Z" fill="#3749E7"/></svg>