<svg width="128" height="128" fill="none" xmlns="http://www.w3.org/2000/svg"><g clip-path="url(#a)"><mask id="b" style="mask-type:luminance" maskUnits="userSpaceOnUse" x="-1" y="0" width="129" height="128"><path d="M127.601 0H-.008v127.54h127.609V0Z" fill="#fff"/></mask><g mask="url(#b)" fill="#281149"><path d="M95.654 128.116c17.61 0 31.886-14.276 31.886-31.885 0-17.61-14.276-31.885-31.886-31.885S63.77 78.62 63.77 96.23c0 17.609 14.275 31.885 31.884 31.885Zm-63.777-63.77c17.61 0 31.885-14.275 31.885-31.885S49.487.576 31.877.576-.008 14.852-.008 32.461c0 17.61 14.276 31.885 31.885 31.885Zm-6.374 63.425c14.089 0 25.51-11.421 25.51-25.51 0-14.09-11.421-25.511-25.51-25.511-14.09 0-25.51 11.421-25.51 25.511 0 14.089 11.42 25.51 25.51 25.51ZM102.089.576c-13.995 0-25.51 11.516-25.51 25.51 0 13.995 11.515 25.511 25.51 25.511 13.994 0 25.51-11.516 25.51-25.51 0-13.995-11.516-25.51-25.51-25.51Zm-.113 38.26c-6.998 0-12.756-5.758-12.756-12.756 0-6.997 5.758-12.755 12.756-12.755 6.997 0 12.755 5.758 12.755 12.755v.007c0 6.993-5.755 12.749-12.749 12.749h-.006Z"/></g></g><defs><clipPath id="a"><path fill="#fff" d="M0 0h128v128H0z"/></clipPath></defs></svg>