<?xml version="1.0" encoding="UTF-8" standalone="no"?>
<svg
   width="128.00008"
   height="173.30345"
   viewBox="0 0 128.00008 173.30345"
   version="1.1"
   xml:space="preserve"
   style="clip-rule:evenodd;fill-rule:evenodd;stroke-linejoin:round;stroke-miterlimit:2"
   id="svg1"
   xmlns="http://www.w3.org/2000/svg"
   xmlns:svg="http://www.w3.org/2000/svg"><defs
   id="defs1" />
    <g
   transform="matrix(4.91778,0,0,4.91778,-2244.7305,-1573.1482)"
   id="g1">
        <path
   d="M 456.45199,346.01541 H 460.79 v -3.94807 h -4.33801 v -4.19178 H 460.79 v -17.98565 h 9.45587 c 3.80184,0 6.79132,0.95859 8.96845,2.87576 2.17712,1.91717 3.26569,4.59795 3.26569,8.04236 0,1.39726 -0.21122,2.77015 -0.63364,4.11867 -0.42243,1.34851 -1.09669,2.56705 -2.02278,3.65562 -0.92609,1.08856 -2.13651,1.95778 -3.63125,2.60767 -1.49474,0.64989 -3.31443,0.97483 -5.45906,0.97483 h -5.21535 v 3.85059 h 4.87416 v 4.19178 h -4.87416 v 4.9229 H 460.79 v -4.9229 h -4.33801 z m 14.28129,-8.4323 c 1.36477,0 2.50207,-0.21933 3.41191,-0.65801 0.90985,-0.43867 1.63285,-1.01545 2.169,-1.73033 0.53616,-0.71487 0.91797,-1.45412 1.14543,-2.21774 0.22746,-0.76362 0.34119,-1.45412 0.34119,-2.07152 0,-0.94233 -0.21933,-1.91717 -0.65801,-2.92449 -0.43867,-1.00733 -1.15355,-1.85218 -2.14463,-2.53456 -0.99108,-0.68239 -2.33147,-1.02358 -4.02118,-1.02358 h -5.45906 v 13.16023 z"
   style="fill:#003f20;fill-rule:nonzero;stroke-width:0.169242"
   id="path1" />
    </g>
</svg>
