<svg xmlns="http://www.w3.org/2000/svg" xml:space="preserve" style="fill-rule:evenodd;clip-rule:evenodd;stroke-linejoin:round;stroke-miterlimit:2" viewBox="0 0 128 128"><path d="M1574.75 1673.75c21.32 21.31 32 51.03 29.13 81.03a100.958 100.958 0 0 1-43.95 74.05C1399.99 1936.77 1207.32 2000 1000 2000c-207.32 0-399.989-63.23-559.758-171.43a100.701 100.701 0 0 1-43.818-73.82 100.714 100.714 0 0 1 29.038-80.8l-.211-.21c44.981-44.96 114.971-53.12 169.084-19.69C712.04 1727.65 851.113 1770 1000 1770c148.89 0 287.96-42.35 405.84-115.66 53.98-33.34 123.8-25.21 168.66 19.65.25-.25.25-.25.25-.24Zm99-1248.504a101 101 0 0 1 155.08 14.821C1936.77 600.011 2000 792.68 2000 1000s-63.23 399.99-171.43 559.76a100.704 100.704 0 0 1-154.62 14.78l-.21.21c-44.96-44.98-53.12-114.97-19.69-169.09 73.6-117.7 115.95-256.77 115.95-405.66 0-148.887-42.35-287.96-115.66-405.843-33.34-53.978-25.21-123.793 19.65-168.657-.25-.249-.25-.249-.24-.254ZM171.43 440.242a100.7 100.7 0 0 1 154.615-14.78l.211-.211c44.967 44.981 53.12 114.971 19.696 169.084C272.348 712.04 230 851.113 230 1000c0 148.89 42.348 287.96 115.664 405.84 33.34 53.98 25.201 123.8-19.662 168.67l.249.24a100.973 100.973 0 0 1-81.032 29.13 100.96 100.96 0 0 1-74.048-43.95C63.226 1399.99 0 1207.32 0 1000c0-207.32 63.226-399.989 171.43-559.758ZM1000 370c347.71 0 630 282.294 630 630 0 347.71-282.29 630-630 630-347.706 0-630-282.29-630-630 0-347.706 282.294-630 630-630Zm-574.754-43.749a101 101 0 0 1 14.821-155.08C600.011 63.226 792.68 0 1000 0s399.99 63.226 559.76 171.43a100.698 100.698 0 0 1 14.78 154.615l.21.211c-44.98 44.967-114.97 53.12-169.09 19.696C1287.96 272.348 1148.89 230 1000 230c-148.887 0-287.96 42.348-405.843 115.664-53.978 33.339-123.793 25.202-168.657-19.658-.249.25-.249.25-.254.245Z" style="fill:#208e7a" transform="scale(.064)"/><path d="M933.212 926.083c-5.697 0-6.52-7.584-6.52-12.96 0-4.992 1.056-8.496 3.168-10.512s4.704-3.024 7.776-3.024h17.568v-59.616c0-3.456 1.008-6.192 3.024-8.208s4.656-3.504 7.92-4.464c3.072-.96 6.576-1.824 10.512-2.592 3.936-.768 7.968-1.44 12.096-2.016a180.481 180.481 0 0 1 12.384-1.296c4.13-.288 8.02-.432 11.66-.432 23.43 0 41.04 4.8 52.85 14.4 11.81 9.6 17.71 22.656 17.71 39.168 0 15.552-5.42 28.032-16.27 37.44-10.85 9.408-27.02 14.112-48.53 14.112h-85.348Zm58.568 39.456v19.279s-.662 9.072-3.788 12.673c-2.778 3.199-9.652 4.339-12.916 4.339-7.104 0-12.192-1.35-15.264-4.035-3.072-2.688-4.608-7.104-4.608-13.248v-19.008l-20.851.252c-4.093.049-6.221-3.276-6.797-5.292-.576-2.016-.864-4.176-.864-6.48 0-4.416.912-7.536 2.736-9.36 1.824-1.824 4.08-2.736 6.768-2.736 0 0 98.584-.331 120.354.408 6.2.211 8.2 1.883 9.1 4.92a23.343 23.343 0 0 1 1.01 6.768c0 3.84-.96 6.72-2.88 8.64-1.92 1.92-4.22 2.88-6.91 2.88h-65.09Zm22.75-67.392c9.99 0 17.76-1.968 23.33-5.904 5.57-3.936 8.35-9.744 8.35-17.424 0-8.064-2.97-14.112-8.93-18.144-5.95-4.032-14.11-6.048-24.48-6.048-3.45 0-7 .144-10.65.432-3.65.288-7.106.912-10.37 1.872v45.216h22.75Z" style="fill:#fff;fill-rule:nonzero" transform="matrix(.31337 0 0 .31337 -250.943 -221.601)"/></svg>