<?xml version="1.0" encoding="UTF-8" standalone="no"?>
<svg
   width="127.99949"
   height="127.99949"
   viewBox="0 0 127.99949 127.99949"
   version="1.1"
   xml:space="preserve"
   style="clip-rule:evenodd;fill-rule:evenodd;stroke-linejoin:round;stroke-miterlimit:2"
   id="svg3"
   xmlns="http://www.w3.org/2000/svg"
   xmlns:svg="http://www.w3.org/2000/svg"><defs
   id="defs3" />
    <g
   transform="matrix(1.23373,0,0,1.23373,-447.99821,-447.99821)"
   id="g3">
        <g
   transform="scale(0.415)"
   id="g1">
            <path
   d="m 1071.7988,1084.1725 c 2.675,2.675 4.0162,6.4113 3.655,10.1763 -0.36,3.765 -2.3888,7.1775 -5.5225,9.2937 C 1049.95,1117.1125 1025.8888,1125 1000,1125 c -25.88912,0 -49.9505,-7.8875 -69.90975,-21.3887 -3.12512,-2.11 -5.147,-5.5125 -5.50687,-9.2663 -0.36025,-3.7537 0.97775,-7.4787 3.6445,-10.145 -0.026,-0.028 -0.0255,-0.028 -0.0251,-0.029 5.59788,-5.5975 14.31038,-6.61 21.04275,-2.445 14.7225,9.2187 32.12388,14.5237 50.75447,14.5237 18.6313,0 36.0325,-5.305 50.7775,-14.4875 6.715,-4.1537 15.405,-3.1437 20.9888,2.44 0.031,-0.03 0.031,-0.03 0.033,-0.03 z m 12.3737,-155.97112 c 2.675,-2.67463 6.4113,-4.01663 10.1763,-3.6555 3.765,0.36087 7.1775,2.38875 9.2937,5.52325 C 1117.1125,950.0495 1125,974.11088 1125,1000 c 0,25.8888 -7.8875,49.95 -21.3887,69.91 -2.11,3.125 -5.5125,5.1463 -9.2663,5.5063 -3.7537,0.3612 -7.4787,-0.9775 -10.145,-3.6438 -0.028,0.025 -0.028,0.025 -0.029,0.025 -5.5975,-5.5975 -6.61,-14.3112 -2.445,-21.0425 9.2187,-14.7225 14.5237,-32.1237 14.5237,-50.755 0,-18.63062 -5.305,-36.032 -14.4875,-50.77737 -4.1537,-6.71525 -3.1437,-15.40538 2.44,-20.98863 -0.03,-0.0316 -0.03,-0.0321 -0.03,-0.0326 z m -187.78437,1.88887 c 2.34825,-3.47625 6.27925,-5.56462 10.47437,-5.56462 3.35113,0 6.56838,1.33262 8.938,3.70225 0.027,-0.026 0.0275,-0.0255 0.028,-0.0251 5.59738,5.59788 6.61,14.31038 2.44563,21.04275 C 909.05475,963.968 903.75,981.36938 903.75,1000 c 0,18.6313 5.30475,36.0325 14.48725,50.7775 4.15363,6.715 3.14338,15.405 -2.44,20.9888 0.0308,0.031 0.0303,0.031 0.0298,0.033 -2.6745,2.675 -6.41025,4.0162 -10.17525,3.655 -3.765,-0.3613 -7.17762,-2.3888 -9.29487,-5.5225 C 882.8875,1049.95 875,1025.8888 875,1000 c 0,-25.88912 7.8875,-49.9505 21.38813,-69.90975 z M 1000,921.25 c 43.4638,0 78.75,35.28675 78.75,78.75 0,43.4638 -35.2862,78.75 -78.75,78.75 -43.46325,0 -78.75,-35.2862 -78.75,-78.75 0,-43.46325 35.28675,-78.75 78.75,-78.75 z m -71.79862,-5.423 c -2.37675,-2.37662 -3.7135,-5.6035 -3.7135,-8.96475 0,-4.2075 2.09462,-8.15012 5.58125,-10.50537 C 950.0495,882.8875 974.11088,875 1000,875 c 25.8888,0 49.95,7.8875 69.91,21.38813 3.125,2.11112 5.1463,5.5135 5.5063,9.26725 0.36,3.75375 -0.9775,7.4785 -3.6438,10.14512 0.025,0.027 0.025,0.0275 0.025,0.028 -5.5975,5.59738 -14.3112,6.61 -21.0425,2.44563 C 1036.0325,909.05475 1018.6313,903.75 1000,903.75 c -18.63062,0 -36.032,5.30475 -50.77737,14.48725 -6.71525,4.15363 -15.40538,3.14338 -20.98863,-2.44 -0.0316,0.0308 -0.0321,0.0303 -0.0326,0.0298 z"
   style="fill:#208e7a;stroke-width:0.125"
   id="path1" />
        </g>
        <g
   transform="matrix(2.03201,0,0,2.03201,-1627.21,-1436.95)"
   id="g2">
            <path
   d="m 996.0437,913.22508 c -0.71212,0 -0.815,-0.948 -0.815,-1.62 0,-0.624 0.132,-1.062 0.396,-1.314 0.264,-0.252 0.588,-0.378 0.972,-0.378 h 2.196 v -7.452 c 0,-0.432 0.126,-0.774 0.378,-1.026 0.252,-0.252 0.582,-0.438 0.99,-0.558 0.384,-0.12 0.822,-0.228 1.314,-0.324 0.492,-0.096 0.996,-0.18 1.512,-0.252 0.514,-0.0717 1.0303,-0.12588 1.548,-0.162 0.5163,-0.036 1.0025,-0.054 1.4575,-0.054 2.9288,0 5.13,0.6 6.6063,1.8 1.4762,1.2 2.2137,2.832 2.2137,4.896 0,1.944 -0.6775,3.504 -2.0337,4.68 -1.3563,1.176 -3.3775,1.764 -6.0663,1.764 z m 7.321,4.932 v 2.40987 c 0,0 -0.083,1.134 -0.4735,1.58413 -0.3472,0.39987 -1.2065,0.54237 -1.6145,0.54237 -0.888,0 -1.524,-0.16875 -1.908,-0.50437 -0.384,-0.336 -0.576,-0.888 -0.576,-1.656 v -2.376 l -2.60637,0.0315 c -0.51163,0.006 -0.77763,-0.4095 -0.84963,-0.6615 -0.072,-0.252 -0.108,-0.522 -0.108,-0.81 0,-0.552 0.114,-0.942 0.342,-1.17 0.228,-0.228 0.51,-0.342 0.846,-0.342 0,0 12.323,-0.0414 15.0443,0.051 0.775,0.0264 1.025,0.23537 1.1375,0.615 0.084,0.27425 0.1262,0.55937 0.1262,0.846 0,0.48 -0.12,0.84 -0.36,1.08 -0.24,0.24 -0.5275,0.36 -0.8637,0.36 z m 2.8438,-8.424 c 1.2487,0 2.22,-0.246 2.9162,-0.738 0.6963,-0.492 1.0438,-1.218 1.0438,-2.178 0,-1.008 -0.3713,-1.764 -1.1163,-2.268 -0.7437,-0.504 -1.7637,-0.756 -3.06,-0.756 -0.4312,0 -0.875,0.018 -1.3312,0.054 -0.4563,0.036 -0.8883,0.114 -1.2963,0.234 v 5.652 z"
   style="fill:#ffffff;fill-rule:nonzero;stroke-width:0.125"
   id="path2" />
        </g>
    </g>
</svg>
