<?xml version="1.0" encoding="UTF-8" standalone="no"?>
<svg
   width="128.01976"
   height="127.99936"
   viewBox="0 0 128.01976 127.99936"
   version="1.1"
   xml:space="preserve"
   style="clip-rule:evenodd;fill-rule:evenodd;stroke-linejoin:round;stroke-miterlimit:2"
   id="svg2"
   xmlns="http://www.w3.org/2000/svg"
   xmlns:svg="http://www.w3.org/2000/svg"><defs
   id="defs2" />
    <g
   transform="matrix(3.99977,0,0,3.99977,-447.95088,-447.94288)"
   id="g2">
        <path
   d="m 143.99584,111.99216 -10.66727,10.66727 h -7.11051 c -1.96346,0 -3.55663,1.59179 -3.55663,3.55525 0,0.39955 0.0666,0.78459 0.18777,1.14288 0.17527,0.5158 0.46705,0.98448 0.85259,1.36939 0.64332,0.6447 1.53316,1.04437 2.51489,1.04437 l -3.55538,3.55525 c -2.1086,0 -4.07469,-0.61269 -5.73049,-1.6678 -2.96907,-1.89545 -4.93665,-5.21631 -4.93665,-8.99934 0,-5.89189 4.77551,-10.66727 10.66727,-10.66727 z"
   style="fill:#b2fe92;fill-rule:nonzero;stroke-width:0.125013"
   id="path1" />
        <path
   d="m 143.99584,133.3267 c 0,5.89176 -4.77551,10.66714 -10.66727,10.66714 h -21.33441 l 10.66727,-10.66714 h 7.11189 c 1.96346,0 3.55525,-1.5918 3.55525,-3.55526 0,-0.0506 0,-0.10001 -0.003,-0.14926 0,-0.0346 -0.003,-0.0666 -0.005,-0.0999 0,-0.008 0,-0.0146 -0.003,-0.024 0,-0.0213 -0.003,-0.0439 -0.005,-0.0653 0,-0.0186 -0.003,-0.0373 -0.005,-0.0559 -0.003,-0.0188 -0.004,-0.04 -0.008,-0.0586 0,-0.012 -0.003,-0.024 -0.004,-0.0346 -0.004,-0.032 -0.009,-0.0626 -0.0134,-0.0933 0,-0.003 0,-0.005 -0.003,-0.008 -0.007,-0.04 -0.0132,-0.0786 -0.0226,-0.11851 -7.5e-4,-0.0124 -0.004,-0.0245 -0.008,-0.036 -0.008,-0.04 -0.0174,-0.0799 -0.0266,-0.11989 -0.003,-0.008 -0.004,-0.016 -0.007,-0.024 -0.01,-0.0375 -0.0199,-0.0748 -0.0306,-0.11189 -0.0135,-0.047 -0.0281,-0.0936 -0.044,-0.13989 -0.028,-0.0825 -0.06,-0.16514 -0.0933,-0.24502 -0.0221,-0.0521 -0.0456,-0.10364 -0.0706,-0.15452 -0.0224,-0.0484 -0.0464,-0.0959 -0.0719,-0.14264 -0.032,-0.0599 -0.0666,-0.11851 -0.0999,-0.17577 -0.0221,-0.0355 -0.0447,-0.0705 -0.068,-0.10526 -0.0251,-0.0392 -0.0517,-0.0774 -0.0799,-0.11451 -0.0116,-0.0174 -0.0241,-0.0343 -0.0373,-0.0506 -0.02,-0.028 -0.0414,-0.0546 -0.064,-0.0826 -0.0186,-0.0252 -0.04,-0.0506 -0.0613,-0.0759 -0.0298,-0.035 -0.06,-0.0696 -0.0906,-0.10389 -0.0373,-0.0414 -0.0745,-0.0812 -0.11451,-0.11988 -0.66558,-0.66858 -1.57155,-1.04424 -2.5149,-1.04299 l 3.55526,-3.55538 c 0.0693,0 0.13851,0 0.20777,0.003 0.052,0 0.10389,0.002 0.15727,0.004 0.14001,0.004 0.2799,0.0116 0.41954,0.0225 0.0453,0.003 0.0919,0.007 0.13727,0.0121 0.17439,0.0132 0.34891,0.0333 0.5208,0.0559 0.0506,0.007 0.0999,0.0134 0.15052,0.0213 0.0666,0.009 0.13451,0.02 0.20115,0.032 l 0.13989,0.024 c 0.0106,0.003 0.0226,0.003 0.0333,0.007 0.0613,0.0108 0.12389,0.0228 0.18514,0.0348 0.0773,0.0159 0.1559,0.0333 0.23315,0.0505 l 0.0479,0.012 c 0.0786,0.0187 0.15852,0.0374 0.23578,0.0574 0.003,0 0.005,0 0.008,0.002 0.0826,0.0214 0.16389,0.044 0.24515,0.0668 0.0839,0.0239 0.16914,0.0493 0.25178,0.0759 0.0755,0.0226 0.15052,0.0465 0.22515,0.0719 0.009,0.004 0.0199,0.008 0.0306,0.0108 0.0732,0.0252 0.14776,0.0505 0.22102,0.0785 0.0108,0.003 0.0214,0.008 0.032,0.012 0.0773,0.028 0.15452,0.056 0.23053,0.0879 0.0813,0.0306 0.16114,0.064 0.24102,0.0986 0.16477,0.0686 0.32741,0.14239 0.48756,0.22115 0.0729,0.0349 0.14526,0.0709 0.21714,0.10788 0.0773,0.04 0.15315,0.0785 0.22778,0.11989 0.0759,0.04 0.15052,0.0825 0.22515,0.12514 0.0745,0.0426 0.14776,0.0866 0.2224,0.13064 0.068,0.0413 0.13726,0.0825 0.20377,0.12514 0.007,0.004 0.012,0.008 0.0187,0.012 0.14289,0.0923 0.28366,0.18777 0.42217,0.2864 0.13939,0.099 0.27616,0.20165 0.4103,0.30766 0.0613,0.048 0.12126,0.096 0.18114,0.14664 0.0108,0.008 0.02,0.0159 0.0306,0.0239 0.19277,0.15977 0.37991,0.32641 0.56081,0.49955 0.0614,0.06 0.12264,0.11852 0.18389,0.1799 0.0613,0.0613 0.11989,0.12114 0.17977,0.18377 0.0586,0.0613 0.11589,0.12389 0.17452,0.18652 0.10126,0.11189 0.20115,0.22515 0.29703,0.34103 0.0214,0.0239 0.0414,0.0505 0.0613,0.0759 0.0466,0.0559 0.092,0.11188 0.13726,0.16914 0.10464,0.13239 0.2059,0.2674 0.30366,0.40492 0.0978,0.13751 0.003,0.003 0.003,0.005 0.0506,0.0692 0.0985,0.13989 0.14652,0.21177 0.0479,0.0706 0.0945,0.14251 0.14251,0.21452 0.0453,0.0719 0.0906,0.14252 0.13452,0.21577 0.008,0.0146 0.0174,0.0293 0.0254,0.0426 0.0359,0.0599 0.0719,0.11989 0.10651,0.18115 0.0426,0.0746 0.0853,0.14914 0.12526,0.22515 0.0306,0.0559 0.0613,0.11326 0.0905,0.17052 0.079,0.15276 0.15452,0.3074 0.22652,0.46355 0.0199,0.0426 0.0399,0.0853 0.0585,0.12913 0.0294,0.0653 0.0574,0.13064 0.0853,0.19715 0.0294,0.0706 0.0586,0.14252 0.0866,0.21315 0.0266,0.0666 0.0533,0.13589 0.0773,0.20377 0.012,0.0308 0.024,0.0626 0.0346,0.0946 0.0186,0.0493 0.036,0.0973 0.052,0.14651 0.0333,0.0973 0.0665,0.19577 0.0959,0.29441 0.024,0.0719 0.0453,0.14514 0.0653,0.21715 0.007,0.0186 0.012,0.0386 0.0172,0.0573 0.0214,0.0759 0.0414,0.15189 0.0614,0.22778 0,0.003 0.003,0.005 0.003,0.008 0.0186,0.0719 0.0373,0.14514 0.0532,0.21715 0.0254,0.10651 0.0493,0.21577 0.072,0.32366 0.0132,0.064 0.0239,0.12788 0.0359,0.19314 0.0134,0.068 0.024,0.13589 0.0346,0.20377 0.008,0.0494 0.016,0.0986 0.024,0.14927 0.008,0.0599 0.0174,0.11989 0.024,0.17977 0.005,0.0374 0.009,0.0733 0.0133,0.11064 0.008,0.0625 0.0147,0.12651 0.0214,0.19039 v 0.003 c 0.009,0.0865 0.0173,0.17177 0.024,0.2584 0,0.008 0,0.0186 0.003,0.028 0.007,0.0813 0.0106,0.16114 0.0146,0.2424 0,0.0106 0,0.0226 0.003,0.0346 0.004,0.0786 0.007,0.15714 0.008,0.23577 v 0.036 c 0.003,0.0853 0.003,0.17051 0.003,0.25577 z"
   style="fill:#078465;fill-rule:nonzero;stroke-width:0.125013"
   id="path2" />
    </g>
</svg>
