<?xml version="1.0" encoding="UTF-8" standalone="no"?>
<svg
   width="128.00058"
   height="169.41266"
   viewBox="0 0 128.00058 169.41266"
   version="1.1"
   xml:space="preserve"
   style="clip-rule:evenodd;fill-rule:evenodd;stroke-linejoin:round;stroke-miterlimit:2"
   id="svg1"
   xmlns="http://www.w3.org/2000/svg"
   xmlns:svg="http://www.w3.org/2000/svg"><defs
   id="defs1" />
    <g
   transform="matrix(4.06892,0,0,4.06892,-440.20547,-427.29385)"
   id="g1">
        <path
   d="m 139.56322,121.75253 c 0.65449,-4.37496 -2.67686,-6.72689 -7.23198,-8.29577 l 1.47757,-5.92647 -3.6078,-0.89902 -1.43852,5.7703 c -0.94848,-0.23642 -1.92261,-0.45927 -2.89061,-0.68014 l 1.44878,-5.80834 -3.60565,-0.89902 -1.47872,5.92449 c -0.78502,-0.17901 -1.55565,-0.3557 -2.30378,-0.54166 l 0.004,-0.0184 -4.97551,-1.24231 -0.95973,3.85299 c 0,0 2.67686,0.61346 2.62028,0.65134 1.46118,0.3648 1.72523,1.33165 1.68105,2.09814 l -1.68304,6.75153 c 0.10059,0.0256 0.23112,0.0625 0.37506,0.12011 -0.12028,-0.0298 -0.24866,-0.0627 -0.38135,-0.0945 l -2.3592,9.45783 c -0.17884,0.44372 -0.63199,1.10962 -1.65343,0.85683 0.0361,0.0524 -2.62226,-0.65449 -2.62226,-0.65449 l -1.79108,4.12944 4.69492,1.17017 c 0.87354,0.21888 1.72937,0.44802 2.57197,0.66375 l -1.49295,5.99414 3.60366,0.89918 1.47872,-5.93061 c 0.95559,0.25908 1.914,0.50774 2.87506,0.74598 l -1.4736,5.90281 3.6078,0.89902 1.49312,-5.98289 c 6.15213,1.16405 10.77823,0.69453 12.72548,-4.86913 1.56906,-4.47985 -0.0781,-7.06389 -3.31496,-8.74892 2.35722,-0.54347 4.13291,-2.094 4.60657,-5.29646 z m -8.24316,11.55779 c -1.11492,4.47984 -8.65825,2.0581 -11.10399,1.45076 l 1.98117,-7.94122 c 2.44574,0.61031 10.28803,1.8187 9.12282,6.49046 z m 1.11591,-11.62265 c -1.01731,4.07501 -7.29567,2.00467 -9.33243,1.49709 l 1.7962,-7.20253 c 2.03676,0.50758 8.59572,1.4549 7.53623,5.70544 z"
   style="fill:#ef4800;fill-rule:nonzero;stroke-width:0.165442"
   id="path1" />
    </g>
</svg>
