<?xml version="1.0" encoding="UTF-8" standalone="no"?>
<svg
   width="190.78828"
   height="190.69414"
   viewBox="0 0 190.78828 190.69414"
   version="1.1"
   xml:space="preserve"
   style="clip-rule:evenodd;fill-rule:evenodd;stroke-linejoin:round;stroke-miterlimit:2"
   id="svg2"
   xmlns="http://www.w3.org/2000/svg"
   xmlns:svg="http://www.w3.org/2000/svg"><defs
   id="defs2" />
    <g
   transform="matrix(3.95941,0,0,3.98627,-410.86594,-414.65393)"
   id="g2">
        <path
   d="m 127.94766,143.94903 c 8.95477,0 16.16413,-7.20936 16.16413,-15.93642 0,-8.72705 -7.20936,-15.93622 -16.16413,-15.93622 -8.95458,0 -16.16393,7.20917 -16.16393,15.93622 0,8.72706 7.20935,15.93642 16.16393,15.93642 z"
   style="fill:#ef4800;fill-rule:nonzero;stroke-width:0.186955"
   id="path1" />
        <path
   d="m 141.49479,144.901 c 0.86897,0.82316 0.81606,2.22962 -0.1806,2.89275 -9.37485,6.23757 -22.10461,5.32298 -30.43028,-2.93145 -9.4859,-9.41 -9.4859,-24.43576 0,-33.84576 8.28248,-8.28229 21.13283,-9.17519 30.52432,-2.86807 0.95235,0.63976 1.02078,1.98172 0.20958,2.7931 -0.6923,0.69211 -1.78804,0.74745 -2.60615,0.20995 -7.80892,-5.1278 -18.44815,-4.19863 -25.24397,2.59718 -8.04392,7.81621 -8.04392,20.56523 -0.15162,28.38163 6.79694,6.79693 17.43879,7.72535 25.24789,2.59437 0.8213,-0.53974 1.91741,-0.49954 2.63083,0.1763 z m 3.50129,-3.42202 c 0.82373,0.86952 2.23056,0.8211 2.89874,-0.17294 5.43721,-8.0886 5.41421,-18.76728 -0.0692,-26.83401 -0.64257,-0.94506 -1.97799,-1.00825 -2.78619,-0.20004 -0.69622,0.69603 -0.7482,1.79925 -0.20191,2.6183 4.41288,6.61727 4.40615,15.22393 -0.02,21.95169 -0.54161,0.82316 -0.49917,1.92152 0.17854,2.637 z"
   style="fill:#ef4800;fill-rule:nonzero;stroke-width:0.186955"
   id="path2" />
    </g>
</svg>
