<svg xmlns="http://www.w3.org/2000/svg" width="128" height="128" fill="none"><g clip-path="url(#a)"><g fill="#EF4800" clip-path="url(#b)"><path d="M64.16 106.786c23.948 0 43.229-19.28 43.229-42.62 0-23.34-19.281-42.621-43.23-42.621-23.949 0-43.23 19.28-43.23 42.62 0 23.34 19.281 42.621 43.23 42.621Z"/><path d="M100.39 109.332c2.324 2.202 2.182 5.964-.483 7.737-25.073 16.682-59.117 14.236-81.384-7.84-25.37-25.167-25.37-65.352 0-90.519 22.15-22.15 56.518-24.538 81.635-7.67 2.548 1.71 2.73 5.3.561 7.47-1.851 1.85-4.782 1.998-6.97.561C72.865 5.357 44.41 7.842 26.236 26.017 4.722 46.92 4.722 81.018 25.83 101.922c18.178 18.178 46.639 20.661 67.524 6.939 2.197-1.443 5.128-1.336 7.036.471Zm9.362-9.152c2.203 2.326 5.965 2.197 7.753-.462 14.541-21.633 14.479-50.192-.186-71.766-1.718-2.528-5.29-2.697-7.451-.535-1.862 1.862-2.001 4.812-.54 7.003 11.802 17.697 11.784 40.715-.053 58.708-1.449 2.201-1.336 5.14.477 7.052Z"/></g></g><defs><clipPath id="a"><path fill="#fff" d="M0 0h128v128H0z"/></clipPath><clipPath id="b"><rect width="128" height="128" fill="#fff" rx="64"/></clipPath></defs></svg>