<svg xmlns="http://www.w3.org/2000/svg" width="128" height="128" fill="none"><g clip-path="url(#a)"><g clip-path="url(#b)"><path fill="#EF4800" d="M114.545 37.548c-4.677-7.696-11.152-13.587-19.547-17.675-8.394-4.209-18.107-6.373-29.02-6.373H20.172v41.843H6.5v15.63h13.67V114.5h45.81c10.912 0 20.625-2.044 29.02-6.252 8.394-4.209 14.869-10.1 19.546-17.675C119.222 82.998 121.5 74.1 121.5 64c0-10.1-2.278-18.877-6.955-26.452ZM88.883 86.966c-5.996 5.53-14.03 8.416-24.103 8.416H43.553V70.974h25.183V55.343H43.554V32.738H64.78c10.073 0 18.108 2.766 24.104 8.417C94.879 46.806 97.876 54.38 97.876 64c0 9.619-2.998 17.314-8.993 22.966Z"/></g></g><defs><clipPath id="a"><path fill="#fff" d="M0 0h128v128H0z"/></clipPath><clipPath id="b"><path fill="#fff" d="M0 0h115v101H0z" transform="translate(6.5 13.5)"/></clipPath></defs></svg>