<svg xmlns="http://www.w3.org/2000/svg" width="128" height="128" fill="none"><g fill="#EF4800" clip-path="url(#a)"><path d="M117.963 65.5a39.25 39.25 0 0 1-5.273 19.699 39.554 39.554 0 0 1-14.427 14.427c-.208.116-.41.233-.618.349a39.205 39.205 0 0 1-19.075 4.923H39.178l7.385-19.699h-22.16l7.384-19.7H78.57l-7.384 19.7h7.384c9.18 0 16.889-6.276 19.075-14.776.404-1.574.618-3.22.618-4.923 0-10.875-8.817-19.7-19.699-19.7H39.172l7.385-19.698h32.007c7.177 0 13.9 1.922 19.7 5.272A39.553 39.553 0 0 1 112.69 45.8a39.234 39.234 0 0 1 5.273 19.699Zm-86.187 0H9.62l7.385-19.7h22.16l-7.39 19.7Z"/></g><defs><clipPath id="a"><path fill="#fff" d="M0 0h128v128H0z"/></clipPath></defs></svg>