<?xml version="1.0" encoding="UTF-8" standalone="no"?>
<svg
   width="127.99991"
   height="117.69483"
   viewBox="0 0 127.99991 117.69483"
   version="1.1"
   xml:space="preserve"
   style="clip-rule:evenodd;fill-rule:evenodd;stroke-linejoin:round;stroke-miterlimit:2"
   id="svg1"
   xmlns="http://www.w3.org/2000/svg"
   xmlns:svg="http://www.w3.org/2000/svg"><defs
   id="defs1" />
    <g
   transform="matrix(4.33898,0,0,4.33898,-482.71152,-524.74539)"
   id="g1">
        <path
   d="m 128.99463,135.51475 v -0.004 c -0.16813,0.0116 -1.036,0.0624 -2.96725,0.0624 -1.54425,0 -2.62713,-0.0429 -3.01025,-0.0624 v 0.004 c -5.93825,-0.2615 -10.3675,-1.29187 -10.3675,-2.52912 0,-1.23325 4.43312,-2.2675 10.3675,-2.529 v 4.03162 c 0.38712,0.0274 1.50125,0.0937 3.03762,0.0937 1.84525,0 2.76775,-0.0781 2.93988,-0.0937 v -4.02775 c 5.9265,0.26538 10.34412,1.29575 10.34412,2.52913 0,1.23325 -4.4215,2.26362 -10.34412,2.529 m 0,-5.47575 v -3.60625 h 8.26825 v -5.49913 h -22.51 v 5.49913 h 8.26825 v 3.60625 c -6.72025,0.30837 -11.77113,1.63537 -11.77113,3.22775 0,1.59237 5.05475,2.91937 11.77113,3.2315 v 11.56037 h 5.97737 v -11.56037 c 6.70838,-0.30825 11.7515,-1.63525 11.7515,-3.22763 0,-1.5885 -5.04312,-2.91937 -11.7515,-3.22775"
   style="fill:#26a17b;fill-rule:nonzero;stroke-width:0.125"
   id="path1" />
    </g>
</svg>
