<?xml version="1.0" encoding="UTF-8" standalone="no"?>
<svg
   width="127.99985"
   height="250.23691"
   viewBox="0 0 127.99985 250.23691"
   version="1.1"
   xml:space="preserve"
   style="clip-rule:evenodd;fill-rule:evenodd;stroke-linejoin:round;stroke-miterlimit:2"
   id="svg1"
   xmlns="http://www.w3.org/2000/svg"
   xmlns:svg="http://www.w3.org/2000/svg"><defs
   id="defs1" />
    <g
   transform="matrix(3.12899,0,0,3.12899,-732.32484,-899.56476)"
   id="g1">
        <path
   d="m 255.84597,367.46735 h -7.36779 v -9.3472 h -14.43306 v -59.60218 h 14.43306 v -11.02432 h 7.36779 v 11.18928 c 3.99548,0.0733 7.34947,0.69645 10.06199,1.86944 h -0.0274 c 2.1077,0.87973 3.8029,2.4833 5.08585,4.81093 0.56817,1.08135 0.99899,2.16733 1.29224,3.25772 0.29324,1.09063 0.43987,2.21327 0.43987,3.36793 0,5.04015 -1.96108,9.15463 -5.88324,12.34368 -0.47653,0.40321 -0.9577,0.77441 -1.44326,1.11336 -0.48581,0.33918 -1.04029,0.7011 -1.66344,1.08598 1.7778,0.64148 3.40458,1.4892 4.87985,2.54293 1.47552,1.05397 2.76287,2.29563 3.86254,3.7252 1.66783,2.19934 2.50187,5.04016 2.50187,8.52245 0,3.02409 -0.76977,5.82825 -2.30931,8.41248 -1.50288,2.54757 -3.59226,4.54531 -6.26812,5.99321 -2.6942,1.48456 -6.2041,2.28194 -10.52948,2.39191 z m 0,-44.61928 c 0.42155,-0.10996 0.86606,-0.26563 1.33354,-0.46723 0.46724,-0.20161 0.95745,-0.43987 1.47063,-0.71479 0.58649,-0.31157 1.15465,-0.76977 1.70449,-1.37459 0.54983,-0.60482 1.04468,-1.34722 1.48455,-2.22695 0.43987,-0.89807 0.77441,-1.75019 1.00364,-2.55662 0.22897,-0.80642 0.34358,-1.58548 0.34358,-2.33692 0,-1.85111 -0.76073,-3.41802 -2.28194,-4.70097 -0.87974,-0.86141 -2.5659,-1.47552 -5.05849,-1.84207 z m -7.36779,-16.38509 h -4.83855 v 17.01753 h 4.83855 z m 7.36779,43.7669 c 0.64148,-0.0366 1.26023,-0.10532 1.85576,-0.20625 0.59578,-0.10068 1.18667,-0.24266 1.77316,-0.42593 0.64147,-0.20161 1.22797,-0.4538 1.75947,-0.75609 0.53151,-0.30253 1.01732,-0.65516 1.45719,-1.05837 h -0.0276 c 1.6495,-1.59453 2.47426,-3.55561 2.47426,-5.88324 0,-1.7778 -0.51318,-3.47325 -1.53954,-5.0861 h 0.0276 c -0.93472,-1.42958 -2.4376,-2.63921 -4.50865,-3.62892 -1.118,-0.54983 -2.20863,-0.98042 -3.27165,-1.29199 z m -12.20634,-18.91434 v 18.94196 h 4.83855 v -18.94196 z"
   style="fill:#003f20;fill-rule:nonzero;stroke-width:0.244371"
   id="path1" />
    </g>
</svg>
