<svg xmlns="http://www.w3.org/2000/svg" xml:space="preserve" style="fill-rule:evenodd;clip-rule:evenodd;stroke-linejoin:round;stroke-miterlimit:2" viewBox="0 0 128 128"><path d="M1574.75 1673.75c21.32 21.31 32 51.03 29.13 81.03a100.958 100.958 0 0 1-43.95 74.05C1399.99 1936.77 1207.32 2000 1000 2000c-207.32 0-399.989-63.23-559.758-171.43a100.701 100.701 0 0 1-43.818-73.82 100.714 100.714 0 0 1 29.038-80.8l-.211-.21c44.981-44.96 114.971-53.12 169.084-19.69C712.04 1727.65 851.113 1770 1000 1770c148.89 0 287.96-42.35 405.84-115.66 53.98-33.34 123.8-25.21 168.66 19.65.25-.25.25-.25.25-.24Zm99-1248.504a101 101 0 0 1 155.08 14.821C1936.77 600.011 2000 792.68 2000 1000s-63.23 399.99-171.43 559.76a100.704 100.704 0 0 1-154.62 14.78l-.21.21c-44.96-44.98-53.12-114.97-19.69-169.09 73.6-117.7 115.95-256.77 115.95-405.66 0-148.887-42.35-287.96-115.66-405.843-33.34-53.978-25.21-123.793 19.65-168.657-.25-.249-.25-.249-.24-.254ZM171.43 440.242a100.7 100.7 0 0 1 154.615-14.78l.211-.211c44.967 44.981 53.12 114.971 19.696 169.084C272.348 712.04 230 851.113 230 1000c0 148.89 42.348 287.96 115.664 405.84 33.34 53.98 25.201 123.8-19.662 168.67l.249.24a100.973 100.973 0 0 1-81.032 29.13 100.96 100.96 0 0 1-74.048-43.95C63.226 1399.99 0 1207.32 0 1000c0-207.32 63.226-399.989 171.43-559.758ZM1000 370c347.71 0 630 282.294 630 630 0 347.71-282.29 630-630 630-347.706 0-630-282.29-630-630 0-347.706 282.294-630 630-630Zm-574.754-43.749a101 101 0 0 1 14.821-155.08C600.011 63.226 792.68 0 1000 0s399.99 63.226 559.76 171.43a100.698 100.698 0 0 1 14.78 154.615l.21.211c-44.98 44.967-114.97 53.12-169.09 19.696C1287.96 272.348 1148.89 230 1000 230c-148.887 0-287.96 42.348-405.843 115.664-53.978 33.339-123.793 25.202-168.657-19.658-.249.25-.249.25-.254.245Z" style="fill:#208e7a" transform="scale(.064)"/><path d="M1067.85 899.888c2.17-2.606 4.07-5.503 5.69-8.692 3.54-6.972 5.3-14.311 5.3-22.013v-14.071c0-14.776-5.77-26.64-17.27-35.611-10.45-8.145-24.03-12.533-40.87-12.81v-21.938a7.281 7.281 0 0 0-7.28-7.281H994.3a7.281 7.281 0 0 0-7.281 7.281v21.924h-28.556c-13.996 0-25.341 11.346-25.341 25.341v150.535c0 7.274 2.397 13.113 6.911 17.627 4.515 4.52 10.354 6.91 17.628 6.91h29.358v21.93c0 4.02 3.26 7.28 7.281 7.28h19.12a7.28 7.28 0 0 0 7.28-7.28v-21.93h11.3c17.9 0 32-5.19 42.46-15.148 10.61-10.1 16.07-23.455 16.07-40.187v-12.744c0-10.57-3.16-19.806-9.4-27.734-3.7-4.707-8.12-8.508-13.28-11.389Zm-11.53 39.123v12.744c0 6.95-2.18 12.582-6.79 16.792-4.9 4.467-11.67 6.459-20.18 6.459h-62.018V921.6h67.328c6.7 0 12.16 1.552 16.26 5.037 3.65 3.107 5.4 7.256 5.4 12.374Zm-88.988-48.435v-51.813h51.658c7.99 0 14.54 1.602 19.55 5.161 4.01 2.844 6.09 6.543 6.09 11.188v14.071c0 6.541-1.72 11.846-5.52 15.783-3.71 3.842-8.69 5.61-14.81 5.61h-56.968Z" style="fill:#fff;fill-rule:nonzero" transform="matrix(.24852 0 0 .24852 -187.462 -161.382)"/></svg>