<?xml version="1.0" encoding="UTF-8" standalone="no"?>
<svg
   width="128"
   height="52.747532"
   viewBox="0 0 128 52.747532"
   version="1.1"
   xml:space="preserve"
   style="clip-rule:evenodd;fill-rule:evenodd;stroke-linejoin:round;stroke-miterlimit:2"
   id="svg3"
   xmlns="http://www.w3.org/2000/svg"
   xmlns:svg="http://www.w3.org/2000/svg"><defs
   id="defs3" />
    <g
   transform="matrix(4,0,0,4,63.984,25.87596)"
   id="g3">
        <g
   transform="translate(-128,-53)"
   id="g2">
            <clipPath
   id="_clip1">
                <rect
   x="0"
   y="0"
   width="256"
   height="106"
   id="rect1" />
            </clipPath>
            <g
   clip-path="url(#_clip1)"
   id="g1">
                <path
   d="m 120.15888,49.48801 h 2.40975 c 0.11275,0 0.20375,0.09075 0.20375,0.203125 v 6.615375 c 0,0.1125 -0.091,0.203125 -0.20375,0.203125 h -2.40975 c -0.11275,0 -0.20375,-0.09075 -0.20375,-0.203125 v -6.615375 c 0,-0.112375 0.091,-0.203125 0.20375,-0.203125 z m 8.86287,-0.117375 c 1.18925,0 2.09738,0.308 2.7235,0.92425 0.61063,0.6005 0.9155,1.459125 0.9155,2.574375 v 3.43625 c 0,0.1125 -0.091,0.203125 -0.20375,0.203125 h -2.40962 c -0.11276,0 -0.20375,-0.09075 -0.20375,-0.203125 v -3.389625 c 0,-0.80375 -0.58688,-1.20525 -1.7605,-1.20525 -1.17363,0 -1.76038,0.40225 -1.76038,1.20525 v 3.389625 c 0,0.1125 -0.0911,0.203125 -0.20375,0.203125 h -2.40975 c -0.11275,0 -0.20375,-0.09075 -0.20375,-0.203125 v -6.61525 c 0,-0.1125 0.091,-0.20325 0.20375,-0.20325 h 2.40975 c 0.11263,0 0.20375,0.09075 0.20375,0.20325 v 0.580875 c 0.6255,-0.6 1.52538,-0.9005 2.699,-0.9005 z m 14.98225,0.2065 c -3.8e-4,-0.11 -0.0897,-0.201 -0.19975,-0.203125 -0.45575,-0.01225 -1.49213,0.07787 -2.17262,0.539 -0.16375,0.111 -0.32201,0.224125 -0.46263,0.35875 v 0.0014 c -0.80337,-0.60125 -1.9505,-0.9025 -3.44537,-0.9025 -1.53363,0 -2.708,0.32025 -3.52163,0.959375 -0.78237,0.624375 -1.17363,1.513375 -1.17363,2.6685 0,1.1545 0.39126,2.04425 1.17363,2.6685 0.523,0.411 1.19537,0.68925 2.01588,0.83625 v 6.25e-4 c 0.47675,0.08875 1.03299,0.134125 1.69862,0.127375 0.188,-0.0057 0.37575,-0.01675 0.563,-0.03325 0.14737,-0.01112 0.29425,-0.0265 0.44075,-0.046 0.0877,-0.01063 0.17537,-0.02238 0.26288,-0.03525 0.19812,-0.02975 0.38562,0.108625 0.41562,0.30675 0.029,0.198125 -0.11012,0.385125 -0.30825,0.414375 -0.53187,0.07863 -1.11125,0.126 -1.55063,0.126 -0.52224,0 -1.00999,-0.03525 -1.46224,-0.105625 -0.297,-0.04525 -0.59075,-0.10975 -0.8795,-0.193 -0.10401,-0.02988 -0.21476,0.028 -0.24938,0.130625 l -0.59488,1.7795 c -0.0337,0.10175 0.0184,0.21375 0.11813,0.25325 0.76,0.305375 1.61438,0.417 2.42813,0.46175 1.12062,0.06162 2.32825,0.03525 3.41962,-0.242375 0.26763,-0.06775 0.5345,-0.157125 0.777,-0.28575 0.16025,-0.08463 0.31038,-0.186875 0.44288,-0.310875 0.3035,-0.284375 0.49987,-0.671 0.5935,-1.075875 0.19287,-0.8295 0.0815,-1.8485 -0.72538,-2.31025 -0.0277,-0.01563 -0.0576,-0.03125 -0.0883,-0.046 0.59838,-0.604 0.89788,-1.41125 0.89788,-2.42075 0,-0.449625 -0.0604,-0.8585 -0.17863,-1.2275 0.20175,-0.03937 0.43125,-0.06037 0.69012,-0.06037 0.31638,0 0.59013,0.02912 0.82113,0.08812 0.0161,0.0041 0.0327,0.0061 0.0495,0.0061 0.11137,0 0.20313,-0.09175 0.20313,-0.203125 0,0 0,-1.25e-4 0,-1.25e-4 z m -6.28037,2.13425 c 1.25162,0 1.87787,0.42925 1.87787,1.287125 0,0.858625 -0.62625,1.28725 -1.87787,1.28725 -1.2525,0 -1.87801,-0.429375 -1.87801,-1.28725 0,-0.857875 0.62551,-1.287125 1.87801,-1.287125 z m -18.50138,-0.20375 v -1.81675 c 0,-0.112375 -0.0909,-0.203125 -0.20375,-0.203125 h -2.61275 v -2.7525 c 0,-0.13875 -0.1365,-0.23625 -0.26825,-0.192875 l -2.40975,0.802375 c -0.0829,0.0275 -0.13925,0.1055 -0.13925,0.192875 v 1.95075 h -1.38075 c -0.11275,0 -0.20375,0.09075 -0.20375,0.203125 v 1.816125 c 0,0.112375 0.091,0.203125 0.20375,0.203125 h 1.38075 v 2.229625 c 0,0.975 0.32463,1.67375 0.974,2.095 0.618,0.3975 1.62388,0.5965 3.01688,0.5965 0.52375,0 1.01537,-0.04062 1.4765,-0.12125 0.096,-0.0175 0.1665,-0.102 0.1665,-0.199625 v -1.923 c 0,-0.12725 -0.11625,-0.22275 -0.24188,-0.199125 -0.37075,0.06912 -0.72062,0.103 -1.04925,0.103 -0.52437,0 -0.9,-0.0475 -1.12675,-0.140875 -0.26625,-0.100875 -0.39875,-0.2885 -0.39875,-0.56125 v -1.879125 h 2.61275 c 0.11288,0 0.20375,-0.09075 0.20375,-0.203125 z m 3.34638,-2.749625 h -2.40975 c -0.11275,0 -0.20375,-0.09075 -0.20375,-0.203125 v -1.82075 c 0,-0.1125 0.091,-0.203125 0.20375,-0.203125 h 2.40975 c 0.11275,0 0.20375,0.09075 0.20375,0.203125 v 1.82075 c 0,0.11175 -0.0916,0.203125 -0.20375,0.203125 z"
   style="fill:#ff9920;fill-rule:nonzero;stroke-width:0.125"
   id="path1" />
            </g>
        </g>
    </g>
</svg>
