<svg width="128" height="54" fill="none" xmlns="http://www.w3.org/2000/svg"><path d="M32.62 12.516h9.639c.45 0 .815.363.815.812V39.79c0 .45-.364.813-.815.813h-9.64a.813.813 0 0 1-.814-.813V13.33c0-.45.364-.813.815-.813Zm35.453-.471c4.757 0 8.39 1.232 10.894 3.697 2.442 2.402 3.662 5.837 3.662 10.297v13.746c0 .45-.364.812-.815.812h-9.639a.813.813 0 0 1-.815-.812V26.226c0-3.215-2.347-4.82-7.041-4.82-4.695 0-7.042 1.608-7.042 4.82v13.559c0 .45-.364.812-.815.812h-9.64a.813.813 0 0 1-.814-.812V13.323c0-.45.364-.812.815-.812h9.639c.45 0 .815.363.815.812v2.324c2.502-2.4 6.102-3.602 10.796-3.602Zm59.927.826a.814.814 0 0 0-.799-.813c-1.823-.048-5.968.312-8.691 2.156-.654.445-1.287.897-1.85 1.436v.005c-3.214-2.405-7.802-3.61-13.782-3.61-6.134 0-10.831 1.281-14.086 3.838-3.13 2.497-4.694 6.053-4.694 10.674 0 4.617 1.564 8.176 4.694 10.674 2.092 1.644 4.782 2.757 8.063 3.344v.003c1.907.355 4.133.536 6.795.51a39.45 39.45 0 0 0 2.252-.133 31.379 31.379 0 0 0 1.763-.184c.353-.044.707-.09 1.052-.141a1.46 1.46 0 0 1 1.662 1.226 1.461 1.461 0 0 1-1.233 1.658c-2.127.314-4.445.504-6.202.504-2.09 0-4.04-.141-5.85-.423a27.823 27.823 0 0 1-3.518-.771.814.814 0 0 0-.997.522l-2.38 7.118a.814.814 0 0 0 .473 1.013c3.04 1.221 6.458 1.668 9.712 1.847 4.483.247 9.313.14 13.679-.97 1.07-.27 2.138-.628 3.108-1.143a8.125 8.125 0 0 0 1.771-1.243c1.215-1.137 2-2.684 2.375-4.303.771-3.318.326-7.394-2.902-9.242a7.147 7.147 0 0 0-.353-.184c2.394-2.416 3.592-5.644 3.592-9.682 0-1.799-.242-3.435-.715-4.91a14.494 14.494 0 0 1 2.76-.242c1.266 0 2.361.117 3.285.352a.812.812 0 0 0 1.01-.788l.006-8.098Zm-25.122 8.537c5.007 0 7.512 1.717 7.512 5.149 0 3.434-2.505 5.148-7.512 5.148-5.01 0-7.511-1.717-7.511-5.148 0-3.432 2.502-5.15 7.511-5.15Zm-74.005-.814v-7.267a.813.813 0 0 0-.815-.812h-10.45V1.505a.816.816 0 0 0-1.074-.772l-9.639 3.21a.814.814 0 0 0-.557.771v7.803H.815A.813.813 0 0 0 0 13.33v7.264c0 .45.364.812.815.812h5.523v8.92c0 3.9 1.299 6.694 3.896 8.38 2.472 1.589 6.496 2.385 12.068 2.385 2.094 0 4.061-.162 5.906-.485a.811.811 0 0 0 .665-.799v-7.692a.813.813 0 0 0-.967-.796 22.955 22.955 0 0 1-4.197.412c-2.098 0-3.6-.19-4.507-.564-1.065-.403-1.595-1.153-1.595-2.245v-7.516h10.451a.813.813 0 0 0 .815-.812ZM42.259 9.596h-9.64a.813.813 0 0 1-.814-.813V1.5c0-.45.364-.813.815-.813h9.639c.45 0 .815.363.815.813v7.283a.816.816 0 0 1-.815.813Z" fill="#FF9920"/></svg>