<?xml version="1.0" encoding="UTF-8" standalone="no"?>
<svg
   width="128"
   height="170.4164"
   viewBox="0 0 128 170.4164"
   version="1.1"
   xml:space="preserve"
   style="clip-rule:evenodd;fill-rule:evenodd;stroke-linejoin:round;stroke-miterlimit:2"
   id="svg1"
   xmlns="http://www.w3.org/2000/svg"
   xmlns:svg="http://www.w3.org/2000/svg"><defs
   id="defs1" />
    <g
   transform="matrix(4.02784,0,0,4.02784,-320.18948,-430.31706)"
   id="g1">
        <path
   d="m 79.494091,116.5409 c 0,-1.52591 1.239888,-2.76497 2.767634,-2.76497 h 13.121858 l 6.793977,-6.48197 c 0.64035,-0.61103 1.66135,-0.61103 2.3017,0 l 6.79365,6.48214 v 25.51074 c 0,1.61054 -1.30852,2.9179 -2.92073,2.9179 H 95.38325 l -6.793647,6.4823 c -0.640351,0.61103 -1.661514,0.61103 -2.301864,0 l -6.793648,-6.48247 z m 20.418757,9.95159 c -0.306182,0.30568 -0.809767,0.30568 -1.115949,0 l -5e-4,-5e-4 -2.184755,-2.18209 c -0.677832,-0.6775 -1.779122,-0.6775 -2.456954,0 l -2.184589,2.18259 c -0.306515,0.30552 -0.8096,0.30552 -1.116116,0 l -4.99e-4,-5e-4 -2.186088,-2.18392 c -0.678332,-0.67767 -1.779122,-0.67767 -2.457454,0 l -2.457454,2.45495 c -0.677832,0.6775 -0.677832,1.77729 0,2.45496 l 2.457454,2.45445 c 0.678332,0.67767 1.779122,0.67767 2.457454,0 l 2.186587,-2.18442 c 0.305183,-0.30452 0.806935,-0.30435 1.111785,5e-4 h 9.99e-4 l 2.187921,2.18592 c 0.677832,0.6775 1.779122,0.6775 2.456954,0 l 2.188087,-2.18592 c 0.305682,-0.30502 0.807934,-0.30502 1.113617,0 l 2.186252,2.18392 c 0.67817,0.67767 1.77912,0.67767 2.45729,0 l 2.45745,-2.45445 c 0.67784,-0.67767 0.67784,-1.77746 0,-2.45496 l -2.45745,-2.45495 c -0.67817,-0.67767 -1.77912,-0.67767 -2.45729,0 z"
   style="fill:#f1a200;stroke-width:0.166584"
   id="path1" />
    </g>
</svg>
