<svg width="96" height="128" fill="none" xmlns="http://www.w3.org/2000/svg"><g clip-path="url(#a)"><path fill-rule="evenodd" clip-rule="evenodd" d="M0 29.628c0-4.58 3.721-8.298 8.307-8.298h39.385L68.083 1.874a5.005 5.005 0 0 1 6.91 0l20.39 19.456V97.9c0 4.833-3.928 8.757-8.767 8.757H47.691L27.3 126.115a5.006 5.006 0 0 1-6.909 0L0 106.657V29.628Zm61.287 29.87a2.371 2.371 0 0 1-3.35 0l-.002-.002-6.557-6.549a5.22 5.22 0 0 0-7.374 0l-6.558 6.55a2.372 2.372 0 0 1-3.35 0h-.001l-6.562-6.556a5.221 5.221 0 0 0-7.376 0l-7.376 7.369a5.211 5.211 0 0 0 0 7.368l7.376 7.368a5.221 5.221 0 0 0 7.376 0l6.563-6.557a2.36 2.36 0 0 1 3.338.002h.002l6.568 6.56a5.22 5.22 0 0 0 7.374 0l6.567-6.56a2.366 2.366 0 0 1 3.343 0l6.562 6.555a5.221 5.221 0 0 0 7.376 0l7.376-7.368a5.211 5.211 0 0 0 0-7.368l-7.376-7.369a5.221 5.221 0 0 0-7.376 0l-6.563 6.557Z" fill="#F1A200"/></g><defs><clipPath id="a"><path fill="#fff" d="M0 0h95.385v128H0z"/></clipPath></defs></svg>