<?xml version="1.0" encoding="UTF-8" standalone="no"?>
<svg
   width="256.00101"
   height="256.00003"
   viewBox="0 0 256.00101 256.00003"
   version="1.1"
   xml:space="preserve"
   style="clip-rule:evenodd;fill-rule:evenodd;stroke-linejoin:round;stroke-miterlimit:2"
   id="svg2"
   xmlns="http://www.w3.org/2000/svg"
   xmlns:svg="http://www.w3.org/2000/svg"><defs
   id="defs2" />
    <g
   transform="matrix(4,0,0,4,-384,-384.00004)"
   id="g1">
        <path
   d="m 118.58275,97.412509 c 2.976,-0.91875 6.144,-1.4125 9.41725,-1.4125 V 128.00001 H 96 c 0,-3.28225 0.49375,-6.44125 1.4125,-9.42175 3.104,-10.09825 11.072,-18.06625 21.17025,-21.165751 z"
   style="fill:#a2c4b8;fill-rule:nonzero;stroke-width:0.25"
   id="path1" />
    </g>
    <g
   transform="matrix(4,0,0,4,-384,-384.00004)"
   id="g2">
        <path
   d="m 128,144.00001 c 0,4.4205 -1.792,8.4205 -4.68575,11.30975 -1.367,1.3705 -2.97175,2.481 -4.736,3.27775 -2.0675,0.93275 -4.31,1.4145 -6.57825,1.4125 -4.4205,0 -8.4205,-1.792 -11.31425,-4.69025 C 97.792,152.42051 96,148.42051 96,144.00001 c 0,-2.34525 0.5075,-4.5715 1.4125,-6.57825 0.795,-1.764 1.90425,-3.36875 3.27325,-4.736 2.89825,-2.89825 6.89825,-4.68575 11.31425,-4.68575 0,4.4205 1.792,8.4205 4.68575,11.30975 2.89825,2.89825 6.89825,4.69025 11.31425,4.69025 z m 32,-16 H 128 V 96.000009 c 3.27775,0 6.4365,0.49375 9.4125,1.4125 h 0.005 c 10.09825,3.099501 18.06625,11.067501 21.17025,21.165751 0.92325,2.9805 1.4125,6.14425 1.4125,9.42175 z m 0,0 v 16 c 0,4.4205 -1.792,8.4205 -4.68575,11.30975 -2.89825,2.89825 -6.89825,4.69025 -11.31425,4.69025 -2.26825,0.002 -4.51075,-0.47975 -6.57825,-1.4125 -1.76275,-0.799 -3.36725,-1.90925 -4.736,-3.27775 C 129.792,152.42051 128,148.42051 128,144.00001 v -16 z"
   style="fill:#099250;fill-rule:nonzero;stroke-width:0.25"
   id="path2" />
    </g>
</svg>
