<?xml version="1.0" encoding="UTF-8" standalone="no"?>
<svg
   width="128.00009"
   height="196.96056"
   viewBox="0 0 128.00009 196.96056"
   version="1.1"
   xml:space="preserve"
   style="clip-rule:evenodd;fill-rule:evenodd;stroke-linejoin:round;stroke-miterlimit:2"
   id="svg1"
   xmlns="http://www.w3.org/2000/svg"
   xmlns:svg="http://www.w3.org/2000/svg"><defs
   id="defs1" />
    <g
   transform="matrix(4.36557,0,0,4.36557,-1352.9919,-1804.3036)"
   id="g1">
        <path
   d="m 323.28508,453.84866 c -3.85881,-0.14426 -6.8838,-1.0504 -9.0746,-2.7184 -2.19099,-1.66782 -3.62011,-4.16983 -4.28716,-7.50585 l 6.16694,-1.19003 c 0.37872,2.07366 1.14502,3.60645 2.29909,4.59818 1.15406,0.99172 2.7861,1.5778 4.89573,1.75802 v -11.52256 c -0.81131,-0.19831 -1.66801,-0.42816 -2.56952,-0.68975 -0.90171,-0.2614 -1.75822,-0.54087 -2.56953,-0.83843 -0.8115,-0.29755 -1.47874,-0.59953 -2.00172,-0.90613 -1.60473,-0.9196 -2.80842,-2.05577 -3.61088,-3.40815 -0.80246,-1.35237 -1.20369,-3.02942 -1.20369,-5.03095 0,-2.93921 1.02327,-5.21579 3.07001,-6.82975 2.04673,-1.61396 5.00844,-2.50201 8.88533,-2.66416 v -3.5976 h 3.08366 v 3.5976 c 2.236,0.1081 4.13829,0.4597 5.70704,1.05481 1.56895,0.59512 2.86266,1.54626 3.88151,2.85362 1.01884,1.30736 1.80784,3.07001 2.36679,5.28793 l -6.32927,1.00076 c -0.3066,-1.60492 -0.90171,-2.849 -1.78534,-3.73263 -0.88344,-0.88363 -2.16387,-1.4245 -3.84073,-1.623 v 10.35966 c 0.81131,0.16233 1.6859,0.36968 2.62358,0.62204 0.93767,0.25254 1.96556,0.57703 3.08346,0.97384 2.45239,0.88343 4.26023,2.11424 5.42334,3.69204 1.1631,1.5778 1.74456,3.57491 1.74456,5.99113 0,3.17368 -1.0954,5.65761 -3.28639,7.45199 -2.1908,1.79419 -5.38718,2.78149 -9.58855,2.96172 v 4.62529 h -3.08366 z m -5.68011,-27.56234 c 0,0.90171 0.17138,1.64108 0.51394,2.21811 0.37873,0.68513 0.95114,1.2262 1.71763,1.62281 0.7663,0.39681 1.91594,0.82958 3.44854,1.29832 v -9.79146 c -3.78668,0.25235 -5.68011,1.80322 -5.68011,4.65222 z m 15.3906,17.20287 c 0,-0.99172 -0.18484,-1.80322 -0.55452,-2.4343 -0.36969,-0.63128 -0.90614,-1.15407 -1.60935,-1.56895 -0.72129,-0.39662 -2.20907,-0.91056 -4.46296,-1.54164 v 10.84628 c 2.18176,-0.14426 3.83169,-0.66262 4.94978,-1.55529 1.11791,-0.89248 1.67705,-2.14118 1.67705,-3.7461 z"
   style="fill:#003f20;fill-rule:nonzero;stroke-width:0.192344"
   id="path1" />
    </g>
</svg>
