<?xml version="1.0" encoding="UTF-8" standalone="no"?>
<svg
   width="128.00056"
   height="169.41246"
   viewBox="0 0 128.00056 169.41246"
   version="1.1"
   xml:space="preserve"
   style="clip-rule:evenodd;fill-rule:evenodd;stroke-linejoin:round;stroke-miterlimit:2"
   id="svg1"
   xmlns="http://www.w3.org/2000/svg"
   xmlns:svg="http://www.w3.org/2000/svg"><defs
   id="defs1" />
    <g
   transform="matrix(4.06892,0,0,4.06892,-440.14085,-427.29397)"
   id="g1">
        <path
   d="m 139.5473,121.75253 c 0.65465,-4.37495 -2.67669,-6.72687 -7.23197,-8.29576 l 1.47756,-5.92646 -3.60779,-0.89901 -1.43852,5.77028 c -0.94848,-0.23641 -1.9226,-0.45926 -2.8906,-0.68013 l 1.44894,-5.80834 -3.60581,-0.89901 -1.47856,5.92448 c -0.78518,-0.17901 -1.55581,-0.3557 -2.30394,-0.54166 l 0.004,-0.0184 -4.9755,-1.24231 -0.95956,3.85298 c 0,0 2.67685,0.61346 2.6201,0.65135 1.46135,0.3648 1.7254,1.33164 1.68122,2.09813 l -1.6832,6.75153 c 0.10075,0.0256 0.23129,0.0625 0.37505,0.12011 -0.12027,-0.0298 -0.24865,-0.0627 -0.38117,-0.0945 l -2.35921,9.45782 c -0.17901,0.44372 -0.63199,1.10962 -1.65342,0.85683 0.0359,0.0524 -2.62226,-0.65449 -2.62226,-0.65449 l -1.79124,4.12943 4.69491,1.17017 c 0.87354,0.21888 1.72953,0.44802 2.57213,0.66376 l -1.49311,5.99413 3.60365,0.89917 1.47872,-5.9306 c 0.9556,0.25909 1.914,0.50774 2.87506,0.74598 l -1.47343,5.90281 3.60779,0.89901 1.49295,-5.98288 c 6.15213,1.16405 10.77822,0.69452 12.72547,-4.86912 1.56905,-4.47984 -0.0781,-7.06388 -3.31496,-8.74891 2.35722,-0.54348 4.1329,-2.094 4.60657,-5.29646 z m -8.24315,11.55778 c -1.11492,4.47984 -8.65824,2.0581 -11.10381,1.45076 l 1.98117,-7.94122 c 2.44556,0.61032 10.28801,1.81871 9.12264,6.49046 z m 1.1159,-11.62263 c -1.0173,4.075 -7.29566,2.00466 -9.33225,1.49708 l 1.7962,-7.20252 c 2.0366,0.50758 8.59554,1.4549 7.53605,5.70544 z"
   style="fill-rule:nonzero;stroke-width:0.165442"
   id="path1" />
    </g>
</svg>
