<svg xmlns="http://www.w3.org/2000/svg" width="128" height="128" fill="none"><g clip-path="url(#a)"><g clip-path="url(#b)"><path fill="#000" d="M118.061 35.714c-5.002-8.228-11.928-14.528-20.906-18.9C88.177 12.314 77.788 10 66.116 10H17.121v44.743H2.5v16.714h14.622V118h48.994c11.672 0 22.06-2.186 31.039-6.686 8.978-4.5 15.904-10.8 20.906-18.9C123.063 84.314 125.5 74.8 125.5 64s-2.437-20.186-7.439-28.286ZM90.614 88.557c-6.413 5.914-15.007 9-25.78 9H42.132v-26.1h26.934V54.743H42.132V30.57h22.702c10.773 0 19.367 2.958 25.78 9 6.413 6.043 9.619 14.143 9.619 24.429 0 10.286-3.206 18.514-9.62 24.557Z"/></g></g><defs><clipPath id="a"><path fill="#fff" d="M0 0h128v128H0z"/></clipPath><clipPath id="b"><path fill="#fff" d="M0 0h123v108H0z" transform="translate(2.5 10)"/></clipPath></defs></svg>