<svg xmlns="http://www.w3.org/2000/svg" width="128" height="128" fill="none"><g clip-path="url(#a)"><g clip-path="url(#b)"><path fill="#EF4800" d="M127.139 57.297a10.01 10.01 0 0 0-3.387-6.848 9.973 9.973 0 0 0-7.223-2.454h-.389a9.709 9.709 0 0 0-6.396 3.48 9.748 9.748 0 0 0-2.187 6.955v.391a38.87 38.87 0 0 1 0 10.435v.391a48.634 48.634 0 0 1-3.158 11.372 44.278 44.278 0 0 1-13.96 18.007 44.163 44.163 0 0 1-21.052 8.664 44.12 44.12 0 0 1-22.561-2.978 44.224 44.224 0 0 1-18.096-13.83 44.325 44.325 0 0 1-8.827-21.015 44.35 44.35 0 0 1 2.78-22.628A44.268 44.268 0 0 1 36.33 28.997a44.164 44.164 0 0 1 20.9-9.025 48.872 48.872 0 0 1 15.605.391 11.701 11.701 0 0 1 7.688 4.575 11.74 11.74 0 0 1 2.221 8.675 10.707 10.707 0 0 1-4.629 6.526 10.669 10.669 0 0 1-7.852 1.485h-.392a11.989 11.989 0 0 0-2.613-.351h-.35a33.337 33.337 0 0 0-4.294-.195 22.98 22.98 0 0 0-11.925 4.163 23.047 23.047 0 0 0-7.94 9.839 23.101 23.101 0 0 0-1.561 12.557 23.076 23.076 0 0 0 5.287 11.49 23.021 23.021 0 0 0 10.546 6.968 22.975 22.975 0 0 0 12.625.341 23.003 23.003 0 0 0 10.904-6.383 23.072 23.072 0 0 0 5.901-11.187l.545-3.36a53.15 53.15 0 0 0 .198-5.59 29.967 29.967 0 0 1 7.319-19.647 29.866 29.866 0 0 1 18.389-10.017h.583a23.568 23.568 0 0 1 3.707-.196h.937A64.258 64.258 0 0 0 94.874 8.04 64.127 64.127 0 0 0 63.901 0a64.891 64.891 0 0 0-45.343 19.526A65.14 65.14 0 0 0 0 65.348a64.326 64.326 0 0 0 14.926 39.627 64.111 64.111 0 0 0 36.296 21.713 64.03 64.03 0 0 0 41.899-5.635 64.203 64.203 0 0 0 29.297-30.536l.198-.351A68.562 68.562 0 0 0 128 68.317c-.117-4.103-.51-7.464-.861-11.02Z"/></g></g><defs><clipPath id="a"><path fill="#fff" d="M0 0h128v128H0z"/></clipPath><clipPath id="b"><rect width="128" height="128" fill="#fff" rx="64"/></clipPath></defs></svg>