<?xml version="1.0" encoding="UTF-8" standalone="no"?>
<svg
   width="127.99928"
   height="127.99793"
   viewBox="0 0 127.99928 127.99793"
   version="1.1"
   xml:space="preserve"
   style="clip-rule:evenodd;fill-rule:evenodd;stroke-linejoin:round;stroke-miterlimit:2"
   id="svg5"
   xmlns="http://www.w3.org/2000/svg"
   xmlns:svg="http://www.w3.org/2000/svg"><defs
   id="defs5" />
    <g
   transform="matrix(4,0,0,4,64.001914,64.00188)"
   id="g5">
        <g
   transform="translate(-128,-128)"
   id="g4">
            <g
   id="g3">
                <clipPath
   id="_clip1">
                    <rect
   x="0"
   y="0"
   width="256"
   height="256"
   id="rect1" />
                </clipPath>
                <g
   clip-path="url(#_clip1)"
   id="g2">
                    <g
   id="g1">
                        <path
   d="m 143.78404,126.32343 c -0.0449,-0.65987 -0.3495,-1.27561 -0.84674,-1.71173 -0.49662,-0.43562 -1.14649,-0.65649 -1.80573,-0.61362 h -0.0971 c -0.62549,0.0715 -1.19924,0.3835 -1.59911,0.86974 -0.40024,0.48687 -0.59637,1.11062 -0.54674,1.73899 v 0.0979 c 0.11737,0.86562 0.11737,1.74298 0,2.6086 v 0.0979 c -0.14675,0.97624 -0.41187,1.93098 -0.78962,2.84298 -0.75049,1.77923 -1.9536,3.33134 -3.48959,4.5017 -1.53486,1.16936 -3.34972,1.91636 -5.26307,2.16598 -1.91273,0.24925 -3.85784,-0.008 -5.64032,-0.74474 -1.78386,-0.73762 -3.34385,-1.92986 -4.52396,-3.45747 -1.18086,-1.52873 -1.94185,-3.34009 -2.20685,-5.25357 -0.265,-1.91386 -0.0252,-3.86409 0.69537,-5.65682 0.71974,-1.79186 1.89598,-3.36447 3.41146,-4.56108 1.51449,-1.19574 3.31622,-1.97373 5.22508,-2.25623 1.29723,-0.17662 2.61435,-0.1435 3.90108,0.0979 0.7665,0.11163 1.45824,0.52312 1.92198,1.14362 0.46425,0.62087 0.664,1.40111 0.55525,2.16873 -0.16025,0.67274 -0.57524,1.25798 -1.15711,1.63173 -0.58137,0.37325 -1.28549,0.5065 -1.96298,0.37125 h -0.0981 c -0.21387,-0.0533 -0.43299,-0.0828 -0.65337,-0.0879 h -0.0876 c -0.35637,-0.0394 -0.71487,-0.0556 -1.07337,-0.0488 -1.07124,0.0616 -2.10423,0.42212 -2.98109,1.04062 -0.87787,0.61887 -1.56549,1.47098 -1.98486,2.45985 -0.41974,0.98961 -0.55499,2.07698 -0.39049,3.13922 0.16449,1.06186 0.62249,2.05685 1.32198,2.87247 0.699,0.81512 1.61236,1.41861 2.63635,1.74186 1.02337,0.32274 2.11698,0.35237 3.15635,0.0854 1.03974,-0.267 1.9841,-0.81999 2.72584,-1.59586 0.74262,-0.77649 1.25362,-1.74523 1.47524,-2.79659 l 0.13625,-0.84012 c 0.0408,-0.46462 0.0577,-0.93112 0.0495,-1.39736 -0.001,-1.80361 0.64862,-3.54847 1.82961,-4.91158 1.17961,-1.36186 2.81334,-2.25185 4.59733,-2.50435 h 0.14574 c 0.30713,-0.0408 0.617,-0.0571 0.92675,-0.0491 h 0.23424 c -1.44236,-2.2956 -3.44246,-4.1892 -5.81357,-5.50369 -2.3696,-1.31336 -5.03395,-2.00486 -7.74317,-2.00973 -4.27258,0.0701 -8.34904,1.82561 -11.33576,4.88158 -2.9906,3.05934 -4.65833,7.17718 -4.63946,11.45526 0.0901,3.62796 1.40574,7.1208 3.73159,9.90665 2.32298,2.78322 5.52295,4.69758 9.07379,5.4282 3.54971,0.72974 7.24405,0.23287 10.47477,-1.40874 3.23322,-1.64348 5.81582,-4.33546 7.32405,-7.63392 l 0.0496,-0.0877 c 0.74649,-1.73411 1.20124,-3.57984 1.34586,-5.4622 -0.0292,-1.02586 -0.1275,-1.86598 -0.21525,-2.7551 z"
   style="fill:#ef4800;fill-rule:nonzero;stroke-width:0.124999"
   id="path1" />
                    </g>
                </g>
            </g>
        </g>
    </g>
</svg>
