<?xml version="1.0" encoding="UTF-8" standalone="no"?>
<svg
   width="128.00023"
   height="127.99887"
   viewBox="0 0 128.00023 127.99887"
   version="1.1"
   xml:space="preserve"
   style="clip-rule:evenodd;fill-rule:evenodd;stroke-linejoin:round;stroke-miterlimit:2"
   id="svg1"
   xmlns="http://www.w3.org/2000/svg"
   xmlns:svg="http://www.w3.org/2000/svg"><defs
   id="defs1" />
    <g
   transform="matrix(3.99999,0,0,3.99999,-447.99633,-447.99656)"
   id="g1">
        <path
   d="m 143.7842,126.32342 c -0.0449,-0.65988 -0.3495,-1.27563 -0.84675,-1.71175 -0.49663,-0.43563 -1.1465,-0.6565 -1.80575,-0.61363 h -0.0971 c -0.6255,0.0715 -1.19925,0.3835 -1.59912,0.86975 -0.40025,0.48688 -0.59638,1.11063 -0.54675,1.739 v 0.0979 c 0.11737,0.86562 0.11737,1.743 0,2.60862 v 0.0979 c -0.14675,0.97625 -0.41188,1.931 -0.78963,2.843 -0.7505,1.77925 -1.95362,3.33137 -3.48962,4.50175 -1.53488,1.16937 -3.34975,1.91637 -5.26313,2.166 -1.91275,0.24925 -3.85787,-0.008 -5.64037,-0.74475 -1.78388,-0.73763 -3.34388,-1.92988 -4.524,-3.4575 -1.18088,-1.52875 -1.94188,-3.34013 -2.20688,-5.25363 -0.265,-1.91387 -0.0252,-3.86412 0.69538,-5.65687 0.71975,-1.79188 1.896,-3.3645 3.4115,-4.56113 1.5145,-1.19575 3.31625,-1.97375 5.22512,-2.25625 1.29725,-0.17662 2.61438,-0.1435 3.90113,0.0979 0.7665,0.11162 1.45825,0.52312 1.922,1.14362 0.46425,0.62088 0.664,1.40113 0.55525,2.16875 -0.16025,0.67275 -0.57525,1.258 -1.15713,1.63175 -0.58137,0.37325 -1.2855,0.5065 -1.963,0.37125 h -0.0981 c -0.21388,-0.0533 -0.433,-0.0828 -0.65338,-0.0879 h -0.0876 c -0.35638,-0.0394 -0.71488,-0.0556 -1.07338,-0.0487 -1.07125,0.0616 -2.10425,0.42212 -2.98112,1.04062 -0.87788,0.61888 -1.5655,1.471 -1.98488,2.45988 -0.41975,0.98962 -0.555,2.077 -0.3905,3.13925 0.1645,1.06187 0.6225,2.05687 1.322,2.8725 0.699,0.81512 1.61238,1.41862 2.63638,1.74187 1.02337,0.32275 2.117,0.35238 3.15637,0.0854 1.03975,-0.267 1.98413,-0.82 2.72588,-1.59588 0.74262,-0.7765 1.25362,-1.74525 1.47525,-2.79662 l 0.13625,-0.84013 c 0.0408,-0.46462 0.0577,-0.93112 0.0495,-1.39737 -0.001,-1.80363 0.64862,-3.5485 1.82962,-4.91163 1.17963,-1.36187 2.81338,-2.25187 4.59738,-2.50437 h 0.14575 c 0.30712,-0.0408 0.617,-0.0571 0.92675,-0.0491 h 0.23425 c -1.44238,-2.29562 -3.4425,-4.18925 -5.81363,-5.50375 -2.36962,-1.31337 -5.034,-2.00487 -7.74325,-2.00975 -4.27262,0.0701 -8.34912,1.82563 -11.33587,4.88163 -2.99063,3.05937 -4.65838,7.17725 -4.6395,11.45537 0.0901,3.628 1.40575,7.12088 3.73162,9.90675 2.323,2.78325 5.523,4.69763 9.07388,5.42825 3.54975,0.72975 7.24412,0.23288 10.47487,-1.40875 3.23325,-1.6435 5.81588,-4.3355 7.32413,-7.634 l 0.0496,-0.0877 c 0.7465,-1.73412 1.20125,-3.57987 1.34588,-5.46225 -0.0292,-1.02587 -0.1275,-1.866 -0.21525,-2.75512 z"
   style="fill:#46b549;fill-rule:nonzero;stroke-width:0.125"
   id="path1" />
    </g>
</svg>
