<?xml version="1.0" encoding="UTF-8" standalone="no"?>
<!DOCTYPE svg PUBLIC "-//W3C//DTD SVG 1.1//EN" "http://www.w3.org/Graphics/SVG/1.1/DTD/svg11.dtd">
<svg width="100%" height="100%" viewBox="0 0 1024 1024" version="1.1" xmlns="http://www.w3.org/2000/svg" xmlns:xlink="http://www.w3.org/1999/xlink" xml:space="preserve" xmlns:serif="http://www.serif.com/" style="fill-rule:evenodd;clip-rule:evenodd;stroke-linejoin:round;stroke-miterlimit:2;">
    <g transform="matrix(3.99998,0,0,3.99998,2.27374e-13,2.00198)">
        <path d="M232.857,120.67C233.261,120.069 233.644,119.457 234.028,118.835C241.157,107.302 244.661,93.913 244.661,80.385L244.661,79.672C244.661,65.11 240.581,50.759 232.423,38.664C220.326,20.722 200.575,8.307 177.806,6L105.599,6C102.853,5.993 100.214,7.08 98.269,9.019C96.323,10.94 95.227,13.564 95.229,16.299L95.229,49.084C95.229,51.932 96.39,54.51 98.269,56.365C100.214,58.304 102.853,59.391 105.599,59.384L170.667,59.384C181.834,59.384 190.882,68.39 190.882,79.462L190.882,80.525C190.882,91.617 181.834,100.603 170.667,100.603L64.129,100.603C61.383,100.608 58.744,99.521 56.798,97.583C54.854,95.661 53.758,93.037 53.758,90.303L53.758,16.3C53.758,13.451 52.598,10.874 50.719,9.019C48.774,7.082 46.136,5.995 43.39,6L10.37,6C4.645,6 0,10.613 0,16.3L0,238.7C0,241.528 1.161,244.116 3.04,245.981C4.984,247.92 7.624,249.007 10.37,249L43.38,249C46.247,249 48.832,247.847 50.71,245.981C52.655,244.059 53.75,241.435 53.75,238.7L53.75,164.697C53.75,159.011 58.394,154.397 64.12,154.397L170.143,154.397C171.9,154.397 173.616,154.317 175.333,154.207L182.037,154.207C193.185,154.207 202.252,163.193 202.252,174.285L202.252,175.328C202.252,186.42 193.185,195.406 182.037,195.406L105.953,195.406C105.842,195.386 105.711,195.386 105.6,195.386C105.489,195.386 105.358,195.386 105.246,195.406C102.622,195.477 100.123,196.555 98.269,198.414C96.322,200.339 95.227,202.967 95.229,205.705L95.229,238.7C95.229,241.528 96.391,244.116 98.269,245.981C100.214,247.921 102.853,249.008 105.6,249L186.783,249C207.988,247.536 226.769,237.296 239.451,221.912C250.357,208.694 256.001,191.956 256.001,174.866L256.001,174.726C256.001,158.068 250.649,141.741 240.239,128.683C237.969,125.837 235.495,123.159 232.838,120.67L232.858,120.67L232.857,120.67Z" style="fill:rgb(0,0,48);fill-rule:nonzero;"/>
    </g>
</svg>
