<?xml version="1.0" encoding="UTF-8" standalone="no"?>
<!DOCTYPE svg PUBLIC "-//W3C//DTD SVG 1.1//EN" "http://www.w3.org/Graphics/SVG/1.1/DTD/svg11.dtd">
<svg width="100%" height="100%" viewBox="0 0 1024 1024" version="1.1" xmlns="http://www.w3.org/2000/svg" xmlns:xlink="http://www.w3.org/1999/xlink" xml:space="preserve" xmlns:serif="http://www.serif.com/" style="fill-rule:evenodd;clip-rule:evenodd;stroke-linejoin:round;stroke-miterlimit:2;">
    <g transform="matrix(4.06892,0,0,4.06892,15.7943,1.13687e-13)">
        <path d="M218.492,101.174C222.448,74.73 202.312,60.514 174.779,51.031L183.71,15.209L161.903,9.775L153.208,44.653C147.475,43.224 141.587,41.877 135.736,40.542L144.493,5.434L122.699,0L113.761,35.81C109.016,34.728 104.358,33.66 99.836,32.536L99.861,32.425L69.787,24.916L63.986,48.205C63.986,48.205 80.166,51.913 79.824,52.142C88.656,54.347 90.252,60.191 89.985,64.824L79.812,105.633C80.42,105.788 81.209,106.011 82.079,106.359C81.352,106.179 80.576,105.98 79.774,105.788L65.514,162.955C64.433,165.637 61.694,169.662 55.52,168.134C55.738,168.451 39.67,164.178 39.67,164.178L28.844,189.138L57.222,196.211C62.502,197.534 67.675,198.919 72.768,200.223L63.744,236.454L85.526,241.889L94.464,206.042C100.24,207.608 106.033,209.111 111.842,210.551L102.935,246.23L124.742,251.664L133.767,215.501C170.953,222.537 198.915,219.699 210.685,186.07C220.169,158.992 210.213,143.373 190.648,133.188C204.896,129.903 215.629,120.531 218.492,101.174ZM168.667,171.034C161.928,198.112 116.333,183.474 101.55,179.803L113.525,131.803C128.308,135.492 175.71,142.796 168.667,171.034ZM175.412,100.782C169.263,125.413 131.314,112.899 119.003,109.831L129.86,66.296C142.171,69.364 181.816,75.09 175.412,100.782Z" style="fill:rgb(247,147,26);fill-rule:nonzero;"/>
    </g>
</svg>
