<?xml version="1.0" encoding="UTF-8" standalone="no"?>
<!DOCTYPE svg PUBLIC "-//W3C//DTD SVG 1.1//EN" "http://www.w3.org/Graphics/SVG/1.1/DTD/svg11.dtd">
<svg width="100%" height="100%" viewBox="0 0 1024 1024" version="1.1" xmlns="http://www.w3.org/2000/svg" xmlns:xlink="http://www.w3.org/1999/xlink" xml:space="preserve" xmlns:serif="http://www.serif.com/" style="fill-rule:evenodd;clip-rule:evenodd;stroke-linejoin:round;stroke-miterlimit:2;">
    <g transform="matrix(4.96711,0,0,4.96711,-579.185,-1312.13)">
        <path d="M207.307,470.32L207.307,424.617L148.948,424.617L148.948,405.07L207.307,405.07L207.307,384.961L148.948,384.961L148.948,364.148L196.901,364.148L139.807,264.164L167.932,264.164L208.714,336.726C213.307,344.976 216.87,352.195 219.401,358.382C221.557,353.414 225.401,345.773 230.932,335.461L269.464,264.164L299.557,264.164L242.604,364.148L290.557,364.148L290.557,384.961L232.62,384.961L232.62,405.07L290.557,405.07L290.557,424.617L232.62,424.617L232.62,470.32L207.307,470.32Z" style="fill:rgb(0,63,32);fill-rule:nonzero;"/>
    </g>
</svg>
