<?xml version="1.0" encoding="UTF-8" standalone="no"?>
<!DOCTYPE svg PUBLIC "-//W3C//DTD SVG 1.1//EN" "http://www.w3.org/Graphics/SVG/1.1/DTD/svg11.dtd">
<svg width="100%" height="100%" viewBox="0 0 1024 1024" version="1.1" xmlns="http://www.w3.org/2000/svg" xmlns:xlink="http://www.w3.org/1999/xlink" xml:space="preserve" xmlns:serif="http://www.serif.com/" style="fill-rule:evenodd;clip-rule:evenodd;stroke-linejoin:round;stroke-miterlimit:2;">
    <g transform="matrix(0.512,0,0,0.512,0,0)">
        <path d="M1574.39,1673.38C1595.79,1694.78 1606.52,1724.67 1603.63,1754.79C1600.75,1784.91 1584.52,1812.21 1559.45,1829.14C1399.6,1936.9 1207.11,2000 1000,2000C792.887,2000 600.396,1936.9 440.722,1828.89C415.721,1812.01 399.546,1784.79 396.667,1754.76C393.785,1724.73 404.489,1694.93 425.823,1673.6C425.615,1673.38 425.619,1673.38 425.622,1673.37C470.405,1628.59 540.105,1620.49 593.964,1653.81C711.744,1727.56 850.955,1770 1000,1770C1149.05,1770 1288.26,1727.56 1406.22,1654.1C1459.94,1620.87 1529.46,1628.95 1574.13,1673.62C1574.38,1673.38 1574.38,1673.38 1574.39,1673.38ZM1673.38,425.611C1694.78,404.214 1724.67,393.478 1754.79,396.367C1784.91,399.254 1812.21,415.477 1829.14,440.553C1936.9,600.396 2000,792.887 2000,1000C2000,1207.11 1936.9,1399.6 1828.89,1559.28C1812.01,1584.28 1784.79,1600.45 1754.76,1603.33C1724.73,1606.22 1694.93,1595.51 1673.6,1574.18C1673.38,1574.38 1673.38,1574.38 1673.37,1574.38C1628.59,1529.6 1620.49,1459.89 1653.81,1406.04C1727.56,1288.26 1770,1149.05 1770,1000C1770,850.955 1727.56,711.744 1654.1,593.781C1620.87,540.059 1628.95,470.538 1673.62,425.872C1673.38,425.619 1673.38,425.615 1673.38,425.611ZM171.105,440.722C189.891,412.912 221.339,396.205 254.9,396.205C281.709,396.205 307.447,406.866 326.404,425.823C326.62,425.615 326.624,425.619 326.628,425.622C371.407,470.405 379.508,540.105 346.193,593.964C272.438,711.744 230,850.955 230,1000C230,1149.05 272.438,1288.26 345.898,1406.22C379.127,1459.94 371.045,1529.46 326.378,1574.13C326.624,1574.38 326.62,1574.38 326.616,1574.39C305.22,1595.79 275.334,1606.52 245.214,1603.63C215.094,1600.74 187.793,1584.52 170.855,1559.45C63.1,1399.6 0,1207.11 0,1000C0,792.887 63.1,600.396 171.105,440.722ZM1000,370C1347.71,370 1630,652.294 1630,1000C1630,1347.71 1347.71,1630 1000,1630C652.294,1630 370,1347.71 370,1000C370,652.294 652.294,370 1000,370ZM425.611,326.616C406.597,307.603 395.903,281.788 395.903,254.898C395.903,221.238 412.66,189.697 440.553,170.855C600.396,63.1 792.887,0 1000,0C1207.11,0 1399.6,63.1 1559.28,171.105C1584.28,187.994 1600.45,215.213 1603.33,245.243C1606.21,275.273 1595.51,305.071 1574.18,326.404C1574.38,326.62 1574.38,326.624 1574.38,326.628C1529.6,371.407 1459.89,379.508 1406.04,346.193C1288.26,272.438 1149.05,230 1000,230C850.955,230 711.744,272.438 593.781,345.898C540.059,379.127 470.538,371.045 425.872,326.378C425.619,326.624 425.615,326.62 425.611,326.616Z" style="fill:rgb(32,142,122);"/>
    </g>
    <g transform="matrix(4,0,0,4,0,0)">
        <path d="M95.614,150.485C93.829,150.485 92.36,151.954 92.36,153.739L92.36,162.396C92.36,164.181 93.829,165.65 95.614,165.65L119.372,165.65L119.372,187.617C119.372,189.403 120.841,190.872 122.627,190.872L133.074,190.872C134.86,190.872 136.329,189.403 136.329,187.617L136.329,165.65L160.386,165.65C162.171,165.65 163.64,164.181 163.64,162.396L163.64,153.739C163.64,151.954 162.171,150.485 160.386,150.485L95.614,150.485ZM160.46,139.722C162.246,139.722 163.715,138.253 163.715,136.467L163.715,127.96C163.715,126.175 162.246,124.706 160.461,124.706C160.461,124.706 160.46,124.706 160.46,124.706L140.072,124.706L167.621,75.985C168.19,74.978 168.182,73.741 167.6,72.742C167.017,71.744 165.944,71.128 164.788,71.128L152.7,71.128C151.527,71.128 150.442,71.761 149.865,72.782L127.943,111.609L106.292,72.797C105.718,71.768 104.628,71.128 103.45,71.128L91.212,71.128C91.211,71.128 91.21,71.128 91.208,71.128C89.424,71.128 87.955,72.596 87.955,74.381C87.955,74.941 88.1,75.491 88.375,75.979L115.793,124.706L95.689,124.706C93.904,124.706 92.435,126.175 92.434,127.96L92.434,136.467C92.434,138.253 93.903,139.722 95.689,139.722L160.46,139.722Z" style="fill:white;fill-rule:nonzero;"/>
    </g>
</svg>
