<?xml version="1.0" encoding="UTF-8" standalone="no"?>
<!DOCTYPE svg PUBLIC "-//W3C//DTD SVG 1.1//EN" "http://www.w3.org/Graphics/SVG/1.1/DTD/svg11.dtd">
<svg width="100%" height="100%" viewBox="0 0 1024 1024" version="1.1" xmlns="http://www.w3.org/2000/svg" xmlns:xlink="http://www.w3.org/1999/xlink" xml:space="preserve" xmlns:serif="http://www.serif.com/" style="fill-rule:evenodd;clip-rule:evenodd;stroke-linejoin:round;stroke-miterlimit:2;">
    <g transform="matrix(4,0,0,4,87.9995,0)">
        <path d="M212,51.199L212,0L106,0L106,51.199L159,51.199C158.784,64.984 153.078,78.128 143.156,87.699C133.218,97.298 119.854,102.583 106,102.396L106,51.199C78.298,50.847 51.586,61.425 31.717,80.619C11.847,99.813 0.442,126.055 0,153.595C0.442,181.134 11.848,207.376 31.717,226.57C51.586,245.764 78.298,256.342 106,255.99C133.709,256.366 160.435,245.795 180.309,226.596C200.183,207.397 211.581,181.141 212,153.595L159,153.595C158.908,160.421 157.463,167.161 154.749,173.425C152.03,179.698 148.098,185.373 143.179,190.122C138.251,194.881 132.434,198.625 126.06,201.138C119.677,203.656 112.861,204.899 106,204.794C92.146,204.981 78.784,199.694 68.847,190.094C58.909,180.495 53.209,167.368 53,153.595C53.21,139.821 58.91,126.694 68.847,117.095C78.784,107.496 92.145,102.208 106,102.396L106,153.595C133.702,153.947 160.414,143.366 180.283,124.172C200.152,104.979 211.558,78.738 212,51.199Z" style="fill:rgb(239,97,0);fill-rule:nonzero;"/>
    </g>
</svg>
