<?xml version="1.0" encoding="UTF-8" standalone="no"?>
<!DOCTYPE svg PUBLIC "-//W3C//DTD SVG 1.1//EN" "http://www.w3.org/Graphics/SVG/1.1/DTD/svg11.dtd">
<svg width="100%" height="100%" viewBox="0 0 1024 1024" version="1.1" xmlns="http://www.w3.org/2000/svg" xmlns:xlink="http://www.w3.org/1999/xlink" xml:space="preserve" xmlns:serif="http://www.serif.com/" style="fill-rule:evenodd;clip-rule:evenodd;stroke-linejoin:round;stroke-miterlimit:2;">
    <g transform="matrix(0.999959,0,0,0.999959,71.1221,0.0629966)">
        <g transform="matrix(3.9987,0,0,3.9987,-38.875,0.251891)">
            <path d="M224.599,211.715C223.746,210.699 222.698,209.863 221.518,209.256C220.338,208.647 219.052,208.272 217.73,208.153C215.062,207.92 212.408,208.762 210.362,210.49C210.098,210.707 209.834,210.924 209.58,211.14C209.391,211.301 209.203,211.451 209.014,211.602C206.084,213.988 203.03,216.218 199.865,218.283L199.451,218.556C198.753,219.008 198.056,219.451 197.349,219.875C197.18,219.979 197.029,220.073 196.869,220.167C196.709,220.261 196.558,220.356 196.407,220.45L196.134,220.619L195.644,220.912C195.484,221.006 195.333,221.1 195.173,221.185C193.304,222.272 191.403,223.303 189.472,224.275L188.992,224.52L188.323,224.86L187.446,225.284L187.38,225.321C187.088,225.463 186.796,225.595 186.504,225.736L185.835,226.047L185.402,226.245C185.176,226.348 184.94,226.452 184.714,226.556C184.412,226.688 184.101,226.829 183.79,226.961C183.169,227.234 182.537,227.498 181.906,227.752C181.586,227.884 181.265,228.016 180.945,228.139C180.332,228.384 179.711,228.629 179.089,228.864L179.07,228.864C178.457,229.1 177.835,229.326 177.214,229.543L177.091,229.59C176.799,229.693 176.507,229.797 176.205,229.901C175.894,230.004 175.583,230.108 175.282,230.221L174.349,230.522C174.262,230.552 174.174,230.581 174.085,230.607L173.482,230.796L172.983,230.956C172.474,231.116 171.975,231.267 171.466,231.418L171.127,231.521C170.919,231.578 170.712,231.644 170.505,231.7L169.789,231.898L169.214,232.058L168.837,232.162L168.356,232.285C167.819,232.426 167.273,232.567 166.726,232.699C166.594,232.737 166.453,232.765 166.321,232.803C166.133,232.85 165.935,232.897 165.737,232.944L165.256,233.057C165.219,233.067 165.172,233.076 165.134,233.085C164.889,233.142 164.634,233.198 164.39,233.255C163.937,233.359 163.485,233.453 163.023,233.547C162.59,233.641 162.156,233.726 161.732,233.811L160.677,234.009L160.027,234.122C159.81,234.16 159.641,234.197 159.443,234.226L158.604,234.367L157.784,234.499L157.681,234.518C157.341,234.565 157.012,234.621 156.682,234.668C156.352,234.715 156.032,234.763 155.721,234.8L155.514,234.829L154.722,234.932L154.665,234.932C154.439,234.96 154.223,234.989 154.006,235.017L153.422,235.083C152.847,235.149 152.263,235.215 151.679,235.271L151.537,235.271C151.349,235.309 151.151,235.328 150.962,235.347L150.463,235.394C150.265,235.413 150.067,235.432 149.869,235.441L149.276,235.488C148.494,235.545 147.702,235.601 146.92,235.648L145.874,235.705L145.281,235.724C145.13,235.725 144.979,235.732 144.828,235.743L144.254,235.761L143.669,235.761C143.472,235.771 143.274,235.79 143.076,235.79L142.869,235.79C142.539,235.79 142.209,235.799 141.889,235.799L139.75,235.799C128.601,235.667 117.54,233.811 106.959,230.296C106.582,230.164 106.196,230.042 105.819,229.91C105.631,229.844 105.442,229.778 105.263,229.712C105.084,229.646 104.886,229.58 104.707,229.514C104.404,229.409 104.103,229.299 103.803,229.184L103.426,229.043C103.087,228.921 102.747,228.789 102.418,228.666L102.248,228.6C102.116,228.553 101.984,228.497 101.862,228.45L101.73,228.393L101.626,228.355L101.4,228.271L101.193,228.186L101.146,228.186L101.051,228.139L100.627,227.969L100.081,227.743C99.779,227.62 99.478,227.498 99.176,227.366L99.129,227.366L98.526,227.102L97.82,226.791C78.909,218.465 62.766,204.906 51.3,187.716C51.213,187.594 51.132,187.468 51.056,187.339C39.479,169.725 33.285,149.112 33.238,128.034L33.238,126.432C33.238,126.027 33.257,125.622 33.266,125.217L33.266,125.122C33.594,113.087 35.934,101.191 40.191,89.929C40.342,89.534 40.493,89.147 40.644,88.751C40.776,88.403 40.917,88.054 41.058,87.706L41.35,86.999C41.51,86.613 41.67,86.226 41.84,85.839C42.02,85.416 42.208,84.992 42.396,84.568C42.406,84.54 42.425,84.511 42.434,84.483C42.447,84.444 42.463,84.407 42.481,84.37L42.877,83.494C42.877,83.494 42.877,83.474 42.887,83.466C43.009,83.192 43.131,82.928 43.254,82.665C43.292,82.589 43.32,82.505 43.357,82.429L43.414,82.297C43.47,82.165 43.536,82.033 43.602,81.911C43.64,81.826 43.678,81.741 43.716,81.666L43.829,81.421L43.857,81.364L43.932,81.214C44.074,80.912 44.224,80.611 44.375,80.309C44.403,80.262 44.422,80.205 44.45,80.159C44.648,79.762 44.846,79.367 45.044,78.98C45.185,78.707 45.327,78.424 45.468,78.151L45.562,77.981C45.562,77.981 45.562,77.963 45.572,77.953C45.572,77.953 45.572,77.934 45.582,77.934C45.666,77.764 45.751,77.614 45.836,77.454C45.864,77.397 45.902,77.341 45.93,77.284L46.118,76.936C46.175,76.823 46.241,76.709 46.298,76.596L46.335,76.53L46.41,76.399C46.514,76.191 46.627,75.993 46.73,75.796C50.092,69.713 54.04,63.972 58.518,58.656C58.594,58.562 58.678,58.468 58.744,58.373C60.366,56.288 61.107,53.648 60.808,51.023C60.184,45.592 55.263,41.6 49.82,42.11C47.188,42.359 44.756,43.628 43.046,45.644C39.277,50.116 35.821,54.841 32.7,59.787L32.624,59.9C32.351,60.333 32.087,60.767 31.814,61.19C31.672,61.417 31.541,61.643 31.399,61.879C27.261,68.723 23.775,75.941 20.987,83.437C19.594,87.18 18.38,90.988 17.35,94.847C17.332,94.914 17.313,94.98 17.294,95.055C17.2,95.395 17.114,95.743 17.021,96.092C16.992,96.186 16.973,96.28 16.945,96.384C16.898,96.563 16.851,96.751 16.804,96.94L16.662,97.496C16.568,97.863 16.484,98.231 16.399,98.607C16.399,98.636 16.379,98.673 16.379,98.702C16.37,98.758 16.352,98.805 16.342,98.862L16.342,98.9C16.286,99.135 16.229,99.37 16.172,99.597C16.154,99.663 16.144,99.729 16.125,99.785C12.477,115.888 11.981,132.547 14.665,148.839C14.684,148.961 14.703,149.093 14.731,149.225C17.498,165.805 23.515,181.676 32.436,195.923C32.586,196.159 32.737,196.404 32.888,196.639L33.312,197.299C33.453,197.525 33.595,197.742 33.736,197.958C33.943,198.279 34.151,198.59 34.358,198.91C34.48,199.098 34.603,199.277 34.725,199.456C34.772,199.532 34.829,199.607 34.876,199.683C35.083,199.994 35.3,200.305 35.516,200.615C35.564,200.681 35.611,200.747 35.649,200.813C35.668,200.851 35.696,200.879 35.715,200.917L35.79,201.021C36.262,201.708 36.743,202.39 37.232,203.065C37.496,203.433 37.769,203.81 38.042,204.177C38.268,204.488 38.494,204.79 38.712,205.091C38.815,205.232 38.918,205.374 39.032,205.515L39.569,206.222C39.682,206.363 39.785,206.514 39.908,206.655C40.078,206.881 40.256,207.098 40.426,207.324C40.52,207.447 40.614,207.569 40.709,207.682C40.897,207.927 41.095,208.163 41.284,208.408C41.406,208.559 41.519,208.709 41.642,208.851C41.812,209.058 41.981,209.275 42.16,209.482C42.282,209.633 42.405,209.774 42.527,209.915C42.697,210.132 42.885,210.339 43.064,210.556C43.187,210.707 43.319,210.858 43.451,211.008C43.621,211.216 43.799,211.423 43.978,211.63C44.261,211.97 44.553,212.299 44.845,212.62C45.137,212.95 45.458,213.308 45.769,213.656C46.079,213.995 46.409,214.372 46.739,214.721C47.069,215.079 47.389,215.428 47.719,215.776C48.049,216.125 48.379,216.474 48.718,216.822C55.67,224.054 63.457,230.434 71.916,235.827L72.114,235.95L72.792,236.374C85.507,244.386 99.536,250.093 114.233,253.231L114.911,253.372L115.533,253.495C115.976,253.579 116.409,253.674 116.852,253.758C117.069,253.805 117.295,253.843 117.512,253.881L117.851,253.937L118.19,253.994L118.887,254.116L119.057,254.145L119.302,254.192C119.556,254.239 119.811,254.277 120.074,254.324L121.007,254.474L121.95,254.616L122.892,254.757C123.203,254.804 123.523,254.842 123.834,254.889L124.776,255.012L125.37,255.087L125.982,255.162C126.161,255.181 126.35,255.209 126.529,255.228C126.915,255.275 127.292,255.313 127.678,255.351L128.508,255.436L129.007,255.483L129.704,255.549C131.375,255.702 133.05,255.818 134.726,255.897C135.511,255.938 136.296,255.97 137.082,255.992L137.393,255.992L138.825,256.02L142.5,256.02C142.99,256.02 143.471,256.001 143.961,255.992L144.064,255.992C144.564,255.982 145.054,255.963 145.553,255.944L146.316,255.916L147.079,255.878C147.541,255.86 148.012,255.831 148.474,255.803C149.162,255.765 149.84,255.718 150.528,255.671C152.047,255.552 153.564,255.411 155.079,255.247C155.352,255.219 155.626,255.181 155.908,255.153C156.191,255.125 156.464,255.087 156.737,255.049L157.058,255.012C157.322,254.983 157.585,254.946 157.84,254.908C158.16,254.87 158.49,254.823 158.81,254.776L158.999,254.748C159.366,254.691 159.734,254.644 160.111,254.578L160.243,254.559L160.959,254.446L161.637,254.333L162.042,254.267L162.108,254.267C162.627,254.173 163.135,254.088 163.654,253.994L163.748,253.975L164.652,253.805C179.696,250.996 194.112,245.497 207.204,237.571C207.44,237.429 207.666,237.288 207.902,237.146C208.916,236.524 209.922,235.886 210.917,235.234C215.268,232.387 219.443,229.282 223.421,225.934C225.464,224.208 226.739,221.739 226.963,219.074C227.189,216.411 226.352,213.764 224.636,211.715L224.598,211.715L224.599,211.715Z" style="fill:rgb(16,102,223);fill-rule:nonzero;"/>
        </g>
        <g transform="matrix(3.9987,0,0,3.9987,-38.875,0.251891)">
            <path d="M81.838,36.127C83.62,36.129 85.37,35.654 86.907,34.751C88.907,33.59 90.943,32.494 93.013,31.463C94.335,30.807 95.67,30.179 97.017,29.578C97.244,29.474 97.47,29.38 97.696,29.276C97.846,29.211 97.997,29.145 98.158,29.079C98.459,28.947 98.751,28.824 99.053,28.692L99.722,28.41C100.176,28.22 100.631,28.035 101.088,27.854L101.606,27.646L102.464,27.307C102.671,27.222 102.878,27.147 103.085,27.072C104.065,26.704 105.045,26.356 106.044,26.016L106.628,25.819C107.793,25.428 108.965,25.057 110.143,24.707L110.727,24.537C112.251,24.096 113.784,23.687 115.325,23.312L115.834,23.19L116.428,23.048L116.833,22.954L117.266,22.85C117.549,22.784 117.841,22.718 118.124,22.662C118.557,22.568 118.991,22.474 119.433,22.389L120.159,22.247C121.139,22.059 122.119,21.88 123.099,21.71C123.57,21.635 124.05,21.55 124.522,21.484C125.002,21.409 125.483,21.343 125.982,21.267L126.086,21.249C126.783,21.153 127.48,21.061 128.178,20.975L129.647,20.805C130.137,20.749 130.627,20.702 131.117,20.665C131.607,20.617 132.097,20.58 132.597,20.542C132.908,20.523 133.219,20.495 133.52,20.476L135.376,20.363C135.687,20.344 135.998,20.335 136.3,20.316C136.488,20.316 136.667,20.296 136.856,20.296L137.364,20.278L137.949,20.259L138.533,20.24C138.929,20.23 139.324,20.222 139.711,20.222L141.105,20.222C145.553,20.222 150,20.495 154.41,21.051C155.343,21.164 156.275,21.296 157.208,21.437C157.406,21.465 157.613,21.503 157.821,21.531L158.848,21.701L159.046,21.738L159.215,21.767C159.47,21.814 159.734,21.852 159.988,21.899L160.242,21.946L160.582,22.012L160.921,22.078L161.561,22.2C161.788,22.238 162.014,22.285 162.23,22.332L162.41,22.37C162.918,22.474 163.437,22.587 163.945,22.7L164.416,22.803C164.775,22.879 165.123,22.963 165.481,23.048C165.896,23.143 166.31,23.246 166.725,23.35C167.111,23.444 167.498,23.548 167.884,23.642L168.299,23.755L168.741,23.868L168.76,23.868C169.043,23.943 169.326,24.018 169.599,24.094C169.637,24.094 169.674,24.113 169.712,24.122C169.844,24.16 169.976,24.198 170.098,24.235C170.277,24.283 170.456,24.339 170.635,24.386L171.078,24.509C171.285,24.565 171.493,24.631 171.7,24.688L172.19,24.838L172.633,24.971L172.84,25.036L172.859,25.036L173.113,25.112L173.651,25.282L173.99,25.385L174.433,25.526C174.696,25.611 174.951,25.696 175.215,25.781C175.61,25.913 176.006,26.054 176.402,26.186C178.145,26.798 179.873,27.451 181.584,28.146L182.168,28.391C182.593,28.57 183.017,28.74 183.441,28.928C184.89,29.547 186.288,30.278 187.624,31.114C200.043,38.906 205.31,54.84 199.355,68.729C196.182,76.112 190.204,81.941 182.743,84.926C175.282,87.911 166.931,87.809 159.545,84.643C153.821,82.192 147.67,80.893 141.444,80.818L141.426,80.818C139.62,80.799 137.814,80.884 136.017,81.072C135.207,81.157 134.406,81.27 133.595,81.392C133.237,81.449 132.87,81.515 132.512,81.581L132.192,81.637C132.06,81.666 131.918,81.684 131.786,81.713C131.588,81.751 131.381,81.788 131.183,81.835L131.146,81.835C130.929,81.892 130.722,81.939 130.505,81.986L129.996,82.109L129.695,82.184L129.205,82.306C129.054,82.344 128.894,82.391 128.743,82.429L128.423,82.514C127.772,82.693 127.122,82.891 126.482,83.098C126.227,83.183 125.963,83.268 125.709,83.352L125.323,83.484C125.191,83.531 125.068,83.569 124.936,83.626L124.559,83.766C124.182,83.908 123.796,84.049 123.429,84.2C121.543,84.954 119.708,85.83 117.935,86.82C117.822,86.886 117.7,86.952 117.587,87.018C117.351,87.15 117.116,87.291 116.88,87.423C116.644,87.564 116.418,87.696 116.183,87.847C115.965,87.983 115.748,88.121 115.533,88.261L114.967,88.629C114.835,88.714 114.713,88.799 114.581,88.883C114.506,88.93 114.434,88.981 114.364,89.034C114.289,89.091 114.185,89.156 114.091,89.222C113.997,89.289 113.874,89.373 113.771,89.449C113.554,89.599 113.337,89.75 113.13,89.91C112.923,90.061 112.696,90.23 112.48,90.39C112.376,90.466 112.272,90.551 112.159,90.626C109.911,92.357 107.826,94.29 105.931,96.402L105.874,96.459C105.714,96.638 105.554,96.817 105.394,97.005C105.243,97.175 105.092,97.355 104.942,97.533L104.772,97.731C104.584,97.957 104.395,98.183 104.216,98.409C104.15,98.485 104.094,98.56 104.037,98.636C103.877,98.834 103.726,99.031 103.575,99.229C103.462,99.371 103.359,99.512 103.246,99.653C102.944,100.049 102.652,100.445 102.369,100.85L102.369,100.859C100.24,103.881 98.479,107.145 97.121,110.583C97.121,110.602 97.111,110.612 97.102,110.63L96.932,111.054L96.772,111.469C96.735,111.573 96.687,111.686 96.65,111.799C96.612,111.902 96.556,112.063 96.508,112.204C96.452,112.364 96.396,112.534 96.338,112.694C96.282,112.864 96.226,113.043 96.169,113.212C93.668,120.721 93.12,128.744 94.577,136.523C94.624,136.806 94.681,137.079 94.747,137.362C95.916,143.204 98.196,148.767 101.465,153.748L101.729,154.153C105.065,159.183 109.351,163.513 114.345,166.902C114.505,167.005 114.666,167.118 114.826,167.222C121.051,171.387 128.187,173.995 135.631,174.826L136.168,174.882L136.648,174.93L136.875,174.948C139.861,175.212 142.867,175.193 145.854,174.873C145.967,174.864 146.09,174.845 146.203,174.826L146.231,174.826C152.453,174.129 158.475,172.201 163.945,169.154C165.101,168.506 166.119,167.639 166.942,166.6C167.764,165.557 168.372,164.363 168.732,163.085C169.09,161.804 169.203,160.475 169.043,159.156C168.887,157.838 168.474,156.564 167.827,155.406C167.179,154.248 166.308,153.23 165.265,152.41C164.223,151.586 163.029,150.978 161.75,150.62C160.474,150.257 159.138,150.151 157.821,150.309C156.502,150.469 155.23,150.874 154.071,151.524C149.15,154.259 143.495,155.386 137.902,154.747L137.609,154.709C137.44,154.69 137.27,154.662 137.101,154.643C136.931,154.615 136.743,154.596 136.554,154.558C136.33,154.522 136.107,154.481 135.885,154.436C135.538,154.37 135.192,154.295 134.849,154.21C134.745,154.191 134.651,154.162 134.557,154.144L134.217,154.059C134.104,154.03 134.001,154.002 133.878,153.974L133.539,153.88C133.445,153.851 133.351,153.823 133.256,153.795L132.889,153.682C132.672,153.616 132.455,153.541 132.239,153.475C132.135,153.437 132.022,153.399 131.918,153.361C131.702,153.286 131.485,153.201 131.278,153.126C130.958,153.003 130.641,152.874 130.326,152.74L130.081,152.636L129.826,152.523L129.572,152.4L129.176,152.212C125.11,150.223 121.606,147.249 118.981,143.562L118.755,143.223C118.68,143.11 118.604,143.006 118.538,142.902C118.463,142.789 118.406,142.705 118.35,142.61C115.619,138.373 114.118,133.46 114.016,128.42L114.016,127.534C114.016,127.402 114.016,127.252 114.025,127.101C114.034,126.96 114.034,126.818 114.044,126.668C114.044,126.564 114.044,126.46 114.063,126.357L114.081,126.046C114.1,125.791 114.119,125.537 114.147,125.292C114.157,125.179 114.166,125.075 114.185,124.962C114.204,124.764 114.232,124.566 114.261,124.359C114.279,124.208 114.298,124.057 114.326,123.907L114.383,123.568C114.421,123.36 114.449,123.153 114.496,122.946C114.534,122.738 114.571,122.55 114.609,122.352C114.656,122.154 114.703,121.919 114.75,121.702C114.788,121.561 114.816,121.419 114.854,121.268C114.882,121.155 114.911,121.052 114.939,120.929L115.137,120.223C115.438,119.243 115.787,118.272 116.192,117.33C116.783,115.951 117.489,114.624 118.303,113.363C118.406,113.193 118.538,112.995 118.67,112.816C118.746,112.694 118.84,112.581 118.915,112.468C119.047,112.279 119.179,112.1 119.311,111.921L119.518,111.639C119.594,111.535 119.669,111.441 119.744,111.347C119.839,111.224 119.933,111.102 120.037,110.979C120.131,110.857 120.234,110.734 120.329,110.621L120.63,110.272C120.8,110.065 120.988,109.867 121.177,109.669L121.214,109.632C121.422,109.405 121.629,109.189 121.846,108.972C122.006,108.802 122.175,108.642 122.354,108.482L122.486,108.36C123.518,107.389 124.624,106.5 125.794,105.702C126.02,105.552 126.246,105.401 126.463,105.26C126.576,105.184 126.689,105.109 126.821,105.033C126.953,104.949 127.085,104.864 127.216,104.788C127.348,104.713 127.48,104.628 127.622,104.553C129.037,103.751 130.518,103.073 132.05,102.527L132.71,102.301C132.861,102.254 133.002,102.207 133.153,102.16C133.303,102.112 133.445,102.075 133.595,102.028C133.746,101.99 133.897,101.943 134.048,101.905C134.199,101.868 134.34,101.83 134.481,101.792C134.802,101.717 135.122,101.641 135.442,101.575L135.857,101.491L136.168,101.434L136.488,101.378C136.695,101.34 136.893,101.312 137.101,101.283L137.119,101.283C138.398,101.095 139.69,101.001 140.983,101.001L141.426,101.001C144.931,101.067 148.379,101.811 151.602,103.187C172.558,112.176 197.047,105.966 211.162,88.082C218.143,79.231 221.975,68.299 222.045,57.026L222.045,56.932C222.083,47.014 219.198,37.301 213.753,29.012C208.309,20.722 200.54,14.218 191.421,10.318C191.092,10.178 190.771,10.036 190.441,9.904C190.106,9.771 189.773,9.633 189.443,9.489C188.943,9.282 188.453,9.084 187.944,8.886C187.445,8.688 186.946,8.49 186.446,8.302L185.627,7.992C185.355,7.887 185.082,7.786 184.807,7.69C184.562,7.605 184.326,7.51 184.081,7.426L183.431,7.19L182.423,6.842C181.726,6.606 181.028,6.37 180.322,6.144L179.841,5.984L179.266,5.796L178.399,5.522L177.815,5.343L177.297,5.193L176.562,4.976L175.083,4.552C174.745,4.457 174.405,4.366 174.065,4.279L173.104,4.024L173.066,4.024L172.859,3.968C172.303,3.826 171.757,3.685 171.201,3.553L170.635,3.421L169.976,3.261C169.637,3.186 169.316,3.111 168.986,3.035L168.911,3.016L167.922,2.799C167.234,2.649 166.546,2.507 165.858,2.366L165.255,2.253L164.379,2.083C164.181,2.045 163.983,2.008 163.795,1.97L162.956,1.82L162.654,1.763C161.995,1.65 161.335,1.546 160.676,1.433C159.983,1.32 159.289,1.217 158.593,1.123L157.764,1.009L157.293,0.952C157.237,0.952 157.18,0.934 157.123,0.934L156.841,0.896L156.558,0.858L156.012,0.792L155.635,0.745L154.909,0.66L154.683,0.632C154.391,0.604 154.099,0.566 153.797,0.538L152.978,0.463L152.695,0.434L151.885,0.359C151.564,0.331 151.244,0.302 150.923,0.283C149.471,0.172 148.016,0.084 146.561,0.02L146.231,0.02L146.043,0.01L145.336,-0.018L144.337,-0.046C143.599,-0.063 142.861,-0.076 142.123,-0.084L139.956,-0.084C139.645,-0.084 139.343,-0.084 139.032,-0.074C138.721,-0.065 138.439,-0.065 138.147,-0.056C137.854,-0.056 137.562,-0.046 137.261,-0.036C136.837,-0.027 136.403,-0.009 135.979,0.01L135.235,0.039L134.896,0.057L134.34,0.086L133.614,0.123L132.955,0.161L132.861,0.161C127.047,0.528 121.271,1.291 115.57,2.451L115.363,2.488C114.901,2.583 114.44,2.686 113.968,2.78L113.893,2.8C113.686,2.846 113.478,2.884 113.271,2.931C111.226,3.384 109.201,3.883 107.184,4.429C97.047,7.198 87.292,11.215 78.144,16.387L77.154,16.952L76.759,17.178L76.589,17.282L76.419,17.385C74.568,18.557 73.149,20.301 72.378,22.351C71.607,24.4 71.518,26.645 72.123,28.749C72.738,30.849 74.014,32.697 75.76,34.016C77.513,35.331 79.647,36.039 81.838,36.033L81.848,36.033L81.838,36.127Z" style="fill:rgb(16,102,223);fill-rule:nonzero;"/>
        </g>
        <g transform="matrix(3.9987,0,0,3.9987,-38.875,0.251891)">
            <path d="M66.375,82.138L66.29,82.279C61.637,89.86 58.174,98.11 56.02,106.74C56.01,106.787 55.992,106.834 55.982,106.881L55.841,107.475C55.822,107.569 55.794,107.673 55.775,107.767C55.728,107.955 55.69,108.144 55.643,108.332C53.14,119.173 52.731,130.393 54.437,141.387C54.456,141.481 54.465,141.575 54.475,141.669C54.524,141.948 54.571,142.228 54.616,142.508L54.635,142.602C54.635,142.602 54.635,142.649 54.645,142.677C56.667,154.602 61.139,165.98 67.779,176.09L67.949,176.353C68.589,177.324 69.249,178.276 69.927,179.218C70.182,179.576 70.446,179.925 70.7,180.273C84.531,198.893 105.213,211.269 128.159,214.656L128.281,214.675L128.856,214.76L128.941,214.76L129.412,214.835L129.515,214.835L130.024,214.91C136.935,215.783 143.926,215.828 150.848,215.042L151.291,214.986C151.432,214.967 151.574,214.948 151.715,214.939L152.309,214.863L152.422,214.844L152.497,214.844L152.629,214.816L153.185,214.741L153.383,214.712C153.722,214.665 154.042,214.618 154.363,214.571L154.372,214.571C168.899,212.329 182.628,206.46 194.286,197.507C195.351,196.706 196.244,195.7 196.915,194.548C197.587,193.395 198.026,192.121 198.206,190.798C198.573,188.129 197.853,185.422 196.208,183.288C195.393,182.231 194.378,181.344 193.221,180.678C192.064,180.011 190.786,179.582 189.461,179.416C188.136,179.245 186.791,179.341 185.504,179.698C184.219,180.057 183.016,180.662 181.961,181.479C174.813,186.965 166.636,190.961 157.915,193.229C157.802,193.257 157.689,193.276 157.576,193.304C155.37,193.867 153.137,194.317 150.886,194.652L150.791,194.652C150.528,194.708 150.264,194.737 150,194.774L149.708,194.812C146.818,195.188 143.906,195.377 140.992,195.377L140.973,195.377C134.751,195.377 128.558,194.518 122.571,192.824L122.515,192.805C122.049,192.671 121.584,192.533 121.12,192.391C120.434,192.182 119.752,191.959 119.075,191.722L118.029,191.354L117.577,191.184L117.445,191.137C117.181,191.043 116.918,190.939 116.654,190.836L116.428,190.751L116.032,190.591L115.928,190.553L115.909,190.553C115.646,190.449 115.382,190.346 115.118,190.233L114.92,190.148L114.703,190.054C114.308,189.884 113.921,189.715 113.525,189.545L113.205,189.404C101.854,184.241 92.146,176.042 85.155,165.715L84.985,165.47L84.693,165.028L84.438,164.632C77.488,153.87 73.73,141.355 73.602,128.544L73.602,127.677C73.602,127.328 73.602,126.979 73.612,126.631L73.612,126.546C73.64,125.227 73.706,123.917 73.81,122.617C73.819,122.476 73.829,122.334 73.847,122.202C73.847,122.136 73.857,122.07 73.867,122.004C74.499,114.933 76.247,108.006 79.048,101.482C80.299,98.56 81.754,95.73 83.402,93.012C83.468,92.898 83.543,92.776 83.609,92.662C84.811,90.726 86.11,88.852 87.501,87.047C91.084,82.377 95.262,78.196 99.929,74.609C101.305,73.548 102.722,72.542 104.178,71.594C105.423,70.789 106.693,70.022 107.985,69.294C115.222,65.246 123.138,62.554 131.343,61.352C134.53,60.9 137.745,60.673 140.964,60.673L140.983,60.673C141.228,60.673 141.473,60.663 141.727,60.645L141.774,60.645C150.478,60.747 159.079,62.549 167.092,65.95C167.234,66.006 167.375,66.063 167.516,66.129L167.535,66.129C169.996,67.194 172.783,67.231 175.271,66.233C179.103,64.706 181.63,60.978 181.63,56.853C181.63,55.567 181.384,54.292 180.906,53.098C179.91,50.611 177.967,48.618 175.507,47.558L175.488,47.558C160.646,41.157 144.31,39.014 128.319,41.368L127.97,41.423L127.414,41.508L127.311,41.527L126.896,41.593C114.853,43.534 103.352,47.99 93.145,54.67L93.069,54.717C92.919,54.821 92.759,54.915 92.607,55.019L92.137,55.329C92.033,55.405 91.929,55.471 91.825,55.547C82.406,61.905 74.328,70.053 68.052,79.527C67.93,79.715 67.789,79.922 67.657,80.12L67.581,80.234L67.176,80.864L66.941,81.232C66.856,81.364 66.771,81.496 66.696,81.628C66.649,81.703 66.601,81.778 66.554,81.845L66.384,82.108L66.366,82.156L66.376,82.136L66.375,82.138Z" style="fill:rgb(16,102,223);fill-rule:nonzero;"/>
        </g>
    </g>
</svg>
