<?xml version="1.0" encoding="UTF-8" standalone="no"?>
<!DOCTYPE svg PUBLIC "-//W3C//DTD SVG 1.1//EN" "http://www.w3.org/Graphics/SVG/1.1/DTD/svg11.dtd">
<svg width="100%" height="100%" viewBox="0 0 1024 1024" version="1.1" xmlns="http://www.w3.org/2000/svg" xmlns:xlink="http://www.w3.org/1999/xlink" xml:space="preserve" xmlns:serif="http://www.serif.com/" style="fill-rule:evenodd;clip-rule:evenodd;stroke-linejoin:round;stroke-miterlimit:2;">
    <g transform="matrix(4.00296,0,0,4.00296,-0.889753,107.703)">
        <path d="M146.443,50.977L125.184,100.999L75.287,100.999C75.258,100.999 75.23,100.999 75.201,100.999C61.527,100.999 50.276,112.25 50.276,125.924C50.276,125.953 50.276,125.981 50.276,126.01C50.276,126.039 50.276,126.067 50.276,126.096C50.276,139.77 61.527,151.021 75.201,151.021C75.23,151.021 75.258,151.021 75.287,151.021L103.925,151.021L83,201.043C78,201 77.788,201.043 75.287,201.043C33.894,201.043 0.254,167.403 0.254,126.01C0.254,84.616 33.894,50.977 75.287,50.977L146.569,50.977L146.443,50.977Z" style="fill:rgb(53,81,242);fill-rule:nonzero;"/>
        <path d="M256.001,75.988C256.001,117.382 222.361,151.021 180.968,151.021L103.934,151.021L125.193,100.999L180.968,100.999C194.724,100.999 205.979,89.744 205.979,75.989C205.979,62.232 194.724,50.977 180.968,50.977L146.452,50.977L168,0.956C173,1 176.216,0.956 180.968,0.956C222.361,0.956 256.001,34.595 256.001,75.988Z" style="fill:rgb(53,81,242);fill-rule:nonzero;"/>
    </g>
</svg>
