<?xml version="1.0" encoding="UTF-8" standalone="no"?>
<!DOCTYPE svg PUBLIC "-//W3C//DTD SVG 1.1//EN" "http://www.w3.org/Graphics/SVG/1.1/DTD/svg11.dtd">
<svg width="100%" height="100%" viewBox="0 0 1024 1024" version="1.1" xmlns="http://www.w3.org/2000/svg" xmlns:xlink="http://www.w3.org/1999/xlink" xml:space="preserve" xmlns:serif="http://www.serif.com/" style="fill-rule:evenodd;clip-rule:evenodd;stroke-linejoin:round;stroke-miterlimit:2;">
    <g transform="matrix(0.916938,0,0,0.916938,512,512)">
        <g transform="matrix(1,0,0,1,-558.38,-512.74)">
            <g id="Layer_2">
                <g id="Layer_1-2">
                    <path d="M1116.76,512.8L882.12,153.36L790.2,333.09L486.56,333.09L394.15,512.81L1116.76,512.8Z" style="fill:rgb(105,190,90);fill-rule:nonzero;"/>
                    <path d="M248.82,0L0,512.88L171.45,512.63L353.69,153.35L882.09,153.34L961.84,0L248.82,0Z" style="fill:rgb(27,163,74);fill-rule:nonzero;"/>
                    <path d="M394.15,512.66L486.56,692.39L790.2,692.39L882.12,872.11L1116.76,512.68L394.15,512.66Z" style="fill:rgb(27,163,74);fill-rule:nonzero;"/>
                    <path d="M248.82,1025.48L0,512.6L171.45,512.84L353.69,872.13L882.09,872.13L961.84,1025.48L248.82,1025.48Z" style="fill:rgb(105,190,90);fill-rule:nonzero;"/>
                </g>
            </g>
        </g>
    </g>
</svg>
