<?xml version="1.0" encoding="UTF-8" standalone="no"?>
<!DOCTYPE svg PUBLIC "-//W3C//DTD SVG 1.1//EN" "http://www.w3.org/Graphics/SVG/1.1/DTD/svg11.dtd">
<svg width="100%" height="100%" viewBox="0 0 1024 1024" version="1.1" xmlns="http://www.w3.org/2000/svg" xmlns:xlink="http://www.w3.org/1999/xlink" xml:space="preserve" xmlns:serif="http://www.serif.com/" style="fill-rule:evenodd;clip-rule:evenodd;stroke-linejoin:round;stroke-miterlimit:2;">
    <g transform="matrix(1.00373,0,0,1.01105,0.196229,-5.65956)">
        <g transform="matrix(3.98212,0,0,3.98212,0.583005,2.53258)">
            <path d="M128.391,213.062C176.001,213.062 214.33,174.733 214.33,128.334C214.33,81.934 176.001,43.606 128.391,43.606C80.782,43.606 42.453,81.935 42.453,128.334C42.453,174.733 80.783,213.062 128.391,213.062Z" style="fill:rgb(70,181,73);fill-rule:nonzero;"/>
        </g>
        <g transform="matrix(3.98212,0,0,3.98212,0.583005,2.53258)">
            <path d="M200.378,218.118C204.998,222.495 204.716,229.972 199.418,233.498C149.574,266.661 81.895,261.798 37.63,217.912C-12.804,167.882 -12.804,87.995 37.63,37.965C81.664,-6.069 149.986,-10.816 199.917,22.716C204.981,26.116 205.344,33.251 201.031,37.565C197.351,41.245 191.525,41.539 187.175,38.682C145.658,11.42 89.092,16.36 52.962,52.49C10.194,94.047 10.194,161.83 52.155,203.387C88.292,239.524 144.872,244.46 186.39,217.18C190.757,214.311 196.585,214.524 200.378,218.118ZM218.997,199.92C223.377,204.544 230.856,204.287 234.409,199.001C263.317,155.996 263.194,99.221 234.041,56.334C230.625,51.309 223.525,50.973 219.228,55.269C215.527,58.971 215.25,64.836 218.154,69.191C241.616,104.372 241.581,150.131 218.048,185.9C215.169,190.277 215.394,196.117 218.997,199.92Z" style="fill:rgb(70,181,73);fill-rule:nonzero;"/>
        </g>
    </g>
</svg>
