<?xml version="1.0" encoding="UTF-8" standalone="no"?>
<!DOCTYPE svg PUBLIC "-//W3C//DTD SVG 1.1//EN" "http://www.w3.org/Graphics/SVG/1.1/DTD/svg11.dtd">
<svg width="100%" height="100%" viewBox="0 0 1024 1024" version="1.1" xmlns="http://www.w3.org/2000/svg" xmlns:xlink="http://www.w3.org/1999/xlink" xml:space="preserve" xmlns:serif="http://www.serif.com/" style="fill-rule:evenodd;clip-rule:evenodd;stroke-linejoin:round;stroke-miterlimit:2;">
    <g transform="matrix(3.98978,0,0,3.98978,1.88923,-0.419239)">
        <path d="M38.233,201.292C38.088,201.328 37.936,201.328 37.791,201.292C37.414,201.182 37.13,200.867 37.058,200.481C36.652,197.905 47.838,174.21 52.986,165.005C55.566,160.432 74.885,147.806 87.907,141.615C89.069,141.066 96.597,137.453 96.827,137.865C97.057,138.276 90.031,143.744 89.664,144.056C78.21,153.235 57.733,177.249 47.043,190.911C40.235,199.615 38.99,201.14 38.233,201.292Z" style="fill-rule:nonzero;"/>
        <path d="M155.47,74.587C173.475,74.024 182.959,79.161 187.677,83.737C191.489,87.134 193.789,91.918 194.061,97.017C194.183,103.832 186.806,105.875 182.395,107.11C181.8,107.262 181.081,107.461 180.486,107.659C183.532,108.876 190.52,111.059 196.81,113.011C222.969,121.152 234.04,125.209 234.98,128.732C235.18,129.545 234.922,130.405 234.308,130.974C232.903,132.148 230.247,131.949 225.817,131.203L225.176,131.096C179.729,123.869 148.652,124.388 148.332,124.388C64.952,125.653 22.329,186.015 8.312,205.855C4.631,211.085 3.165,213.153 1.815,213.19C1.424,213.183 1.045,213.055 0.73,212.823C0.042,212.244 -0.335,211.373 -0.285,210.475C-0.589,201.067 19.206,145.428 61.35,113.82C78.886,100.651 108.693,87.318 151.59,97.813C149.138,95.183 147.761,91.726 147.733,88.131C135.134,89.777 112.608,87.979 96.568,85.889C82.778,84.044 59.474,80.294 57.978,74.987C57.657,73.827 58.13,72.578 61.108,70.839C74.508,62.971 93.742,61.264 93.742,61.264C147.972,56.03 155.47,74.587 155.47,74.587Z" style="fill-rule:nonzero;"/>
        <path d="M96.186,56.822C96.186,56.822 79.799,47.184 82.44,44.624C85.082,42.064 115.09,44.624 134.823,53.086C154.556,61.547 155.805,70.986 155.805,70.986C149.375,60.466 132.438,53.969 96.185,56.822L96.186,56.822ZM236.211,118.407C233.279,118.498 230.699,118.545 226.805,118.61C225.848,118.598 224.901,118.413 224.009,118.065L198.934,110.106C198.201,109.877 193.436,108.338 193.858,107.712C194.281,107.085 198.668,107.118 199.432,107.148L201.127,107.148C231.899,108.048 249.995,110.189 255.134,113.505C255.821,113.888 256.153,114.704 255.928,115.458C255.65,116.577 255.361,117.842 236.211,118.407ZM40.039,127.558C39.227,127.713 38.387,127.623 37.627,127.298C36.36,126.779 35.763,125.774 34.581,124.257C31.536,120.537 30.305,116.329 31.298,113.31C31.95,111.447 33.534,110.056 35.466,109.651C41.468,108.127 48.233,110.462 50.736,113.31C52.766,115.54 51.837,116.268 49.21,118.449C47.675,119.73 46.221,121.106 44.857,122.567C42.627,124.829 41.815,126.69 40.039,127.558Z" style="fill-rule:nonzero;"/>
    </g>
</svg>
