<?xml version="1.0" encoding="UTF-8" standalone="no"?>
<!DOCTYPE svg PUBLIC "-//W3C//DTD SVG 1.1//EN" "http://www.w3.org/Graphics/SVG/1.1/DTD/svg11.dtd">
<svg width="100%" height="100%" viewBox="0 0 1024 1024" version="1.1" xmlns="http://www.w3.org/2000/svg" xmlns:xlink="http://www.w3.org/1999/xlink" xml:space="preserve" xmlns:serif="http://www.serif.com/" style="fill-rule:evenodd;clip-rule:evenodd;stroke-linejoin:round;stroke-miterlimit:2;">
    <g transform="matrix(4.11463,0,0,4.11463,-15.975,-15.9853)">
        <path d="M202.026,28.087L223.484,6.629C227.142,2.971 233.083,2.97 236.742,6.628L249.999,19.886C253.658,23.544 253.657,29.485 249.999,33.144L249.999,33.143L228.542,54.6C243.756,75.243 252.749,100.739 252.749,128.32C252.749,155.9 243.756,181.397 228.547,202.033L250.006,223.492C253.664,227.15 253.664,233.09 250.005,236.749L236.747,250.007C233.089,253.665 227.149,253.665 223.491,250.007L202.032,228.548C181.393,243.76 155.896,252.752 128.316,252.752C100.735,252.752 75.239,243.76 54.601,228.549L33.141,250.009C29.483,253.668 23.543,253.668 19.884,250.009L6.626,236.751C2.968,233.093 2.968,227.153 6.626,223.495L28.086,202.035C12.875,181.397 3.883,155.9 3.883,128.32C3.883,100.739 12.875,75.243 28.087,54.603L6.629,33.145C2.971,29.487 2.97,23.546 6.628,19.887L19.886,6.63C23.544,2.971 29.485,2.972 33.144,6.63L33.143,6.63L54.602,28.089C75.239,12.879 100.735,3.887 128.316,3.887C155.896,3.887 181.393,12.879 202.026,28.087ZM128.316,41.384C176.297,41.384 215.251,80.338 215.251,128.32C215.251,176.301 176.297,215.255 128.316,215.255C80.334,215.255 41.38,176.301 41.38,128.32C41.38,80.338 80.334,41.384 128.316,41.384Z" style="fill:rgb(149,149,149);"/>
    </g>
</svg>
