<?xml version="1.0" encoding="UTF-8" standalone="no"?>
<!DOCTYPE svg PUBLIC "-//W3C//DTD SVG 1.1//EN" "http://www.w3.org/Graphics/SVG/1.1/DTD/svg11.dtd">
<svg width="100%" height="100%" viewBox="0 0 1024 1024" version="1.1" xmlns="http://www.w3.org/2000/svg" xmlns:xlink="http://www.w3.org/1999/xlink" xml:space="preserve" xmlns:serif="http://www.serif.com/" style="fill-rule:evenodd;clip-rule:evenodd;stroke-linejoin:round;stroke-miterlimit:2;">
    <g transform="matrix(4.3809,0,0,4.3809,-24.1125,-48.7528)">
        <path d="M239.246,128C239.246,143.483 235.098,157.989 227.871,170.5C220.397,183.417 209.663,194.151 196.746,201.625C196.297,201.876 195.861,202.127 195.412,202.378C183.218,209.142 169.188,212.999 154.259,212.999L69.273,212.999L85.205,170.5L37.395,170.5L53.327,128L154.259,128L138.327,170.5L154.259,170.5C174.063,170.5 190.695,156.958 195.412,138.621C196.301,135.151 196.75,131.582 196.746,128C196.746,104.537 177.722,85.5 154.246,85.5L69.259,85.5L85.192,43L154.246,43C169.729,43 184.235,47.148 196.746,54.375C209.663,61.849 220.397,72.583 227.871,85.5C235.098,97.998 239.246,112.516 239.246,128ZM53.301,128L5.504,128L21.436,85.5L69.247,85.5L53.301,128Z" style="fill:rgb(200,32,32);fill-rule:nonzero;"/>
    </g>
</svg>
