<?xml version="1.0" encoding="UTF-8" standalone="no"?>
<!DOCTYPE svg PUBLIC "-//W3C//DTD SVG 1.1//EN" "http://www.w3.org/Graphics/SVG/1.1/DTD/svg11.dtd">
<svg width="100%" height="100%" viewBox="0 0 1024 1024" version="1.1" xmlns="http://www.w3.org/2000/svg" xmlns:xlink="http://www.w3.org/1999/xlink" xml:space="preserve" xmlns:serif="http://www.serif.com/" style="fill-rule:evenodd;clip-rule:evenodd;stroke-linejoin:round;stroke-miterlimit:2;">
    <g transform="matrix(4.67367,0,0,4.67367,-415.151,-1294.26)">
        <path d="M110.979,422.969L121.104,398.641L131.792,398.641C131.51,394.328 131.37,390.156 131.37,386.125C131.37,380.687 131.604,375.625 132.073,370.937L110.979,370.937L121.104,346.609L136.995,346.609C151.807,300.297 185.182,277.141 237.12,277.141C254.182,277.141 270.401,279.297 285.776,283.609L285.776,314.266C271.339,307.984 256.01,304.844 239.792,304.844C208.667,304.844 188.651,318.766 179.745,346.609L272.417,346.609L262.292,370.937L173.698,370.937C173.229,373.937 172.995,377.969 172.995,383.031C172.995,388.844 173.182,394.047 173.557,398.641L250.76,398.641L240.776,422.969L178.901,422.969C185.557,439.844 193.667,451.586 203.229,458.195C212.792,464.805 226.432,468.109 244.151,468.109C256.807,468.109 270.682,465.109 285.776,459.109L285.776,487.937C271.432,493.187 254.37,495.812 234.589,495.812C182.557,495.812 149.651,471.531 135.87,422.969L110.979,422.969Z" style="fill:rgb(0,63,32);fill-rule:nonzero;"/>
    </g>
</svg>
