<?xml version="1.0" encoding="UTF-8" standalone="no"?>
<!DOCTYPE svg PUBLIC "-//W3C//DTD SVG 1.1//EN" "http://www.w3.org/Graphics/SVG/1.1/DTD/svg11.dtd">
<svg width="100%" height="100%" viewBox="0 0 1024 1024" version="1.1" xmlns="http://www.w3.org/2000/svg" xmlns:xlink="http://www.w3.org/1999/xlink" xml:space="preserve" xmlns:serif="http://www.serif.com/" style="fill-rule:evenodd;clip-rule:evenodd;stroke-linejoin:round;stroke-miterlimit:2;">
    <g transform="matrix(4,0,0,4,0,0)">
        <g transform="matrix(0.128,0,0,0.128,0,0)">
            <path d="M1574.39,1673.38C1595.79,1694.78 1606.52,1724.67 1603.63,1754.79C1600.75,1784.91 1584.52,1812.21 1559.45,1829.14C1399.6,1936.9 1207.11,2000 1000,2000C792.887,2000 600.396,1936.9 440.722,1828.89C415.721,1812.01 399.546,1784.79 396.667,1754.76C393.785,1724.73 404.489,1694.93 425.823,1673.6C425.615,1673.38 425.619,1673.38 425.622,1673.37C470.405,1628.59 540.105,1620.49 593.964,1653.81C711.744,1727.56 850.955,1770 1000,1770C1149.05,1770 1288.26,1727.56 1406.22,1654.1C1459.94,1620.87 1529.46,1628.95 1574.13,1673.62C1574.38,1673.38 1574.38,1673.38 1574.39,1673.38ZM1673.38,425.611C1694.78,404.214 1724.67,393.478 1754.79,396.367C1784.91,399.254 1812.21,415.477 1829.14,440.553C1936.9,600.396 2000,792.887 2000,1000C2000,1207.11 1936.9,1399.6 1828.89,1559.28C1812.01,1584.28 1784.79,1600.45 1754.76,1603.33C1724.73,1606.22 1694.93,1595.51 1673.6,1574.18C1673.38,1574.38 1673.38,1574.38 1673.37,1574.38C1628.59,1529.6 1620.49,1459.89 1653.81,1406.04C1727.56,1288.26 1770,1149.05 1770,1000C1770,850.955 1727.56,711.744 1654.1,593.781C1620.87,540.059 1628.95,470.538 1673.62,425.872C1673.38,425.619 1673.38,425.615 1673.38,425.611ZM171.105,440.722C189.891,412.912 221.339,396.205 254.9,396.205C281.709,396.205 307.447,406.866 326.404,425.823C326.62,425.615 326.624,425.619 326.628,425.622C371.407,470.405 379.508,540.105 346.193,593.964C272.438,711.744 230,850.955 230,1000C230,1149.05 272.438,1288.26 345.898,1406.22C379.127,1459.94 371.045,1529.46 326.378,1574.13C326.624,1574.38 326.62,1574.38 326.616,1574.39C305.22,1595.79 275.334,1606.52 245.214,1603.63C215.094,1600.74 187.793,1584.52 170.855,1559.45C63.1,1399.6 0,1207.11 0,1000C0,792.887 63.1,600.396 171.105,440.722ZM1000,370C1347.71,370 1630,652.294 1630,1000C1630,1347.71 1347.71,1630 1000,1630C652.294,1630 370,1347.71 370,1000C370,652.294 652.294,370 1000,370ZM425.611,326.616C406.597,307.603 395.903,281.788 395.903,254.898C395.903,221.238 412.66,189.697 440.553,170.855C600.396,63.1 792.887,0 1000,0C1207.11,0 1399.6,63.1 1559.28,171.105C1584.28,187.994 1600.45,215.213 1603.33,245.243C1606.21,275.273 1595.51,305.071 1574.18,326.404C1574.38,326.62 1574.38,326.624 1574.38,326.628C1529.6,371.407 1459.89,379.508 1406.04,346.193C1288.26,272.438 1149.05,230 1000,230C850.955,230 711.744,272.438 593.781,345.898C540.059,379.127 470.538,371.045 425.872,326.378C425.619,326.624 425.615,326.62 425.611,326.616Z" style="fill:rgb(32,142,122);"/>
        </g>
        <g transform="matrix(0.128,0,0,0.128,-0.512,-0.262)">
            <path d="M561,1044.09C561,1044.09 522.596,1044.06 522.596,1097.86C522.596,1154.09 557.379,1155.68 570.541,1155.68L629.767,1155.68C657.03,1253.45 706.386,1327.72 777.833,1378.48C849.281,1429.25 932.48,1454.63 1027.43,1454.63C1067.86,1454.63 1104.75,1451.11 1138.13,1444.06C1171.5,1437 1199.7,1427.6 1222.74,1415.85C1245.77,1404.1 1263.63,1390.47 1276.32,1374.96C1289.01,1359.45 1295.36,1342.76 1295.36,1324.9C1295.36,1306.1 1290.89,1289.53 1279.85,1276.95C1251,1244.09 1201,1274.09 1162.81,1288.94C1132.37,1300.77 1095.12,1307.98 1049.99,1307.98C996.407,1307.98 948.932,1295.28 907.567,1269.9C866.203,1244.52 834.709,1206.44 813.087,1155.68L1131,1154.09C1131,1154.09 1181.26,1144.09 1181.14,1097.86C1181,1044.09 1131,1041.46 1133.19,1041.46L561,1044.09ZM561,960C561,960 522.596,960.024 522.596,906.225C522.596,850 557.379,848.409 570.541,848.409L629.767,848.409C657.03,750.638 706.386,676.37 777.833,625.604C849.281,574.839 932.48,549.456 1027.43,549.456C1067.86,549.456 1104.75,552.982 1138.13,560.032C1171.5,567.083 1199.7,576.484 1222.74,588.235C1245.77,599.987 1263.63,613.618 1276.32,629.13C1289.01,644.641 1295.36,661.328 1295.36,679.19C1295.36,697.992 1290.89,714.556 1279.85,727.135C1251,760 1201,730 1162.81,715.149C1132.37,703.317 1095.12,696.112 1049.99,696.112C996.407,696.112 948.932,708.803 907.567,734.186C866.203,759.569 834.709,797.643 813.087,848.409L1131,850C1131,850 1181.26,860 1181.14,906.225C1181,960 1131,962.631 1133.19,962.631L561,960Z" style="fill:white;fill-rule:nonzero;"/>
        </g>
    </g>
</svg>
