<?xml version="1.0" encoding="UTF-8" standalone="no"?>
<!DOCTYPE svg PUBLIC "-//W3C//DTD SVG 1.1//EN" "http://www.w3.org/Graphics/SVG/1.1/DTD/svg11.dtd">
<svg width="100%" height="100%" viewBox="0 0 1024 1024" version="1.1" xmlns="http://www.w3.org/2000/svg" xmlns:xlink="http://www.w3.org/1999/xlink" xml:space="preserve" xmlns:serif="http://www.serif.com/" style="fill-rule:evenodd;clip-rule:evenodd;stroke-linejoin:round;stroke-miterlimit:2;">
    <g transform="matrix(74.7882,0,0,74.7882,512,1023.25)">
        <path d="M-1.406,-7.324L-3.965,-11.768C-4.228,-12.113 -4.515,-12.439 -4.824,-12.744C-5.182,-13.102 -5.589,-13.281 -6.045,-13.281L-6.533,-13.281L-6.533,-13.672L-0.674,-13.672L-0.674,-13.281L-1.162,-13.281C-1.618,-13.281 -1.862,-13.102 -1.895,-12.744C-1.928,-12.409 -1.867,-12.071 -1.719,-11.768L0.352,-8.174L2.891,-11.807C3.053,-12.106 3.135,-12.419 3.135,-12.744C3.135,-13.102 2.907,-13.281 2.451,-13.281L1.963,-13.281L1.963,-13.672L6.846,-13.672L6.846,-13.281L6.357,-13.281C5.902,-13.281 5.449,-13.102 5,-12.744C4.629,-12.451 4.342,-12.168 4.141,-11.895L4.014,-11.719L0.947,-7.324L6.846,-7.324L6.846,-6.348L1.406,-6.348L4.004,-1.846C4.193,-1.553 4.456,-1.247 4.795,-0.928C5.173,-0.57 5.589,-0.391 6.045,-0.391L6.533,-0.391L6.533,0L0.674,0L0.674,-0.391L1.162,-0.391C1.618,-0.391 1.862,-0.57 1.895,-0.928C1.928,-1.268 1.864,-1.61 1.709,-1.914L-0.352,-5.488L-2.822,-1.953C-3.024,-1.649 -3.133,-1.293 -3.135,-0.928C-3.135,-0.57 -2.907,-0.391 -2.451,-0.391L-1.963,-0.391L-1.963,0L-6.846,0L-6.846,-0.391L-6.357,-0.391C-5.902,-0.391 -5.462,-0.57 -5.039,-0.928C-4.642,-1.26 -4.313,-1.582 -4.053,-1.895L-0.938,-6.348L-6.846,-6.348L-6.846,-7.324L-1.406,-7.324Z" style="fill-rule:nonzero;"/>
    </g>
</svg>
