<?xml version="1.0" encoding="UTF-8" standalone="no"?>
<!DOCTYPE svg PUBLIC "-//W3C//DTD SVG 1.1//EN" "http://www.w3.org/Graphics/SVG/1.1/DTD/svg11.dtd">
<svg width="100%" height="100%" viewBox="0 0 1024 1024" version="1.1" xmlns="http://www.w3.org/2000/svg" xmlns:xlink="http://www.w3.org/1999/xlink" xml:space="preserve" xmlns:serif="http://www.serif.com/" style="fill-rule:evenodd;clip-rule:evenodd;stroke-linejoin:round;stroke-miterlimit:2;">
    <g transform="matrix(4,0,0,4,16,1.35938e-05)">
        <path d="M247.472,75.854C247.116,72.664 246.582,69.497 245.874,66.367C245.141,63.153 244.219,59.984 243.111,56.879C241.953,53.64 240.603,50.472 239.07,47.392C237.432,44.123 235.587,40.962 233.545,37.928C232.105,35.771 230.558,33.688 228.91,31.686C228.013,30.578 227.083,29.495 226.124,28.44C224.017,26.073 221.768,23.837 219.389,21.744C218.325,20.776 217.229,19.845 216.101,18.953C214.09,17.326 212.002,15.796 209.845,14.368C207.161,12.567 204.37,10.93 201.489,9.465C201.1,9.255 200.704,9.058 200.302,8.875C197.209,7.336 194.021,5.994 190.759,4.857C187.642,3.757 184.463,2.84 181.238,2.111C174.973,0.707 168.572,-0.001 162.151,0L23.838,0C18.683,-0.003 13.665,1.67 9.544,4.767C7.737,6.09 6.137,7.673 4.794,9.465C1.68,13.554 -0.005,18.555 0,23.695L0,194.378C0,195.967 0.069,197.556 0.206,199.122C0.433,202.311 0.921,205.477 1.666,208.586C3.221,215.197 5.884,221.498 9.543,227.22C9.612,227.339 9.688,227.453 9.773,227.561C11.945,230.972 14.462,234.151 17.283,237.048C17.854,237.661 18.448,238.251 19.065,238.818L19.087,238.841C21.997,241.642 25.187,244.136 28.607,246.285C28.717,246.369 28.831,246.445 28.951,246.512C31.876,248.36 34.954,249.955 38.151,251.279C41.244,252.558 44.436,253.583 47.695,254.343C50.824,255.082 54.008,255.568 57.215,255.796L57.238,255.796L57.238,256L138.313,256L138.313,255.909C139.653,255.656 140.863,254.942 141.732,253.892C142.599,252.845 143.07,251.526 143.062,250.167C143.075,248.834 142.613,247.538 141.76,246.513C141.167,245.769 140.398,245.185 139.523,244.811C139.117,244.589 138.714,244.362 138.313,244.13C136.694,243.225 135.102,242.272 133.541,241.27C131.898,240.249 130.322,239.137 128.77,238.002C128.329,237.704 127.902,237.386 127.491,237.048C126.301,236.157 125.137,235.234 123.998,234.279C122.95,233.41 121.922,232.518 120.916,231.601C119.481,230.306 118.095,228.959 116.76,227.561C116.233,227.041 115.723,226.504 115.231,225.95C114.956,225.677 114.705,225.383 114.454,225.11C112.418,222.863 110.497,220.515 108.698,218.074C107.362,216.279 106.097,214.431 104.907,212.536C104.081,211.241 103.289,209.924 102.533,208.587C100.795,205.527 99.24,202.367 97.876,199.123C96.952,196.958 96.121,194.754 95.387,192.518C95.049,191.568 94.744,190.606 94.474,189.635C93.992,188.069 93.565,186.487 93.195,184.891C92.807,183.32 92.464,181.738 92.168,180.147C91.585,177.009 91.166,173.842 90.912,170.66C90.82,169.504 90.752,168.347 90.707,167.188C90.642,165.88 90.612,164.571 90.616,163.261L90.616,132.733L58.948,132.733C57.583,132.738 56.259,132.266 55.205,131.399C54.154,130.535 53.441,129.327 53.192,127.99C52.879,126.446 53.227,124.84 54.151,123.564L54.357,123.269L57.234,119.183L58.969,116.732L61.047,113.781L66.755,105.656L67.713,104.294L74.403,94.806L76.298,92.106L81.071,85.319L85.842,78.556L87.737,75.855L90.614,71.769L94.43,66.369L95.388,65.006L101.119,56.881L104.909,51.479L107.786,47.394L109.658,44.738C110.198,43.966 110.917,43.337 111.753,42.903C113.451,42.021 115.478,42.021 117.176,42.903C118.012,43.337 118.731,43.967 119.271,44.738L121.143,47.394L123.997,51.457L127.81,56.881L128.769,58.221L133.54,65.007L134.499,66.369L138.315,71.77L141.192,75.856L143.064,78.534L147.859,85.32L152.608,92.084L154.526,94.808L161.216,104.295L162.151,105.634L167.882,113.783L171.698,119.184L174.575,123.269L174.78,123.565C175.704,124.841 176.052,126.447 175.739,127.99C175.534,129.032 175.051,130 174.34,130.789C173.628,131.581 172.715,132.167 171.698,132.484C171.135,132.651 170.55,132.735 169.963,132.734L138.318,132.734L138.318,161.196C138.315,164.454 138.992,167.678 140.305,170.66C141.032,172.332 141.959,173.91 143.067,175.358C145.557,178.644 148.842,181.246 152.611,182.917C155.622,184.225 158.872,184.898 162.155,184.892C162.565,184.892 162.977,184.892 163.388,184.869C166.165,184.841 168.938,184.674 171.698,184.37C174.906,184.016 178.092,183.485 181.242,182.781C184.349,182.08 187.414,181.201 190.42,180.148L190.762,180.148L190.762,180.035C194.025,178.898 197.212,177.556 200.306,176.018C203.53,174.433 206.649,172.644 209.644,170.661L209.85,170.661L209.85,170.524C213.205,168.299 216.395,165.834 219.394,163.148C220.118,162.516 220.826,161.865 221.517,161.196C224.151,158.701 226.621,156.04 228.914,153.229C229.325,152.729 229.713,152.23 230.101,151.708C232.459,148.7 234.603,145.53 236.517,142.221C237.199,141.068 237.846,139.895 238.457,138.703C239.479,136.751 240.423,134.759 241.288,132.733C241.934,131.167 242.543,129.585 243.115,127.99C243.68,126.435 244.19,124.86 244.644,123.269C245.544,120.149 246.268,116.981 246.813,113.781C247.349,110.642 247.7,107.474 247.863,104.294L248,104.294L248,85.317C247.997,82.155 247.821,78.996 247.472,75.854Z" style="fill:rgb(55,73,231);fill-rule:nonzero;"/>
    </g>
</svg>
