<?xml version="1.0" encoding="UTF-8" standalone="no"?>
<!DOCTYPE svg PUBLIC "-//W3C//DTD SVG 1.1//EN" "http://www.w3.org/Graphics/SVG/1.1/DTD/svg11.dtd">
<svg width="100%" height="100%" viewBox="0 0 1024 1024" version="1.1" xmlns="http://www.w3.org/2000/svg" xmlns:xlink="http://www.w3.org/1999/xlink" xml:space="preserve" xmlns:serif="http://www.serif.com/" style="fill-rule:evenodd;clip-rule:evenodd;stroke-linejoin:round;stroke-miterlimit:2;">
    <g transform="matrix(4.91778,0,0,4.91778,-1796.73,-1147.8)">
        <path d="M392.57,387.766L418.202,387.766L418.202,364.438L392.57,364.438L392.57,339.67L418.202,339.67L418.202,233.398L474.074,233.398C496.538,233.398 514.202,239.062 527.066,250.39C539.93,261.718 546.362,277.558 546.362,297.91C546.362,306.166 545.114,314.278 542.618,322.246C540.122,330.214 536.138,337.414 530.666,343.846C525.194,350.278 518.042,355.414 509.21,359.254C500.378,363.094 489.626,365.014 476.954,365.014L446.138,365.014L446.138,387.766L474.938,387.766L474.938,412.534L446.138,412.534L446.138,441.622L418.202,441.622L418.202,412.534L392.57,412.534L392.57,387.766ZM476.954,337.942C485.018,337.942 491.738,336.646 497.114,334.054C502.49,331.462 506.762,328.054 509.93,323.83C513.098,319.606 515.354,315.238 516.698,310.726C518.042,306.214 518.714,302.134 518.714,298.486C518.714,292.918 517.418,287.158 514.826,281.206C512.234,275.254 508.01,270.262 502.154,266.23C496.298,262.198 488.378,260.182 478.394,260.182L446.138,260.182L446.138,337.942L476.954,337.942Z" style="fill:rgb(0,63,32);fill-rule:nonzero;"/>
    </g>
</svg>
