<?xml version="1.0" encoding="UTF-8" standalone="no"?>
<!DOCTYPE svg PUBLIC "-//W3C//DTD SVG 1.1//EN" "http://www.w3.org/Graphics/SVG/1.1/DTD/svg11.dtd">
<svg width="100%" height="100%" viewBox="0 0 1024 1024" version="1.1" xmlns="http://www.w3.org/2000/svg" xmlns:xlink="http://www.w3.org/1999/xlink" xml:space="preserve" xmlns:serif="http://www.serif.com/" style="fill-rule:evenodd;clip-rule:evenodd;stroke-linejoin:round;stroke-miterlimit:2;">
    <g transform="matrix(1.23373,0,0,1.23373,0,0)">
        <g transform="matrix(0.415,0,0,0.415,0,0)">
            <path d="M1574.39,1673.38C1595.79,1694.78 1606.52,1724.67 1603.63,1754.79C1600.75,1784.91 1584.52,1812.21 1559.45,1829.14C1399.6,1936.9 1207.11,2000 1000,2000C792.887,2000 600.396,1936.9 440.722,1828.89C415.721,1812.01 399.546,1784.79 396.667,1754.76C393.785,1724.73 404.489,1694.93 425.823,1673.6C425.615,1673.38 425.619,1673.38 425.622,1673.37C470.405,1628.59 540.105,1620.49 593.964,1653.81C711.744,1727.56 850.955,1770 1000,1770C1149.05,1770 1288.26,1727.56 1406.22,1654.1C1459.94,1620.87 1529.46,1628.95 1574.13,1673.62C1574.38,1673.38 1574.38,1673.38 1574.39,1673.38ZM1673.38,425.611C1694.78,404.214 1724.67,393.478 1754.79,396.367C1784.91,399.254 1812.21,415.477 1829.14,440.553C1936.9,600.396 2000,792.887 2000,1000C2000,1207.11 1936.9,1399.6 1828.89,1559.28C1812.01,1584.28 1784.79,1600.45 1754.76,1603.33C1724.73,1606.22 1694.93,1595.51 1673.6,1574.18C1673.38,1574.38 1673.38,1574.38 1673.37,1574.38C1628.59,1529.6 1620.49,1459.89 1653.81,1406.04C1727.56,1288.26 1770,1149.05 1770,1000C1770,850.955 1727.56,711.744 1654.1,593.781C1620.87,540.059 1628.95,470.538 1673.62,425.872C1673.38,425.619 1673.38,425.615 1673.38,425.611ZM171.105,440.722C189.891,412.912 221.339,396.205 254.9,396.205C281.709,396.205 307.447,406.866 326.404,425.823C326.62,425.615 326.624,425.619 326.628,425.622C371.407,470.405 379.508,540.105 346.193,593.964C272.438,711.744 230,850.955 230,1000C230,1149.05 272.438,1288.26 345.898,1406.22C379.127,1459.94 371.045,1529.46 326.378,1574.13C326.624,1574.38 326.62,1574.38 326.616,1574.39C305.22,1595.79 275.334,1606.52 245.214,1603.63C215.094,1600.74 187.793,1584.52 170.855,1559.45C63.1,1399.6 0,1207.11 0,1000C0,792.887 63.1,600.396 171.105,440.722ZM1000,370C1347.71,370 1630,652.294 1630,1000C1630,1347.71 1347.71,1630 1000,1630C652.294,1630 370,1347.71 370,1000C370,652.294 652.294,370 1000,370ZM425.611,326.616C406.597,307.603 395.903,281.788 395.903,254.898C395.903,221.238 412.66,189.697 440.553,170.855C600.396,63.1 792.887,0 1000,0C1207.11,0 1399.6,63.1 1559.28,171.105C1584.28,187.994 1600.45,215.213 1603.33,245.243C1606.21,275.273 1595.51,305.071 1574.18,326.404C1574.38,326.62 1574.38,326.624 1574.38,326.628C1529.6,371.407 1459.89,379.508 1406.04,346.193C1288.26,272.438 1149.05,230 1000,230C850.955,230 711.744,272.438 593.781,345.898C540.059,379.127 470.538,371.045 425.872,326.378C425.619,326.624 425.615,326.62 425.611,326.616Z" style="fill:rgb(32,142,122);"/>
        </g>
        <g transform="matrix(2.03201,0,0,2.03201,-1627.21,-1436.95)">
            <path d="M933.212,926.083C927.515,926.083 926.692,918.499 926.692,913.123C926.692,908.131 927.748,904.627 929.86,902.611C931.972,900.595 934.564,899.587 937.636,899.587L955.204,899.587L955.204,839.971C955.204,836.515 956.212,833.779 958.228,831.763C960.244,829.747 962.884,828.259 966.148,827.299C969.22,826.339 972.724,825.475 976.66,824.707C980.596,823.939 984.628,823.267 988.756,822.691C992.868,822.117 996.998,821.684 1001.14,821.395C1005.27,821.107 1009.16,820.963 1012.8,820.963C1036.23,820.963 1053.84,825.763 1065.65,835.363C1077.46,844.963 1083.36,858.019 1083.36,874.531C1083.36,890.083 1077.94,902.563 1067.09,911.971C1056.24,921.379 1040.07,926.083 1018.56,926.083L933.212,926.083ZM991.78,965.539L991.78,984.818C991.78,984.818 991.118,993.89 987.992,997.491C985.214,1000.69 978.34,1001.83 975.076,1001.83C967.972,1001.83 962.884,1000.48 959.812,997.795C956.74,995.107 955.204,990.691 955.204,984.547L955.204,965.539L934.353,965.791C930.26,965.84 928.132,962.515 927.556,960.499C926.98,958.483 926.692,956.323 926.692,954.019C926.692,949.603 927.604,946.483 929.428,944.659C931.252,942.835 933.508,941.923 936.196,941.923C936.196,941.923 1034.78,941.592 1056.55,942.331C1062.75,942.542 1064.75,944.214 1065.65,947.251C1066.32,949.445 1066.66,951.726 1066.66,954.019C1066.66,957.859 1065.7,960.739 1063.78,962.659C1061.86,964.579 1059.56,965.539 1056.87,965.539L991.78,965.539ZM1014.53,898.147C1024.52,898.147 1032.29,896.179 1037.86,892.243C1043.43,888.307 1046.21,882.499 1046.21,874.819C1046.21,866.755 1043.24,860.707 1037.28,856.675C1031.33,852.643 1023.17,850.627 1012.8,850.627C1009.35,850.627 1005.8,850.771 1002.15,851.059C998.5,851.347 995.044,851.971 991.78,852.931L991.78,898.147L1014.53,898.147Z" style="fill:white;fill-rule:nonzero;"/>
        </g>
    </g>
</svg>
