<?xml version="1.0" encoding="UTF-8" standalone="no"?>
<!DOCTYPE svg PUBLIC "-//W3C//DTD SVG 1.1//EN" "http://www.w3.org/Graphics/SVG/1.1/DTD/svg11.dtd">
<svg width="100%" height="100%" viewBox="0 0 1024 1024" version="1.1" xmlns="http://www.w3.org/2000/svg" xmlns:xlink="http://www.w3.org/1999/xlink" xml:space="preserve" xmlns:serif="http://www.serif.com/" style="fill-rule:evenodd;clip-rule:evenodd;stroke-linejoin:round;stroke-miterlimit:2;">
    <g transform="matrix(3.99977,0,0,3.99977,0.0419972,0.0579963)">
        <path d="M255.974,0L170.645,85.329L113.767,85.329C98.061,85.329 85.317,98.062 85.317,113.768C85.317,116.964 85.85,120.044 86.819,122.91C88.221,127.036 90.555,130.785 93.639,133.864C98.785,139.021 105.903,142.218 113.756,142.218L85.316,170.657C68.449,170.657 52.722,165.756 39.477,157.316C15.727,142.154 -0.012,115.59 -0.012,85.329C-0.012,38.199 38.188,0 85.317,0L255.974,0Z" style="fill:rgb(178,254,146);fill-rule:nonzero;"/>
        <path d="M255.974,170.658C255.974,217.787 217.774,255.986 170.645,255.986L-0.012,255.986L85.317,170.658L142.206,170.658C157.912,170.658 170.645,157.925 170.645,142.219C170.645,141.814 170.645,141.419 170.624,141.025C170.624,140.748 170.603,140.492 170.581,140.226C170.581,140.162 170.581,140.109 170.56,140.034C170.56,139.864 170.539,139.683 170.517,139.512C170.517,139.363 170.496,139.214 170.475,139.065C170.454,138.915 170.443,138.745 170.411,138.596C170.411,138.5 170.39,138.404 170.379,138.319C170.347,138.063 170.304,137.818 170.272,137.573C170.272,137.552 170.272,137.53 170.251,137.509C170.198,137.189 170.145,136.88 170.07,136.561C170.064,136.462 170.042,136.365 170.006,136.273C169.942,135.953 169.867,135.634 169.793,135.314C169.772,135.25 169.761,135.186 169.74,135.122C169.663,134.822 169.581,134.524 169.495,134.227C169.387,133.851 169.27,133.478 169.143,133.108C168.919,132.448 168.663,131.787 168.397,131.148C168.22,130.731 168.032,130.319 167.832,129.912C167.653,129.525 167.461,129.145 167.257,128.771C167.001,128.292 166.724,127.823 166.458,127.365C166.281,127.081 166.1,126.801 165.914,126.523C165.713,126.209 165.5,125.904 165.275,125.607C165.182,125.468 165.082,125.333 164.977,125.202C164.817,124.978 164.646,124.765 164.465,124.541C164.316,124.339 164.145,124.136 163.975,123.934C163.737,123.654 163.495,123.377 163.25,123.103C162.952,122.772 162.654,122.453 162.334,122.144C157.01,116.796 149.763,113.791 142.217,113.801L170.656,85.361C171.21,85.361 171.764,85.361 172.318,85.383C172.734,85.383 173.149,85.403 173.576,85.415C174.696,85.448 175.815,85.508 176.932,85.595C177.294,85.617 177.667,85.649 178.03,85.692C179.425,85.798 180.821,85.958 182.196,86.139C182.601,86.192 182.995,86.246 183.4,86.309C183.933,86.384 184.476,86.469 185.009,86.565L186.128,86.757C186.213,86.778 186.309,86.778 186.394,86.81C186.884,86.896 187.385,86.992 187.875,87.088C188.493,87.215 189.122,87.354 189.74,87.492L190.123,87.588C190.752,87.738 191.391,87.887 192.009,88.047C192.031,88.047 192.052,88.047 192.073,88.067C192.734,88.238 193.384,88.419 194.034,88.601C194.705,88.792 195.387,88.995 196.048,89.208C196.652,89.389 197.252,89.58 197.849,89.783C197.923,89.815 198.008,89.847 198.094,89.869C198.68,90.071 199.276,90.273 199.862,90.497C199.948,90.519 200.033,90.561 200.118,90.593C200.736,90.817 201.354,91.041 201.962,91.296C202.612,91.541 203.251,91.808 203.89,92.085C205.208,92.634 206.509,93.224 207.79,93.854C208.373,94.133 208.952,94.421 209.527,94.717C210.145,95.037 210.752,95.345 211.349,95.676C211.956,95.996 212.553,96.336 213.15,96.677C213.746,97.018 214.332,97.37 214.929,97.722C215.473,98.052 216.027,98.382 216.559,98.723C216.613,98.755 216.655,98.787 216.709,98.819C217.852,99.557 218.978,100.321 220.086,101.11C221.201,101.902 222.295,102.723 223.368,103.571C223.858,103.955 224.338,104.339 224.817,104.744C224.903,104.807 224.977,104.871 225.062,104.935C226.604,106.213 228.101,107.546 229.548,108.931C230.039,109.411 230.529,109.879 231.019,110.37C231.509,110.86 231.978,111.339 232.457,111.84C232.926,112.33 233.384,112.831 233.853,113.332C234.663,114.227 235.462,115.133 236.229,116.06C236.4,116.251 236.56,116.464 236.719,116.667C237.092,117.114 237.455,117.562 237.817,118.02C238.654,119.079 239.464,120.159 240.246,121.259C241.028,122.359 240.268,121.281 240.268,121.302C240.673,121.856 241.056,122.421 241.44,122.996C241.823,123.561 242.196,124.136 242.58,124.712C242.942,125.287 243.305,125.852 243.656,126.438C243.72,126.555 243.795,126.672 243.859,126.779C244.146,127.258 244.434,127.738 244.711,128.228C245.052,128.825 245.393,129.421 245.713,130.029C245.958,130.476 246.203,130.935 246.437,131.393C247.069,132.615 247.673,133.852 248.249,135.101C248.408,135.442 248.568,135.783 248.717,136.134C248.952,136.656 249.176,137.179 249.399,137.711C249.634,138.276 249.868,138.851 250.092,139.416C250.305,139.949 250.518,140.503 250.71,141.046C250.806,141.292 250.902,141.547 250.987,141.803C251.136,142.197 251.275,142.581 251.403,142.975C251.669,143.753 251.935,144.541 252.17,145.33C252.362,145.905 252.532,146.491 252.692,147.067C252.745,147.216 252.788,147.376 252.83,147.525C253.001,148.132 253.161,148.74 253.321,149.347C253.321,149.368 253.342,149.39 253.342,149.411C253.491,149.986 253.64,150.572 253.768,151.148C253.971,152 254.162,152.874 254.344,153.737C254.45,154.249 254.535,154.76 254.631,155.282C254.738,155.826 254.823,156.369 254.908,156.912C254.972,157.307 255.036,157.701 255.1,158.106C255.164,158.585 255.239,159.065 255.292,159.544C255.335,159.843 255.366,160.13 255.398,160.429C255.462,160.929 255.516,161.441 255.569,161.952L255.569,161.974C255.644,162.666 255.707,163.348 255.761,164.041C255.761,164.105 255.761,164.19 255.782,164.265C255.835,164.915 255.867,165.554 255.899,166.204C255.899,166.289 255.899,166.385 255.921,166.481C255.953,167.11 255.974,167.738 255.984,168.367L255.984,168.655C256.006,169.337 256.006,170.019 256.006,170.701L255.974,170.658Z" style="fill:rgb(7,132,101);fill-rule:nonzero;"/>
    </g>
</svg>
