<?xml version="1.0" encoding="UTF-8" standalone="no"?>
<!DOCTYPE svg PUBLIC "-//W3C//DTD SVG 1.1//EN" "http://www.w3.org/Graphics/SVG/1.1/DTD/svg11.dtd">
<svg width="100%" height="100%" viewBox="0 0 1024 1024" version="1.1" xmlns="http://www.w3.org/2000/svg" xmlns:xlink="http://www.w3.org/1999/xlink" xml:space="preserve" xmlns:serif="http://www.serif.com/" style="fill-rule:evenodd;clip-rule:evenodd;stroke-linejoin:round;stroke-miterlimit:2;">
    <g transform="matrix(3.95941,0,0,3.98627,3.48795,1.9994)">
        <path d="M128.318,213.573C176.216,213.573 214.778,175.011 214.778,128.331C214.778,81.651 176.216,43.09 128.318,43.09C80.421,43.09 41.859,81.651 41.859,128.331C41.859,175.011 80.421,213.573 128.318,213.573Z" style="fill:rgb(239,72,0);fill-rule:nonzero;"/>
        <path d="M200.78,218.665C205.428,223.068 205.145,230.591 199.814,234.138C149.669,267.502 81.579,262.61 37.046,218.458C-13.693,168.125 -13.693,87.754 37.046,37.421C81.348,-6.88 150.083,-11.656 200.317,22.08C205.411,25.502 205.777,32.68 201.438,37.02C197.735,40.722 191.874,41.018 187.498,38.143C145.729,10.715 88.821,15.685 52.471,52.035C9.445,93.843 9.445,162.036 51.66,203.845C88.016,240.201 144.938,245.167 186.708,217.722C191.101,214.835 196.964,215.05 200.78,218.665ZM219.508,200.361C223.914,205.012 231.439,204.753 235.013,199.436C264.096,156.171 263.973,99.052 234.643,55.904C231.206,50.849 224.063,50.511 219.74,54.834C216.016,58.557 215.738,64.458 218.66,68.839C242.264,104.234 242.228,150.27 218.553,186.256C215.656,190.659 215.883,196.534 219.508,200.361Z" style="fill:rgb(239,72,0);fill-rule:nonzero;"/>
    </g>
</svg>
