<?xml version="1.0" encoding="UTF-8" standalone="no"?>
<!DOCTYPE svg PUBLIC "-//W3C//DTD SVG 1.1//EN" "http://www.w3.org/Graphics/SVG/1.1/DTD/svg11.dtd">
<svg width="100%" height="100%" viewBox="0 0 1024 1024" version="1.1" xmlns="http://www.w3.org/2000/svg" xmlns:xlink="http://www.w3.org/1999/xlink" xml:space="preserve" xmlns:serif="http://www.serif.com/" style="fill-rule:evenodd;clip-rule:evenodd;stroke-linejoin:round;stroke-miterlimit:2;">
    <g transform="matrix(4.33898,0,0,4.33898,-34.7119,-71.5932)">
        <path d="M149.957,142.618L149.957,142.587C148.612,142.68 141.669,143.086 126.219,143.086C113.865,143.086 105.202,142.743 102.137,142.587L102.137,142.618C54.631,140.526 19.197,132.283 19.197,122.385C19.197,112.519 54.662,104.245 102.137,102.153L102.137,134.406C105.234,134.625 114.147,135.156 126.438,135.156C141.2,135.156 148.58,134.531 149.957,134.406L149.957,102.184C197.369,104.307 232.71,112.55 232.71,122.417C232.71,132.283 197.338,140.526 149.957,142.649M149.957,98.843L149.957,69.993L216.103,69.993L216.103,26L36.023,26L36.023,69.993L102.169,69.993L102.169,98.843C48.407,101.31 8,111.926 8,124.665C8,137.404 48.438,148.02 102.169,150.517L102.169,243L149.988,243L149.988,150.517C203.655,148.051 244,137.435 244,124.696C244,111.988 203.655,101.341 149.988,98.874" style="fill:rgb(38,161,123);fill-rule:nonzero;"/>
    </g>
</svg>
