<?xml version="1.0" encoding="UTF-8" standalone="no"?>
<!DOCTYPE svg PUBLIC "-//W3C//DTD SVG 1.1//EN" "http://www.w3.org/Graphics/SVG/1.1/DTD/svg11.dtd">
<svg width="100%" height="100%" viewBox="0 0 1024 1024" version="1.1" xmlns="http://www.w3.org/2000/svg" xmlns:xlink="http://www.w3.org/1999/xlink" xml:space="preserve" xmlns:serif="http://www.serif.com/" style="fill-rule:evenodd;clip-rule:evenodd;stroke-linejoin:round;stroke-miterlimit:2;">
    <g transform="matrix(3.12899,0,0,3.12899,-284.324,-512.682)">
        <path d="M260.011,491.112L229.861,491.112L229.861,452.862L170.799,452.862L170.799,208.962L229.861,208.962L229.861,163.849L260.011,163.849L260.011,209.637C276.361,209.937 290.086,212.487 301.186,217.287L301.074,217.287C309.699,220.887 316.636,227.449 321.886,236.974C324.211,241.399 325.974,245.843 327.174,250.305C328.374,254.768 328.974,259.362 328.974,264.087C328.974,284.712 320.949,301.549 304.899,314.599C302.949,316.249 300.98,317.768 298.993,319.155C297.005,320.543 294.736,322.024 292.186,323.599C299.461,326.224 306.118,329.693 312.155,334.005C318.193,338.318 323.461,343.399 327.961,349.249C334.786,358.249 338.199,369.874 338.199,384.124C338.199,396.499 335.049,407.974 328.749,418.549C322.599,428.974 314.049,437.149 303.099,443.074C292.074,449.149 277.711,452.412 260.011,452.862L260.011,491.112ZM260.011,308.524C261.736,308.074 263.555,307.437 265.468,306.612C267.38,305.787 269.386,304.812 271.486,303.687C273.886,302.412 276.211,300.537 278.461,298.062C280.711,295.587 282.736,292.549 284.536,288.949C286.336,285.274 287.705,281.787 288.643,278.487C289.58,275.187 290.049,271.999 290.049,268.924C290.049,261.349 286.936,254.937 280.711,249.687C277.111,246.162 270.211,243.649 260.011,242.149L260.011,308.524ZM229.861,241.474L210.061,241.474L210.061,311.112L229.861,311.112L229.861,241.474ZM260.011,420.574C262.636,420.424 265.168,420.143 267.605,419.73C270.043,419.318 272.461,418.737 274.861,417.987C277.486,417.162 279.886,416.13 282.061,414.893C284.236,413.655 286.224,412.212 288.024,410.562L287.911,410.562C294.661,404.037 298.036,396.012 298.036,386.487C298.036,379.212 295.936,372.274 291.736,365.674L291.849,365.674C288.024,359.824 281.874,354.874 273.399,350.824C268.824,348.574 264.361,346.812 260.011,345.537L260.011,420.574ZM210.061,343.174L210.061,420.687L229.861,420.687L229.861,343.174L210.061,343.174Z" style="fill:rgb(0,63,32);fill-rule:nonzero;"/>
    </g>
</svg>
