<?xml version="1.0" encoding="UTF-8" standalone="no"?>
<!DOCTYPE svg PUBLIC "-//W3C//DTD SVG 1.1//EN" "http://www.w3.org/Graphics/SVG/1.1/DTD/svg11.dtd">
<svg width="100%" height="100%" viewBox="0 0 1024 1024" version="1.1" xmlns="http://www.w3.org/2000/svg" xmlns:xlink="http://www.w3.org/1999/xlink" xml:space="preserve" xmlns:serif="http://www.serif.com/" style="fill-rule:evenodd;clip-rule:evenodd;stroke-linejoin:round;stroke-miterlimit:2;">
    <g transform="matrix(4,0,0,4,512,512)">
        <g transform="matrix(1,0,0,1,-128,-128)">
            <g transform="matrix(0.128,0,0,0.128,0,0)">
                <path d="M1574.39,1673.38C1595.79,1694.78 1606.52,1724.67 1603.63,1754.79C1600.75,1784.91 1584.52,1812.21 1559.45,1829.14C1399.6,1936.9 1207.11,2000 1000,2000C792.887,2000 600.396,1936.9 440.722,1828.89C415.721,1812.01 399.546,1784.79 396.667,1754.76C393.785,1724.73 404.489,1694.93 425.823,1673.6C425.615,1673.38 425.619,1673.38 425.622,1673.37C470.405,1628.59 540.105,1620.49 593.964,1653.81C711.744,1727.56 850.955,1770 1000,1770C1149.05,1770 1288.26,1727.56 1406.22,1654.1C1459.94,1620.87 1529.46,1628.95 1574.13,1673.62C1574.38,1673.38 1574.38,1673.38 1574.39,1673.38ZM1673.38,425.611C1694.78,404.214 1724.67,393.478 1754.79,396.367C1784.91,399.254 1812.21,415.477 1829.14,440.553C1936.9,600.396 2000,792.887 2000,1000C2000,1207.11 1936.9,1399.6 1828.89,1559.28C1812.01,1584.28 1784.79,1600.45 1754.76,1603.33C1724.73,1606.22 1694.93,1595.51 1673.6,1574.18C1673.38,1574.38 1673.38,1574.38 1673.37,1574.38C1628.59,1529.6 1620.49,1459.89 1653.81,1406.04C1727.56,1288.26 1770,1149.05 1770,1000C1770,850.955 1727.56,711.744 1654.1,593.781C1620.87,540.059 1628.95,470.538 1673.62,425.872C1673.38,425.619 1673.38,425.615 1673.38,425.611ZM171.105,440.722C189.891,412.912 221.339,396.205 254.9,396.205C281.709,396.205 307.447,406.866 326.404,425.823C326.62,425.615 326.624,425.619 326.628,425.622C371.407,470.405 379.508,540.105 346.193,593.964C272.438,711.744 230,850.955 230,1000C230,1149.05 272.438,1288.26 345.898,1406.22C379.127,1459.94 371.045,1529.46 326.378,1574.13C326.624,1574.38 326.62,1574.38 326.616,1574.39C305.22,1595.79 275.334,1606.52 245.214,1603.63C215.094,1600.74 187.793,1584.52 170.855,1559.45C63.1,1399.6 0,1207.11 0,1000C0,792.887 63.1,600.396 171.105,440.722ZM1000,370C1347.71,370 1630,652.294 1630,1000C1630,1347.71 1347.71,1630 1000,1630C652.294,1630 370,1347.71 370,1000C370,652.294 652.294,370 1000,370ZM425.611,326.616C406.597,307.603 395.903,281.788 395.903,254.898C395.903,221.238 412.66,189.697 440.553,170.855C600.396,63.1 792.887,0 1000,0C1207.11,0 1399.6,63.1 1559.28,171.105C1584.28,187.994 1600.45,215.213 1603.33,245.243C1606.21,275.273 1595.51,305.071 1574.18,326.404C1574.38,326.62 1574.38,326.624 1574.38,326.628C1529.6,371.407 1459.89,379.508 1406.04,346.193C1288.26,272.438 1149.05,230 1000,230C850.955,230 711.744,272.438 593.781,345.898C540.059,379.127 470.538,371.045 425.872,326.378C425.619,326.624 425.615,326.62 425.611,326.616Z" style="fill:rgb(32,142,122);"/>
            </g>
            <g transform="matrix(0.49705,0,0,0.49705,-374.924,-322.765)">
                <path d="M1067.85,899.888C1070.02,897.282 1071.92,894.385 1073.54,891.196C1077.08,884.224 1078.84,876.885 1078.84,869.183L1078.84,855.112C1078.84,840.336 1073.07,828.472 1061.57,819.501C1051.12,811.356 1037.54,806.968 1020.7,806.691L1020.7,784.753C1020.7,780.759 1017.41,777.473 1013.42,777.472L994.3,777.472C990.306,777.472 987.019,780.759 987.019,784.753L987.019,806.677L958.463,806.677C944.467,806.677 933.122,818.023 933.122,832.018L933.122,982.553C933.122,989.827 935.519,995.666 940.033,1000.18C944.548,1004.7 950.387,1007.09 957.661,1007.09L987.019,1007.09L987.019,1029.02C987.019,1033.04 990.279,1036.3 994.3,1036.3L1013.42,1036.3C1017.41,1036.3 1020.7,1033.01 1020.7,1029.02L1020.7,1007.09L1032,1007.09C1049.9,1007.09 1064,1001.9 1074.46,991.942C1085.07,981.842 1090.53,968.487 1090.53,951.755L1090.53,939.011C1090.53,928.441 1087.37,919.205 1081.13,911.277C1077.43,906.57 1073.01,902.769 1067.85,899.888ZM1056.32,939.011L1056.32,951.755C1056.32,958.705 1054.14,964.337 1049.53,968.547C1044.63,973.014 1037.86,975.006 1029.35,975.006L967.332,975.006L967.332,921.6L1034.66,921.6C1041.36,921.6 1046.82,923.152 1050.92,926.637C1054.57,929.744 1056.32,933.893 1056.32,939.011ZM967.332,890.576L967.332,838.763L1018.99,838.763C1026.98,838.763 1033.53,840.365 1038.54,843.924C1042.55,846.768 1044.63,850.467 1044.63,855.112L1044.63,869.183C1044.63,875.724 1042.91,881.029 1039.11,884.966C1035.4,888.808 1030.42,890.576 1024.3,890.576L967.332,890.576Z" style="fill:white;fill-rule:nonzero;"/>
            </g>
        </g>
    </g>
</svg>
