<?xml version="1.0" encoding="UTF-8" standalone="no"?>
<!DOCTYPE svg PUBLIC "-//W3C//DTD SVG 1.1//EN" "http://www.w3.org/Graphics/SVG/1.1/DTD/svg11.dtd">
<svg width="100%" height="100%" viewBox="0 0 1024 1024" version="1.1" xmlns="http://www.w3.org/2000/svg" xmlns:xlink="http://www.w3.org/1999/xlink" xml:space="preserve" xmlns:serif="http://www.serif.com/" style="fill-rule:evenodd;clip-rule:evenodd;stroke-linejoin:round;stroke-miterlimit:2;">
    <g transform="matrix(4,0,0,4,512,512)">
        <g transform="matrix(1,0,0,1,-128,-53)">
            <clipPath id="_clip1">
                <rect x="0" y="0" width="256" height="106"/>
            </clipPath>
            <g clip-path="url(#_clip1)">
                <path d="M65.243,24.033L84.521,24.033C85.423,24.033 86.151,24.759 86.151,25.658L86.151,78.581C86.151,79.481 85.423,80.206 84.521,80.206L65.243,80.206C64.341,80.206 63.613,79.48 63.613,78.581L63.613,25.658C63.613,24.759 64.341,24.033 65.243,24.033ZM136.146,23.094C145.66,23.094 152.925,25.558 157.934,30.488C162.819,35.292 165.258,42.161 165.258,51.083L165.258,78.573C165.258,79.473 164.53,80.198 163.628,80.198L144.351,80.198C143.449,80.198 142.721,79.472 142.721,78.573L142.721,51.456C142.721,45.026 138.026,41.814 128.637,41.814C119.248,41.814 114.554,45.032 114.554,51.456L114.554,78.573C114.554,79.473 113.825,80.198 112.924,80.198L93.646,80.198C92.744,80.198 92.016,79.472 92.016,78.573L92.016,25.651C92.016,24.751 92.744,24.025 93.646,24.025L112.924,24.025C113.825,24.025 114.554,24.751 114.554,25.651L114.554,30.298C119.558,25.498 126.757,23.094 136.146,23.094ZM256.004,24.746C256.001,23.866 255.286,23.138 254.406,23.121C250.76,23.023 242.469,23.744 237.025,27.433C235.715,28.321 234.449,29.226 233.324,30.303L233.324,30.314C226.897,25.504 217.72,23.094 205.761,23.094C193.492,23.094 184.097,25.656 177.588,30.769C171.329,35.764 168.199,42.876 168.199,52.117C168.199,61.353 171.329,68.471 177.588,73.465C181.772,76.753 187.151,78.979 193.715,80.155L193.715,80.16C197.529,80.87 201.979,81.233 207.304,81.179C208.808,81.133 210.31,81.045 211.808,80.913C212.987,80.824 214.162,80.701 215.334,80.545C216.036,80.46 216.737,80.366 217.437,80.263C219.022,80.025 220.522,81.132 220.762,82.717C220.994,84.302 219.881,85.798 218.296,86.032C214.041,86.661 209.406,87.04 205.891,87.04C201.713,87.04 197.811,86.758 194.193,86.195C191.817,85.833 189.467,85.317 187.157,84.651C186.325,84.412 185.439,84.875 185.162,85.696L180.403,99.932C180.133,100.746 180.55,101.642 181.348,101.958C187.428,104.401 194.263,105.294 200.773,105.652C209.738,106.145 219.399,105.934 228.13,103.713C230.271,103.171 232.406,102.456 234.346,101.427C235.628,100.75 236.829,99.932 237.889,98.94C240.317,96.665 241.888,93.572 242.637,90.333C244.18,83.697 243.289,75.545 236.834,71.851C236.612,71.726 236.373,71.601 236.128,71.483C240.915,66.651 243.311,60.193 243.311,52.117C243.311,48.52 242.828,45.249 241.882,42.297C243.496,41.982 245.332,41.814 247.403,41.814C249.934,41.814 252.124,42.047 253.972,42.519C254.101,42.552 254.234,42.568 254.368,42.568C255.259,42.568 255.993,41.834 255.993,40.943C255.993,40.943 255.993,40.942 255.993,40.942L256.004,24.746ZM205.761,41.82C215.774,41.82 220.784,45.254 220.784,52.117C220.784,58.986 215.774,62.415 205.761,62.415C195.741,62.415 190.737,58.98 190.737,52.117C190.737,45.254 195.741,41.82 205.761,41.82ZM57.75,40.19L57.75,25.656C57.75,24.757 57.023,24.031 56.12,24.031L35.218,24.031L35.218,2.011C35.218,0.901 34.126,0.121 33.072,0.468L13.794,6.887C13.131,7.107 12.68,7.731 12.68,8.43L12.68,24.036L1.634,24.036C0.732,24.036 0.004,24.762 0.004,25.661L0.004,40.19C0.004,41.089 0.732,41.815 1.634,41.815L12.68,41.815L12.68,59.652C12.68,67.452 15.277,73.042 20.472,76.412C25.416,79.592 33.463,81.184 44.607,81.184C48.797,81.184 52.73,80.859 56.419,80.214C57.187,80.074 57.751,79.398 57.751,78.617L57.751,63.233C57.751,62.215 56.821,61.451 55.816,61.64C52.85,62.193 50.051,62.464 47.422,62.464C43.227,62.464 40.222,62.084 38.408,61.337C36.278,60.53 35.218,59.029 35.218,56.847L35.218,41.814L56.12,41.814C57.023,41.814 57.75,41.088 57.75,40.189L57.75,40.19ZM84.521,18.193L65.243,18.193C64.341,18.193 63.613,17.467 63.613,16.568L63.613,2.002C63.613,1.102 64.341,0.377 65.243,0.377L84.521,0.377C85.423,0.377 86.151,1.103 86.151,2.002L86.151,16.568C86.151,17.462 85.418,18.193 84.521,18.193Z" style="fill:rgb(255,153,32);fill-rule:nonzero;"/>
            </g>
        </g>
    </g>
</svg>
