<?xml version="1.0" encoding="UTF-8" standalone="no"?>
<!DOCTYPE svg PUBLIC "-//W3C//DTD SVG 1.1//EN" "http://www.w3.org/Graphics/SVG/1.1/DTD/svg11.dtd">
<svg width="100%" height="100%" viewBox="0 0 1024 1024" version="1.1" xmlns="http://www.w3.org/2000/svg" xmlns:xlink="http://www.w3.org/1999/xlink" xml:space="preserve" xmlns:serif="http://www.serif.com/" style="fill-rule:evenodd;clip-rule:evenodd;stroke-linejoin:round;stroke-miterlimit:2;">
    <g transform="matrix(4.02784,0,0,4.02784,127.811,-3.52556)">
        <path d="M0,59.259C0,50.099 7.443,42.661 16.614,42.661L95.384,42.661L136.168,3.75C140.012,0.082 146.141,0.082 149.985,3.75L190.767,42.662L190.767,195.802C190.767,205.47 182.912,213.318 173.234,213.318L95.382,213.318L54.6,252.231C50.756,255.899 44.626,255.899 40.782,252.231L0,213.317L0,59.259ZM122.573,118.998C120.735,120.833 117.712,120.833 115.874,118.998L115.871,118.995L102.756,105.896C98.687,101.829 92.076,101.829 88.007,105.896L74.893,118.998C73.053,120.832 70.033,120.832 68.193,118.998L68.19,118.995L55.067,105.885C50.995,101.817 44.387,101.817 40.315,105.885L25.563,120.622C21.494,124.689 21.494,131.291 25.563,135.359L40.315,150.093C44.387,154.161 50.995,154.161 55.067,150.093L68.193,136.98C70.025,135.152 73.037,135.153 74.867,136.983L74.873,136.983L88.007,150.105C92.076,154.172 98.687,154.172 102.756,150.105L115.891,136.983C117.726,135.152 120.741,135.152 122.576,136.983L135.7,150.093C139.771,154.161 146.38,154.161 150.451,150.093L165.203,135.359C169.272,131.291 169.272,124.689 165.203,120.622L150.451,105.885C146.38,101.817 139.771,101.817 135.7,105.885L122.573,118.998Z" style="fill:rgb(241,162,0);"/>
    </g>
</svg>
