<?xml version="1.0" encoding="UTF-8" standalone="no"?>
<!DOCTYPE svg PUBLIC "-//W3C//DTD SVG 1.1//EN" "http://www.w3.org/Graphics/SVG/1.1/DTD/svg11.dtd">
<svg width="100%" height="100%" viewBox="0 0 1024 1024" version="1.1" xmlns="http://www.w3.org/2000/svg" xmlns:xlink="http://www.w3.org/1999/xlink" xml:space="preserve" xmlns:serif="http://www.serif.com/" style="fill-rule:evenodd;clip-rule:evenodd;stroke-linejoin:round;stroke-miterlimit:2;">
    <g transform="matrix(4,0,0,4,0,0)">
        <path d="M90.331,5.65C102.235,1.975 114.907,0 128,0L128,128L0,128C0,114.871 1.975,102.235 5.65,90.313C18.066,49.92 49.938,18.048 90.331,5.65Z" style="fill:rgb(162,196,184);fill-rule:nonzero;"/>
    </g>
    <g transform="matrix(4,0,0,4,0,0)">
        <path d="M128,192C128,209.682 120.832,225.682 109.257,237.239C103.789,242.721 97.37,247.163 90.313,250.35C82.043,254.081 73.073,256.008 64,256C46.318,256 30.318,248.832 18.743,237.239C7.168,225.682 0,209.682 0,192C0,182.619 2.03,173.714 5.65,165.687C8.83,158.631 13.267,152.212 18.743,146.743C30.336,135.15 46.336,128 64,128C64,145.682 71.168,161.682 82.743,173.239C94.336,184.832 110.336,192 128,192ZM256,128L128,128L128,0C141.111,0 153.746,1.975 165.65,5.65L165.669,5.65C206.062,18.048 237.934,49.92 250.35,90.313C254.043,102.235 256,114.89 256,128ZM256,128L256,192C256,209.682 248.832,225.682 237.257,237.239C225.664,248.832 209.664,256 192,256C182.927,256.008 173.957,254.081 165.687,250.35C158.636,247.154 152.218,242.713 146.743,237.239C135.168,225.682 128,209.682 128,192L128,128L256,128Z" style="fill:rgb(9,146,80);fill-rule:nonzero;"/>
    </g>
</svg>
