<?xml version="1.0" encoding="UTF-8" standalone="no"?>
<!DOCTYPE svg PUBLIC "-//W3C//DTD SVG 1.1//EN" "http://www.w3.org/Graphics/SVG/1.1/DTD/svg11.dtd">
<svg width="100%" height="100%" viewBox="0 0 1024 1024" version="1.1" xmlns="http://www.w3.org/2000/svg" xmlns:xlink="http://www.w3.org/1999/xlink" xml:space="preserve" xmlns:serif="http://www.serif.com/" style="fill-rule:evenodd;clip-rule:evenodd;stroke-linejoin:round;stroke-miterlimit:2;">
    <g transform="matrix(4.36557,0,0,4.36557,-904.993,-1390.79)">
        <path d="M317.833,529.377C297.771,528.627 282.044,523.916 270.654,515.244C259.263,506.573 251.833,493.565 248.365,476.221L280.427,470.034C282.396,480.815 286.38,488.784 292.38,493.94C298.38,499.096 306.865,502.143 317.833,503.08L317.833,443.174C313.615,442.143 309.161,440.948 304.474,439.588C299.786,438.229 295.333,436.776 291.115,435.229C286.896,433.682 283.427,432.112 280.708,430.518C272.365,425.737 266.107,419.83 261.935,412.799C257.763,405.768 255.677,397.049 255.677,386.643C255.677,371.362 260.997,359.526 271.638,351.135C282.279,342.744 297.677,338.127 317.833,337.284L317.833,318.58L333.865,318.58L333.865,337.284C345.49,337.846 355.38,339.674 363.536,342.768C371.693,345.862 378.419,350.807 383.716,357.604C389.013,364.401 393.115,373.565 396.021,385.096L363.115,390.299C361.521,381.955 358.427,375.487 353.833,370.893C349.24,366.299 342.583,363.487 333.865,362.455L333.865,416.315C338.083,417.159 342.63,418.237 347.505,419.549C352.38,420.862 357.724,422.549 363.536,424.612C376.286,429.205 385.685,435.604 391.732,443.807C397.779,452.01 400.802,462.393 400.802,474.955C400.802,491.455 395.107,504.369 383.716,513.698C372.326,523.026 355.708,528.159 333.865,529.096L333.865,553.143L317.833,553.143L317.833,529.377ZM288.302,386.08C288.302,390.768 289.193,394.612 290.974,397.612C292.943,401.174 295.919,403.987 299.904,406.049C303.888,408.112 309.865,410.362 317.833,412.799L317.833,361.893C298.146,363.205 288.302,371.268 288.302,386.08ZM368.318,475.518C368.318,470.362 367.357,466.143 365.435,462.862C363.513,459.58 360.724,456.862 357.068,454.705C353.318,452.643 345.583,449.971 333.865,446.69L333.865,503.08C345.208,502.33 353.786,499.635 359.599,494.994C365.411,490.354 368.318,483.862 368.318,475.518Z" style="fill:rgb(0,63,32);fill-rule:nonzero;"/>
    </g>
</svg>
