<?xml version="1.0" encoding="UTF-8" standalone="no"?>
<!DOCTYPE svg PUBLIC "-//W3C//DTD SVG 1.1//EN" "http://www.w3.org/Graphics/SVG/1.1/DTD/svg11.dtd">
<svg width="100%" height="100%" viewBox="0 0 1024 1024" version="1.1" xmlns="http://www.w3.org/2000/svg" xmlns:xlink="http://www.w3.org/1999/xlink" xml:space="preserve" xmlns:serif="http://www.serif.com/" style="fill-rule:evenodd;clip-rule:evenodd;stroke-linejoin:round;stroke-miterlimit:2;">
    <g transform="matrix(0.512,0,0,0.512,0,0)">
        <path d="M1574.39,1673.38C1595.79,1694.78 1606.52,1724.67 1603.63,1754.79C1600.75,1784.91 1584.52,1812.21 1559.45,1829.14C1399.6,1936.9 1207.11,2000 1000,2000C792.887,2000 600.396,1936.9 440.722,1828.89C415.721,1812.01 399.546,1784.79 396.667,1754.76C393.785,1724.73 404.489,1694.93 425.823,1673.6C425.615,1673.38 425.619,1673.38 425.622,1673.37C470.405,1628.59 540.105,1620.49 593.964,1653.81C711.744,1727.56 850.955,1770 1000,1770C1149.05,1770 1288.26,1727.56 1406.22,1654.1C1459.94,1620.87 1529.46,1628.95 1574.13,1673.62C1574.38,1673.38 1574.38,1673.38 1574.39,1673.38ZM1673.38,425.611C1694.78,404.214 1724.67,393.478 1754.79,396.367C1784.91,399.254 1812.21,415.477 1829.14,440.553C1936.9,600.396 2000,792.887 2000,1000C2000,1207.11 1936.9,1399.6 1828.89,1559.28C1812.01,1584.28 1784.79,1600.45 1754.76,1603.33C1724.73,1606.22 1694.93,1595.51 1673.6,1574.18C1673.38,1574.38 1673.38,1574.38 1673.37,1574.38C1628.59,1529.6 1620.49,1459.89 1653.81,1406.04C1727.56,1288.26 1770,1149.05 1770,1000C1770,850.955 1727.56,711.744 1654.1,593.781C1620.87,540.059 1628.95,470.538 1673.62,425.872C1673.38,425.619 1673.38,425.615 1673.38,425.611ZM171.105,440.722C189.891,412.912 221.339,396.205 254.9,396.205C281.709,396.205 307.447,406.866 326.404,425.823C326.62,425.615 326.624,425.619 326.628,425.622C371.407,470.405 379.508,540.105 346.193,593.964C272.438,711.744 230,850.955 230,1000C230,1149.05 272.438,1288.26 345.898,1406.22C379.127,1459.94 371.045,1529.46 326.378,1574.13C326.624,1574.38 326.62,1574.38 326.616,1574.39C305.22,1595.79 275.334,1606.52 245.214,1603.63C215.094,1600.74 187.793,1584.52 170.855,1559.45C63.1,1399.6 0,1207.11 0,1000C0,792.887 63.1,600.396 171.105,440.722ZM1000,370C1347.71,370 1630,652.294 1630,1000C1630,1347.71 1347.71,1630 1000,1630C652.294,1630 370,1347.71 370,1000C370,652.294 652.294,370 1000,370ZM425.611,326.616C406.597,307.603 395.903,281.788 395.903,254.898C395.903,221.238 412.66,189.697 440.553,170.855C600.396,63.1 792.887,0 1000,0C1207.11,0 1399.6,63.1 1559.28,171.105C1584.28,187.994 1600.45,215.213 1603.33,245.243C1606.21,275.273 1595.51,305.071 1574.18,326.404C1574.38,326.62 1574.38,326.624 1574.38,326.628C1529.6,371.407 1459.89,379.508 1406.04,346.193C1288.26,272.438 1149.05,230 1000,230C850.955,230 711.744,272.438 593.781,345.898C540.059,379.127 470.538,371.045 425.872,326.378C425.619,326.624 425.615,326.62 425.611,326.616Z" style="fill:rgb(32,142,122);"/>
    </g>
    <g transform="matrix(0.512,0,0,0.512,2.132,-5.332)">
        <path d="M1275,1158.33C1275,1012.5 1187.5,962.5 1012.5,941.67C887.5,925 862.5,891.67 862.5,833.33C862.5,774.99 904.17,737.5 987.5,737.5C1062.5,737.5 1104.17,762.5 1125,825C1129.17,837.5 1141.67,845.83 1154.17,845.83L1220.83,845.83C1237.5,845.83 1250,833.33 1250,816.67L1250,812.5C1233.33,720.83 1158.33,650 1062.5,641.67L1062.5,541.67C1062.5,525 1050,512.5 1029.17,508.33L966.67,508.33C950,508.33 937.5,520.83 933.33,541.67L933.33,637.5C808.33,654.17 729.17,737.5 729.17,841.67C729.17,979.17 812.5,1033.33 987.5,1054.17C1104.17,1075 1141.67,1100 1141.67,1166.67C1141.67,1233.34 1083.33,1279.17 1004.17,1279.17C895.83,1279.17 858.33,1233.33 845.83,1170.83C841.67,1154.17 829.17,1145.83 816.67,1145.83L745.83,1145.83C729.17,1145.83 716.67,1158.33 716.67,1175L716.67,1179.17C733.33,1283.33 800,1358.33 937.5,1379.17L937.5,1479.17C937.5,1495.83 950,1508.33 970.83,1512.5L1033.33,1512.5C1050,1512.5 1062.5,1500 1066.67,1479.17L1066.67,1379.17C1191.67,1358.33 1275,1270.83 1275,1158.33Z" style="fill:white;fill-rule:nonzero;"/>
    </g>
</svg>
