<?xml version="1.0" encoding="UTF-8" standalone="no"?>
<!DOCTYPE svg PUBLIC "-//W3C//DTD SVG 1.1//EN" "http://www.w3.org/Graphics/SVG/1.1/DTD/svg11.dtd">
<svg width="100%" height="100%" viewBox="0 0 1024 1024" version="1.1" xmlns="http://www.w3.org/2000/svg" xmlns:xlink="http://www.w3.org/1999/xlink" xml:space="preserve" xmlns:serif="http://www.serif.com/" style="fill-rule:evenodd;clip-rule:evenodd;stroke-linejoin:round;stroke-miterlimit:2;">
    <g transform="matrix(4.06892,0,0,4.06892,7.85894,0)">
        <path d="M218.476,101.174C222.433,74.73 202.297,60.514 174.763,51.031L183.694,15.209L161.887,9.775L153.192,44.653C147.459,43.224 141.571,41.877 135.72,40.542L144.478,5.434L122.683,0L113.746,35.81C109,34.728 104.342,33.66 99.82,32.536L99.845,32.425L69.771,24.916L63.971,48.205C63.971,48.205 80.151,51.913 79.808,52.142C88.641,54.347 90.237,60.191 89.97,64.824L79.796,105.633C80.405,105.788 81.194,106.011 82.063,106.359C81.336,106.179 80.56,105.98 79.759,105.788L65.499,162.955C64.417,165.637 61.679,169.662 55.505,168.134C55.722,168.451 39.655,164.178 39.655,164.178L28.828,189.138L57.206,196.211C62.486,197.534 67.66,198.919 72.753,200.223L63.728,236.454L85.51,241.889L94.448,206.042C100.224,207.608 106.017,209.111 111.826,210.551L102.92,246.23L124.727,251.664L133.751,215.501C170.937,222.537 198.899,219.699 210.669,186.07C220.153,158.992 210.197,143.373 190.632,133.188C204.88,129.903 215.613,120.531 218.476,101.174ZM168.651,171.034C161.912,198.112 116.317,183.474 101.535,179.803L113.51,131.803C128.292,135.492 175.695,142.796 168.651,171.034ZM175.396,100.782C169.247,125.413 131.298,112.899 118.988,109.831L129.845,66.296C142.155,69.364 181.8,75.09 175.396,100.782Z" style="fill-rule:nonzero;"/>
    </g>
</svg>
