<?xml version="1.0" encoding="UTF-8" standalone="no"?>
<!DOCTYPE svg PUBLIC "-//W3C//DTD SVG 1.1//EN" "http://www.w3.org/Graphics/SVG/1.1/DTD/svg11.dtd">
<svg width="100%" height="100%" viewBox="0 0 1024 1024" version="1.1" xmlns="http://www.w3.org/2000/svg" xmlns:xlink="http://www.w3.org/1999/xlink" xml:space="preserve" xmlns:serif="http://www.serif.com/" style="fill-rule:evenodd;clip-rule:evenodd;stroke-linejoin:round;stroke-miterlimit:2;">
    <g transform="matrix(3.99999,0,0,3.99999,0.00379189,0)">
        <path d="M254.278,114.593C253.919,109.314 251.482,104.388 247.504,100.899C243.531,97.414 238.332,95.647 233.058,95.99L232.281,95.99C227.277,96.562 222.687,99.058 219.488,102.948C216.286,106.843 214.717,111.833 215.114,116.86L215.114,117.643C216.053,124.568 216.053,131.587 215.114,138.512L215.114,139.295C213.94,147.105 211.819,154.743 208.797,162.039C202.793,176.273 193.168,188.69 180.88,198.053C168.601,207.408 154.082,213.384 138.775,215.381C123.473,217.375 107.912,215.32 93.652,209.423C79.381,203.522 66.901,193.984 57.46,181.763C48.013,169.533 41.925,155.042 39.805,139.734C37.685,124.423 39.603,108.821 45.368,94.479C51.126,80.144 60.536,67.563 72.66,57.99C84.776,48.424 99.19,42.2 114.461,39.94C124.839,38.527 135.376,38.792 145.67,40.723C151.802,41.616 157.336,44.908 161.046,49.872C164.76,54.839 166.358,61.081 165.488,67.222C164.206,72.604 160.886,77.286 156.231,80.276C151.58,83.262 145.947,84.328 140.527,83.246L139.742,83.246C138.031,82.82 136.278,82.584 134.515,82.543L133.814,82.543C130.963,82.228 128.095,82.098 125.227,82.153C116.657,82.646 108.393,85.53 101.378,90.478C94.355,95.429 88.854,102.246 85.499,110.157C82.141,118.074 81.059,126.773 82.375,135.271C83.691,143.766 87.355,151.726 92.951,158.251C98.543,164.772 105.85,169.6 114.042,172.186C122.229,174.768 130.978,175.005 139.293,172.869C147.611,170.733 155.166,166.309 161.1,160.102C167.041,153.89 171.129,146.14 172.902,137.729L173.992,131.008C174.318,127.291 174.454,123.559 174.388,119.829C174.377,105.4 179.577,91.441 189.025,80.536C198.462,69.641 211.532,62.521 225.804,60.501L226.97,60.501C229.427,60.175 231.906,60.044 234.384,60.108L236.258,60.108C224.719,41.743 208.718,26.594 189.749,16.078C170.792,5.571 149.477,0.039 127.803,0C93.622,0.561 61.01,14.605 37.116,39.053C13.191,63.528 -0.151,96.471 0,130.696C0.721,159.72 11.246,187.663 29.853,209.95C48.437,232.216 74.037,247.531 102.444,253.376C130.842,259.214 160.397,255.239 186.243,242.106C212.109,228.958 232.77,207.422 244.836,181.034L245.233,180.332C251.205,166.459 254.843,151.693 256,136.634C255.766,128.427 254.98,121.706 254.278,114.593Z" style="fill:rgb(70,181,73);fill-rule:nonzero;"/>
    </g>
</svg>
