<svg width="256" height="256" fill="none" xmlns="http://www.w3.org/2000/svg"><path d="M90.331 5.65C102.235 1.975 114.907 0 128 0v128H0c0-13.129 1.975-25.765 5.65-37.687C18.066 49.92 49.938 18.048 90.331 5.65Z" fill="#fff"/><path d="M90.331 5.65C102.235 1.975 114.907 0 128 0v128H0c0-13.129 1.975-25.765 5.65-37.687C18.066 49.92 49.938 18.048 90.331 5.65Z" fill="#A2C4B8"/><path d="M128 192c0 17.682-7.168 33.682-18.743 45.239a63.913 63.913 0 0 1-18.944 13.111A63.848 63.848 0 0 1 64 256c-17.682 0-33.682-7.168-45.257-18.761C7.168 225.682 0 209.682 0 192c0-9.381 2.03-18.286 5.65-26.313a63.844 63.844 0 0 1 13.093-18.944C30.336 135.15 46.336 128 64 128c0 17.682 7.168 33.682 18.743 45.239C94.336 184.832 110.336 192 128 192Zm128-64H128V0c13.111 0 25.746 1.975 37.65 5.65h.019c40.393 12.398 72.265 44.27 84.681 84.663C254.043 102.235 256 114.89 256 128Zm0 0v64c0 17.682-7.168 33.682-18.743 45.239C225.664 248.832 209.664 256 192 256a63.845 63.845 0 0 1-26.313-5.65 64.382 64.382 0 0 1-18.944-13.111C135.168 225.682 128 209.682 128 192v-64h128Z" fill="#099250"/></svg>