<?xml version="1.0" encoding="UTF-8" standalone="no"?>
<svg
   width="255.9995"
   height="242.99886"
   viewBox="0 0 255.9995 242.99886"
   version="1.1"
   xml:space="preserve"
   style="clip-rule:evenodd;fill-rule:evenodd;stroke-linejoin:round;stroke-miterlimit:2"
   id="svg1"
   xmlns="http://www.w3.org/2000/svg"
   xmlns:svg="http://www.w3.org/2000/svg"><defs
   id="defs1" />
    <g
   transform="matrix(3.99998,0,0,3.99998,-383.99958,-388.49804)"
   id="g1">
        <path
   d="m 154.21462,125.7925 c 0.101,-0.15025 0.19675,-0.30325 0.29275,-0.45875 1.78225,-2.88325 2.65825,-6.2305 2.65825,-9.6125 V 115.543 c 0,-3.6405 -1.02,-7.22825 -3.0595,-10.252 -3.02425,-4.4855 -7.962,-7.589246 -13.65425,-8.165996 h -18.05175 c -0.6865,-0.0018 -1.34625,0.27 -1.8325,0.75475 -0.4865,0.48025 -0.7605,1.13625 -0.76,1.82 V 107.896 c 0,0.712 0.29025,1.3565 0.76,1.82025 0.48625,0.48475 1.146,0.7565 1.8325,0.75475 h 16.267 c 2.79175,0 5.05375,2.2515 5.05375,5.0195 v 0.26575 c 0,2.773 -2.262,5.0195 -5.05375,5.0195 h -26.6345 c -0.6865,0.001 -1.34625,-0.2705 -1.83275,-0.755 -0.486,-0.4805 -0.76,-1.1365 -0.76,-1.82 V 99.700004 c 0,-0.71225 -0.29,-1.3565 -0.75975,-1.82025 -0.48625,-0.48425 -1.14575,-0.756 -1.83225,-0.75475 h -8.254995 c -1.43125,0 -2.5925,1.15325 -2.5925,2.575 V 155.3 c 0,0.707 0.29025,1.354 0.76,1.82025 0.486,0.48475 1.146,0.7565 1.8325,0.75475 h 8.252495 c 0.71675,0 1.363,-0.28825 1.8325,-0.75475 0.48625,-0.4805 0.76,-1.1365 0.76,-1.82025 v -18.50075 c 0,-1.4215 1.161,-2.575 2.5925,-2.575 h 26.50575 c 0.43925,0 0.86825,-0.02 1.2975,-0.0475 h 1.676 c 2.787,0 5.05375,2.2465 5.05375,5.0195 v 0.26075 c 0,2.773 -2.26675,5.0195 -5.05375,5.0195 h -19.021 c -0.0277,-0.005 -0.0605,-0.005 -0.0883,-0.005 -0.0277,0 -0.0605,0 -0.0885,0.005 -0.656,0.0178 -1.28075,0.28725 -1.74425,0.752 -0.48675,0.48125 -0.7605,1.13825 -0.76,1.82275 V 155.3 c 0,0.707 0.2905,1.354 0.76,1.82025 0.48625,0.485 1.146,0.75675 1.83275,0.75475 h 20.29575 c 5.30125,-0.366 9.9965,-2.926 13.167,-6.772 2.7265,-3.3045 4.1375,-7.489 4.1375,-11.7615 v -0.035 c 0,-4.1645 -1.338,-8.24625 -3.9405,-11.51075 -0.5675,-0.7115 -1.186,-1.381 -1.85025,-2.00325 h 0.005 z"
   style="fill:#000030;fill-rule:nonzero;stroke-width:0.25"
   id="path1" />
    </g>
</svg>
