<svg width="256" height="256" fill="none" xmlns="http://www.w3.org/2000/svg"><path d="M232.857 120.67c.404-.601.787-1.213 1.171-1.835 7.129-11.533 10.633-24.922 10.633-38.45v-.713c0-14.562-4.08-28.913-12.238-41.008C220.326 20.722 200.575 8.307 177.806 6h-72.207a10.341 10.341 0 0 0-7.33 3.019 10.22 10.22 0 0 0-3.04 7.28v32.785c0 2.848 1.161 5.426 3.04 7.281a10.341 10.341 0 0 0 7.33 3.019h65.068c11.167 0 20.215 9.006 20.215 20.078v1.063c0 11.092-9.048 20.078-20.215 20.078H64.129a10.36 10.36 0 0 1-7.331-3.02 10.237 10.237 0 0 1-3.04-7.28V16.3c0-2.849-1.16-5.426-3.039-7.281A10.36 10.36 0 0 0 43.39 6H10.37C4.645 6 0 10.613 0 16.3v222.4c0 2.828 1.161 5.416 3.04 7.281A10.34 10.34 0 0 0 10.37 249H43.38c2.867 0 5.452-1.153 7.33-3.019a10.236 10.236 0 0 0 3.04-7.281v-74.003c0-5.686 4.644-10.3 10.37-10.3h106.023c1.757 0 3.473-.08 5.19-.19h6.704c11.148 0 20.215 8.986 20.215 20.078v1.043c0 11.092-9.067 20.078-20.215 20.078h-76.084c-.111-.02-.242-.02-.353-.02-.111 0-.242 0-.354.02a10.246 10.246 0 0 0-6.977 3.008 10.244 10.244 0 0 0-3.04 7.291V238.7c0 2.828 1.162 5.416 3.04 7.281A10.339 10.339 0 0 0 105.6 249h81.183c21.205-1.464 39.986-11.704 52.668-27.088 10.906-13.218 16.55-29.956 16.55-47.046v-.14c0-16.658-5.352-32.985-15.762-46.043a75.458 75.458 0 0 0-7.401-8.013h.02Z" fill="#000030"/></svg>