<?xml version="1.0" encoding="UTF-8" standalone="no"?>
<svg
   width="256"
   height="256"
   viewBox="0 0 256 256"
   version="1.1"
   xml:space="preserve"
   style="clip-rule:evenodd;fill-rule:evenodd;stroke-linejoin:round;stroke-miterlimit:2"
   id="svg2"
   xmlns="http://www.w3.org/2000/svg"
   xmlns:svg="http://www.w3.org/2000/svg"><defs
   id="defs2" />
    <g
   transform="matrix(0.512,0,0,0.512,-384,-384)"
   id="g1">
        <path
   d="m 1143.5975,1168.345 c 5.35,5.35 8.0325,12.8225 7.31,20.3525 -0.72,7.53 -4.7775,14.355 -11.045,18.5875 C 1099.9,1234.225 1051.7775,1250 1000,1250 c -51.77825,0 -99.901,-15.775 -139.8195,-42.7775 -6.25025,-4.22 -10.294,-11.025 -11.01375,-18.5325 -0.7205,-7.5075 1.9555,-14.9575 7.289,-20.29 -0.052,-0.055 -0.051,-0.055 -0.0503,-0.058 11.19575,-11.195 28.62075,-13.22 42.0855,-4.89 29.445,18.4375 64.24775,29.0475 101.509,29.0475 37.26255,0 72.06505,-10.61 101.55505,-28.975 13.43,-8.3075 30.81,-6.2875 41.9775,4.88 0.062,-0.06 0.062,-0.06 0.065,-0.06 z m 24.7475,-311.94225 c 5.35,-5.34925 12.8225,-8.03325 20.3525,-7.311 7.53,0.72175 14.355,4.7775 18.5875,11.0465 C 1234.225,900.099 1250,948.22175 1250,1000 c 0,51.7775 -15.775,99.9 -42.7775,139.82 -4.22,6.25 -11.025,10.2925 -18.5325,11.0125 -7.5075,0.7225 -14.9575,-1.955 -20.29,-7.2875 -0.055,0.05 -0.055,0.05 -0.058,0.05 -11.195,-11.195 -13.22,-28.6225 -4.89,-42.085 18.4375,-29.445 29.0475,-64.2475 29.0475,-101.51 0,-37.26125 -10.61,-72.064 -28.975,-101.55475 -8.3075,-13.4305 -6.2875,-30.81075 4.88,-41.97725 -0.06,-0.0632 -0.06,-0.0643 -0.06,-0.0652 z m -375.56875,3.77775 c 4.6965,-6.9525 12.5585,-11.12925 20.94875,-11.12925 6.70225,0 13.13675,2.66525 17.876,7.4045 0.054,-0.052 0.055,-0.051 0.056,-0.0503 11.19475,11.19575 13.22,28.62075 4.89125,42.0855 C 818.1095,927.936 807.5,962.73875 807.5,1000 c 0,37.2625 10.6095,72.065 28.9745,101.555 8.30725,13.43 6.28675,30.81 -4.88,41.9775 0.0615,0.062 0.0605,0.062 0.0595,0.065 -5.349,5.35 -12.8205,8.0325 -20.3505,7.31 -7.53,-0.7225 -14.35525,-4.7775 -18.58975,-11.045 C 765.775,1099.9 750,1051.7775 750,1000 c 0,-51.77825 15.775,-99.901 42.77625,-139.8195 z M 1000,842.5 c 86.9275,0 157.5,70.5735 157.5,157.5 0,86.9275 -70.5725,157.5 -157.5,157.5 -86.9265,0 -157.5,-70.5725 -157.5,-157.5 0,-86.9265 70.5735,-157.5 157.5,-157.5 z M 856.40275,831.654 c -4.7535,-4.75325 -7.427,-11.207 -7.427,-17.9295 0,-8.415 4.18925,-16.30025 11.1625,-21.01075 C 900.099,765.775 948.22175,750 1000,750 c 51.7775,0 99.9,15.775 139.82,42.77625 6.25,4.22225 10.2925,11.027 11.0125,18.5345 0.72,7.5075 -1.955,14.957 -7.2875,20.29025 0.05,0.054 0.05,0.055 0.05,0.056 -11.195,11.19475 -28.6225,13.22 -42.085,4.89125 C 1072.065,818.1095 1037.2625,807.5 1000,807.5 c -37.26125,0 -72.064,10.6095 -101.55475,28.9745 -13.4305,8.30725 -30.81075,6.28675 -41.97725,-4.88 -0.0632,0.0615 -0.0643,0.0605 -0.0652,0.0595 z"
   style="fill:#208e7a;stroke-width:0.25"
   id="path1" />
    </g>
    <g
   transform="matrix(4,0,0,4,-384,-384)"
   id="g2">
        <path
   d="m 119.9035,133.62125 c -0.44625,0 -0.8135,0.36725 -0.8135,0.8135 v 2.16425 c 0,0.44625 0.36725,0.8135 0.8135,0.8135 h 5.9395 v 5.49175 c 0,0.4465 0.36725,0.81375 0.81375,0.81375 h 2.61175 c 0.4465,0 0.81375,-0.36725 0.81375,-0.81375 v -5.49175 h 6.01425 c 0.44625,0 0.8135,-0.36725 0.8135,-0.8135 v -2.16425 c 0,-0.44625 -0.36725,-0.8135 -0.8135,-0.8135 z m 16.2115,-2.69075 c 0.4465,0 0.81375,-0.36725 0.81375,-0.81375 V 127.99 c 0,-0.44625 -0.36725,-0.8135 -0.8135,-0.8135 0,0 -2.5e-4,0 -2.5e-4,0 h -5.097 l 6.88725,-12.18025 c 0.14225,-0.25175 0.14025,-0.561 -0.005,-0.81075 -0.14575,-0.2495 -0.414,-0.4035 -0.703,-0.4035 h -3.022 c -0.29325,0 -0.5645,0.15825 -0.70875,0.4135 l -5.4805,9.70675 -5.41275,-9.703 c -0.1435,-0.25725 -0.416,-0.41725 -0.7105,-0.41725 h -3.0595 c -2.5e-4,0 -5e-4,0 -0.001,0 -0.446,0 -0.81325,0.367 -0.81325,0.81325 0,0.14 0.0363,0.2775 0.105,0.3995 l 6.8545,12.18175 h -5.026 c -0.44625,0 -0.8135,0.36725 -0.81375,0.8135 v 2.12675 c 0,0.4465 0.36725,0.81375 0.81375,0.81375 z"
   style="fill:#ffffff;fill-rule:nonzero;stroke-width:0.25"
   id="path2" />
    </g>
</svg>
