<svg xmlns="http://www.w3.org/2000/svg" xml:space="preserve" style="fill-rule:evenodd;clip-rule:evenodd;stroke-linejoin:round;stroke-miterlimit:2" viewBox="0 0 256 256"><path d="M1574.39 1673.38a101.438 101.438 0 0 1 29.24 81.41 101.377 101.377 0 0 1-44.18 74.35C1399.6 1936.9 1207.11 2000 1000 2000c-207.113 0-399.604-63.1-559.278-171.11a101.092 101.092 0 0 1-44.055-74.13 101.11 101.11 0 0 1 29.156-81.16c-.208-.22-.204-.22-.201-.23 44.783-44.78 114.483-52.88 168.342-19.56C711.744 1727.56 850.955 1770 1000 1770c149.05 0 288.26-42.44 406.22-115.9 53.72-33.23 123.24-25.15 167.91 19.52.25-.24.25-.24.26-.24Zm98.99-1247.769a101.438 101.438 0 0 1 81.41-29.244 101.386 101.386 0 0 1 74.35 44.186C1936.9 600.396 2000 792.887 2000 1000c0 207.11-63.1 399.6-171.11 559.28a101.092 101.092 0 0 1-74.13 44.05 101.103 101.103 0 0 1-81.16-29.15c-.22.2-.22.2-.23.2-44.78-44.78-52.88-114.49-19.56-168.34C1727.56 1288.26 1770 1149.05 1770 1000c0-149.045-42.44-288.256-115.9-406.219-33.23-53.722-25.15-123.243 19.52-167.909-.24-.253-.24-.257-.24-.261ZM171.105 440.722a101.122 101.122 0 0 1 155.299-14.899c.216-.208.22-.204.224-.201 44.779 44.783 52.88 114.483 19.565 168.342C272.438 711.744 230 850.955 230 1000c0 149.05 42.438 288.26 115.898 406.22 33.229 53.72 25.147 123.24-19.52 167.91.246.25.242.25.238.26a101.421 101.421 0 0 1-81.402 29.24 101.408 101.408 0 0 1-74.359-44.18C63.1 1399.6 0 1207.11 0 1000c0-207.113 63.1-399.604 171.105-559.278ZM1000 370c347.71 0 630 282.294 630 630 0 347.71-282.29 630-630 630-347.706 0-630-282.29-630-630 0-347.706 282.294-630 630-630Zm-574.389-43.384a101.421 101.421 0 0 1 14.942-155.761C600.396 63.1 792.887 0 1000 0c207.11 0 399.6 63.1 559.28 171.105a101.122 101.122 0 0 1 44.05 74.138 101.112 101.112 0 0 1-29.15 81.161c.2.216.2.22.2.224-44.78 44.779-114.49 52.88-168.34 19.565C1288.26 272.438 1149.05 230 1000 230c-149.045 0-288.256 42.438-406.219 115.898-53.722 33.229-123.243 25.147-167.909-19.52-.253.246-.257.242-.261.238Z" style="fill:#208e7a" transform="scale(.128)"/><path d="M95.614 150.485a3.254 3.254 0 0 0-3.254 3.255v8.656a3.254 3.254 0 0 0 3.254 3.254h23.758v21.967a3.255 3.255 0 0 0 3.255 3.255h10.447a3.255 3.255 0 0 0 3.255-3.255V165.65h24.057a3.254 3.254 0 0 0 3.254-3.254v-8.656a3.254 3.254 0 0 0-3.254-3.255H95.614Zm64.846-10.763a3.255 3.255 0 0 0 3.255-3.255v-8.507a3.254 3.254 0 0 0-3.255-3.254h-20.388l27.549-48.721a3.257 3.257 0 0 0-.021-3.243 3.257 3.257 0 0 0-2.812-1.614H152.7a3.257 3.257 0 0 0-2.835 1.654l-21.922 38.827-21.651-38.812a3.253 3.253 0 0 0-2.842-1.669H91.212a3.253 3.253 0 0 0-2.837 4.851l27.418 48.727H95.689a3.255 3.255 0 0 0-3.255 3.254v8.507a3.255 3.255 0 0 0 3.255 3.255h64.771Z" style="fill:#fff;fill-rule:nonzero"/></svg>