<?xml version="1.0" encoding="UTF-8" standalone="no"?>
<svg
   width="256"
   height="309.13171"
   viewBox="0 0 256 309.13171"
   version="1.1"
   xml:space="preserve"
   style="clip-rule:evenodd;fill-rule:evenodd;stroke-linejoin:round;stroke-miterlimit:2"
   id="svg1"
   xmlns="http://www.w3.org/2000/svg"
   xmlns:svg="http://www.w3.org/2000/svg"><defs
   id="defs1" />
    <g
   transform="matrix(4,0,0,4,-296,-357.43354)"
   id="g1">
        <path
   d="M 138,104.81469 V 89.358385 h -32 v 15.456305 h 16 c -0.0652,4.16151 -1.78777,8.12951 -4.78309,11.01886 -3.00016,2.89782 -7.03457,4.49329 -11.21691,4.43684 v -15.4557 c -8.362868,-0.10627 -16.426868,3.08709 -22.425057,8.88151 -5.99849,5.79441 -9.441509,13.71652 -9.574943,22.03049 0.133434,8.31366 3.576755,16.23577 9.574943,22.03019 5.998189,5.79441 14.062189,8.98777 22.425057,8.88151 8.36498,0.1135 16.43321,-3.07774 22.43291,-8.87367 5.99969,-5.79592 9.4406,-13.72226 9.56709,-22.03803 h -16 c -0.0278,2.06068 -0.464,4.09539 -1.28332,5.98641 -0.82083,1.89374 -2.00785,3.60695 -3.49283,5.04061 -1.4877,1.43668 -3.24377,2.56694 -5.168,3.32558 -1.92694,0.76015 -3.9846,1.1354 -6.05585,1.1037 -4.18234,0.0565 -8.216151,-1.53962 -11.216,-4.43774 -3.000151,-2.89781 -4.720906,-6.86068 -4.784,-11.01856 0.0634,-4.15819 1.784151,-8.12106 4.784,-11.01887 2.999849,-2.89781 7.03336,-4.49419 11.216,-4.43743 v 15.4563 c 8.36287,0.10626 16.42687,-3.088 22.42506,-8.88242 5.99819,-5.79411 9.44151,-13.71592 9.57494,-22.02958 z"
   style="fill:#ef6100;fill-rule:nonzero;stroke-width:0.301887"
   id="path1" />
    </g>
</svg>
