<svg width="256" height="256" fill="none" xmlns="http://www.w3.org/2000/svg"><path d="M254.278 114.593a20.024 20.024 0 0 0-6.774-13.694 19.946 19.946 0 0 0-14.446-4.909h-.777a19.416 19.416 0 0 0-12.793 6.958 19.489 19.489 0 0 0-4.374 13.912v.783a77.653 77.653 0 0 1 0 20.869v.783a97.188 97.188 0 0 1-6.317 22.744 88.537 88.537 0 0 1-27.917 36.014 88.332 88.332 0 0 1-42.105 17.328 88.242 88.242 0 0 1-45.123-5.958 88.437 88.437 0 0 1-36.192-27.66 88.649 88.649 0 0 1-17.655-42.029 88.704 88.704 0 0 1 5.563-45.255A88.538 88.538 0 0 1 72.66 57.99a88.326 88.326 0 0 1 41.801-18.05 97.741 97.741 0 0 1 31.209.783 23.406 23.406 0 0 1 15.376 9.149 23.475 23.475 0 0 1 4.442 17.35 21.41 21.41 0 0 1-9.257 13.054 21.337 21.337 0 0 1-15.704 2.97h-.785a23.987 23.987 0 0 0-5.227-.703h-.701a66.655 66.655 0 0 0-8.587-.39 45.961 45.961 0 0 0-23.849 8.325 46.093 46.093 0 0 0-15.879 19.679 46.2 46.2 0 0 0-3.124 25.114 46.148 46.148 0 0 0 10.576 22.98 46.04 46.04 0 0 0 21.091 13.935 45.95 45.95 0 0 0 25.251.683 45.999 45.999 0 0 0 21.807-12.767 46.144 46.144 0 0 0 11.802-22.373l1.09-6.721c.326-3.717.462-7.449.396-11.179a59.935 59.935 0 0 1 14.637-39.293 59.732 59.732 0 0 1 36.779-20.035h1.166a47.136 47.136 0 0 1 7.414-.393h1.874a128.527 128.527 0 0 0-46.509-44.03A128.254 128.254 0 0 0 127.803 0a129.782 129.782 0 0 0-90.687 39.053A130.28 130.28 0 0 0 0 130.696a128.65 128.65 0 0 0 29.853 79.254 128.211 128.211 0 0 0 72.591 43.426 128.056 128.056 0 0 0 83.799-11.27 128.408 128.408 0 0 0 58.593-61.072l.397-.702A137.097 137.097 0 0 0 256 136.634c-.234-8.207-1.02-14.928-1.722-22.041Z" fill="#46B549"/></svg>