<svg width="256" height="202" fill="none" xmlns="http://www.w3.org/2000/svg"><path d="m146.443 50.977-21.259 50.022H75.287a24.925 24.925 0 0 0-25.011 25.011 24.925 24.925 0 0 0 25.011 25.011h28.638L82.79 200.668c-2.5.25-5.002.375-7.503.375-41.393 0-75.033-33.64-75.033-75.033 0-41.394 33.64-75.033 75.033-75.033h71.282-.126Z" fill="#3551F2"/><path d="M256.001 75.988c0 41.394-33.64 75.033-75.033 75.033h-77.034l21.259-50.022h55.775c13.756 0 25.011-11.255 25.011-25.01 0-13.757-11.255-25.012-25.011-25.012h-34.516l20.76-48.771c4.502-.876 9.004-1.25 13.756-1.25 41.393 0 75.033 33.639 75.033 75.032Z" fill="#3551F2"/></svg>