<svg width="256" height="256" fill="none" xmlns="http://www.w3.org/2000/svg"><path d="M128.391 213.062c47.61 0 85.939-38.329 85.939-84.728 0-46.4-38.329-84.728-85.939-84.728-47.609 0-85.938 38.329-85.938 84.728 0 46.399 38.33 84.728 85.938 84.728Z" fill="#46B549"/><path d="M200.378 218.118c4.62 4.377 4.338 11.854-.96 15.38-49.844 33.163-117.523 28.3-161.788-15.586-50.434-50.03-50.434-129.917 0-179.947C81.664-6.069 149.986-10.816 199.917 22.716c5.064 3.4 5.427 10.535 1.114 14.849-3.68 3.68-9.506 3.974-13.856 1.117C145.658 11.42 89.092 16.36 52.962 52.49c-42.768 41.557-42.768 109.34-.807 150.897 36.137 36.137 92.717 41.073 134.235 13.793 4.367-2.869 10.195-2.656 13.988.938Zm18.619-18.198c4.38 4.624 11.859 4.367 15.412-.919 28.908-43.005 28.785-99.78-.368-142.667-3.416-5.025-10.516-5.361-14.813-1.065-3.701 3.702-3.978 9.567-1.074 13.922 23.462 35.181 23.427 80.94-.106 116.709-2.879 4.377-2.654 10.217.949 14.02Z" fill="#46B549"/></svg>