<svg width="212" height="256" fill="none" xmlns="http://www.w3.org/2000/svg"><path d="M212 51.199V0H106v51.199h53a51.84 51.84 0 0 1-15.844 36.5c-9.938 9.599-23.302 14.884-37.156 14.697V51.199c-27.702-.352-54.414 10.226-74.283 29.42C11.847 99.813.442 126.055 0 153.595c.442 27.539 11.848 53.781 31.717 72.975 19.869 19.194 46.581 29.772 74.283 29.42 27.709.376 54.435-10.195 74.309-29.394 19.874-19.199 31.272-45.455 31.691-73.001h-53a51.64 51.64 0 0 1-4.251 19.83 51.887 51.887 0 0 1-11.57 16.697 52.219 52.219 0 0 1-17.119 11.016 52.479 52.479 0 0 1-20.06 3.656c-13.854.187-27.216-5.1-37.153-14.7-9.938-9.599-15.638-22.726-15.847-36.499.21-13.774 5.91-26.901 15.847-36.5S92.145 102.208 106 102.396v51.199c27.702.352 54.414-10.229 74.283-29.423 19.869-19.193 31.275-45.434 31.717-72.973Z" fill="#EF6100"/></svg>