<?xml version="1.0" encoding="UTF-8" standalone="no"?>
<svg
   width="447.46774"
   height="350.08231"
   viewBox="0 0 447.46774 350.08231"
   version="1.1"
   xml:space="preserve"
   style="clip-rule:evenodd;fill-rule:evenodd;stroke-linejoin:round;stroke-miterlimit:2"
   id="svg2"
   xmlns="http://www.w3.org/2000/svg"
   xmlns:svg="http://www.w3.org/2000/svg"><defs
   id="defs2" />
    <g
   transform="matrix(4.00296,0,0,4.00296,-289.15539,-229.25585)"
   id="g2">
        <path
   d="m 136.133,79.135213 -9.29207,21.864067 H 105.0315 c -0.0127,0 -0.0249,0 -0.0376,0 -5.97676,0 -10.894449,4.91769 -10.894449,10.89445 0,0.0127 0,0.0249 0,0.0376 0,0.0127 0,0.0249 0,0.0376 0,5.97675 4.917689,10.89444 10.894449,10.89444 0.0127,0 0.0249,0 0.0376,0 h 12.51735 l -9.14609,21.86407 c -2.18544,-0.0188 -2.2781,0 -3.37126,0 -18.092431,0 -32.796107,-14.70368 -32.796107,-32.7961 0,-18.092869 14.703676,-32.796107 32.796107,-32.796107 h 31.15658 z"
   style="fill:#3551f2;fill-rule:nonzero;stroke-width:0.437089"
   id="path1" />
        <path
   d="m 184.01961,90.067247 c 0,18.092863 -14.70368,32.796103 -32.79611,32.796103 h -33.67071 l 9.29207,-21.86407 h 24.37864 c 6.0126,0 10.93204,-4.919436 10.93204,-10.931596 0,-6.013034 -4.91944,-10.932471 -10.93204,-10.932471 h -15.08656 l 9.41839,-21.863632 c 2.18545,0.01923 3.59113,0 5.66817,0 18.09243,0 32.79611,14.703239 32.79611,32.795666 z"
   style="fill:#3551f2;fill-rule:nonzero;stroke-width:0.437089"
   id="path2" />
    </g>
</svg>
