<?xml version="1.0" encoding="UTF-8" standalone="no"?>
<svg
   width="255.99956"
   height="306.32309"
   viewBox="0 0 255.99956 306.32309"
   version="1.1"
   xml:space="preserve"
   style="clip-rule:evenodd;fill-rule:evenodd;stroke-linejoin:round;stroke-miterlimit:2"
   id="svg4"
   xmlns="http://www.w3.org/2000/svg"
   xmlns:svg="http://www.w3.org/2000/svg"><defs
   id="defs4" />
    <g
   transform="matrix(0.999959,0,0,0.999959,-312.87634,-358.77834)"
   id="g4">
        <g
   transform="matrix(3.9987,0,0,3.9987,-38.875,0.251891)"
   id="g1">
            <path
   d="m 151.27531,153.01887 c -0.25515,-0.30392 -0.56864,-0.55399 -0.92161,-0.73555 -0.35296,-0.18217 -0.73764,-0.29434 -1.13308,-0.32994 -0.79807,-0.0697 -1.59195,0.18217 -2.20396,0.69906 -0.079,0.0649 -0.15794,0.12982 -0.23392,0.19443 -0.0565,0.0482 -0.11277,0.093 -0.1693,0.13819 -0.87644,0.71372 -1.78997,1.38077 -2.7367,1.99846 l -0.12384,0.0817 c -0.20879,0.13521 -0.41728,0.26772 -0.62876,0.39455 -0.0506,0.0311 -0.0957,0.0592 -0.14358,0.0873 -0.0479,0.0281 -0.093,0.0565 -0.1382,0.0847 l -0.0817,0.0505 -0.14657,0.0876 c -0.0479,0.0281 -0.093,0.0562 -0.14089,0.0817 -0.55906,0.32515 -1.1277,0.63355 -1.70531,0.9243 l -0.14358,0.0733 -0.20012,0.1017 -0.26233,0.12683 -0.0197,0.0111 c -0.0873,0.0425 -0.17469,0.082 -0.26204,0.12413 l -0.20011,0.093 -0.12952,0.0592 c -0.0676,0.0308 -0.1382,0.0619 -0.2058,0.093 -0.0903,0.0395 -0.18337,0.0817 -0.27639,0.12114 -0.18576,0.0817 -0.37481,0.16063 -0.56356,0.23661 -0.0957,0.0395 -0.19174,0.079 -0.28746,0.11576 -0.18336,0.0733 -0.36912,0.14657 -0.55517,0.21687 h -0.006 c -0.18336,0.0706 -0.36942,0.13819 -0.55517,0.20311 l -0.0368,0.0141 c -0.0873,0.0308 -0.17469,0.0619 -0.26502,0.093 -0.093,0.0308 -0.18606,0.0619 -0.27609,0.0957 l -0.27909,0.09 c -0.026,0.009 -0.0523,0.0177 -0.079,0.0254 l -0.18037,0.0565 -0.14926,0.0479 c -0.15226,0.0479 -0.30152,0.093 -0.45378,0.1382 l -0.1014,0.0308 c -0.0622,0.017 -0.12414,0.0368 -0.18606,0.0535 l -0.21417,0.0592 -0.172,0.0479 -0.11277,0.0311 -0.14388,0.0368 c -0.16063,0.0422 -0.32395,0.0844 -0.48757,0.12384 -0.0395,0.0114 -0.0817,0.0197 -0.12115,0.0311 -0.0562,0.0141 -0.11546,0.0281 -0.17469,0.0422 l -0.14388,0.0338 c -0.0111,0.003 -0.0251,0.006 -0.0365,0.008 -0.0733,0.0171 -0.14956,0.0338 -0.22255,0.0508 -0.1355,0.0311 -0.27071,0.0592 -0.4089,0.0873 -0.12953,0.0281 -0.25935,0.0536 -0.38617,0.079 l -0.31558,0.0592 -0.19443,0.0338 c -0.0649,0.0114 -0.11547,0.0224 -0.17469,0.0311 l -0.25097,0.0422 -0.24528,0.0395 -0.0308,0.006 c -0.10171,0.0141 -0.20012,0.0308 -0.29883,0.0449 -0.0987,0.0141 -0.19443,0.0284 -0.28746,0.0395 l -0.0619,0.009 -0.2369,0.0308 h -0.0171 c -0.0676,0.008 -0.13221,0.017 -0.19712,0.0254 l -0.17469,0.0197 c -0.172,0.0197 -0.34668,0.0395 -0.52137,0.0562 h -0.0425 c -0.0562,0.0114 -0.11546,0.0171 -0.172,0.0227 l -0.14926,0.0141 c -0.0592,0.006 -0.11845,0.0114 -0.17768,0.0141 l -0.17738,0.0141 c -0.23392,0.0171 -0.47083,0.0338 -0.70474,0.0479 l -0.31289,0.017 -0.17738,0.006 c -0.0452,3e-4 -0.0903,0.002 -0.1355,0.006 l -0.1717,0.005 h -0.17499 c -0.0589,0.003 -0.11815,0.009 -0.17738,0.009 h -0.0619 c -0.0987,0 -0.19742,0.003 -0.29314,0.003 h -0.63983 c -3.33495,-0.0395 -6.64358,-0.59466 -9.80863,-1.64608 -0.11277,-0.0395 -0.22823,-0.076 -0.341,-0.11547 -0.0562,-0.0197 -0.11277,-0.0395 -0.16631,-0.0592 -0.0536,-0.0197 -0.11277,-0.0395 -0.16632,-0.0592 -0.0906,-0.0314 -0.18067,-0.0643 -0.27041,-0.0987 l -0.11277,-0.0422 c -0.1014,-0.0365 -0.2031,-0.076 -0.30152,-0.11277 l -0.0508,-0.0197 c -0.0395,-0.0141 -0.079,-0.0308 -0.11546,-0.0449 l -0.0395,-0.0171 -0.0311,-0.0114 -0.0676,-0.0251 -0.0619,-0.0254 h -0.014 l -0.0284,-0.0141 -0.12683,-0.0508 -0.16332,-0.0676 c -0.0903,-0.0368 -0.18038,-0.0733 -0.27071,-0.11277 h -0.0141 l -0.18037,-0.079 -0.21119,-0.093 c -5.65676,-2.49052 -10.48554,-6.54636 -13.915315,-11.68833 -0.02602,-0.0365 -0.05025,-0.0742 -0.07299,-0.11277 -3.462976,-5.2688 -5.315759,-11.43467 -5.329818,-17.73964 v -0.4792 c 0,-0.12114 0.0057,-0.24229 0.0084,-0.36343 v -0.0284 c 0.09811,-3.59998 0.798067,-7.15837 2.071445,-10.52713 0.04517,-0.11815 0.09034,-0.23391 0.135503,-0.35237 0.03948,-0.10409 0.08166,-0.20849 0.123838,-0.31258 l 0.08735,-0.21148 c 0.04786,-0.11547 0.09572,-0.23123 0.146572,-0.34699 0.05384,-0.12653 0.110078,-0.25336 0.166313,-0.38019 0.003,-0.008 0.0087,-0.017 0.01137,-0.0254 0.0039,-0.0117 0.0087,-0.0227 0.01406,-0.0338 l 0.118454,-0.26204 c 0,0 0,-0.006 0.003,-0.008 0.03649,-0.082 0.07299,-0.16093 0.109779,-0.2396 0.01137,-0.0227 0.01974,-0.0479 0.03081,-0.0706 l 0.01705,-0.0395 c 0.01675,-0.0395 0.03649,-0.079 0.05624,-0.11546 0.01137,-0.0254 0.02273,-0.0509 0.0341,-0.0733 l 0.0338,-0.0733 0.0084,-0.017 0.02243,-0.0449 c 0.04248,-0.0903 0.08734,-0.18038 0.132513,-0.27071 0.0084,-0.0141 0.01406,-0.0311 0.02243,-0.0449 0.05923,-0.11876 0.118454,-0.23691 0.177681,-0.35267 0.04218,-0.0817 0.08465,-0.16632 0.126829,-0.24798 l 0.02812,-0.0509 c 0,0 0,-0.005 0.003,-0.008 0,0 0,-0.006 0.003,-0.006 0.02513,-0.0508 0.05055,-0.0957 0.07598,-0.14358 0.0084,-0.017 0.01974,-0.0338 0.02812,-0.0508 l 0.05624,-0.10409 c 0.01705,-0.0338 0.03679,-0.0679 0.05384,-0.10171 l 0.01107,-0.0197 0.02243,-0.0392 c 0.03111,-0.0622 0.06491,-0.12145 0.09572,-0.18038 1.00566,-1.81958 2.186606,-3.53686 3.526086,-5.12701 0.0227,-0.0281 0.0479,-0.0562 0.0676,-0.0846 0.48518,-0.62368 0.70683,-1.41337 0.61739,-2.19857 -0.18665,-1.62455 -1.65865,-2.81866 -3.286788,-2.66611 -0.787298,0.0745 -1.514771,0.45407 -2.026276,1.05711 -1.127404,1.33769 -2.161182,2.75106 -3.094753,4.23053 l -0.02273,0.0338 c -0.08166,0.12953 -0.160631,0.25935 -0.242292,0.38588 -0.04248,0.0679 -0.08166,0.1355 -0.124137,0.20609 -1.237781,2.04722 -2.280533,4.20631 -3.114495,6.44855 -0.416682,1.11963 -0.77982,2.2587 -1.08792,3.41302 -0.0054,0.02 -0.01107,0.0398 -0.01675,0.0622 -0.02812,0.1017 -0.05384,0.2058 -0.08166,0.31019 -0.0087,0.0281 -0.01436,0.0562 -0.02273,0.0874 -0.01406,0.0535 -0.02812,0.10978 -0.04218,0.16631 l -0.04248,0.16632 c -0.02812,0.10978 -0.05324,0.21985 -0.07867,0.33233 0,0.009 -0.006,0.0197 -0.006,0.0284 -0.0027,0.0168 -0.0081,0.0308 -0.01107,0.0479 v 0.0114 c -0.01675,0.0703 -0.0338,0.14059 -0.05085,0.20849 -0.0054,0.0197 -0.0084,0.0395 -0.01406,0.0562 -1.09121,4.81681 -1.239576,9.79995 -0.436724,14.6733 0.0057,0.0365 0.01137,0.076 0.01974,0.11546 0.82768,4.9595 2.627518,9.70692 5.296017,13.96857 0.04487,0.0706 0.09004,0.14387 0.135205,0.21417 l 0.126829,0.19742 c 0.04218,0.0676 0.08465,0.13251 0.126829,0.19713 0.06192,0.096 0.124137,0.18904 0.186056,0.28476 0.03649,0.0562 0.07329,0.10978 0.109779,0.16333 0.01406,0.0227 0.03111,0.0452 0.04517,0.0679 0.06192,0.093 0.12683,0.18605 0.191441,0.27878 0.01436,0.0197 0.02842,0.0395 0.03978,0.0592 0.0057,0.0114 0.01406,0.0197 0.01974,0.0311 l 0.02243,0.0311 c 0.141187,0.2055 0.285067,0.4095 0.431339,0.61141 0.07897,0.11008 0.160631,0.22285 0.242292,0.33263 0.0676,0.093 0.135205,0.18336 0.200414,0.2734 0.03081,0.0422 0.06162,0.0846 0.09572,0.12683 l 0.160631,0.21148 c 0.0338,0.0422 0.06461,0.0873 0.101403,0.12952 0.05085,0.0676 0.104096,0.13251 0.154947,0.20012 0.02812,0.0368 0.05624,0.0733 0.08465,0.10708 0.05624,0.0733 0.115462,0.14388 0.171997,0.21717 0.03649,0.0452 0.07029,0.09 0.107087,0.13251 0.05085,0.0619 0.101403,0.12683 0.154947,0.18875 0.03649,0.0452 0.07329,0.0873 0.109779,0.12952 0.05085,0.0649 0.107087,0.12683 0.16063,0.19174 0.03679,0.0452 0.07628,0.0903 0.115762,0.1352 0.05085,0.0622 0.104095,0.12414 0.157639,0.18606 0.08465,0.1017 0.171997,0.20011 0.259342,0.29613 0.08734,0.0987 0.183364,0.2058 0.276392,0.3099 0.09273,0.1014 0.19144,0.21417 0.290152,0.31857 0.09871,0.10708 0.194431,0.21148 0.293143,0.31557 0.09871,0.1044 0.197422,0.20879 0.298826,0.31289 2.079517,2.16328 4.408807,4.0717 6.939117,5.68488 l 0.0592,0.0368 0.20281,0.12683 c 3.80338,2.3966 7.99981,4.1037 12.39606,5.04236 l 0.20281,0.0422 0.18605,0.0368 c 0.13252,0.0251 0.26204,0.0535 0.39455,0.0787 0.0649,0.0141 0.13251,0.0254 0.19742,0.0368 l 0.10141,0.0168 0.1014,0.0171 0.20849,0.0365 0.0508,0.009 0.0733,0.0141 c 0.076,0.0141 0.15225,0.0254 0.23092,0.0395 l 0.27909,0.0449 0.28207,0.0425 0.28178,0.0422 c 0.093,0.0141 0.18875,0.0254 0.28178,0.0395 l 0.28177,0.0368 0.17768,0.0224 0.18307,0.0224 c 0.0535,0.006 0.11008,0.0141 0.16362,0.0197 0.11546,0.0141 0.22823,0.0254 0.34369,0.0368 l 0.24828,0.0254 0.14926,0.0141 0.20849,0.0197 c 0.49984,0.0458 1.00088,0.0805 1.50221,0.1041 0.23481,0.0123 0.46963,0.0218 0.70474,0.0284 h 0.093 l 0.42835,0.008 h 1.09928 c 0.14657,0 0.29045,-0.006 0.43703,-0.008 h 0.0308 c 0.14956,-0.003 0.29613,-0.009 0.44539,-0.0144 l 0.22824,-0.008 0.22823,-0.0114 c 0.13819,-0.005 0.27908,-0.0141 0.41728,-0.0224 0.2058,-0.0114 0.4086,-0.0254 0.6144,-0.0395 0.45437,-0.0356 0.90815,-0.0778 1.36132,-0.12683 0.0817,-0.008 0.16362,-0.0197 0.24798,-0.0281 0.0846,-0.008 0.16631,-0.0197 0.24797,-0.0311 l 0.096,-0.0111 c 0.079,-0.009 0.15764,-0.0197 0.23392,-0.0311 0.0957,-0.0114 0.19443,-0.0254 0.29015,-0.0395 l 0.0565,-0.008 c 0.10978,-0.0171 0.21986,-0.0311 0.33263,-0.0508 l 0.0395,-0.006 0.21417,-0.0338 0.20281,-0.0338 0.12114,-0.0197 h 0.0198 c 0.15524,-0.0281 0.3072,-0.0535 0.46244,-0.0817 l 0.0281,-0.006 0.27041,-0.0508 c 4.50005,-0.84024 8.81224,-2.48514 12.72839,-4.85601 0.0706,-0.0425 0.1382,-0.0847 0.20879,-0.12712 0.30331,-0.18606 0.60423,-0.3769 0.90186,-0.57193 1.3015,-0.85161 2.55035,-1.7804 3.74027,-2.78187 0.61111,-0.51629 0.9925,-1.25483 1.0595,-2.052 0.0676,-0.79657 -0.18276,-1.58836 -0.69606,-2.20126 h -0.0114 z"
   style="fill:#1066df;fill-rule:nonzero;stroke-width:0.299126"
   id="path1" />
        </g>
        <g
   transform="matrix(3.9987,0,0,3.9987,-38.875,0.251891)"
   id="g2">
            <path
   d="m 108.57185,100.49601 c 0.53304,6e-4 1.05651,-0.14148 1.51627,-0.41159 0.59825,-0.347289 1.20727,-0.67513 1.82646,-0.983529 0.39544,-0.196226 0.79477,-0.384077 1.1977,-0.563851 0.0679,-0.03111 0.1355,-0.05923 0.2031,-0.09034 0.0449,-0.01944 0.09,-0.03919 0.1382,-0.05893 0.09,-0.03948 0.17738,-0.07628 0.26772,-0.115762 l 0.20011,-0.08435 c 0.1358,-0.05683 0.27191,-0.112172 0.40861,-0.166314 l 0.15494,-0.06222 0.25665,-0.101403 c 0.0619,-0.02543 0.12384,-0.04786 0.18576,-0.0703 0.29314,-0.110078 0.58629,-0.214174 0.88511,-0.315877 l 0.17469,-0.05893 c 0.34848,-0.116958 0.69906,-0.227934 1.05143,-0.332628 l 0.17469,-0.05085 c 0.45586,-0.131915 0.91442,-0.254257 1.37538,-0.366429 l 0.15225,-0.03649 0.17768,-0.04248 0.12115,-0.02812 0.12952,-0.03111 c 0.0846,-0.01974 0.172,-0.03948 0.25665,-0.05624 0.12952,-0.02812 0.25934,-0.05624 0.39155,-0.08166 l 0.21717,-0.04248 c 0.29314,-0.05624 0.58629,-0.109779 0.87943,-0.16063 0.14089,-0.02243 0.28447,-0.04786 0.42565,-0.0676 0.14358,-0.02243 0.28746,-0.04218 0.43673,-0.06491 l 0.0311,-0.0054 c 0.20849,-0.02872 0.41698,-0.05624 0.62577,-0.08196 l 0.43941,-0.05085 c 0.14657,-0.01675 0.29315,-0.03081 0.43972,-0.04188 0.14657,-0.01436 0.29314,-0.02543 0.4427,-0.03679 0.093,-0.0057 0.18606,-0.01406 0.2761,-0.01974 l 0.55517,-0.0338 c 0.093,-0.0057 0.18606,-0.0084 0.27639,-0.01406 0.0562,0 0.10978,-0.006 0.16632,-0.006 l 0.15195,-0.0054 0.17499,-0.0057 0.17469,-0.0057 c 0.11846,-0.003 0.23661,-0.0054 0.35237,-0.0054 h 0.41698 c 1.33051,0 2.66072,0.08166 3.97987,0.247975 0.27908,0.0338 0.55787,0.07329 0.83695,0.115463 0.0592,0.0084 0.12115,0.01974 0.18337,0.02812 l 0.3072,0.05085 0.0592,0.01107 0.0506,0.0087 c 0.0763,0.01406 0.15524,0.02543 0.23122,0.03948 l 0.076,0.01406 0.1017,0.01974 0.1014,0.01974 0.19144,0.03649 c 0.0679,0.01137 0.13551,0.02543 0.20012,0.03948 l 0.0538,0.01137 c 0.15196,0.03111 0.3072,0.06491 0.45916,0.09871 l 0.14089,0.03081 c 0.10738,0.02273 0.21148,0.04786 0.31857,0.07329 0.12413,0.02842 0.24797,0.05923 0.37211,0.09034 0.11546,0.02812 0.23122,0.05923 0.34669,0.08734 l 0.12413,0.0338 0.13222,0.0338 h 0.006 c 0.0847,0.02243 0.1693,0.04487 0.25097,0.0676 0.0114,0 0.0224,0.0057 0.0338,0.0084 0.0395,0.01137 0.079,0.02273 0.11546,0.0338 0.0535,0.01436 0.10709,0.03111 0.16063,0.04517 l 0.13251,0.03679 c 0.0619,0.01675 0.12414,0.03649 0.18606,0.05354 l 0.14657,0.04487 0.13251,0.03978 0.0619,0.01944 h 0.006 l 0.076,0.02273 0.16093,0.05085 0.10141,0.03081 0.13251,0.04218 c 0.0787,0.02543 0.15495,0.05085 0.23391,0.07628 0.11816,0.03949 0.23661,0.08166 0.35507,0.121146 0.52137,0.183065 1.03826,0.378394 1.55006,0.586286 l 0.17469,0.07329 c 0.12713,0.05354 0.25396,0.104394 0.38079,0.16063 0.43343,0.185159 0.85161,0.403819 1.25124,0.653888 3.71484,2.330785 5.29034,7.097055 3.50904,11.251605 -0.94912,2.20845 -2.73729,3.95205 -4.96907,4.84494 -2.23177,0.89289 -4.72977,0.86238 -6.93911,-0.0846 -1.7122,-0.73316 -3.55212,-1.12172 -5.41447,-1.14416 h -0.005 c -0.54022,-0.006 -1.08044,0.0197 -1.61797,0.076 -0.24229,0.0254 -0.48189,0.0592 -0.72448,0.0957 -0.10709,0.0171 -0.21687,0.0368 -0.32395,0.0565 l -0.0957,0.0168 c -0.0395,0.009 -0.082,0.0141 -0.12145,0.0227 -0.0592,0.0114 -0.12114,0.0224 -0.18037,0.0365 h -0.0111 c -0.0649,0.017 -0.12683,0.0311 -0.19174,0.0452 l -0.15225,0.0368 -0.09,0.0224 -0.14657,0.0365 c -0.0452,0.0114 -0.093,0.0254 -0.1382,0.0368 l -0.0957,0.0254 c -0.19473,0.0535 -0.38916,0.11277 -0.5806,0.17469 -0.0763,0.0254 -0.15525,0.0508 -0.23122,0.076 l -0.11547,0.0395 c -0.0395,0.0141 -0.0763,0.0254 -0.11576,0.0425 l -0.11277,0.0419 c -0.11277,0.0425 -0.22823,0.0847 -0.33801,0.12982 -0.56415,0.22554 -1.11305,0.48758 -1.6434,0.78371 -0.0338,0.0197 -0.0703,0.0395 -0.10409,0.0592 -0.0706,0.0395 -0.14089,0.0817 -0.21148,0.12115 -0.0706,0.0422 -0.1382,0.0817 -0.20849,0.12682 -0.0652,0.0407 -0.13012,0.082 -0.19444,0.12384 l -0.1693,0.11008 c -0.0395,0.0254 -0.076,0.0508 -0.11546,0.076 -0.0224,0.0141 -0.044,0.0293 -0.0649,0.0452 -0.0224,0.017 -0.0536,0.0365 -0.0817,0.0562 -0.0281,0.02 -0.0649,0.0452 -0.0957,0.0679 -0.0649,0.0449 -0.12982,0.09 -0.19174,0.1379 -0.0619,0.0452 -0.12982,0.0957 -0.19444,0.14358 -0.0311,0.0227 -0.0622,0.0482 -0.096,0.0706 -0.67244,0.51779 -1.29612,1.096 -1.86296,1.72775 l -0.017,0.017 c -0.0479,0.0536 -0.0957,0.10709 -0.14358,0.16333 -0.0452,0.0508 -0.0903,0.10469 -0.1352,0.15793 l -0.0508,0.0592 c -0.0562,0.0676 -0.11278,0.13521 -0.16632,0.20281 -0.0197,0.0227 -0.0365,0.0452 -0.0535,0.0679 -0.0479,0.0592 -0.093,0.11815 -0.1382,0.17738 -0.0338,0.0425 -0.0646,0.0846 -0.0984,0.12683 -0.0903,0.11845 -0.17768,0.23691 -0.26233,0.35805 v 0.003 c -0.63684,0.90395 -1.1636,1.8803 -1.56981,2.90869 0,0.006 -0.003,0.009 -0.006,0.0141 l -0.0508,0.12683 -0.0479,0.12414 c -0.0111,0.0311 -0.0254,0.0649 -0.0365,0.0987 -0.0114,0.0308 -0.0281,0.079 -0.0425,0.12115 -0.0168,0.0479 -0.0335,0.0987 -0.0508,0.14657 -0.0168,0.0509 -0.0335,0.10439 -0.0506,0.15494 -0.74811,2.24614 -0.91204,4.64602 -0.47621,6.97292 0.0141,0.0847 0.0311,0.16631 0.0509,0.25097 0.34968,1.74749 1.03169,3.41152 2.00953,4.90147 l 0.079,0.12114 c 0.99788,1.5046 2.27993,2.79982 3.77376,3.81355 0.0479,0.0308 0.096,0.0646 0.14388,0.0957 1.86206,1.24586 3.99662,2.02598 6.22331,2.27455 l 0.16063,0.0168 0.14358,0.0144 0.0679,0.005 c 0.89319,0.079 1.79236,0.0733 2.68585,-0.0224 0.0338,-0.003 0.0706,-0.008 0.10439,-0.0141 h 0.008 c 1.86116,-0.20849 3.66249,-0.7852 5.29871,-1.69664 0.34579,-0.19383 0.6503,-0.45317 0.89648,-0.76396 0.24588,-0.31199 0.42775,-0.66915 0.53543,-1.05143 0.10709,-0.38318 0.14089,-0.78072 0.093,-1.17526 -0.0467,-0.39425 -0.1702,-0.77534 -0.36373,-1.12172 -0.19384,-0.34639 -0.45438,-0.6509 -0.76636,-0.89618 -0.31169,-0.24648 -0.66885,-0.42835 -1.05143,-0.53544 -0.38168,-0.10858 -0.78132,-0.14029 -1.17526,-0.093 -0.39455,0.0479 -0.77504,0.16901 -1.12173,0.36344 -1.47199,0.81811 -3.16355,1.15522 -4.83656,0.96408 l -0.0876,-0.0114 c -0.0506,-0.006 -0.1014,-0.0141 -0.15196,-0.0197 -0.0508,-0.008 -0.10708,-0.0141 -0.16362,-0.0254 -0.067,-0.0108 -0.13371,-0.023 -0.20011,-0.0365 -0.1038,-0.0197 -0.2073,-0.0422 -0.3099,-0.0676 -0.0311,-0.006 -0.0592,-0.0144 -0.0873,-0.0197 l -0.1017,-0.0254 c -0.0338,-0.009 -0.0646,-0.0171 -0.10141,-0.0254 l -0.1014,-0.0281 c -0.0281,-0.009 -0.0562,-0.0171 -0.0846,-0.0254 l -0.10978,-0.0338 c -0.0649,-0.0197 -0.12982,-0.0422 -0.19443,-0.0619 -0.0311,-0.0114 -0.0649,-0.0227 -0.096,-0.0341 -0.0646,-0.0224 -0.12952,-0.0479 -0.19144,-0.0703 -0.0957,-0.0368 -0.19055,-0.0754 -0.28477,-0.11546 l -0.0733,-0.0311 -0.0763,-0.0338 -0.076,-0.0368 -0.11846,-0.0562 c -1.21624,-0.59496 -2.26438,-1.48456 -3.04958,-2.58744 l -0.0676,-0.1014 c -0.0224,-0.0338 -0.0452,-0.0649 -0.0649,-0.096 -0.0224,-0.0338 -0.0395,-0.0589 -0.0562,-0.0873 -0.81691,-1.2674 -1.2659,-2.737 -1.29641,-4.2446 v -0.26502 c 0,-0.0395 0,-0.0844 0.003,-0.12952 0.003,-0.0422 0.003,-0.0846 0.006,-0.12952 0,-0.0311 0,-0.0622 0.006,-0.093 l 0.005,-0.093 c 0.006,-0.0763 0.0114,-0.15225 0.0198,-0.22554 0.003,-0.0338 0.006,-0.0649 0.0114,-0.0987 0.006,-0.0592 0.0141,-0.11846 0.0227,-0.18037 0.005,-0.0452 0.0111,-0.0903 0.0194,-0.13521 l 0.017,-0.1014 c 0.0114,-0.0622 0.0197,-0.12414 0.0338,-0.18606 0.0114,-0.0622 0.0224,-0.11845 0.0338,-0.17768 0.0141,-0.0592 0.0281,-0.12952 0.0422,-0.19443 0.0114,-0.0422 0.0197,-0.0847 0.0311,-0.12982 0.008,-0.0338 0.0171,-0.0646 0.0254,-0.1014 l 0.0592,-0.21119 c 0.09,-0.29314 0.19443,-0.58359 0.31558,-0.86537 0.17678,-0.41249 0.38796,-0.80943 0.63145,-1.18663 0.0308,-0.0509 0.0703,-0.11008 0.10978,-0.16362 0.0227,-0.0365 0.0508,-0.0703 0.0733,-0.1041 0.0395,-0.0565 0.079,-0.11007 0.11845,-0.16362 l 0.0619,-0.0844 c 0.0227,-0.0311 0.0452,-0.0592 0.0676,-0.0874 0.0284,-0.0368 0.0565,-0.0733 0.0876,-0.11007 0.0281,-0.0365 0.0589,-0.0733 0.0873,-0.10709 l 0.09,-0.1044 c 0.0509,-0.0619 0.10708,-0.12114 0.16362,-0.18037 l 0.0111,-0.0111 c 0.0622,-0.0679 0.12413,-0.13251 0.18904,-0.19742 0.0479,-0.0508 0.0984,-0.0987 0.15196,-0.14657 l 0.0395,-0.0365 c 0.3087,-0.29045 0.63954,-0.55638 0.98951,-0.79508 0.0676,-0.0449 0.13521,-0.09 0.20012,-0.13221 0.0338,-0.0227 0.0676,-0.0452 0.10708,-0.0679 0.0395,-0.0251 0.079,-0.0506 0.11816,-0.0733 0.0395,-0.0224 0.079,-0.0479 0.12144,-0.0703 0.42327,-0.2399 0.86627,-0.44271 1.32453,-0.60603 l 0.19742,-0.0676 c 0.0452,-0.0141 0.0874,-0.0281 0.13252,-0.0422 0.0449,-0.0144 0.0873,-0.0254 0.13221,-0.0395 0.0452,-0.0114 0.0903,-0.0254 0.1355,-0.0368 0.0452,-0.0111 0.0874,-0.0224 0.12953,-0.0338 0.096,-0.0224 0.19173,-0.0452 0.28745,-0.0649 l 0.12414,-0.0251 0.093,-0.017 0.0957,-0.0168 c 0.0619,-0.0114 0.12115,-0.0197 0.18336,-0.0284 h 0.005 c 0.38258,-0.0562 0.76905,-0.0844 1.15582,-0.0844 h 0.13251 c 1.04844,0.0197 2.07982,0.24229 3.0439,0.65389 6.26848,2.68884 13.59376,0.83127 17.81592,-4.51829 2.0882,-2.64756 3.23444,-5.9176 3.25538,-9.28964 v -0.0281 c 0.0114,-2.96673 -0.85161,-5.87213 -2.48035,-8.351586 -1.62844,-2.479751 -3.95234,-4.425263 -6.68007,-5.591853 -0.0984,-0.04188 -0.19443,-0.08435 -0.29314,-0.123838 -0.10021,-0.03978 -0.19982,-0.08106 -0.29853,-0.124137 -0.14956,-0.06192 -0.29613,-0.121146 -0.44839,-0.180373 -0.14926,-0.05923 -0.29852,-0.118453 -0.44809,-0.174689 l -0.24498,-0.09273 c -0.0814,-0.03141 -0.16302,-0.06162 -0.24528,-0.09034 -0.0733,-0.02543 -0.14388,-0.05384 -0.21717,-0.07897 l -0.19443,-0.07059 -0.30152,-0.104095 c -0.20849,-0.07059 -0.41728,-0.141188 -0.62846,-0.20879 l -0.14388,-0.04786 -0.172,-0.05624 -0.25934,-0.08196 -0.17469,-0.05354 -0.15495,-0.04487 -0.21985,-0.06491 -0.44241,-0.126829 c -0.1011,-0.02842 -0.20281,-0.05564 -0.30451,-0.08166 l -0.28746,-0.07628 h -0.0114 l -0.0619,-0.01675 c -0.16631,-0.04248 -0.32963,-0.08465 -0.49595,-0.124137 l -0.1693,-0.03948 -0.19712,-0.04786 c -0.10141,-0.02243 -0.19743,-0.04487 -0.29614,-0.0676 l -0.0224,-0.0057 -0.29584,-0.06491 c -0.2058,-0.04487 -0.41159,-0.08734 -0.61739,-0.129521 l -0.18038,-0.0338 -0.26203,-0.05085 c -0.0592,-0.01137 -0.11845,-0.02243 -0.17469,-0.0338 l -0.25097,-0.04487 -0.0903,-0.01705 c -0.19712,-0.0338 -0.39455,-0.06491 -0.59167,-0.09871 -0.2073,-0.0338 -0.41489,-0.06461 -0.62308,-0.09273 l -0.24798,-0.0341 -0.14088,-0.01705 c -0.0168,0 -0.0338,-0.0054 -0.0508,-0.0054 l -0.0844,-0.01137 -0.0847,-0.01137 -0.16332,-0.01974 -0.11277,-0.01406 -0.21717,-0.02542 -0.0676,-0.0084 c -0.0873,-0.0084 -0.17469,-0.01974 -0.26503,-0.02812 l -0.24498,-0.02243 -0.0847,-0.0087 -0.24229,-0.02243 c -0.096,-0.0084 -0.19174,-0.01705 -0.28776,-0.02273 -0.43433,-0.0332 -0.86956,-0.05953 -1.30479,-0.07867 h -0.0987 l -0.0562,-0.003 -0.21148,-0.0084 -0.29882,-0.0084 c -0.22076,-0.0051 -0.44151,-0.009 -0.66227,-0.01137 h -0.6482 c -0.093,0 -0.18337,0 -0.27639,0.003 -0.093,0.0027 -0.17739,0.0027 -0.26473,0.0054 -0.0876,0 -0.17499,0.003 -0.26503,0.006 -0.12682,0.0027 -0.25665,0.0081 -0.38347,0.01376 l -0.22255,0.0087 -0.10141,0.0054 -0.16631,0.0087 -0.21717,0.01107 -0.19712,0.01137 h -0.0281 c -1.73911,0.109779 -3.46686,0.338012 -5.17218,0.684997 l -0.0619,0.01107 c -0.13819,0.02842 -0.27609,0.05923 -0.41728,0.08734 l -0.0224,0.006 c -0.0619,0.01376 -0.12414,0.02513 -0.18606,0.03919 -0.61171,0.135504 -1.21744,0.284767 -1.82077,0.44809 -3.03224,0.828278 -5.95021,2.029866 -8.68661,3.576943 l -0.29613,0.169006 -0.11816,0.0676 -0.0508,0.03111 -0.0508,0.03081 c -0.55368,0.350575 -0.97814,0.87225 -1.20877,1.485457 -0.23062,0.612909 -0.25725,1.284445 -0.0763,1.913806 0.18396,0.628163 0.56564,1.180947 1.08792,1.575494 0.52436,0.393355 1.1627,0.605135 1.81808,0.603335 h 0.003 z"
   style="fill:#1066df;fill-rule:nonzero;stroke-width:0.299126"
   id="path2" />
        </g>
        <g
   transform="matrix(3.9987,0,0,3.9987,-38.875,0.251891)"
   id="g3">
            <path
   d="m 103.94647,114.25908 -0.0254,0.0422 c -1.39183,2.26767 -2.42771,4.73546 -3.07202,7.31691 -0.003,0.0141 -0.008,0.0281 -0.0114,0.0422 l -0.0422,0.17768 c -0.006,0.0281 -0.014,0.0592 -0.0197,0.0874 -0.0141,0.0562 -0.0254,0.11277 -0.0395,0.169 -0.748714,3.24282 -0.871056,6.59901 -0.36075,9.8876 0.006,0.0281 0.008,0.0562 0.0114,0.0844 0.0147,0.0834 0.0287,0.16721 0.0422,0.25097 l 0.006,0.0281 c 0,0 0,0.0141 0.003,0.0224 0.60483,3.56707 1.94252,6.97052 3.92871,9.99468 l 0.0509,0.0787 c 0.19144,0.29045 0.38886,0.57522 0.59167,0.85699 0.0763,0.10709 0.15524,0.21148 0.23122,0.31558 4.13721,5.56972 10.32372,9.2717 17.18745,10.28483 l 0.0365,0.006 0.17199,0.0254 h 0.0254 l 0.14089,0.0224 h 0.0308 l 0.15225,0.0224 c 2.06726,0.26114 4.15845,0.2746 6.22899,0.0395 l 0.13252,-0.0168 c 0.0422,-0.006 0.0847,-0.0114 0.12682,-0.014 l 0.17769,-0.0227 0.0338,-0.006 h 0.0224 l 0.0395,-0.008 0.16631,-0.0224 0.0592,-0.009 c 0.1014,-0.014 0.19712,-0.0281 0.29314,-0.0422 h 0.003 c 4.3454,-0.67064 8.45209,-2.42621 11.9393,-5.10428 0.31857,-0.2396 0.58569,-0.54052 0.7864,-0.88511 0.20101,-0.34489 0.33233,-0.72598 0.38617,-1.12172 0.10978,-0.79837 -0.10559,-1.6081 -0.59765,-2.24644 -0.24379,-0.31617 -0.5474,-0.5815 -0.89349,-0.78071 -0.34609,-0.19952 -0.72837,-0.32785 -1.12471,-0.3775 -0.39634,-0.0511 -0.79867,-0.0224 -1.18364,0.0844 -0.38438,0.10739 -0.74423,0.28836 -1.0598,0.53275 -2.13815,1.641 -4.5841,2.8363 -7.19278,3.51472 -0.0338,0.008 -0.0676,0.0141 -0.1014,0.0224 -0.65987,0.1684 -1.32782,0.30301 -2.00115,0.40322 h -0.0284 c -0.0787,0.0167 -0.15764,0.0254 -0.23661,0.0365 l -0.0873,0.0114 c -0.86447,0.11247 -1.73553,0.169 -2.60718,0.169 h -0.006 c -1.86116,0 -3.71365,-0.25695 -5.50451,-0.76366 l -0.0168,-0.006 c -0.13939,-0.0401 -0.27849,-0.0814 -0.41728,-0.12384 -0.2052,-0.0625 -0.4092,-0.12922 -0.61171,-0.20011 l -0.31289,-0.11008 -0.1352,-0.0508 -0.0395,-0.0141 c -0.079,-0.0281 -0.15764,-0.0592 -0.23661,-0.09 l -0.0676,-0.0254 -0.11845,-0.0479 -0.0311,-0.0114 h -0.006 c -0.0787,-0.0311 -0.15764,-0.0619 -0.23661,-0.0957 l -0.0592,-0.0254 -0.0649,-0.0281 c -0.11815,-0.0508 -0.23392,-0.10141 -0.35237,-0.15226 l -0.0957,-0.0422 c -3.39537,-1.54439 -6.29928,-3.99692 -8.39047,-7.08599 l -0.0508,-0.0733 -0.0874,-0.13222 -0.0763,-0.11845 c -2.07893,-3.21919 -3.20304,-6.96275 -3.24133,-10.79484 v -0.25935 c 0,-0.10439 0,-0.20879 0.003,-0.31288 v -0.0254 c 0.008,-0.39454 0.0281,-0.7864 0.0592,-1.17526 0.003,-0.0422 0.006,-0.0846 0.0111,-0.12414 0,-0.0197 0.003,-0.0395 0.006,-0.0592 0.18905,-2.11512 0.71192,-4.18716 1.54977,-6.13866 0.37421,-0.87404 0.80943,-1.72057 1.30239,-2.53359 0.0197,-0.0341 0.0422,-0.0706 0.0619,-0.1047 0.35955,-0.5791 0.74811,-1.13966 1.1642,-1.67959 1.07176,-1.39691 2.32151,-2.64756 3.71753,-3.72052 0.4116,-0.31737 0.83546,-0.61829 1.27098,-0.90186 0.37242,-0.2408 0.75231,-0.47023 1.13878,-0.68799 2.16477,-1.21086 4.53264,-2.01611 6.98697,-2.37566 0.95331,-0.1352 1.915,-0.2031 2.87789,-0.2031 h 0.006 c 0.0733,0 0.14657,-0.003 0.22255,-0.008 h 0.0141 c 2.60359,0.0305 5.17637,0.56954 7.57326,1.58686 0.0425,0.0168 0.0847,0.0338 0.12683,0.0536 h 0.006 c 0.73615,0.31857 1.56981,0.32963 2.31404,0.0311 1.14624,-0.45677 1.90213,-1.57191 1.90213,-2.8058 0,-0.38468 -0.0736,-0.76606 -0.21656,-1.12322 -0.29793,-0.74392 -0.87913,-1.34008 -1.61498,-1.65715 h -0.006 c -4.43963,-1.91471 -9.32614,-2.55573 -14.10946,-1.85159 l -0.10439,0.0164 -0.16631,0.0254 -0.0308,0.006 -0.12414,0.0197 c -3.60237,0.58061 -7.04261,1.91351 -10.09579,3.91167 l -0.0227,0.0141 c -0.0449,0.0311 -0.0927,0.0592 -0.1382,0.0903 l -0.14059,0.0927 c -0.0311,0.0227 -0.0622,0.0425 -0.0933,0.0652 -2.81747,1.90184 -5.2338,4.33912 -7.11111,7.17303 -0.0365,0.0562 -0.0787,0.11816 -0.11816,0.17738 l -0.0227,0.0341 -0.12115,0.18845 -0.0703,0.11008 c -0.0254,0.0395 -0.0508,0.079 -0.0733,0.11845 -0.0141,0.0224 -0.0284,0.0449 -0.0425,0.0649 l -0.0509,0.0787 -0.005,0.0144 0.003,-0.006 z"
   style="fill:#1066df;fill-rule:nonzero;stroke-width:0.299126"
   id="path3" />
        </g>
    </g>
</svg>
