<?xml version="1.0" encoding="UTF-8" standalone="no"?>
<svg
   width="381.58441"
   height="381.58267"
   viewBox="0 0 381.58441 381.58267"
   version="1.1"
   xml:space="preserve"
   style="clip-rule:evenodd;fill-rule:evenodd;stroke-linejoin:round;stroke-miterlimit:2"
   id="svg3"
   xmlns="http://www.w3.org/2000/svg"
   xmlns:svg="http://www.w3.org/2000/svg"><defs
   id="defs3" />
    <g
   transform="matrix(1.00373,0,0,1.01105,-321.01139,-326.86567)"
   id="g3">
        <g
   transform="matrix(3.98212,0,0,3.98212,0.583005,2.53258)"
   id="g1">
            <path
   d="m 128.08383,159.65908 c 17.74145,0 32.02441,-14.28297 32.02441,-31.57314 0,-17.29055 -14.28296,-31.573143 -32.02441,-31.573143 -17.74107,0 -32.024031,14.282963 -32.024031,31.573143 0,17.29017 14.283331,31.57314 32.024031,31.57314 z"
   style="fill:#46b549;fill-rule:nonzero;stroke-width:0.372641"
   id="path1" />
        </g>
        <g
   transform="matrix(3.98212,0,0,3.98212,0.583005,2.53258)"
   id="g2">
            <path
   d="m 154.90915,161.54315 c 1.7216,1.63105 1.61652,4.41729 -0.35773,5.73122 -18.57393,12.3579 -43.79391,10.54575 -60.28887,-5.80798 -18.793784,-18.64324 -18.793784,-48.41242 0,-67.055662 16.40888,-16.40888 41.86847,-18.177808 60.47481,-5.682405 1.88706,1.26698 2.02233,3.925775 0.41513,5.533349 -1.37132,1.371319 -3.54233,1.480876 -5.16332,0.41624 -15.47094,-10.158943 -36.54976,-8.318096 -50.013286,5.145429 -15.937116,15.485849 -15.937116,40.744579 -0.300721,56.230429 13.466137,13.46614 34.550167,15.30549 50.021487,5.13984 1.62732,-1.0691 3.79907,-0.98973 5.2125,0.34954 z m 6.93821,-6.78132 c 1.63217,1.72309 4.41915,1.62732 5.74314,-0.34246 10.77231,-16.02543 10.72648,-37.18214 -0.13713,-53.1636 -1.27294,-1.872518 -3.91869,-1.997725 -5.51993,-0.39686 -1.37915,1.37952 -1.48237,3.56506 -0.40022,5.18791 8.74291,13.10989 8.72987,30.16158 -0.0395,43.49058 -1.07283,1.63105 -0.98899,3.80727 0.35364,5.22443 z"
   style="fill:#46b549;fill-rule:nonzero;stroke-width:0.372641"
   id="path2" />
        </g>
    </g>
</svg>
