<?xml version="1.0" encoding="UTF-8" standalone="no"?>
<svg
   width="1097.4205"
   height="725.85822"
   viewBox="0 0 1097.4205 725.85822"
   version="1.1"
   xml:space="preserve"
   style="clip-rule:evenodd;fill-rule:evenodd;stroke-linejoin:round;stroke-miterlimit:2"
   id="svg3"
   xmlns="http://www.w3.org/2000/svg"
   xmlns:svg="http://www.w3.org/2000/svg"><defs
   id="defs3" />
    <g
   transform="matrix(3.98978,0,0,3.98978,38.599889,-149.49008)"
   id="g3">
        <path
   d="m 31.669116,206.62822 c -0.15562,0.0386 -0.318753,0.0386 -0.474373,0 -0.404611,-0.11806 -0.709412,-0.45613 -0.786685,-0.8704 -0.435735,-2.76467 11.56953,-28.1951 17.094571,-38.07427 2.76896,-4.90793 23.502889,-18.45866 37.478623,-25.10309 1.247106,-0.58921 9.326458,-4.46683 9.573303,-4.02465 0.246846,0.4411 -7.29374,6.30958 -7.68762,6.64443 -12.292893,9.85127 -34.269634,35.62406 -45.742573,50.28667 -7.306619,9.34148 -8.642804,10.97817 -9.455246,11.14131 z"
   style="fill-rule:nonzero;stroke-width:1.07324"
   id="path1" />
        <path
   d="m 157.49258,70.643309 c 19.3237,-0.604234 29.50231,4.909001 34.56585,9.820149 4.0912,3.645797 6.55965,8.780178 6.85157,14.25263 0.13093,7.314132 -7.78636,9.506762 -12.52042,10.832212 -0.63858,0.16313 -1.41024,0.37671 -2.04882,0.58921 3.26909,1.30613 10.7689,3.64902 17.51958,5.74398 28.07489,8.73725 39.95673,13.09139 40.96558,16.87241 0.21465,0.87255 -0.0623,1.79553 -0.72122,2.40621 -1.5079,1.25998 -4.35843,1.04641 -9.11288,0.24577 l -0.68795,-0.11484 c -48.77555,-7.7563 -82.12864,-7.19929 -82.47207,-7.19929 -89.486778,1.35765 -135.231498,66.14058 -150.27510641,87.43366 -3.95059739,5.61305 -5.52396759,7.83251 -6.97284199,7.87222 -0.4196369,-0.008 -0.826395,-0.14489 -1.1644657,-0.39388 -0.7383893,-0.62141 -1.1430009,-1.5562 -1.0893389,-2.51997 C -9.996218,206.38674 11.248573,146.67272 56.479211,112.74974 75.299552,98.616243 107.28962,84.306731 153.32841,95.570387 150.69683,92.747766 149.21898,89.037574 149.18892,85.179275 135.66717,86.945829 111.49136,85.016143 94.276586,82.773071 79.476603,80.792942 54.465812,76.768291 52.860245,71.072605 c -0.344511,-1.244958 0.163132,-2.585436 3.359242,-4.4518 14.381419,-8.444255 35.024122,-10.276276 35.024122,-10.276276 58.201821,-5.617339 66.248971,14.29878 66.248971,14.29878 z"
   style="fill-rule:nonzero;stroke-width:1.07324"
   id="path2" />
        <path
   d="m 93.866608,51.577196 c 0,0 -17.587188,-10.34389 -14.75276,-13.091385 2.835501,-2.747495 35.041292,0 56.219542,9.081759 21.17825,9.080686 22.51873,19.211001 22.51873,19.211001 C 150.95118,55.488083 132.77371,48.515241 93.865535,51.577196 Z M 244.14708,117.6727 c -3.14674,0.0977 -5.9157,0.1481 -10.0949,0.21787 -1.02709,-0.0129 -2.04345,-0.21143 -3.00078,-0.58492 l -26.9115,-8.54192 c -0.78669,-0.24577 -5.90068,-1.89749 -5.44777,-2.56934 0.45398,-0.67292 5.16229,-0.6375 5.98224,-0.6053 h 1.81914 c 33.02575,0.96591 52.44711,3.26372 57.96249,6.82258 0.73732,0.41105 1.09363,1.28682 0.85215,2.09604 -0.29836,1.20096 -0.60852,2.55861 -21.16107,3.16499 z m -210.539693,9.82122 c -0.871471,0.16635 -1.772992,0.0698 -2.588655,-0.27904 -1.359796,-0.55702 -2.00052,-1.63562 -3.26909,-3.26373 -3.268017,-3.99245 -4.589175,-8.50865 -3.523448,-11.74876 0.699753,-1.99944 2.399766,-3.49232 4.473266,-3.92698 6.441588,-1.63562 13.702058,0.87039 16.388379,3.92698 2.178677,2.39333 1.181637,3.17465 -1.637765,5.51538 -1.647424,1.37482 -3.207915,2.8516 -4.671815,4.41961 -2.393326,2.42767 -3.264797,4.42497 -5.170872,5.35654 z"
   style="fill-rule:nonzero;stroke-width:1.07324"
   id="path3" />
    </g>
</svg>
