<svg width="256" height="256" fill="none" xmlns="http://www.w3.org/2000/svg"><g clip-path="url(#a)"><g clip-path="url(#b)" fill="#000"><path d="M38.233 201.292a.92.92 0 0 1-.442 0 1.043 1.043 0 0 1-.733-.811c-.406-2.576 10.78-26.271 15.928-35.476 2.58-4.573 21.899-17.199 34.921-23.39 1.162-.549 8.69-4.162 8.92-3.75.23.411-6.796 5.879-7.163 6.191-11.454 9.179-31.931 33.193-42.621 46.855-6.808 8.704-8.053 10.229-8.81 10.381Z"/><path d="M155.47 74.587c18.005-.563 27.489 4.574 32.207 9.15a19.153 19.153 0 0 1 6.384 13.28c.122 6.815-7.255 8.858-11.666 10.093-.595.152-1.314.351-1.909.549 3.046 1.217 10.034 3.4 16.324 5.352 26.159 8.141 37.23 12.198 38.17 15.721a2.304 2.304 0 0 1-.672 2.242c-1.405 1.174-4.061.975-8.491.229l-.641-.107c-45.447-7.227-76.524-6.708-76.844-6.708-83.38 1.265-126.003 61.627-140.02 81.467-3.681 5.23-5.147 7.298-6.497 7.335a1.89 1.89 0 0 1-1.085-.367 2.863 2.863 0 0 1-1.015-2.348c-.304-9.408 19.491-65.047 61.635-96.655 17.536-13.169 47.343-26.502 90.24-16.007a14.36 14.36 0 0 1-3.857-9.682c-12.599 1.646-35.125-.152-51.165-2.242-13.79-1.845-37.094-5.595-38.59-10.902-.321-1.16.152-2.409 3.13-4.148 13.4-7.868 32.634-9.575 32.634-9.575 54.23-5.234 61.728 13.323 61.728 13.323Z"/><path d="M96.186 56.822S79.799 47.184 82.44 44.624c2.642-2.56 32.65 0 52.383 8.462 19.733 8.461 20.982 17.9 20.982 17.9-6.43-10.52-23.367-17.017-59.62-14.164ZM236.211 118.407c-2.932.091-5.512.138-9.406.203a7.96 7.96 0 0 1-2.796-.545l-25.075-7.959c-.733-.229-5.498-1.768-5.076-2.394.423-.627 4.81-.594 5.574-.564h1.695c30.772.9 48.868 3.041 54.007 6.357a1.684 1.684 0 0 1 .794 1.953c-.278 1.119-.567 2.384-19.717 2.949ZM40.039 127.558a4.154 4.154 0 0 1-2.412-.26c-1.267-.519-1.864-1.524-3.046-3.041-3.045-3.72-4.276-7.928-3.283-10.947a5.643 5.643 0 0 1 4.168-3.659c6.002-1.524 12.767.811 15.27 3.659 2.03 2.23 1.101 2.958-1.526 5.139a48.269 48.269 0 0 0-4.353 4.118c-2.23 2.262-3.042 4.123-4.818 4.991Z"/></g></g><defs><clipPath id="a"><path fill="#fff" d="M0 0h256v256H0z"/></clipPath><clipPath id="b"><rect width="256" height="256" rx="64" fill="#fff"/></clipPath></defs></svg>