<svg width="256" height="256" fill="none" xmlns="http://www.w3.org/2000/svg"><path d="m255.974 0-85.329 85.329h-56.878c-15.706 0-28.45 12.733-28.45 28.439 0 3.196.533 6.276 1.502 9.142a28.39 28.39 0 0 0 6.82 10.954c5.146 5.157 12.264 8.354 20.117 8.354l-28.44 28.439c-16.867 0-32.594-4.901-45.839-13.341C15.727 142.154-.012 115.59-.012 85.329-.012 38.199 38.188 0 85.317 0h170.657Z" fill="#B2FE92"/><path d="M255.974 170.658c0 47.129-38.2 85.328-85.329 85.328H-.012l85.329-85.328h56.889c15.706 0 28.439-12.733 28.439-28.439 0-.405 0-.8-.021-1.194 0-.277-.021-.533-.043-.799 0-.064 0-.117-.021-.192 0-.17-.021-.351-.043-.522 0-.149-.021-.298-.042-.447-.021-.15-.032-.32-.064-.469 0-.096-.021-.192-.032-.277-.032-.256-.075-.501-.107-.746 0-.021 0-.043-.021-.064-.053-.32-.106-.629-.181-.948a.934.934 0 0 0-.064-.288c-.064-.32-.139-.639-.213-.959-.021-.064-.032-.128-.053-.192a29.76 29.76 0 0 0-.245-.895 22.9 22.9 0 0 0-.352-1.119c-.224-.66-.48-1.321-.746-1.96a24.633 24.633 0 0 0-.565-1.236 18.996 18.996 0 0 0-.575-1.141c-.256-.479-.533-.948-.799-1.406a29.39 29.39 0 0 0-.544-.842 13.838 13.838 0 0 0-.639-.916 5.785 5.785 0 0 0-.298-.405c-.16-.224-.331-.437-.512-.661-.149-.202-.32-.405-.49-.607a44.833 44.833 0 0 0-.725-.831c-.298-.331-.596-.65-.916-.959a28.335 28.335 0 0 0-20.117-8.343l28.439-28.44c.554 0 1.108 0 1.662.022.416 0 .831.02 1.258.032a69.67 69.67 0 0 1 3.356.18c.362.022.735.054 1.098.097 1.395.106 2.791.266 4.166.447.405.053.799.107 1.204.17.533.075 1.076.16 1.609.256l1.119.192c.085.021.181.021.266.053.49.086.991.182 1.481.278.618.127 1.247.266 1.865.404l.383.096c.629.15 1.268.299 1.886.459.022 0 .043 0 .064.02.661.171 1.311.352 1.961.534.671.191 1.353.394 2.014.607a51.7 51.7 0 0 1 1.801.575c.074.032.159.064.245.086.586.202 1.182.404 1.768.628.086.022.171.064.256.096.618.224 1.236.448 1.844.703.65.245 1.289.512 1.928.789a69.114 69.114 0 0 1 3.9 1.769 65.12 65.12 0 0 1 1.737.863c.618.32 1.225.628 1.822.959.607.32 1.204.66 1.801 1.001.596.341 1.182.693 1.779 1.045.544.33 1.098.66 1.63 1.001.054.032.096.064.15.096a90.035 90.035 0 0 1 3.377 2.291 79.917 79.917 0 0 1 3.282 2.461c.49.384.97.768 1.449 1.173.086.063.16.127.245.191a84.155 84.155 0 0 1 4.486 3.996c.491.48.981.948 1.471 1.439.49.49.959.969 1.438 1.47.469.49.927.991 1.396 1.492.81.895 1.609 1.801 2.376 2.728.171.191.331.404.49.607.373.447.736.895 1.098 1.353a79.892 79.892 0 0 1 2.429 3.239s.022.022.022.043c.405.554.788 1.119 1.172 1.694.383.565.756 1.14 1.14 1.716.362.575.725 1.14 1.076 1.726.064.117.139.234.203.341.287.479.575.959.852 1.449.341.597.682 1.193 1.002 1.801.245.447.49.906.724 1.364a91.427 91.427 0 0 1 1.812 3.708c.159.341.319.682.468 1.033.235.522.459 1.045.682 1.577.235.565.469 1.14.693 1.705.213.533.426 1.087.618 1.63.096.246.192.501.277.757.149.394.288.778.416 1.172.266.778.532 1.566.767 2.355.192.575.362 1.161.522 1.737.053.149.096.309.138.458.171.607.331 1.215.491 1.822 0 .021.021.043.021.064.149.575.298 1.161.426 1.737.203.852.394 1.726.576 2.589.106.512.191 1.023.287 1.545.107.544.192 1.087.277 1.63.064.395.128.789.192 1.194.064.479.139.959.192 1.438.043.299.074.586.106.885.064.5.118 1.012.171 1.523v.022c.075.692.138 1.374.192 2.067 0 .064 0 .149.021.224.053.65.085 1.289.117 1.939 0 .085 0 .181.022.277.032.629.053 1.257.063 1.886v.288c.022.682.022 1.364.022 2.046l-.032-.043Z" fill="#078465"/></svg>