<?xml version="1.0" encoding="UTF-8" standalone="no"?>
<svg
   width="255.99876"
   height="256.00018"
   viewBox="0 0 255.99876 256.00018"
   version="1.1"
   xml:space="preserve"
   style="clip-rule:evenodd;fill-rule:evenodd;stroke-linejoin:round;stroke-miterlimit:2"
   id="svg1"
   xmlns="http://www.w3.org/2000/svg"
   xmlns:svg="http://www.w3.org/2000/svg"><defs
   id="defs1" />
    <g
   transform="matrix(4.11463,0,0,4.11463,-399.97322,-399.98563)"
   id="g1">
        <path
   d="m 146.74345,103.26109 5.3645,-5.364496 c 0.9145,-0.9145 2.39975,-0.91475 3.3145,-2.5e-4 l 3.31425,3.314496 c 0.91475,0.9145 0.9145,2.39975 0,3.3145 v -2.5e-4 l -5.36425,5.36425 c 3.8035,5.16075 6.05175,11.53475 6.05175,18.43 0,6.895 -2.24825,13.26925 -6.0505,18.42825 l 5.36475,5.36475 c 0.9145,0.9145 0.9145,2.3995 -2.5e-4,3.31425 l -3.3145,3.3145 c -0.9145,0.9145 -2.3995,0.9145 -3.314,0 l -5.36475,-5.36475 c -5.15975,3.803 -11.534,6.051 -18.429,6.051 -6.89525,0 -13.26925,-2.248 -18.42875,-6.05075 l -5.365,5.365 c -0.9145,0.91475 -2.3995,0.91475 -3.31425,0 l -3.314497,-3.3145 c -0.9145,-0.9145 -0.9145,-2.3995 0,-3.314 l 5.364997,-5.365 c -3.802747,-5.1595 -6.050747,-11.53375 -6.050747,-18.42875 0,-6.89525 2.248,-13.26925 6.050997,-18.42925 l -5.364497,-5.3645 c -0.9145,-0.9145 -0.91475,-2.39975 -2.5e-4,-3.3145 l 3.314497,-3.314246 c 0.9145,-0.91475 2.39975,-0.9145 3.3145,0 h -2.5e-4 l 5.36475,5.364746 c 5.15925,-3.802496 11.53325,-6.050496 18.4285,-6.050496 6.895,0 13.26925,2.248 18.4275,6.049996 z m -18.4275,3.32425 c 11.99525,0 21.73375,9.7385 21.73375,21.734 0,11.99525 -9.7385,21.73375 -21.73375,21.73375 -11.9955,0 -21.734,-9.7385 -21.734,-21.73375 0,-11.9955 9.7385,-21.734 21.734,-21.734 z"
   style="fill:#959595;stroke-width:0.25"
   id="path1" />
    </g>
</svg>
