<svg xmlns="http://www.w3.org/2000/svg" width="292" height="256" fill="none"><path fill="#006F9A" d="M252.364 72.476c-9.842-16.152-23.468-28.519-41.133-37.1C193.567 26.543 173.127 22 150.164 22H53.768v87.829H25v32.809h28.767V234h96.397c22.963 0 43.403-4.29 61.067-13.124 17.665-8.833 31.291-21.2 41.133-37.1C262.205 167.876 267 149.2 267 128c0-21.2-4.795-39.624-14.636-55.524Zm-54.002 103.729c-12.617 11.609-29.525 17.666-50.722 17.666h-44.665v-51.233h52.993v-32.809h-52.993V62.381h44.665c21.197 0 38.105 5.805 50.722 17.667 12.617 11.861 18.926 27.762 18.926 47.952 0 20.19-6.309 36.343-18.926 48.205Z"/></svg>