<?xml version="1.0" encoding="UTF-8" standalone="no"?>
<svg
   width="256.00009"
   height="186.18715"
   viewBox="0 0 256.00009 186.18715"
   version="1.1"
   xml:space="preserve"
   style="clip-rule:evenodd;fill-rule:evenodd;stroke-linejoin:round;stroke-miterlimit:2"
   id="svg1"
   xmlns="http://www.w3.org/2000/svg"
   xmlns:svg="http://www.w3.org/2000/svg"><defs
   id="defs1" />
    <g
   transform="matrix(4.3809,0,0,4.3809,-408.1126,-467.65941)"
   id="g1">
        <path
   d="m 151.59275,127.99962 c 0,3.87075 -1.037,7.49725 -2.84375,10.625 -1.8685,3.22925 -4.552,5.91275 -7.78125,7.78125 -0.11225,0.0627 -0.22125,0.1255 -0.3335,0.18825 -3.0485,1.691 -6.556,2.65525 -10.28825,2.65525 h -21.2465 l 3.983,-10.62475 H 101.13 l 3.983,-10.625 h 25.233 l -3.983,10.625 h 3.983 c 4.951,0 9.109,-3.3855 10.28825,-7.96975 0.22225,-0.8675 0.3345,-1.75975 0.3335,-2.65525 0,-5.86575 -4.756,-10.625 -10.625,-10.625 H 109.096 l 3.98325,-10.625 h 17.2635 c 3.87075,0 7.49725,1.03701 10.625,2.84375 3.22925,1.8685 5.91275,4.55201 7.78125,7.78125 1.80675,3.1245 2.84375,6.75401 2.84375,10.625 z m -46.48625,0 H 93.15725 l 3.983,-10.625 H 109.093 Z"
   style="fill:#c82020;fill-rule:nonzero;stroke-width:0.25"
   id="path1" />
    </g>
</svg>
