<svg width="256" height="256" fill="none" xmlns="http://www.w3.org/2000/svg"><g clip-path="url(#a)" fill-rule="evenodd" clip-rule="evenodd" fill="#959595"><path d="M128.316 3.887c68.676 0 124.433 55.756 124.433 124.433 0 68.676-55.757 124.432-124.433 124.432-68.677 0-124.433-55.756-124.433-124.432 0-68.677 55.756-124.433 124.433-124.433Zm0 37.497c47.981 0 86.935 38.954 86.935 86.936 0 47.981-38.954 86.935-86.935 86.935-47.982 0-86.936-38.954-86.936-86.935 0-47.982 38.954-86.936 86.936-86.936Z"/><path d="M249.999 33.144c3.658-3.659 3.659-9.6 0-13.258L236.742 6.628c-3.659-3.658-9.6-3.657-13.258.001l-40.1 40.1c-3.658 3.659-3.658 9.599 0 13.257l13.257 13.257c3.659 3.659 9.599 3.66 13.258 0l40.1-40.1ZM73.24 209.909c3.66-3.658 3.66-9.599.001-13.258l-13.257-13.257c-3.658-3.658-9.6-3.658-13.258.001l-40.1 40.1c-3.658 3.658-3.658 9.598 0 13.256l13.258 13.258c3.659 3.659 9.599 3.659 13.257 0l40.1-40.1ZM33.144 6.63c-3.659-3.658-9.6-3.659-13.258 0L6.628 19.887c-3.658 3.659-3.657 9.6.001 13.258l40.1 40.1c3.659 3.658 9.599 3.658 13.257 0l13.257-13.258c3.659-3.659 3.66-9.599 0-13.257l-40.1-40.1Zm176.761 176.762c-3.658-3.658-9.599-3.659-13.258 0l-13.257 13.257c-3.658 3.658-3.657 9.599.001 13.257l40.1 40.101c3.658 3.658 9.598 3.658 13.256 0l13.258-13.258c3.659-3.659 3.659-9.599.001-13.257l-40.101-40.1Z"/></g><defs><clipPath id="a"><path fill="#fff" d="M0 0h256v256H0z"/></clipPath></defs></svg>