<?xml version="1.0" encoding="UTF-8" standalone="no"?>
<svg
   width="256.00018"
   height="320.25613"
   viewBox="0 0 256.00018 320.25613"
   version="1.1"
   xml:space="preserve"
   style="clip-rule:evenodd;fill-rule:evenodd;stroke-linejoin:round;stroke-miterlimit:2"
   id="svg1"
   xmlns="http://www.w3.org/2000/svg"
   xmlns:svg="http://www.w3.org/2000/svg"><defs
   id="defs1" />
    <g
   transform="matrix(4.67367,0,0,4.67367,-799.15088,-1646.1356)"
   id="g1">
        <path
   d="m 170.99001,397.91191 3.17281,-7.6235 h 3.34922 c -0.0884,-1.35154 -0.13224,-2.65889 -0.13224,-3.92206 0,-1.70407 0.0733,-3.29031 0.2203,-4.75936 h -6.61009 l 3.17281,-7.6235 h 4.97965 c 4.64154,-14.51249 15.10004,-21.76873 31.37551,-21.76873 5.34661,0 10.42905,0.67561 15.24701,2.02683 v 9.60679 c -4.52403,-1.96855 -9.32758,-2.95251 -14.4097,-2.95251 -9.75344,0 -16.02572,4.36264 -18.81653,13.08762 h 29.04001 l -3.17281,7.6235 h -27.76211 c -0.14697,0.94009 -0.2203,2.20357 -0.2203,3.78982 0,1.82158 0.0586,3.45201 0.17611,4.8916 h 24.1926 l -3.12862,7.6235 h -19.38936 c 2.08575,5.28801 4.62712,8.96752 7.6235,11.03854 2.9967,2.07133 7.27097,3.10668 12.82346,3.10668 3.96592,0 8.31384,-0.94009 13.04375,-2.82027 v 9.03364 c -4.49489,1.64516 -9.84149,2.46774 -16.04013,2.46774 -16.30492,0 -26.61646,-7.60878 -30.93492,-22.82633 z"
   style="fill:#003f20;fill-rule:nonzero;stroke-width:0.313363"
   id="path1" />
    </g>
</svg>
