<svg xmlns="http://www.w3.org/2000/svg" xml:space="preserve" style="fill-rule:evenodd;clip-rule:evenodd;stroke-linejoin:round;stroke-miterlimit:2" viewBox="0 0 256 256"><path d="M1574.39 1673.38a101.438 101.438 0 0 1 29.24 81.41 101.377 101.377 0 0 1-44.18 74.35C1399.6 1936.9 1207.11 2000 1000 2000c-207.113 0-399.604-63.1-559.278-171.11a101.092 101.092 0 0 1-44.055-74.13 101.11 101.11 0 0 1 29.156-81.16c-.208-.22-.204-.22-.201-.23 44.783-44.78 114.483-52.88 168.342-19.56C711.744 1727.56 850.955 1770 1000 1770c149.05 0 288.26-42.44 406.22-115.9 53.72-33.23 123.24-25.15 167.91 19.52.25-.24.25-.24.26-.24Zm98.99-1247.769a101.438 101.438 0 0 1 81.41-29.244 101.386 101.386 0 0 1 74.35 44.186C1936.9 600.396 2000 792.887 2000 1000c0 207.11-63.1 399.6-171.11 559.28a101.092 101.092 0 0 1-74.13 44.05 101.103 101.103 0 0 1-81.16-29.15c-.22.2-.22.2-.23.2-44.78-44.78-52.88-114.49-19.56-168.34C1727.56 1288.26 1770 1149.05 1770 1000c0-149.045-42.44-288.256-115.9-406.219-33.23-53.722-25.15-123.243 19.52-167.909-.24-.253-.24-.257-.24-.261ZM171.105 440.722a101.122 101.122 0 0 1 155.299-14.899c.216-.208.22-.204.224-.201 44.779 44.783 52.88 114.483 19.565 168.342C272.438 711.744 230 850.955 230 1000c0 149.05 42.438 288.26 115.898 406.22 33.229 53.72 25.147 123.24-19.52 167.91.246.25.242.25.238.26a101.421 101.421 0 0 1-81.402 29.24 101.408 101.408 0 0 1-74.359-44.18C63.1 1399.6 0 1207.11 0 1000c0-207.113 63.1-399.604 171.105-559.278ZM1000 370c347.71 0 630 282.294 630 630 0 347.71-282.29 630-630 630-347.706 0-630-282.29-630-630 0-347.706 282.294-630 630-630Zm-574.389-43.384a101.421 101.421 0 0 1 14.942-155.761C600.396 63.1 792.887 0 1000 0c207.11 0 399.6 63.1 559.28 171.105a101.122 101.122 0 0 1 44.05 74.138 101.112 101.112 0 0 1-29.15 81.161c.2.216.2.22.2.224-44.78 44.779-114.49 52.88-168.34 19.565C1288.26 272.438 1149.05 230 1000 230c-149.045 0-288.256 42.438-406.219 115.898-53.722 33.229-123.243 25.147-167.909-19.52-.253.246-.257.242-.261.238Z" style="fill:#208e7a" transform="scale(.128)"/><path d="M561 1044.09s-38.404-.03-38.404 53.77c0 56.23 34.783 57.82 47.945 57.82h59.226c27.263 97.77 76.619 172.04 148.066 222.8 71.448 50.77 154.647 76.15 249.597 76.15 40.43 0 77.32-3.52 110.7-10.57 33.37-7.06 61.57-16.46 84.61-28.21 23.03-11.75 40.89-25.38 53.58-40.89 12.69-15.51 19.04-32.2 19.04-50.06 0-18.8-4.47-35.37-15.51-47.95-28.85-32.86-78.85-2.86-117.04 11.99-30.44 11.83-67.69 19.04-112.82 19.04-53.583 0-101.058-12.7-142.423-38.08-41.364-25.38-72.858-63.46-94.48-114.22l317.913-1.59s50.26-10 50.14-56.23c-.14-53.77-50.14-56.4-47.95-56.4L561 1044.09Zm0-84.09s-38.404.024-38.404-53.775c0-56.225 34.783-57.816 47.945-57.816h59.226c27.263-97.771 76.619-172.039 148.066-222.805 71.448-50.765 154.647-76.148 249.597-76.148 40.43 0 77.32 3.526 110.7 10.576 33.37 7.051 61.57 16.452 84.61 28.203 23.03 11.752 40.89 25.383 53.58 40.895 12.69 15.511 19.04 32.198 19.04 50.06 0 18.802-4.47 35.366-15.51 47.945C1251 760 1201 730 1162.81 715.149c-30.44-11.832-67.69-19.037-112.82-19.037-53.583 0-101.058 12.691-142.423 38.074-41.364 25.383-72.858 63.457-94.48 114.223L1131 850s50.26 10 50.14 56.225c-.14 53.775-50.14 56.406-47.95 56.406L561 960Z" style="fill:#fff;fill-rule:nonzero" transform="matrix(.128 0 0 .128 -.512 -.262)"/></svg>