<?xml version="1.0" encoding="UTF-8" standalone="no"?>
<svg
   width="256"
   height="256"
   viewBox="0 0 256 256"
   version="1.1"
   xml:space="preserve"
   style="clip-rule:evenodd;fill-rule:evenodd;stroke-linejoin:round;stroke-miterlimit:2"
   id="svg3"
   xmlns="http://www.w3.org/2000/svg"
   xmlns:svg="http://www.w3.org/2000/svg"><defs
   id="defs3" />
    <g
   transform="matrix(4,0,0,4,-384,-384)"
   id="g3">
        <g
   transform="scale(0.128)"
   id="g1">
            <path
   d="m 1143.5975,1168.345 c 5.35,5.35 8.0325,12.8225 7.31,20.3525 -0.72,7.53 -4.7775,14.355 -11.045,18.5875 C 1099.9,1234.225 1051.7775,1250 1000,1250 c -51.77825,0 -99.901,-15.775 -139.8195,-42.7775 -6.25025,-4.22 -10.294,-11.025 -11.01375,-18.5325 -0.7205,-7.5075 1.9555,-14.9575 7.289,-20.29 -0.052,-0.055 -0.051,-0.055 -0.0503,-0.058 11.19575,-11.195 28.62075,-13.22 42.0855,-4.89 29.445,18.4375 64.24775,29.0475 101.509,29.0475 37.26255,0 72.06505,-10.61 101.55505,-28.975 13.43,-8.3075 30.81,-6.2875 41.9775,4.88 0.062,-0.06 0.062,-0.06 0.065,-0.06 z m 24.7475,-311.94225 c 5.35,-5.34925 12.8225,-8.03325 20.3525,-7.311 7.53,0.72175 14.355,4.7775 18.5875,11.0465 C 1234.225,900.099 1250,948.22175 1250,1000 c 0,51.7775 -15.775,99.9 -42.7775,139.82 -4.22,6.25 -11.025,10.2925 -18.5325,11.0125 -7.5075,0.7225 -14.9575,-1.955 -20.29,-7.2875 -0.055,0.05 -0.055,0.05 -0.058,0.05 -11.195,-11.195 -13.22,-28.6225 -4.89,-42.085 18.4375,-29.445 29.0475,-64.2475 29.0475,-101.51 0,-37.26125 -10.61,-72.064 -28.975,-101.55475 -8.3075,-13.4305 -6.2875,-30.81075 4.88,-41.97725 -0.06,-0.0632 -0.06,-0.0643 -0.06,-0.0652 z m -375.56875,3.77775 c 4.6965,-6.9525 12.5585,-11.12925 20.94875,-11.12925 6.70225,0 13.13675,2.66525 17.876,7.4045 0.054,-0.052 0.055,-0.051 0.056,-0.0503 11.19475,11.19575 13.22,28.62075 4.89125,42.0855 C 818.1095,927.936 807.5,962.73875 807.5,1000 c 0,37.2625 10.6095,72.065 28.9745,101.555 8.30725,13.43 6.28675,30.81 -4.88,41.9775 0.0615,0.062 0.0605,0.062 0.0595,0.065 -5.349,5.35 -12.8205,8.0325 -20.3505,7.31 -7.53,-0.7225 -14.35525,-4.7775 -18.58975,-11.045 C 765.775,1099.9 750,1051.7775 750,1000 c 0,-51.77825 15.775,-99.901 42.77625,-139.8195 z M 1000,842.5 c 86.9275,0 157.5,70.5735 157.5,157.5 0,86.9275 -70.5725,157.5 -157.5,157.5 -86.9265,0 -157.5,-70.5725 -157.5,-157.5 0,-86.9265 70.5735,-157.5 157.5,-157.5 z M 856.40275,831.654 c -4.7535,-4.75325 -7.427,-11.207 -7.427,-17.9295 0,-8.415 4.18925,-16.30025 11.1625,-21.01075 C 900.099,765.775 948.22175,750 1000,750 c 51.7775,0 99.9,15.775 139.82,42.77625 6.25,4.22225 10.2925,11.027 11.0125,18.5345 0.72,7.5075 -1.955,14.957 -7.2875,20.29025 0.05,0.054 0.05,0.055 0.05,0.056 -11.195,11.19475 -28.6225,13.22 -42.085,4.89125 C 1072.065,818.1095 1037.2625,807.5 1000,807.5 c -37.26125,0 -72.064,10.6095 -101.55475,28.9745 -13.4305,8.30725 -30.81075,6.28675 -41.97725,-4.88 -0.0632,0.0615 -0.0643,0.0605 -0.0652,0.0595 z"
   style="fill:#208e7a;stroke-width:0.25"
   id="path1" />
        </g>
        <g
   transform="matrix(0.128,0,0,0.128,-0.512,-0.262)"
   id="g2">
            <path
   d="m 893.25,1012.5577 c 0,0 -9.601,-0.01 -9.601,13.4425 0,14.0575 8.69575,14.455 11.98625,14.455 h 14.8065 c 6.81575,24.4425 19.15475,43.01 37.0165,55.7 17.862,12.6925 38.66175,19.0375 62.39925,19.0375 10.1075,0 19.33,-0.88 27.675,-2.6425 8.3425,-1.765 15.3925,-4.115 21.1525,-7.0525 5.7575,-2.9375 10.2225,-6.345 13.395,-10.2225 3.1725,-3.8775 4.76,-8.05 4.76,-12.515 0,-4.7 -1.1175,-8.8425 -3.8775,-11.9875 -7.2125,-8.215 -19.7125,-0.715 -29.26,2.9975 -7.61,2.9575 -16.9225,4.76 -28.205,4.76 -13.3957,0 -25.2645,-3.175 -35.60575,-9.52 -10.341,-6.345 -18.2145,-15.865 -23.62,-28.555 l 79.47825,-0.3975 c 0,0 12.565,-2.5 12.535,-14.0575 -0.035,-13.4425 -12.535,-14.1 -11.9875,-14.1 z m 0,-21.02254 c 0,0 -9.601,0.006 -9.601,-13.44375 0,-14.05625 8.69575,-14.454 11.98625,-14.454 h 14.8065 c 6.81575,-24.44275 19.15475,-43.00975 37.0165,-55.70125 17.862,-12.69125 38.66175,-19.037 62.39925,-19.037 10.1075,0 19.33,0.8815 27.675,2.644 8.3425,1.76275 15.3925,4.113 21.1525,7.05075 5.7575,2.938 10.2225,6.34575 13.395,10.22375 3.1725,3.87775 4.76,8.0495 4.76,12.515 0,4.7005 -1.1175,8.8415 -3.8775,11.98625 -7.2125,8.21625 -19.7125,0.71625 -29.26,-2.9965 -7.61,-2.958 -16.9225,-4.75925 -28.205,-4.75925 -13.3957,0 -25.2645,3.17275 -35.60575,9.5185 -10.341,6.34575 -18.2145,15.86425 -23.62,28.55575 l 79.47825,0.39775 c 0,0 12.565,2.5 12.535,14.05625 -0.035,13.44375 -12.535,14.1015 -11.9875,14.1015 z"
   style="fill:#ffffff;fill-rule:nonzero;stroke-width:0.25"
   id="path2" />
        </g>
    </g>
</svg>
