<svg width="256" height="188" fill="none" xmlns="http://www.w3.org/2000/svg"><g clip-path="url(#a)"><path d="M225.888 20.275H115.405c-1.418 0-2.836 0-4.254.042-4.191.094-8.216.302-12.137.636-.333.031-.709.073-1.053.104-22.678 2.023-40.633 8.278-53.917 18.724-15.849 12.677-23.763 30.755-23.763 54.222 0 23.468 7.914 41.535 23.763 54.243 16.464 12.98 40.269 19.475 71.361 19.475 31.093 0 55.044-6.495 71.372-19.475 15.849-12.708 23.794-30.754 23.794-54.243 0-14.845-3.18-27.522-9.561-38.063-.042-.072-.073-.104-.104-.166a.8.8 0 0 0-.136-.209l.136-.062 29.82-16.9c8.748-4.973 5.235-18.328-4.838-18.328ZM170.47 57.702l-12.805 72.602c-.563 3.17-3.586 5.745-6.767 5.745h-17.913c-3.18 0-5.297-2.575-4.734-5.745l4.108-23.29H93.895l-4.108 23.29c-.563 3.17-3.587 5.745-6.767 5.745H65.106c-3.18 0-5.297-2.575-4.733-5.745l12.804-72.602c.552-3.18 3.586-5.744 6.756-5.744h17.924c3.17 0 5.286 2.565 4.734 5.744l-4.108 23.29h38.464l4.108-23.29c.553-3.18 3.587-5.744 6.757-5.744h17.924c3.17 0 5.286 2.565 4.734 5.744Z" fill="#2BCCB9"/><path d="M254.953 22.413C251.44 8.985 239.741-.002 225.883-.002H115.4c-1.584 0-3.169 0-4.765.031a236.84 236.84 0 0 0-13.617.75l-.886.063C69.637 3.24 47.866 10.945 31.36 23.924 10.538 40.594-.004 64.156-.004 94.004c0 29.847 10.542 53.398 31.468 70.162 20.051 15.825 48.308 23.832 83.936 23.832 35.629 0 64.063-8.007 84.051-23.926 20.823-16.701 31.406-40.263 31.406-70.069 0-10.686-1.429-20.652-4.202-29.785l14.066-7.975c12.074-6.829 17.788-20.455 14.232-33.83Zm-24.232 16.19-29.82 16.9-.136.062a.797.797 0 0 1 .136.209c.031.062.062.093.104.166 6.381 10.54 9.561 23.218 9.561 38.063 0 23.489-7.945 41.535-23.794 54.243-16.328 12.98-40.091 19.475-71.372 19.475-31.28 0-54.897-6.495-71.36-19.475-15.85-12.708-23.764-30.754-23.764-54.243 0-23.488 7.914-41.545 23.763-54.222C57.323 29.335 75.278 23.08 97.956 21.057c.344-.031.72-.073 1.053-.104 3.921-.334 7.946-.542 12.137-.636 1.418-.042 2.836-.042 4.254-.042h110.483c10.073 0 13.587 13.355 4.838 18.328Z" fill="#073744"/><path d="M165.731 51.957h-17.923c-3.17 0-6.204 2.565-6.757 5.744l-4.108 23.29H98.478l4.108-23.29c.553-3.18-1.564-5.744-4.733-5.744H79.929c-3.17 0-6.204 2.565-6.757 5.744l-12.804 72.602c-.563 3.17 1.554 5.745 4.734 5.745h17.913c3.18 0 6.204-2.575 6.767-5.745l4.108-23.29h38.465l-4.108 23.29c-.563 3.17 1.553 5.745 4.734 5.745h17.913c3.18 0 6.204-2.575 6.767-5.745l12.804-72.602c.553-3.18-1.564-5.744-4.734-5.744Z" fill="#073744"/></g><defs><clipPath id="a"><path fill="#fff" d="M0 0h256v188H0z"/></clipPath></defs></svg>