<?xml version="1.0" encoding="UTF-8" standalone="no"?>
<svg
   width="256"
   height="256"
   viewBox="0 0 256 256"
   version="1.1"
   xml:space="preserve"
   style="clip-rule:evenodd;fill-rule:evenodd;stroke-linejoin:round;stroke-miterlimit:2"
   id="svg1"
   xmlns="http://www.w3.org/2000/svg"
   xmlns:svg="http://www.w3.org/2000/svg"><defs
   id="defs1" />
    <g
   transform="matrix(4,0,0,4,-481.01,-286.986)"
   id="g1">
        <path
   d="m 152.24854,135.7465 c -17.64363,0 -31.99604,-14.35188 -31.99604,-31.99604 0,-17.643636 14.35241,-32.00396 31.99604,-32.00396 17.64416,0 32.00396,14.352408 32.00396,32.00396 0,17.65208 -14.3598,31.99604 -32.00396,31.99604 z m 0,-51.493761 c -10.74662,0 -19.4898,8.743178 -19.4898,19.489801 0,10.74663 8.74318,19.49033 19.4898,19.49033 10.74663,0 19.4898,-8.7437 19.4898,-19.49033 0,-10.746623 -8.74317,-19.489801 -19.4898,-19.489801 z"
   style="fill:#282828;fill-rule:nonzero;stroke-width:0.527778"
   id="path1" />
    </g>
</svg>
