<?xml version="1.0" encoding="UTF-8" standalone="no"?>
<svg
   width="256"
   height="255.62607"
   viewBox="0 0 256 255.62607"
   version="1.1"
   xml:space="preserve"
   style="clip-rule:evenodd;fill-rule:evenodd;stroke-linejoin:round;stroke-miterlimit:2"
   id="svg1"
   xmlns="http://www.w3.org/2000/svg"
   xmlns:svg="http://www.w3.org/2000/svg"><defs
   id="defs1" />
    <g
   transform="matrix(74.7882,0,0,74.7882,128,639.06517)"
   id="g1">
        <path
   d="M -0.3515,-6.958 -0.99125,-8.069 C -1.057,-8.15525 -1.12875,-8.23675 -1.206,-8.313 -1.2955,-8.4025 -1.39725,-8.44725 -1.51125,-8.44725 h -0.122 V -8.545 h 1.46475 v 0.09775 h -0.122 c -0.114,0 -0.175,0.04475 -0.18325,0.13425 -0.00825,0.08375 0.007,0.16825 0.044,0.244 L 0.088,-7.1705 0.72275,-8.07875 c 0.0405,-0.07475 0.061,-0.153 0.061,-0.23425 0,-0.0895 -0.057,-0.13425 -0.171,-0.13425 h -0.122 V -8.545 H 1.7115 v 0.09775 H 1.58925 c -0.11375,0 -0.227,0.04475 -0.33925,0.13425 -0.09275,0.07325 -0.1645,0.144 -0.21475,0.21225 L 1.0035,-8.05675 0.23675,-6.958 H 1.7115 v 0.244 h -1.36 l 0.6495,1.1255 c 0.04725,0.07325 0.113,0.14975 0.19775,0.2295 0.0945,0.0895 0.1985,0.13425 0.3125,0.13425 h 0.122 V -5.127 H 0.1685 v -0.09775 h 0.122 c 0.114,0 0.175,-0.04475 0.18325,-0.13425 C 0.482,-5.444 0.466,-5.5295 0.42725,-5.6055 L -0.088,-6.499 -0.7055,-5.61525 c -0.0505,0.076 -0.07775,0.165 -0.07825,0.25625 0,0.0895 0.057,0.13425 0.171,0.13425 h 0.122 V -5.127 H -1.7115 v -0.09775 h 0.12225 c 0.11375,0 0.22375,-0.04475 0.3295,-0.13425 0.09925,-0.083 0.1815,-0.1635 0.2465,-0.24175 L -0.2345,-6.714 h -1.477 v -0.244 z"
   style="fill-rule:nonzero;stroke-width:0.25"
   id="path1" />
    </g>
</svg>
