<svg width="248" height="256" fill="none" xmlns="http://www.w3.org/2000/svg"><path d="M247.472 75.854a86.534 86.534 0 0 0-1.598-9.487 83.498 83.498 0 0 0-2.763-9.488 86.983 86.983 0 0 0-4.041-9.487 85.698 85.698 0 0 0-5.525-9.464 77.468 77.468 0 0 0-4.635-6.242 74.699 74.699 0 0 0-2.786-3.246 77.857 77.857 0 0 0-6.735-6.696 62.67 62.67 0 0 0-3.288-2.791 81.421 81.421 0 0 0-6.256-4.585 80.338 80.338 0 0 0-8.356-4.903 19.282 19.282 0 0 0-1.187-.59 82.126 82.126 0 0 0-9.543-4.018 84.72 84.72 0 0 0-9.521-2.746A87.239 87.239 0 0 0 162.151 0H23.838A23.77 23.77 0 0 0 9.544 4.767a22.664 22.664 0 0 0-4.75 4.698A23.443 23.443 0 0 0 0 23.695v170.683c0 1.589.069 3.178.206 4.744a58.434 58.434 0 0 0 1.46 9.464 60.163 60.163 0 0 0 7.877 18.634c.069.119.145.233.23.341a59.073 59.073 0 0 0 7.51 9.487 32.337 32.337 0 0 0 1.782 1.77l.022.023a58.97 58.97 0 0 0 9.52 7.444c.11.084.224.16.344.227a60.735 60.735 0 0 0 9.2 4.767 61.477 61.477 0 0 0 9.544 3.064 59.887 59.887 0 0 0 9.52 1.453h.023V256h81.075v-.091a5.849 5.849 0 0 0 3.419-2.017 5.788 5.788 0 0 0 1.33-3.725 5.63 5.63 0 0 0-1.302-3.654 5.753 5.753 0 0 0-2.237-1.702 56.962 56.962 0 0 1-1.21-.681 91.314 91.314 0 0 1-4.772-2.86c-1.643-1.021-3.219-2.133-4.771-3.268a16.773 16.773 0 0 1-1.279-.954 80.916 80.916 0 0 1-3.493-2.769 87.543 87.543 0 0 1-3.082-2.678 77.782 77.782 0 0 1-4.156-4.04 33.432 33.432 0 0 1-1.529-1.611c-.275-.273-.526-.567-.777-.84a89.953 89.953 0 0 1-5.756-7.036 85.039 85.039 0 0 1-3.791-5.538 87.25 87.25 0 0 1-2.374-3.949 88.914 88.914 0 0 1-4.657-9.464 81.937 81.937 0 0 1-2.489-6.605 42.727 42.727 0 0 1-.913-2.883 69.473 69.473 0 0 1-1.279-4.744 83.564 83.564 0 0 1-1.027-4.744 92.084 92.084 0 0 1-1.256-9.487 85.402 85.402 0 0 1-.205-3.472 74.452 74.452 0 0 1-.091-3.927v-30.528H58.948a5.853 5.853 0 0 1-3.743-1.334 5.789 5.789 0 0 1-2.013-3.409 5.638 5.638 0 0 1 .959-4.426l.206-.295 2.877-4.086 1.735-2.451 2.078-2.951 5.708-8.125.958-1.362 6.69-9.488 1.895-2.7 4.773-6.787 4.771-6.763 1.895-2.701 2.877-4.086 3.816-5.4.958-1.363 5.731-8.125 3.79-5.402 2.877-4.085 1.872-2.656a5.843 5.843 0 0 1 2.095-1.835 5.882 5.882 0 0 1 5.423 0 5.851 5.851 0 0 1 2.095 1.835l1.872 2.656 2.854 4.063 3.813 5.424.959 1.34 4.771 6.786.959 1.362 3.816 5.401 2.877 4.086 1.872 2.678 4.795 6.786 4.749 6.764 1.918 2.724 6.69 9.487.935 1.339 5.731 8.149 3.816 5.401 2.877 4.085.205.296a5.637 5.637 0 0 1 .959 4.425 5.88 5.88 0 0 1-1.399 2.799 5.93 5.93 0 0 1-2.642 1.695 6.062 6.062 0 0 1-1.735.25h-31.645v28.462a23.445 23.445 0 0 0 1.987 9.464 22.49 22.49 0 0 0 2.762 4.698 24.369 24.369 0 0 0 9.544 7.559 23.85 23.85 0 0 0 9.544 1.975c.41 0 .822 0 1.233-.023a83.557 83.557 0 0 0 8.31-.499 87.94 87.94 0 0 0 9.544-1.589 83.21 83.21 0 0 0 9.178-2.633h.342v-.113a82.244 82.244 0 0 0 9.544-4.017 84.195 84.195 0 0 0 9.338-5.357h.206v-.137a83.425 83.425 0 0 0 9.544-7.376 56.147 56.147 0 0 0 2.123-1.952 84.808 84.808 0 0 0 7.397-7.967c.411-.5.799-.999 1.187-1.521a81.53 81.53 0 0 0 6.416-9.487 65.503 65.503 0 0 0 1.94-3.518 83.885 83.885 0 0 0 2.831-5.97 108.155 108.155 0 0 0 1.827-4.743 70.673 70.673 0 0 0 1.529-4.721c.9-3.12 1.624-6.288 2.169-9.488a81 81 0 0 0 1.05-9.487H248V85.317a86.474 86.474 0 0 0-.528-9.463Z" fill="#3749E7"/></svg>