<?xml version="1.0" encoding="UTF-8" standalone="no"?>
<svg
   width="256.00003"
   height="264.25821"
   viewBox="0 0 256.00003 264.25821"
   version="1.1"
   xml:space="preserve"
   style="clip-rule:evenodd;fill-rule:evenodd;stroke-linejoin:round;stroke-miterlimit:2"
   id="svg1"
   xmlns="http://www.w3.org/2000/svg"
   xmlns:svg="http://www.w3.org/2000/svg"><defs
   id="defs1" />
    <g
   transform="matrix(4,0,0,4,-367.99997,-379.87096)"
   id="g1">
        <path
   d="m 155.86374,114.54297 c -0.0919,-0.82323 -0.22968,-1.64052 -0.41239,-2.44826 -0.18916,-0.82942 -0.4271,-1.64723 -0.71303,-2.44852 -0.29884,-0.83587 -0.64723,-1.65342 -1.04284,-2.44826 -0.42271,-0.84361 -0.89884,-1.65935 -1.42581,-2.44232 -0.37161,-0.55664 -0.77084,-1.09419 -1.19613,-1.61084 -0.23148,-0.28593 -0.47148,-0.56542 -0.71896,-0.83767 -0.54375,-0.61084 -1.12413,-1.18788 -1.73807,-1.728 -0.27458,-0.24981 -0.55742,-0.49007 -0.84851,-0.720263 -0.51897,-0.419871 -1.05781,-0.814709 -1.61446,-1.183226 -0.69264,-0.464774 -1.4129,-0.887225 -2.15638,-1.26529 -0.10039,-0.05419 -0.20258,-0.105032 -0.30633,-0.152258 -0.79819,-0.397161 -1.6209,-0.743484 -2.46271,-1.036903 -0.80438,-0.283871 -1.62477,-0.520516 -2.45703,-0.708645 -1.61677,-0.362323 -3.26864,-0.545033 -4.92567,-0.544775 H 98.151738 c -1.330323,-7.74e-4 -2.62529,0.430968 -3.688774,1.230194 -0.466323,0.341419 -0.879226,0.749935 -1.225807,1.212387 -0.803613,1.055226 -1.238451,2.345807 -1.237161,3.672259 v 44.04722 c 0,0.41007 0.01781,0.82013 0.05316,1.22426 0.05858,0.82297 0.184516,1.64 0.376774,2.44233 0.401291,1.70606 1.088517,3.33212 2.032775,4.80877 0.01781,0.0307 0.03742,0.0601 0.05935,0.088 0.560517,0.88026 1.210065,1.70064 1.938065,2.44826 0.147355,0.15819 0.300645,0.31045 0.459871,0.45677 l 0.0057,0.006 c 0.750968,0.72284 1.574194,1.36645 2.456774,1.92103 0.02839,0.0217 0.05781,0.0413 0.08877,0.0586 0.754835,0.4769 1.549155,0.88852 2.374195,1.23019 0.79819,0.33007 1.62193,0.59458 2.46296,0.79071 0.80749,0.19071 1.62916,0.31613 2.45678,0.37497 h 0.006 v 0.0526 h 20.92258 v -0.0235 c 0.34581,-0.0653 0.65807,-0.24955 0.88233,-0.52051 0.22374,-0.2702 0.34529,-0.61058 0.34322,-0.96129 0.003,-0.344 -0.11587,-0.67846 -0.336,-0.94297 -0.15303,-0.192 -0.35148,-0.34271 -0.57729,-0.43923 -0.10477,-0.0573 -0.20877,-0.11587 -0.31226,-0.17574 -0.4178,-0.23355 -0.82864,-0.47948 -1.23148,-0.73806 -0.424,-0.26349 -0.83071,-0.55046 -1.23123,-0.84336 -0.1138,-0.0769 -0.224,-0.15897 -0.33006,-0.24619 -0.3071,-0.22994 -0.60748,-0.46813 -0.90142,-0.71458 -0.27045,-0.22426 -0.53574,-0.45445 -0.79536,-0.6911 -0.37032,-0.33419 -0.728,-0.68181 -1.07251,-1.04258 -0.136,-0.13419 -0.26761,-0.27277 -0.39458,-0.41574 -0.071,-0.0704 -0.13574,-0.14632 -0.20052,-0.21678 -0.52542,-0.57987 -1.02116,-1.1858 -1.48542,-1.81574 -0.34477,-0.46322 -0.67122,-0.94013 -0.97832,-1.42916 -0.21316,-0.33419 -0.41755,-0.67406 -0.61265,-1.0191 -0.44851,-0.78967 -0.8498,-1.60516 -1.2018,-2.44232 -0.23845,-0.55871 -0.4529,-1.12748 -0.64232,-1.70452 -0.0872,-0.24516 -0.16594,-0.49341 -0.23562,-0.744 -0.12438,-0.40412 -0.23458,-0.81238 -0.33006,-1.22425 -0.10013,-0.40542 -0.18865,-0.81368 -0.26503,-1.22426 -0.15046,-0.80981 -0.25858,-1.6271 -0.32413,-2.44826 -0.0237,-0.29832 -0.0413,-0.5969 -0.0529,-0.896 -0.0168,-0.33755 -0.0245,-0.67535 -0.0235,-1.01342 v -7.87819 h -8.17239 c -0.35226,0.001 -0.69393,-0.12052 -0.96593,-0.34426 -0.27123,-0.22297 -0.45523,-0.53471 -0.51949,-0.87974 -0.0808,-0.39845 0.009,-0.81291 0.24749,-1.1422 l 0.0532,-0.0761 0.74245,-1.05446 0.44774,-0.63251 0.53626,-0.76155 1.47303,-2.09678 0.24723,-0.35148 1.72645,-2.44852 0.48903,-0.69677 1.23174,-1.75148 1.23123,-1.74529 0.48903,-0.69704 0.74245,-1.05445 0.98478,-1.39355 0.24722,-0.35174 1.47897,-2.09677 0.97807,-1.39407 0.74245,-1.05419 0.48309,-0.68542 c 0.13936,-0.19923 0.32491,-0.36155 0.54065,-0.47355 0.43819,-0.22761 0.96129,-0.22761 1.39948,0 0.21575,0.112 0.40129,0.27458 0.54065,0.47355 l 0.4831,0.68542 0.73651,1.04852 0.984,1.39974 0.24749,0.3458 1.23122,1.75123 0.24749,0.35148 0.98477,1.39381 0.74245,1.05445 0.4831,0.6911 1.23742,1.75122 1.22555,1.74555 0.49496,0.70297 1.72645,2.44826 0.2413,0.34555 1.47896,2.10297 0.98478,1.3938 0.74245,1.0542 0.0529,0.0764 c 0.23845,0.32929 0.32826,0.74374 0.24749,1.14194 -0.0529,0.2689 -0.17755,0.51871 -0.36104,0.72232 -0.18374,0.20439 -0.41935,0.35561 -0.6818,0.43742 -0.14529,0.0431 -0.29626,0.0648 -0.44774,0.0645 h -8.16646 v 7.34503 c -7.7e-4,0.84077 0.17394,1.67277 0.51278,2.44232 0.18761,0.43148 0.42684,0.83871 0.71277,1.21239 0.64258,0.848 1.49032,1.51948 2.46297,1.95071 0.77703,0.33755 1.61574,0.51122 2.46297,0.50967 0.1058,0 0.21213,0 0.31819,-0.006 0.71665,-0.007 1.43226,-0.0503 2.14452,-0.12877 0.82787,-0.0914 1.65006,-0.22839 2.46296,-0.41007 0.80181,-0.1809 1.59278,-0.40774 2.36852,-0.67948 h 0.0883 v -0.0292 c 0.84206,-0.29342 1.66452,-0.63975 2.46297,-1.03665 0.832,-0.40903 1.6369,-0.87071 2.4098,-1.38245 h 0.0532 v -0.0354 c 0.86581,-0.57419 1.68904,-1.21032 2.46297,-1.90348 0.18684,-0.1631 0.36955,-0.3311 0.54787,-0.50374 0.67975,-0.64387 1.31716,-1.33058 1.90891,-2.056 0.10606,-0.12903 0.20619,-0.25781 0.30632,-0.39252 0.60852,-0.77626 1.16181,-1.59432 1.65574,-2.44826 0.176,-0.29754 0.34297,-0.60025 0.50065,-0.90787 0.26374,-0.50374 0.50735,-1.0178 0.73058,-1.54064 0.16671,-0.40413 0.32387,-0.81239 0.47148,-1.224 0.14581,-0.40129 0.27742,-0.80774 0.39458,-1.21832 0.23226,-0.80517 0.4191,-1.62271 0.55974,-2.44852 0.13833,-0.81007 0.22891,-1.62761 0.27097,-2.44826 H 156 v -4.89729 c -7.8e-4,-0.816 -0.0462,-1.63123 -0.13626,-2.44206 z"
   style="fill:#3749e7;fill-rule:nonzero;stroke-width:0.258065"
   id="path1" />
    </g>
</svg>
