<svg width="256" height="256" fill="none" xmlns="http://www.w3.org/2000/svg"><g clip-path="url(#a)"><mask id="b" style="mask-type:luminance" maskUnits="userSpaceOnUse" x="-1" y="0" width="257" height="256"><path d="M255.206 0H-.012v255.08h255.218V0Z" fill="#fff"/></mask><g mask="url(#b)" fill="#281149"><path d="M191.313 256.229c35.219 0 63.77-28.55 63.77-63.77 0-35.219-28.551-63.77-63.77-63.77-35.219 0-63.77 28.551-63.77 63.77 0 35.22 28.551 63.77 63.77 63.77ZM63.762 128.69c35.22 0 63.77-28.55 63.77-63.77 0-35.219-28.55-63.77-63.77-63.77-35.219 0-63.77 28.551-63.77 63.77 0 35.22 28.551 63.77 63.77 63.77ZM51.013 255.538c28.178 0 51.021-22.843 51.021-51.021s-22.843-51.021-51.02-51.021c-28.179 0-51.022 22.843-51.022 51.021s22.843 51.021 51.021 51.021ZM204.185 1.15c-27.989 0-51.021 23.033-51.021 51.021 0 27.99 23.032 51.021 51.021 51.021s51.021-23.032 51.021-51.02c0-27.99-23.032-51.022-51.021-51.022Zm-.226 76.52c-13.995 0-25.511-11.516-25.511-25.511s11.516-25.51 25.511-25.51 25.511 11.515 25.511 25.51v.012c0 13.988-11.511 25.498-25.498 25.498h-.013Z"/></g></g><defs><clipPath id="a"><path fill="#fff" d="M0 0h256v256H0z"/></clipPath></defs></svg>