<?xml version="1.0" encoding="UTF-8" standalone="no"?>
<svg
   width="256.00006"
   height="346.60681"
   viewBox="0 0 256.00006 346.60681"
   version="1.1"
   xml:space="preserve"
   style="clip-rule:evenodd;fill-rule:evenodd;stroke-linejoin:round;stroke-miterlimit:2"
   id="svg1"
   xmlns="http://www.w3.org/2000/svg"
   xmlns:svg="http://www.w3.org/2000/svg"><defs
   id="defs1" />
    <g
   transform="matrix(4.91778,0,0,4.91778,-2180.7305,-1486.4965)"
   id="g1">
        <path
   d="m 443.43799,354.52082 h 8.676 v -7.89614 h -8.676 v -8.38356 h 8.676 v -35.97129 h 18.91174 c 7.60369,0 13.58266,1.91717 17.93691,5.7515 4.35425,3.83434 6.53137,9.19592 6.53137,16.08473 0,2.79452 -0.42243,5.5403 -1.26728,8.23733 -0.84485,2.69704 -2.19337,5.13412 -4.04555,7.31124 -1.85218,2.17712 -4.27302,3.91558 -7.2625,5.21535 -2.98948,1.29978 -6.62886,1.94966 -10.91812,1.94966 h -10.4307 v 7.70118 h 9.74832 v 8.38355 h -9.74832 v 9.8458 h -9.45587 v -9.8458 h -8.676 z m 28.56257,-16.8646 c 2.72953,0 5.00414,-0.43867 6.82383,-1.31602 1.81968,-0.87735 3.26568,-2.0309 4.338,-3.46065 1.07231,-1.42976 1.83593,-2.90825 2.29085,-4.43549 0.45492,-1.52723 0.68239,-2.90825 0.68239,-4.14303 0,-1.88468 -0.43868,-3.83434 -1.31603,-5.84899 -0.87735,-2.01466 -2.3071,-3.70437 -4.28926,-5.06913 -1.98216,-1.36476 -4.66294,-2.04715 -8.04236,-2.04715 h -10.91812 v 26.32046 z"
   style="fill:#003f20;fill-rule:nonzero;stroke-width:0.338483"
   id="path1" />
    </g>
</svg>
