<?xml version="1.0" encoding="UTF-8" standalone="no"?>
<svg
   width="255.99898"
   height="255.99898"
   viewBox="0 0 255.99898 255.99898"
   version="1.1"
   xml:space="preserve"
   style="clip-rule:evenodd;fill-rule:evenodd;stroke-linejoin:round;stroke-miterlimit:2"
   id="svg3"
   xmlns="http://www.w3.org/2000/svg"
   xmlns:svg="http://www.w3.org/2000/svg"><defs
   id="defs3" />
    <g
   transform="matrix(1.23373,0,0,1.23373,-383.99846,-383.99846)"
   id="g3">
        <g
   transform="scale(0.415)"
   id="g1">
            <path
   d="m 1143.5975,1168.345 c 5.35,5.35 8.0325,12.8225 7.31,20.3525 -0.72,7.53 -4.7775,14.355 -11.045,18.5875 C 1099.9,1234.225 1051.7775,1250 1000,1250 c -51.77825,0 -99.901,-15.775 -139.8195,-42.7775 -6.25025,-4.22 -10.294,-11.025 -11.01375,-18.5325 -0.7205,-7.5075 1.9555,-14.9575 7.289,-20.29 -0.052,-0.055 -0.051,-0.055 -0.0503,-0.058 11.19575,-11.195 28.62075,-13.22 42.0855,-4.89 29.445,18.4375 64.24775,29.0475 101.509,29.0475 37.26255,0 72.06505,-10.61 101.55505,-28.975 13.43,-8.3075 30.81,-6.2875 41.9775,4.88 0.062,-0.06 0.062,-0.06 0.065,-0.06 z m 24.7475,-311.94225 c 5.35,-5.34925 12.8225,-8.03325 20.3525,-7.311 7.53,0.72175 14.355,4.7775 18.5875,11.0465 C 1234.225,900.099 1250,948.22175 1250,1000 c 0,51.7775 -15.775,99.9 -42.7775,139.82 -4.22,6.25 -11.025,10.2925 -18.5325,11.0125 -7.5075,0.7225 -14.9575,-1.955 -20.29,-7.2875 -0.055,0.05 -0.055,0.05 -0.058,0.05 -11.195,-11.195 -13.22,-28.6225 -4.89,-42.085 18.4375,-29.445 29.0475,-64.2475 29.0475,-101.51 0,-37.26125 -10.61,-72.064 -28.975,-101.55475 -8.3075,-13.4305 -6.2875,-30.81075 4.88,-41.97725 -0.06,-0.0632 -0.06,-0.0643 -0.06,-0.0652 z m -375.56875,3.77775 c 4.6965,-6.9525 12.5585,-11.12925 20.94875,-11.12925 6.70225,0 13.13675,2.66525 17.876,7.4045 0.054,-0.052 0.055,-0.051 0.056,-0.0503 11.19475,11.19575 13.22,28.62075 4.89125,42.0855 C 818.1095,927.936 807.5,962.73875 807.5,1000 c 0,37.2625 10.6095,72.065 28.9745,101.555 8.30725,13.43 6.28675,30.81 -4.88,41.9775 0.0615,0.062 0.0605,0.062 0.0595,0.065 -5.349,5.35 -12.8205,8.0325 -20.3505,7.31 -7.53,-0.7225 -14.35525,-4.7775 -18.58975,-11.045 C 765.775,1099.9 750,1051.7775 750,1000 c 0,-51.77825 15.775,-99.901 42.77625,-139.8195 z M 1000,842.5 c 86.9275,0 157.5,70.5735 157.5,157.5 0,86.9275 -70.5725,157.5 -157.5,157.5 -86.9265,0 -157.5,-70.5725 -157.5,-157.5 0,-86.9265 70.5735,-157.5 157.5,-157.5 z M 856.40275,831.654 c -4.7535,-4.75325 -7.427,-11.207 -7.427,-17.9295 0,-8.415 4.18925,-16.30025 11.1625,-21.01075 C 900.099,765.775 948.22175,750 1000,750 c 51.7775,0 99.9,15.775 139.82,42.77625 6.25,4.22225 10.2925,11.027 11.0125,18.5345 0.72,7.5075 -1.955,14.957 -7.2875,20.29025 0.05,0.054 0.05,0.055 0.05,0.056 -11.195,11.19475 -28.6225,13.22 -42.085,4.89125 C 1072.065,818.1095 1037.2625,807.5 1000,807.5 c -37.26125,0 -72.064,10.6095 -101.55475,28.9745 -13.4305,8.30725 -30.81075,6.28675 -41.97725,-4.88 -0.0632,0.0615 -0.0643,0.0605 -0.0652,0.0595 z"
   style="fill:#208e7a;stroke-width:0.25"
   id="path1" />
        </g>
        <g
   transform="matrix(2.03201,0,0,2.03201,-1627.21,-1436.95)"
   id="g2">
            <path
   d="m 987.06775,915.06192 c -1.42425,0 -1.63,-1.896 -1.63,-3.24 0,-1.248 0.264,-2.124 0.792,-2.628 0.528,-0.504 1.176,-0.756 1.944,-0.756 h 4.392 v -14.904 c 0,-0.864 0.252,-1.548 0.756,-2.052 0.504,-0.504 1.164,-0.876 1.98,-1.116 0.768,-0.24 1.644,-0.456 2.628,-0.648 0.984,-0.192 1.992,-0.36 3.02395,-0.504 1.028,-0.1435 2.0605,-0.25175 3.096,-0.324 1.0325,-0.072 2.005,-0.108 2.915,-0.108 5.8575,0 10.26,1.2 13.2125,3.6 2.9525,2.4 4.4275,5.664 4.4275,9.792 0,3.888 -1.355,7.008 -4.0675,9.36 -2.7125,2.352 -6.755,3.528 -12.1325,3.528 z m 14.64195,9.864 v 4.81975 c 0,0 -0.1655,2.268 -0.947,3.16825 -0.6945,0.79975 -2.41295,1.08475 -3.22895,1.08475 -1.776,0 -3.048,-0.3375 -3.816,-1.00875 -0.768,-0.672 -1.152,-1.776 -1.152,-3.312 v -4.752 l -5.21275,0.063 c -1.02325,0.0122 -1.55525,-0.819 -1.69925,-1.323 -0.144,-0.504 -0.216,-1.044 -0.216,-1.62 0,-1.104 0.228,-1.884 0.684,-2.34 0.456,-0.456 1.02,-0.684 1.692,-0.684 0,0 24.64595,-0.0828 30.08845,0.102 1.55,0.0527 2.05,0.47075 2.275,1.23 0.1675,0.5485 0.2525,1.11875 0.2525,1.692 0,0.96 -0.24,1.68 -0.72,2.16 -0.48,0.48 -1.055,0.72 -1.7275,0.72 z m 5.6875,-16.848 c 2.4975,0 4.44,-0.492 5.8325,-1.476 1.3925,-0.984 2.0875,-2.436 2.0875,-4.356 0,-2.016 -0.7425,-3.528 -2.2325,-4.536 -1.4875,-1.008 -3.5275,-1.512 -6.12,-1.512 -0.8625,0 -1.75,0.036 -2.6625,0.108 -0.9125,0.072 -1.7765,0.228 -2.5925,0.468 v 11.304 z"
   style="fill:#ffffff;fill-rule:nonzero;stroke-width:0.25"
   id="path2" />
        </g>
    </g>
</svg>
