<svg xmlns="http://www.w3.org/2000/svg" xml:space="preserve" style="fill-rule:evenodd;clip-rule:evenodd;stroke-linejoin:round;stroke-miterlimit:2" viewBox="0 0 256 256"><path d="M1574.39 1673.38a101.438 101.438 0 0 1 29.24 81.41 101.377 101.377 0 0 1-44.18 74.35C1399.6 1936.9 1207.11 2000 1000 2000c-207.113 0-399.604-63.1-559.278-171.11a101.092 101.092 0 0 1-44.055-74.13 101.11 101.11 0 0 1 29.156-81.16c-.208-.22-.204-.22-.201-.23 44.783-44.78 114.483-52.88 168.342-19.56C711.744 1727.56 850.955 1770 1000 1770c149.05 0 288.26-42.44 406.22-115.9 53.72-33.23 123.24-25.15 167.91 19.52.25-.24.25-.24.26-.24Zm98.99-1247.769a101.438 101.438 0 0 1 81.41-29.244 101.386 101.386 0 0 1 74.35 44.186C1936.9 600.396 2000 792.887 2000 1000c0 207.11-63.1 399.6-171.11 559.28a101.092 101.092 0 0 1-74.13 44.05 101.103 101.103 0 0 1-81.16-29.15c-.22.2-.22.2-.23.2-44.78-44.78-52.88-114.49-19.56-168.34C1727.56 1288.26 1770 1149.05 1770 1000c0-149.045-42.44-288.256-115.9-406.219-33.23-53.722-25.15-123.243 19.52-167.909-.24-.253-.24-.257-.24-.261ZM171.105 440.722a101.122 101.122 0 0 1 155.299-14.899c.216-.208.22-.204.224-.201 44.779 44.783 52.88 114.483 19.565 168.342C272.438 711.744 230 850.955 230 1000c0 149.05 42.438 288.26 115.898 406.22 33.229 53.72 25.147 123.24-19.52 167.91.246.25.242.25.238.26a101.421 101.421 0 0 1-81.402 29.24 101.408 101.408 0 0 1-74.359-44.18C63.1 1399.6 0 1207.11 0 1000c0-207.113 63.1-399.604 171.105-559.278ZM1000 370c347.71 0 630 282.294 630 630 0 347.71-282.29 630-630 630-347.706 0-630-282.29-630-630 0-347.706 282.294-630 630-630Zm-574.389-43.384a101.421 101.421 0 0 1 14.942-155.761C600.396 63.1 792.887 0 1000 0c207.11 0 399.6 63.1 559.28 171.105a101.122 101.122 0 0 1 44.05 74.138 101.112 101.112 0 0 1-29.15 81.161c.2.216.2.22.2.224-44.78 44.779-114.49 52.88-168.34 19.565C1288.26 272.438 1149.05 230 1000 230c-149.045 0-288.256 42.438-406.219 115.898-53.722 33.229-123.243 25.147-167.909-19.52-.253.246-.257.242-.261.238Z" style="fill:#208e7a" transform="scale(.128)"/><path d="M933.212 926.083c-5.697 0-6.52-7.584-6.52-12.96 0-4.992 1.056-8.496 3.168-10.512s4.704-3.024 7.776-3.024h17.568v-59.616c0-3.456 1.008-6.192 3.024-8.208s4.656-3.504 7.92-4.464c3.072-.96 6.576-1.824 10.512-2.592 3.936-.768 7.968-1.44 12.096-2.016a180.481 180.481 0 0 1 12.384-1.296c4.13-.288 8.02-.432 11.66-.432 23.43 0 41.04 4.8 52.85 14.4 11.81 9.6 17.71 22.656 17.71 39.168 0 15.552-5.42 28.032-16.27 37.44-10.85 9.408-27.02 14.112-48.53 14.112h-85.348Zm58.568 39.456v19.279s-.662 9.072-3.788 12.673c-2.778 3.199-9.652 4.339-12.916 4.339-7.104 0-12.192-1.35-15.264-4.035-3.072-2.688-4.608-7.104-4.608-13.248v-19.008l-20.851.252c-4.093.049-6.221-3.276-6.797-5.292-.576-2.016-.864-4.176-.864-6.48 0-4.416.912-7.536 2.736-9.36 1.824-1.824 4.08-2.736 6.768-2.736 0 0 98.584-.331 120.354.408 6.2.211 8.2 1.883 9.1 4.92a23.343 23.343 0 0 1 1.01 6.768c0 3.84-.96 6.72-2.88 8.64-1.92 1.92-4.22 2.88-6.91 2.88h-65.09Zm22.75-67.392c9.99 0 17.76-1.968 23.33-5.904 5.57-3.936 8.35-9.744 8.35-17.424 0-8.064-2.97-14.112-8.93-18.144-5.95-4.032-14.11-6.048-24.48-6.048-3.45 0-7 .144-10.65.432-3.65.288-7.106.912-10.37 1.872v45.216h22.75Z" style="fill:#fff;fill-rule:nonzero" transform="matrix(.62674 0 0 .62674 -501.886 -443.203)"/></svg>