<?xml version="1.0" encoding="UTF-8" standalone="no"?>
<svg
   width="256.03418"
   height="255.99879"
   viewBox="0 0 256.03418 255.99879"
   version="1.1"
   xml:space="preserve"
   style="clip-rule:evenodd;fill-rule:evenodd;stroke-linejoin:round;stroke-miterlimit:2"
   id="svg2"
   xmlns="http://www.w3.org/2000/svg"
   xmlns:svg="http://www.w3.org/2000/svg"><defs
   id="defs2" />
    <g
   transform="matrix(3.99977,0,0,3.99977,-383.94317,-383.94317)"
   id="g2">
        <path
   d="m 159.99469,95.991312 -21.33454,21.334538 h -14.22103 c -3.92692,0 -7.11327,3.1836 -7.11327,7.11052 0,0.79908 0.13327,1.56917 0.37554,2.28574 0.35054,1.03161 0.9341,1.96896 1.70519,2.7388 1.28664,1.28939 3.06633,2.08872 5.02979,2.08872 l -7.11077,7.11052 c -4.2172,0 -8.14937,-1.22539 -11.46098,-3.33561 -5.938135,-3.79091 -9.873308,-10.43262 -9.873308,-17.99869 0,-11.78376 9.551028,-21.334538 21.334538,-21.334538 z"
   style="fill:#b2fe92;fill-rule:nonzero;stroke-width:0.250027"
   id="path1" />
        <path
   d="m 159.99469,138.6604 c 0,11.78351 -9.55103,21.33429 -21.33454,21.33429 H 95.991312 L 117.32585,138.6604 h 14.22378 c 3.92692,0 7.11052,-3.1836 7.11052,-7.11052 0,-0.10126 0,-0.20002 -0.005,-0.29853 0,-0.0693 -0.005,-0.13326 -0.0108,-0.19977 0,-0.016 0,-0.0292 -0.005,-0.048 0,-0.0425 -0.005,-0.0878 -0.0108,-0.13051 0,-0.0373 -0.005,-0.0745 -0.0105,-0.11176 -0.005,-0.0375 -0.008,-0.08 -0.016,-0.11727 0,-0.024 -0.005,-0.048 -0.008,-0.0692 -0.008,-0.064 -0.0187,-0.12527 -0.0267,-0.18652 0,-0.005 0,-0.0108 -0.005,-0.016 -0.0132,-0.08 -0.0265,-0.15727 -0.0453,-0.23703 -0.001,-0.0248 -0.007,-0.049 -0.016,-0.072 -0.016,-0.08 -0.0348,-0.15976 -0.0533,-0.23977 -0.005,-0.016 -0.008,-0.032 -0.0132,-0.048 -0.0192,-0.075 -0.0398,-0.14951 -0.0613,-0.22377 -0.027,-0.094 -0.0563,-0.18727 -0.088,-0.27978 -0.056,-0.16502 -0.12002,-0.33029 -0.18652,-0.49006 -0.0443,-0.10426 -0.0913,-0.20727 -0.14127,-0.30903 -0.0447,-0.0968 -0.0928,-0.19177 -0.14377,-0.28528 -0.064,-0.11976 -0.13326,-0.23702 -0.19977,-0.35154 -0.0443,-0.071 -0.0895,-0.14101 -0.13601,-0.21052 -0.0503,-0.0785 -0.10351,-0.15477 -0.15977,-0.22902 -0.0232,-0.0348 -0.0482,-0.0685 -0.0745,-0.10126 -0.04,-0.056 -0.0828,-0.10927 -0.12801,-0.16527 -0.0373,-0.0505 -0.08,-0.10126 -0.12251,-0.15177 -0.0595,-0.07 -0.12002,-0.13926 -0.18127,-0.20777 -0.0745,-0.0828 -0.14902,-0.16252 -0.22903,-0.23978 -1.33114,-1.33714 -3.14309,-2.08847 -5.02979,-2.08597 l 7.11052,-7.11077 c 0.13851,0 0.27703,0 0.41554,0.006 0.10401,0 0.20777,0.005 0.31453,0.008 0.28003,0.008 0.55981,0.0233 0.83909,0.045 0.0905,0.005 0.18377,0.0135 0.27453,0.0243 0.34879,0.0265 0.69783,0.0665 1.04162,0.11177 0.10126,0.0132 0.19977,0.0268 0.30103,0.0425 0.13326,0.0187 0.26903,0.04 0.40229,0.064 l 0.27978,0.048 c 0.0213,0.005 0.0453,0.005 0.0665,0.0132 0.12251,0.0215 0.24778,0.0455 0.37029,0.0695 0.15451,0.0318 0.31178,0.0665 0.4663,0.10101 l 0.0958,0.024 c 0.15727,0.0375 0.31703,0.0748 0.47155,0.11477 0.005,0 0.0108,0 0.016,0.005 0.16527,0.0427 0.32779,0.088 0.4903,0.13351 0.16777,0.0478 0.33829,0.0985 0.50356,0.15177 0.15101,0.0452 0.30103,0.093 0.4503,0.14376 0.0185,0.008 0.0397,0.016 0.0613,0.0215 0.14652,0.0505 0.29553,0.10101 0.44205,0.15701 0.0215,0.005 0.0427,0.016 0.064,0.024 0.15451,0.056 0.30903,0.11201 0.46105,0.17576 0.16251,0.0613 0.32228,0.12802 0.48205,0.19728 0.32953,0.13726 0.65482,0.28478 0.9751,0.44229 0.14577,0.0698 0.29053,0.14177 0.4343,0.21578 0.15452,0.08 0.30628,0.15701 0.45555,0.23977 0.15177,0.08 0.30103,0.16502 0.4503,0.25028 0.14901,0.0853 0.29553,0.17327 0.44479,0.26128 0.13602,0.0825 0.27453,0.16501 0.40755,0.25027 0.0135,0.008 0.024,0.016 0.0375,0.024 0.28578,0.18452 0.56731,0.37554 0.84434,0.57281 0.27878,0.19802 0.55231,0.40329 0.82059,0.61531 0.12251,0.096 0.24253,0.19202 0.36229,0.29329 0.0215,0.0157 0.04,0.0317 0.0613,0.0477 0.38554,0.31954 0.75983,0.65282 1.12162,0.99911 0.12276,0.12001 0.24527,0.23702 0.36779,0.35979 0.12251,0.12251 0.23977,0.24227 0.35954,0.36754 0.11726,0.12251 0.23177,0.24777 0.34903,0.37304 0.20252,0.22377 0.4023,0.45029 0.59407,0.68207 0.0428,0.0478 0.0828,0.10101 0.12251,0.15177 0.0933,0.11176 0.18402,0.22377 0.27453,0.33828 0.20927,0.26478 0.41179,0.53481 0.60731,0.80984 0.19553,0.27503 0.006,0.005 0.006,0.0108 0.10126,0.13852 0.19702,0.27978 0.29303,0.42355 0.0958,0.14126 0.18902,0.28503 0.28503,0.42904 0.0905,0.14377 0.18127,0.28503 0.26903,0.43155 0.016,0.0293 0.0348,0.0585 0.0507,0.0853 0.0718,0.11976 0.14377,0.23977 0.21302,0.36229 0.0853,0.14926 0.17052,0.29828 0.25053,0.45029 0.0613,0.11177 0.12251,0.22653 0.18102,0.34104 0.15802,0.30553 0.30903,0.61482 0.45305,0.9271 0.0397,0.0853 0.0798,0.17052 0.11701,0.25828 0.0588,0.13051 0.11476,0.26128 0.17052,0.39429 0.0588,0.14127 0.11726,0.28503 0.17327,0.4263 0.0532,0.13326 0.10651,0.27178 0.15452,0.40754 0.024,0.0615 0.048,0.12526 0.0693,0.18927 0.0373,0.0985 0.072,0.19452 0.10401,0.29303 0.0665,0.19452 0.13302,0.39154 0.19178,0.58882 0.048,0.14376 0.0905,0.29028 0.13051,0.43429 0.0132,0.0373 0.024,0.0773 0.0345,0.11451 0.0428,0.15177 0.0828,0.30379 0.12277,0.45555 0,0.005 0.005,0.0108 0.005,0.016 0.0373,0.14376 0.0745,0.29028 0.10651,0.43429 0.0507,0.21302 0.0985,0.43155 0.14401,0.64732 0.0265,0.12802 0.0478,0.25578 0.0718,0.38629 0.0268,0.13602 0.048,0.27178 0.0693,0.40755 0.016,0.0988 0.032,0.19727 0.048,0.29853 0.016,0.11976 0.0348,0.23977 0.048,0.35954 0.0108,0.0748 0.0185,0.14651 0.0265,0.22127 0.016,0.12501 0.0295,0.25303 0.0428,0.38079 v 0.006 c 0.0188,0.17302 0.0345,0.34354 0.048,0.51681 0,0.016 0,0.0373 0.005,0.056 0.0133,0.16252 0.0213,0.32229 0.0293,0.48481 0,0.0212 0,0.0452 0.005,0.0692 0.008,0.15727 0.0132,0.31429 0.0157,0.47155 v 0.072 c 0.006,0.17052 0.006,0.34104 0.006,0.51156 z"
   style="fill:#078465;fill-rule:nonzero;stroke-width:0.250027"
   id="path2" />
    </g>
</svg>
