<?xml version="1.0" encoding="UTF-8" standalone="no"?>
<svg
   width="256.00116"
   height="338.8259"
   viewBox="0 0 256.00116 338.8259"
   version="1.1"
   xml:space="preserve"
   style="clip-rule:evenodd;fill-rule:evenodd;stroke-linejoin:round;stroke-miterlimit:2"
   id="svg1"
   xmlns="http://www.w3.org/2000/svg"
   xmlns:svg="http://www.w3.org/2000/svg"><defs
   id="defs1" />
    <g
   transform="matrix(4.06892,0,0,4.06892,-376.20489,-342.58739)"
   id="g1">
        <path
   d="m 155.21001,117.67305 c 1.30898,-8.74991 -5.35371,-13.45376 -14.46395,-16.59154 l 2.95513,-11.85294 -7.2156,-1.798026 -2.87704,11.540588 c -1.89696,-0.472834 -3.84521,-0.918535 -5.78121,-1.360266 l 2.89755,-11.616691 -7.21129,-1.798026 -2.95745,11.848972 c -1.57004,-0.358017 -3.1113,-0.711402 -4.60756,-1.083316 l 0.008,-0.03673 -9.95102,-2.484612 -1.91946,7.705967 c 0,0 5.35371,1.22692 5.24055,1.3027 2.92237,0.7296 3.45046,2.66328 3.36211,4.19627 l -3.36608,13.50307 c 0.20117,0.0513 0.46224,0.12507 0.75011,0.24022 -0.24055,-0.0596 -0.49732,-0.12541 -0.76269,-0.18894 l -4.71841,18.91567 c -0.35768,0.88744 -1.26398,2.21925 -3.30686,1.71365 0.0721,0.10489 -5.244516,-1.30898 -5.244516,-1.30898 l -3.582155,8.25888 9.389841,2.34035 c 1.74707,0.43776 3.45873,0.89603 5.14393,1.3275 l -2.9859,11.98828 7.20732,1.79836 2.95745,-11.86122 c 1.91118,0.51817 3.828,1.01549 5.75011,1.49196 l -2.94719,11.80563 7.2156,1.79802 2.98623,-11.96577 c 12.30427,2.3281 21.55646,1.38905 25.45097,-9.73826 3.1381,-8.95969 -0.15618,-14.12778 -6.62993,-17.49783 4.71444,-1.08696 8.26582,-4.18801 9.21314,-10.59294 z m -16.48632,23.11559 c -2.22983,8.95969 -17.3165,4.1162 -22.20797,2.90152 l 3.96234,-15.88245 c 4.89147,1.22063 20.57605,3.63741 18.24563,12.98093 z m 2.23182,-23.2453 c -2.03461,8.15002 -14.59134,4.00933 -18.66486,2.99418 l 3.59241,-14.40506 c 4.07352,1.01516 17.19143,2.9098 15.07245,11.41088 z"
   style="fill:#ef4800;fill-rule:nonzero;stroke-width:0.330884"
   id="path1" />
    </g>
</svg>
