<?xml version="1.0" encoding="UTF-8" standalone="no"?>
<svg
   width="381.57663"
   height="381.38828"
   viewBox="0 0 381.57663 381.38828"
   version="1.1"
   xml:space="preserve"
   style="clip-rule:evenodd;fill-rule:evenodd;stroke-linejoin:round;stroke-miterlimit:2"
   id="svg2"
   xmlns="http://www.w3.org/2000/svg"
   xmlns:svg="http://www.w3.org/2000/svg"><defs
   id="defs2" />
    <g
   transform="matrix(3.95941,0,0,3.98627,-315.47178,-319.30686)"
   id="g2">
        <path
   d="m 128.03282,159.95865 c 17.90953,0 32.32825,-14.41871 32.32825,-31.87283 0,-17.45411 -14.41872,-31.872445 -32.32825,-31.872445 -17.90916,0 -32.327872,14.418335 -32.327872,31.872445 0,17.45412 14.418712,31.87283 32.327872,31.87283 z"
   style="fill:#ef4800;fill-rule:nonzero;stroke-width:0.37391"
   id="path1" />
        <path
   d="m 155.12708,161.8626 c 1.73793,1.64632 1.63211,4.45925 -0.3612,5.7855 -18.74971,12.47513 -44.20923,10.64597 -60.86056,-5.8629 -18.971812,-18.82001 -18.971812,-48.87152 0,-67.69152 16.56495,-16.564581 42.26565,-18.350374 61.04864,-5.736151 1.90469,1.279519 2.04154,3.963444 0.41915,5.586213 -1.38459,1.384214 -3.57607,1.494892 -5.2123,0.419901 -15.61784,-10.2556 -36.89631,-8.397268 -50.48793,5.194355 -16.087846,15.632422 -16.087846,41.130462 -0.303241,56.763252 13.593871,13.59387 34.877561,15.45071 50.495781,5.18875 1.64258,-1.07948 3.83482,-0.99909 5.26166,0.3526 z m 7.00258,-6.84405 c 1.64745,1.73906 4.46112,1.64221 5.79747,-0.34586 10.87442,-16.17721 10.82843,-37.53457 -0.13834,-53.66803 -1.28513,-1.890119 -3.95597,-2.0165 -5.57238,-0.40009 -1.39244,1.39207 -1.49639,3.59851 -0.40383,5.23661 8.82577,13.23454 8.81231,30.44785 -0.04,43.90337 -1.08322,1.64633 -0.99834,3.84305 0.35708,5.274 z"
   style="fill:#ef4800;fill-rule:nonzero;stroke-width:0.37391"
   id="path2" />
    </g>
</svg>
