<svg xmlns="http://www.w3.org/2000/svg" width="256" height="256" fill="none"><g clip-path="url(#a)"><g clip-path="url(#b)"><path fill="#EF4800" d="M229.09 75.095c-9.354-15.39-22.305-27.174-39.093-35.35C173.209 31.33 153.782 27 131.957 27H40.341v83.686H13v31.262h27.341V229h91.616c21.825 0 41.252-4.088 58.04-12.505 16.788-8.416 29.739-20.2 39.093-35.35C238.443 165.995 243 148.2 243 128c0-20.2-4.557-37.755-13.91-52.905Zm-51.325 98.836c-11.991 11.062-28.06 16.833-48.206 16.833h-42.45v-48.816h50.364v-31.262H87.108v-45.21h42.451c20.146 0 36.215 5.531 48.206 16.834 11.992 11.302 17.988 26.452 17.988 45.69 0 19.238-5.996 34.629-17.988 45.931Z"/></g></g><defs><clipPath id="a"><rect width="256" height="256" fill="#fff" rx="64"/></clipPath><clipPath id="b"><path fill="#fff" d="M0 0h230v202H0z" transform="translate(13 27)"/></clipPath></defs></svg>