<svg xmlns="http://www.w3.org/2000/svg" width="256" height="256" fill="none"><g fill="#EF4800" clip-path="url(#a)"><path d="M235.106 128c0 14.937-4.002 28.93-10.973 41a82.34 82.34 0 0 1-30.027 30.026c-.433.242-.854.485-1.287.727-11.764 6.525-25.298 10.246-39.7 10.246H71.132L86.502 169H40.38l15.37-41h97.37l-15.37 41h15.37c19.104 0 35.15-13.064 39.7-30.754A41.116 41.116 0 0 0 194.106 128c0-22.635-18.352-41-41-41H71.119l15.37-41h66.617c14.937 0 28.931 4.002 41 10.973A82.335 82.335 0 0 1 224.133 87c6.971 12.056 10.973 26.063 10.973 41Zm-179.382 0H9.614l15.37-41h46.123l-15.383 41Z"/></g><defs><clipPath id="a"><rect width="256" height="256" fill="#fff" rx="64"/></clipPath></defs></svg>