<svg xmlns="http://www.w3.org/2000/svg" width="256" height="256" fill="none"><path fill="#26A17B" d="M149.957 142.618v-.031c-1.345.093-8.288.499-23.738.499-12.354 0-21.017-.343-24.082-.499v.031c-47.506-2.092-82.94-10.335-82.94-20.233 0-9.866 35.465-18.14 82.94-20.232v32.253c3.097.219 12.01.75 24.301.75 14.762 0 22.142-.625 23.519-.75v-32.222c47.412 2.123 82.753 10.366 82.753 20.233 0 9.866-35.372 18.109-82.753 20.232m0-43.806v-28.85h66.146V26H36.023v43.993h66.146v28.85C48.407 101.31 8 111.926 8 124.665c0 12.739 40.438 23.355 94.169 25.852V243h47.819v-92.483C203.655 148.051 244 137.435 244 124.696c0-12.708-40.345-23.355-94.012-25.822"/></svg>