<?xml version="1.0" encoding="UTF-8" standalone="no"?>
<svg
   width="255.99982"
   height="235.38966"
   viewBox="0 0 255.99982 235.38966"
   version="1.1"
   xml:space="preserve"
   style="clip-rule:evenodd;fill-rule:evenodd;stroke-linejoin:round;stroke-miterlimit:2"
   id="svg1"
   xmlns="http://www.w3.org/2000/svg"
   xmlns:svg="http://www.w3.org/2000/svg"><defs
   id="defs1" />
    <g
   transform="matrix(4.33898,0,0,4.33898,-418.71157,-465.89798)"
   id="g1">
        <path
   d="m 131.98925,136.5295 v -0.008 c -0.33625,0.0232 -2.072,0.12475 -5.9345,0.12475 -3.0885,0 -5.25425,-0.0857 -6.0205,-0.12475 v 0.008 c -11.8765,-0.523 -20.735,-2.58375 -20.735,-5.05825 0,-2.4665 8.86625,-4.535 20.735,-5.058 v 8.06325 c 0.77425,0.0548 3.0025,0.1875 6.07525,0.1875 3.6905,0 5.5355,-0.15625 5.87975,-0.1875 v -8.0555 c 11.853,0.53075 20.68825,2.5915 20.68825,5.05825 0,2.4665 -8.843,4.52725 -20.68825,5.058 m 0,-10.9515 v -7.2125 h 16.5365 V 107.375 h -45.02 v 10.99825 h 16.5365 v 7.2125 C 106.60175,126.2025 96.5,128.8565 96.5,132.04125 c 0,3.18475 10.1095,5.83875 23.54225,6.463 V 161.625 H 131.997 v -23.12075 c 13.41675,-0.6165 23.503,-3.2705 23.503,-6.45525 0,-3.177 -10.08625,-5.83875 -23.503,-6.4555"
   style="fill:#26a17b;fill-rule:nonzero;stroke-width:0.25"
   id="path1" />
    </g>
</svg>
