<?xml version="1.0" encoding="UTF-8" standalone="no"?>
<svg
   width="256.00006"
   height="500.47382"
   viewBox="0 0 256.00006 500.47382"
   version="1.1"
   xml:space="preserve"
   style="clip-rule:evenodd;fill-rule:evenodd;stroke-linejoin:round;stroke-miterlimit:2"
   id="svg1"
   xmlns="http://www.w3.org/2000/svg"
   xmlns:svg="http://www.w3.org/2000/svg"><defs
   id="defs1" />
    <g
   transform="matrix(3.12899,0,0,3.12899,-668.32485,-774.4463)"
   id="g1">
        <path
   d="M 257.19295,407.4542 H 242.45736 V 388.75979 H 213.59124 V 269.55545 h 28.86612 V 247.5068 h 14.73559 v 22.37855 c 7.99094,0.14662 14.69894,1.39292 20.12398,3.73888 h -0.0547 c 4.21541,1.75948 7.60581,4.96661 10.17171,9.62188 1.13633,2.16269 1.99798,4.33466 2.58448,6.51543 0.58649,2.18126 0.87973,4.42654 0.87973,6.73585 0,10.08032 -3.92216,18.30928 -11.76648,24.68737 -0.95305,0.80643 -1.91538,1.54883 -2.88651,2.22671 -0.97162,0.67838 -2.08058,1.40221 -3.32687,2.17198 3.5556,1.28294 6.80916,2.97839 9.7597,5.08585 2.95103,2.10795 5.52572,4.59125 7.72507,7.4504 3.33566,4.39868 5.00374,10.08031 5.00374,17.0449 0,6.04819 -1.53954,11.65651 -4.61862,16.82496 -3.00576,5.09515 -7.18451,9.09062 -12.53625,11.98642 -5.38838,2.96911 -12.40819,4.56388 -21.05894,4.78381 z m 0,-89.23855 c 0.84308,-0.21994 1.7321,-0.53126 2.66707,-0.93448 0.93447,-0.40321 1.91489,-0.87973 2.94125,-1.42957 1.17298,-0.62315 2.30931,-1.53954 3.40898,-2.74918 1.09967,-1.20963 2.08938,-2.69444 2.96911,-4.45391 0.87974,-1.79613 1.54883,-3.50037 2.00727,-5.11322 0.45795,-1.61286 0.68717,-3.17097 0.68717,-4.67385 0,-3.70223 -1.52145,-6.83605 -4.56388,-9.40194 -1.75947,-1.72282 -5.13179,-2.95103 -10.11697,-3.68415 z m -14.73559,-32.7702 h -9.67711 v 34.03507 h 9.67711 z m 14.73559,87.53382 c 1.28295,-0.0733 2.52045,-0.21065 3.71151,-0.4125 1.19156,-0.20136 2.37334,-0.48532 3.54632,-0.85188 1.28295,-0.40321 2.45593,-0.90759 3.51895,-1.51217 1.06301,-0.60506 2.03463,-1.31032 2.91437,-2.11674 h -0.0552 c 3.29901,-3.18905 4.94852,-7.11121 4.94852,-11.76648 0,-3.55561 -1.02636,-6.9465 -3.07908,-10.17221 h 0.0552 c -1.86944,-2.85914 -4.87521,-5.27842 -9.0173,-7.25783 -2.236,-1.09967 -4.41726,-1.96083 -6.54329,-2.58398 z m -24.4127,-37.82869 v 37.88392 h 9.67711 v -37.88392 z"
   style="fill:#003f20;fill-rule:nonzero;stroke-width:0.488743"
   id="path1" />
    </g>
</svg>
