<svg xmlns="http://www.w3.org/2000/svg" xml:space="preserve" style="fill-rule:evenodd;clip-rule:evenodd;stroke-linejoin:round;stroke-miterlimit:2" viewBox="0 0 256 256"><path d="M1574.39 1673.38a101.438 101.438 0 0 1 29.24 81.41 101.377 101.377 0 0 1-44.18 74.35C1399.6 1936.9 1207.11 2000 1000 2000c-207.113 0-399.604-63.1-559.278-171.11a101.092 101.092 0 0 1-44.055-74.13 101.11 101.11 0 0 1 29.156-81.16c-.208-.22-.204-.22-.201-.23 44.783-44.78 114.483-52.88 168.342-19.56C711.744 1727.56 850.955 1770 1000 1770c149.05 0 288.26-42.44 406.22-115.9 53.72-33.23 123.24-25.15 167.91 19.52.25-.24.25-.24.26-.24Zm98.99-1247.769a101.438 101.438 0 0 1 81.41-29.244 101.386 101.386 0 0 1 74.35 44.186C1936.9 600.396 2000 792.887 2000 1000c0 207.11-63.1 399.6-171.11 559.28a101.092 101.092 0 0 1-74.13 44.05 101.103 101.103 0 0 1-81.16-29.15c-.22.2-.22.2-.23.2-44.78-44.78-52.88-114.49-19.56-168.34C1727.56 1288.26 1770 1149.05 1770 1000c0-149.045-42.44-288.256-115.9-406.219-33.23-53.722-25.15-123.243 19.52-167.909-.24-.253-.24-.257-.24-.261ZM171.105 440.722a101.122 101.122 0 0 1 155.299-14.899c.216-.208.22-.204.224-.201 44.779 44.783 52.88 114.483 19.565 168.342C272.438 711.744 230 850.955 230 1000c0 149.05 42.438 288.26 115.898 406.22 33.229 53.72 25.147 123.24-19.52 167.91.246.25.242.25.238.26a101.421 101.421 0 0 1-81.402 29.24 101.408 101.408 0 0 1-74.359-44.18C63.1 1399.6 0 1207.11 0 1000c0-207.113 63.1-399.604 171.105-559.278ZM1000 370c347.71 0 630 282.294 630 630 0 347.71-282.29 630-630 630-347.706 0-630-282.29-630-630 0-347.706 282.294-630 630-630Zm-574.389-43.384a101.421 101.421 0 0 1 14.942-155.761C600.396 63.1 792.887 0 1000 0c207.11 0 399.6 63.1 559.28 171.105a101.122 101.122 0 0 1 44.05 74.138 101.112 101.112 0 0 1-29.15 81.161c.2.216.2.22.2.224-44.78 44.779-114.49 52.88-168.34 19.565C1288.26 272.438 1149.05 230 1000 230c-149.045 0-288.256 42.438-406.219 115.898-53.722 33.229-123.243 25.147-167.909-19.52-.253.246-.257.242-.261.238Z" style="fill:#208e7a" transform="scale(.128)"/><path d="M1067.85 899.888c2.17-2.606 4.07-5.503 5.69-8.692 3.54-6.972 5.3-14.311 5.3-22.013v-14.071c0-14.776-5.77-26.64-17.27-35.611-10.45-8.145-24.03-12.533-40.87-12.81v-21.938a7.281 7.281 0 0 0-7.28-7.281H994.3a7.281 7.281 0 0 0-7.281 7.281v21.924h-28.556c-13.996 0-25.341 11.346-25.341 25.341v150.535c0 7.274 2.397 13.113 6.911 17.627 4.515 4.52 10.354 6.91 17.628 6.91h29.358v21.93c0 4.02 3.26 7.28 7.281 7.28h19.12a7.28 7.28 0 0 0 7.28-7.28v-21.93h11.3c17.9 0 32-5.19 42.46-15.148 10.61-10.1 16.07-23.455 16.07-40.187v-12.744c0-10.57-3.16-19.806-9.4-27.734-3.7-4.707-8.12-8.508-13.28-11.389Zm-11.53 39.123v12.744c0 6.95-2.18 12.582-6.79 16.792-4.9 4.467-11.67 6.459-20.18 6.459h-62.018V921.6h67.328c6.7 0 12.16 1.552 16.26 5.037 3.65 3.107 5.4 7.256 5.4 12.374Zm-88.988-48.435v-51.813h51.658c7.99 0 14.54 1.602 19.55 5.161 4.01 2.844 6.09 6.543 6.09 11.188v14.071c0 6.541-1.72 11.846-5.52 15.783-3.71 3.842-8.69 5.61-14.81 5.61h-56.968Z" style="fill:#fff;fill-rule:nonzero" transform="matrix(.49705 0 0 .49705 -374.924 -322.765)"/></svg>