<svg width="256" height="106" fill="none" xmlns="http://www.w3.org/2000/svg"><path d="M65.243 24.033h19.278c.902 0 1.63.726 1.63 1.625v52.923c0 .9-.728 1.625-1.63 1.625H65.243c-.902 0-1.63-.726-1.63-1.625V25.658c0-.899.728-1.625 1.63-1.625Zm70.903-.939c9.514 0 16.779 2.464 21.788 7.394 4.885 4.804 7.324 11.673 7.324 20.595v27.49c0 .9-.728 1.625-1.63 1.625h-19.277c-.902 0-1.63-.726-1.63-1.625V51.456c0-6.43-4.695-9.642-14.084-9.642s-14.083 3.218-14.083 9.642v27.117c0 .9-.729 1.625-1.63 1.625H93.646c-.902 0-1.63-.726-1.63-1.625V25.651c0-.9.728-1.626 1.63-1.626h19.278c.901 0 1.63.726 1.63 1.626v4.647c5.004-4.8 12.203-7.204 21.592-7.204Zm119.858 1.652a1.63 1.63 0 0 0-1.598-1.625c-3.646-.098-11.937.623-17.381 4.312-1.31.888-2.576 1.793-3.701 2.87v.011c-6.427-4.81-15.604-7.22-27.563-7.22-12.269 0-21.664 2.562-28.173 7.675-6.259 4.995-9.389 12.107-9.389 21.348 0 9.236 3.13 16.354 9.389 21.348 4.184 3.288 9.563 5.514 16.127 6.69v.005c3.814.71 8.264 1.073 13.589 1.019a78.692 78.692 0 0 0 4.504-.266 62.853 62.853 0 0 0 3.526-.368 81.504 81.504 0 0 0 2.103-.282 2.924 2.924 0 0 1 3.325 2.454 2.923 2.923 0 0 1-2.466 3.315c-4.255.629-8.89 1.008-12.405 1.008-4.178 0-8.08-.282-11.698-.845a55.615 55.615 0 0 1-7.036-1.544 1.63 1.63 0 0 0-1.995 1.045l-4.759 14.236a1.628 1.628 0 0 0 .945 2.026c6.08 2.443 12.915 3.336 19.425 3.694 8.965.493 18.626.282 27.357-1.939 2.141-.542 4.276-1.257 6.216-2.286 1.282-.677 2.483-1.495 3.543-2.487 2.428-2.275 3.999-5.368 4.748-8.607 1.543-6.636.652-14.788-5.803-18.482-.222-.125-.461-.25-.706-.368 4.787-4.832 7.183-11.29 7.183-19.366 0-3.597-.483-6.868-1.429-9.82 1.614-.315 3.45-.483 5.521-.483 2.531 0 4.721.233 6.569.705a1.625 1.625 0 0 0 2.021-1.577l.011-16.196ZM205.761 41.82c10.013 0 15.023 3.434 15.023 10.297 0 6.869-5.01 10.298-15.023 10.298-10.02 0-15.024-3.435-15.024-10.298 0-6.863 5.004-10.297 15.024-10.297ZM57.75 40.19V25.656c0-.899-.727-1.625-1.63-1.625H35.218V2.011c0-1.11-1.092-1.89-2.146-1.543L13.794 6.887A1.627 1.627 0 0 0 12.68 8.43v15.606H1.634c-.902 0-1.63.726-1.63 1.625V40.19c0 .899.728 1.625 1.63 1.625H12.68v17.837c0 7.8 2.597 13.39 7.792 16.76 4.944 3.18 12.991 4.772 24.135 4.772 4.19 0 8.123-.325 11.812-.97a1.623 1.623 0 0 0 1.332-1.597V63.233c0-1.018-.93-1.782-1.935-1.593-2.966.553-5.765.824-8.394.824-4.195 0-7.2-.38-9.014-1.127-2.13-.807-3.19-2.308-3.19-4.49V41.814H56.12c.903 0 1.63-.726 1.63-1.625Zm26.771-21.997H65.243c-.902 0-1.63-.726-1.63-1.625V2.002c0-.9.728-1.625 1.63-1.625h19.278c.902 0 1.63.726 1.63 1.625v14.566c0 .894-.733 1.625-1.63 1.625Z" fill="#FF9920"/></svg>