<?xml version="1.0" encoding="UTF-8" standalone="no"?>
<svg
   width="256"
   height="105.49448"
   viewBox="0 0 256 105.49448"
   version="1.1"
   xml:space="preserve"
   style="clip-rule:evenodd;fill-rule:evenodd;stroke-linejoin:round;stroke-miterlimit:2"
   id="svg3"
   xmlns="http://www.w3.org/2000/svg"
   xmlns:svg="http://www.w3.org/2000/svg"><defs
   id="defs3" />
    <g
   transform="matrix(4,0,0,4,127.984,52.24968)"
   id="g3">
        <g
   transform="translate(-128,-53)"
   id="g2">
            <clipPath
   id="_clip1">
                <rect
   x="0"
   y="0"
   width="256"
   height="106"
   id="rect1" />
            </clipPath>
            <g
   clip-path="url(#_clip1)"
   id="g1">
                <path
   d="m 112.31375,45.85158 h 4.8195 c 0.2255,0 0.4075,0.1815 0.4075,0.40625 v 13.23075 c 0,0.225 -0.182,0.40625 -0.4075,0.40625 h -4.8195 c -0.2255,0 -0.4075,-0.1815 -0.4075,-0.40625 V 46.25783 c 0,-0.22475 0.182,-0.40625 0.4075,-0.40625 z m 17.72575,-0.23475 c 2.3785,0 4.19475,0.616 5.447,1.8485 1.22125,1.201 1.831,2.91825 1.831,5.14875 v 6.8725 c 0,0.225 -0.182,0.40625 -0.4075,0.40625 h -4.81925 c -0.2255,0 -0.4075,-0.1815 -0.4075,-0.40625 v -6.77925 c 0,-1.6075 -1.17375,-2.4105 -3.521,-2.4105 -2.34725,0 -3.52075,0.8045 -3.52075,2.4105 v 6.77925 c 0,0.225 -0.18225,0.40625 -0.4075,0.40625 h -4.8195 c -0.2255,0 -0.4075,-0.1815 -0.4075,-0.40625 v -13.2305 c 0,-0.225 0.182,-0.4065 0.4075,-0.4065 h 4.8195 c 0.22525,0 0.4075,0.1815 0.4075,0.4065 v 1.16175 c 1.251,-1.2 3.05075,-1.801 5.398,-1.801 z m 29.9645,0.413 c -7.5e-4,-0.22 -0.1795,-0.402 -0.3995,-0.40625 -0.9115,-0.0245 -2.98425,0.15575 -4.34525,1.078 -0.3275,0.222 -0.644,0.44825 -0.92525,0.7175 v 0.0027 c -1.60675,-1.2025 -3.901,-1.805 -6.89075,-1.805 -3.06725,0 -5.416,0.6405 -7.04325,1.91875 -1.56475,1.24875 -2.34725,3.02675 -2.34725,5.337 0,2.309 0.7825,4.0885 2.34725,5.337 1.046,0.822 2.39075,1.3785 4.03175,1.6725 v 0.0012 c 0.9535,0.1775 2.066,0.26825 3.39725,0.25475 0.376,-0.0115 0.7515,-0.0335 1.126,-0.0665 0.29475,-0.02225 0.5885,-0.053 0.8815,-0.092 0.1755,-0.02125 0.35075,-0.04475 0.52575,-0.0705 0.39625,-0.0595 0.77125,0.21725 0.83125,0.6135 0.058,0.39625 -0.22025,0.77025 -0.6165,0.82875 -1.06375,0.15725 -2.2225,0.252 -3.10125,0.252 -1.0445,0 -2.02,-0.0705 -2.9245,-0.21125 -0.594,-0.0905 -1.1815,-0.2195 -1.759,-0.386 -0.208,-0.05975 -0.4295,0.056 -0.49875,0.26125 l -1.18975,3.559 c -0.0675,0.2035 0.0368,0.4275 0.23625,0.5065 1.52,0.61075 3.22875,0.834 4.85625,0.9235 2.24125,0.12325 4.6565,0.0705 6.83925,-0.48475 0.53525,-0.1355 1.069,-0.31425 1.554,-0.5715 0.3205,-0.16925 0.62075,-0.37375 0.88575,-0.62175 0.607,-0.56875 0.99975,-1.342 1.187,-2.15175 0.38575,-1.659 0.163,-3.697 -1.45075,-4.6205 -0.0555,-0.03125 -0.11525,-0.0625 -0.1765,-0.092 1.19675,-1.208 1.79575,-2.8225 1.79575,-4.8415 0,-0.89925 -0.12075,-1.717 -0.35725,-2.455 0.4035,-0.07875 0.8625,-0.12075 1.38025,-0.12075 0.63275,0 1.18025,0.05825 1.64225,0.17625 0.0323,0.0082 0.0655,0.01225 0.099,0.01225 0.22275,0 0.40625,-0.1835 0.40625,-0.40625 0,0 0,-2.5e-4 0,-2.5e-4 z m -12.56075,4.2685 c 2.50325,0 3.75575,0.8585 3.75575,2.57425 0,1.71725 -1.2525,2.5745 -3.75575,2.5745 -2.505,0 -3.756,-0.85875 -3.756,-2.5745 0,-1.71575 1.251,-2.57425 3.756,-2.57425 z m -37.00275,-0.4075 v -3.6335 c 0,-0.22475 -0.18175,-0.40625 -0.4075,-0.40625 h -5.2255 v -5.505 c 0,-0.2775 -0.273,-0.4725 -0.5365,-0.38575 l -4.8195,1.60475 c -0.16575,0.055 -0.2785,0.211 -0.2785,0.38575 v 3.9015 h -2.7615 c -0.2255,0 -0.4075,0.1815 -0.4075,0.40625 v 3.63225 c 0,0.22475 0.182,0.40625 0.4075,0.40625 h 2.7615 v 4.45925 c 0,1.95 0.64925,3.3475 1.948,4.19 1.236,0.795 3.24775,1.193 6.03375,1.193 1.0475,0 2.03075,-0.08125 2.953,-0.2425 0.192,-0.035 0.333,-0.204 0.333,-0.39925 v -3.846 c 0,-0.2545 -0.2325,-0.4455 -0.48375,-0.39825 -0.7415,0.13825 -1.44125,0.206 -2.0985,0.206 -1.04875,0 -1.8,-0.095 -2.2535,-0.28175 -0.5325,-0.20175 -0.7975,-0.577 -0.7975,-1.1225 v -3.75825 h 5.2255 c 0.22575,0 0.4075,-0.1815 0.4075,-0.40625 z m 6.69275,-5.49925 h -4.8195 c -0.2255,0 -0.4075,-0.1815 -0.4075,-0.40625 v -3.6415 c 0,-0.225 0.182,-0.40625 0.4075,-0.40625 h 4.8195 c 0.2255,0 0.4075,0.1815 0.4075,0.40625 v 3.6415 c 0,0.2235 -0.18325,0.40625 -0.4075,0.40625 z"
   style="fill:#ff9920;fill-rule:nonzero;stroke-width:0.25"
   id="path1" />
            </g>
        </g>
    </g>
</svg>
