<svg width="191" height="256" fill="none" xmlns="http://www.w3.org/2000/svg"><g clip-path="url(#a)"><path fill-rule="evenodd" clip-rule="evenodd" d="M0 59.259c0-9.16 7.443-16.598 16.614-16.598h78.77L136.168 3.75a10.008 10.008 0 0 1 13.817 0l40.782 38.912v153.14c0 9.668-7.855 17.516-17.533 17.516H95.382L54.6 252.231a10.008 10.008 0 0 1-13.818 0L0 213.317V59.259Zm122.573 59.739a4.741 4.741 0 0 1-6.699 0l-.003-.003-13.115-13.099c-4.069-4.067-10.68-4.067-14.749 0l-13.114 13.102a4.745 4.745 0 0 1-6.7 0l-.003-.003-13.123-13.11c-4.072-4.068-10.68-4.068-14.752 0l-14.752 14.737c-4.069 4.067-4.069 10.669 0 14.737l14.752 14.734c4.072 4.068 10.68 4.068 14.752 0l13.126-13.113a4.722 4.722 0 0 1 6.674.003h.006l13.134 13.122c4.069 4.067 10.68 4.067 14.749 0l13.135-13.122a4.732 4.732 0 0 1 6.685 0l13.124 13.11c4.071 4.068 10.68 4.068 14.751 0l14.752-14.734c4.069-4.068 4.069-10.67 0-14.737l-14.752-14.737c-4.071-4.068-10.68-4.068-14.751 0l-13.127 13.113Z" fill="#F1A200"/></g><defs><clipPath id="a"><path fill="#fff" d="M0 0h190.769v256H0z"/></clipPath></defs></svg>