<?xml version="1.0" encoding="UTF-8" standalone="no"?>
<svg
   width="256"
   height="340.83276"
   viewBox="0 0 256 340.83276"
   version="1.1"
   xml:space="preserve"
   style="clip-rule:evenodd;fill-rule:evenodd;stroke-linejoin:round;stroke-miterlimit:2"
   id="svg1"
   xmlns="http://www.w3.org/2000/svg"
   xmlns:svg="http://www.w3.org/2000/svg"><defs
   id="defs1" />
    <g
   transform="matrix(4.02784,0,0,4.02784,-256.18949,-345.10887)"
   id="g1">
        <path
   d="m 63.604683,105.0913 c 0,-3.05183 2.479776,-5.529937 5.535268,-5.529937 H 95.383667 L 108.97163,86.597427 c 1.2807,-1.222064 3.32269,-1.222064 4.60339,0 l 13.5873,12.964269 v 51.021484 c 0,3.22108 -2.61704,5.83579 -5.84145,5.83579 H 95.383 l -13.587295,12.9646 c -1.280701,1.22207 -3.323026,1.22207 -4.603728,0 L 63.604683,156.41864 Z m 40.837517,19.90318 c -0.61237,0.61136 -1.61954,0.61136 -2.2319,0 l -0.001,-10e-4 -4.369512,-4.36418 c -1.355664,-1.355 -3.558244,-1.355 -4.913909,0 l -4.369177,4.36518 c -0.613031,0.61103 -1.619201,0.61103 -2.232231,0 l -0.001,-10e-4 -4.372176,-4.36785 c -1.356664,-1.35533 -3.558244,-1.35533 -4.914908,0 l -4.914907,4.90991 c -1.355665,1.355 -1.355665,3.55458 0,4.90992 l 4.914907,4.90891 c 1.356664,1.35533 3.558244,1.35533 4.914908,0 l 4.373176,-4.36885 c 0.610365,-0.60903 1.61387,-0.6087 2.223569,0.001 h 0.002 l 4.37584,4.37184 c 1.355665,1.355 3.558245,1.355 4.913909,0 l 4.376171,-4.37184 c 0.61137,-0.61003 1.61587,-0.61003 2.22724,0 l 4.3725,4.36785 c 1.35634,1.35533 3.55825,1.35533 4.91458,0 l 4.91491,-4.90891 c 1.35566,-1.35534 1.35566,-3.55492 0,-4.90992 l -4.91491,-4.90991 c -1.35633,-1.35533 -3.55824,-1.35533 -4.91458,0 z"
   style="fill:#f1a200;stroke-width:0.333169"
   id="path1" />
    </g>
</svg>
