<?xml version="1.0" encoding="UTF-8" standalone="no"?>
<svg
   width="512.00201"
   height="512.00006"
   viewBox="0 0 512.00201 512.00006"
   version="1.1"
   xml:space="preserve"
   style="clip-rule:evenodd;fill-rule:evenodd;stroke-linejoin:round;stroke-miterlimit:2"
   id="svg2"
   xmlns="http://www.w3.org/2000/svg"
   xmlns:svg="http://www.w3.org/2000/svg"><defs
   id="defs2" />
    <g
   transform="matrix(4,0,0,4,-256,-256.00002)"
   id="g1">
        <path
   d="m 109.1655,66.825006 c 5.952,-1.8375 12.288,-2.825 18.8345,-2.825 V 128.00001 H 64 c 0,-6.5645 0.9875,-12.8825 2.825,-18.8435 6.208,-20.196504 22.144,-36.132504 42.3405,-42.331504 z"
   style="fill:#a2c4b8;fill-rule:nonzero;stroke-width:0.5"
   id="path1" />
    </g>
    <g
   transform="matrix(4,0,0,4,-256,-256.00002)"
   id="g2">
        <path
   d="m 128,160.00001 c 0,8.841 -3.584,16.841 -9.3715,22.6195 -2.734,2.741 -5.9435,4.962 -9.472,6.5555 -4.135,1.8655 -8.62,2.829 -13.1565,2.825 -8.841,0 -16.841,-3.584 -22.6285,-9.3805 C 67.584,176.84101 64,168.84101 64,160.00001 c 0,-4.6905 1.015,-9.143 2.825,-13.1565 1.59,-3.528 3.8085,-6.7375 6.5465,-9.472 5.7965,-5.7965 13.7965,-9.3715 22.6285,-9.3715 0,8.841 3.584,16.841 9.3715,22.6195 5.7965,5.7965 13.7965,9.3805 22.6285,9.3805 z m 64,-32 H 128 V 64.000006 c 6.5555,0 12.873,0.9875 18.825,2.825 h 0.01 c 20.1965,6.199 36.1325,22.135 42.3405,42.331504 1.8465,5.961 2.825,12.2885 2.825,18.8435 z m 0,0 v 32 c 0,8.841 -3.584,16.841 -9.3715,22.6195 -5.7965,5.7965 -13.7965,9.3805 -22.6285,9.3805 -4.5365,0.004 -9.0215,-0.9595 -13.1565,-2.825 -3.5255,-1.598 -6.7345,-3.8185 -9.472,-6.5555 C 131.584,176.84101 128,168.84101 128,160.00001 v -32 z"
   style="fill:#099250;fill-rule:nonzero;stroke-width:0.5"
   id="path2" />
    </g>
</svg>
