<?xml version="1.0" encoding="UTF-8" standalone="no"?>
<svg
   width="256.00018"
   height="393.92117"
   viewBox="0 0 256.00018 393.92117"
   version="1.1"
   xml:space="preserve"
   style="clip-rule:evenodd;fill-rule:evenodd;stroke-linejoin:round;stroke-miterlimit:2"
   id="svg1"
   xmlns="http://www.w3.org/2000/svg"
   xmlns:svg="http://www.w3.org/2000/svg"><defs
   id="defs1" />
    <g
   transform="matrix(4.36557,0,0,4.36557,-1288.9919,-1705.8233)"
   id="g1">
        <path
   d="m 321.98666,471.83581 c -7.71761,-0.28852 -13.7676,-2.10078 -18.1492,-5.4368 -4.38199,-3.33563 -7.24022,-8.33965 -8.57432,-15.01169 l 12.33388,-2.38006 c 0.75745,4.14732 2.29004,7.2129 4.59817,9.19635 2.30813,1.98346 5.57221,3.1556 9.79147,3.51605 v -23.04513 c -1.62261,-0.39661 -3.33601,-0.85631 -5.13905,-1.37949 -1.80342,-0.52279 -3.51643,-1.08174 -5.13905,-1.67686 -1.623,-0.59511 -2.95748,-1.19907 -4.00345,-1.81226 -3.20945,-1.8392 -5.61683,-4.11155 -7.22175,-6.81629 -1.60492,-2.70474 -2.40738,-6.05884 -2.40738,-10.06191 0,-5.87842 2.04654,-10.43159 6.14001,-13.65951 4.09347,-3.22791 10.0169,-5.00402 17.77067,-5.32831 v -7.19521 h 6.16732 v 7.19521 c 4.472,0.21619 8.27657,0.9194 11.41409,2.10963 3.1379,1.19022 5.72531,3.09251 7.76301,5.70723 2.03769,2.61473 3.61568,6.14001 4.73358,10.57585 l -12.65855,2.00153 c -0.61319,-3.20983 -1.80341,-5.698 -3.57067,-7.46526 -1.76688,-1.76725 -4.32774,-2.849 -7.68146,-3.24599 v 20.7193 c 1.62262,0.32468 3.3718,0.73937 5.24715,1.24408 1.87536,0.5051 3.93113,1.15407 6.16694,1.94768 4.90477,1.76687 8.52046,4.22849 10.84667,7.38409 2.32621,3.1556 3.48912,7.14982 3.48912,11.98227 0,6.34735 -2.1908,11.31522 -6.57278,14.90397 -4.3816,3.58838 -10.77435,5.56298 -19.1771,5.92343 v 9.2506 h -6.16732 z m -11.36023,-55.12467 c 0,1.80342 0.34276,3.28216 1.02789,4.43623 0.75745,1.37026 1.90228,2.45239 3.43527,3.24561 1.5326,0.79361 3.83188,1.65916 6.89707,2.59665 v -19.58294 c -7.57335,0.50471 -11.36023,3.60645 -11.36023,9.30445 z m 30.78122,34.40575 c 0,-1.98345 -0.36969,-3.60645 -1.10906,-4.86862 -0.73937,-1.26254 -1.81227,-2.30813 -3.21869,-3.1379 -1.44258,-0.79322 -4.41814,-1.82111 -8.92592,-3.08327 v 21.69256 c 4.36352,-0.28851 7.66338,-1.32525 9.89957,-3.11058 2.23581,-1.78496 3.3541,-4.28235 3.3541,-7.49219 z"
   style="fill:#003f20;fill-rule:nonzero;stroke-width:0.384688"
   id="path1" />
    </g>
</svg>
