<svg xmlns="http://www.w3.org/2000/svg" xml:space="preserve" style="fill-rule:evenodd;clip-rule:evenodd;stroke-linejoin:round;stroke-miterlimit:2" viewBox="0 0 256 256"><path d="M1574.39 1673.38a101.438 101.438 0 0 1 29.24 81.41 101.377 101.377 0 0 1-44.18 74.35C1399.6 1936.9 1207.11 2000 1000 2000c-207.113 0-399.604-63.1-559.278-171.11a101.092 101.092 0 0 1-44.055-74.13 101.11 101.11 0 0 1 29.156-81.16c-.208-.22-.204-.22-.201-.23 44.783-44.78 114.483-52.88 168.342-19.56C711.744 1727.56 850.955 1770 1000 1770c149.05 0 288.26-42.44 406.22-115.9 53.72-33.23 123.24-25.15 167.91 19.52.25-.24.25-.24.26-.24Zm98.99-1247.769a101.438 101.438 0 0 1 81.41-29.244 101.386 101.386 0 0 1 74.35 44.186C1936.9 600.396 2000 792.887 2000 1000c0 207.11-63.1 399.6-171.11 559.28a101.092 101.092 0 0 1-74.13 44.05 101.103 101.103 0 0 1-81.16-29.15c-.22.2-.22.2-.23.2-44.78-44.78-52.88-114.49-19.56-168.34C1727.56 1288.26 1770 1149.05 1770 1000c0-149.045-42.44-288.256-115.9-406.219-33.23-53.722-25.15-123.243 19.52-167.909-.24-.253-.24-.257-.24-.261ZM171.105 440.722a101.122 101.122 0 0 1 155.299-14.899c.216-.208.22-.204.224-.201 44.779 44.783 52.88 114.483 19.565 168.342C272.438 711.744 230 850.955 230 1000c0 149.05 42.438 288.26 115.898 406.22 33.229 53.72 25.147 123.24-19.52 167.91.246.25.242.25.238.26a101.421 101.421 0 0 1-81.402 29.24 101.408 101.408 0 0 1-74.359-44.18C63.1 1399.6 0 1207.11 0 1000c0-207.113 63.1-399.604 171.105-559.278ZM1000 370c347.71 0 630 282.294 630 630 0 347.71-282.29 630-630 630-347.706 0-630-282.29-630-630 0-347.706 282.294-630 630-630Zm-574.389-43.384a101.421 101.421 0 0 1 14.942-155.761C600.396 63.1 792.887 0 1000 0c207.11 0 399.6 63.1 559.28 171.105a101.122 101.122 0 0 1 44.05 74.138 101.112 101.112 0 0 1-29.15 81.161c.2.216.2.22.2.224-44.78 44.779-114.49 52.88-168.34 19.565C1288.26 272.438 1149.05 230 1000 230c-149.045 0-288.256 42.438-406.219 115.898-53.722 33.229-123.243 25.147-167.909-19.52-.253.246-.257.242-.261.238Z" style="fill:#208e7a" transform="scale(.128)"/><path d="M1275 1158.33c0-145.83-87.5-195.83-262.5-216.66-125-16.67-150-50-150-108.34s41.67-95.83 125-95.83c75 0 116.67 25 137.5 87.5 4.17 12.5 16.67 20.83 29.17 20.83h66.66c16.67 0 29.17-12.5 29.17-29.16v-4.17c-16.67-91.67-91.67-162.5-187.5-170.83v-100c0-16.67-12.5-29.17-33.33-33.34h-62.5c-16.67 0-29.17 12.5-33.34 33.34v95.83c-125 16.67-204.16 100-204.16 204.17 0 137.5 83.33 191.66 258.33 212.5 116.67 20.83 154.17 45.83 154.17 112.5s-58.34 112.5-137.5 112.5c-108.34 0-145.84-45.84-158.34-108.34-4.16-16.66-16.66-25-29.16-25h-70.84c-16.66 0-29.16 12.5-29.16 29.17v4.17c16.66 104.16 83.33 179.16 220.83 200v100c0 16.66 12.5 29.16 33.33 33.33h62.5c16.67 0 29.17-12.5 33.34-33.33v-100c125-20.84 208.33-108.34 208.33-220.84Z" style="fill:#fff;fill-rule:nonzero" transform="matrix(.128 0 0 .128 .533 -1.333)"/></svg>