<?xml version="1.0" encoding="UTF-8" standalone="no"?>
<svg
   width="256.00116"
   height="338.82547"
   viewBox="0 0 256.00116 338.82547"
   version="1.1"
   xml:space="preserve"
   style="clip-rule:evenodd;fill-rule:evenodd;stroke-linejoin:round;stroke-miterlimit:2"
   id="svg1"
   xmlns="http://www.w3.org/2000/svg"
   xmlns:svg="http://www.w3.org/2000/svg"><defs
   id="defs1" />
    <g
   transform="matrix(4.06892,0,0,4.06892,-376.14027,-342.58761)"
   id="g1">
        <path
   d="m 155.19405,117.67306 c 1.30931,-8.74989 -5.35337,-13.45374 -14.46393,-16.59152 l 2.95512,-11.852923 -7.21559,-1.798023 -2.87703,11.540572 c -1.89696,-0.472833 -3.84521,-0.918534 -5.78121,-1.360264 l 2.89788,-11.616676 -7.21161,-1.798024 -2.95711,11.848957 c -1.57038,-0.358016 -3.11164,-0.711401 -4.60789,-1.083314 l 0.008,-0.03673 -9.95101,-2.484608 -1.91913,7.705963 c 0,0 5.35371,1.22691 5.24021,1.30269 2.9227,0.7296 3.45079,2.66328 3.36245,4.19627 l -3.36642,13.50304 c 0.20151,0.0513 0.46258,0.12508 0.75012,0.24023 -0.24055,-0.0596 -0.49732,-0.12541 -0.76236,-0.18894 l -4.71841,18.91565 c -0.35801,0.88743 -1.26397,2.21924 -3.30685,1.71365 0.0718,0.10489 -5.244512,-1.30898 -5.244512,-1.30898 l -3.582481,8.25886 9.389823,2.34035 c 1.74707,0.43776 3.45907,0.89603 5.14426,1.3275 l -2.98623,11.98826 7.20731,1.79836 2.95745,-11.8612 c 1.91118,0.51816 3.82799,1.01548 5.7501,1.49195 l -2.94685,11.80561 7.21558,1.79803 2.9859,-11.96576 c 12.30425,2.3281 21.55643,1.38905 25.45094,-9.73825 3.1381,-8.95968 -0.15618,-14.12775 -6.62993,-17.49781 4.71444,-1.08695 8.26582,-4.188 9.21314,-10.59292 z m -16.4863,23.11556 c -2.22982,8.95968 -17.31648,4.1162 -22.20761,2.90152 l 3.96234,-15.88243 c 4.89112,1.22063 20.57602,3.63741 18.24527,12.98091 z m 2.23182,-23.24526 c -2.03461,8.15 -14.59133,4.00932 -18.66451,2.99416 l 3.59241,-14.40503 c 4.07318,1.01515 17.19108,2.90979 15.0721,11.41087 z"
   style="fill-rule:nonzero;stroke-width:0.330884"
   id="path1" />
    </g>
</svg>
