<svg xmlns="http://www.w3.org/2000/svg" width="256" height="256" fill="none"><path fill="#000" d="M218.476 101.174c3.957-26.444-16.179-40.66-43.713-50.143l8.931-35.822-21.807-5.434-8.695 34.878c-5.733-1.429-11.621-2.776-17.472-4.111l8.758-35.108L122.683 0l-8.937 35.81c-4.746-1.082-9.404-2.15-13.926-3.274l.025-.111-30.074-7.509-5.8 23.289s16.18 3.708 15.837 3.937c8.833 2.205 10.429 8.049 10.162 12.682l-10.174 40.809c.609.155 1.398.378 2.267.726-.727-.18-1.503-.379-2.304-.571l-14.26 57.167c-1.082 2.682-3.82 6.707-9.994 5.179.217.317-15.85-3.956-15.85-3.956l-10.827 24.96 28.378 7.073c5.28 1.323 10.454 2.708 15.547 4.012l-9.025 36.231 21.782 5.435 8.938-35.847a830.367 830.367 0 0 0 17.378 4.509l-8.906 35.679 21.807 5.434 9.024-36.163c37.186 7.036 65.148 4.198 76.918-29.431 9.484-27.078-.472-42.697-20.037-52.882 14.248-3.285 24.981-12.657 27.844-32.014Zm-49.825 69.86c-6.739 27.078-52.334 12.44-67.116 8.769l11.975-48c14.782 3.689 62.185 10.993 55.141 39.231Zm6.745-70.252c-6.149 24.631-44.098 12.117-56.408 9.049l10.857-43.535c12.31 3.068 51.955 8.794 45.551 34.486Z"/></svg>