<svg xmlns="http://www.w3.org/2000/svg" width="256" height="256" fill="none"><g clip-path="url(#a)"><g fill="#000" clip-path="url(#b)"><path d="M128.334 213.573c47.897 0 86.459-38.562 86.459-85.242 0-46.68-38.562-85.241-86.459-85.241-47.898 0-86.459 38.561-86.459 85.241s38.561 85.242 86.459 85.242Z"/><path d="M200.796 218.665c4.648 4.403 4.364 11.926-.966 15.473-50.146 33.364-118.235 28.472-162.768-15.68-50.739-50.333-50.739-130.704 0-181.037C81.363-6.88 150.098-11.656 200.332 22.08c5.095 3.422 5.461 10.6 1.121 14.94-3.702 3.702-9.563 3.998-13.94 1.123-41.768-27.428-98.677-22.458-135.026 13.892C9.46 93.843 9.46 162.036 51.675 203.845c36.356 36.356 93.279 41.322 135.049 13.877 4.393-2.887 10.256-2.672 14.072.943Zm18.727-18.304c4.407 4.651 11.931 4.392 15.506-.925 29.083-43.265 28.959-100.384-.371-143.532-3.436-5.055-10.58-5.393-14.902-1.07-3.724 3.723-4.003 9.624-1.081 14.005 23.604 35.395 23.569 81.431-.106 117.417-2.897 4.403-2.671 10.278.954 14.105Z"/></g></g><defs><clipPath id="a"><path fill="#fff" d="M0 0h256v256H0z"/></clipPath><clipPath id="b"><rect width="256" height="256" fill="#fff" rx="64"/></clipPath></defs></svg>