<svg xmlns="http://www.w3.org/2000/svg" width="256" height="256" fill="none"><g clip-path="url(#a)"><g clip-path="url(#b)"><path fill="#000" d="M236.122 71.429c-10.004-16.458-23.856-29.058-41.812-37.8-17.956-9-38.734-13.629-62.077-13.629h-97.99v89.486H5v33.428h29.243V236h97.99c23.343 0 44.121-4.371 62.077-13.371 17.956-9 31.808-21.6 41.812-37.8C246.126 168.629 251 149.6 251 128s-4.874-40.371-14.878-56.571Zm-54.895 105.685c-12.826 11.829-30.012 18-51.56 18H84.264v-52.2h53.868v-33.428H84.264V61.143h45.403c21.548 0 38.734 5.914 51.56 18s19.239 28.286 19.239 48.857c0 20.571-6.413 37.029-19.239 49.114Z"/></g></g><defs><clipPath id="a"><rect width="256" height="256" fill="#fff" rx="64"/></clipPath><clipPath id="b"><path fill="#fff" d="M0 0h246v216H0z" transform="translate(5 20)"/></clipPath></defs></svg>