<?xml version="1.0" encoding="UTF-8" standalone="no"?>
<svg
   width="255.99896"
   height="255.99588"
   viewBox="0 0 255.99896 255.99588"
   version="1.1"
   xml:space="preserve"
   style="clip-rule:evenodd;fill-rule:evenodd;stroke-linejoin:round;stroke-miterlimit:2"
   id="svg5"
   xmlns="http://www.w3.org/2000/svg"
   xmlns:svg="http://www.w3.org/2000/svg"><defs
   id="defs5" />
    <g
   transform="matrix(4,0,0,4,128.00192,128.00102)"
   id="g5">
        <g
   transform="translate(-128,-128)"
   id="g4">
            <g
   id="g3">
                <clipPath
   id="_clip1">
                    <rect
   x="0"
   y="0"
   width="256"
   height="256"
   id="rect1" />
                </clipPath>
                <g
   clip-path="url(#_clip1)"
   id="g2">
                    <g
   id="g1">
                        <path
   d="m 159.56872,124.64768 c -0.0898,-1.31974 -0.699,-2.55123 -1.69349,-3.42347 -0.99324,-0.87124 -2.29297,-1.31299 -3.61146,-1.22724 h -0.19425 c -1.25099,0.143 -2.39848,0.76699 -3.19822,1.73948 -0.80049,0.97374 -1.19274,2.22123 -1.09349,3.47797 v 0.19575 c 0.23475,1.73123 0.23475,3.48596 0,5.2172 v 0.19575 c -0.2935,1.95248 -0.82374,3.86196 -1.57923,5.68594 -1.50099,3.55847 -3.90721,6.66268 -6.97918,9.00341 -3.06972,2.33873 -6.69944,3.83271 -10.52615,4.33196 -3.82546,0.49849 -7.71568,-0.0152 -11.28064,-1.48949 -3.56772,-1.47523 -6.68769,-3.85971 -9.04791,-6.91493 -2.36173,-3.05747 -3.88372,-6.68018 -4.41371,-10.50715 -0.52999,-3.82771 -0.0505,-7.72817 1.39074,-11.31364 1.43948,-3.58371 3.79196,-6.72893 6.82293,-9.12216 3.02897,-2.39147 6.63243,-3.94746 10.45015,-4.51245 2.59447,-0.35325 5.2287,-0.287 7.80217,0.19575 1.53299,0.22324 2.91647,1.04624 3.84396,2.28722 0.92849,1.24174 1.32799,2.80223 1.11049,4.33746 -0.32049,1.34549 -1.15049,2.51598 -2.31422,3.26347 -1.16274,0.74649 -2.57098,1.01299 -3.92597,0.74249 H 130.935 c -0.42775,-0.1065 -0.866,-0.1655 -1.30674,-0.17575 h -0.17525 c -0.71274,-0.0787 -1.42974,-0.11124 -2.14673,-0.0975 -2.14248,0.12324 -4.20846,0.84424 -5.96219,2.08122 -1.75573,1.23774 -3.13097,2.94198 -3.96971,4.91971 -0.83949,1.97923 -1.10999,4.15396 -0.78099,6.27844 0.32899,2.12372 1.24498,4.11371 2.64397,5.74494 1.39799,1.63023 3.22472,2.83722 5.2727,3.48372 2.04673,0.64549 4.23396,0.70474 6.31269,0.17074 2.07948,-0.53399 3.96821,-1.63998 5.45169,-3.19172 1.48524,-1.55298 2.50723,-3.49046 2.95047,-5.59319 l 0.2725,-1.68023 c 0.0815,-0.92925 0.1155,-1.86224 0.099,-2.79473 -0.003,-3.60721 1.29724,-7.09693 3.65922,-9.82315 2.35922,-2.72372 5.62669,-4.50371 9.19466,-5.0087 h 0.29149 c 0.61425,-0.0815 1.23399,-0.11425 1.85348,-0.0982 h 0.4685 c -2.88472,-4.59121 -6.88493,-8.37842 -11.62714,-11.00739 -4.7392,-2.626728 -10.0679,-4.009715 -15.48634,-4.019464 -8.54517,0.140248 -16.69809,3.651214 -22.67153,9.763154 -5.981195,6.11869 -9.316663,14.35436 -9.278913,22.91053 0.180248,7.25593 2.811473,14.24161 7.463173,19.8133 4.64596,5.56645 11.0459,9.39516 18.14758,10.8564 7.09943,1.45948 14.48811,0.46574 20.94954,-2.81748 6.46644,-3.28696 11.63164,-8.67091 14.64811,-15.26785 l 0.0993,-0.17549 c 1.49298,-3.46822 2.40247,-7.15968 2.69172,-10.9244 -0.0585,-2.05173 -0.255,-3.73196 -0.43049,-5.51019 z"
   style="fill:#ef4800;fill-rule:nonzero;stroke-width:0.249998"
   id="path1" />
                    </g>
                </g>
            </g>
        </g>
    </g>
</svg>
