<?xml version="1.0" encoding="UTF-8" standalone="no"?>
<svg
   width="256.00079"
   height="255.99773"
   viewBox="0 0 256.00079 255.99773"
   version="1.1"
   xml:space="preserve"
   style="clip-rule:evenodd;fill-rule:evenodd;stroke-linejoin:round;stroke-miterlimit:2"
   id="svg1"
   xmlns="http://www.w3.org/2000/svg"
   xmlns:svg="http://www.w3.org/2000/svg"><defs
   id="defs1" />
    <g
   transform="matrix(3.99999,0,0,3.99999,-383.99587,-383.99681)"
   id="g1">
        <path
   d="m 159.56902,124.64764 c -0.0897,-1.31975 -0.699,-2.55125 -1.6935,-3.4235 -0.99325,-0.87125 -2.293,-1.313 -3.6115,-1.22725 h -0.19425 c -1.251,0.143 -2.3985,0.767 -3.19825,1.7395 -0.8005,0.97375 -1.19275,2.22125 -1.0935,3.478 v 0.19575 c 0.23475,1.73125 0.23475,3.486 0,5.21725 v 0.19575 c -0.2935,1.9525 -0.82375,3.862 -1.57925,5.686 -1.501,3.5585 -3.90725,6.66275 -6.97925,9.0035 -3.06975,2.33875 -6.6995,3.83275 -10.52625,4.332 -3.8255,0.4985 -7.71575,-0.0153 -11.28075,-1.4895 -3.56775,-1.47525 -6.68775,-3.85975 -9.048,-6.915 -2.36175,-3.0575 -3.88375,-6.68025 -4.41375,-10.50725 -0.53,-3.82775 -0.0505,-7.72825 1.39075,-11.31375 1.4395,-3.58375 3.792,-6.729 6.823,-9.12225 3.029,-2.3915 6.6325,-3.9475 10.45025,-4.5125 2.5945,-0.35325 5.22875,-0.287 7.80225,0.19575 1.533,0.22325 2.9165,1.04625 3.844,2.28725 0.9285,1.24175 1.328,2.80225 1.1105,4.3375 -0.3205,1.3455 -1.1505,2.516 -2.31425,3.2635 -1.16275,0.7465 -2.571,1.013 -3.926,0.7425 h -0.19625 c -0.42775,-0.1065 -0.866,-0.1655 -1.30675,-0.17575 h -0.17525 c -0.71275,-0.0788 -1.42975,-0.11125 -2.14675,-0.0975 -2.1425,0.12325 -4.2085,0.84425 -5.96225,2.08125 -1.75575,1.23775 -3.131,2.942 -3.96975,4.91975 -0.8395,1.97925 -1.11,4.154 -0.781,6.2785 0.329,2.12375 1.245,4.11375 2.644,5.745 1.398,1.63025 3.22475,2.83725 5.27275,3.48375 2.04675,0.6455 4.234,0.70475 6.31275,0.17075 2.0795,-0.534 3.96825,-1.64 5.45175,-3.19175 1.48525,-1.553 2.50725,-3.4905 2.9505,-5.59325 l 0.2725,-1.68025 c 0.0815,-0.92925 0.1155,-1.86225 0.099,-2.79475 -0.003,-3.60725 1.29725,-7.097 3.65925,-9.82325 2.35925,-2.72375 5.62675,-4.50375 9.19475,-5.00875 h 0.2915 c 0.61425,-0.0815 1.234,-0.11425 1.8535,-0.0982 h 0.4685 c -2.88475,-4.59125 -6.885,-8.3785 -11.62725,-11.0075 -4.73925,-2.626747 -10.068,-4.009747 -15.4865,-4.019497 -8.54525,0.14025 -16.69825,3.65125 -22.67175,9.763247 -5.981245,6.11875 -9.316745,14.3545 -9.278995,22.91075 0.18025,7.256 2.8115,14.24175 7.463245,19.8135 4.646,5.5665 11.046,9.39525 18.14775,10.8565 7.0995,1.4595 14.48825,0.46575 20.94975,-2.8175 6.4665,-3.287 11.63175,-8.671 14.64825,-15.268 l 0.0993,-0.1755 c 1.493,-3.46825 2.4025,-7.15975 2.69175,-10.9245 -0.0585,-2.05175 -0.255,-3.732 -0.4305,-5.51025 z"
   style="fill:#46b549;fill-rule:nonzero;stroke-width:0.25"
   id="path1" />
    </g>
</svg>
