<svg width="32" height="32" fill="none" xmlns="http://www.w3.org/2000/svg"><g clip-path="url(#a)"><path d="M11.291.706A15.95 15.95 0 0 1 16 0v16H0c0-1.641.247-3.22.706-4.71A16.023 16.023 0 0 1 11.291.705Z" fill="#fff"/><path d="M11.291.706A15.95 15.95 0 0 1 16 0v16H0c0-1.641.247-3.22.706-4.71A16.023 16.023 0 0 1 11.291.705Z" fill="#A2C4B8"/><path d="M16 24c0 2.21-.896 4.21-2.343 5.655A7.986 7.986 0 0 1 8 32c-2.21 0-4.21-.896-5.657-2.345A7.966 7.966 0 0 1 0 24a7.98 7.98 0 0 1 2.343-5.657A7.974 7.974 0 0 1 8 16c0 2.21.896 4.21 2.343 5.655A7.976 7.976 0 0 0 16 24Zm16-8H16V0c1.639 0 3.218.247 4.706.706h.003A16.023 16.023 0 0 1 31.294 11.29 15.89 15.89 0 0 1 32 16Z" fill="#099250"/><path d="M32 16v8c0 2.21-.896 4.21-2.343 5.655A7.976 7.976 0 0 1 24 32a7.98 7.98 0 0 1-5.657-2.345A7.966 7.966 0 0 1 16 24v-8h16Z" fill="#099250"/></g><defs><clipPath id="a"><path fill="#fff" d="M0 0h32v32H0z"/></clipPath></defs></svg>