<svg xmlns="http://www.w3.org/2000/svg" width="32" height="32" fill="none"><path fill="#F7931A" d="M27.311 12.647c.495-3.306-2.022-5.083-5.464-6.268L22.964 1.9l-2.726-.68-1.087 4.36c-.717-.178-1.453-.346-2.184-.513L18.062.679 15.337 0 14.22 4.476a91.073 91.073 0 0 1-1.74-.409l.003-.014-3.76-.938-.725 2.91s2.023.464 1.98.493c1.104.275 1.303 1.006 1.27 1.585l-1.272 5.101c.076.02.175.047.284.09l-.288-.07-1.783 7.145c-.135.336-.477.839-1.249.648.027.04-1.981-.495-1.981-.495l-1.354 3.12 3.548.884c.66.166 1.306.339 1.943.502l-1.128 4.529 2.723.68 1.117-4.482c.744.202 1.466.388 2.172.564l-1.113 4.46 2.726.679 1.128-4.52c4.648.88 8.143.524 9.615-3.68 1.185-3.384-.06-5.336-2.505-6.61 1.781-.41 3.123-1.582 3.48-4.001Zm-6.228 8.732c-.842 3.385-6.541 1.555-8.39 1.096l1.498-6c1.847.461 7.773 1.374 6.892 4.904Zm.844-8.781c-.77 3.079-5.513 1.514-7.052 1.13l1.358-5.441c1.538.383 6.494 1.1 5.694 4.31Z"/></svg>