<svg width="32" height="32" fill="none" xmlns="http://www.w3.org/2000/svg"><g clip-path="url(#a)"><g clip-path="url(#b)" fill="#1066DF"><path d="M28.075 26.464a1.283 1.283 0 0 0-.859-.445 1.258 1.258 0 0 0-.921.292 7.016 7.016 0 0 0-.097.081l-.07.058c-.367.298-.749.577-1.144.835l-.052.034a8.898 8.898 0 0 1-.263.165l-.06.036-.058.036-.034.02-.061.037-.059.035c-.233.135-.471.265-.712.386l-.06.03-.084.043-.11.053-.008.005-.11.052-.083.038-.054.025-.086.039-.116.05a8.129 8.129 0 0 1-.355.148l-.232.09h-.003c-.076.03-.154.058-.232.085l-.015.006a12.584 12.584 0 0 1-.226.08l-.117.037a.866.866 0 0 1-.033.01l-.075.024-.063.02-.19.058-.042.013-.077.022-.09.025-.072.02-.047.013-.06.015-.204.052-.05.013-.073.017-.06.015-.016.003-.093.021a7.788 7.788 0 0 1-.17.037l-.162.033-.132.025-.081.014c-.027.005-.048.01-.073.013l-.105.017-.102.017-.013.002-.125.02-.12.016-.026.003-.1.013h-.006l-.083.01-.073.009-.218.023h-.017a.622.622 0 0 1-.072.01l-.063.006-.074.006-.074.006a24.26 24.26 0 0 1-.294.02l-.131.007-.074.002-.057.002-.072.003h-.073c-.025 0-.05.003-.074.003h-.026l-.122.001h-.268a13.512 13.512 0 0 1-4.099-.687l-.142-.049-.07-.024c-.022-.009-.047-.017-.07-.025l-.112-.041-.047-.018-.126-.047-.022-.008-.048-.02-.016-.006-.013-.005-.029-.01-.025-.011h-.006l-.012-.006-.053-.021-.068-.029a4.927 4.927 0 0 1-.113-.047h-.006l-.076-.033-.088-.039a13.555 13.555 0 0 1-5.815-4.884c-.01-.015-.021-.03-.03-.047a13.552 13.552 0 0 1-2.228-7.413v-.2c0-.051.003-.102.004-.152v-.012a13.48 13.48 0 0 1 .865-4.4l.057-.147a3.52 3.52 0 0 1 .052-.13l.036-.089.062-.145.069-.159.005-.01a.126.126 0 0 1 .006-.014l.05-.11v-.003l.046-.1.013-.03.007-.016a.622.622 0 0 1 .024-.049l.014-.03.014-.03.004-.008.009-.019.055-.113.01-.019.074-.147.053-.104.012-.02.001-.004.001-.003.032-.06c.003-.007.008-.014.012-.02l.023-.045.023-.042.004-.008.01-.017.04-.075c.42-.76.914-1.478 1.473-2.142l.029-.036A1.263 1.263 0 0 0 5.38 5.705c-.47.56-.903 1.15-1.293 1.768l-.01.014-.1.161-.052.086a15.954 15.954 0 0 0-1.764 4.147l-.034.13-.01.037a5.796 5.796 0 0 0-.017.069l-.018.07a4.767 4.767 0 0 0-.033.138l-.002.012-.005.02v.005l-.02.087-.007.024a15.99 15.99 0 0 0-.182 6.131c.002.016.004.032.008.049a15.945 15.945 0 0 0 2.213 5.837l.057.09.053.082.053.082.077.12.046.068.02.028c.025.039.052.078.08.116l.016.025.008.013.01.013a10.302 10.302 0 0 0 .281.395l.084.114a67.765 67.765 0 0 0 .107.141c.014.018.027.037.042.054.021.029.044.056.065.084l.035.045.072.09.045.056c.021.026.042.053.065.079l.046.054c.02.027.044.053.067.08l.048.057.066.077c.035.043.072.084.108.124l.116.13c.039.042.08.09.121.133l.122.131.125.131c.87.904 1.842 1.702 2.9 2.376l.025.015.085.053a15.974 15.974 0 0 0 5.18 2.107l.085.018.077.015c.056.01.11.023.165.033l.083.016.042.007.042.007.088.015.02.004.031.005.097.017.117.019.117.017.118.018c.039.006.079.01.118.017l.118.015.074.01.076.009.069.008.143.015.104.011.063.006.087.008a14.287 14.287 0 0 0 .922.055h.039l.179.004h.46c.06 0 .12-.002.182-.004h.013c.062 0 .123-.003.186-.005l.095-.004.096-.005c.057-.002.116-.006.174-.01.086-.004.17-.01.257-.016l.276-.023a9.37 9.37 0 0 0 .293-.03l.103-.011.104-.013.04-.005.098-.013c.04-.005.08-.01.12-.017l.024-.003.14-.021.016-.003.09-.014.084-.014.05-.008h.01l.192-.034.012-.003.113-.02a15.912 15.912 0 0 0 5.32-2.03l.086-.053a15.15 15.15 0 0 0 .377-.24 16.176 16.176 0 0 0 1.563-1.162 1.265 1.265 0 0 0 .152-1.777h-.005Z"/><path d="M10.229 4.517c.222 0 .441-.06.633-.172a13.612 13.612 0 0 1 1.264-.647l.085-.038.058-.024.112-.049.083-.035.171-.07.065-.025.107-.043.078-.03c.122-.045.245-.089.37-.131l.073-.025c.144-.048.292-.095.439-.139l.073-.021c.19-.055.382-.106.575-.153l.063-.016.075-.017.05-.012.054-.013.107-.024.164-.034.09-.017c.123-.024.246-.046.368-.067l.178-.029c.06-.01.12-.017.183-.027l.013-.002c.087-.012.174-.024.261-.034l.184-.022a9 9 0 0 1 .369-.033l.115-.008.232-.014c.039-.002.078-.003.116-.006l.069-.002.064-.003.073-.002.073-.002.147-.003h.174a13.3 13.3 0 0 1 2.013.152c.025.004.05.009.077.012l.128.021.025.005.02.004.098.016.031.006.043.008.042.008.08.016c.029.004.057.01.084.016l.022.005.192.041.06.013.132.03.156.038.145.037.051.014.056.014h.002l.105.029c.005 0 .01.002.014.003l.048.014.067.019.056.015.078.023.06.019.056.016.026.008h.002l.032.01.067.02.043.014.055.018.098.031.148.051c.218.077.434.158.648.245l.073.03.16.068a3.795 3.795 0 0 1 1.99 4.975 3.795 3.795 0 0 1-4.978 1.99 5.932 5.932 0 0 0-2.262-.48h-.003a5.916 5.916 0 0 0-1.114.096l-.04.007-.05.01-.076.015h-.005a1.933 1.933 0 0 1-.08.019l-.064.015-.037.01-.061.015-.058.015-.04.01a5.834 5.834 0 0 0-.243.074l-.096.032-.049.016c-.016.006-.031.01-.048.018l-.047.018a5.906 5.906 0 0 0-.828.382l-.044.024-.088.05-.087.054a4.804 4.804 0 0 0-.081.051l-.071.046c-.017.01-.032.021-.048.032a.393.393 0 0 0-.027.019l-.035.023-.04.029c-.027.019-.054.037-.08.057l-.081.06-.04.03a5.8 5.8 0 0 0-.779.722l-.007.007-.06.068-.056.066a4.654 4.654 0 0 1-.022.025l-.069.085a.46.46 0 0 0-.022.028l-.058.074-.041.053c-.038.05-.074.1-.11.15v.001a5.827 5.827 0 0 0-.656 1.216l-.002.005-.021.053-.02.052-.016.042a1.857 1.857 0 0 0-.017.05l-.022.062-.02.064a5.828 5.828 0 0 0-.179 3.019c.146.73.431 1.425.84 2.048l.033.05c.417.63.953 1.17 1.577 1.594l.06.04c.779.521 1.67.847 2.6.951l.068.007.06.006.028.002a5.768 5.768 0 0 0 1.166-.015h.004a5.9 5.9 0 0 0 2.214-.71 1.265 1.265 0 0 0 .637-1.249 1.27 1.27 0 0 0-.472-.843 1.252 1.252 0 0 0-.93-.263 1.27 1.27 0 0 0-.47.152 3.373 3.373 0 0 1-2.02.403l-.037-.005-.063-.008-.069-.01a2.344 2.344 0 0 1-.213-.044l-.036-.008-.043-.01-.042-.012-.043-.011-.035-.01-.046-.015-.081-.026-.04-.014-.08-.03a3.512 3.512 0 0 1-.12-.048l-.03-.013-.032-.014-.032-.015-.049-.024a3.396 3.396 0 0 1-1.274-1.081l-.029-.042-.027-.04-.023-.037a3.401 3.401 0 0 1-.542-1.774v-.11l.001-.055.002-.054c0-.013 0-.026.003-.039l.002-.039.008-.094a.444.444 0 0 1 .005-.041.963.963 0 0 1 .01-.075.915.915 0 0 1 .008-.057l.007-.042c.005-.026.008-.052.014-.078l.014-.074.018-.082.013-.054.01-.042.025-.089a3.337 3.337 0 0 1 .356-.794l.04-.063a.973.973 0 0 1 .046-.068l.03-.044.05-.068.026-.035.028-.037.037-.046.036-.045.038-.043c.021-.026.045-.05.068-.076l.005-.004a2.56 2.56 0 0 1 .142-.144l.017-.015c.128-.122.267-.232.413-.332.028-.02.057-.038.084-.056a.385.385 0 0 1 .045-.028c.016-.01.033-.021.05-.03l.05-.03c.176-.1.361-.185.553-.253l.083-.029.055-.017c.019-.006.037-.01.055-.017l.057-.015.054-.014c.04-.01.08-.02.12-.027l.052-.01.039-.008.04-.007.077-.012h.002c.16-.023.322-.035.483-.035h.055c.438.008.87.101 1.272.273a6.323 6.323 0 0 0 7.445-1.888 6.332 6.332 0 0 0 1.36-3.882v-.012a6.312 6.312 0 0 0-3.827-5.826 3.227 3.227 0 0 0-.123-.052 9.082 9.082 0 0 0-.5-.2l-.102-.04A3.59 3.59 0 0 0 23.1.963L23.01.93 22.928.9l-.126-.043c-.087-.03-.174-.059-.263-.087l-.06-.02-.072-.024L22.3.691l-.073-.022-.065-.02-.092-.026-.185-.053c-.042-.012-.084-.024-.127-.034l-.12-.032h-.005l-.026-.007C21.536.479 21.47.46 21.4.445l-.07-.017-.083-.02-.124-.028-.01-.002L20.99.35c-.086-.02-.172-.037-.258-.055l-.075-.014-.11-.02a7.457 7.457 0 0 1-.073-.015L20.37.228l-.04-.007-.246-.041a9.913 9.913 0 0 0-.26-.039l-.105-.014-.058-.007-.021-.003-.036-.004-.035-.005L19.5.1l-.047-.006-.09-.01-.029-.004-.11-.012-.103-.01-.035-.003-.101-.01-.12-.009a16.724 16.724 0 0 0-.546-.033h-.041l-.024-.001-.088-.004-.125-.003a22.076 22.076 0 0 0-.277-.005h-.27l-.116.001-.11.003c-.037 0-.074 0-.111.002a7.278 7.278 0 0 0-.16.006l-.094.004-.042.002-.07.003-.09.005-.083.005h-.011c-.727.046-1.45.141-2.162.286l-.026.005c-.057.012-.115.025-.174.036l-.01.003-.077.016a15.877 15.877 0 0 0-4.39 1.682l-.125.07-.05.029-.02.013-.022.013a1.26 1.26 0 0 0-.537 1.42 1.26 1.26 0 0 0 1.214.91h.002l-.001.013Z"/><path d="m8.297 10.267-.01.018a10.882 10.882 0 0 0-1.284 3.057l-.005.018-.017.074-.009.037-.016.07a10.921 10.921 0 0 0-.165 4.04l.014.092.005.036.007.04.01.065.003.011.001.01a10.939 10.939 0 0 0 1.642 4.176l.021.033c.08.122.163.24.247.358l.097.132a10.936 10.936 0 0 0 7.182 4.298l.016.002.072.01h.01l.059.01h.013l.063.01c.864.11 1.738.114 2.604.016l.055-.007c.018-.002.035-.005.053-.006l.074-.01.014-.002h.01l.016-.003.07-.01.024-.003.123-.018h.001a10.928 10.928 0 0 0 4.99-2.133 1.25 1.25 0 0 0 .49-.838 1.254 1.254 0 0 0-.623-1.265 1.256 1.256 0 0 0-.965-.123c-.16.045-.311.12-.443.223a8.415 8.415 0 0 1-3.006 1.469l-.043.01c-.275.07-.554.125-.836.167h-.012c-.033.008-.066.011-.099.016l-.036.005c-.362.047-.726.07-1.09.07h-.002a8.445 8.445 0 0 1-2.3-.319l-.007-.002a9.582 9.582 0 0 1-.43-.136l-.13-.046-.057-.02-.017-.007-.099-.037-.028-.011-.05-.02-.012-.005h-.003a3.416 3.416 0 0 1-.099-.04l-.024-.01-.028-.012-.147-.064-.04-.018a8.467 8.467 0 0 1-3.506-2.96l-.021-.031-.037-.056-.032-.049a8.47 8.47 0 0 1-1.354-4.511v-.108l.001-.131v-.011a8.455 8.455 0 0 1 .03-.543c0-.008 0-.016.002-.024a8.395 8.395 0 0 1 1.192-3.625l.026-.043a8.495 8.495 0 0 1 2.04-2.257 8.182 8.182 0 0 1 1.007-.664 8.506 8.506 0 0 1 2.92-.993c.398-.057.8-.085 1.202-.085h.002l.093-.003h.006a8.35 8.35 0 0 1 3.218.685h.002a1.263 1.263 0 1 0 .996-2.321h-.002a10.886 10.886 0 0 0-5.896-.774l-.043.007-.07.01-.013.003-.051.008c-1.506.243-2.944.8-4.22 1.635l-.009.006-.058.037-.059.04-.038.026A10.839 10.839 0 0 0 8.554 9.87l-.047.071c-.015.024-.033.05-.05.074l-.009.014-.05.08-.03.045c-.01.017-.021.033-.03.05l-.018.027-.021.033-.003.006.001-.003Z"/></g></g><defs><clipPath id="a"><path fill="#fff" d="M0 0h32v32H0z"/></clipPath><clipPath id="b"><path fill="#fff" transform="translate(-.625)" d="M0 0h32v32H0z"/></clipPath></defs></svg>