<svg width="32" height="32" fill="none" xmlns="http://www.w3.org/2000/svg"><g clip-path="url(#a)" fill="#3551F2"><path d="M18.305 9.746 15.648 16H9.41a3.116 3.116 0 0 0-3.126 3.126 3.116 3.116 0 0 0 3.126 3.127h3.58l-2.642 6.206a9.409 9.409 0 0 1-.938.046c-5.174 0-9.379-4.205-9.379-9.379 0-5.174 4.205-9.379 9.38-9.379h8.91-.016Z"/><path d="M32 12.873c0 5.174-4.204 9.38-9.379 9.38h-9.629L15.65 16h6.971a3.136 3.136 0 0 0 3.127-3.127 3.136 3.136 0 0 0-3.127-3.126h-4.314l2.595-6.097a8.909 8.909 0 0 1 1.72-.156C27.795 3.494 32 7.7 32 12.874Z"/></g><defs><clipPath id="a"><path fill="#fff" d="M0 0h32v32H0z"/></clipPath></defs></svg>