<svg width="32" height="32" fill="none" xmlns="http://www.w3.org/2000/svg"><g clip-path="url(#a)" fill="#46B549"><path d="M16.05 26.633c5.952 0 10.743-4.79 10.743-10.59S22.002 5.45 16.051 5.45c-5.951 0-10.742 4.791-10.742 10.591 0 5.8 4.79 10.591 10.742 10.591Z"/><path d="M25.048 27.264c.578.547.543 1.482-.12 1.923-6.23 4.145-14.69 3.537-20.223-1.949-6.304-6.253-6.304-16.24 0-22.493C10.209-.759 18.749-1.353 24.99 2.84c.633.425.678 1.317.139 1.856-.46.46-1.188.497-1.732.14-5.19-3.408-12.26-2.79-16.777 1.726a13.184 13.184 0 0 0-.1 18.862c4.516 4.517 11.589 5.134 16.779 1.724.546-.359 1.274-.332 1.748.117Zm2.33-2.275c.547.578 1.482.545 1.926-.115 3.614-5.376 3.598-12.473-.046-17.834-.427-.628-1.314-.67-1.851-.133-.463.463-.498 1.196-.135 1.74 2.933 4.398 2.929 10.118-.013 14.589-.36.547-.332 1.277.119 1.753Z"/></g><defs><clipPath id="a"><path fill="#fff" d="M0 0h32v32H0z"/></clipPath></defs></svg>