<svg width="32" height="32" fill="none" xmlns="http://www.w3.org/2000/svg"><path d="M15.95 10.803V7.33l-5.286-1.534v3.472l5.286 1.537Z" fill="#E1E1E1"/><path d="M15.95 10.804V7.33l5.287-1.527v3.464l-5.288 1.537Z" fill="#C4C3C3"/><path d="M15.95 16.083v-3.474l-5.286-1.535v3.473l5.286 1.536Z" fill="#E1E1E1"/><path d="M15.95 16.081v-3.474l5.287-1.527v3.465l-5.288 1.536Z" fill="#C4C3C3"/><path d="M15.95 26.64v-3.475l-5.286-1.534v3.472l5.286 1.536Z" fill="#E1E1E1"/><path d="M15.95 26.64v-3.474l5.287-1.527v3.464L15.95 26.64Z" fill="#C4C3C3"/><path d="M15.949 21.36v-3.474L5.48 14.848v3.47l10.47 3.042Z" fill="#44B549"/><path d="M15.95 21.362v-3.474l10.472-3.025v3.456l-10.473 3.043Z" fill="#409244"/><path d="m8.954 29.963-3.474-1.1V4.276l3.474 1.01v24.676Z" fill="#44B549"/><path d="m22.945 5.288 3.48-1.01-.006 24.584-3.474 1.101V5.288Z" fill="#409244"/><path d="M15.95 31.919v-3.474l-5.286-1.535v3.472l5.286 1.537Z" fill="#E1E1E1"/><path d="M15.95 31.92v-3.475l5.287-1.527v3.465l-5.288 1.536Z" fill="#C4C3C3"/><path d="M15.95 5.594 5.48 2.542 15.95 0l10.474 2.542L15.95 5.594Z" fill="#E1E1E1"/></svg>