<svg width="32" height="32" fill="none" xmlns="http://www.w3.org/2000/svg"><g clip-path="url(#a)"><g clip-path="url(#b)" fill="#000"><path d="M4.777 25.163a.115.115 0 0 1-.055 0 .13.13 0 0 1-.092-.101c-.05-.323 1.348-3.284 1.991-4.435.323-.572 2.738-2.15 4.365-2.924.146-.068 1.087-.52 1.115-.468.03.051-.85.734-.895.773-1.432 1.148-3.991 4.15-5.328 5.857-.85 1.088-1.006 1.279-1.1 1.298Z"/><path d="M19.43 9.327c2.252-.07 3.437.571 4.027 1.143a2.394 2.394 0 0 1 .798 1.66c.015.852-.907 1.108-1.459 1.262a3.626 3.626 0 0 0-.238.069c.38.152 1.254.425 2.04.669 3.27 1.017 4.654 1.524 4.772 1.965a.288.288 0 0 1-.084.28c-.176.147-.508.122-1.062.029l-.08-.014c-5.68-.903-9.565-.838-9.605-.838-10.423.158-15.75 7.703-17.503 10.183-.46.654-.643.912-.812.917a.236.236 0 0 1-.136-.046.359.359 0 0 1-.127-.293c-.038-1.176 2.437-8.131 7.705-12.082 2.192-1.646 5.918-3.313 11.28-2.001a1.795 1.795 0 0 1-.482-1.21c-1.575.205-4.39-.02-6.396-.28-1.724-.231-4.637-.7-4.824-1.364-.04-.144.02-.3.392-.518 1.675-.983 4.079-1.197 4.079-1.197 6.779-.654 7.716 1.666 7.716 1.666Z"/><path d="M12.024 7.104S9.975 5.9 10.306 5.58c.33-.32 4.08 0 6.547 1.058 2.467 1.058 2.623 2.238 2.623 2.238-.804-1.315-2.92-2.127-7.452-1.77ZM29.52 14.802c-.366.011-.689.017-1.176.025a.993.993 0 0 1-.35-.068l-3.134-.995c-.091-.029-.687-.221-.634-.3.053-.078.601-.074.697-.07h.212c3.846.113 6.108.38 6.75.795a.21.21 0 0 1 .1.244c-.035.14-.071.298-2.465.369ZM5.002 15.945a.518.518 0 0 1-.302-.033c-.158-.064-.233-.19-.38-.38-.381-.465-.535-.99-.41-1.368a.704.704 0 0 1 .52-.457c.75-.19 1.596.101 1.91.457.253.279.137.37-.192.642a6.02 6.02 0 0 0-.544.515c-.279.283-.38.515-.602.624Z"/></g></g><defs><clipPath id="a"><path fill="#fff" d="M0 0h32v32H0z"/></clipPath><clipPath id="b"><rect width="32" height="32" rx="8" fill="#fff"/></clipPath></defs></svg>