<svg width="32" height="32" fill="none" xmlns="http://www.w3.org/2000/svg"><g clip-path="url(#a)"><path d="M31.998 0 21.332 10.666h-7.11a3.556 3.556 0 0 0-.001 7.111l-3.555 3.555A10.658 10.658 0 0 1 0 10.666C0 4.775 4.775 0 10.666 0h21.332Z" fill="#B2FE92"/><path d="M31.998 21.332c0 5.891-4.775 10.666-10.666 10.666H0l10.666-10.666h7.111a3.555 3.555 0 0 0 3.555-3.555c0-.05 0-.1-.003-.15 0-.034-.002-.066-.005-.099 0-.008 0-.015-.003-.024a.53.53 0 0 0-.005-.065.393.393 0 0 0-.005-.056c-.003-.019-.004-.04-.008-.059 0-.012-.003-.024-.004-.034l-.014-.094c0-.002 0-.005-.002-.008a1.832 1.832 0 0 0-.023-.118c0-.012-.004-.024-.008-.036a3.895 3.895 0 0 0-.026-.12l-.007-.024-.03-.112a3.817 3.817 0 0 0-.137-.385c-.024-.052-.046-.104-.072-.154a2.342 2.342 0 0 0-.071-.143c-.032-.06-.067-.118-.1-.176l-.068-.105a1.771 1.771 0 0 0-.08-.114 1.642 1.642 0 0 0-.101-.133 6.456 6.456 0 0 0-.152-.18 3.542 3.542 0 0 0-2.63-1.163l3.556-3.555c.069 0 .138 0 .207.003.052 0 .104.002.157.004a8.746 8.746 0 0 1 .557.034 9.501 9.501 0 0 1 .873.11l.14.023c.01.003.022.003.033.007a8.598 8.598 0 0 1 .418.085l.048.012.236.058c.002 0 .005 0 .008.002l.245.067c.084.024.169.05.251.076a6.414 6.414 0 0 1 .256.082c.073.026.148.05.221.079l.032.012c.078.028.155.056.23.088a14.133 14.133 0 0 1 .447.188 8.944 8.944 0 0 1 .5.24c.077.04.152.078.227.12.076.04.15.082.225.124l.223.131c.068.041.137.082.203.125l.019.012a11.142 11.142 0 0 1 1.014.74l.03.025c.193.16.38.326.561.5.061.06.123.118.184.179s.12.121.18.184l.174.186c.101.112.201.225.297.341a8.65 8.65 0 0 1 .505.655c.05.07.099.14.146.212.048.07.095.143.143.215.045.072.09.142.134.216l.026.042a7.893 7.893 0 0 1 .231.406l.091.17c.079.154.155.307.226.464l.06.13a8.544 8.544 0 0 1 .248.614l.035.094c.018.05.036.097.052.147a9.182 9.182 0 0 1 .161.511c.007.019.012.039.017.057.022.076.042.152.061.228 0 .003.003.006.003.008a12.562 12.562 0 0 1 .125.54c.014.065.024.129.036.194.014.068.024.136.035.204l.024.149.024.18c.005.037.01.073.013.11l.022.19v.004a8.641 8.641 0 0 1 .043.563c.005.079.007.157.009.236v.036c.002.085.002.17.002.255l-.004-.005Z" fill="#078465"/></g><defs><clipPath id="a"><path fill="#fff" d="M0 0h32v32H0z"/></clipPath></defs></svg>