<svg xmlns="http://www.w3.org/2000/svg" width="38" height="32" fill="none"><path fill="#006F9A" d="M32.295 9.06c-1.23-2.02-2.933-3.565-5.141-4.638C24.946 3.318 22.39 2.75 19.52 2.75H7.47v10.979H3.876v4.1h3.596V29.25h12.05c2.87 0 5.425-.536 7.633-1.64 2.208-1.105 3.911-2.65 5.141-4.638s1.83-4.322 1.83-6.972c0-2.65-.6-4.953-1.83-6.94Zm-6.75 12.966c-1.577 1.45-3.69 2.208-6.34 2.208h-5.583V17.83h6.624v-4.101h-6.624V7.798h5.583c2.65 0 4.763.725 6.34 2.208s2.366 3.47 2.366 5.994c0 2.524-.789 4.543-2.366 6.026Z"/></svg>