<svg width="32" height="32" fill="none" xmlns="http://www.w3.org/2000/svg"><g clip-path="url(#a)"><rect width="32" height="32" rx="9.095" fill="url(#b)"/><path d="M19.031 20.547c-4.179 0-7.578-3.4-7.578-7.578 0-4.18 3.4-7.58 7.578-7.58 4.179 0 7.58 3.399 7.58 7.58 0 4.18-3.401 7.578-7.58 7.578Zm0-12.196a4.621 4.621 0 0 0-4.616 4.616 4.621 4.621 0 0 0 4.616 4.616 4.621 4.621 0 0 0 4.616-4.616 4.621 4.621 0 0 0-4.616-4.616Z" fill="#EEEDEE"/></g><defs><linearGradient id="b" x1="16" y1="0" x2="16" y2="32" gradientUnits="userSpaceOnUse"><stop stop-color="#373737"/><stop offset="1" stop-color="#242424"/></linearGradient><clipPath id="a"><path fill="#fff" d="M0 0h32v32H0z"/></clipPath></defs></svg>