<svg width="32" height="32" fill="none" xmlns="http://www.w3.org/2000/svg"><g clip-path="url(#a)"><mask id="b" style="mask-type:luminance" maskUnits="userSpaceOnUse" x="0" y="0" width="32" height="32"><path d="M31.902 0H0v31.885h31.902V0Z" fill="#fff"/></mask><g mask="url(#b)" fill="#281149"><path d="M23.917 32.028a7.971 7.971 0 1 0 0-15.942 7.971 7.971 0 0 0 0 15.942ZM7.971 16.087a7.971 7.971 0 1 0 0-15.942 7.971 7.971 0 0 0 0 15.942ZM6.378 31.943a6.378 6.378 0 1 0 0-12.756 6.378 6.378 0 0 0 0 12.756ZM25.522.145c-3.498 0-6.377 2.879-6.377 6.377 0 3.499 2.879 6.378 6.377 6.378 3.499 0 6.378-2.88 6.378-6.378S29.02.145 25.522.145Zm-.028 9.564a3.204 3.204 0 0 1-3.189-3.188c0-1.75 1.44-3.19 3.189-3.19 1.75 0 3.189 1.44 3.189 3.19v.001a3.203 3.203 0 0 1-3.188 3.187h-.001Z"/></g></g><defs><clipPath id="a"><path fill="#fff" d="M0 0h32v32H0z"/></clipPath></defs></svg>