<svg xmlns="http://www.w3.org/2000/svg" width="32" height="32" fill="none"><g clip-path="url(#a)"><g clip-path="url(#b)"><path fill="#EF4800" d="M28.636 9.387c-1.169-1.924-2.788-3.397-4.886-4.419-2.099-1.052-4.527-1.593-7.255-1.593H5.043v10.46H1.625v3.909h3.418v10.881h11.452c2.728 0 5.156-.511 7.255-1.563 2.098-1.052 3.717-2.525 4.886-4.419 1.17-1.894 1.739-4.118 1.739-6.643 0-2.525-.57-4.72-1.739-6.613ZM22.221 21.74c-1.5 1.383-3.508 2.105-6.026 2.105h-5.306v-6.102h6.295v-3.908H10.89v-5.65h5.306c2.518 0 4.527.69 6.026 2.104C23.72 11.7 24.469 13.595 24.469 16c0 2.405-.75 4.329-2.248 5.741Z"/></g></g><defs><clipPath id="a"><path fill="#fff" d="M0 0h32v32H0z"/></clipPath><clipPath id="b"><path fill="#fff" d="M0 0h28.75v25.25H0z" transform="translate(1.625 3.375)"/></clipPath></defs></svg>