<svg xmlns="http://www.w3.org/2000/svg" width="32" height="32" fill="none"><g fill="#EF4800" clip-path="url(#a)"><path d="M31.247 18a10.96 10.96 0 0 1-1.472 5.5 11.045 11.045 0 0 1-4.028 4.028l-.173.098A10.946 10.946 0 0 1 20.25 29h-11l2.062-5.5H5.125L7.187 18h13.062l-2.062 5.5h2.062a5.5 5.5 0 1 0-.002-11H9.25L11.31 7h8.936c2.004 0 3.881.537 5.5 1.472a11.046 11.046 0 0 1 4.028 4.028 10.955 10.955 0 0 1 1.472 5.5Z"/><path d="M7.186 18H1l2.062-5.5h6.187L7.186 18Z"/></g><defs><clipPath id="a"><path fill="#fff" d="M0 0h32v32H0z"/></clipPath></defs></svg>