<?xml version="1.0" encoding="UTF-8" standalone="no"?>
<svg
   width="511.99945"
   height="485.99771"
   viewBox="0 0 511.99945 485.99771"
   version="1.1"
   xml:space="preserve"
   style="clip-rule:evenodd;fill-rule:evenodd;stroke-linejoin:round;stroke-miterlimit:2"
   id="svg1"
   xmlns="http://www.w3.org/2000/svg"
   xmlns:svg="http://www.w3.org/2000/svg"><defs
   id="defs1" />
    <g
   transform="matrix(3.99998,0,0,3.99998,-255.99972,-266.99861)"
   id="g1">
        <path
   d="m 180.42875,124.085 c 0.202,-0.3005 0.3935,-0.6065 0.5855,-0.9175 3.5645,-5.7665 5.3165,-12.461 5.3165,-19.225 v -0.3565 c 0,-7.280997 -2.04,-14.456497 -6.119,-20.503997 -6.0485,-8.971 -15.924,-15.1785 -27.3085,-16.332 h -36.1035 c -1.373,-0.0035 -2.6925,0.54 -3.665,1.5095 -0.973,0.9605 -1.521,2.2725 -1.52,3.64 v 16.3925 c 0,1.424 0.5805,2.713 1.52,3.6405 0.9725,0.9695 2.292,1.513 3.665,1.5095 h 32.534 c 5.5835,0 10.1075,4.503 10.1075,10.038997 v 0.5315 c 0,5.546 -4.524,10.039 -10.1075,10.039 h -53.269 c -1.373,0.002 -2.6925,-0.541 -3.6655,-1.51 -0.972,-0.961 -1.52,-2.273 -1.52,-3.64 V 71.900003 c 0,-1.4245 -0.58,-2.713 -1.5195,-3.6405 -0.9725,-0.9685 -2.2915,-1.512 -3.6645,-1.5095 h -16.51 c -2.8625,0 -5.185,2.3065 -5.185,5.15 V 183.1 c 0,1.414 0.5805,2.708 1.52,3.6405 0.972,0.9695 2.292,1.513 3.665,1.5095 h 16.505 c 1.4335,0 2.726,-0.5765 3.665,-1.5095 0.9725,-0.961 1.52,-2.273 1.52,-3.6405 v -37.0015 c 0,-2.843 2.322,-5.15 5.185,-5.15 h 53.0115 c 0.8785,0 1.7365,-0.04 2.595,-0.095 h 3.352 c 5.574,0 10.1075,4.493 10.1075,10.039 v 0.5215 c 0,5.546 -4.5335,10.039 -10.1075,10.039 h -38.042 c -0.0555,-0.01 -0.121,-0.01 -0.1765,-0.01 -0.0555,0 -0.121,0 -0.177,0.01 -1.312,0.0355 -2.5615,0.5745 -3.4885,1.504 -0.9735,0.9625 -1.521,2.2765 -1.52,3.6455 V 183.1 c 0,1.414 0.581,2.708 1.52,3.6405 0.9725,0.97 2.292,1.5135 3.6655,1.5095 h 40.5915 c 10.6025,-0.732 19.993,-5.852 26.334,-13.544 5.453,-6.609 8.275,-14.978 8.275,-23.523 v -0.07 c 0,-8.329 -2.676,-16.4925 -7.881,-23.0215 -1.135,-1.423 -2.372,-2.762 -3.7005,-4.0065 h 0.01 z"
   style="fill:#000030;fill-rule:nonzero;stroke-width:0.5"
   id="path1" />
    </g>
</svg>
