<?xml version="1.0" encoding="UTF-8" standalone="no"?>
<svg
   width="512"
   height="512"
   viewBox="0 0 512 512"
   version="1.1"
   xml:space="preserve"
   style="clip-rule:evenodd;fill-rule:evenodd;stroke-linejoin:round;stroke-miterlimit:2"
   id="svg2"
   xmlns="http://www.w3.org/2000/svg"
   xmlns:svg="http://www.w3.org/2000/svg"><defs
   id="defs2" />
    <g
   transform="matrix(0.512,0,0,0.512,-256,-256)"
   id="g1">
        <path
   d="m 1287.195,1336.69 c 10.7,10.7 16.065,25.645 14.62,40.705 -1.44,15.06 -9.555,28.71 -22.09,37.175 -79.925,53.88 -176.17,85.43 -279.725,85.43 -103.5565,0 -199.802,-31.55 -279.639,-85.555 -12.5005,-8.44 -20.588,-22.05 -22.0275,-37.065 -1.441,-15.015 3.911,-29.915 14.578,-40.58 -0.104,-0.11 -0.102,-0.11 -0.1005,-0.115 22.3915,-22.39 57.2415,-26.44 84.171,-9.78 58.89,36.875 128.4955,58.095 203.018,58.095 74.525,0 144.13,-21.22 203.11,-57.95 26.86,-16.615 61.62,-12.575 83.955,9.76 0.125,-0.12 0.125,-0.12 0.13,-0.12 z m 49.495,-623.8845 c 10.7,-10.6985 25.645,-16.0665 40.705,-14.622 15.06,1.4435 28.71,9.555 37.175,22.093 53.88,79.9215 85.43,176.167 85.43,279.7235 0,103.555 -31.55,199.8 -85.555,279.64 -8.44,12.5 -22.05,20.585 -37.065,22.025 -15.015,1.445 -29.915,-3.91 -40.58,-14.575 -0.11,0.1 -0.11,0.1 -0.115,0.1 -22.39,-22.39 -26.44,-57.245 -9.78,-84.17 C 1363.78,1144.13 1385,1074.525 1385,1000 c 0,-74.5225 -21.22,-144.128 -57.95,-203.1095 -16.615,-26.861 -12.575,-61.6215 9.76,-83.9545 -0.12,-0.1265 -0.12,-0.1285 -0.12,-0.1305 z m -751.1375,7.5555 c 9.393,-13.905 25.117,-22.2585 41.8975,-22.2585 13.4045,0 26.2735,5.3305 35.752,14.809 0.108,-0.104 0.11,-0.102 0.112,-0.1005 22.3895,22.3915 26.44,57.2415 9.7825,84.171 C 636.219,855.872 615,925.4775 615,1000 c 0,74.525 21.219,144.13 57.949,203.11 16.6145,26.86 12.5735,61.62 -9.76,83.955 0.123,0.125 0.121,0.125 0.119,0.13 -10.698,10.7 -25.641,16.065 -40.701,14.62 -15.06,-1.445 -28.7105,-9.555 -37.1795,-22.09 C 531.55,1199.8 500,1103.555 500,1000 500,896.4435 531.55,800.198 585.5525,720.361 Z M 1000,685 c 173.855,0 315,141.147 315,315 0,173.855 -141.145,315 -315,315 -173.853,0 -315,-141.145 -315,-315 0,-173.853 141.147,-315 315,-315 z M 712.8055,663.308 c -9.507,-9.5065 -14.854,-22.414 -14.854,-35.859 0,-16.83 8.3785,-32.6005 22.325,-42.0215 C 800.198,531.55 896.4435,500 1000,500 c 103.555,0 199.8,31.55 279.64,85.5525 12.5,8.4445 20.585,22.054 22.025,37.069 1.44,15.015 -3.91,29.914 -14.575,40.5805 0.1,0.108 0.1,0.11 0.1,0.112 -22.39,22.3895 -57.245,26.44 -84.17,9.7825 C 1144.13,636.219 1074.525,615 1000,615 c -74.5225,0 -144.128,21.219 -203.1095,57.949 -26.861,16.6145 -61.6215,12.5735 -83.9545,-9.76 -0.1265,0.123 -0.1285,0.121 -0.1305,0.119 z"
   style="fill:#208e7a;stroke-width:0.5"
   id="path1" />
    </g>
    <g
   transform="matrix(4,0,0,4,-256,-256)"
   id="g2">
        <path
   d="m 111.807,139.2425 c -0.8925,0 -1.627,0.7345 -1.627,1.627 v 4.3285 c 0,0.8925 0.7345,1.627 1.627,1.627 h 11.879 v 10.9835 c 0,0.893 0.7345,1.6275 1.6275,1.6275 h 5.2235 c 0.893,0 1.6275,-0.7345 1.6275,-1.6275 V 146.825 h 12.0285 c 0.8925,0 1.627,-0.7345 1.627,-1.627 v -4.3285 c 0,-0.8925 -0.7345,-1.627 -1.627,-1.627 z m 32.423,-5.3815 c 0.893,0 1.6275,-0.7345 1.6275,-1.6275 V 127.98 c 0,-0.8925 -0.7345,-1.627 -1.627,-1.627 0,0 -5e-4,0 -5e-4,0 h -10.194 l 13.7745,-24.3605 c 0.2845,-0.5035 0.2805,-1.122 -0.0105,-1.6215 -0.2915,-0.499 -0.828,-0.807 -1.406,-0.807 h -6.044 c -0.5865,0 -1.129,0.3165 -1.4175,0.827 l -10.961,19.4135 -10.8255,-19.406 c -0.287,-0.5145 -0.832,-0.8345 -1.421,-0.8345 h -6.119 c -5e-4,0 -10e-4,0 -0.002,0 -0.892,0 -1.6265,0.734 -1.6265,1.6265 0,0.28 0.0725,0.555 0.21,0.799 l 13.709,24.3635 h -10.052 c -0.8925,0 -1.627,0.7345 -1.6275,1.627 v 4.2535 c 0,0.893 0.7345,1.6275 1.6275,1.6275 z"
   style="fill:#ffffff;fill-rule:nonzero;stroke-width:0.5"
   id="path2" />
    </g>
</svg>
