<?xml version="1.0" encoding="UTF-8" standalone="no"?>
<svg
   width="894.93549"
   height="700.16461"
   viewBox="0 0 894.93549 700.16461"
   version="1.1"
   xml:space="preserve"
   style="clip-rule:evenodd;fill-rule:evenodd;stroke-linejoin:round;stroke-miterlimit:2"
   id="svg2"
   xmlns="http://www.w3.org/2000/svg"
   xmlns:svg="http://www.w3.org/2000/svg"><defs
   id="defs2" />
    <g
   transform="matrix(4.00296,0,0,4.00296,-65.421516,-54.214737)"
   id="g2">
        <path
   d="M 144.13851,57.270925 125.55436,100.99906 H 81.935492 c -0.02535,0 -0.04983,0 -0.07518,0 -11.953511,0 -21.788889,9.83538 -21.788889,21.78889 0,0.0254 0,0.0498 0,0.0752 0,0.0254 0,0.0498 0,0.0752 0,11.95351 9.835378,21.78889 21.788889,21.78889 0.02535,0 0.04983,0 0.07518,0 H 106.9702 l -18.292173,43.72814 c -4.37089,-0.0376 -4.556216,0 -6.742535,0 -36.184855,0 -65.592207,-29.40735 -65.592207,-65.59221 0,-36.185727 29.407352,-65.592205 65.592207,-65.592205 h 62.313168 z"
   style="fill:#3551f2;fill-rule:nonzero;stroke-width:0.874178"
   id="path1" />
        <path
   d="m 239.91171,79.134994 c 0,36.185726 -29.40735,65.592206 -65.5922,65.592206 h -67.34144 l 18.58415,-43.72814 h 48.75729 c 12.02519,0 21.86407,-9.838872 21.86407,-21.863192 0,-12.026068 -9.83888,-21.864943 -21.86407,-21.864943 h -30.17313 l 18.83679,-43.727263 c 4.37089,0.03846 7.18224,0 11.33634,0 36.18485,0 65.5922,29.406478 65.5922,65.591332 z"
   style="fill:#3551f2;fill-rule:nonzero;stroke-width:0.874178"
   id="path2" />
    </g>
</svg>
