<?xml version="1.0" encoding="UTF-8" standalone="no"?>
<svg
   width="512.00012"
   height="612.63544"
   viewBox="0 0 512.00012 612.63544"
   version="1.1"
   xml:space="preserve"
   style="clip-rule:evenodd;fill-rule:evenodd;stroke-linejoin:round;stroke-miterlimit:2"
   id="svg4"
   xmlns="http://www.w3.org/2000/svg"
   xmlns:svg="http://www.w3.org/2000/svg"><defs
   id="defs4" />
    <g
   transform="matrix(0.999959,0,0,0.999959,-184.87742,-205.61837)"
   id="g4">
        <g
   transform="matrix(3.9987,0,0,3.9987,-38.875,0.251891)"
   id="g1">
            <path
   d="m 182.56905,178.06973 c -0.5103,-0.60782 -1.13727,-1.10796 -1.84321,-1.4711 -0.70593,-0.36433 -1.47528,-0.58868 -2.26617,-0.65987 -1.59614,-0.13939 -3.18389,0.36434 -4.40792,1.39811 -0.15793,0.12982 -0.31587,0.25964 -0.46783,0.38887 -0.11307,0.0963 -0.22554,0.18605 -0.33861,0.27639 -1.75287,1.42743 -3.57993,2.76153 -5.4734,3.99691 l -0.24767,0.16333 c -0.41758,0.27041 -0.83456,0.53543 -1.25753,0.78909 -0.1011,0.0622 -0.19144,0.11845 -0.28716,0.17469 -0.0957,0.0562 -0.18605,0.11307 -0.27639,0.1693 l -0.16332,0.10111 -0.29314,0.17529 c -0.0957,0.0562 -0.18606,0.11247 -0.28178,0.16332 -1.11813,0.6503 -2.25541,1.26709 -3.41063,1.84859 l -0.28716,0.14658 -0.40023,0.2034 -0.52467,0.25366 -0.0395,0.0221 c -0.17469,0.085 -0.34938,0.16393 -0.52407,0.24828 l -0.40023,0.18605 -0.25904,0.11846 c -0.13521,0.0616 -0.27639,0.12384 -0.4116,0.18605 -0.18067,0.079 -0.36673,0.16333 -0.55278,0.2423 -0.37152,0.16332 -0.74961,0.32126 -1.12711,0.47321 -0.19144,0.079 -0.38348,0.15794 -0.57492,0.23153 -0.36672,0.14657 -0.73824,0.29314 -1.11035,0.43373 h -0.0114 c -0.36673,0.14119 -0.73884,0.27639 -1.11035,0.40621 l -0.0736,0.0281 c -0.17469,0.0616 -0.34937,0.12384 -0.53005,0.18605 -0.18605,0.0616 -0.37211,0.12384 -0.55218,0.19144 l -0.55817,0.18008 c -0.052,0.0179 -0.10469,0.0353 -0.15794,0.0508 l -0.36074,0.11307 -0.29853,0.0957 c -0.30451,0.0957 -0.60304,0.18606 -0.90755,0.27639 l -0.20281,0.0616 c -0.12443,0.0341 -0.24827,0.0736 -0.37211,0.10709 l -0.42835,0.11845 -0.34399,0.0957 -0.22554,0.0622 -0.28776,0.0736 c -0.32126,0.0844 -0.6479,0.16871 -0.97515,0.24768 -0.079,0.0227 -0.16332,0.0395 -0.24229,0.0622 -0.11247,0.0281 -0.23092,0.0562 -0.34938,0.0844 l -0.28776,0.0676 c -0.0221,0.006 -0.0503,0.0114 -0.073,0.0168 -0.14658,0.0341 -0.29913,0.0676 -0.4451,0.1017 -0.27101,0.0622 -0.54142,0.11845 -0.81781,0.17469 -0.25904,0.0562 -0.51869,0.10708 -0.77234,0.15794 l -0.63116,0.11845 -0.38886,0.0676 c -0.12982,0.0227 -0.23093,0.0449 -0.34938,0.0622 l -0.50193,0.0844 -0.49057,0.079 -0.0616,0.0114 c -0.2034,0.0281 -0.40023,0.0616 -0.59765,0.0897 -0.19742,0.0281 -0.38886,0.0568 -0.57492,0.079 l -0.12384,0.0173 -0.47381,0.0616 h -0.0341 c -0.13521,0.0168 -0.26443,0.0341 -0.39425,0.0508 l -0.34938,0.0395 c -0.34399,0.0395 -0.69337,0.079 -1.04275,0.11247 h -0.0849 c -0.11247,0.0227 -0.23093,0.0341 -0.344,0.0455 l -0.29852,0.0281 c -0.11846,0.0114 -0.23691,0.0227 -0.35537,0.0281 l -0.35476,0.0281 c -0.46783,0.0341 -0.94165,0.0676 -1.40948,0.0957 l -0.62577,0.0341 -0.35476,0.0114 c -0.0903,6e-4 -0.18067,0.005 -0.27101,0.0114 l -0.3434,0.0108 h -0.34997 c -0.11786,0.006 -0.23631,0.0173 -0.35477,0.0173 H 133.674 c -0.19743,0 -0.39485,0.005 -0.58629,0.005 h -1.27966 c -6.6699,-0.079 -13.28715,-1.18932 -19.61725,-3.29218 -0.22554,-0.079 -0.45646,-0.15195 -0.682,-0.23092 -0.11248,-0.0395 -0.22555,-0.079 -0.33263,-0.11846 -0.10709,-0.0395 -0.22554,-0.079 -0.33263,-0.11845 -0.18127,-0.0628 -0.36134,-0.12862 -0.54082,-0.19742 l -0.22554,-0.0844 c -0.20281,-0.073 -0.40621,-0.15195 -0.60304,-0.22554 l -0.1017,-0.0395 c -0.079,-0.0281 -0.15794,-0.0616 -0.23092,-0.0897 l -0.079,-0.0341 -0.0622,-0.0227 -0.13521,-0.0503 -0.12383,-0.0509 h -0.0281 l -0.0568,-0.0281 -0.25365,-0.10171 -0.32665,-0.1352 c -0.18067,-0.0736 -0.36074,-0.14657 -0.54142,-0.22554 h -0.0281 l -0.36075,-0.15794 -0.42236,-0.18606 c -11.313591,-4.98047 -20.971157,-13.09216 -27.830704,-23.3761 -0.05205,-0.073 -0.100506,-0.14836 -0.145973,-0.22554 -6.925952,-10.53759 -10.63152,-22.86934 -10.659637,-35.47928 v -0.95839 c 0,-0.2423 0.01137,-0.48459 0.01675,-0.72688 v -0.0568 c 0.196226,-7.19995 1.596134,-14.31675 4.142888,-21.05425 0.09034,-0.23631 0.180672,-0.46783 0.271008,-0.70474 0.07897,-0.20819 0.163323,-0.41698 0.247676,-0.62517 l 0.174689,-0.42297 c 0.09572,-0.23092 0.191441,-0.46245 0.293143,-0.69397 0.107685,-0.25306 0.220157,-0.50672 0.332628,-0.76038 0.006,-0.0168 0.01735,-0.0341 0.02273,-0.0508 0.0078,-0.0233 0.01735,-0.0455 0.02812,-0.0676 l 0.236908,-0.52407 c 0,0 0,-0.012 0.006,-0.0168 0.07299,-0.16392 0.145973,-0.32186 0.219558,-0.4792 0.02273,-0.0455 0.03948,-0.0957 0.06162,-0.14118 l 0.0341,-0.079 c 0.0335,-0.079 0.07299,-0.15794 0.112472,-0.23093 0.02273,-0.0508 0.04547,-0.1017 0.0682,-0.14657 l 0.0676,-0.14657 0.01675,-0.0341 0.04487,-0.08974 c 0.08495,-0.180671 0.17469,-0.360745 0.265026,-0.541417 0.01675,-0.02812 0.02812,-0.06222 0.04487,-0.08974 0.118454,-0.237506 0.236908,-0.473815 0.355362,-0.705338 0.08435,-0.163323 0.169305,-0.332628 0.253658,-0.495951 l 0.05624,-0.101702 c 0,0 0,-0.01077 0.006,-0.01675 0,0 0,-0.01137 0.006,-0.01137 0.05025,-0.101703 0.101104,-0.19144 0.151955,-0.287161 0.01675,-0.0341 0.03948,-0.0676 0.05624,-0.101702 l 0.112471,-0.208192 c 0.0341,-0.0676 0.07358,-0.135803 0.107685,-0.203405 l 0.02214,-0.03948 0.04487,-0.07837 c 0.06222,-0.124437 0.12982,-0.24289 0.19144,-0.360746 2.01132,-3.639161 4.373215,-7.07372 7.052183,-10.254023 0.04547,-0.05624 0.09572,-0.112471 0.135205,-0.169305 0.970363,-1.247353 1.413667,-2.826736 1.23479,-4.397145 -0.373309,-3.249102 -3.317302,-5.63732 -6.573582,-5.332212 -1.574597,0.148965 -3.029544,0.908145 -4.052553,2.11422 -2.254808,2.675378 -4.322364,5.502114 -6.189505,8.461064 l -0.04547,0.0676 c -0.163323,0.259042 -0.321261,0.518683 -0.484584,0.771743 -0.08495,0.135803 -0.163322,0.271008 -0.248274,0.412195 -2.475563,4.094431 -4.561066,8.412607 -6.22899,12.897097 -0.833364,2.23926 -1.55964,4.5174 -2.175839,6.82605 -0.01077,0.0401 -0.02214,0.0796 -0.0335,0.12443 -0.05624,0.20341 -0.107685,0.4116 -0.163323,0.62039 -0.01735,0.0562 -0.02872,0.11247 -0.04547,0.17469 -0.02812,0.10709 -0.05623,0.21956 -0.08435,0.33263 l -0.08495,0.33262 c -0.05624,0.21956 -0.106488,0.43972 -0.15734,0.66466 0,0.0174 -0.01196,0.0395 -0.01196,0.0568 -0.0054,0.0335 -0.01615,0.0616 -0.02213,0.0957 v 0.0227 c -0.0335,0.14059 -0.0676,0.28118 -0.101703,0.41698 -0.01077,0.0395 -0.01675,0.079 -0.02812,0.11247 -2.182419,9.63364 -2.479152,19.5999 -0.873446,29.34661 0.01137,0.073 0.02273,0.15195 0.03948,0.23092 1.65536,9.919 5.255037,19.41385 10.592034,27.93713 0.08974,0.14119 0.180074,0.28776 0.27041,0.42835 l 0.253658,0.39484 c 0.08435,0.13521 0.169305,0.26503 0.253659,0.39425 0.123838,0.19204 0.248274,0.3781 0.372112,0.56954 0.07299,0.11247 0.146571,0.21955 0.219558,0.32664 0.02812,0.0455 0.06222,0.0903 0.09034,0.1358 0.123838,0.18606 0.253658,0.37212 0.382881,0.55757 0.02872,0.0395 0.05683,0.079 0.07957,0.11846 0.01137,0.0227 0.02812,0.0395 0.03949,0.0622 l 0.04487,0.0622 c 0.282375,0.411 0.570134,0.81901 0.862678,1.22283 0.157939,0.22016 0.321261,0.4457 0.484584,0.66525 0.135204,0.18606 0.270409,0.36673 0.400828,0.54681 0.06162,0.0844 0.12324,0.1693 0.19144,0.25365 l 0.321261,0.42297 c 0.0676,0.0844 0.129222,0.17469 0.202807,0.25904 0.101703,0.13521 0.208192,0.26503 0.309894,0.40023 0.05624,0.0736 0.112471,0.14657 0.169305,0.21417 0.112471,0.14658 0.230925,0.28776 0.343995,0.43433 0.07299,0.0903 0.140589,0.18008 0.214174,0.26503 0.101702,0.12384 0.202807,0.25366 0.309894,0.3775 0.07299,0.0903 0.146571,0.17469 0.219558,0.25904 0.101702,0.12982 0.214174,0.25366 0.321261,0.38348 0.07358,0.0903 0.152554,0.18067 0.231523,0.27041 0.101702,0.12443 0.208191,0.24827 0.315278,0.37211 0.169305,0.2034 0.343994,0.40023 0.518684,0.59227 0.174689,0.19742 0.366728,0.41159 0.552784,0.61979 0.185457,0.2028 0.38288,0.42834 0.580303,0.63713 0.197423,0.21418 0.388863,0.42297 0.586286,0.63116 0.197423,0.20879 0.394846,0.41758 0.597653,0.62577 4.159041,4.32655 8.817622,8.14339 13.878228,11.36976 l 0.118454,0.0736 0.405614,0.25366 c 7.606762,4.79319 15.99962,8.20741 24.79212,10.08472 l 0.40561,0.0844 0.37212,0.0736 c 0.26502,0.0503 0.52406,0.10709 0.78909,0.15734 0.12982,0.0281 0.26502,0.0508 0.39484,0.0736 l 0.20281,0.0335 0.20281,0.0341 0.41698,0.073 0.1017,0.0173 0.14657,0.0281 c 0.15196,0.0281 0.30451,0.0508 0.46185,0.079 l 0.55817,0.0897 0.56415,0.0849 0.56356,0.0844 c 0.18605,0.0281 0.37749,0.0508 0.56355,0.079 l 0.56355,0.0736 0.35536,0.0449 0.36613,0.0449 c 0.10709,0.0114 0.22016,0.0281 0.32724,0.0395 0.23093,0.0281 0.45647,0.0508 0.68739,0.0736 l 0.49655,0.0509 0.29853,0.0281 0.41698,0.0395 c 0.99968,0.0915 2.00175,0.16093 3.00442,0.20819 0.46963,0.0245 0.93925,0.0437 1.40948,0.0568 h 0.18605 l 0.8567,0.0168 h 2.19857 c 0.29314,0 0.5809,-0.0114 0.87405,-0.0168 h 0.0616 c 0.29912,-0.006 0.59227,-0.0173 0.89079,-0.0287 l 0.45647,-0.0168 0.45646,-0.0227 c 0.2764,-0.0108 0.55817,-0.0281 0.83456,-0.0449 0.4116,-0.0227 0.81721,-0.0509 1.22881,-0.079 0.90874,-0.0712 1.81629,-0.15554 2.72264,-0.25365 0.16332,-0.0168 0.32725,-0.0395 0.49595,-0.0562 0.16931,-0.0168 0.33263,-0.0395 0.49595,-0.0622 l 0.19204,-0.0221 c 0.15794,-0.0173 0.31528,-0.0395 0.46783,-0.0622 0.19144,-0.0227 0.38887,-0.0508 0.58031,-0.079 l 0.11307,-0.0168 c 0.21955,-0.0341 0.43971,-0.0622 0.66525,-0.1017 l 0.079,-0.0114 0.42835,-0.0676 0.40561,-0.0676 0.24229,-0.0395 h 0.0395 c 0.31049,-0.0562 0.6144,-0.10709 0.92489,-0.16332 l 0.0562,-0.0114 0.54082,-0.1017 c 9.00009,-1.68049 17.62448,-4.97027 25.45678,-9.71201 0.14119,-0.0849 0.27639,-0.16931 0.41758,-0.25426 0.60662,-0.37211 1.20846,-0.75379 1.80372,-1.14385 2.60299,-1.70322 5.10069,-3.56079 7.48054,-5.56374 1.22222,-1.03258 1.98499,-2.50966 2.119,-4.104 0.13521,-1.59314 -0.36553,-3.17671 -1.39213,-4.40253 h -0.0227 z"
   style="fill:#1066df;fill-rule:nonzero;stroke-width:0.598251"
   id="path1" />
        </g>
        <g
   transform="matrix(3.9987,0,0,3.9987,-38.875,0.251891)"
   id="g2">
            <path
   d="m 97.162137,73.024025 c 1.066083,0.0012 2.113022,-0.282972 3.032533,-0.823193 1.1965,-0.69457 2.41454,-1.350253 3.65292,-1.96705 0.79089,-0.392452 1.58956,-0.768154 2.3954,-1.127703 0.1358,-0.06222 0.27101,-0.118454 0.40621,-0.180672 0.0897,-0.03889 0.18008,-0.07837 0.27639,-0.117855 0.18008,-0.07897 0.35477,-0.152554 0.53544,-0.231523 l 0.40023,-0.168707 c 0.2716,-0.113668 0.54381,-0.224344 0.81721,-0.332628 l 0.30989,-0.124436 0.5133,-0.202807 c 0.12384,-0.05085 0.24768,-0.09572 0.37152,-0.140589 0.58628,-0.220156 1.17257,-0.428348 1.77022,-0.631753 l 0.34938,-0.117856 c 0.69696,-0.233916 1.39811,-0.455867 2.10285,-0.665255 l 0.34938,-0.101702 c 0.91174,-0.263829 1.82885,-0.508514 2.75076,-0.732858 l 0.30451,-0.07299 0.35536,-0.08495 0.24229,-0.05624 0.25904,-0.06222 c 0.16931,-0.03948 0.344,-0.07897 0.5133,-0.112471 0.25905,-0.05624 0.51869,-0.112471 0.78311,-0.163323 l 0.43434,-0.08495 c 0.58628,-0.112471 1.17257,-0.219558 1.75885,-0.321261 0.28178,-0.04487 0.56894,-0.09572 0.85131,-0.135205 0.28717,-0.04487 0.57492,-0.08435 0.87345,-0.12982 l 0.0622,-0.01077 c 0.41698,-0.05743 0.83396,-0.112471 1.25154,-0.163921 l 0.87883,-0.101702 c 0.29314,-0.0335 0.58629,-0.06162 0.87943,-0.08375 0.29314,-0.02872 0.58629,-0.05085 0.88541,-0.07359 0.18606,-0.01137 0.37211,-0.02812 0.55219,-0.03948 l 1.11035,-0.0676 c 0.18606,-0.01137 0.37211,-0.01675 0.55279,-0.02812 0.11247,0 0.21955,-0.01196 0.33262,-0.01196 l 0.30391,-0.01077 0.34998,-0.01137 0.34938,-0.01137 c 0.23691,-0.006 0.47322,-0.01077 0.70474,-0.01077 h 0.83396 c 2.66102,0 5.32144,0.163323 7.95973,0.49595 0.55817,0.0676 1.11574,0.146572 1.67391,0.230925 0.11845,0.01675 0.24229,0.03948 0.36673,0.05624 l 0.6144,0.101703 0.11845,0.02214 0.10111,0.01735 c 0.15255,0.02812 0.31049,0.05085 0.46245,0.07897 l 0.15195,0.02812 0.20341,0.03948 0.2028,0.03948 0.38289,0.07299 c 0.1358,0.02273 0.271,0.05085 0.40023,0.07897 l 0.10768,0.02273 c 0.30391,0.06222 0.6144,0.12982 0.91832,0.197422 l 0.28177,0.06162 c 0.21477,0.04547 0.42297,0.09572 0.63714,0.146572 0.24827,0.05683 0.49595,0.118454 0.74422,0.180672 0.23093,0.05624 0.46245,0.118453 0.69338,0.174689 l 0.24827,0.0676 0.26443,0.0676 h 0.0114 c 0.16931,0.04487 0.33861,0.08974 0.50194,0.135204 0.0227,0 0.0449,0.01137 0.0676,0.01675 0.079,0.02273 0.15794,0.04547 0.23092,0.0676 0.10709,0.02872 0.21418,0.06222 0.32127,0.09034 l 0.26502,0.07358 c 0.12384,0.0335 0.24827,0.07299 0.37211,0.107087 l 0.29315,0.08974 0.26502,0.07957 0.12384,0.03889 h 0.0114 l 0.15195,0.04547 0.32186,0.101703 0.20281,0.06162 0.26502,0.08435 c 0.15734,0.05085 0.3099,0.101703 0.46784,0.152554 0.2363,0.07897 0.47321,0.163322 0.71012,0.242292 1.04275,0.366129 2.07653,0.756787 3.10014,1.172572 l 0.34937,0.146571 c 0.25426,0.107087 0.50792,0.20879 0.76158,0.321261 0.86686,0.370317 1.70322,0.807639 2.50248,1.307777 7.42968,4.661572 10.58067,14.194104 7.01809,22.503213 -1.89826,4.416888 -5.4746,7.904098 -9.93815,9.689878 -4.46355,1.78578 -9.45955,1.72476 -13.87823,-0.16931 -3.42439,-1.46631 -7.10423,-2.243442 -10.82894,-2.288311 h -0.0108 c -1.08044,-0.01137 -2.16088,0.03948 -3.23594,0.151956 -0.48458,0.05085 -0.96378,0.118455 -1.44896,0.191445 -0.21418,0.0341 -0.43374,0.0736 -0.64791,0.11307 l -0.19144,0.0335 c -0.079,0.0174 -0.16392,0.0281 -0.24289,0.0455 -0.11845,0.0227 -0.24229,0.0449 -0.36075,0.073 h -0.0221 c -0.12982,0.0341 -0.25366,0.0622 -0.38348,0.0903 l -0.30451,0.0736 -0.18007,0.0449 -0.29315,0.073 c -0.0903,0.0227 -0.18605,0.0508 -0.27639,0.0736 l -0.19144,0.0508 c -0.38946,0.10708 -0.77832,0.22554 -1.1612,0.34938 -0.15256,0.0508 -0.3105,0.1017 -0.46245,0.15195 l -0.23093,0.079 c -0.079,0.0281 -0.15255,0.0508 -0.23152,0.0849 l -0.22554,0.0838 c -0.22554,0.085 -0.45647,0.1693 -0.67602,0.25964 -1.12831,0.45108 -2.2261,0.97515 -3.2868,1.56742 -0.0676,0.0395 -0.14058,0.079 -0.20819,0.11845 -0.14118,0.079 -0.28177,0.16332 -0.42296,0.24229 -0.14119,0.0844 -0.27639,0.16332 -0.41698,0.25366 -0.13042,0.0814 -0.26024,0.16392 -0.38886,0.24768 l -0.33861,0.22015 c -0.079,0.0508 -0.15196,0.1017 -0.23093,0.15196 -0.0449,0.0281 -0.0879,0.0586 -0.12982,0.0903 -0.0449,0.0341 -0.10709,0.073 -0.16332,0.11247 -0.0562,0.0401 -0.12982,0.0903 -0.19144,0.13581 -0.12982,0.0897 -0.25964,0.18007 -0.38348,0.27579 -0.12384,0.0903 -0.25964,0.19144 -0.38886,0.28716 -0.0622,0.0455 -0.12444,0.0963 -0.19204,0.14119 -1.34487,1.03557 -2.59222,2.19199 -3.72591,3.4555 l -0.0341,0.0341 c -0.0957,0.10708 -0.19144,0.21417 -0.28716,0.32664 -0.0903,0.10171 -0.18067,0.20939 -0.27041,0.31588 l -0.1017,0.11845 c -0.11247,0.13521 -0.22554,0.27041 -0.33263,0.40562 -0.0395,0.0455 -0.073,0.0903 -0.10709,0.1358 -0.0957,0.11845 -0.18605,0.23631 -0.27639,0.35476 -0.0676,0.0849 -0.12922,0.16931 -0.19682,0.25366 -0.18068,0.23691 -0.35537,0.47382 -0.52467,0.71611 v 0.005 c -1.27368,1.80792 -2.3272,3.76061 -3.13962,5.8174 0,0.0114 -0.006,0.0173 -0.0114,0.0281 l -0.1017,0.25366 -0.0957,0.24828 c -0.0221,0.0622 -0.0508,0.12982 -0.073,0.19742 -0.0227,0.0616 -0.0562,0.15794 -0.085,0.24229 -0.0335,0.0957 -0.067,0.19742 -0.1017,0.29314 -0.0335,0.10171 -0.067,0.20879 -0.10111,0.3099 -1.49622,4.49226 -1.82406,9.29203 -0.95241,13.94583 0.0281,0.1693 0.0622,0.33263 0.1017,0.50193 0.69936,3.49498 2.06337,6.82305 4.01905,9.80294 l 0.15794,0.24229 c 1.99576,3.00921 4.55987,5.59963 7.54753,7.62711 0.0957,0.0616 0.19204,0.12922 0.28776,0.19144 3.72412,2.49171 7.99323,4.05195 12.44662,4.5491 l 0.32126,0.0335 0.28716,0.0287 0.1358,0.0108 c 1.78638,0.15794 3.58472,0.14658 5.3717,-0.0449 0.0676,-0.005 0.14118,-0.0168 0.20879,-0.0281 h 0.0168 c 3.72231,-0.41698 7.32498,-1.57041 10.59742,-3.39328 0.69157,-0.38767 1.30059,-0.90635 1.79295,-1.52794 0.49177,-0.62397 0.8555,-1.33828 1.07087,-2.10285 0.21418,-0.76636 0.28178,-1.56143 0.18606,-2.35053 -0.0933,-0.78849 -0.34041,-1.55066 -0.72747,-2.24344 -0.38767,-0.69277 -0.90875,-1.30179 -1.53272,-1.79236 -0.62338,-0.49296 -1.33769,-0.85669 -2.10286,-1.07087 -0.76336,-0.21716 -1.56263,-0.28058 -2.35052,-0.18605 -0.7891,0.0957 -1.55007,0.33801 -2.24345,0.72687 -2.94399,1.63622 -6.3271,2.31045 -9.67312,1.92816 l -0.17528,-0.0227 c -0.10111,-0.0114 -0.20281,-0.0281 -0.30392,-0.0395 -0.1017,-0.0168 -0.21417,-0.0281 -0.32724,-0.0509 -0.13401,-0.0215 -0.26742,-0.0461 -0.40023,-0.073 -0.20759,-0.0395 -0.41459,-0.0844 -0.61979,-0.13521 -0.0622,-0.0114 -0.11845,-0.0287 -0.17469,-0.0395 l -0.2034,-0.0509 c -0.0676,-0.0173 -0.12922,-0.0341 -0.20281,-0.0508 l -0.20281,-0.0562 c -0.0562,-0.0173 -0.11247,-0.0341 -0.1693,-0.0508 l -0.21956,-0.0676 c -0.12982,-0.0395 -0.25964,-0.0844 -0.38886,-0.12384 -0.0622,-0.0227 -0.12982,-0.0455 -0.19204,-0.0682 -0.12922,-0.0449 -0.25904,-0.0957 -0.38288,-0.14059 -0.19144,-0.0736 -0.38109,-0.15076 -0.56954,-0.23092 l -0.14657,-0.0622 -0.15255,-0.0676 -0.15196,-0.0736 -0.23691,-0.11247 c -2.43248,-1.18992 -4.52876,-2.96912 -6.09916,-5.17487 l -0.13521,-0.20281 c -0.0449,-0.0676 -0.0903,-0.12982 -0.12982,-0.19204 -0.0449,-0.0676 -0.079,-0.11785 -0.11247,-0.17469 -1.63382,-2.53479 -2.5318,-5.474 -2.59282,-8.48918 v -0.53005 c 0,-0.079 0,-0.16871 0.005,-0.25904 0.005,-0.0844 0.005,-0.16931 0.0114,-0.25905 0,-0.0622 0,-0.12443 0.0114,-0.18605 l 0.0108,-0.18606 c 0.0114,-0.15255 0.0227,-0.30451 0.0395,-0.45108 0.006,-0.0676 0.0114,-0.12982 0.0227,-0.19742 0.0114,-0.11846 0.0281,-0.23691 0.0455,-0.36075 0.0108,-0.0903 0.0221,-0.18067 0.0389,-0.27041 l 0.0341,-0.2028 c 0.0227,-0.12444 0.0395,-0.24828 0.0676,-0.37212 0.0227,-0.12443 0.0449,-0.2369 0.0676,-0.35536 0.0281,-0.11845 0.0562,-0.25904 0.0844,-0.38886 0.0227,-0.0844 0.0395,-0.16931 0.0622,-0.25964 0.0168,-0.0676 0.0341,-0.12922 0.0508,-0.20281 l 0.11846,-0.42236 c 0.18007,-0.58629 0.38886,-1.16719 0.63115,-1.73074 0.35357,-0.82499 0.77593,-1.61887 1.26291,-2.37327 0.0616,-0.1017 0.14059,-0.22015 0.21956,-0.32724 0.0455,-0.073 0.1017,-0.14059 0.14657,-0.20819 0.079,-0.11307 0.15794,-0.22016 0.23691,-0.32724 l 0.12384,-0.16871 c 0.0455,-0.0622 0.0903,-0.11846 0.1352,-0.17469 0.0568,-0.0736 0.11307,-0.14657 0.17529,-0.22016 0.0562,-0.073 0.11785,-0.14657 0.17469,-0.21417 l 0.18007,-0.20879 c 0.1017,-0.12384 0.21418,-0.24229 0.32724,-0.36075 l 0.0221,-0.0221 c 0.12444,-0.1358 0.24827,-0.26503 0.37809,-0.39485 0.0957,-0.1017 0.19683,-0.19742 0.30392,-0.29314 l 0.079,-0.073 c 0.61739,-0.5809 1.27906,-1.11274 1.97901,-1.59015 0.1352,-0.0897 0.27041,-0.18007 0.40023,-0.26442 0.0676,-0.0455 0.1352,-0.0903 0.21417,-0.13581 0.079,-0.0503 0.15794,-0.1011 0.23631,-0.14657 0.079,-0.0449 0.15794,-0.0957 0.24289,-0.14059 0.84653,-0.4798 1.73254,-0.88541 2.64906,-1.21205 l 0.39484,-0.13521 c 0.0903,-0.0281 0.17469,-0.0562 0.26503,-0.0844 0.0897,-0.0287 0.17469,-0.0508 0.26443,-0.079 0.0903,-0.0227 0.18067,-0.0508 0.271,-0.0736 0.0903,-0.0221 0.17469,-0.0449 0.25905,-0.0676 0.19204,-0.0449 0.38348,-0.0903 0.57492,-0.12982 l 0.24827,-0.0502 0.18606,-0.0341 0.19144,-0.0335 c 0.12383,-0.0227 0.24229,-0.0395 0.36672,-0.0568 h 0.0108 c 0.76517,-0.11247 1.53811,-0.16871 2.31165,-0.16871 h 0.26502 c 2.09687,0.0395 4.15964,0.48459 6.0878,1.30778 12.53695,5.37768 27.18752,1.66254 35.63184,-9.03658 4.17639,-5.295125 6.46888,-11.835206 6.51076,-18.57929 v -0.05624 c 0.0227,-5.933454 -1.70322,-11.744266 -4.9607,-16.703169 -3.25687,-4.959501 -7.90469,-8.850526 -13.36014,-11.183705 -0.19682,-0.08376 -0.38886,-0.168707 -0.58628,-0.247676 -0.20042,-0.07957 -0.39964,-0.162126 -0.59706,-0.248274 -0.29912,-0.123838 -0.59227,-0.242292 -0.89678,-0.360746 -0.29852,-0.118453 -0.59705,-0.236907 -0.89618,-0.349378 l -0.48996,-0.185458 c -0.16273,-0.06282 -0.32605,-0.12324 -0.49057,-0.180672 -0.14657,-0.05085 -0.28776,-0.107685 -0.43433,-0.157938 l -0.38886,-0.141187 -0.60304,-0.208192 c -0.41698,-0.141187 -0.83456,-0.282374 -1.25693,-0.417579 l -0.28776,-0.09572 -0.34399,-0.112471 -0.51868,-0.163921 -0.34938,-0.107087 -0.3099,-0.08974 -0.43971,-0.12982 -0.88481,-0.253659 c -0.20221,-0.05683 -0.40562,-0.111274 -0.60902,-0.163322 l -0.57492,-0.152554 h -0.0227 l -0.12383,-0.0335 c -0.33263,-0.08495 -0.65928,-0.169305 -0.9919,-0.248274 l -0.33861,-0.07897 -0.39425,-0.09572 c -0.20281,-0.04487 -0.39485,-0.08974 -0.59227,-0.135204 l -0.0449,-0.01137 -0.59167,-0.129821 c -0.4116,-0.08974 -0.82319,-0.174689 -1.23479,-0.259042 l -0.36075,-0.0676 -0.52406,-0.101702 c -0.11846,-0.02273 -0.23691,-0.04487 -0.34938,-0.0676 l -0.50193,-0.08974 -0.18068,-0.0341 c -0.39424,-0.0676 -0.78909,-0.12982 -1.18334,-0.197423 -0.41458,-0.0676 -0.82977,-0.129222 -1.24615,-0.185457 l -0.49595,-0.0682 -0.28178,-0.0341 c -0.0335,0 -0.0676,-0.01077 -0.1017,-0.01077 l -0.16871,-0.02273 -0.1693,-0.02273 -0.32665,-0.03948 -0.22554,-0.02812 -0.43433,-0.05085 -0.13521,-0.01675 c -0.17468,-0.01675 -0.34937,-0.03948 -0.53005,-0.05624 l -0.48996,-0.04487 -0.16931,-0.01735 -0.48458,-0.04487 c -0.19204,-0.01675 -0.38348,-0.0341 -0.57552,-0.04547 -0.86866,-0.06641 -1.73912,-0.119052 -2.60957,-0.15734 h -0.19742 l -0.11247,-0.006 -0.42297,-0.01675 -0.59765,-0.01675 c -0.44151,-0.01017 -0.88302,-0.01795 -1.32453,-0.02273 h -1.29641 c -0.18605,0 -0.36673,0 -0.55278,0.006 -0.18606,0.0054 -0.35477,0.0054 -0.52945,0.01077 -0.17529,0 -0.34998,0.006 -0.53006,0.01197 -0.25365,0.0054 -0.51329,0.01615 -0.76695,0.02752 l -0.4451,0.01735 -0.20281,0.01077 -0.33263,0.01735 -0.43433,0.02213 -0.39424,0.02273 h -0.0562 c -3.47823,0.219558 -6.93373,0.676024 -10.34436,1.369995 l -0.12384,0.02214 c -0.27639,0.05683 -0.55218,0.118454 -0.83456,0.17469 l -0.0449,0.01196 c -0.12383,0.02752 -0.24827,0.05025 -0.37211,0.07837 -1.22342,0.271008 -2.43488,0.569535 -3.64155,0.89618 -6.06447,1.656558 -11.90041,4.059732 -17.373213,7.153887 l -0.592268,0.338011 -0.236309,0.135205 -0.101703,0.06222 -0.101703,0.06162 c -1.107362,0.70115 -1.956281,1.7445 -2.417532,2.970915 -0.461252,1.225816 -0.514496,2.56889 -0.152554,3.82761 0.367924,1.256327 1.131293,2.361895 2.175839,3.150988 1.048734,0.7867 2.325402,1.210262 3.63617,1.206673 h 0.006 z"
   style="fill:#1066df;fill-rule:nonzero;stroke-width:0.598251"
   id="path2" />
        </g>
        <g
   transform="matrix(3.9987,0,0,3.9987,-38.875,0.251891)"
   id="g3">
            <path
   d="m 87.911381,100.55015 -0.05085,0.0844 c -2.783662,4.53534 -4.855405,9.47091 -6.144038,14.63382 -0.006,0.0281 -0.01675,0.0562 -0.02273,0.0844 l -0.08435,0.35536 c -0.01137,0.0562 -0.02812,0.11845 -0.03948,0.17469 -0.02812,0.11247 -0.05085,0.22554 -0.07897,0.33801 -1.497422,6.48564 -1.742107,13.19802 -0.72149,19.77519 0.01137,0.0562 0.01675,0.11247 0.02273,0.16871 0.02931,0.16691 0.05743,0.33442 0.08435,0.50193 l 0.01137,0.0562 c 0,0 0,0.0281 0.006,0.0449 1.209664,7.13415 3.885042,13.94105 7.857429,19.98937 l 0.101703,0.15734 c 0.382881,0.5809 0.777726,1.15043 1.18334,1.71399 0.152555,0.21417 0.310493,0.42296 0.462449,0.63115 8.27441,11.13944 20.647446,18.54339 34.374906,20.56967 l 0.073,0.0114 0.34399,0.0509 h 0.0509 l 0.28177,0.0449 h 0.0616 l 0.30451,0.0449 c 4.13451,0.52228 8.31689,0.5492 12.45798,0.079 l 0.26503,-0.0335 c 0.0844,-0.0114 0.1693,-0.0227 0.25366,-0.0281 l 0.35536,-0.0455 0.0676,-0.0114 h 0.0449 l 0.079,-0.0168 0.33262,-0.0449 0.11846,-0.0174 c 0.20281,-0.0281 0.39425,-0.0562 0.58628,-0.0844 h 0.005 c 8.69079,-1.34128 16.90418,-4.85242 23.87859,-10.20856 0.63714,-0.4792 1.17138,-1.08104 1.5728,-1.77023 0.40203,-0.68978 0.66466,-1.45195 0.77234,-2.24344 0.21956,-1.59673 -0.21118,-3.21619 -1.1953,-4.49286 -0.48758,-0.63235 -1.0948,-1.163 -1.78698,-1.56144 -0.69217,-0.39903 -1.45674,-0.65568 -2.24942,-0.75499 -0.79268,-0.1023 -1.59733,-0.0449 -2.36728,0.16871 -0.76875,0.21477 -1.48845,0.57671 -2.1196,1.06548 -4.2763,3.28201 -9.1682,5.67262 -14.38555,7.02945 -0.0676,0.0168 -0.1352,0.0281 -0.20281,0.0449 -1.31974,0.33682 -2.65563,0.60603 -4.00229,0.80644 h -0.0568 c -0.15734,0.0335 -0.31528,0.0508 -0.47322,0.073 l -0.17468,0.0227 c -1.72895,0.22495 -3.47106,0.33802 -5.21436,0.33802 h -0.0114 c -3.72232,0 -7.42728,-0.5139 -11.00901,-1.52734 l -0.0335,-0.0114 c -0.27878,-0.0802 -0.55697,-0.16272 -0.83456,-0.24767 -0.4104,-0.12504 -0.8184,-0.25845 -1.22342,-0.40023 l -0.62577,-0.22016 -0.27041,-0.1017 -0.079,-0.0281 c -0.15794,-0.0562 -0.31528,-0.11845 -0.47321,-0.18007 l -0.13521,-0.0508 -0.23691,-0.0957 -0.0622,-0.0227 h -0.0114 c -0.15734,-0.0622 -0.31528,-0.12384 -0.47322,-0.19144 l -0.11845,-0.0508 -0.12982,-0.0562 c -0.23631,-0.1017 -0.46783,-0.2028 -0.70474,-0.30451 l -0.19144,-0.0844 c -6.79075,-3.08877 -12.59857,-7.99383 -16.780948,-14.17197 l -0.101702,-0.14657 -0.17469,-0.26443 -0.152554,-0.2369 c -4.157844,-6.43838 -6.406072,-13.92549 -6.482648,-21.58969 v -0.51868 c 0,-0.20879 0,-0.41758 0.006,-0.62577 v -0.0508 c 0.01675,-0.7891 0.05623,-1.57281 0.118453,-2.35053 0.0054,-0.0844 0.01137,-0.16931 0.02214,-0.24828 0,-0.0395 0.006,-0.079 0.01197,-0.11845 0.378094,-4.23023 1.423837,-8.37432 3.099538,-12.27731 0.748412,-1.74809 1.618868,-3.44114 2.604785,-5.06718 0.03948,-0.0682 0.08435,-0.14119 0.123838,-0.20939 0.719098,-1.15822 1.496226,-2.27934 2.328388,-3.35918 2.14354,-2.79383 4.64303,-5.295121 7.43507,-7.441048 0.82319,-0.634744 1.67091,-1.236585 2.54197,-1.803727 0.74482,-0.481592 1.5046,-0.94045 2.27754,-1.375977 4.32954,-2.42172 9.0653,-4.032212 13.97394,-4.75131 1.90663,-0.270409 3.83001,-0.406212 5.75578,-0.406212 h 0.0114 c 0.14657,0 0.29314,-0.006 0.44509,-0.01675 h 0.0281 c 5.20718,0.06102 10.35274,1.13907 15.14652,3.173721 0.085,0.0335 0.16931,0.0676 0.25366,0.107087 h 0.0114 c 1.47229,0.637138 3.13962,0.659273 4.62807,0.06222 2.2925,-0.913529 3.80428,-3.143809 3.80428,-5.611594 0,-0.769351 -0.14717,-1.532121 -0.43314,-2.246433 -0.59586,-1.487851 -1.75826,-2.680165 -3.22996,-3.314311 h -0.0114 c -8.87924,-3.829405 -18.65227,-5.111457 -28.21891,-3.703174 l -0.20879,0.0329 -0.33262,0.05085 -0.0616,0.01137 -0.24828,0.03948 c -7.20473,1.161205 -14.08522,3.827011 -20.19157,7.823329 l -0.0455,0.02812 c -0.0897,0.06222 -0.18545,0.118454 -0.27639,0.180672 l -0.28118,0.185458 c -0.0622,0.04547 -0.12443,0.08495 -0.18665,0.130419 -5.634924,3.80368 -10.467596,8.678229 -14.222219,14.34606 -0.07299,0.112471 -0.15734,0.236309 -0.236309,0.354763 l -0.04547,0.0682 -0.242292,0.376899 -0.140589,0.220158 c -0.05085,0.079 -0.101703,0.15794 -0.146572,0.23691 -0.02812,0.0449 -0.05683,0.0897 -0.08495,0.12982 l -0.101703,0.15734 -0.01077,0.0287 0.006,-0.012 z"
   style="fill:#1066df;fill-rule:nonzero;stroke-width:0.598251"
   id="path3" />
        </g>
    </g>
</svg>
