<?xml version="1.0" encoding="UTF-8" standalone="no"?>
<svg
   width="512"
   height="618.26343"
   viewBox="0 0 512 618.26343"
   version="1.1"
   xml:space="preserve"
   style="clip-rule:evenodd;fill-rule:evenodd;stroke-linejoin:round;stroke-miterlimit:2"
   id="svg1"
   xmlns="http://www.w3.org/2000/svg"
   xmlns:svg="http://www.w3.org/2000/svg"><defs
   id="defs1" />
    <g
   transform="matrix(4,0,0,4,-168,-202.86768)"
   id="g1">
        <path
   d="M 170,81.629525 V 50.716921 h -64 v 30.912604 h 32 c -0.13042,8.323019 -3.57555,16.259019 -9.56619,22.037735 -6.0003,5.79562 -14.06913,8.98657 -22.43381,8.87366 V 81.629525 C 89.274264,81.416997 73.146264,87.803714 61.149887,99.392544 49.152906,110.98137 42.266868,126.8256 42,143.45353 c 0.266868,16.62732 7.153509,32.47154 19.149887,44.06037 11.996377,11.58883 28.124377,17.97555 44.850113,17.76302 16.72996,0.22702 32.86642,-6.15547 44.86581,-17.74732 11.9994,-11.59185 18.88121,-27.44453 19.13419,-44.07607 h -32 c -0.0556,4.12135 -0.928,8.19079 -2.56664,11.97283 -1.64166,3.78747 -4.0157,7.21388 -6.98566,10.0812 -2.9754,2.87336 -6.48755,5.13389 -10.336,6.65117 -3.85389,1.5203 -7.96921,2.2708 -12.1117,2.2074 -8.364679,0.1129 -16.432302,-3.07925 -22.432,-8.87547 -6.000302,-5.79563 -9.441811,-13.72136 -9.568,-22.03713 0.126792,-8.31638 3.568302,-16.24212 9.568,-22.03774 5.999698,-5.79562 14.066717,-8.98838 22.432,-8.87487 v 30.91261 c 16.72574,0.21252 32.85374,-6.176 44.85011,-17.76484 C 162.84649,114.10047 169.73313,98.256846 170,81.629525 Z"
   style="fill:#ef6100;fill-rule:nonzero;stroke-width:0.603774"
   id="path1" />
    </g>
</svg>
