<?xml version="1.0" encoding="UTF-8" standalone="no"?>
<svg
   width="763.16882"
   height="763.16528"
   viewBox="0 0 763.16882 763.16528"
   version="1.1"
   xml:space="preserve"
   style="clip-rule:evenodd;fill-rule:evenodd;stroke-linejoin:round;stroke-miterlimit:2"
   id="svg3"
   xmlns="http://www.w3.org/2000/svg"
   xmlns:svg="http://www.w3.org/2000/svg"><defs
   id="defs3" />
    <g
   transform="matrix(1.00373,0,0,1.01105,-130.21919,-136.07434)"
   id="g3">
        <g
   transform="matrix(3.98212,0,0,3.98212,0.583005,2.53258)"
   id="g1">
            <path
   d="m 128.26629,191.37956 c 35.48289,0 64.04881,-28.56592 64.04881,-63.14628 0,-34.581097 -28.56592,-63.146277 -64.04881,-63.146277 -35.48215,0 -64.048075,28.565926 -64.048075,63.146277 0,34.58036 28.566671,63.14628 64.048075,63.14628 z"
   style="fill:#46b549;fill-rule:nonzero;stroke-width:0.745282"
   id="path1" />
        </g>
        <g
   transform="matrix(3.98212,0,0,3.98212,0.583005,2.53258)"
   id="g2">
            <path
   d="m 181.91692,195.14771 c 3.44321,3.2621 3.23304,8.83458 -0.71547,11.46244 -37.14785,24.7158 -87.58781,21.09149 -120.577732,-11.61597 -37.587567,-37.28647 -37.587567,-96.824841 0,-134.111314 32.817761,-32.817761 83.736942,-36.355616 120.949632,-11.36481 3.77411,2.53396 4.04464,7.851549 0.83024,11.066697 -2.74264,2.742639 -7.08465,2.961752 -10.32663,0.83248 C 141.13508,41.099347 98.977436,44.781042 72.050387,71.708091 40.176153,102.67979 40.176153,153.19726 71.448944,184.16896 c 26.932267,26.93226 69.100336,30.61098 100.042966,10.27967 3.25465,-2.13821 7.59816,-1.97947 10.42501,0.69908 z m 13.87641,-13.56265 c 3.26434,3.44619 8.83831,3.25465 11.4863,-0.68491 21.54462,-32.05087 21.45295,-74.36427 -0.27427,-106.327194 -2.54588,-3.745043 -7.83739,-3.995458 -11.03987,-0.793725 -2.75829,2.759035 -2.96473,7.130116 -0.80043,10.37582 17.48581,26.219779 17.45973,60.323149 -0.079,86.981149 -2.14567,3.2621 -1.97798,7.61455 0.70727,10.44886 z"
   style="fill:#46b549;fill-rule:nonzero;stroke-width:0.745282"
   id="path2" />
        </g>
    </g>
</svg>
