<?xml version="1.0" encoding="UTF-8" standalone="no"?>
<svg
   width="2194.8411"
   height="1451.7164"
   viewBox="0 0 2194.8411 1451.7164"
   version="1.1"
   xml:space="preserve"
   style="clip-rule:evenodd;fill-rule:evenodd;stroke-linejoin:round;stroke-miterlimit:2"
   id="svg3"
   xmlns="http://www.w3.org/2000/svg"
   xmlns:svg="http://www.w3.org/2000/svg"><defs
   id="defs3" />
    <g
   transform="matrix(3.98978,0,0,3.98978,587.31013,213.43901)"
   id="g3">
        <path
   d="m -64.516026,284.82349 c -0.31124,0.0773 -0.637505,0.0773 -0.948745,0 -0.809223,-0.23611 -1.418823,-0.91225 -1.57337,-1.74079 -0.871471,-5.52934 23.13906,-56.39019 34.189142,-76.14855 5.537919,-9.81585 47.005777,-36.91731 74.957246,-50.20618 2.494211,-1.17841 18.652916,-8.93365 19.146607,-8.0493 0.49369,0.88221 -14.587482,12.61916 -15.375241,13.28886 -24.585787,19.70255 -68.539269,71.24813 -91.485146,100.57335 -14.613239,18.68296 -17.285608,21.95635 -18.910493,22.28261 z"
   style="fill-rule:nonzero;stroke-width:2.14648"
   id="path1" />
        <path
   d="m 187.13091,12.853677 c 38.64738,-1.208468 59.0046,9.818002 69.1317,19.640297 8.18238,7.291595 13.11929,17.560357 13.70313,28.505262 0.26187,14.628264 -15.57272,19.013524 -25.04084,21.664428 -1.27716,0.326265 -2.82048,0.753414 -4.09763,1.178417 6.53818,2.612267 21.53778,7.298034 35.03915,11.487964 56.14978,17.474495 79.91347,26.182765 81.93116,33.744825 0.42929,1.74508 -0.1245,3.59106 -1.44244,4.8124 -3.0158,2.51997 -8.71685,2.09282 -18.22576,0.49155 l -1.3759,-0.22967 c -97.5511,-15.51262 -164.25727,-14.3986 -164.94415,-14.3986 -178.9735433,2.7153 -270.462983,132.28116 -300.5502,174.86733 -7.9012,11.2261 -11.04794,15.66502 -13.94568,15.74444 -0.83928,-0.015 -1.65279,-0.28978 -2.32894,-0.78776 -1.47677,-1.24281 -2.286,-3.1124 -2.17867,-5.03994 C -147.84669,284.34053 -105.35711,164.9125 -14.895836,97.066548 22.744846,68.799546 86.724991,40.180521 178.80257,62.707834 173.5394,57.06259 170.58369,49.642207 170.52359,41.92561 143.48008,45.458717 95.128463,41.599345 60.698915,37.1132 31.098949,33.152944 -18.922634,25.103642 -22.133768,13.71227 -22.822789,11.222352 -21.807503,8.541398 -15.415284,4.8086684 13.347555,-12.07984 54.632961,-15.743883 54.632961,-15.743883 171.0366,-26.978562 187.13091,12.853677 187.13091,12.853677 Z"
   style="fill-rule:nonzero;stroke-width:2.14648"
   id="path2" />
        <path
   d="m 59.878959,-25.278549 c 0,0 -35.174376,-20.687779 -29.505521,-26.18277 5.671002,-5.49499 70.082592,0 112.439092,18.163519 42.3565,18.161371 45.03745,38.422001 45.03745,38.422001 -13.80187,-22.580975 -50.15681,-36.526659 -127.973167,-30.40275 z M 360.4399,106.91245 c -6.29349,0.19533 -11.83141,0.29622 -20.1898,0.43574 -2.05418,-0.0258 -4.0869,-0.42286 -6.00156,-1.16983 l -53.823,-17.083841 c -1.57337,-0.491544 -11.80135,-3.794977 -10.89553,-5.138674 0.90796,-1.345843 10.32457,-1.27501 11.96448,-1.210615 h 3.63828 c 66.0515,1.931832 104.89421,6.527447 115.92498,13.645177 1.47463,0.822102 2.18726,2.57363 1.7043,4.192073 -0.59672,2.40191 -1.21705,5.11721 -42.32215,6.32997 z M -60.639483,126.5549 c -1.742942,0.3327 -3.545985,0.13952 -5.177311,-0.55809 -2.71959,-1.11402 -4.001039,-3.27123 -6.538179,-6.52744 -6.536034,-7.98491 -9.178351,-17.0173 -7.046896,-23.497527 1.399505,-3.998893 4.799531,-6.984648 8.946531,-7.853972 12.883176,-3.271237 27.404117,1.740795 32.776758,7.853972 4.357355,4.786647 2.363275,6.349287 -3.27553,11.030767 -3.294847,2.74964 -6.41583,5.7032 -9.343629,8.8392 -4.786652,4.85534 -6.529594,8.84994 -10.341744,10.71309 z"
   style="fill-rule:nonzero;stroke-width:2.14648"
   id="path3" />
    </g>
</svg>
