<?xml version="1.0" encoding="UTF-8" standalone="no"?>
<svg
   width="511.99756"
   height="512.00037"
   viewBox="0 0 511.99756 512.00037"
   version="1.1"
   xml:space="preserve"
   style="clip-rule:evenodd;fill-rule:evenodd;stroke-linejoin:round;stroke-miterlimit:2"
   id="svg1"
   xmlns="http://www.w3.org/2000/svg"
   xmlns:svg="http://www.w3.org/2000/svg"><defs
   id="defs1" />
    <g
   transform="matrix(4.11463,0,0,4.11463,-271.97383,-271.98553)"
   id="g1">
        <path
   d="m 165.17097,78.203062 10.729,-10.729 c 1.829,-1.829 4.7995,-1.8295 6.629,-5e-4 l 6.6285,6.629 c 1.8295,1.829 1.829,4.7995 0,6.629 v -5e-4 l -10.7285,10.7285 c 7.607,10.321498 12.1035,23.069498 12.1035,36.859998 0,13.79 -4.4965,26.5385 -12.101,36.8565 l 10.7295,10.7295 c 1.829,1.829 1.829,4.799 -5e-4,6.6285 l -6.629,6.629 c -1.829,1.829 -4.799,1.829 -6.628,0 l -10.7295,-10.7295 c -10.3195,7.606 -23.068,12.102 -36.858,12.102 -13.7905,0 -26.5385,-4.496 -36.857501,-12.1015 l -10.73,10.73 c -1.829,1.8295 -4.799,1.8295 -6.6285,0 l -6.629,-6.629 c -1.829,-1.829 -1.829,-4.799 0,-6.628 l 10.73,-10.73 c -7.6055,-10.319 -12.1015,-23.0675 -12.1015,-36.8575 0,-13.7905 4.496,-26.5385 12.102,-36.858498 l -10.729,-10.729 c -1.829,-1.829 -1.8295,-4.7995 -5e-4,-6.629 l 6.629,-6.6285 c 1.829,-1.8295 4.7995,-1.829 6.629,0 h -5e-4 l 10.7295,10.7295 c 10.318501,-7.605 23.066501,-12.101 36.857001,-12.101 13.79,0 26.5385,4.496 36.855,12.1 z m -36.855,6.6485 c 23.9905,0 43.4675,19.476998 43.4675,43.467998 0,23.9905 -19.477,43.4675 -43.4675,43.4675 -23.991,0 -43.468001,-19.477 -43.468001,-43.4675 0,-23.991 19.477001,-43.467998 43.468001,-43.467998 z"
   style="fill:#959595;stroke-width:0.5"
   id="path1" />
    </g>
</svg>
