<?xml version="1.0" encoding="UTF-8" standalone="no"?>
<svg
   width="512.00018"
   height="372.3743"
   viewBox="0 0 512.00018 372.3743"
   version="1.1"
   xml:space="preserve"
   style="clip-rule:evenodd;fill-rule:evenodd;stroke-linejoin:round;stroke-miterlimit:2"
   id="svg1"
   xmlns="http://www.w3.org/2000/svg"
   xmlns:svg="http://www.w3.org/2000/svg"><defs
   id="defs1" />
    <g
   transform="matrix(4.3809,0,0,4.3809,-280.11256,-374.56585)"
   id="g1">
        <path
   d="m 180.8105,127.99975 c 0,7.7415 -2.074,14.9945 -5.6875,21.25 -3.737,6.4585 -9.104,11.8255 -15.5625,15.5625 -0.2245,0.1255 -0.4425,0.251 -0.667,0.3765 -6.097,3.382 -13.112,5.3105 -20.5765,5.3105 H 95.824 l 7.966,-21.2495 H 79.885 l 7.966,-21.25 h 50.466 l -7.966,21.25 h 7.966 c 9.902,0 18.218,-6.771 20.5765,-15.9395 0.4445,-1.735 0.669,-3.5195 0.667,-5.3105 0,-11.7315 -9.512,-21.25 -21.25,-21.25 H 95.817 l 7.9665,-21.25 h 34.527 c 7.7415,0 14.9945,2.074 21.25,5.6875 6.4585,3.737 11.8255,9.104 15.5625,15.5625 3.6135,6.249 5.6875,13.508 5.6875,21.25 z m -92.9725,0 H 63.9395 l 7.966,-21.25 H 95.811 Z"
   style="fill:#c82020;fill-rule:nonzero;stroke-width:0.5"
   id="path1" />
    </g>
</svg>
