<?xml version="1.0" encoding="UTF-8" standalone="no"?>
<svg
   width="512.00024"
   height="640.51227"
   viewBox="0 0 512.00024 640.51227"
   version="1.1"
   xml:space="preserve"
   style="clip-rule:evenodd;fill-rule:evenodd;stroke-linejoin:round;stroke-miterlimit:2"
   id="svg1"
   xmlns="http://www.w3.org/2000/svg"
   xmlns:svg="http://www.w3.org/2000/svg"><defs
   id="defs1" />
    <g
   transform="matrix(4.67367,0,0,4.67367,-671.15084,-1486.0075)"
   id="g1">
        <path
   d="m 143.60253,409.34732 6.3456,-15.247 h 6.69846 c -0.17674,-2.70308 -0.26448,-5.31778 -0.26448,-7.84411 0,-3.40814 0.14665,-6.58063 0.44059,-9.51873 h -13.22017 l 6.3456,-15.24701 h 9.95932 c 9.28307,-29.02496 30.20008,-43.53745 62.75101,-43.53745 10.69321,0 20.85809,1.35122 30.49401,4.05367 v 19.21356 c -9.04805,-3.9371 -18.65514,-5.90502 -28.8194,-5.90502 -19.50687,0 -32.05143,8.72529 -37.63306,26.17524 h 58.08002 l -6.34561,15.24701 H 182.9102 c -0.29394,1.88018 -0.44059,4.40714 -0.44059,7.57963 0,3.64317 0.1172,6.90402 0.35222,9.78321 h 48.38518 l -6.25724,15.247 h -38.77871 c 4.17149,10.57602 9.25424,17.93504 15.247,22.07708 5.99339,4.14266 14.54194,6.21337 25.64692,6.21337 7.93185,0 16.62768,-1.88018 26.08749,-5.64054 v 18.06728 c -8.98976,3.29031 -19.68297,4.93547 -32.08026,4.93547 -32.60984,0 -53.23291,-15.21755 -61.86983,-45.65266 z"
   style="fill:#003f20;fill-rule:nonzero;stroke-width:0.626727"
   id="path1" />
    </g>
</svg>
