<?xml version="1.0" encoding="UTF-8" standalone="no"?>
<svg
   width="512"
   height="512"
   viewBox="0 0 512 512"
   version="1.1"
   xml:space="preserve"
   style="clip-rule:evenodd;fill-rule:evenodd;stroke-linejoin:round;stroke-miterlimit:2"
   id="svg3"
   xmlns="http://www.w3.org/2000/svg"
   xmlns:svg="http://www.w3.org/2000/svg"><defs
   id="defs3" />
    <g
   transform="matrix(4,0,0,4,-256,-256)"
   id="g3">
        <g
   transform="scale(0.128)"
   id="g1">
            <path
   d="m 1287.195,1336.69 c 10.7,10.7 16.065,25.645 14.62,40.705 -1.44,15.06 -9.555,28.71 -22.09,37.175 -79.925,53.88 -176.17,85.43 -279.725,85.43 -103.5565,0 -199.802,-31.55 -279.639,-85.555 -12.5005,-8.44 -20.588,-22.05 -22.0275,-37.065 -1.441,-15.015 3.911,-29.915 14.578,-40.58 -0.104,-0.11 -0.102,-0.11 -0.1005,-0.115 22.3915,-22.39 57.2415,-26.44 84.171,-9.78 58.89,36.875 128.4955,58.095 203.018,58.095 74.525,0 144.13,-21.22 203.11,-57.95 26.86,-16.615 61.62,-12.575 83.955,9.76 0.125,-0.12 0.125,-0.12 0.13,-0.12 z m 49.495,-623.8845 c 10.7,-10.6985 25.645,-16.0665 40.705,-14.622 15.06,1.4435 28.71,9.555 37.175,22.093 53.88,79.9215 85.43,176.167 85.43,279.7235 0,103.555 -31.55,199.8 -85.555,279.64 -8.44,12.5 -22.05,20.585 -37.065,22.025 -15.015,1.445 -29.915,-3.91 -40.58,-14.575 -0.11,0.1 -0.11,0.1 -0.115,0.1 -22.39,-22.39 -26.44,-57.245 -9.78,-84.17 C 1363.78,1144.13 1385,1074.525 1385,1000 c 0,-74.5225 -21.22,-144.128 -57.95,-203.1095 -16.615,-26.861 -12.575,-61.6215 9.76,-83.9545 -0.12,-0.1265 -0.12,-0.1285 -0.12,-0.1305 z m -751.1375,7.5555 c 9.393,-13.905 25.117,-22.2585 41.8975,-22.2585 13.4045,0 26.2735,5.3305 35.752,14.809 0.108,-0.104 0.11,-0.102 0.112,-0.1005 22.3895,22.3915 26.44,57.2415 9.7825,84.171 C 636.219,855.872 615,925.4775 615,1000 c 0,74.525 21.219,144.13 57.949,203.11 16.6145,26.86 12.5735,61.62 -9.76,83.955 0.123,0.125 0.121,0.125 0.119,0.13 -10.698,10.7 -25.641,16.065 -40.701,14.62 -15.06,-1.445 -28.7105,-9.555 -37.1795,-22.09 C 531.55,1199.8 500,1103.555 500,1000 500,896.4435 531.55,800.198 585.5525,720.361 Z M 1000,685 c 173.855,0 315,141.147 315,315 0,173.855 -141.145,315 -315,315 -173.853,0 -315,-141.145 -315,-315 0,-173.853 141.147,-315 315,-315 z M 712.8055,663.308 c -9.507,-9.5065 -14.854,-22.414 -14.854,-35.859 0,-16.83 8.3785,-32.6005 22.325,-42.0215 C 800.198,531.55 896.4435,500 1000,500 c 103.555,0 199.8,31.55 279.64,85.5525 12.5,8.4445 20.585,22.054 22.025,37.069 1.44,15.015 -3.91,29.914 -14.575,40.5805 0.1,0.108 0.1,0.11 0.1,0.112 -22.39,22.3895 -57.245,26.44 -84.17,9.7825 C 1144.13,636.219 1074.525,615 1000,615 c -74.5225,0 -144.128,21.219 -203.1095,57.949 -26.861,16.6145 -61.6215,12.5735 -83.9545,-9.76 -0.1265,0.123 -0.1285,0.121 -0.1305,0.119 z"
   style="fill:#208e7a;stroke-width:0.5"
   id="path1" />
        </g>
        <g
   transform="matrix(0.128,0,0,0.128,-0.512,-0.262)"
   id="g2">
            <path
   d="m 782.5,1023.0684 c 0,0 -19.202,-0.015 -19.202,26.885 0,28.115 17.3915,28.91 23.9725,28.91 h 29.613 c 13.6315,48.885 38.3095,86.02 74.033,111.4 35.724,25.385 77.3235,38.075 124.7985,38.075 20.215,0 38.66,-1.76 55.35,-5.285 16.685,-3.53 30.785,-8.23 42.305,-14.105 11.515,-5.875 20.445,-12.69 26.79,-20.445 6.345,-7.755 9.52,-16.1 9.52,-25.03 0,-9.4 -2.235,-17.685 -7.755,-23.975 -14.425,-16.43 -39.425,-1.43 -58.52,5.995 -15.22,5.915 -33.845,9.52 -56.41,9.52 -26.7915,0 -50.529,-6.35 -71.2115,-19.04 -20.682,-12.69 -36.429,-31.73 -47.24,-57.11 l 158.9565,-0.795 c 0,0 25.13,-5 25.07,-28.115 -0.07,-26.885 -25.07,-28.2 -23.975,-28.2 z m 0,-42.04496 c 0,0 -19.202,0.012 -19.202,-26.8875 0,-28.1125 17.3915,-28.908 23.9725,-28.908 h 29.613 c 13.6315,-48.8855 38.3095,-86.0195 74.033,-111.4025 35.724,-25.3825 77.3235,-38.074 124.7985,-38.074 20.215,0 38.66,1.763 55.35,5.288 16.685,3.5255 30.785,8.226 42.305,14.1015 11.515,5.876 20.445,12.6915 26.79,20.4475 6.345,7.7555 9.52,16.099 9.52,25.03 0,9.401 -2.235,17.683 -7.755,23.9725 -14.425,16.4325 -39.425,1.4325 -58.52,-5.993 -15.22,-5.916 -33.845,-9.5185 -56.41,-9.5185 -26.7915,0 -50.529,6.3455 -71.2115,19.037 -20.682,12.6915 -36.429,31.7285 -47.24,57.1115 l 158.9565,0.7955 c 0,0 25.13,5 25.07,28.1125 -0.07,26.8875 -25.07,28.203 -23.975,28.203 z"
   style="fill:#ffffff;fill-rule:nonzero;stroke-width:0.5"
   id="path2" />
        </g>
    </g>
</svg>
