<?xml version="1.0" encoding="UTF-8" standalone="no"?>
<svg
   width="512"
   height="512"
   viewBox="0 0 512 512"
   version="1.1"
   xml:space="preserve"
   style="clip-rule:evenodd;fill-rule:evenodd;stroke-linejoin:round;stroke-miterlimit:2"
   id="svg1"
   xmlns="http://www.w3.org/2000/svg"
   xmlns:svg="http://www.w3.org/2000/svg"><defs
   id="defs1" />
    <g
   transform="matrix(4,0,0,4,-353.01,-158.986)"
   id="g1">
        <path
   d="m 152.24458,167.7465 c -35.28726,0 -63.99208,-28.70376 -63.99208,-63.99208 0,-35.287271 28.70482,-64.00792 63.99208,-64.00792 35.28833,0 64.00792,28.704815 64.00792,64.00792 0,35.30415 -28.71959,63.99208 -64.00792,63.99208 z m 0,-102.987523 c -21.49325,0 -38.9796,17.486356 -38.9796,38.979603 0,21.49325 17.48635,38.98067 38.9796,38.98067 21.49325,0 38.97961,-17.48742 38.97961,-38.98067 0,-21.493247 -17.48636,-38.979603 -38.97961,-38.979603 z"
   style="fill:#282828;fill-rule:nonzero;stroke-width:1.05556"
   id="path1" />
    </g>
</svg>
