<?xml version="1.0" encoding="UTF-8" standalone="no"?>
<svg
   width="512"
   height="511.25214"
   viewBox="0 0 512 511.25214"
   version="1.1"
   xml:space="preserve"
   style="clip-rule:evenodd;fill-rule:evenodd;stroke-linejoin:round;stroke-miterlimit:2"
   id="svg1"
   xmlns="http://www.w3.org/2000/svg"
   xmlns:svg="http://www.w3.org/2000/svg"><defs
   id="defs1" />
    <g
   transform="matrix(74.7882,0,0,74.7882,256.00001,766.8782)"
   id="g1">
        <path
   d="m -0.703,-7.08 -1.2795,-2.222 c -0.1315,-0.1725 -0.275,-0.3355 -0.4295,-0.488 -0.179,-0.179 -0.3825,-0.2685 -0.6105,-0.2685 h -0.244 v -0.1955 h 2.9295 v 0.1955 h -0.244 c -0.228,0 -0.35,0.0895 -0.3665,0.2685 -0.0165,0.1675 0.014,0.3365 0.088,0.488 l 1.0355,1.797 1.2695,-1.8165 c 0.081,-0.1495 0.122,-0.306 0.122,-0.4685 0,-0.179 -0.114,-0.2685 -0.342,-0.2685 H 0.9815 V -10.254 H 3.423 v 0.1955 H 3.1785 C 2.951,-10.0585 2.7245,-9.969 2.5,-9.79 2.3145,-9.6435 2.171,-9.502 2.0705,-9.3655 L 2.007,-9.2775 0.4735,-7.08 H 3.423 v 0.488 h -2.72 l 1.299,2.251 c 0.0945,0.1465 0.226,0.2995 0.3955,0.459 0.189,0.179 0.397,0.2685 0.625,0.2685 h 0.244 V -3.418 H 0.337 v -0.1955 h 0.244 c 0.228,0 0.35,-0.0895 0.3665,-0.2685 0.0165,-0.17 -0.0155,-0.341 -0.093,-0.493 l -1.0305,-1.787 -1.235,1.7675 c -0.101,0.152 -0.1555,0.33 -0.1565,0.5125 0,0.179 0.114,0.2685 0.342,0.2685 h 0.244 V -3.418 H -3.423 v -0.1955 h 0.2445 c 0.2275,0 0.4475,-0.0895 0.659,-0.2685 0.1985,-0.166 0.363,-0.327 0.493,-0.4835 L -0.469,-6.592 H -3.423 V -7.08 Z"
   style="fill-rule:nonzero;stroke-width:0.5"
   id="path1" />
    </g>
</svg>
