<?xml version="1.0" encoding="UTF-8" standalone="no"?>
<svg
   width="512.00006"
   height="528.5163"
   viewBox="0 0 512.00006 528.5163"
   version="1.1"
   xml:space="preserve"
   style="clip-rule:evenodd;fill-rule:evenodd;stroke-linejoin:round;stroke-miterlimit:2"
   id="svg1"
   xmlns="http://www.w3.org/2000/svg"
   xmlns:svg="http://www.w3.org/2000/svg"><defs
   id="defs1" />
    <g
   transform="matrix(4,0,0,4,-239.99997,-247.74192)"
   id="g1">
        <path
   d="m 187.72748,101.08593 c -0.18374,-1.646447 -0.45935,-3.281028 -0.82477,-4.896512 -0.37833,-1.658838 -0.8542,-3.294451 -1.42607,-4.897032 -0.59767,-1.671742 -1.29445,-3.306839 -2.08567,-4.896516 -0.84542,-1.687226 -1.79768,-3.31871 -2.85162,-4.884645 -0.74322,-1.11329 -1.54168,-2.188387 -2.39226,-3.221678 -0.46296,-0.571871 -0.94296,-1.130838 -1.43793,-1.675354 -1.08749,-1.221678 -2.24826,-2.375742 -3.47613,-3.456 -0.54916,-0.499613 -1.11484,-0.980129 -1.69703,-1.440517 -1.03794,-0.839741 -2.11562,-1.629419 -3.22891,-2.366451 -1.38529,-0.929549 -2.8258,-1.774452 -4.31277,-2.530581 -0.20077,-0.108387 -0.40516,-0.210064 -0.61265,-0.304516 -1.59638,-0.794323 -3.2418,-1.486968 -4.92541,-2.073806 -1.60878,-0.567742 -3.24955,-1.041033 -4.91407,-1.417291 -3.23355,-0.724645 -6.53729,-1.090064 -9.85135,-1.089548 H 72.303481 c -2.660645,-0.0015 -5.25058,0.861935 -7.377548,2.460387 -0.932645,0.682839 -1.758452,1.499871 -2.451613,2.424774 -1.607226,2.110452 -2.476903,4.691613 -2.474323,7.344516 v 88.09445 c 0,0.82013 0.03561,1.64026 0.106323,2.44852 0.117161,1.64593 0.369032,3.28 0.753548,4.88464 0.802581,3.41213 2.177033,6.66426 4.065549,9.61755 0.03561,0.0614 0.07484,0.12026 0.118709,0.176 1.121033,1.76052 2.420129,3.40129 3.876129,4.89652 0.29471,0.31638 0.601291,0.6209 0.919742,0.91355 l 0.01136,0.0119 c 1.501936,1.44567 3.148387,2.7329 4.913549,3.84206 0.05677,0.0434 0.115612,0.0826 0.177548,0.11716 1.509677,0.95381 3.098323,1.77704 4.748387,2.46039 1.596387,0.66013 3.243871,1.18916 4.925936,1.58142 1.614967,0.38142 3.258322,0.63226 4.913548,0.74993 h 0.01187 v 0.1053 h 41.845155 v -0.047 c 0.69162,-0.13058 1.31613,-0.4991 1.76465,-1.04103 0.44748,-0.54039 0.69058,-1.22117 0.68645,-1.92259 0.007,-0.688 -0.23174,-1.3569 -0.672,-1.88593 -0.30607,-0.384 -0.70297,-0.68542 -1.15458,-0.87845 -0.20955,-0.11458 -0.41755,-0.23174 -0.62452,-0.35149 -0.83561,-0.46709 -1.65729,-0.95896 -2.46297,-1.47613 -0.848,-0.52696 -1.66141,-1.1009 -2.46245,-1.68671 -0.22761,-0.1538 -0.448,-0.31793 -0.66013,-0.49238 -0.61419,-0.45987 -1.21496,-0.93626 -1.80283,-1.42916 -0.54091,-0.44852 -1.07149,-0.90891 -1.59071,-1.3822 -0.74065,-0.66838 -1.456,-1.36361 -2.14504,-2.08516 -0.272,-0.26839 -0.53522,-0.54555 -0.78916,-0.83148 -0.14193,-0.14091 -0.27148,-0.29265 -0.40103,-0.43355 -1.05084,-1.15974 -2.04232,-2.37161 -2.97084,-3.63148 -0.68955,-0.92646 -1.34245,-1.88026 -1.95664,-2.85833 -0.42633,-0.66838 -0.8351,-1.34813 -1.22529,-2.03819 -0.89704,-1.57936 -1.69962,-3.21032 -2.40362,-4.88465 -0.4769,-1.11742 -0.9058,-2.25496 -1.28464,-3.40903 -0.17445,-0.49032 -0.33187,-0.98684 -0.47123,-1.488 -0.24877,-0.80826 -0.46916,-1.62477 -0.66013,-2.44851 -0.20026,-0.81084 -0.37729,-1.62736 -0.53006,-2.44852 -0.30091,-1.61961 -0.51716,-3.25419 -0.64826,-4.89652 -0.0475,-0.59664 -0.0826,-1.1938 -0.10581,-1.792 -0.0335,-0.67509 -0.049,-1.35071 -0.047,-2.02684 V 130.44284 H 90.424772 c -0.704517,0.003 -1.387871,-0.24103 -1.931871,-0.68852 -0.542452,-0.44593 -0.910452,-1.06942 -1.038968,-1.75948 -0.161549,-0.79691 0.01806,-1.62581 0.494968,-2.28439 l 0.106322,-0.15226 1.484903,-2.1089 0.895484,-1.26503 1.072516,-1.5231 2.946065,-4.19355 0.494451,-0.70297 3.452904,-4.89703 0.978064,-1.39355 2.46348,-3.50296 2.46246,-3.49058 0.97806,-1.39407 1.4849,-2.108903 1.96955,-2.787096 0.49445,-0.703484 2.95794,-4.193549 1.95613,-2.788129 1.4849,-2.108387 0.96619,-1.370838 c 0.27871,-0.398452 0.64981,-0.723097 1.0813,-0.947097 0.87638,-0.455226 1.92258,-0.455226 2.79896,0 0.43149,0.224 0.80258,0.549161 1.08129,0.947097 l 0.9662,1.370838 1.47303,2.097033 1.968,2.799483 0.49497,0.691613 2.46245,3.502452 0.49497,0.702968 1.96954,2.787613 1.48491,2.108906 0.96619,1.38219 2.47484,3.50245 2.4511,3.4911 0.98993,1.40593 3.45291,4.89652 0.48258,0.6911 2.95793,4.20593 1.96955,2.78762 1.4849,2.10838 0.10581,0.15278 c 0.4769,0.65858 0.65652,1.48748 0.49497,2.28387 -0.10581,0.5378 -0.3551,1.03742 -0.72207,1.44464 -0.36748,0.40878 -0.83871,0.71123 -1.36361,0.87484 -0.29058,0.0862 -0.59252,0.12955 -0.89548,0.12903 h -16.33291 v 14.69007 c -0.002,1.68155 0.34787,3.34555 1.02555,4.88464 0.37523,0.86297 0.85368,1.67742 1.42555,2.42478 1.28516,1.696 2.98064,3.03897 4.92594,3.90142 1.55406,0.67509 3.23148,1.02245 4.92593,1.01935 0.21161,0 0.42426,0 0.63639,-0.0119 1.43329,-0.0145 2.86451,-0.10064 4.28903,-0.25755 1.65574,-0.18271 3.30013,-0.45677 4.92594,-0.82013 1.60361,-0.3618 3.18554,-0.81548 4.73703,-1.35896 h 0.17651 v -0.0583 c 1.68413,-0.58684 3.32904,-1.27948 4.92594,-2.07329 1.664,-0.81806 3.27381,-1.74142 4.81961,-2.7649 h 0.10632 v -0.0707 c 1.73162,-1.14839 3.37807,-2.42065 4.92594,-3.80697 0.37368,-0.32619 0.7391,-0.66219 1.09574,-1.00748 1.35949,-1.28774 2.63432,-2.66116 3.81781,-4.112 0.21213,-0.25807 0.41239,-0.51561 0.61264,-0.78503 1.21704,-1.55252 2.32362,-3.18865 3.31149,-4.89652 0.352,-0.5951 0.68593,-1.20052 1.00129,-1.81574 0.52748,-1.00749 1.01471,-2.03561 1.46116,-3.08129 0.33342,-0.80826 0.64774,-1.62478 0.94297,-2.448 0.29161,-0.80258 0.55484,-1.61549 0.78916,-2.43665 0.46451,-1.61032 0.83819,-3.24542 1.11948,-4.89703 0.27665,-1.62013 0.45781,-3.25523 0.54194,-4.89652 H 188 v -9.79458 c -0.002,-1.632 -0.0924,-3.26245 -0.27252,-4.88413 z"
   style="fill:#3749e7;fill-rule:nonzero;stroke-width:0.516129"
   id="path1" />
    </g>
</svg>
