<?xml version="1.0" encoding="UTF-8" standalone="no"?>
<svg
   width="512.00012"
   height="693.21368"
   viewBox="0 0 512.00012 693.21368"
   version="1.1"
   xml:space="preserve"
   style="clip-rule:evenodd;fill-rule:evenodd;stroke-linejoin:round;stroke-miterlimit:2"
   id="svg1"
   xmlns="http://www.w3.org/2000/svg"
   xmlns:svg="http://www.w3.org/2000/svg"><defs
   id="defs1" />
    <g
   transform="matrix(4.91778,0,0,4.91778,-2052.7305,-1313.1931)"
   id="g1">
        <path
   d="m 417.40998,371.53163 h 17.352 v -15.79227 h -17.352 v -16.76711 h 17.352 v -71.9426 h 37.82348 c 15.20738,0 27.16532,3.83434 35.87382,11.50302 8.7085,7.66868 13.06274,18.39183 13.06274,32.16945 0,5.58904 -0.84485,11.08059 -2.53456,16.47466 -1.68971,5.39407 -4.38674,10.26823 -8.0911,14.62248 -3.70436,4.35425 -8.54603,7.83115 -14.525,10.4307 -5.97897,2.59955 -13.25771,3.89933 -21.83623,3.89933 h -20.86141 v 15.40234 h 19.49664 v 16.76711 h -19.49664 v 19.69161 h -18.91174 v -19.69161 h -17.352 z m 57.12515,-33.72918 c 5.45905,0 10.00827,-0.87735 13.64764,-2.63205 3.63938,-1.75469 6.53138,-4.0618 8.67601,-6.9213 2.14463,-2.85951 3.67186,-5.8165 4.58171,-8.87097 0.90984,-3.05448 1.36476,-5.8165 1.36476,-8.28607 0,-3.76935 -0.87735,-7.66868 -2.63204,-11.69799 -1.7547,-4.0293 -4.61421,-7.40872 -8.57853,-10.13825 -3.96431,-2.72953 -9.32589,-4.09429 -16.08472,-4.09429 h -21.83624 v 52.64092 z"
   style="fill:#003f20;fill-rule:nonzero;stroke-width:0.676967"
   id="path1" />
    </g>
</svg>
