<?xml version="1.0" encoding="UTF-8" standalone="no"?>
<svg
   width="511.99796"
   height="511.99796"
   viewBox="0 0 511.99796 511.99796"
   version="1.1"
   xml:space="preserve"
   style="clip-rule:evenodd;fill-rule:evenodd;stroke-linejoin:round;stroke-miterlimit:2"
   id="svg3"
   xmlns="http://www.w3.org/2000/svg"
   xmlns:svg="http://www.w3.org/2000/svg"><defs
   id="defs3" />
    <g
   transform="matrix(1.23373,0,0,1.23373,-255.99897,-255.99897)"
   id="g3">
        <g
   transform="scale(0.415)"
   id="g1">
            <path
   d="m 1287.195,1336.69 c 10.7,10.7 16.065,25.645 14.62,40.705 -1.44,15.06 -9.555,28.71 -22.09,37.175 -79.925,53.88 -176.17,85.43 -279.725,85.43 -103.5565,0 -199.802,-31.55 -279.639,-85.555 -12.5005,-8.44 -20.588,-22.05 -22.0275,-37.065 -1.441,-15.015 3.911,-29.915 14.578,-40.58 -0.104,-0.11 -0.102,-0.11 -0.1005,-0.115 22.3915,-22.39 57.2415,-26.44 84.171,-9.78 58.89,36.875 128.4955,58.095 203.018,58.095 74.525,0 144.13,-21.22 203.11,-57.95 26.86,-16.615 61.62,-12.575 83.955,9.76 0.125,-0.12 0.125,-0.12 0.13,-0.12 z m 49.495,-623.8845 c 10.7,-10.6985 25.645,-16.0665 40.705,-14.622 15.06,1.4435 28.71,9.555 37.175,22.093 53.88,79.9215 85.43,176.167 85.43,279.7235 0,103.555 -31.55,199.8 -85.555,279.64 -8.44,12.5 -22.05,20.585 -37.065,22.025 -15.015,1.445 -29.915,-3.91 -40.58,-14.575 -0.11,0.1 -0.11,0.1 -0.115,0.1 -22.39,-22.39 -26.44,-57.245 -9.78,-84.17 C 1363.78,1144.13 1385,1074.525 1385,1000 c 0,-74.5225 -21.22,-144.128 -57.95,-203.1095 -16.615,-26.861 -12.575,-61.6215 9.76,-83.9545 -0.12,-0.1265 -0.12,-0.1285 -0.12,-0.1305 z m -751.1375,7.5555 c 9.393,-13.905 25.117,-22.2585 41.8975,-22.2585 13.4045,0 26.2735,5.3305 35.752,14.809 0.108,-0.104 0.11,-0.102 0.112,-0.1005 22.3895,22.3915 26.44,57.2415 9.7825,84.171 C 636.219,855.872 615,925.4775 615,1000 c 0,74.525 21.219,144.13 57.949,203.11 16.6145,26.86 12.5735,61.62 -9.76,83.955 0.123,0.125 0.121,0.125 0.119,0.13 -10.698,10.7 -25.641,16.065 -40.701,14.62 -15.06,-1.445 -28.7105,-9.555 -37.1795,-22.09 C 531.55,1199.8 500,1103.555 500,1000 500,896.4435 531.55,800.198 585.5525,720.361 Z M 1000,685 c 173.855,0 315,141.147 315,315 0,173.855 -141.145,315 -315,315 -173.853,0 -315,-141.145 -315,-315 0,-173.853 141.147,-315 315,-315 z M 712.8055,663.308 c -9.507,-9.5065 -14.854,-22.414 -14.854,-35.859 0,-16.83 8.3785,-32.6005 22.325,-42.0215 C 800.198,531.55 896.4435,500 1000,500 c 103.555,0 199.8,31.55 279.64,85.5525 12.5,8.4445 20.585,22.054 22.025,37.069 1.44,15.015 -3.91,29.914 -14.575,40.5805 0.1,0.108 0.1,0.11 0.1,0.112 -22.39,22.3895 -57.245,26.44 -84.17,9.7825 C 1144.13,636.219 1074.525,615 1000,615 c -74.5225,0 -144.128,21.219 -203.1095,57.949 -26.861,16.6145 -61.6215,12.5735 -83.9545,-9.76 -0.1265,0.123 -0.1285,0.121 -0.1305,0.119 z"
   style="fill:#208e7a;stroke-width:0.5"
   id="path1" />
        </g>
        <g
   transform="matrix(2.03201,0,0,2.03201,-1627.21,-1436.95)"
   id="g2">
            <path
   d="m 969.11583,918.73562 c -2.8485,0 -3.26,-3.792 -3.26,-6.48 0,-2.496 0.528,-4.248 1.584,-5.256 1.056,-1.008 2.352,-1.512 3.888,-1.512 h 8.784 v -29.808 c 0,-1.728 0.504,-3.096 1.512,-4.104 1.008,-1.008 2.328,-1.752 3.96,-2.232 1.536,-0.48 3.288,-0.912 5.256,-1.296 1.968,-0.384 3.984,-0.72 6.048,-1.008 2.056,-0.287 4.12097,-0.5035 6.19197,-0.648 2.065,-0.144 4.01,-0.216 5.83,-0.216 11.715,0 20.52,2.4 26.425,7.2 5.905,4.8 8.855,11.328 8.855,19.584 0,7.776 -2.71,14.016 -8.135,18.72 -5.425,4.704 -13.51,7.056 -24.265,7.056 z m 29.284,19.728 v 9.6395 c 0,0 -0.331,4.536 -1.894,6.3365 -1.389,1.5995 -4.826,2.1695 -6.458,2.1695 -3.552,0 -6.096,-0.675 -7.632,-2.0175 -1.536,-1.344 -2.304,-3.552 -2.304,-6.624 v -9.504 l -10.4255,0.126 c -2.0465,0.0245 -3.1105,-1.638 -3.3985,-2.646 -0.288,-1.008 -0.432,-2.088 -0.432,-3.24 0,-2.208 0.456,-3.768 1.368,-4.68 0.912,-0.912 2.04,-1.368 3.384,-1.368 0,0 49.29197,-0.1655 60.17697,0.204 3.1,0.1055 4.1,0.9415 4.55,2.46 0.335,1.097 0.505,2.2375 0.505,3.384 0,1.92 -0.48,3.36 -1.44,4.32 -0.96,0.96 -2.11,1.44 -3.455,1.44 z m 11.37497,-33.696 c 4.995,0 8.88,-0.984 11.665,-2.952 2.785,-1.968 4.175,-4.872 4.175,-8.712 0,-4.032 -1.485,-7.056 -4.465,-9.072 -2.975,-2.016 -7.055,-3.024 -12.24,-3.024 -1.725,0 -3.5,0.072 -5.325,0.216 -1.825,0.144 -3.553,0.456 -5.18497,0.936 v 22.608 z"
   style="fill:#ffffff;fill-rule:nonzero;stroke-width:0.5"
   id="path2" />
        </g>
    </g>
</svg>
