<?xml version="1.0" encoding="UTF-8" standalone="no"?>
<svg
   width="512.0614"
   height="511.99759"
   viewBox="0 0 512.0614 511.99759"
   version="1.1"
   xml:space="preserve"
   style="clip-rule:evenodd;fill-rule:evenodd;stroke-linejoin:round;stroke-miterlimit:2"
   id="svg2"
   xmlns="http://www.w3.org/2000/svg"
   xmlns:svg="http://www.w3.org/2000/svg"><defs
   id="defs2" />
    <g
   transform="matrix(3.99977,0,0,3.99977,-255.92778,-255.94378)"
   id="g2">
        <path
   d="m 191.99237,63.989625 -42.66908,42.669085 h -28.44205 c -7.85385,0 -14.22653,6.36718 -14.22653,14.22103 0,1.59817 0.26653,3.13833 0.75108,4.57149 0.70107,2.06322 1.8682,3.93792 3.41036,5.47759 2.57328,2.57877 6.13266,4.17744 10.05959,4.17744 l -14.22153,14.22103 c -8.434409,0 -16.298754,-2.45076 -22.921965,-6.67121 -11.876276,-7.58182 -19.746621,-20.86525 -19.746621,-35.99737 0,-23.567533 19.102052,-42.669085 42.669086,-42.669085 z"
   style="fill:#b2fe92;fill-rule:nonzero;stroke-width:0.500054"
   id="path1" />
        <path
   d="m 191.99237,149.32779 c 0,23.56703 -19.10205,42.66859 -42.66908,42.66859 H 63.985624 l 42.669086,-42.66859 h 28.44755 c 7.85385,0 14.22103,-6.36718 14.22103,-14.22103 0,-0.20252 0,-0.40004 -0.0105,-0.59706 0,-0.13851 -0.0105,-0.26653 -0.0215,-0.39954 0,-0.032 0,-0.0585 -0.0105,-0.096 0,-0.085 -0.0105,-0.17552 -0.0215,-0.26103 0,-0.0745 -0.0105,-0.14902 -0.021,-0.22353 -0.0105,-0.075 -0.016,-0.16001 -0.032,-0.23452 0,-0.048 -0.0105,-0.096 -0.016,-0.13852 -0.016,-0.12801 -0.0375,-0.25052 -0.0535,-0.37304 0,-0.0105 0,-0.0215 -0.0105,-0.032 -0.0265,-0.16002 -0.053,-0.31453 -0.0905,-0.47405 -0.003,-0.0495 -0.014,-0.098 -0.032,-0.14402 -0.032,-0.16001 -0.0695,-0.31953 -0.10651,-0.47955 -0.0105,-0.032 -0.016,-0.064 -0.0265,-0.096 -0.0385,-0.15001 -0.0795,-0.29903 -0.12251,-0.44755 -0.054,-0.18802 -0.11251,-0.37454 -0.17602,-0.55956 -0.11201,-0.33003 -0.24003,-0.66057 -0.37304,-0.9801 -0.0885,-0.20852 -0.18252,-0.41455 -0.28253,-0.61807 -0.0895,-0.19352 -0.18552,-0.38354 -0.28753,-0.57056 -0.12801,-0.23952 -0.26653,-0.47405 -0.39954,-0.70307 -0.0885,-0.14202 -0.17902,-0.28203 -0.27203,-0.42105 -0.10051,-0.15702 -0.20703,-0.30953 -0.31954,-0.45805 -0.0465,-0.0695 -0.0965,-0.13701 -0.14901,-0.20252 -0.08,-0.11201 -0.16552,-0.21852 -0.25603,-0.33054 -0.0745,-0.10101 -0.16002,-0.20252 -0.24503,-0.30353 -0.11901,-0.14001 -0.24002,-0.27853 -0.36254,-0.41554 -0.14901,-0.16552 -0.29803,-0.32504 -0.45805,-0.47955 -2.66228,-2.67429 -6.28617,-4.17695 -10.05958,-4.17195 l 14.22103,-14.22153 c 0.27703,0 0.55406,0 0.83109,0.011 0.20802,0 0.41555,0.01 0.62907,0.016 0.56006,0.0165 1.11962,0.0465 1.67818,0.09 0.18102,0.011 0.36754,0.027 0.54906,0.0485 0.69757,0.053 1.39565,0.13301 2.08322,0.22352 0.20252,0.0265 0.39954,0.0535 0.60207,0.085 0.26652,0.0375 0.53805,0.08 0.80458,0.12801 l 0.55956,0.096 c 0.0425,0.0105 0.0905,0.0105 0.13302,0.0265 0.24502,0.043 0.49555,0.091 0.74058,0.13901 0.30903,0.0635 0.62356,0.13302 0.9326,0.20202 l 0.19152,0.048 c 0.31453,0.075 0.63407,0.14952 0.9431,0.22952 0.011,0 0.0215,0 0.032,0.01 0.33054,0.0855 0.65557,0.17601 0.98061,0.26702 0.33553,0.0955 0.67657,0.19703 1.00711,0.30354 0.30203,0.0905 0.60206,0.18602 0.90059,0.28753 0.037,0.016 0.0795,0.032 0.12252,0.043 0.29303,0.10101 0.59106,0.20202 0.88409,0.31404 0.043,0.011 0.0855,0.032 0.12801,0.048 0.30904,0.11201 0.61807,0.22403 0.9221,0.35154 0.32504,0.12251 0.64457,0.25603 0.96411,0.39454 0.65907,0.27453 1.30964,0.56956 1.95021,0.8846 0.29153,0.13951 0.58106,0.28353 0.86859,0.43154 0.30903,0.16002 0.61257,0.31404 0.9111,0.47955 0.30353,0.16002 0.60206,0.33004 0.90059,0.50056 0.29804,0.17052 0.59107,0.34654 0.8896,0.52255 0.27203,0.16502 0.54906,0.33004 0.81509,0.50056 0.027,0.016 0.048,0.032 0.075,0.048 0.57156,0.36904 1.13462,0.75108 1.68868,1.14563 0.55756,0.39604 1.10462,0.80658 1.64117,1.23063 0.24503,0.19202 0.48506,0.38404 0.72458,0.58656 0.043,0.0315 0.08,0.0635 0.12251,0.0955 0.77109,0.63907 1.51967,1.30564 2.24324,1.99822 0.24553,0.24002 0.49056,0.47405 0.73558,0.71957 0.24503,0.24503 0.47956,0.48456 0.71908,0.73508 0.23453,0.24503 0.46355,0.49556 0.69808,0.74608 0.40504,0.44755 0.80458,0.9006 1.18812,1.36415 0.0855,0.0955 0.16552,0.20202 0.24503,0.30353 0.18652,0.22353 0.36804,0.44755 0.54906,0.67657 0.41854,0.52956 0.82359,1.06962 1.21463,1.61968 0.39104,0.55006 0.011,0.011 0.011,0.0215 0.20252,0.27703 0.39404,0.55956 0.58606,0.84709 0.19152,0.28253 0.37804,0.57006 0.57007,0.85809 0.18101,0.28753 0.36253,0.57006 0.53805,0.8631 0.032,0.0585 0.0695,0.11701 0.10151,0.17051 0.14352,0.23953 0.28753,0.47956 0.42605,0.72458 0.17052,0.29853 0.34104,0.59657 0.50105,0.9006 0.12252,0.22352 0.24503,0.45305 0.36204,0.68207 0.31604,0.61107 0.61807,1.22963 0.9061,1.8542 0.0795,0.17052 0.15952,0.34104 0.23402,0.51656 0.11752,0.26103 0.22953,0.52255 0.34104,0.78858 0.11751,0.28253 0.23453,0.57006 0.34654,0.85259 0.10651,0.26653 0.21302,0.54356 0.30903,0.81509 0.048,0.12301 0.096,0.25053 0.13852,0.37854 0.0745,0.19702 0.14401,0.38904 0.20802,0.58606 0.13301,0.38905 0.26603,0.78309 0.38354,1.17763 0.096,0.28753 0.18102,0.58056 0.26103,0.86859 0.0265,0.0745 0.048,0.15452 0.069,0.22903 0.0855,0.30353 0.16551,0.60756 0.24552,0.9111 0,0.0105 0.0105,0.0215 0.0105,0.032 0.0745,0.28753 0.14902,0.58056 0.21303,0.86859 0.10151,0.42605 0.19702,0.8631 0.28803,1.29464 0.053,0.25603 0.0955,0.51156 0.14351,0.77259 0.0535,0.27203 0.096,0.54355 0.13852,0.81508 0.032,0.19752 0.064,0.39455 0.096,0.59707 0.032,0.23952 0.0695,0.47955 0.096,0.71907 0.0215,0.14952 0.037,0.29304 0.053,0.44255 0.032,0.25003 0.059,0.50606 0.0855,0.76158 v 0.011 c 0.0375,0.34603 0.069,0.68707 0.096,1.03361 0,0.032 0,0.0745 0.0105,0.11201 0.0265,0.32503 0.0425,0.64457 0.0585,0.9696 0,0.0425 0,0.0905 0.011,0.13852 0.016,0.31453 0.0265,0.62856 0.0315,0.9431 v 0.14401 c 0.011,0.34104 0.011,0.68208 0.011,1.02311 z"
   style="fill:#078465;fill-rule:nonzero;stroke-width:0.500054"
   id="path2" />
    </g>
</svg>
