<?xml version="1.0" encoding="UTF-8" standalone="no"?>
<svg
   width="512.00031"
   height="677.65179"
   viewBox="0 0 512.00031 677.65179"
   version="1.1"
   xml:space="preserve"
   style="clip-rule:evenodd;fill-rule:evenodd;stroke-linejoin:round;stroke-miterlimit:2"
   id="svg1"
   xmlns="http://www.w3.org/2000/svg"
   xmlns:svg="http://www.w3.org/2000/svg"><defs
   id="defs1" />
    <g
   transform="matrix(4.06892,0,0,4.06892,-248.2058,-173.17444)"
   id="g1">
        <path
   d="M 186.5036,109.5141 C 189.12156,92.014286 175.79618,82.60658 157.57569,76.331025 l 5.91026,-23.705885 -14.43119,-3.596052 -5.75408,23.081175 c -3.79392,-0.945667 -7.69042,-1.83707 -11.56243,-2.720531 l 5.79511,-23.233383 -14.42259,-3.596052 -5.91489,23.697944 c -3.14009,-0.716034 -6.22261,-1.422803 -9.21513,-2.166631 l 0.0165,-0.07346 -19.902034,-4.969223 -3.838922,15.411936 c 0,0 10.707421,2.453839 10.481096,2.605384 5.84474,1.4592 6.90093,5.326577 6.72423,8.392553 l -6.732171,27.00613 c 0.402355,0.10257 0.924491,0.25015 1.50023,0.48044 -0.481106,-0.11911 -0.994639,-0.25081 -1.525377,-0.37787 l -9.436825,37.83135 c -0.715372,1.77486 -2.527957,4.43848 -6.613718,3.4273 0.144266,0.20978 -10.489037,-2.61796 -10.489037,-2.61796 l -7.16431,16.51775 18.779678,4.68069 c 3.494139,0.87552 6.91747,1.79207 10.287859,2.65502 l -5.971803,23.97655 14.41465,3.59671 5.914894,-23.72243 c 3.82237,1.03633 7.656,2.03097 11.50022,2.98392 l -5.89438,23.61125 14.43119,3.59605 5.97247,-23.93155 c 24.60854,4.65621 43.11292,2.77811 50.90194,-19.47652 6.27621,-17.91937 -0.31236,-28.25554 -13.25986,-34.99566 9.42888,-2.17391 16.53164,-8.37601 18.42629,-21.18587 z m -32.97264,46.23118 c -4.45966,17.91938 -34.63301,8.2324 -44.41594,5.80305 l 7.92468,-31.76491 c 9.78293,2.44127 41.1521,7.27483 36.49126,25.96186 z m 4.46363,-46.49059 c -4.06921,16.30003 -29.18268,8.01865 -37.32972,5.98835 l 7.18483,-28.810112 c 8.14703,2.030306 34.38286,5.819595 30.14489,22.821762 z"
   style="fill:#ef4800;fill-rule:nonzero;stroke-width:0.661769"
   id="path1" />
    </g>
</svg>
