<?xml version="1.0" encoding="UTF-8" standalone="no"?>
<svg
   width="763.15326"
   height="762.77655"
   viewBox="0 0 763.15326 762.77655"
   version="1.1"
   xml:space="preserve"
   style="clip-rule:evenodd;fill-rule:evenodd;stroke-linejoin:round;stroke-miterlimit:2"
   id="svg2"
   xmlns="http://www.w3.org/2000/svg"
   xmlns:svg="http://www.w3.org/2000/svg"><defs
   id="defs2" />
    <g
   transform="matrix(3.95941,0,0,3.98627,-124.68346,-128.61272)"
   id="g2">
        <path
   d="m 128.20313,191.97789 c 35.81907,0 64.6565,-28.83742 64.6565,-63.74564 0,-34.908227 -28.83743,-63.744903 -64.6565,-63.744903 -35.818317,0 -64.655741,28.836676 -64.655741,63.744903 0,34.90822 28.837424,63.74564 64.655741,63.74564 z"
   style="fill:#ef4800;fill-rule:nonzero;stroke-width:0.74782"
   id="path1" />
        <path
   d="m 182.39165,195.78579 c 3.47586,3.29265 3.26423,8.9185 -0.7224,11.57102 -37.49942,24.95025 -88.418462,21.29192 -121.721117,-11.72582 -37.943624,-37.64001 -37.943624,-97.743024 0,-135.383033 33.129909,-33.129161 84.531297,-36.700748 122.097277,-11.472302 3.80939,2.559039 4.08309,7.926889 0.8383,11.172426 -2.76918,2.768429 -7.15215,2.989783 -10.42461,0.839802 C 141.22342,40.276684 98.666499,43.993348 71.483252,71.176594 39.307561,102.44144 39.307561,153.43751 70.87677,184.7031 c 27.187734,27.18774 69.75513,30.90141 100.99156,10.3775 3.28517,-2.15896 7.66964,-1.99818 10.52332,0.70519 z m 14.00516,-13.68809 c 3.2949,3.47811 8.92224,3.28442 11.59495,-0.69173 21.74884,-32.35442 21.65686,-75.06914 -0.2767,-107.336061 -2.57025,-3.780229 -7.91193,-4.032992 -11.14475,-0.800167 -2.78488,2.784132 -2.99278,7.197016 -0.80765,10.473215 17.65154,26.469083 17.62462,60.895703 -0.08,87.806743 -2.16644,3.29265 -1.99668,7.68609 0.71416,10.548 z"
   style="fill:#ef4800;fill-rule:nonzero;stroke-width:0.74782"
   id="path2" />
    </g>
</svg>
