<?xml version="1.0" encoding="UTF-8" standalone="no"?>
<svg
   width="511.99963"
   height="470.77933"
   viewBox="0 0 511.99963 470.77933"
   version="1.1"
   xml:space="preserve"
   style="clip-rule:evenodd;fill-rule:evenodd;stroke-linejoin:round;stroke-miterlimit:2"
   id="svg1"
   xmlns="http://www.w3.org/2000/svg"
   xmlns:svg="http://www.w3.org/2000/svg"><defs
   id="defs1" />
    <g
   transform="matrix(4.33898,0,0,4.33898,-290.71166,-348.20315)"
   id="g1">
        <path
   d="m 137.9785,138.559 v -0.0155 c -0.6725,0.0465 -4.144,0.2495 -11.869,0.2495 -6.177,0 -10.5085,-0.1715 -12.041,-0.2495 v 0.0155 c -23.753,-1.046 -41.47,-5.1675 -41.47,-10.1165 0,-4.933 17.7325,-9.07 41.47,-10.116 v 16.1265 c 1.5485,0.1095 6.005,0.375 12.1505,0.375 7.381,0 11.071,-0.3125 11.7595,-0.375 v -16.111 c 23.706,1.0615 41.3765,5.183 41.3765,10.1165 0,4.933 -17.686,9.0545 -41.3765,10.116 m 0,-21.903 v -14.425 h 33.073 V 80.25 h -90.04 v 21.9965 h 33.073 v 14.425 C 87.2035,117.905 67,123.213 67,129.5825 c 0,6.3695 20.219,11.6775 47.0845,12.926 V 188.75 h 23.9095 v -46.2415 c 26.8335,-1.233 47.006,-6.541 47.006,-12.9105 0,-6.354 -20.1725,-11.6775 -47.006,-12.911"
   style="fill:#26a17b;fill-rule:nonzero;stroke-width:0.5"
   id="path1" />
    </g>
</svg>
