<?xml version="1.0" encoding="UTF-8" standalone="no"?>
<svg
   width="511.99994"
   height="1000.9476"
   viewBox="0 0 511.99994 1000.9476"
   version="1.1"
   xml:space="preserve"
   style="clip-rule:evenodd;fill-rule:evenodd;stroke-linejoin:round;stroke-miterlimit:2"
   id="svg1"
   xmlns="http://www.w3.org/2000/svg"
   xmlns:svg="http://www.w3.org/2000/svg"><defs
   id="defs1" />
    <g
   transform="matrix(3.12899,0,0,3.12899,-540.32485,-524.20939)"
   id="g1">
        <path
   d="M 259.8869,487.4279 H 230.41572 V 450.03908 H 172.68347 V 211.6304 h 57.73225 v -44.0973 h 29.47118 v 44.7571 c 15.98189,0.29325 29.39787,2.78583 40.24796,7.47776 h -0.10948 c 8.43081,3.51895 15.21163,9.93321 20.34343,19.24376 2.27265,4.32537 3.99596,8.66932 5.16894,13.03086 1.17298,4.36251 1.75947,8.85308 1.75947,13.4717 0,20.16064 -7.84432,36.61856 -23.53296,49.37474 -1.90609,1.61285 -3.83076,3.09765 -5.77303,4.45343 -1.94324,1.35675 -4.16115,2.8044 -6.65374,4.34394 7.11121,2.5659 13.61833,5.9568 19.51941,10.17171 5.90205,4.2159 11.05145,9.1825 15.45013,14.90079 6.67134,8.79737 10.0075,20.16064 10.0075,34.0898 0,12.09638 -3.07908,23.31303 -9.23724,33.64994 -6.01154,10.19028 -14.36904,18.18123 -25.0725,23.97283 -10.77678,5.93822 -24.8164,9.12775 -42.11789,9.56762 z m 0,-178.4771 c 1.68616,-0.43987 3.46421,-1.06253 5.33414,-1.86895 1.86895,-0.80643 3.82978,-1.75948 5.8825,-2.85915 2.34597,-1.24629 4.61862,-3.07908 6.81796,-5.49835 2.19935,-2.41928 4.17875,-5.38888 5.93823,-8.90783 1.75947,-3.59226 3.09765,-7.00075 4.01453,-10.22645 0.9159,-3.2257 1.37435,-6.34193 1.37435,-9.34769 0,-7.40445 -3.04292,-13.67209 -9.12776,-18.80389 -3.51895,-3.44563 -10.2636,-5.90206 -20.23395,-7.36828 z M 230.41572,243.4104 H 211.0615 v 68.07013 h 19.35422 z m 29.47118,175.06764 c 2.5659,-0.14663 5.04089,-0.4213 7.42302,-0.825 2.38311,-0.40273 4.74667,-0.97065 7.09264,-1.70376 2.5659,-0.80642 4.91186,-1.81519 7.03789,-3.02434 2.12603,-1.21013 4.06927,-2.62064 5.82875,-4.23349 h -0.11046 c 6.59803,-6.37809 9.89704,-14.22241 9.89704,-23.53296 0,-7.11121 -2.05272,-13.893 -6.15816,-20.3444 h 0.11046 c -3.73888,-5.71829 -9.75042,-10.55684 -18.03461,-14.51566 -4.47199,-2.19934 -8.83451,-3.92167 -13.08657,-5.16797 z m -48.8254,-75.65737 v 75.76782 h 19.35422 v -75.76782 z"
   style="fill:#003f20;fill-rule:nonzero;stroke-width:0.977485"
   id="path1" />
    </g>
</svg>
