<?xml version="1.0" encoding="UTF-8" standalone="no"?>
<svg
   width="512"
   height="210.98976"
   viewBox="0 0 512 210.98976"
   version="1.1"
   xml:space="preserve"
   style="clip-rule:evenodd;fill-rule:evenodd;stroke-linejoin:round;stroke-miterlimit:2"
   id="svg3"
   xmlns="http://www.w3.org/2000/svg"
   xmlns:svg="http://www.w3.org/2000/svg"><defs
   id="defs3" />
    <g
   transform="matrix(4,0,0,4,255.984,104.99712)"
   id="g3">
        <g
   transform="translate(-128,-53)"
   id="g2">
            <clipPath
   id="_clip1">
                <rect
   x="0"
   y="0"
   width="256"
   height="106"
   id="rect1" />
            </clipPath>
            <g
   clip-path="url(#_clip1)"
   id="g1">
                <path
   d="m 96.6235,38.57872 h 9.639 c 0.451,0 0.815,0.363 0.815,0.8125 v 26.4615 c 0,0.45 -0.364,0.8125 -0.815,0.8125 h -9.639 c -0.451,0 -0.815,-0.363 -0.815,-0.8125 v -26.4615 c 0,-0.4495 0.364,-0.8125 0.815,-0.8125 z m 35.4515,-0.4695 c 4.757,0 8.3895,1.232 10.894,3.697 2.4425,2.402 3.662,5.8365 3.662,10.2975 v 13.745 c 0,0.45 -0.364,0.8125 -0.815,0.8125 h -9.6385 c -0.451,0 -0.815,-0.363 -0.815,-0.8125 v -13.5585 c 0,-3.215 -2.3475,-4.821 -7.042,-4.821 -4.6945,0 -7.0415,1.609 -7.0415,4.821 v 13.5585 c 0,0.45 -0.3645,0.8125 -0.815,0.8125 h -9.639 c -0.451,0 -0.815,-0.363 -0.815,-0.8125 v -26.461 c 0,-0.45 0.364,-0.813 0.815,-0.813 h 9.639 c 0.4505,0 0.815,0.363 0.815,0.813 v 2.3235 c 2.502,-2.4 6.1015,-3.602 10.796,-3.602 z m 59.929,0.826 c -0.001,-0.44 -0.359,-0.804 -0.799,-0.8125 -1.823,-0.049 -5.9685,0.3115 -8.6905,2.156 -0.655,0.444 -1.288,0.8965 -1.8505,1.435 v 0.0055 c -3.2135,-2.405 -7.802,-3.61 -13.7815,-3.61 -6.1345,0 -10.832,1.281 -14.0865,3.8375 -3.1295,2.4975 -4.6945,6.0535 -4.6945,10.674 0,4.618 1.565,8.177 4.6945,10.674 2.092,1.644 4.7815,2.757 8.0635,3.345 v 0.0025 c 1.907,0.355 4.132,0.5365 6.7945,0.5095 0.752,-0.023 1.503,-0.067 2.252,-0.133 0.5895,-0.0445 1.177,-0.106 1.763,-0.184 0.351,-0.0425 0.7015,-0.0895 1.0515,-0.141 0.7925,-0.119 1.5425,0.4345 1.6625,1.227 0.116,0.7925 -0.4405,1.5405 -1.233,1.6575 -2.1275,0.3145 -4.445,0.504 -6.2025,0.504 -2.089,0 -4.04,-0.141 -5.849,-0.4225 -1.188,-0.181 -2.363,-0.439 -3.518,-0.772 -0.416,-0.1195 -0.859,0.112 -0.9975,0.5225 l -2.3795,7.118 c -0.135,0.407 0.0735,0.855 0.4725,1.013 3.04,1.2215 6.4575,1.668 9.7125,1.847 4.4825,0.2465 9.313,0.141 13.6785,-0.9695 1.0705,-0.271 2.138,-0.6285 3.108,-1.143 0.641,-0.3385 1.2415,-0.7475 1.7715,-1.2435 1.214,-1.1375 1.9995,-2.684 2.374,-4.3035 0.7715,-3.318 0.326,-7.394 -2.9015,-9.241 -0.111,-0.0625 -0.2305,-0.125 -0.353,-0.184 2.3935,-2.416 3.5915,-5.645 3.5915,-9.683 0,-1.7985 -0.2415,-3.434 -0.7145,-4.91 0.807,-0.1575 1.725,-0.2415 2.7605,-0.2415 1.2655,0 2.3605,0.1165 3.2845,0.3525 0.0645,0.0165 0.131,0.0245 0.198,0.0245 0.4455,0 0.8125,-0.367 0.8125,-0.8125 0,0 0,-5e-4 0,-5e-4 z m -25.1215,8.537 c 5.0065,0 7.5115,1.717 7.5115,5.1485 0,3.4345 -2.505,5.149 -7.5115,5.149 -5.01,0 -7.512,-1.7175 -7.512,-5.149 0,-3.4315 2.502,-5.1485 7.512,-5.1485 z m -74.0055,-0.815 v -7.267 c 0,-0.4495 -0.3635,-0.8125 -0.815,-0.8125 H 81.611 v -11.01 c 0,-0.555 -0.546,-0.945 -1.073,-0.7715 l -9.639,3.2095 c -0.3315,0.11 -0.557,0.422 -0.557,0.7715 v 7.803 h -5.523 c -0.451,0 -0.815,0.363 -0.815,0.8125 v 7.2645 c 0,0.4495 0.364,0.8125 0.815,0.8125 h 5.523 v 8.9185 c 0,3.9 1.2985,6.695 3.896,8.38 2.472,1.59 6.4955,2.386 12.0675,2.386 2.095,0 4.0615,-0.1625 5.906,-0.485 0.384,-0.07 0.666,-0.408 0.666,-0.7985 v -7.692 c 0,-0.509 -0.465,-0.891 -0.9675,-0.7965 -1.483,0.2765 -2.8825,0.412 -4.197,0.412 -2.0975,0 -3.6,-0.19 -4.507,-0.5635 -1.065,-0.4035 -1.595,-1.154 -1.595,-2.245 v -7.5165 h 10.451 c 0.4515,0 0.815,-0.363 0.815,-0.8125 z m 13.3855,-10.9985 h -9.639 c -0.451,0 -0.815,-0.363 -0.815,-0.8125 v -7.283 c 0,-0.45 0.364,-0.8125 0.815,-0.8125 h 9.639 c 0.451,0 0.815,0.363 0.815,0.8125 v 7.283 c 0,0.447 -0.3665,0.8125 -0.815,0.8125 z"
   style="fill:#ff9920;fill-rule:nonzero;stroke-width:0.5"
   id="path1" />
            </g>
        </g>
    </g>
</svg>
