<?xml version="1.0" encoding="UTF-8" standalone="no"?>
<svg
   width="511.99994"
   height="681.66553"
   viewBox="0 0 511.99994 681.66553"
   version="1.1"
   xml:space="preserve"
   style="clip-rule:evenodd;fill-rule:evenodd;stroke-linejoin:round;stroke-miterlimit:2"
   id="svg1"
   xmlns="http://www.w3.org/2000/svg"
   xmlns:svg="http://www.w3.org/2000/svg"><defs
   id="defs1" />
    <g
   transform="matrix(4.02784,0,0,4.02784,-128.18949,-174.69249)"
   id="g1">
        <path
   d="m 31.825865,82.192101 c 0,-6.103655 4.959553,-11.059875 11.070537,-11.059875 H 95.383833 L 122.55976,45.204354 c 2.5614,-2.444127 6.64538,-2.444127 9.20679,0 l 27.17458,25.928538 V 173.17587 c 0,6.44215 -5.23408,11.67157 -11.6829,11.67157 H 95.3825 l -27.174589,25.92921 c -2.561403,2.44412 -6.646054,2.44412 -9.207456,0 l -27.17459,-25.92987 z m 81.675025,39.806359 c -1.22473,1.22273 -3.23907,1.22273 -4.46379,0 l -0.002,-0.002 -8.73902,-8.72836 c -2.711333,-2.71 -7.116492,-2.71 -9.827821,0 l -8.738354,8.73036 c -1.226062,1.22206 -3.238402,1.22206 -4.464464,0 l -0.002,-0.002 -8.744351,-8.73569 c -2.713328,-2.71066 -7.116488,-2.71066 -9.829816,0 l -9.829816,9.81982 c -2.711329,2.71 -2.711329,7.10916 0,9.81982 l 9.829816,9.81782 c 2.713328,2.71066 7.116488,2.71066 9.829816,0 l 8.74635,-8.73769 c 1.220731,-1.21806 3.227741,-1.2174 4.447139,0.002 h 0.004 l 8.751681,8.74369 c 2.711329,2.70999 7.116488,2.70999 9.82782,0 l 8.75234,-8.74369 c 1.22273,-1.22006 3.23174,-1.22006 4.45447,0 l 8.74502,8.73569 c 2.71266,2.71066 7.11649,2.71066 9.82915,0 l 9.82981,-9.81782 c 2.71133,-2.71066 2.71133,-7.10982 0,-9.81982 l -9.82981,-9.81982 c -2.71266,-2.71066 -7.11649,-2.71066 -9.82915,0 z"
   style="fill:#f1a200;stroke-width:0.666338"
   id="path1" />
    </g>
</svg>
