<?xml version="1.0" encoding="UTF-8" standalone="no"?>
<svg
   width="1024"
   height="1024.0001"
   viewBox="0 0 1024 1024.0001"
   version="1.1"
   xml:space="preserve"
   style="clip-rule:evenodd;fill-rule:evenodd;stroke-linejoin:round;stroke-miterlimit:2"
   id="svg2"
   xmlns="http://www.w3.org/2000/svg"
   xmlns:svg="http://www.w3.org/2000/svg"><defs
   id="defs2" />
    <g
   transform="scale(4)"
   id="g1">
        <path
   d="M 90.331,5.65 C 102.235,1.975 114.907,0 128,0 V 128 H 0 C 0,114.871 1.975,102.235 5.65,90.313 18.066,49.92 49.938,18.048 90.331,5.65 Z"
   style="fill:#a2c4b8;fill-rule:nonzero"
   id="path1" />
    </g>
    <g
   transform="scale(4)"
   id="g2">
        <path
   d="m 128,192 c 0,17.682 -7.168,33.682 -18.743,45.239 -5.468,5.482 -11.887,9.924 -18.944,13.111 C 82.043,254.081 73.073,256.008 64,256 46.318,256 30.318,248.832 18.743,237.239 7.168,225.682 0,209.682 0,192 0,182.619 2.03,173.714 5.65,165.687 8.83,158.631 13.267,152.212 18.743,146.743 30.336,135.15 46.336,128 64,128 c 0,17.682 7.168,33.682 18.743,45.239 C 94.336,184.832 110.336,192 128,192 Z M 256,128 H 128 V 0 c 13.111,0 25.746,1.975 37.65,5.65 h 0.019 c 40.393,12.398 72.265,44.27 84.681,84.663 3.693,11.922 5.65,24.577 5.65,37.687 z m 0,0 v 64 c 0,17.682 -7.168,33.682 -18.743,45.239 C 225.664,248.832 209.664,256 192,256 c -9.073,0.008 -18.043,-1.919 -26.313,-5.65 -7.051,-3.196 -13.469,-7.637 -18.944,-13.111 C 135.168,225.682 128,209.682 128,192 v -64 z"
   style="fill:#099250;fill-rule:nonzero"
   id="path2" />
    </g>
</svg>
