<?xml version="1.0" encoding="UTF-8" standalone="no"?>
<svg
   width="512.00037"
   height="787.84235"
   viewBox="0 0 512.00037 787.84235"
   version="1.1"
   xml:space="preserve"
   style="clip-rule:evenodd;fill-rule:evenodd;stroke-linejoin:round;stroke-miterlimit:2"
   id="svg1"
   xmlns="http://www.w3.org/2000/svg"
   xmlns:svg="http://www.w3.org/2000/svg"><defs
   id="defs1" />
    <g
   transform="matrix(4.36557,0,0,4.36557,-1160.9918,-1508.8627)"
   id="g1">
        <path
   d="m 319.38982,507.81012 c -15.43523,-0.57703 -27.53521,-4.20156 -36.29841,-10.8736 -8.76396,-6.67126 -14.48043,-16.67931 -17.14863,-30.02337 l 24.66775,-4.76013 c 1.5149,8.29464 4.5801,14.4258 9.19636,18.39271 4.61626,3.9669 11.14441,6.31119 19.58293,7.0321 v -46.09026 c -3.24523,-0.79323 -6.67203,-1.71264 -10.2781,-2.75899 -3.60683,-1.04558 -7.03286,-2.16349 -10.27809,-3.35371 -3.246,-1.19023 -5.91497,-2.39815 -8.0069,-3.62453 -6.41891,-3.67839 -11.23367,-8.2231 -14.44351,-13.63258 -3.20984,-5.40949 -4.81476,-12.11768 -4.81476,-20.12381 0,-11.75684 4.09309,-20.86318 12.28002,-27.31902 8.18694,-6.45584 20.03379,-10.00805 35.54134,-10.65663 v -14.39042 h 12.33465 v 14.39042 c 8.944,0.43239 16.55313,1.83881 22.82816,4.21926 6.27581,2.38045 11.45063,6.18501 15.52602,11.41447 4.07539,5.22945 7.23137,12.28001 9.46718,21.15169 l -25.3171,4.00307 c -1.22639,-6.41968 -3.60684,-11.39601 -7.14135,-14.93052 -3.53375,-3.53452 -8.65549,-5.698 -15.36291,-6.492 v 41.43861 c 3.24523,0.64936 6.74358,1.47875 10.49429,2.48817 3.75071,1.01019 7.86226,2.30813 12.33387,3.89535 9.80955,3.53375 17.04092,8.45699 21.69334,14.76818 4.65242,6.3112 6.97825,14.29963 6.97825,23.96454 0,12.69471 -4.3816,22.63043 -13.14557,29.80795 -8.7632,7.17674 -21.54869,11.12595 -38.35418,11.84686 v 18.50119 H 319.38982 Z M 296.66937,397.56079 c 0,3.60683 0.68551,6.56432 2.05577,8.87245 1.51491,2.74052 3.80457,4.90477 6.87053,6.49123 3.0652,1.58722 7.66376,3.31832 13.79415,5.19329 v -39.16588 c -15.14671,1.00942 -22.72045,7.2129 -22.72045,18.60891 z m 61.56242,68.81149 c 0,-3.96691 -0.73937,-7.21291 -2.21811,-9.73723 -1.47874,-2.5251 -3.62453,-4.61626 -6.43737,-6.27581 -2.88516,-1.58645 -8.83629,-3.64222 -17.85184,-6.16655 v 43.38514 c 8.72703,-0.57703 15.32674,-2.6505 19.79913,-6.22118 4.47162,-3.56991 6.70819,-8.5647 6.70819,-14.98437 z"
   style="fill:#003f20;fill-rule:nonzero;stroke-width:0.769376"
   id="path1" />
    </g>
</svg>
