<?xml version="1.0" encoding="UTF-8" standalone="no"?>
<svg
   width="512.00024"
   height="677.65094"
   viewBox="0 0 512.00024 677.65094"
   version="1.1"
   xml:space="preserve"
   style="clip-rule:evenodd;fill-rule:evenodd;stroke-linejoin:round;stroke-miterlimit:2"
   id="svg1"
   xmlns="http://www.w3.org/2000/svg"
   xmlns:svg="http://www.w3.org/2000/svg"><defs
   id="defs1" />
    <g
   transform="matrix(4.06892,0,0,4.06892,-248.14119,-173.17488)"
   id="g1">
        <path
   d="M 186.48756,109.51412 C 189.10617,92.01433 175.78081,82.606636 157.55969,76.331089 l 5.91025,-23.705854 -14.43117,-3.596048 -5.75408,23.081146 c -3.79391,-0.945667 -7.6904,-1.837068 -11.56241,-2.720528 l 5.79577,-23.233353 -14.42324,-3.596047 -5.91422,23.697913 c -3.14075,-0.716033 -6.22327,-1.422801 -9.21578,-2.166628 l 0.0165,-0.07346 -19.902009,-4.969216 -3.838254,15.411916 c 0,0 10.707407,2.453836 10.48042,2.605381 5.845393,1.459198 6.901583,5.326571 6.724883,8.392542 l -6.732824,27.006097 c 0.403017,0.10257 0.925152,0.25015 1.500228,0.48044 -0.481105,-0.11912 -0.994637,-0.25081 -1.524714,-0.37787 l -9.436812,37.83129 c -0.716033,1.77487 -2.527954,4.43848 -6.613709,3.4273 0.143603,0.20978 -10.489024,-2.61795 -10.489024,-2.61795 l -7.164962,16.51773 18.779653,4.68068 c 3.494135,0.87552 6.918123,1.79207 10.288508,2.65502 l -5.972457,23.97651 14.414631,3.59671 5.914882,-23.7224 c 3.82237,1.03633 7.656,2.03097 11.50021,2.98392 l -5.89371,23.61122 14.43118,3.59605 5.97179,-23.93152 c 24.60851,4.6562 43.11286,2.7781 50.90187,-19.4765 6.27621,-17.91935 -0.31235,-28.25551 -13.25984,-34.99561 9.42887,-2.17391 16.53162,-8.376 18.42627,-21.18585 z m -32.9726,46.23112 c -4.45965,17.91935 -34.63296,8.23239 -44.41522,5.80304 l 7.92467,-31.76486 c 9.78226,2.44126 41.15205,7.27481 36.49055,25.96182 z m 4.46363,-46.49053 c -4.06921,16.30001 -29.18265,8.01864 -37.32901,5.98834 l 7.18481,-28.810072 c 8.14637,2.030305 34.38216,5.819589 30.1442,22.821732 z"
   style="fill-rule:nonzero;stroke-width:0.661768"
   id="path1" />
    </g>
</svg>
