<?xml version="1.0" encoding="UTF-8" standalone="no"?>
<svg
   width="511.99756"
   height="511.99176"
   viewBox="0 0 511.99756 511.99176"
   version="1.1"
   xml:space="preserve"
   style="clip-rule:evenodd;fill-rule:evenodd;stroke-linejoin:round;stroke-miterlimit:2"
   id="svg5"
   xmlns="http://www.w3.org/2000/svg"
   xmlns:svg="http://www.w3.org/2000/svg"><defs
   id="defs5" />
    <g
   transform="matrix(4,0,0,4,256.0013,255.99912)"
   id="g5">
        <g
   transform="translate(-128,-128)"
   id="g4">
            <g
   id="g3">
                <clipPath
   id="_clip1">
                    <rect
   x="0"
   y="0"
   width="256"
   height="256"
   id="rect1" />
                </clipPath>
                <g
   clip-path="url(#_clip1)"
   id="g2">
                    <g
   id="g1">
                        <path
   d="m 191.13807,121.29616 c -0.1795,-2.63947 -1.39799,-5.10245 -3.38697,-6.84693 -1.98648,-1.74249 -4.58596,-2.62598 -7.22293,-2.45448 h -0.3885 c -2.50197,0.286 -4.79695,1.53399 -6.39643,3.47897 -1.60099,1.94748 -2.38548,4.44245 -2.18698,6.95593 v 0.3915 c 0.46949,3.46246 0.46949,6.97193 0,10.43439 v 0.3915 c -0.587,3.90496 -1.64749,7.72392 -3.15847,11.37189 -3.00197,7.11693 -7.81443,13.32537 -13.95837,18.00682 -6.13944,4.67746 -13.39886,7.66543 -21.05229,8.66392 -7.65092,0.99699 -15.43135,-0.0305 -22.56128,-2.97897 -7.13543,-2.95047 -13.375369,-7.71943 -18.095823,-13.82987 -4.723453,-6.11494 -7.767424,-13.36037 -8.827413,-21.01429 -1.05999,-7.65543 -0.100999,-15.45635 2.781473,-22.62728 2.878971,-7.16743 7.583925,-13.45787 13.645863,-18.244323 6.05794,-4.782953 13.26487,-7.894923 20.9003,-9.024912 5.18895,-0.706493 10.4574,-0.573994 15.60435,0.391497 3.06597,0.446495 5.83294,2.092479 7.68792,4.574455 1.85698,2.483476 2.65598,5.604445 2.22098,8.674915 -0.64099,2.690978 -2.30098,5.031948 -4.62845,6.526938 -2.32548,1.49298 -5.14195,2.02598 -7.85193,1.48498 h -0.39249 c -0.8555,-0.21299 -1.73199,-0.33099 -2.61348,-0.35149 h -0.3505 c -1.42548,-0.1575 -2.85947,-0.2225 -4.29345,-0.195 -4.28496,0.2465 -8.41692,1.68848 -11.92439,4.16246 -3.51146,2.47547 -6.26194,5.88394 -7.93942,9.8394 -1.67898,3.95846 -2.21998,8.30792 -1.56198,12.55688 0.65799,4.24746 2.48997,8.22742 5.28794,11.48989 2.79598,3.26047 6.44944,5.67444 10.5454,6.96743 4.09346,1.29099 8.46792,1.40949 12.62538,0.3415 4.15896,-1.06799 7.93642,-3.27997 10.90339,-6.38344 2.97047,-3.10597 5.01445,-6.98093 5.90094,-11.18639 l 0.545,-3.36047 c 0.163,-1.85848 0.231,-3.72446 0.198,-5.58944 -0.005,-7.21443 2.59447,-14.19387 7.31843,-19.64631 4.71845,-5.44745 11.25339,-9.007415 18.38932,-10.017405 h 0.58299 c 1.22849,-0.162998 2.46798,-0.228498 3.70696,-0.196498 h 0.93699 c -5.76944,-9.18241 -13.76986,-16.756836 -23.25427,-22.014785 -9.47841,-5.253449 -20.1358,-8.019422 -30.9727,-8.038922 -17.09033,0.280498 -33.39617,7.302429 -45.343053,19.52631 -11.962383,12.23738 -18.633318,28.70872 -18.557819,45.82105 0.360497,14.51186 5.622945,28.48322 14.926354,39.62662 9.29191,11.13289 22.091788,18.79031 36.295148,21.71278 14.19886,2.91897 28.97621,0.93149 41.89909,-5.63494 12.93287,-6.57394 23.26327,-17.34183 29.29621,-30.5357 l 0.1985,-0.351 c 2.98597,-6.93643 4.80495,-14.31936 5.38345,-21.84879 -0.117,-4.10346 -0.51,-7.46392 -0.86099,-11.02039 z"
   style="fill:#ef4800;fill-rule:nonzero;stroke-width:0.499995"
   id="path1" />
                    </g>
                </g>
            </g>
        </g>
    </g>
</svg>
