<?xml version="1.0" encoding="UTF-8" standalone="no"?>
<svg
   width="512.00122"
   height="511.99551"
   viewBox="0 0 512.00122 511.99551"
   version="1.1"
   xml:space="preserve"
   style="clip-rule:evenodd;fill-rule:evenodd;stroke-linejoin:round;stroke-miterlimit:2"
   id="svg1"
   xmlns="http://www.w3.org/2000/svg"
   xmlns:svg="http://www.w3.org/2000/svg"><defs
   id="defs1" />
    <g
   transform="matrix(3.99999,0,0,3.99999,-255.99556,-255.99774)"
   id="g1">
        <path
   d="m 191.13868,121.2961 c -0.1795,-2.6395 -1.398,-5.1025 -3.387,-6.847 -1.9865,-1.7425 -4.586,-2.626 -7.223,-2.4545 h -0.3885 c -2.502,0.286 -4.797,1.534 -6.3965,3.479 -1.601,1.9475 -2.3855,4.4425 -2.187,6.956 v 0.3915 c 0.4695,3.4625 0.4695,6.972 0,10.4345 v 0.3915 c -0.587,3.905 -1.6475,7.724 -3.1585,11.372 -3.002,7.117 -7.8145,13.3255 -13.9585,18.007 -6.1395,4.6775 -13.399,7.6655 -21.0525,8.664 -7.651,0.997 -15.4315,-0.0305 -22.5615,-2.979 -7.1355,-2.9505 -13.375497,-7.7195 -18.095997,-13.83 -4.7235,-6.115 -7.7675,-13.3605 -8.8275,-21.0145 -1.06,-7.6555 -0.101,-15.4565 2.7815,-22.6275 2.879,-7.1675 7.584,-13.458005 13.645997,-18.244505 6.058,-4.783 13.265,-7.895 20.9005,-9.025 5.189,-0.7065 10.4575,-0.574 15.6045,0.3915 3.066,0.4465 5.833,2.0925 7.688,4.5745 1.857,2.4835 2.656,5.6045 2.221,8.675 -0.641,2.691005 -2.301,5.032005 -4.6285,6.527005 -2.3255,1.493 -5.142,2.026 -7.852,1.485 h -0.3925 c -0.8555,-0.213 -1.732,-0.331 -2.6135,-0.3515 h -0.3505 c -1.4255,-0.1575 -2.8595,-0.2225 -4.2935,-0.195 -4.285,0.2465 -8.417,1.6885 -11.9245,4.1625 -3.5115,2.4755 -6.262,5.884 -7.9395,9.8395 -1.679,3.9585 -2.22,8.308 -1.562,12.557 0.658,4.2475 2.49,8.2275 5.288,11.49 2.796,3.2605 6.4495,5.6745 10.5455,6.9675 4.0935,1.291 8.468,1.4095 12.6255,0.3415 4.159,-1.068 7.9365,-3.28 10.9035,-6.3835 2.9705,-3.106 5.0145,-6.981 5.901,-11.1865 l 0.545,-3.3605 c 0.163,-1.8585 0.231,-3.7245 0.198,-5.5895 -0.006,-7.2145 2.5945,-14.194 7.3185,-19.6465 4.7185,-5.447505 11.2535,-9.007505 18.3895,-10.017505 h 0.583 c 1.2285,-0.163 2.468,-0.2285 3.707,-0.1965 h 0.937 c -5.7695,-9.1825 -13.77,-16.757 -23.2545,-22.015 -9.4785,-5.2535 -20.136,-8.0195 -30.973,-8.039 -17.0905,0.2805 -33.396497,7.3025 -45.343497,19.5265 -11.9625,12.2375 -18.6335,28.709005 -18.558,45.821505 0.3605,14.512 5.623,28.4835 14.9265,39.627 9.292,11.133 22.091997,18.7905 36.295497,21.713 14.199,2.919 28.9765,0.9315 41.8995,-5.635 12.933,-6.574 23.2635,-17.342 29.2965,-30.536 l 0.1985,-0.351 c 2.986,-6.9365 4.805,-14.3195 5.3835,-21.849 -0.117,-4.1035 -0.51,-7.464 -0.861,-11.0205 z"
   style="fill:#46b549;fill-rule:nonzero;stroke-width:0.5"
   id="path1" />
    </g>
</svg>
