<?xml version="1.0" encoding="UTF-8" standalone="no"?>
<svg
   width="24.00264"
   height="22.78293"
   viewBox="0 0 24.00264 22.78293"
   version="1.1"
   xml:space="preserve"
   style="clip-rule:evenodd;fill-rule:evenodd;stroke-linejoin:round;stroke-miterlimit:2"
   id="svg1"
   xmlns="http://www.w3.org/2000/svg"
   xmlns:svg="http://www.w3.org/2000/svg"><defs
   id="defs1" />
    <g
   transform="matrix(3.99998,0,0,3.99998,-499.99998,-498.60698)"
   id="g1">
        <path
   d="m 130.45807,127.33993 c 0.009,-0.0141 0.0185,-0.0284 0.0275,-0.043 0.16709,-0.27031 0.24921,-0.58411 0.24921,-0.90117 v -0.0167 c 0,-0.3413 -0.0956,-0.67765 -0.28683,-0.96113 -0.28352,-0.42051 -0.74644,-0.71149 -1.28008,-0.76556 h -1.69236 c -0.0644,-1.7e-4 -0.12621,0.0253 -0.17179,0.0708 -0.0456,0.045 -0.0713,0.10652 -0.0712,0.17062 v 0.7684 c 0,0.0667 0.0272,0.12717 0.0712,0.17065 0.0456,0.0454 0.10744,0.0709 0.17179,0.0708 h 1.52504 c 0.26172,0 0.47379,0.21107 0.47379,0.47057 v 0.0249 c 0,0.25997 -0.21207,0.47058 -0.47379,0.47058 h -2.49699 c -0.0644,1.1e-4 -0.12621,-0.0254 -0.17182,-0.0708 -0.0456,-0.045 -0.0712,-0.10655 -0.0712,-0.17063 v -1.73444 c 0,-0.0668 -0.0272,-0.12718 -0.0712,-0.17065 -0.0456,-0.0454 -0.10741,-0.0709 -0.17177,-0.0708 h -0.7739 c -0.13418,0 -0.24305,0.10812 -0.24305,0.24141 v 5.2125 c 0,0.0663 0.0272,0.12693 0.0713,0.17064 0.0456,0.0454 0.10744,0.0709 0.1718,0.0708 h 0.77367 c 0.0672,0 0.12778,-0.027 0.17179,-0.0708 0.0456,-0.045 0.0713,-0.10654 0.0713,-0.17064 v -1.73445 c 0,-0.13327 0.10885,-0.24141 0.24305,-0.24141 h 2.48491 c 0.0412,0 0.0814,-0.002 0.12165,-0.004 h 0.15712 c 0.26128,0 0.47379,0.21061 0.47379,0.47058 v 0.0244 c 0,0.25997 -0.21251,0.47058 -0.47379,0.47058 h -1.78322 c -0.003,-4.7e-4 -0.006,-4.7e-4 -0.008,-4.7e-4 -0.003,0 -0.006,0 -0.008,4.7e-4 -0.0615,0.002 -0.12007,0.0269 -0.16352,0.0705 -0.0456,0.0451 -0.0713,0.10671 -0.0712,0.17088 v 0.77333 c 0,0.0663 0.0272,0.12693 0.0712,0.17064 0.0456,0.0455 0.10744,0.0709 0.17182,0.0708 h 1.90272 c 0.497,-0.0343 0.93718,-0.27431 1.23441,-0.63487 0.25561,-0.3098 0.38789,-0.7021 0.38789,-1.10264 v -0.003 c 0,-0.39042 -0.12544,-0.77308 -0.36942,-1.07913 -0.0532,-0.0667 -0.11119,-0.12947 -0.17346,-0.1878 h 4.7e-4 z"
   style="fill:#000030;fill-rule:nonzero;stroke-width:0.0234375"
   id="path1" />
    </g>
</svg>
