<?xml version="1.0" encoding="UTF-8" standalone="no"?>
<svg
   width="23.999912"
   height="24"
   viewBox="0 0 23.999912 24"
   version="1.1"
   xml:space="preserve"
   style="clip-rule:evenodd;fill-rule:evenodd;stroke-linejoin:round;stroke-miterlimit:2"
   id="svg2"
   xmlns="http://www.w3.org/2000/svg"
   xmlns:svg="http://www.w3.org/2000/svg"><defs
   id="defs2" />
    <g
   transform="matrix(0.512,0,0,0.512,-500.00009,-500)"
   id="g1">
        <path
   d="m 1013.4623,1015.7823 c 0.5015,0.5016 0.753,1.2022 0.6853,1.9081 -0.067,0.7059 -0.4479,1.3458 -1.0355,1.7426 -3.7465,2.5256 -8.258,4.0045 -13.1121,4.0045 -4.85421,0 -9.36572,-1.4789 -13.10808,-4.0104 -0.58596,-0.3956 -0.96506,-1.0336 -1.03254,-1.7374 -0.0675,-0.7038 0.18333,-1.4023 0.68335,-1.9022 -0.005,-0.01 -0.005,-0.01 -0.005,-0.01 1.0496,-1.0495 2.68319,-1.2394 3.94551,-0.4584 2.76047,1.7285 6.02323,2.7232 9.51647,2.7232 3.49339,0 6.75609,-0.9947 9.52079,-2.7164 1.259,-0.7789 2.8884,-0.5895 3.9354,0.4575 0.01,-0.01 0.01,-0.01 0.01,-0.01 z m 2.32,-29.24454 c 0.5016,-0.50149 1.2022,-0.75312 1.9081,-0.68541 0.7059,0.0677 1.3458,0.44789 1.7426,1.03561 2.5256,3.74632 4.0045,8.25783 4.0045,13.11204 0,4.8541 -1.4789,9.3656 -4.0104,13.1081 -0.3956,0.586 -1.0336,0.9649 -1.7374,1.0324 -0.7038,0.068 -1.4023,-0.1832 -1.9022,-0.6832 -0.01,0 -0.01,0 -0.01,0 -1.0495,-1.0495 -1.2394,-2.6833 -0.4584,-3.9454 1.7285,-2.7605 2.7232,-6.0232 2.7232,-9.5166 0,-3.49324 -0.9947,-6.756 -2.7164,-9.52076 -0.7789,-1.25911 -0.5895,-2.88851 0.4575,-3.93537 -0.01,-0.006 -0.01,-0.006 -0.01,-0.006 z m -35.20953,0.35416 c 0.4403,-0.65179 1.17736,-1.04337 1.96395,-1.04337 0.62833,0 1.23157,0.24987 1.67587,0.69418 0.005,-0.005 0.005,-0.005 0.005,-0.005 1.04951,1.0496 1.23938,2.68319 0.45856,3.94551 -1.72863,2.76047 -2.72328,6.02323 -2.72328,9.51647 0,3.49339 0.99465,6.75609 2.71636,9.52079 0.77881,1.259 0.58939,2.8884 -0.4575,3.9354 0.006,0.01 0.006,0.01 0.006,0.01 -0.50147,0.5015 -1.20192,0.753 -1.90786,0.6853 -0.70593,-0.068 -1.3458,-0.4479 -1.74279,-1.0355 -2.5255,-3.7465 -4.00441,-8.258 -4.00441,-13.1121 0,-4.8542 1.47891,-9.36571 4.01027,-13.10807 z M 1000,985.23437 c 8.1495,0 14.7656,6.61627 14.7656,14.76563 0,8.1495 -6.6161,14.7656 -14.7656,14.7656 -8.14936,0 -14.76563,-6.6161 -14.76563,-14.7656 0,-8.14936 6.61627,-14.76563 14.76563,-14.76563 z m -13.46224,-1.01681 c -0.44564,-0.44561 -0.69628,-1.05065 -0.69628,-1.68089 0,-0.7889 0.39274,-1.52815 1.04648,-1.96976 3.74632,-2.5255 8.25783,-4.00441 13.11204,-4.00441 4.8541,0 9.3656,1.47891 13.1081,4.01027 0.586,0.39584 0.9649,1.03378 1.0324,1.73761 0.067,0.70383 -0.1832,1.40222 -0.6832,1.90221 0,0.005 0,0.005 0,0.005 -1.0495,1.04951 -2.6833,1.23938 -3.9454,0.45856 -2.7605,-1.72863 -6.0232,-2.72328 -9.5166,-2.72328 -3.49324,0 -6.756,0.99465 -9.52076,2.71636 -1.25911,0.77881 -2.88851,0.58939 -3.93537,-0.4575 -0.006,0.006 -0.006,0.006 -0.006,0.006 z"
   style="fill:#208e7a;stroke-width:0.0234375"
   id="path1" />
    </g>
    <g
   transform="matrix(4,0,0,4,-500.00009,-500)"
   id="g2">
        <path
   d="m 127.24095,128.52699 c -0.0418,0 -0.0763,0.0344 -0.0763,0.0763 v 0.2029 c 0,0.0418 0.0344,0.0763 0.0763,0.0763 h 0.55683 v 0.51485 c 0,0.0419 0.0344,0.0763 0.0763,0.0763 h 0.24485 c 0.0419,0 0.0763,-0.0344 0.0763,-0.0763 v -0.51485 h 0.56384 c 0.0418,0 0.0763,-0.0344 0.0763,-0.0763 v -0.2029 c 0,-0.0418 -0.0344,-0.0763 -0.0763,-0.0763 z m 1.51983,-0.25226 c 0.0419,0 0.0763,-0.0344 0.0763,-0.0763 v -0.19939 c 0,-0.0418 -0.0344,-0.0763 -0.0763,-0.0763 0,0 -2e-5,0 -2e-5,0 h -0.47784 l 0.64568,-1.1419 c 0.0133,-0.0236 0.0131,-0.0526 -5e-4,-0.076 -0.0137,-0.0234 -0.0388,-0.0378 -0.0659,-0.0378 h -0.28331 c -0.0275,0 -0.0529,0.0148 -0.0665,0.0388 l -0.5138,0.91001 -0.50744,-0.90966 c -0.0134,-0.0241 -0.039,-0.0391 -0.0666,-0.0391 h -0.28683 c -2e-5,0 -5e-5,0 -9e-5,0 -0.0418,0 -0.0762,0.0344 -0.0762,0.0762 0,0.0131 0.003,0.026 0.01,0.0375 l 0.64261,1.14204 h -0.47119 c -0.0418,0 -0.0763,0.0344 -0.0763,0.0763 v 0.19939 c 0,0.0418 0.0344,0.0763 0.0763,0.0763 z"
   style="fill:#ffffff;fill-rule:nonzero;stroke-width:0.0234375"
   id="path2" />
    </g>
</svg>
