<?xml version="1.0" encoding="UTF-8" standalone="no"?>
<svg
   width="24.014334"
   height="28.702772"
   viewBox="0 0 24.014334 28.702772"
   version="1.1"
   xml:space="preserve"
   style="clip-rule:evenodd;fill-rule:evenodd;stroke-linejoin:round;stroke-miterlimit:2"
   id="svg4"
   xmlns="http://www.w3.org/2000/svg"
   xmlns:svg="http://www.w3.org/2000/svg"><defs
   id="defs4" />
    <g
   transform="matrix(0.999959,0,0,0.999959,-428.86831,-497.56932)"
   id="g4">
        <g
   transform="matrix(3.9987,0,0,3.9987,-38.875,0.251891)"
   id="g1">
            <path
   d="m 122.91535,130.31652 c -0.0239,-0.0285 -0.0533,-0.0519 -0.0864,-0.069 -0.0331,-0.0171 -0.0692,-0.0276 -0.10622,-0.0309 -0.0748,-0.007 -0.14925,0.0171 -0.20663,0.0655 -0.007,0.006 -0.0148,0.0122 -0.0219,0.0182 -0.005,0.005 -0.0106,0.009 -0.0159,0.013 -0.0822,0.0669 -0.16781,0.12945 -0.25656,0.18736 l -0.0116,0.008 c -0.0196,0.0127 -0.0391,0.0251 -0.059,0.037 -0.005,0.003 -0.009,0.006 -0.0135,0.008 -0.004,0.003 -0.009,0.005 -0.013,0.008 l -0.008,0.005 -0.0137,0.008 c -0.004,0.003 -0.009,0.005 -0.0132,0.008 -0.0524,0.0305 -0.10572,0.0594 -0.15987,0.0867 l -0.0135,0.007 -0.0188,0.01 -0.0246,0.0119 -0.002,10e-4 c -0.008,0.004 -0.0164,0.008 -0.0246,0.0116 l -0.0188,0.009 -0.0121,0.006 c -0.006,0.003 -0.013,0.006 -0.0193,0.009 -0.008,0.004 -0.0172,0.008 -0.0259,0.0113 -0.0174,0.008 -0.0351,0.0151 -0.0528,0.0222 -0.009,0.004 -0.018,0.007 -0.0269,0.0109 -0.0172,0.007 -0.0346,0.0137 -0.052,0.0203 h -5.3e-4 c -0.0172,0.007 -0.0346,0.013 -0.0521,0.019 l -0.003,0.001 c -0.008,0.003 -0.0164,0.006 -0.0248,0.009 -0.009,0.003 -0.0174,0.006 -0.0259,0.009 l -0.0262,0.008 c -0.002,8.4e-4 -0.005,0.002 -0.007,0.002 l -0.0169,0.005 -0.014,0.004 c -0.0143,0.004 -0.0283,0.009 -0.0425,0.013 l -0.01,0.003 c -0.006,0.002 -0.0116,0.003 -0.0174,0.005 l -0.0201,0.006 -0.0161,0.004 -0.0106,0.003 -0.0135,0.003 c -0.0151,0.004 -0.0304,0.008 -0.0457,0.0116 -0.004,0.001 -0.008,0.002 -0.0114,0.003 -0.005,0.001 -0.0108,0.003 -0.0164,0.004 l -0.0135,0.003 c -0.001,2.8e-4 -0.002,5.4e-4 -0.003,7.9e-4 -0.007,0.002 -0.014,0.003 -0.0209,0.005 -0.0127,0.003 -0.0254,0.006 -0.0383,0.008 -0.0122,0.003 -0.0243,0.005 -0.0362,0.007 l -0.0296,0.006 -0.0182,0.003 c -0.006,10e-4 -0.0108,0.002 -0.0164,0.003 l -0.0235,0.004 -0.023,0.004 -0.003,5.3e-4 c -0.01,0.001 -0.0188,0.003 -0.028,0.004 -0.009,0.001 -0.0182,0.003 -0.0269,0.004 l -0.006,8.1e-4 -0.0222,0.003 h -0.002 c -0.006,7.9e-4 -0.0124,0.002 -0.0185,0.002 l -0.0164,0.002 c -0.0161,0.002 -0.0325,0.004 -0.0489,0.005 h -0.004 c -0.005,0.001 -0.0108,0.002 -0.0161,0.002 l -0.014,0.001 c -0.006,5.3e-4 -0.0111,0.001 -0.0167,0.001 l -0.0166,0.001 c -0.0219,0.002 -0.0441,0.003 -0.0661,0.004 l -0.0293,0.002 -0.0166,5.3e-4 c -0.004,3e-5 -0.008,2.3e-4 -0.0127,5.4e-4 l -0.0161,5e-4 h -0.0164 c -0.006,2.8e-4 -0.0111,8.1e-4 -0.0166,8.1e-4 h -0.006 c -0.009,0 -0.0185,2.6e-4 -0.0275,2.6e-4 h -0.06 c -0.31265,-0.004 -0.62283,-0.0557 -0.91956,-0.15432 -0.0106,-0.004 -0.0214,-0.007 -0.032,-0.0108 -0.005,-0.002 -0.0106,-0.004 -0.0156,-0.006 -0.005,-0.002 -0.0106,-0.004 -0.0156,-0.006 -0.008,-0.003 -0.0169,-0.006 -0.0254,-0.009 l -0.0106,-0.004 c -0.01,-0.003 -0.0191,-0.007 -0.0283,-0.0106 l -0.005,-0.002 c -0.004,-0.001 -0.007,-0.003 -0.0108,-0.004 l -0.004,-0.002 -0.003,-0.001 -0.006,-0.002 -0.006,-0.002 h -10e-4 l -0.003,-0.001 -0.0119,-0.005 -0.0153,-0.006 c -0.008,-0.003 -0.0169,-0.007 -0.0254,-0.0106 h -0.001 l -0.0169,-0.007 -0.0198,-0.009 c -0.53032,-0.23349 -0.98302,-0.61373 -1.30456,-1.09579 -0.002,-0.003 -0.005,-0.007 -0.007,-0.0106 -0.32465,-0.49395 -0.49835,-1.072 -0.49967,-1.66309 v -0.0449 c 0,-0.0114 5.4e-4,-0.0227 7.9e-4,-0.0341 v -0.003 c 0.009,-0.3375 0.0748,-0.6711 0.1942,-0.98692 0.004,-0.0111 0.008,-0.0219 0.0127,-0.033 0.004,-0.01 0.008,-0.0195 0.0116,-0.0293 l 0.008,-0.0198 c 0.004,-0.0108 0.009,-0.0217 0.0137,-0.0325 0.005,-0.0119 0.0103,-0.0238 0.0156,-0.0357 2.8e-4,-7.8e-4 8.1e-4,-0.002 0.001,-0.002 3.6e-4,-10e-4 8.1e-4,-0.002 10e-4,-0.003 l 0.0111,-0.0246 c 0,0 0,-5.6e-4 2.8e-4,-7.8e-4 0.003,-0.008 0.007,-0.0151 0.0103,-0.0225 0.001,-0.002 0.002,-0.004 0.003,-0.007 l 0.002,-0.004 c 0.002,-0.004 0.003,-0.007 0.005,-0.0108 10e-4,-0.002 0.002,-0.005 0.003,-0.007 l 0.003,-0.007 7.8e-4,-0.002 0.002,-0.004 c 0.004,-0.008 0.008,-0.0169 0.0124,-0.0254 7.8e-4,-0.001 10e-4,-0.003 0.002,-0.004 0.006,-0.0111 0.0111,-0.0222 0.0167,-0.0331 0.004,-0.008 0.008,-0.0156 0.0119,-0.0232 l 0.003,-0.005 c 0,0 0,-5e-4 2.9e-4,-7.8e-4 0,0 0,-5.3e-4 2.8e-4,-5.3e-4 0.002,-0.005 0.005,-0.009 0.007,-0.0135 7.8e-4,-0.002 0.002,-0.003 0.003,-0.005 l 0.005,-0.01 c 0.002,-0.003 0.003,-0.006 0.005,-0.01 l 10e-4,-0.002 0.002,-0.004 c 0.003,-0.006 0.006,-0.0114 0.009,-0.0169 0.0943,-0.17059 0.20499,-0.33158 0.33057,-0.48066 0.002,-0.003 0.004,-0.005 0.006,-0.008 0.0455,-0.0585 0.0663,-0.13251 0.0579,-0.20612 -0.0175,-0.1523 -0.1555,-0.26425 -0.30814,-0.24995 -0.0738,0.007 -0.14201,0.0426 -0.18996,0.0991 -0.1057,0.1254 -0.20261,0.25791 -0.29013,0.39661 l -0.002,0.003 c -0.008,0.0121 -0.0151,0.0243 -0.0227,0.0362 -0.004,0.006 -0.008,0.0127 -0.0116,0.0193 -0.11604,0.19193 -0.2138,0.39435 -0.29198,0.60456 -0.0391,0.10496 -0.0731,0.21175 -0.10199,0.31997 -5.1e-4,0.002 -10e-4,0.004 -0.002,0.006 -0.003,0.01 -0.005,0.0193 -0.008,0.0291 -8.1e-4,0.003 -0.001,0.005 -0.002,0.008 -10e-4,0.005 -0.003,0.0103 -0.004,0.0156 l -0.004,0.0156 c -0.003,0.0103 -0.005,0.0206 -0.007,0.0312 0,8.1e-4 -5.6e-4,0.002 -5.6e-4,0.003 -2.6e-4,0.002 -7.6e-4,0.003 -0.001,0.004 v 0.001 c -0.002,0.007 -0.003,0.0132 -0.005,0.0195 -5e-4,0.002 -7.8e-4,0.004 -0.001,0.005 -0.1023,0.45158 -0.11621,0.91875 -0.0409,1.37563 5.3e-4,0.003 10e-4,0.007 0.002,0.0108 0.0776,0.46495 0.24633,0.91002 0.4965,1.30955 0.004,0.007 0.008,0.0135 0.0127,0.0201 l 0.0119,0.0185 c 0.004,0.006 0.008,0.0124 0.0119,0.0185 0.006,0.009 0.0116,0.0177 0.0174,0.0267 0.003,0.005 0.007,0.0103 0.0103,0.0153 0.001,0.002 0.003,0.004 0.004,0.006 0.006,0.009 0.0119,0.0174 0.0179,0.0261 0.001,0.002 0.003,0.004 0.004,0.006 5.4e-4,0.001 10e-4,0.002 0.002,0.003 l 0.002,0.003 c 0.0132,0.0193 0.0267,0.0384 0.0404,0.0573 0.007,0.0103 0.0151,0.0209 0.0227,0.0312 0.006,0.009 0.0127,0.0172 0.0188,0.0256 0.003,0.004 0.006,0.008 0.009,0.0119 l 0.0151,0.0198 c 0.003,0.004 0.006,0.008 0.01,0.0121 0.005,0.006 0.01,0.0124 0.0145,0.0188 0.003,0.003 0.005,0.007 0.008,0.01 0.005,0.007 0.0108,0.0135 0.0161,0.0204 0.003,0.004 0.007,0.008 0.01,0.0124 0.005,0.006 0.01,0.0119 0.0145,0.0177 0.003,0.004 0.007,0.008 0.0103,0.0121 0.005,0.006 0.01,0.0119 0.0151,0.018 0.003,0.004 0.007,0.008 0.0109,0.0127 0.005,0.006 0.01,0.0116 0.0148,0.0174 0.008,0.01 0.0161,0.0188 0.0243,0.0278 0.008,0.009 0.0172,0.0193 0.0259,0.029 0.009,0.01 0.0179,0.0201 0.0272,0.0299 0.009,0.01 0.0182,0.0198 0.0275,0.0296 0.009,0.01 0.0185,0.0196 0.028,0.0293 0.19495,0.20281 0.41332,0.38173 0.65054,0.53296 l 0.006,0.003 0.019,0.0119 c 0.35656,0.22468 0.74998,0.38472 1.16213,0.47272 l 0.019,0.004 0.0174,0.003 c 0.0124,0.002 0.0246,0.005 0.037,0.007 0.006,0.001 0.0124,0.002 0.0185,0.003 l 0.01,0.002 0.01,0.002 0.0195,0.003 0.005,8.1e-4 0.007,0.001 c 0.007,0.001 0.0143,0.002 0.0217,0.004 l 0.0262,0.004 0.0264,0.004 0.0264,0.004 c 0.009,0.001 0.0177,0.002 0.0264,0.004 l 0.0264,0.003 0.0167,0.002 0.0172,0.002 c 0.005,5.4e-4 0.0103,0.001 0.0153,0.002 0.0108,0.001 0.0214,0.002 0.0322,0.003 l 0.0233,0.002 0.014,0.001 0.0195,0.002 c 0.0469,0.004 0.0938,0.008 0.14083,0.01 0.022,0.001 0.044,0.002 0.0661,0.003 h 0.009 l 0.0402,7.8e-4 h 0.10306 c 0.0137,0 0.0272,-5.3e-4 0.041,-7.8e-4 h 0.003 c 0.014,-2.8e-4 0.0278,-8.1e-4 0.0418,-0.001 l 0.0214,-7.8e-4 0.0214,-10e-4 c 0.0129,-5e-4 0.0262,-0.001 0.0391,-0.002 0.0193,-0.001 0.0383,-0.002 0.0576,-0.004 0.0426,-0.003 0.0851,-0.007 0.12762,-0.0119 0.008,-7.9e-4 0.0153,-0.002 0.0233,-0.003 0.008,-7.8e-4 0.0156,-0.002 0.0232,-0.003 l 0.009,-0.001 c 0.007,-8.2e-4 0.0148,-0.002 0.0219,-0.003 0.009,-0.001 0.0182,-0.002 0.0272,-0.004 l 0.005,-7.9e-4 c 0.0103,-0.002 0.0206,-0.003 0.0312,-0.005 l 0.004,-5.4e-4 0.0201,-0.003 0.019,-0.003 0.0114,-0.002 h 0.002 c 0.0145,-0.003 0.0288,-0.005 0.0434,-0.008 l 0.003,-5.3e-4 0.0254,-0.005 c 0.42188,-0.0788 0.82615,-0.23298 1.19328,-0.45525 0.007,-0.004 0.013,-0.008 0.0196,-0.0119 0.0284,-0.0174 0.0567,-0.0353 0.0846,-0.0536 0.12201,-0.0798 0.23909,-0.16691 0.35065,-0.2608 0.0573,-0.0484 0.093,-0.11764 0.0993,-0.19237 0.006,-0.0747 -0.0171,-0.14891 -0.0653,-0.20637 h -10e-4 z"
   style="fill:#1066df;fill-rule:nonzero;stroke-width:0.028043"
   id="path1" />
        </g>
        <g
   transform="matrix(3.9987,0,0,3.9987,-38.875,0.251891)"
   id="g2">
            <path
   d="m 118.9119,125.3925 c 0.05,6e-5 0.099,-0.0133 0.14215,-0.0386 0.0561,-0.0326 0.11318,-0.0633 0.17123,-0.0922 0.0371,-0.0184 0.0745,-0.036 0.11229,-0.0529 0.006,-0.003 0.0127,-0.006 0.019,-0.008 0.004,-0.002 0.008,-0.004 0.013,-0.006 0.008,-0.004 0.0166,-0.007 0.0251,-0.0109 l 0.0188,-0.008 c 0.0127,-0.005 0.0255,-0.0105 0.0383,-0.0156 l 0.0145,-0.006 0.0241,-0.01 c 0.006,-0.002 0.0116,-0.004 0.0174,-0.007 0.0275,-0.0103 0.055,-0.0201 0.083,-0.0296 l 0.0164,-0.006 c 0.0327,-0.011 0.0655,-0.0214 0.0986,-0.0312 l 0.0164,-0.005 c 0.0427,-0.0124 0.0857,-0.0238 0.12894,-0.0344 l 0.0143,-0.003 0.0167,-0.004 0.0114,-0.003 0.0121,-0.003 c 0.008,-0.002 0.0161,-0.004 0.0241,-0.005 0.0121,-0.003 0.0243,-0.005 0.0367,-0.008 l 0.0204,-0.004 c 0.0275,-0.005 0.055,-0.0103 0.0824,-0.0151 0.0132,-0.002 0.0267,-0.004 0.0399,-0.006 0.0135,-0.002 0.0269,-0.004 0.0409,-0.006 l 0.003,-5e-4 c 0.0196,-0.003 0.0391,-0.005 0.0587,-0.008 l 0.0412,-0.005 c 0.0137,-0.002 0.0275,-0.003 0.0412,-0.004 0.0137,-0.001 0.0275,-0.002 0.0415,-0.003 0.009,-5.3e-4 0.0174,-0.001 0.0259,-0.002 l 0.052,-0.003 c 0.009,-5.3e-4 0.0174,-7.8e-4 0.0259,-10e-4 0.005,0 0.0103,-5.6e-4 0.0156,-5.6e-4 l 0.0143,-5e-4 0.0164,-5.4e-4 0.0164,-5.3e-4 c 0.0111,-2.8e-4 0.0222,-5e-4 0.033,-5e-4 h 0.0391 c 0.12473,0 0.24944,0.008 0.37311,0.0232 0.0262,0.003 0.0523,0.007 0.0785,0.0108 0.006,7.8e-4 0.0114,0.002 0.0172,0.003 l 0.0288,0.005 0.006,0.001 0.005,8.1e-4 c 0.007,0.001 0.0145,0.002 0.0217,0.004 l 0.007,0.001 0.01,0.002 0.01,0.002 0.0179,0.003 c 0.006,10e-4 0.0127,0.002 0.0188,0.004 l 0.005,0.001 c 0.0142,0.003 0.0288,0.006 0.043,0.009 l 0.0132,0.003 c 0.0101,0.002 0.0198,0.004 0.0299,0.007 0.0116,0.003 0.0232,0.006 0.0349,0.008 0.0108,0.003 0.0217,0.006 0.0325,0.008 l 0.0116,0.003 0.0124,0.003 h 5.3e-4 c 0.008,0.002 0.0159,0.004 0.0235,0.006 10e-4,0 0.002,5.3e-4 0.003,7.8e-4 0.004,0.001 0.007,0.002 0.0108,0.003 0.005,0.001 0.01,0.003 0.0151,0.004 l 0.0124,0.003 c 0.006,0.002 0.0116,0.003 0.0174,0.005 l 0.0138,0.004 0.0124,0.004 0.006,0.002 h 5.4e-4 l 0.007,0.002 0.0151,0.005 0.01,0.003 0.0124,0.004 c 0.007,0.002 0.0145,0.005 0.0219,0.007 0.0111,0.004 0.0222,0.008 0.0333,0.0114 0.0489,0.0172 0.0973,0.0355 0.14532,0.055 l 0.0164,0.007 c 0.0119,0.005 0.0238,0.01 0.0357,0.0151 0.0406,0.0174 0.0798,0.0379 0.1173,0.0613 0.34827,0.21851 0.49597,0.66535 0.32897,1.05484 -0.089,0.20704 -0.25662,0.3705 -0.46585,0.45421 -0.20922,0.0837 -0.44341,0.0808 -0.65054,-0.008 -0.16052,-0.0687 -0.33301,-0.10517 -0.5076,-0.10727 h -5.1e-4 c -0.0507,-5.3e-4 -0.10129,0.002 -0.15168,0.007 -0.0227,0.002 -0.0452,0.006 -0.0679,0.009 -0.01,0.002 -0.0203,0.003 -0.0304,0.005 l -0.009,0.002 c -0.004,8.1e-4 -0.008,0.001 -0.0114,0.002 -0.006,10e-4 -0.0114,0.002 -0.0169,0.003 h -10e-4 c -0.006,0.002 -0.0119,0.003 -0.018,0.004 l -0.0143,0.003 -0.008,0.002 -0.0137,0.003 c -0.004,10e-4 -0.009,0.002 -0.013,0.003 l -0.009,0.002 c -0.0183,0.005 -0.0365,0.0106 -0.0544,0.0164 -0.007,0.002 -0.0146,0.005 -0.0217,0.007 l -0.0108,0.004 c -0.004,0.001 -0.007,0.002 -0.0108,0.004 l -0.0106,0.004 c -0.0106,0.004 -0.0214,0.008 -0.0317,0.0122 -0.0529,0.0211 -0.10435,0.0457 -0.15407,0.0735 -0.003,0.002 -0.007,0.004 -0.01,0.006 -0.007,0.004 -0.0132,0.008 -0.0198,0.0114 -0.007,0.004 -0.013,0.008 -0.0195,0.0119 -0.006,0.004 -0.0122,0.008 -0.0182,0.0116 l -0.0159,0.0103 c -0.004,0.002 -0.007,0.005 -0.0108,0.007 -0.002,0.001 -0.004,0.003 -0.006,0.004 -0.002,0.002 -0.005,0.003 -0.008,0.005 -0.003,0.002 -0.006,0.004 -0.009,0.006 -0.006,0.004 -0.0122,0.008 -0.018,0.0129 -0.006,0.004 -0.0122,0.009 -0.0182,0.0135 -0.003,0.002 -0.006,0.005 -0.009,0.007 -0.0631,0.0485 -0.12151,0.10275 -0.17466,0.16197 l -0.002,0.002 c -0.004,0.005 -0.009,0.01 -0.0135,0.0153 -0.004,0.005 -0.008,0.01 -0.0127,0.0148 l -0.005,0.006 c -0.005,0.006 -0.0106,0.0127 -0.0156,0.019 -0.002,0.002 -0.003,0.004 -0.005,0.006 -0.004,0.006 -0.009,0.0111 -0.013,0.0166 -0.003,0.004 -0.006,0.008 -0.009,0.0119 -0.008,0.0111 -0.0167,0.0222 -0.0246,0.0336 v 2.5e-4 c -0.0597,0.0847 -0.10908,0.17628 -0.14717,0.27269 0,5.3e-4 -2.8e-4,8.2e-4 -5.3e-4,0.001 l -0.005,0.0119 -0.004,0.0116 c -0.001,0.003 -0.002,0.006 -0.003,0.009 -0.001,0.003 -0.003,0.007 -0.004,0.0114 -0.002,0.004 -0.003,0.009 -0.005,0.0137 -0.002,0.005 -0.003,0.01 -0.005,0.0145 -0.0701,0.21057 -0.0855,0.43556 -0.0447,0.65371 0.001,0.008 0.003,0.0156 0.005,0.0235 0.0328,0.16382 0.0967,0.31983 0.18839,0.45951 l 0.007,0.0114 c 0.0935,0.14105 0.21374,0.26248 0.35379,0.35752 0.004,0.003 0.009,0.006 0.0135,0.009 0.17456,0.1168 0.37468,0.18994 0.58343,0.21324 l 0.0151,0.002 0.0135,0.001 0.006,5e-4 c 0.0837,0.007 0.16803,0.007 0.2518,-0.002 0.003,-2.5e-4 0.007,-7.9e-4 0.01,-0.001 h 7.9e-4 c 0.17448,-0.0195 0.34336,-0.0736 0.49675,-0.15906 0.0324,-0.0182 0.061,-0.0425 0.0841,-0.0716 0.023,-0.0292 0.0401,-0.0627 0.0502,-0.0986 0.01,-0.0359 0.0132,-0.0732 0.009,-0.11018 -0.004,-0.037 -0.0159,-0.0727 -0.0341,-0.10517 -0.0182,-0.0325 -0.0426,-0.061 -0.0718,-0.084 -0.0292,-0.0231 -0.0627,-0.0402 -0.0986,-0.0502 -0.0358,-0.0102 -0.0733,-0.0131 -0.11018,-0.009 -0.037,0.004 -0.0727,0.0158 -0.10517,0.0341 -0.138,0.0767 -0.29658,0.1083 -0.45342,0.0904 l -0.008,-0.001 c -0.005,-5.3e-4 -0.01,-0.001 -0.0143,-0.002 -0.005,-7.9e-4 -0.01,-0.001 -0.0153,-0.002 -0.006,-0.001 -0.0125,-0.002 -0.0188,-0.003 -0.01,-0.002 -0.0194,-0.004 -0.029,-0.006 -0.003,-5.3e-4 -0.006,-0.001 -0.008,-0.002 l -0.01,-0.002 c -0.003,-8.1e-4 -0.006,-0.002 -0.01,-0.002 l -0.01,-0.003 c -0.003,-8.1e-4 -0.005,-0.002 -0.008,-0.002 l -0.0103,-0.003 c -0.006,-0.002 -0.0122,-0.004 -0.0182,-0.006 -0.003,-0.001 -0.006,-0.002 -0.009,-0.003 -0.006,-0.002 -0.0121,-0.004 -0.0179,-0.007 -0.009,-0.003 -0.0179,-0.007 -0.0267,-0.0108 l -0.007,-0.003 -0.007,-0.003 -0.007,-0.003 -0.0111,-0.005 c -0.11402,-0.0558 -0.21228,-0.13917 -0.28589,-0.24257 l -0.006,-0.01 c -0.002,-0.003 -0.004,-0.006 -0.006,-0.009 -0.002,-0.003 -0.004,-0.006 -0.005,-0.008 -0.0766,-0.11882 -0.11868,-0.2566 -0.12154,-0.39793 v -0.0249 c 0,-0.004 0,-0.008 2.5e-4,-0.0121 2.6e-4,-0.004 2.6e-4,-0.008 5.4e-4,-0.0122 0,-0.003 0,-0.006 5.3e-4,-0.009 l 5e-4,-0.009 c 5.4e-4,-0.007 0.001,-0.0143 0.002,-0.0211 2.8e-4,-0.003 5.3e-4,-0.006 0.001,-0.009 5.3e-4,-0.006 0.001,-0.0111 0.002,-0.0169 5.1e-4,-0.004 0.001,-0.008 0.002,-0.0127 l 0.002,-0.01 c 0.001,-0.006 0.002,-0.0116 0.003,-0.0174 0.001,-0.006 0.002,-0.0111 0.003,-0.0167 0.001,-0.006 0.003,-0.0121 0.004,-0.0182 10e-4,-0.004 0.002,-0.008 0.003,-0.0122 7.9e-4,-0.003 0.002,-0.006 0.002,-0.009 l 0.006,-0.0198 c 0.008,-0.0275 0.0182,-0.0547 0.0296,-0.0811 0.0166,-0.0387 0.0364,-0.0759 0.0592,-0.11125 0.003,-0.005 0.007,-0.0103 0.0103,-0.0153 0.002,-0.003 0.005,-0.007 0.007,-0.01 0.004,-0.005 0.007,-0.0103 0.0111,-0.0153 l 0.006,-0.008 c 0.002,-0.003 0.004,-0.006 0.006,-0.008 0.003,-0.003 0.005,-0.007 0.008,-0.0103 0.003,-0.003 0.006,-0.007 0.008,-0.01 l 0.008,-0.01 c 0.005,-0.006 0.01,-0.0114 0.0153,-0.0169 l 0.001,-10e-4 c 0.006,-0.006 0.0116,-0.0124 0.0177,-0.0185 0.004,-0.005 0.009,-0.009 0.0142,-0.0137 l 0.004,-0.003 c 0.0289,-0.0272 0.06,-0.0522 0.0928,-0.0745 0.006,-0.004 0.0127,-0.008 0.0188,-0.0124 0.003,-0.002 0.006,-0.004 0.01,-0.006 0.004,-0.002 0.007,-0.005 0.0111,-0.007 0.004,-0.002 0.007,-0.004 0.0114,-0.007 0.0397,-0.0225 0.0812,-0.0415 0.12418,-0.0568 l 0.0185,-0.006 c 0.004,-10e-4 0.008,-0.003 0.0124,-0.004 0.004,-0.001 0.008,-0.002 0.0124,-0.004 0.004,-0.001 0.008,-0.002 0.0127,-0.003 0.004,-0.001 0.008,-0.002 0.0121,-0.003 0.009,-0.002 0.018,-0.004 0.0269,-0.006 l 0.0116,-0.002 0.009,-0.002 0.009,-0.002 c 0.006,-0.001 0.0114,-0.002 0.0172,-0.003 h 5.1e-4 c 0.0359,-0.005 0.0721,-0.008 0.10836,-0.008 h 0.0124 c 0.0983,0.002 0.19498,0.0227 0.28537,0.0613 0.58767,0.25207 1.27441,0.0779 1.67024,-0.42359 0.19577,-0.24821 0.30323,-0.55478 0.30519,-0.87091 v -0.003 c 10e-4,-0.27813 -0.0798,-0.55052 -0.23253,-0.78296 -0.15267,-0.23248 -0.37053,-0.41487 -0.62626,-0.52424 -0.009,-0.004 -0.0182,-0.008 -0.0275,-0.0116 -0.009,-0.004 -0.0187,-0.008 -0.028,-0.0116 -0.014,-0.006 -0.0278,-0.0114 -0.042,-0.0169 -0.014,-0.006 -0.028,-0.0111 -0.042,-0.0164 l -0.023,-0.009 c -0.008,-0.003 -0.0153,-0.006 -0.023,-0.008 -0.007,-0.002 -0.0135,-0.005 -0.0203,-0.007 l -0.0182,-0.007 -0.0283,-0.01 c -0.0195,-0.007 -0.0391,-0.0132 -0.0589,-0.0196 l -0.0135,-0.004 -0.0161,-0.005 -0.0243,-0.008 -0.0164,-0.005 -0.0145,-0.004 -0.0206,-0.006 -0.0415,-0.0119 c -0.009,-0.003 -0.019,-0.005 -0.0285,-0.008 l -0.027,-0.007 h -10e-4 l -0.006,-0.002 c -0.0156,-0.004 -0.0309,-0.008 -0.0465,-0.0116 l -0.0159,-0.004 -0.0185,-0.004 c -0.01,-0.002 -0.0185,-0.004 -0.0278,-0.006 l -0.002,-5.3e-4 -0.0277,-0.006 c -0.0193,-0.004 -0.0386,-0.008 -0.0579,-0.0121 l -0.0169,-0.003 -0.0246,-0.005 c -0.006,-10e-4 -0.0111,-0.002 -0.0164,-0.003 l -0.0235,-0.004 -0.008,-0.002 c -0.0185,-0.003 -0.037,-0.006 -0.0555,-0.009 -0.0194,-0.003 -0.0389,-0.006 -0.0584,-0.009 l -0.0233,-0.003 -0.0132,-0.002 c -0.002,0 -0.003,-5.1e-4 -0.005,-5.1e-4 l -0.008,-0.001 -0.008,-0.001 -0.0153,-0.002 -0.0106,-0.001 -0.0204,-0.002 -0.006,-7.9e-4 c -0.008,-7.8e-4 -0.0164,-0.002 -0.0249,-0.003 l -0.023,-0.002 -0.008,-8.1e-4 -0.0227,-0.002 c -0.009,-7.9e-4 -0.018,-0.002 -0.027,-0.002 -0.0407,-0.003 -0.0815,-0.006 -0.12233,-0.007 h -0.009 l -0.005,-2.8e-4 -0.0198,-7.8e-4 -0.028,-7.9e-4 c -0.0207,-4.8e-4 -0.0414,-8.4e-4 -0.0621,-10e-4 h -0.0608 c -0.009,0 -0.0172,0 -0.0259,2.8e-4 -0.009,2.5e-4 -0.0166,2.5e-4 -0.0248,5e-4 -0.008,0 -0.0164,2.8e-4 -0.0248,5.6e-4 -0.0119,2.5e-4 -0.0241,7.6e-4 -0.036,10e-4 l -0.0209,8.1e-4 -0.01,5.1e-4 -0.0156,8.1e-4 -0.0204,0.001 -0.0185,10e-4 h -0.003 c -0.16304,0.0103 -0.32502,0.0317 -0.48489,0.0642 l -0.006,0.001 c -0.013,0.003 -0.0259,0.006 -0.0391,0.008 l -0.002,5.6e-4 c -0.006,10e-4 -0.0116,0.002 -0.0174,0.004 -0.0573,0.0127 -0.11414,0.0267 -0.1707,0.042 -0.28427,0.0776 -0.55783,0.1903 -0.81437,0.33534 l -0.0278,0.0159 -0.0111,0.006 -0.005,0.003 -0.005,0.003 c -0.0519,0.0329 -0.0917,0.0818 -0.11332,0.13926 -0.0216,0.0575 -0.0241,0.12042 -0.007,0.17942 0.0172,0.0589 0.053,0.11071 0.10199,0.1477 0.0492,0.0369 0.109,0.0567 0.17044,0.0566 h 2.8e-4 z"
   style="fill:#1066df;fill-rule:nonzero;stroke-width:0.028043"
   id="path2" />
        </g>
        <g
   transform="matrix(3.9987,0,0,3.9987,-38.875,0.251891)"
   id="g3">
            <path
   d="m 118.47827,126.68279 -0.002,0.004 c -0.13048,0.2126 -0.2276,0.44395 -0.288,0.68596 -2.8e-4,0.001 -7.9e-4,0.003 -0.001,0.004 l -0.004,0.0166 c -5.3e-4,0.003 -10e-4,0.006 -0.002,0.008 -0.001,0.005 -0.002,0.0106 -0.004,0.0159 -0.0702,0.30401 -0.0817,0.61865 -0.0338,0.92696 5.3e-4,0.003 7.8e-4,0.005 0.001,0.008 0.001,0.008 0.003,0.0157 0.004,0.0235 l 5.3e-4,0.003 c 0,0 0,10e-4 2.8e-4,0.002 0.0567,0.33442 0.18211,0.65349 0.36832,0.93701 l 0.005,0.007 c 0.018,0.0272 0.0365,0.0539 0.0555,0.0803 0.007,0.01 0.0146,0.0198 0.0217,0.0296 0.38786,0.52216 0.96785,0.86922 1.61132,0.9642 l 0.003,5.4e-4 0.0161,0.002 h 0.002 l 0.0132,0.002 h 0.003 l 0.0143,0.002 c 0.19381,0.0245 0.38986,0.0257 0.58397,0.004 l 0.0124,-0.002 c 0.004,-5.4e-4 0.008,-0.001 0.0119,-0.001 l 0.0166,-0.002 0.003,-5.3e-4 h 0.002 l 0.004,-7.9e-4 0.0156,-0.002 0.006,-8.2e-4 c 0.01,-10e-4 0.0185,-0.003 0.0275,-0.004 h 2.6e-4 c 0.40738,-0.0629 0.79238,-0.22746 1.1193,-0.47853 0.0299,-0.0225 0.0549,-0.0507 0.0737,-0.083 0.0188,-0.0323 0.0312,-0.0681 0.0362,-0.10516 0.0103,-0.0748 -0.01,-0.15076 -0.056,-0.2106 -0.0229,-0.0296 -0.0513,-0.0545 -0.0838,-0.0732 -0.0324,-0.0187 -0.0683,-0.0307 -0.10544,-0.0354 -0.0372,-0.005 -0.0749,-0.002 -0.11097,0.008 -0.036,0.0101 -0.0698,0.027 -0.0994,0.0499 -0.20045,0.15384 -0.42975,0.2659 -0.67432,0.32951 -0.003,7.8e-4 -0.006,0.001 -0.01,0.002 -0.0619,0.0158 -0.12449,0.0284 -0.18761,0.0378 h -0.003 c -0.007,0.002 -0.0148,0.002 -0.0222,0.003 l -0.008,0.001 c -0.081,0.0105 -0.1627,0.0158 -0.24442,0.0158 h -5.3e-4 c -0.17449,0 -0.34816,-0.0241 -0.51605,-0.0716 l -0.002,-5.3e-4 c -0.0131,-0.004 -0.0261,-0.008 -0.0391,-0.0116 -0.0192,-0.006 -0.0384,-0.0121 -0.0573,-0.0188 l -0.0293,-0.0103 -0.0127,-0.005 -0.004,-0.001 c -0.007,-0.003 -0.0148,-0.006 -0.0222,-0.008 l -0.006,-0.002 -0.0111,-0.004 -0.003,-0.001 h -5.3e-4 c -0.007,-0.003 -0.0148,-0.006 -0.0222,-0.009 l -0.006,-0.002 -0.006,-0.003 c -0.0111,-0.005 -0.0219,-0.01 -0.033,-0.0143 l -0.009,-0.004 c -0.31832,-0.14479 -0.59056,-0.37471 -0.78661,-0.66431 l -0.005,-0.007 -0.008,-0.0124 -0.007,-0.0111 c -0.1949,-0.3018 -0.30029,-0.65276 -0.30388,-1.01202 v -0.0243 c 0,-0.01 0,-0.0196 2.8e-4,-0.0293 v -0.002 c 7.9e-4,-0.037 0.003,-0.0737 0.006,-0.11018 2.6e-4,-0.004 5.4e-4,-0.008 10e-4,-0.0116 0,-0.002 2.8e-4,-0.004 5.6e-4,-0.006 0.0177,-0.19829 0.0667,-0.39254 0.14529,-0.5755 0.0351,-0.0819 0.0759,-0.1613 0.1221,-0.23752 0.002,-0.003 0.004,-0.007 0.006,-0.01 0.0337,-0.0543 0.0701,-0.10684 0.10914,-0.15746 0.10048,-0.13096 0.21764,-0.24821 0.34852,-0.3488 0.0386,-0.0297 0.0783,-0.058 0.11915,-0.0845 0.0349,-0.0226 0.0705,-0.0441 0.10676,-0.0645 0.20295,-0.11351 0.42494,-0.18901 0.65503,-0.22271 0.0894,-0.0127 0.17953,-0.019 0.2698,-0.019 h 5.4e-4 c 0.007,0 0.0137,-2.9e-4 0.0209,-7.9e-4 h 0.001 c 0.24409,0.003 0.48528,0.0534 0.70999,0.14877 0.004,0.002 0.008,0.003 0.0119,0.005 h 5.4e-4 c 0.069,0.0299 0.14717,0.0309 0.21694,0.003 0.10746,-0.0428 0.17832,-0.14736 0.17832,-0.26304 0,-0.0361 -0.007,-0.0718 -0.0203,-0.1053 -0.0279,-0.0697 -0.0824,-0.12563 -0.15141,-0.15536 h -5.3e-4 c -0.41621,-0.1795 -0.87432,-0.2396 -1.32276,-0.17359 l -0.01,0.002 -0.0156,0.002 -0.003,5.3e-4 -0.0116,0.002 c -0.33773,0.0544 -0.66025,0.1794 -0.94648,0.36672 l -0.002,0.001 c -0.004,0.003 -0.009,0.006 -0.013,0.008 l -0.0132,0.009 c -0.003,0.002 -0.006,0.004 -0.009,0.006 -0.26414,0.17829 -0.49067,0.40679 -0.66667,0.67247 -0.003,0.005 -0.007,0.0111 -0.0111,0.0166 l -0.002,0.003 -0.0114,0.0177 -0.007,0.0103 c -0.002,0.004 -0.005,0.007 -0.007,0.0111 -0.001,0.002 -0.003,0.004 -0.004,0.006 l -0.005,0.007 -5.1e-4,10e-4 2.8e-4,-5.6e-4 z"
   style="fill:#1066df;fill-rule:nonzero;stroke-width:0.028043"
   id="path3" />
        </g>
    </g>
</svg>
