<?xml version="1.0" encoding="UTF-8" standalone="no"?>
<svg
   width="24"
   height="28.981089"
   viewBox="0 0 24 28.981089"
   version="1.1"
   xml:space="preserve"
   style="clip-rule:evenodd;fill-rule:evenodd;stroke-linejoin:round;stroke-miterlimit:2"
   id="svg1"
   xmlns="http://www.w3.org/2000/svg"
   xmlns:svg="http://www.w3.org/2000/svg"><defs
   id="defs1" />
    <g
   transform="matrix(4,0,0,4,-412,-497.50884)"
   id="g1">
        <path
   d="m 109,125.82624 v -1.44903 h -3 v 1.44903 h 1.5 c -0.006,0.39014 -0.1676,0.76214 -0.44842,1.03302 -0.28126,0.27167 -0.65949,0.42124 -1.05158,0.41595 v -1.44897 c -0.78402,-0.01 -1.54002,0.28942 -2.10235,0.83264 -0.56236,0.54323 -0.88514,1.28593 -0.89765,2.06536 0.0125,0.77941 0.33532,1.5221 0.89765,2.06533 0.56233,0.54323 1.31833,0.8426 2.10235,0.83264 0.78422,0.0106 1.54061,-0.28854 2.10308,-0.8319 0.56248,-0.54337 0.88506,-1.28647 0.89692,-2.06607 h -1.5 c -0.003,0.19319 -0.0435,0.38394 -0.12031,0.56123 -0.0769,0.17753 -0.18824,0.33815 -0.32745,0.47255 -0.13948,0.13469 -0.30411,0.24065 -0.4845,0.31178 -0.18066,0.0713 -0.37356,0.10644 -0.56774,0.10347 -0.39209,0.005 -0.77026,-0.14434 -1.0515,-0.41604 -0.28126,-0.27167 -0.44258,-0.64319 -0.4485,-1.03299 0.006,-0.38983 0.16726,-0.76135 0.4485,-1.03302 0.28124,-0.27167 0.65938,-0.42133 1.0515,-0.41601 v 1.44903 c 0.78402,0.01 1.54002,-0.2895 2.10235,-0.83273 0.56233,-0.54319 0.88514,-1.28586 0.89765,-2.06527 z"
   style="fill:#ef6100;fill-rule:nonzero;stroke-width:0.0283019"
   id="path1" />
    </g>
</svg>
