<?xml version="1.0" encoding="UTF-8" standalone="no"?>
<svg
   width="41.950142"
   height="32.824001"
   viewBox="0 0 41.950142 32.824001"
   version="1.1"
   xml:space="preserve"
   style="clip-rule:evenodd;fill-rule:evenodd;stroke-linejoin:round;stroke-miterlimit:2"
   id="svg2"
   xmlns="http://www.w3.org/2000/svg"
   xmlns:svg="http://www.w3.org/2000/svg"><defs
   id="defs2" />
    <g
   transform="matrix(4.00296,0,0,4.00296,-491.91419,-387.88686)"
   id="g2">
        <path
   d="m 128.87802,98.949723 -0.87114,2.049757 h -2.04463 c -10e-4,0 -0.002,0 -0.004,0 -0.56033,0 -1.02136,0.46103 -1.02136,1.02135 0,10e-4 0,0.002 0,0.004 0,0.001 0,0.002 0,0.004 0,0.56032 0.46103,1.02136 1.02136,1.02136 10e-4,0 0.002,0 0.004,0 h 1.1735 l -0.85744,2.04975 c -0.20489,-0.002 -0.21358,0 -0.31606,0 -1.69617,0 -3.07464,-1.37847 -3.07464,-3.07463 0,-1.69621 1.37847,-3.074637 3.07464,-3.074637 h 2.92093 z"
   style="fill:#3551f2;fill-rule:nonzero;stroke-width:0.0409771"
   id="path1" />
        <path
   d="m 133.36739,99.974601 c 0,1.696209 -1.37847,3.074639 -3.07464,3.074639 h -3.15663 l 0.87113,-2.04976 h 2.2855 c 0.56368,0 1.02488,-0.4612 1.02488,-1.024838 0,-0.563722 -0.4612,-1.024919 -1.02488,-1.024919 h -1.41437 l 0.88298,-2.049715 c 0.20488,0.0018 0.33667,0 0.53139,0 1.69617,0 3.07464,1.378428 3.07464,3.074593 z"
   style="fill:#3551f2;fill-rule:nonzero;stroke-width:0.0409771"
   id="path2" />
    </g>
</svg>
