<?xml version="1.0" encoding="UTF-8" standalone="no"?>
<svg
   width="35.773365"
   height="35.773373"
   viewBox="0 0 35.773365 35.773373"
   version="1.1"
   xml:space="preserve"
   style="clip-rule:evenodd;fill-rule:evenodd;stroke-linejoin:round;stroke-miterlimit:2"
   id="svg3"
   xmlns="http://www.w3.org/2000/svg"
   xmlns:svg="http://www.w3.org/2000/svg"><defs
   id="defs3" />
    <g
   transform="matrix(1.00373,0,0,1.01105,-493.91697,-499.7703)"
   id="g3">
        <g
   transform="matrix(3.98212,0,0,3.98212,0.583005,2.53258)"
   id="g1">
            <path
   d="m 127.91849,130.91239 c 1.66326,0 3.00229,-1.33903 3.00229,-2.95999 0,-1.62098 -1.33903,-2.95998 -3.00229,-2.95998 -1.66323,0 -3.00226,1.33903 -3.00226,2.95998 0,1.62096 1.33907,2.95999 3.00226,2.95999 z"
   style="fill:#46b549;fill-rule:nonzero;stroke-width:0.0349351"
   id="path1" />
        </g>
        <g
   transform="matrix(3.98212,0,0,3.98212,0.583005,2.53258)"
   id="g2">
            <path
   d="m 130.43336,131.08902 c 0.1614,0.15291 0.15155,0.41412 -0.0335,0.5373 -1.7413,1.15855 -4.10568,0.98866 -5.65208,-0.5445 -1.76192,-1.7478 -1.76192,-4.53866 0,-6.28647 1.53833,-1.53833 3.92517,-1.70417 5.66952,-0.53272 0.17691,0.11878 0.18959,0.36804 0.0389,0.51875 -0.12856,0.12856 -0.33209,0.13883 -0.48406,0.039 -1.4504,-0.9524 -3.42654,-0.77982 -4.68874,0.48239 -1.49411,1.45179 -1.49411,3.8198 -0.0282,5.2716 1.26245,1.26245 3.23908,1.43489 4.68952,0.48186 0.15256,-0.10023 0.35616,-0.0928 0.48867,0.0328 z m 0.65046,-0.63575 c 0.15301,0.16154 0.41429,0.15256 0.53842,-0.0321 1.0099,-1.50238 1.0056,-3.48582 -0.0129,-4.98408 -0.11934,-0.17555 -0.36738,-0.18729 -0.51749,-0.0372 -0.1293,0.12933 -0.13897,0.33423 -0.0375,0.48637 0.81964,1.22905 0.81842,2.82765 -0.004,4.07724 -0.10057,0.15291 -0.0927,0.35693 0.0332,0.48979 z"
   style="fill:#46b549;fill-rule:nonzero;stroke-width:0.0349351"
   id="path2" />
        </g>
    </g>
</svg>
