<?xml version="1.0" encoding="UTF-8" standalone="no"?>
<svg
   width="102.88319"
   height="68.048759"
   viewBox="0 0 102.88319 68.048759"
   version="1.1"
   xml:space="preserve"
   style="clip-rule:evenodd;fill-rule:evenodd;stroke-linejoin:round;stroke-miterlimit:2"
   id="svg3"
   xmlns="http://www.w3.org/2000/svg"
   xmlns:svg="http://www.w3.org/2000/svg"><defs
   id="defs3" />
    <g
   transform="matrix(3.98978,0,0,3.98978,-458.66876,-478.39458)"
   id="g3">
        <path
   d="m 118.8369,135.76375 c -0.0146,0.004 -0.0299,0.004 -0.0445,0 -0.0379,-0.0111 -0.0665,-0.0428 -0.0737,-0.0816 -0.0409,-0.25919 1.08464,-2.64329 1.60261,-3.56946 0.25959,-0.46012 2.2034,-1.7305 3.51362,-2.35342 0.11692,-0.0552 0.87436,-0.41876 0.8975,-0.37731 0.0231,0.0413 -0.68379,0.59152 -0.72071,0.62291 -1.15246,0.92356 -3.21278,3.33976 -4.28837,4.71438 -0.685,0.87576 -0.81026,1.0292 -0.88643,1.0445 z"
   style="fill-rule:nonzero;stroke-width:0.100616"
   id="path1" />
        <path
   d="m 130.63285,123.01516 c 1.8116,-0.0566 2.76584,0.46022 3.24055,0.92064 0.38355,0.3418 0.61497,0.82314 0.64233,1.33619 0.0123,0.6857 -0.72997,0.89125 -1.17379,1.01552 -0.0599,0.0153 -0.13221,0.0353 -0.19207,0.0552 0.30647,0.12245 1.00958,0.3421 1.64246,0.5385 2.63202,0.81912 3.74594,1.22732 3.84052,1.58179 0.0201,0.0818 -0.006,0.16833 -0.0676,0.22558 -0.14137,0.11813 -0.40861,0.0981 -0.85434,0.023 l -0.0645,-0.0108 c -4.57271,-0.72716 -7.69956,-0.67494 -7.73176,-0.67494 -8.38938,0.12728 -12.67795,6.20068 -14.08829,8.19691 -0.37037,0.52622 -0.51787,0.7343 -0.6537,0.73802 -0.0393,-7e-4 -0.0775,-0.0136 -0.10917,-0.0369 -0.0692,-0.0582 -0.10716,-0.14589 -0.10213,-0.23624 -0.0306,-0.9466 1.96111,-6.54479 6.20149,-9.72507 1.7644,-1.32501 4.76347,-2.66653 9.07961,-1.61056 -0.24671,-0.26462 -0.38526,-0.61245 -0.38808,-0.97417 -1.26766,0.16561 -3.53414,-0.0153 -5.14803,-0.22558 -1.3875,-0.18564 -3.73226,-0.56295 -3.88278,-1.09692 -0.0323,-0.11672 0.0153,-0.24239 0.31493,-0.41736 1.34826,-0.79165 3.28351,-0.9634 3.28351,-0.9634 5.45642,-0.52662 6.21084,1.34051 6.21084,1.34051 z"
   style="fill-rule:nonzero;stroke-width:0.100616"
   id="path2" />
        <path
   d="m 124.66792,121.22771 c 0,0 -1.6488,-0.96973 -1.38308,-1.22731 0.26583,-0.25758 3.28513,0 5.27059,0.85141 1.98546,0.85132 2.11113,1.80103 2.11113,1.80103 -0.64697,-1.05848 -2.3511,-1.71218 -5.99875,-1.42513 z m 14.08879,6.19646 c -0.29501,0.009 -0.5546,0.0139 -0.9464,0.0204 -0.0963,-0.001 -0.19157,-0.0198 -0.28132,-0.0548 l -2.52295,-0.80081 c -0.0738,-0.023 -0.55319,-0.17789 -0.51073,-0.24087 0.0426,-0.0631 0.48396,-0.0598 0.56083,-0.0567 h 0.17055 c 3.09616,0.0905 4.91691,0.30597 5.43398,0.63962 0.0691,0.0385 0.10253,0.12064 0.0799,0.1965 -0.028,0.11259 -0.057,0.23987 -1.98385,0.29672 z m -19.7381,0.92074 c -0.0817,0.0156 -0.16621,0.007 -0.24268,-0.0262 -0.12748,-0.0522 -0.18755,-0.15334 -0.30648,-0.30598 -0.30638,-0.37429 -0.43024,-0.79768 -0.33032,-1.10144 0.0656,-0.18745 0.22497,-0.32741 0.41937,-0.36816 0.60389,-0.15334 1.28456,0.0816 1.53641,0.36816 0.20425,0.22437 0.11077,0.29762 -0.15354,0.51706 -0.15445,0.12889 -0.30075,0.26734 -0.43799,0.41434 -0.22437,0.2276 -0.30607,0.41484 -0.48477,0.50218 z"
   style="fill-rule:nonzero;stroke-width:0.100616"
   id="path3" />
    </g>
</svg>
