<?xml version="1.0" encoding="UTF-8" standalone="no"?>
<svg
   width="23.999813"
   height="24.000164"
   viewBox="0 0 23.999813 24.000164"
   version="1.1"
   xml:space="preserve"
   style="clip-rule:evenodd;fill-rule:evenodd;stroke-linejoin:round;stroke-miterlimit:2"
   id="svg1"
   xmlns="http://www.w3.org/2000/svg"
   xmlns:svg="http://www.w3.org/2000/svg"><defs
   id="defs1" />
    <g
   transform="matrix(4.11463,0,0,4.11463,-515.97271,-515.98569)"
   id="g1">
        <path
   d="m 130.04352,125.96993 0.50292,-0.50292 c 0.0857,-0.0857 0.22498,-0.0858 0.31073,-2e-5 l 0.31071,0.31073 c 0.0858,0.0857 0.0857,0.22498 0,0.31074 v -3e-5 l -0.50289,0.5029 c 0.35657,0.48382 0.56735,1.08139 0.56735,1.72782 0,0.6464 -0.21078,1.24399 -0.56724,1.72764 l 0.50295,0.50295 c 0.0857,0.0857 0.0857,0.22495 -3e-5,0.31071 l -0.31073,0.31073 c -0.0857,0.0857 -0.22495,0.0857 -0.31069,0 l -0.50294,-0.50294 c -0.48373,0.35653 -1.08131,0.56728 -1.72772,0.56728 -0.64643,0 -1.24399,-0.21075 -1.7277,-0.56726 l -0.50297,0.50297 c -0.0857,0.0858 -0.22495,0.0858 -0.31071,0 l -0.31073,-0.31073 c -0.0857,-0.0857 -0.0857,-0.22496 0,-0.31069 l 0.50297,-0.50297 c -0.35651,-0.4837 -0.56726,-1.08129 -0.56726,-1.72769 0,-0.64643 0.21075,-1.244 0.56728,-1.72775 l -0.50292,-0.50292 c -0.0857,-0.0857 -0.0858,-0.22498 -2e-5,-0.31073 l 0.31073,-0.31071 c 0.0857,-0.0858 0.22498,-0.0857 0.31074,0 h -3e-5 l 0.50295,0.50294 c 0.48368,-0.35648 1.08124,-0.56723 1.72767,-0.56723 0.64641,0 1.24399,0.21075 1.72758,0.56718 z m -1.72758,0.31165 c 1.12455,0 2.03754,0.91299 2.03754,2.03757 0,1.12455 -0.91299,2.03753 -2.03754,2.03753 -1.12458,0 -2.03756,-0.91298 -2.03756,-2.03753 0,-1.12458 0.91298,-2.03757 2.03756,-2.03757 z"
   style="fill:#959595;stroke-width:0.0234375"
   id="path1" />
    </g>
</svg>
