<?xml version="1.0" encoding="UTF-8" standalone="no"?>
<svg
   width="23.999971"
   height="17.455082"
   viewBox="0 0 23.999971 17.455082"
   version="1.1"
   xml:space="preserve"
   style="clip-rule:evenodd;fill-rule:evenodd;stroke-linejoin:round;stroke-miterlimit:2"
   id="svg1"
   xmlns="http://www.w3.org/2000/svg"
   xmlns:svg="http://www.w3.org/2000/svg"><defs
   id="defs1" />
    <g
   transform="matrix(4.3809,0,0,4.3809,-524.11265,-552.02569)"
   id="g1">
        <path
   d="m 125.11416,127.99951 c 0,0.36288 -0.0972,0.70287 -0.2666,0.9961 -0.17517,0.30274 -0.42675,0.55432 -0.72949,0.72949 -0.0105,0.006 -0.0207,0.0118 -0.0313,0.0177 -0.28579,0.15853 -0.61462,0.24893 -0.96452,0.24893 h -1.99186 l 0.37341,-0.99607 h -1.12055 l 0.37341,-0.9961 h 2.36559 l -0.37341,0.9961 h 0.37341 c 0.46416,0 0.85397,-0.3174 0.96452,-0.74717 0.0208,-0.0813 0.0314,-0.16498 0.0313,-0.24893 0,-0.54991 -0.44587,-0.99609 -0.99609,-0.99609 h -1.99189 l 0.37343,-0.9961 h 1.61846 c 0.36288,0 0.70286,0.0972 0.99609,0.26661 0.30274,0.17517 0.55432,0.42675 0.72949,0.72949 0.16939,0.29292 0.2666,0.63319 0.2666,0.99609 z m -4.35808,0 h -1.12024 l 0.3734,-0.99609 h 1.12057 z"
   style="fill:#c82020;fill-rule:nonzero;stroke-width:0.0234375"
   id="path1" />
    </g>
</svg>
