<?xml version="1.0" encoding="UTF-8" standalone="no"?>
<svg
   width="24.000231"
   height="30.024031"
   viewBox="0 0 24.000231 30.024031"
   version="1.1"
   xml:space="preserve"
   style="clip-rule:evenodd;fill-rule:evenodd;stroke-linejoin:round;stroke-miterlimit:2"
   id="svg1"
   xmlns="http://www.w3.org/2000/svg"
   xmlns:svg="http://www.w3.org/2000/svg"><defs
   id="defs1" />
    <g
   transform="matrix(4.67367,0,0,4.67367,-915.15067,-1791.2516)"
   id="g1">
        <path
   d="m 195.80992,387.54857 0.29745,-0.7147 h 0.31399 c -0.008,-0.12671 -0.0124,-0.24927 -0.0124,-0.3677 0,-0.15975 0.007,-0.30846 0.0206,-0.44619 h -0.6197 l 0.29745,-0.7147 h 0.46685 c 0.43514,-1.36055 1.41563,-2.04082 2.94145,-2.04082 0.50124,0 0.97772,0.0633 1.42941,0.19002 v 0.90063 c -0.42413,-0.18455 -0.87446,-0.27679 -1.35091,-0.27679 -0.91439,0 -1.50241,0.40899 -1.76405,1.22696 h 2.7225 l -0.29745,0.7147 h -2.6027 c -0.0138,0.0881 -0.0206,0.20659 -0.0206,0.3553 0,0.17077 0.005,0.32362 0.0165,0.45859 h 2.26805 l -0.2933,0.7147 h -1.81776 c 0.19554,0.49575 0.4338,0.8407 0.71471,1.03486 0.28094,0.19419 0.68165,0.29125 1.2022,0.29125 0.3718,0 0.77942,-0.0881 1.22285,-0.2644 v 0.84691 c -0.4214,0.15423 -0.92264,0.23135 -1.50377,0.23135 -1.52858,0 -2.49529,-0.71332 -2.90014,-2.13997 z"
   style="fill:#003f20;fill-rule:nonzero;stroke-width:0.0293778"
   id="path1" />
    </g>
</svg>
