<?xml version="1.0" encoding="UTF-8" standalone="no"?>
<svg
   width="23.999912"
   height="24"
   viewBox="0 0 23.999912 24"
   version="1.1"
   xml:space="preserve"
   style="clip-rule:evenodd;fill-rule:evenodd;stroke-linejoin:round;stroke-miterlimit:2"
   id="svg3"
   xmlns="http://www.w3.org/2000/svg"
   xmlns:svg="http://www.w3.org/2000/svg"><defs
   id="defs3" />
    <g
   transform="matrix(4,0,0,4,-500.00009,-500)"
   id="g3">
        <g
   transform="scale(0.128)"
   id="g1">
            <path
   d="m 1013.4623,1015.7823 c 0.5015,0.5016 0.753,1.2022 0.6853,1.9081 -0.067,0.7059 -0.4479,1.3458 -1.0355,1.7426 -3.7465,2.5256 -8.258,4.0045 -13.1121,4.0045 -4.85421,0 -9.36572,-1.4789 -13.10808,-4.0104 -0.58596,-0.3956 -0.96506,-1.0336 -1.03254,-1.7374 -0.0675,-0.7038 0.18333,-1.4023 0.68335,-1.9022 -0.005,-0.01 -0.005,-0.01 -0.005,-0.01 1.0496,-1.0495 2.68319,-1.2394 3.94551,-0.4584 2.76047,1.7285 6.02323,2.7232 9.51647,2.7232 3.49339,0 6.75609,-0.9947 9.52079,-2.7164 1.259,-0.7789 2.8884,-0.5895 3.9354,0.4575 0.01,-0.01 0.01,-0.01 0.01,-0.01 z m 2.32,-29.24454 c 0.5016,-0.50149 1.2022,-0.75312 1.9081,-0.68541 0.7059,0.0677 1.3458,0.44789 1.7426,1.03561 2.5256,3.74632 4.0045,8.25783 4.0045,13.11204 0,4.8541 -1.4789,9.3656 -4.0104,13.1081 -0.3956,0.586 -1.0336,0.9649 -1.7374,1.0324 -0.7038,0.068 -1.4023,-0.1832 -1.9022,-0.6832 -0.01,0 -0.01,0 -0.01,0 -1.0495,-1.0495 -1.2394,-2.6833 -0.4584,-3.9454 1.7285,-2.7605 2.7232,-6.0232 2.7232,-9.5166 0,-3.49324 -0.9947,-6.756 -2.7164,-9.52076 -0.7789,-1.25911 -0.5895,-2.88851 0.4575,-3.93537 -0.01,-0.006 -0.01,-0.006 -0.01,-0.006 z m -35.20953,0.35416 c 0.4403,-0.65179 1.17736,-1.04337 1.96395,-1.04337 0.62833,0 1.23157,0.24987 1.67587,0.69418 0.005,-0.005 0.005,-0.005 0.005,-0.005 1.04951,1.0496 1.23938,2.68319 0.45856,3.94551 -1.72863,2.76047 -2.72328,6.02323 -2.72328,9.51647 0,3.49339 0.99465,6.75609 2.71636,9.52079 0.77881,1.259 0.58939,2.8884 -0.4575,3.9354 0.006,0.01 0.006,0.01 0.006,0.01 -0.50147,0.5015 -1.20192,0.753 -1.90786,0.6853 -0.70593,-0.068 -1.3458,-0.4479 -1.74279,-1.0355 -2.5255,-3.7465 -4.00441,-8.258 -4.00441,-13.1121 0,-4.8542 1.47891,-9.36571 4.01027,-13.10807 z M 1000,985.23437 c 8.1495,0 14.7656,6.61627 14.7656,14.76563 0,8.1495 -6.6161,14.7656 -14.7656,14.7656 -8.14936,0 -14.76563,-6.6161 -14.76563,-14.7656 0,-8.14936 6.61627,-14.76563 14.76563,-14.76563 z m -13.46224,-1.01681 c -0.44564,-0.44561 -0.69628,-1.05065 -0.69628,-1.68089 0,-0.7889 0.39274,-1.52815 1.04648,-1.96976 3.74632,-2.5255 8.25783,-4.00441 13.11204,-4.00441 4.8541,0 9.3656,1.47891 13.1081,4.01027 0.586,0.39584 0.9649,1.03378 1.0324,1.73761 0.067,0.70383 -0.1832,1.40222 -0.6832,1.90221 0,0.005 0,0.005 0,0.005 -1.0495,1.04951 -2.6833,1.23938 -3.9454,0.45856 -2.7605,-1.72863 -6.0232,-2.72328 -9.5166,-2.72328 -3.49324,0 -6.756,0.99465 -9.52076,2.71636 -1.25911,0.77881 -2.88851,0.58939 -3.93537,-0.4575 -0.006,0.006 -0.006,0.006 -0.006,0.006 z"
   style="fill:#208e7a;stroke-width:0.0234375"
   id="path1" />
        </g>
        <g
   transform="matrix(0.128,0,0,0.128,-0.512,-0.262)"
   id="g2">
            <path
   d="m 993.61719,1003.0323 c 0,0 -0.9001,-7e-4 -0.9001,1.2602 0,1.3179 0.81523,1.3552 1.12371,1.3552 h 1.38811 c 0.63898,2.2914 1.79576,4.0321 3.4703,5.2218 1.67459,1.1899 3.62459,1.7848 5.84989,1.7848 0.9476,0 1.8122,-0.082 2.5946,-0.2477 0.7821,-0.1655 1.443,-0.3858 1.983,-0.6612 0.5398,-0.2754 0.9584,-0.5949 1.2558,-0.9584 0.2974,-0.3635 0.4463,-0.7547 0.4463,-1.1733 0,-0.4406 -0.1048,-0.8289 -0.3636,-1.1238 -0.6761,-0.7701 -1.848,-0.067 -2.7431,0.281 -0.7134,0.2773 -1.5865,0.4463 -2.6442,0.4463 -1.2559,0 -2.3686,-0.2977 -3.338,-0.8925 -0.9695,-0.5949 -1.7077,-1.4874 -2.21442,-2.677 l 7.45112,-0.037 c 0,0 1.1779,-0.2344 1.1751,-1.3179 0,-1.2602 -1.1751,-1.3219 -1.1238,-1.3219 z m 0,-1.9709 c 0,0 -0.9001,6e-4 -0.9001,-1.26035 0,-1.31777 0.81523,-1.35506 1.12371,-1.35506 h 1.38811 c 0.63898,-2.29151 1.79576,-4.03217 3.4703,-5.22199 1.67459,-1.18981 3.62459,-1.78472 5.84989,-1.78472 0.9476,0 1.8122,0.0826 2.5946,0.24787 0.7821,0.16526 1.443,0.3856 1.983,0.66101 0.5398,0.27544 0.9584,0.59491 1.2558,0.95848 0.2974,0.36353 0.4463,0.75464 0.4463,1.17328 0,0.44067 -0.1048,0.82889 -0.3636,1.12371 -0.6761,0.77027 -1.848,0.0672 -2.7431,-0.28092 -0.7134,-0.27732 -1.5865,-0.44618 -2.6442,-0.44618 -1.2559,0 -2.3686,0.29744 -3.338,0.89236 -0.9695,0.59491 -1.7077,1.48727 -2.21442,2.6771 l 7.45112,0.0373 c 0,0 1.1779,0.23437 1.1751,1.31777 0,1.26034 -1.1751,1.32204 -1.1238,1.32204 z"
   style="fill:#ffffff;fill-rule:nonzero;stroke-width:0.0234375"
   id="path2" />
        </g>
    </g>
</svg>
