<?xml version="1.0" encoding="UTF-8" standalone="no"?>
<svg
   width="24"
   height="24"
   viewBox="0 0 24 24"
   version="1.1"
   xml:space="preserve"
   style="clip-rule:evenodd;fill-rule:evenodd;stroke-linejoin:round;stroke-miterlimit:2"
   id="svg1"
   xmlns="http://www.w3.org/2000/svg"
   xmlns:svg="http://www.w3.org/2000/svg"><defs
   id="defs1" />
    <g
   transform="matrix(4,0,0,4,-597.01,-402.986)"
   id="g1">
        <path
   d="m 152.25213,106.7465 c -1.65409,0 -2.99963,-1.34549 -2.99963,-2.99963 0,-1.65409 1.34554,-3.00037 2.99963,-3.00037 1.65414,0 3.00037,1.34554 3.00037,3.00037 0,1.65488 -1.34623,2.99963 -3.00037,2.99963 z m 0,-4.82754 c -1.0075,0 -1.82717,0.81967 -1.82717,1.82717 0,1.0075 0.81967,1.82722 1.82717,1.82722 1.0075,0 1.82717,-0.81972 1.82717,-1.82722 0,-1.0075 -0.81967,-1.82717 -1.82717,-1.82717 z"
   style="fill:#282828;fill-rule:nonzero;stroke-width:0.0494792"
   id="path1" />
    </g>
</svg>
