<?xml version="1.0" encoding="UTF-8" standalone="no"?>
<svg
   width="24.000002"
   height="23.964787"
   viewBox="0 0 24.000002 23.964787"
   version="1.1"
   xml:space="preserve"
   style="clip-rule:evenodd;fill-rule:evenodd;stroke-linejoin:round;stroke-miterlimit:2"
   id="svg1"
   xmlns="http://www.w3.org/2000/svg"
   xmlns:svg="http://www.w3.org/2000/svg"><defs
   id="defs1" />
    <g
   transform="matrix(74.7882,0,0,74.7882,12.000006,523.23431)"
   id="g1">
        <path
   d="m -0.03295312,-6.8474375 -0.05997657,-0.1041563 c -0.0061641,-0.00809 -0.01289062,-0.015726 -0.02013281,-0.022875 -0.008391,-0.00839 -0.0179297,-0.012586 -0.0286172,-0.012586 h -0.0114375 v -0.00916 h 0.13732031 v 0.00916 h -0.01143749 c -0.0106875,0 -0.01640625,0.0042 -0.01717969,0.012586 -7.7344e-4,0.00785 6.5625e-4,0.015774 0.004125,0.022875 l 0.04853906,0.084234 0.05950781,-0.085148 c 0.0037969,-0.00701 0.0057187,-0.014344 0.0057187,-0.021961 0,-0.00839 -0.0053437,-0.012586 -0.01603125,-0.012586 h -0.0114375 v -0.00916 h 0.11444532 v 0.00916 h -0.0114609 c -0.0106641,0 -0.0212813,0.0042 -0.0318047,0.012586 -0.008695,0.00687 -0.0154219,0.0135 -0.02013281,0.019899 l -0.0029766,0.00413 -0.07188282,0.1030078 h 0.13825782 v 0.022875 H 0.03295312 l 0.06089063,0.1055156 c 0.0044297,0.00687 0.01059375,0.014039 0.01853906,0.021516 0.008859,0.00839 0.0186094,0.012586 0.0292969,0.012586 h 0.0114375 v 0.00916 H 0.01579688 v -0.00916 h 0.01143749 c 0.0106875,0 0.01640625,-0.0042 0.01717969,-0.012586 7.7344e-4,-0.00797 -7.2656e-4,-0.015984 -0.0043594,-0.023109 l -0.04830469,-0.083766 -0.05789063,0.082852 c -0.0047344,0.00713 -0.0072891,0.015469 -0.0073359,0.024023 0,0.00839 0.0053437,0.012586 0.01603125,0.012586 h 0.0114375 v 0.00916 h -0.11444532 v -0.00916 h 0.0114609 c 0.0106641,0 0.0209766,-0.0042 0.0308906,-0.012586 0.009305,-0.00778 0.0170156,-0.015328 0.02310937,-0.022664 l 0.07300782,-0.1043672 H -0.1604532 v -0.022875 z"
   style="fill-rule:nonzero;stroke-width:0.0234375"
   id="path1" />
    </g>
</svg>
