<?xml version="1.0" encoding="UTF-8" standalone="no"?>
<svg
   width="23.999922"
   height="24.044851"
   viewBox="0 0 23.999922 24.044851"
   version="1.1"
   xml:space="preserve"
   style="clip-rule:evenodd;fill-rule:evenodd;stroke-linejoin:round;stroke-miterlimit:2"
   id="svg7"
   xmlns="http://www.w3.org/2000/svg"
   xmlns:svg="http://www.w3.org/2000/svg"><defs
   id="defs7" />
    <g
   transform="matrix(16,0,0,16,12.964402,12.022426)"
   id="g7">
        <g
   transform="translate(-32,-32)"
   id="g6">
            <clipPath
   id="_clip1">
                <rect
   x="0"
   y="0"
   width="64"
   height="64"
   id="rect1" />
            </clipPath>
            <g
   clip-path="url(#_clip1)"
   id="g5">
                <g
   transform="matrix(0.632461,0,0,0.64,-188.632,0)"
   id="g4">
                    <g
   id="g3">
                        <g
   id="g2">
                            <g
   id="g1">
                                <path
   d="m 347.84626,50.704439 h 0.001 l -0.19379,0.469626 h 0.46963 l 0.19379,-0.469626 h -10e-4 l 0.19379,-0.469626 h -0.46963 z m 2.09108,-1.174065 c 0,0.388616 -0.31582,0.704439 -0.70444,0.704439 h -0.72322 l 0.19959,-0.469626 h 0.52363 c 0.12915,0 0.23481,-0.105666 0.23481,-0.234813 0,-0.129147 -0.10566,-0.234813 -0.23481,-0.234813 h -0.32404 l 0.19489,-0.469626 h 0.12915 c 0.38862,0 0.70444,0.315824 0.70444,0.704439 z m -1.70826,0.234813 h -0.46963 l -0.19379,0.469626 h 0.46963 z m 0.33172,-0.939252 h -0.46963 l -0.19379,0.469626 h 0.46963 z"
   style="fill:#77bb65;fill-rule:nonzero;stroke-width:0.0234813"
   id="path1" />
                            </g>
                        </g>
                    </g>
                </g>
            </g>
        </g>
    </g>
</svg>
