<?xml version="1.0" encoding="UTF-8" standalone="no"?>
<svg
   width="23.999361"
   height="24.771481"
   viewBox="0 0 23.999361 24.771481"
   version="1.1"
   xml:space="preserve"
   style="clip-rule:evenodd;fill-rule:evenodd;stroke-linejoin:round;stroke-miterlimit:2"
   id="svg1"
   xmlns="http://www.w3.org/2000/svg"
   xmlns:svg="http://www.w3.org/2000/svg"><defs
   id="defs1" />
    <g
   transform="matrix(4,0,0,4,-483.99972,-499.61312)"
   id="g1">
        <path
   d="m 126.98722,126.7384 c -0.009,-0.0772 -0.0215,-0.1538 -0.0387,-0.22952 -0.0177,-0.0778 -0.04,-0.15443 -0.0669,-0.22955 -0.028,-0.0784 -0.0607,-0.15501 -0.0978,-0.22953 -0.0396,-0.0791 -0.0843,-0.15556 -0.13367,-0.22896 -0.0348,-0.0522 -0.0723,-0.10258 -0.11214,-0.15102 -0.0217,-0.0268 -0.0442,-0.053 -0.0674,-0.0785 -0.051,-0.0573 -0.10539,-0.11136 -0.16295,-0.162 -0.0257,-0.0234 -0.0523,-0.0459 -0.0795,-0.0675 -0.0486,-0.0394 -0.0992,-0.0764 -0.15135,-0.11092 -0.0649,-0.0436 -0.13246,-0.0832 -0.20216,-0.11862 -0.009,-0.005 -0.019,-0.01 -0.0287,-0.0143 -0.0748,-0.0372 -0.15196,-0.0697 -0.23088,-0.0972 -0.0754,-0.0266 -0.15232,-0.0488 -0.23035,-0.0664 -0.15157,-0.034 -0.30643,-0.0511 -0.46178,-0.0511 h -3.34628 c -0.12472,-7e-5 -0.24612,0.0404 -0.34582,0.11533 -0.0437,0.032 -0.0824,0.0703 -0.11492,0.11367 -0.0753,0.0989 -0.11611,0.21992 -0.11599,0.34427 v 4.12943 c 0,0.0384 0.002,0.0769 0.005,0.11477 0.005,0.0772 0.0173,0.15375 0.0353,0.22897 0.0376,0.15994 0.10205,0.31239 0.19057,0.45082 0.002,0.003 0.004,0.006 0.006,0.008 0.0525,0.0825 0.11344,0.15944 0.18169,0.22953 0.0138,0.0148 0.0282,0.0291 0.0431,0.0428 l 5.4e-4,5.6e-4 c 0.0704,0.0678 0.14758,0.1281 0.23032,0.18009 0.003,0.002 0.005,0.004 0.008,0.005 0.0708,0.0447 0.14524,0.0833 0.22258,0.11533 0.0748,0.0309 0.15206,0.0557 0.23091,0.0741 0.0757,0.0179 0.15273,0.0296 0.23032,0.0352 h 5.5e-4 v 0.005 h 1.9615 v -0.002 c 0.0324,-0.006 0.0617,-0.0234 0.0827,-0.0488 0.021,-0.0253 0.0324,-0.0572 0.0322,-0.0901 3.2e-4,-0.0323 -0.0109,-0.0636 -0.0315,-0.0884 -0.0143,-0.018 -0.0329,-0.0321 -0.0541,-0.0412 -0.01,-0.005 -0.0196,-0.0109 -0.0293,-0.0165 -0.0392,-0.0219 -0.0777,-0.0449 -0.11545,-0.0692 -0.0397,-0.0247 -0.0779,-0.0516 -0.11543,-0.0791 -0.0107,-0.007 -0.021,-0.0149 -0.0309,-0.0231 -0.0288,-0.0216 -0.057,-0.0439 -0.0845,-0.067 -0.0254,-0.021 -0.0502,-0.0426 -0.0746,-0.0648 -0.0347,-0.0313 -0.0683,-0.0639 -0.10055,-0.0977 -0.0128,-0.0126 -0.0251,-0.0256 -0.037,-0.039 -0.007,-0.007 -0.0127,-0.0137 -0.0188,-0.0203 -0.0493,-0.0544 -0.0957,-0.11117 -0.13926,-0.17022 -0.0323,-0.0434 -0.0629,-0.0881 -0.0917,-0.13399 -0.02,-0.0313 -0.0392,-0.0632 -0.0574,-0.0955 -0.0421,-0.074 -0.0797,-0.15048 -0.11267,-0.22896 -0.0224,-0.0524 -0.0425,-0.10571 -0.0602,-0.1598 -0.008,-0.023 -0.0155,-0.0463 -0.0221,-0.0697 -0.0117,-0.0379 -0.022,-0.0762 -0.0309,-0.11478 -0.009,-0.038 -0.0177,-0.0763 -0.0248,-0.11477 -0.0141,-0.0759 -0.0243,-0.15254 -0.0304,-0.22953 -0.002,-0.028 -0.004,-0.056 -0.005,-0.084 -0.002,-0.0316 -0.002,-0.0633 -0.002,-0.095 v -0.73858 h -0.76616 c -0.033,1.2e-4 -0.0651,-0.0113 -0.0906,-0.0323 -0.0254,-0.0209 -0.0427,-0.0501 -0.0487,-0.0825 -0.008,-0.0374 8.4e-4,-0.0762 0.0232,-0.10708 l 0.005,-0.007 0.0696,-0.0989 0.042,-0.0593 0.0503,-0.0714 0.13809,-0.19657 0.0232,-0.0329 0.16186,-0.22955 0.0458,-0.0653 0.11548,-0.1642 0.11543,-0.16362 0.0458,-0.0653 0.0696,-0.0989 0.0923,-0.13064 0.0232,-0.033 0.13865,-0.19657 0.0917,-0.1307 0.0696,-0.0988 0.0453,-0.0643 c 0.0131,-0.0187 0.0305,-0.0339 0.0507,-0.0444 0.0411,-0.0213 0.0901,-0.0213 0.1312,0 0.0202,0.0105 0.0376,0.0257 0.0507,0.0444 l 0.0453,0.0643 0.0691,0.0983 0.0922,0.13123 0.0232,0.0324 0.11543,0.16417 0.0232,0.033 0.0923,0.13066 0.0696,0.0989 0.0453,0.0648 0.11601,0.16418 0.11489,0.16364 0.0464,0.0659 0.16185,0.22952 0.0226,0.0324 0.13866,0.19715 0.0923,0.13067 0.0696,0.0988 0.005,0.007 c 0.0224,0.0309 0.0308,0.0697 0.0232,0.10706 -0.005,0.0252 -0.0166,0.0486 -0.0338,0.0677 -0.0172,0.0192 -0.0393,0.0333 -0.0639,0.041 -0.0136,0.004 -0.0278,0.006 -0.042,0.006 h -0.7656 v 0.6886 c -7e-5,0.0788 0.0163,0.15682 0.0481,0.22896 0.0176,0.0405 0.04,0.0786 0.0668,0.11367 0.0602,0.0795 0.13972,0.14245 0.23091,0.18288 0.0728,0.0316 0.15147,0.0479 0.2309,0.0478 0.01,0 0.0199,0 0.0298,-5.6e-4 0.0672,-6.8e-4 0.13427,-0.005 0.20105,-0.0121 0.0776,-0.009 0.15469,-0.0214 0.2309,-0.0384 0.0752,-0.017 0.14932,-0.0382 0.22205,-0.0637 h 0.008 v -0.003 c 0.0789,-0.0275 0.15605,-0.06 0.23091,-0.0972 0.078,-0.0383 0.15346,-0.0816 0.22592,-0.1296 h 0.005 v -0.003 c 0.0812,-0.0538 0.15835,-0.11346 0.2309,-0.17845 0.0175,-0.0153 0.0346,-0.031 0.0514,-0.0472 0.0637,-0.0604 0.12348,-0.12474 0.17896,-0.19275 0.01,-0.0121 0.0193,-0.0242 0.0287,-0.0368 0.057,-0.0728 0.10892,-0.14947 0.15523,-0.22953 0.0165,-0.0279 0.0322,-0.0563 0.0469,-0.0851 0.0247,-0.0472 0.0476,-0.0954 0.0685,-0.14443 0.0156,-0.0379 0.0304,-0.0762 0.0442,-0.11475 0.0137,-0.0376 0.026,-0.0757 0.037,-0.11422 0.0218,-0.0755 0.0393,-0.15213 0.0525,-0.22955 0.013,-0.0759 0.0215,-0.15259 0.0254,-0.22952 h 0.003 v -0.45913 c -7e-5,-0.0765 -0.004,-0.15292 -0.0128,-0.22894 z"
   style="fill:#3749e7;fill-rule:nonzero;stroke-width:0.0241935"
   id="path1" />
    </g>
</svg>
