<?xml version="1.0" encoding="UTF-8" standalone="no"?>
<svg
   width="24.000046"
   height="32.494427"
   viewBox="0 0 24.000046 32.494427"
   version="1.1"
   xml:space="preserve"
   style="clip-rule:evenodd;fill-rule:evenodd;stroke-linejoin:round;stroke-miterlimit:2"
   id="svg1"
   xmlns="http://www.w3.org/2000/svg"
   xmlns:svg="http://www.w3.org/2000/svg"><defs
   id="defs1" />
    <g
   transform="matrix(4.91778,0,0,4.91778,-2296.7305,-1643.5527)"
   id="g1">
        <path
   d="m 467.02587,339.10476 h 0.81338 v -0.74026 h -0.81338 v -0.78596 h 0.81338 v -3.37231 h 1.77297 c 0.71285,0 1.27338,0.17974 1.68159,0.53921 0.40821,0.35947 0.61232,0.86211 0.61232,1.50794 0,0.26199 -0.0396,0.5194 -0.11881,0.77225 -0.0792,0.25285 -0.20563,0.48132 -0.37927,0.68543 -0.17364,0.2041 -0.4006,0.36708 -0.68086,0.48894 -0.28027,0.12185 -0.62146,0.18278 -1.02357,0.18278 h -0.97788 v 0.72198 h 0.9139 v 0.78596 h -0.9139 v 0.92305 h -0.88649 v -0.92305 h -0.81338 z m 2.67775,-1.58105 c 0.25589,0 0.46913,-0.0411 0.63973,-0.12338 0.17059,-0.0822 0.30616,-0.1904 0.40669,-0.32443 0.10053,-0.13404 0.17212,-0.27265 0.21476,-0.41583 0.0426,-0.14318 0.064,-0.27265 0.064,-0.38841 0,-0.17669 -0.0411,-0.35947 -0.12338,-0.54834 -0.0822,-0.18888 -0.21629,-0.34729 -0.40212,-0.47523 -0.18583,-0.12795 -0.43715,-0.19192 -0.75397,-0.19192 h -1.02357 v 2.46754 z"
   style="fill:#003f20;fill-rule:nonzero;stroke-width:0.0317328"
   id="path1" />
    </g>
</svg>
