<?xml version="1.0" encoding="UTF-8" standalone="no"?>
<svg
   width="23.999817"
   height="23.999905"
   viewBox="0 0 23.999817 23.999905"
   version="1.1"
   xml:space="preserve"
   style="clip-rule:evenodd;fill-rule:evenodd;stroke-linejoin:round;stroke-miterlimit:2"
   id="svg3"
   xmlns="http://www.w3.org/2000/svg"
   xmlns:svg="http://www.w3.org/2000/svg"><defs
   id="defs3" />
    <g
   transform="matrix(1.23373,0,0,1.23373,-499.99809,-499.998)"
   id="g3">
        <g
   transform="scale(0.415)"
   id="g1">
            <path
   d="m 1013.4623,1015.7823 c 0.5015,0.5016 0.753,1.2022 0.6853,1.9081 -0.067,0.7059 -0.4479,1.3458 -1.0355,1.7426 -3.7465,2.5256 -8.258,4.0045 -13.1121,4.0045 -4.85421,0 -9.36572,-1.4789 -13.10808,-4.0104 -0.58596,-0.3956 -0.96506,-1.0336 -1.03254,-1.7374 -0.0675,-0.7038 0.18333,-1.4023 0.68335,-1.9022 -0.005,-0.01 -0.005,-0.01 -0.005,-0.01 1.0496,-1.0495 2.68319,-1.2394 3.94551,-0.4584 2.76047,1.7285 6.02323,2.7232 9.51647,2.7232 3.49339,0 6.75609,-0.9947 9.52079,-2.7164 1.259,-0.7789 2.8884,-0.5895 3.9354,0.4575 0.01,-0.01 0.01,-0.01 0.01,-0.01 z m 2.32,-29.24454 c 0.5016,-0.50149 1.2022,-0.75312 1.9081,-0.68541 0.7059,0.0677 1.3458,0.44789 1.7426,1.03561 2.5256,3.74632 4.0045,8.25783 4.0045,13.11204 0,4.8541 -1.4789,9.3656 -4.0104,13.1081 -0.3956,0.586 -1.0336,0.9649 -1.7374,1.0324 -0.7038,0.068 -1.4023,-0.1832 -1.9022,-0.6832 -0.01,0 -0.01,0 -0.01,0 -1.0495,-1.0495 -1.2394,-2.6833 -0.4584,-3.9454 1.7285,-2.7605 2.7232,-6.0232 2.7232,-9.5166 0,-3.49324 -0.9947,-6.756 -2.7164,-9.52076 -0.7789,-1.25911 -0.5895,-2.88851 0.4575,-3.93536 -0.01,-0.006 -0.01,-0.006 -0.01,-0.006 z m -35.20953,0.35416 c 0.4403,-0.65179 1.17736,-1.04337 1.96395,-1.04337 0.62833,0 1.23157,0.24987 1.67587,0.69418 0.005,-0.005 0.005,-0.005 0.005,-0.005 1.04951,1.0496 1.23938,2.68319 0.45856,3.94551 -1.72863,2.76047 -2.72327,6.02323 -2.72327,9.51647 0,3.49339 0.99464,6.75609 2.71635,9.52079 0.77881,1.259 0.58939,2.8884 -0.4575,3.9354 0.006,0.01 0.006,0.01 0.006,0.01 -0.50147,0.5015 -1.20192,0.753 -1.90786,0.6853 -0.70593,-0.068 -1.3458,-0.4479 -1.74279,-1.0355 -2.5255,-3.7465 -4.00441,-8.258 -4.00441,-13.1121 0,-4.8542 1.47891,-9.36571 4.01027,-13.10807 z M 1000,985.23438 c 8.1495,0 14.7656,6.61626 14.7656,14.76562 0,8.1495 -6.6161,14.7656 -14.7656,14.7656 -8.14936,0 -14.76562,-6.6161 -14.76562,-14.7656 0,-8.14936 6.61626,-14.76562 14.76562,-14.76562 z m -13.46224,-1.01682 c -0.44564,-0.44561 -0.69628,-1.05065 -0.69628,-1.68089 0,-0.7889 0.39274,-1.52815 1.04648,-1.96976 3.74632,-2.5255 8.25783,-4.00441 13.11204,-4.00441 4.8541,0 9.3656,1.47891 13.1081,4.01027 0.586,0.39584 0.9649,1.03378 1.0324,1.73761 0.067,0.70383 -0.1832,1.40222 -0.6832,1.90221 0,0.005 0,0.005 0,0.005 -1.0495,1.04951 -2.6833,1.23938 -3.9454,0.45856 -2.7605,-1.72863 -6.0232,-2.72327 -9.5166,-2.72327 -3.49324,0 -6.756,0.99464 -9.52076,2.71635 -1.25911,0.77881 -2.88851,0.58939 -3.93536,-0.4575 -0.006,0.006 -0.006,0.006 -0.006,0.006 z"
   style="fill:#208e7a;stroke-width:0.0234375"
   id="path1" />
        </g>
        <g
   transform="matrix(2.03201,0,0,2.03201,-1627.21,-1436.95)"
   id="g2">
            <path
   d="m 1003.3367,911.73264 c -0.1336,0 -0.1528,-0.17775 -0.1528,-0.30375 0,-0.117 0.025,-0.19913 0.074,-0.24638 0.049,-0.0472 0.1103,-0.0709 0.1823,-0.0709 h 0.4117 v -1.39725 c 0,-0.081 0.024,-0.14513 0.071,-0.19238 0.047,-0.0473 0.1091,-0.0821 0.1856,-0.10462 0.072,-0.0225 0.1541,-0.0427 0.2464,-0.0607 0.092,-0.018 0.1867,-0.0337 0.2835,-0.0472 0.096,-0.0135 0.1932,-0.0236 0.2902,-0.0304 0.097,-0.007 0.188,-0.0101 0.2733,-0.0101 0.5492,0 0.9619,0.1125 1.2387,0.3375 0.2768,0.225 0.4151,0.531 0.4151,0.918 0,0.3645 -0.1271,0.657 -0.3814,0.8775 -0.2543,0.2205 -0.6332,0.33075 -1.1374,0.33075 z m 1.3727,0.92475 v 0.45185 c 0,0 -0.016,0.21263 -0.089,0.29702 -0.065,0.075 -0.2262,0.1017 -0.3027,0.1017 -0.1665,0 -0.2858,-0.0316 -0.3578,-0.0946 -0.072,-0.063 -0.108,-0.1665 -0.108,-0.3105 v -0.4455 l -0.4887,0.006 c -0.096,10e-4 -0.1458,-0.0768 -0.1593,-0.12404 -0.014,-0.0472 -0.02,-0.0979 -0.02,-0.15187 0,-0.1035 0.021,-0.17663 0.064,-0.21938 0.043,-0.0427 0.096,-0.0641 0.1586,-0.0641 0,0 2.3106,-0.008 2.8208,0.01 0.1453,0.005 0.1922,0.0441 0.2133,0.11531 0.016,0.0514 0.024,0.10489 0.024,0.15863 0,0.09 -0.022,0.1575 -0.067,0.2025 -0.045,0.045 -0.099,0.0675 -0.162,0.0675 z m 0.5332,-1.5795 c 0.2341,0 0.4162,-0.0461 0.5468,-0.13838 0.1305,-0.0923 0.1957,-0.22837 0.1957,-0.40837 0,-0.189 -0.07,-0.33075 -0.2093,-0.42525 -0.1395,-0.0945 -0.3307,-0.14175 -0.5738,-0.14175 -0.081,0 -0.1641,0.003 -0.2496,0.0101 -0.086,0.007 -0.1665,0.0214 -0.243,0.0439 v 1.05975 z"
   style="fill:#ffffff;fill-rule:nonzero;stroke-width:0.0234375"
   id="path2" />
        </g>
    </g>
</svg>
