<?xml version="1.0" encoding="UTF-8" standalone="no"?>
<svg
   width="24.001141"
   height="23.999901"
   viewBox="0 0 24.001141 23.999901"
   version="1.1"
   xml:space="preserve"
   style="clip-rule:evenodd;fill-rule:evenodd;stroke-linejoin:round;stroke-miterlimit:2"
   id="svg2"
   xmlns="http://www.w3.org/2000/svg"
   xmlns:svg="http://www.w3.org/2000/svg"><defs
   id="defs2" />
    <g
   transform="matrix(3.99977,0,0,3.99977,-499.95709,-499.94261)"
   id="g2">
        <path
   d="m 130.99678,124.99284 -2.00011,2.00012 h -1.33322 c -0.36815,0 -0.66687,0.29846 -0.66687,0.66661 0,0.0749 0.0125,0.14711 0.0352,0.21428 0.0329,0.0967 0.0876,0.18459 0.15986,0.25677 0.12062,0.12088 0.28747,0.19581 0.47154,0.19581 l -0.66663,0.66661 c -0.39537,0 -0.76401,-0.11487 -1.07447,-0.31271 -0.5567,-0.3554 -0.92562,-0.97806 -0.92562,-1.68737 0,-1.10473 0.89541,-2.00012 2.00011,-2.00012 z"
   style="fill:#b2fe92;fill-rule:nonzero;stroke-width:0.02344"
   id="path1" />
        <path
   d="m 130.99678,128.99307 c 0,1.1047 -0.89541,2.00009 -2.00011,2.00009 h -4.0002 l 2.00011,-2.00009 h 1.33348 c 0.36815,0 0.66661,-0.29846 0.66661,-0.66661 0,-0.01 0,-0.0188 -4.9e-4,-0.028 0,-0.006 -4.9e-4,-0.0125 -0.001,-0.0187 0,-0.001 0,-0.003 -4.9e-4,-0.005 0,-0.004 -4.9e-4,-0.008 -0.001,-0.0122 0,-0.004 -4.9e-4,-0.007 -9.8e-4,-0.0105 -5e-4,-0.004 -7.5e-4,-0.007 -0.002,-0.011 0,-0.002 -4.9e-4,-0.005 -7.5e-4,-0.006 -7.5e-4,-0.006 -0.002,-0.0117 -0.002,-0.0175 0,-5e-4 0,-0.001 -5e-4,-0.001 -0.001,-0.008 -0.002,-0.0147 -0.004,-0.0222 -1.4e-4,-0.002 -6.5e-4,-0.005 -0.002,-0.007 -0.001,-0.008 -0.003,-0.015 -0.005,-0.0225 -4.9e-4,-0.002 -7.5e-4,-0.003 -0.001,-0.005 -0.002,-0.007 -0.004,-0.014 -0.006,-0.021 -0.003,-0.009 -0.005,-0.0176 -0.008,-0.0262 -0.005,-0.0155 -0.0112,-0.031 -0.0175,-0.046 -0.004,-0.01 -0.009,-0.0194 -0.0132,-0.029 -0.004,-0.009 -0.009,-0.018 -0.0135,-0.0267 -0.006,-0.0112 -0.0125,-0.0222 -0.0187,-0.033 -0.004,-0.007 -0.008,-0.0132 -0.0127,-0.0197 -0.005,-0.007 -0.01,-0.0145 -0.015,-0.0215 -0.002,-0.003 -0.005,-0.006 -0.007,-0.009 -0.004,-0.005 -0.008,-0.0102 -0.012,-0.0155 -0.003,-0.005 -0.007,-0.01 -0.0115,-0.0142 -0.006,-0.007 -0.0112,-0.0131 -0.017,-0.0195 -0.007,-0.008 -0.014,-0.0152 -0.0215,-0.0225 -0.12479,-0.12536 -0.29466,-0.1958 -0.47154,-0.19556 l 0.66661,-0.66663 c 0.013,0 0.026,0 0.039,5.1e-4 0.01,0 0.0195,4.7e-4 0.0295,7.5e-4 0.0263,7.7e-4 0.0525,0.002 0.0787,0.004 0.008,5.2e-4 0.0172,0.001 0.0257,0.002 0.0327,0.002 0.0654,0.006 0.0977,0.0105 0.009,0.001 0.0187,0.003 0.0282,0.004 0.0125,0.002 0.0252,0.004 0.0377,0.006 l 0.0262,0.005 c 0.002,4.9e-4 0.004,4.9e-4 0.006,0.001 0.0115,0.002 0.0232,0.004 0.0347,0.007 0.0145,0.003 0.0292,0.006 0.0437,0.009 l 0.009,0.002 c 0.0148,0.004 0.0297,0.007 0.0442,0.0108 5.2e-4,0 0.001,0 0.001,4.6e-4 0.0155,0.004 0.0307,0.008 0.046,0.0125 0.0157,0.004 0.0317,0.009 0.0472,0.0142 0.0142,0.004 0.0282,0.009 0.0422,0.0135 0.002,7.5e-4 0.004,0.002 0.006,0.002 0.0137,0.005 0.0277,0.009 0.0414,0.0147 0.002,5.2e-4 0.004,0.001 0.006,0.002 0.0145,0.005 0.029,0.0105 0.0432,0.0165 0.0152,0.006 0.0302,0.012 0.0452,0.0185 0.0309,0.0129 0.0614,0.0267 0.0914,0.0415 0.0137,0.007 0.0272,0.0133 0.0407,0.0202 0.0145,0.008 0.0287,0.0147 0.0427,0.0225 0.0142,0.008 0.0282,0.0155 0.0422,0.0235 0.014,0.008 0.0277,0.0162 0.0417,0.0245 0.0127,0.008 0.0257,0.0155 0.0382,0.0235 0.001,7.5e-4 0.002,0.001 0.004,0.002 0.0268,0.0173 0.0532,0.0352 0.0792,0.0537 0.0261,0.0186 0.0518,0.0378 0.0769,0.0577 0.0115,0.009 0.0227,0.018 0.034,0.0275 0.002,0.001 0.004,0.003 0.006,0.004 0.0361,0.03 0.0712,0.0612 0.10515,0.0937 0.0115,0.0113 0.023,0.0222 0.0345,0.0337 0.0115,0.0115 0.0225,0.0227 0.0337,0.0344 0.011,0.0115 0.0217,0.0232 0.0327,0.035 0.019,0.021 0.0377,0.0422 0.0557,0.0639 0.004,0.004 0.008,0.009 0.0115,0.0142 0.009,0.0105 0.0173,0.021 0.0257,0.0317 0.0196,0.0248 0.0386,0.0501 0.0569,0.0759 0.0183,0.0258 5.1e-4,5.2e-4 5.1e-4,0.001 0.01,0.013 0.0185,0.0262 0.0275,0.0397 0.009,0.0132 0.0177,0.0267 0.0267,0.0402 0.008,0.0135 0.017,0.0267 0.0252,0.0405 0.002,0.003 0.003,0.005 0.005,0.008 0.007,0.0112 0.0135,0.0225 0.02,0.034 0.008,0.014 0.016,0.028 0.0235,0.0422 0.006,0.0105 0.0115,0.0212 0.017,0.032 0.0148,0.0286 0.029,0.0576 0.0425,0.0869 0.004,0.008 0.007,0.016 0.011,0.0242 0.006,0.0122 0.0108,0.0245 0.016,0.037 0.006,0.0132 0.011,0.0267 0.0162,0.04 0.005,0.0125 0.01,0.0255 0.0145,0.0382 0.002,0.006 0.005,0.0118 0.006,0.0178 0.003,0.009 0.007,0.0182 0.01,0.0275 0.006,0.0182 0.0125,0.0367 0.018,0.0552 0.004,0.0135 0.008,0.0272 0.0122,0.0407 0.001,0.004 0.002,0.007 0.003,0.0107 0.004,0.0142 0.008,0.0285 0.0115,0.0427 0,4.9e-4 4.9e-4,0.001 4.9e-4,0.001 0.003,0.0135 0.007,0.0272 0.01,0.0407 0.005,0.02 0.009,0.0405 0.0135,0.0607 0.002,0.012 0.004,0.024 0.007,0.0362 0.003,0.0128 0.004,0.0255 0.006,0.0382 0.001,0.009 0.003,0.0185 0.005,0.028 10e-4,0.0112 0.003,0.0225 0.004,0.0337 0.001,0.007 0.002,0.0137 0.002,0.0207 10e-4,0.0117 0.003,0.0237 0.004,0.0357 v 5.2e-4 c 0.002,0.0162 0.003,0.0322 0.005,0.0485 0,0.001 0,0.003 4.9e-4,0.005 10e-4,0.0152 0.002,0.0302 0.003,0.0454 0,0.002 0,0.004 5.1e-4,0.006 7.5e-4,0.0147 0.001,0.0295 0.001,0.0442 v 0.007 c 5.1e-4,0.016 5.1e-4,0.032 5.1e-4,0.048 z"
   style="fill:#078465;fill-rule:nonzero;stroke-width:0.02344"
   id="path2" />
    </g>
</svg>
