<?xml version="1.0" encoding="UTF-8" standalone="no"?>
<svg
   width="24.00009"
   height="31.766668"
   viewBox="0 0 24.00009 31.766668"
   version="1.1"
   xml:space="preserve"
   style="clip-rule:evenodd;fill-rule:evenodd;stroke-linejoin:round;stroke-miterlimit:2"
   id="svg1"
   xmlns="http://www.w3.org/2000/svg"
   xmlns:svg="http://www.w3.org/2000/svg"><defs
   id="defs1" />
    <g
   transform="matrix(4.06892,0,0,4.06892,-492.20594,-496.11788)"
   id="g1">
        <path
   d="m 126.8502,125.0671 c 0.12272,-0.82031 -0.50191,-1.26129 -1.356,-1.55546 l 0.27705,-1.11121 -0.67647,-0.16857 -0.26972,1.08193 c -0.17784,-0.0443 -0.36049,-0.0861 -0.54199,-0.12752 l 0.27165,-1.08907 -0.67606,-0.16856 -0.27726,1.11084 c -0.14719,-0.0336 -0.29169,-0.0667 -0.43196,-0.10156 l 7.8e-4,-0.003 -0.93291,-0.23294 -0.17995,0.72244 c 0,0 0.50191,0.11502 0.4913,0.12213 0.27397,0.0684 0.32348,0.24968 0.3152,0.3934 l -0.31557,1.26591 c 0.0189,0.005 0.0433,0.0117 0.0703,0.0225 -0.0226,-0.006 -0.0466,-0.0118 -0.0715,-0.0177 l -0.44235,1.77334 c -0.0335,0.0832 -0.1185,0.20805 -0.31002,0.16066 0.007,0.01 -0.49167,-0.12272 -0.49167,-0.12272 l -0.33583,0.77427 0.8803,0.21941 c 0.16378,0.041 0.32425,0.084 0.48224,0.12445 l -0.27993,1.1239 0.67569,0.1686 0.27726,-1.11199 c 0.17917,0.0486 0.35887,0.0952 0.53907,0.13987 l -0.2763,1.10678 0.67647,0.16856 0.27995,-1.12179 c 1.15353,0.21826 2.02092,0.13022 2.38603,-0.91296 0.2942,-0.83997 -0.0146,-1.32448 -0.62155,-1.64042 0.44198,-0.10191 0.77492,-0.39263 0.86373,-0.99309 z m -1.54559,2.16708 c -0.20905,0.83998 -1.62343,0.3859 -2.082,0.27202 l 0.37147,-1.48898 c 0.45857,0.11444 1.929,0.34101 1.71053,1.21696 z m 0.20923,-2.17924 c -0.19075,0.76406 -1.36794,0.37587 -1.74983,0.2807 l 0.33679,-1.35047 c 0.38189,0.0952 1.61169,0.27279 1.41304,1.06977 z"
   style="fill:#ef4800;fill-rule:nonzero;stroke-width:0.0310204"
   id="path1" />
    </g>
</svg>
