<?xml version="1.0" encoding="UTF-8" standalone="no"?>
<svg
   width="35.772961"
   height="35.755146"
   viewBox="0 0 35.772961 35.755146"
   version="1.1"
   xml:space="preserve"
   style="clip-rule:evenodd;fill-rule:evenodd;stroke-linejoin:round;stroke-miterlimit:2"
   id="svg2"
   xmlns="http://www.w3.org/2000/svg"
   xmlns:svg="http://www.w3.org/2000/svg"><defs
   id="defs2" />
    <g
   transform="matrix(3.95941,0,0,3.98627,-488.37352,-492.12343)"
   id="g2">
        <path
   d="m 127.87847,130.94121 c 1.67902,0 3.03078,-1.35176 3.03078,-2.98808 0,-1.63632 -1.35176,-2.98804 -3.03078,-2.98804 -1.67898,0 -3.03073,1.35172 -3.03073,2.98804 0,1.63632 1.35175,2.98808 3.03073,2.98808 z"
   style="fill:#ef4800;fill-rule:nonzero;stroke-width:0.0350541"
   id="path1" />
        <path
   d="m 130.41856,131.1197 c 0.16293,0.15435 0.15301,0.41806 -0.0339,0.54239 -1.75779,1.16955 -4.14462,0.99806 -5.70568,-0.54964 -1.77861,-1.76438 -1.77861,-4.58171 0,-6.34608 1.55297,-1.55293 3.96241,-1.72035 5.72331,-0.53777 0.17857,0.11996 0.1914,0.37158 0.0393,0.52371 -0.12981,0.12977 -0.33526,0.14015 -0.48866,0.0394 -1.46417,-0.96147 -3.45903,-0.78725 -4.73324,0.48697 -1.50824,1.46554 -1.50824,3.85598 -0.0284,5.32155 1.27443,1.27443 3.26977,1.4485 4.73398,0.48645 0.15399,-0.1012 0.35951,-0.0937 0.49328,0.0331 z m 0.65649,-0.64163 c 0.15445,0.16304 0.41823,0.15396 0.54352,-0.0324 1.01947,-1.51662 1.01516,-3.51887 -0.013,-5.03138 -0.12048,-0.1772 -0.37088,-0.18905 -0.52241,-0.0375 -0.13055,0.13051 -0.14029,0.33736 -0.0379,0.49093 0.82741,1.24074 0.82615,2.85449 -0.004,4.11595 -0.10156,0.15434 -0.0936,0.36028 0.0335,0.49443 z"
   style="fill:#ef4800;fill-rule:nonzero;stroke-width:0.0350541"
   id="path2" />
    </g>
</svg>
