<?xml version="1.0" encoding="UTF-8" standalone="no"?>
<svg
   width="23.999983"
   height="22.067793"
   viewBox="0 0 23.999983 22.067793"
   version="1.1"
   xml:space="preserve"
   style="clip-rule:evenodd;fill-rule:evenodd;stroke-linejoin:round;stroke-miterlimit:2"
   id="svg1"
   xmlns="http://www.w3.org/2000/svg"
   xmlns:svg="http://www.w3.org/2000/svg"><defs
   id="defs1" />
    <g
   transform="matrix(4.33898,0,0,4.33898,-534.71151,-572.55891)"
   id="g1">
        <path
   d="m 126.56149,134.69027 v -7.3e-4 c -0.0315,0.002 -0.19425,0.0117 -0.55636,0.0117 -0.28954,0 -0.49258,-0.008 -0.56442,-0.0117 v 7.3e-4 c -1.11342,-0.049 -1.94391,-0.24223 -1.94391,-0.47422 0,-0.23123 0.83122,-0.42515 1.94391,-0.47418 v 0.75593 c 0.0726,0.005 0.28149,0.0176 0.56956,0.0176 0.34598,0 0.51895,-0.0146 0.55122,-0.0176 v -0.75521 c 1.11122,0.0498 1.93953,0.24296 1.93953,0.47421 0,0.23124 -0.82904,0.42443 -1.93953,0.47419 m 0,-1.0267 v -0.67617 h 1.5503 v -1.03109 h -4.22063 v 1.03109 h 1.5503 v 0.67617 c -1.26005,0.0578 -2.20708,0.30663 -2.20708,0.6052 0,0.29857 0.94776,0.54739 2.20708,0.60591 v 2.16757 h 1.12076 v -2.16757 c 1.25782,-0.0578 2.20341,-0.30661 2.20341,-0.60518 0,-0.29784 -0.94559,-0.54738 -2.20341,-0.6052"
   style="fill:#26a17b;fill-rule:nonzero;stroke-width:0.0234375"
   id="path1" />
    </g>
</svg>
