<?xml version="1.0" encoding="UTF-8" standalone="no"?>
<svg
   width="24.000448"
   height="46.919392"
   viewBox="0 0 24.000448 46.919392"
   version="1.1"
   xml:space="preserve"
   style="clip-rule:evenodd;fill-rule:evenodd;stroke-linejoin:round;stroke-miterlimit:2"
   id="svg1"
   xmlns="http://www.w3.org/2000/svg"
   xmlns:svg="http://www.w3.org/2000/svg"><defs
   id="defs1" />
    <g
   transform="matrix(3.12899,0,0,3.12899,-784.32484,-1001.2235)"
   id="g1">
        <path
   d="m 254.75156,334.97803 h -1.38146 v -1.7526 h -2.7062 v -11.1754 h 2.7062 v -2.06706 h 1.38146 v 2.09798 c 0.74915,0.0138 1.37802,0.13059 1.88662,0.35052 h -0.005 c 0.39519,0.16496 0.71304,0.46562 0.9536,0.90206 0.10653,0.20275 0.18731,0.40637 0.24229,0.61082 0.055,0.20449 0.0825,0.41499 0.0825,0.63148 0,0.94503 -0.36771,1.7165 -1.10311,2.31444 -0.0894,0.0756 -0.17957,0.14521 -0.27061,0.20876 -0.0911,0.0636 -0.19506,0.13146 -0.3119,0.20362 0.33334,0.12028 0.63836,0.27923 0.91498,0.4768 0.27666,0.19762 0.51803,0.43043 0.72422,0.69847 0.31272,0.41238 0.4691,0.94503 0.4691,1.59796 0,0.56702 -0.14433,1.0928 -0.43299,1.57734 -0.28179,0.47767 -0.67355,0.85225 -1.17528,1.12373 -0.50516,0.27836 -1.16326,0.42786 -1.97427,0.44848 z m 0,-8.36611 c 0.079,-0.0206 0.16238,-0.0498 0.25004,-0.0876 0.0876,-0.0378 0.17952,-0.0825 0.27574,-0.13402 0.10997,-0.0584 0.2165,-0.14433 0.31959,-0.25773 0.10309,-0.11341 0.19588,-0.25261 0.27835,-0.41756 0.0825,-0.16839 0.14521,-0.32816 0.18819,-0.47936 0.0429,-0.15121 0.0644,-0.29728 0.0644,-0.43818 0,-0.34708 -0.14264,-0.64088 -0.42787,-0.88143 -0.16495,-0.16151 -0.4811,-0.27666 -0.94846,-0.34539 z m -1.38146,-3.07221 h -0.90723 v 3.19079 h 0.90723 z m 1.38146,8.2063 c 0.12027,-0.007 0.23629,-0.0197 0.34795,-0.0387 0.11171,-0.0189 0.2225,-0.0455 0.33247,-0.0799 0.12028,-0.0378 0.23024,-0.0851 0.3299,-0.14176 0.0997,-0.0567 0.19075,-0.12284 0.27322,-0.19845 h -0.005 c 0.30928,-0.29897 0.46392,-0.66667 0.46392,-1.1031 0,-0.33334 -0.0962,-0.65124 -0.28866,-0.95365 h 0.005 c -0.17526,-0.26804 -0.45705,-0.49485 -0.84537,-0.68042 -0.20962,-0.10309 -0.41412,-0.18383 -0.61343,-0.24225 z m -2.28869,-3.54644 v 3.55162 h 0.90723 v -3.55162 z"
   style="fill:#003f20;fill-rule:nonzero;stroke-width:0.0458196"
   id="path1" />
    </g>
</svg>
