<?xml version="1.0" encoding="UTF-8" standalone="no"?>
<svg
   width="23.999912"
   height="24"
   viewBox="0 0 23.999912 24"
   version="1.1"
   xml:space="preserve"
   style="clip-rule:evenodd;fill-rule:evenodd;stroke-linejoin:round;stroke-miterlimit:2"
   id="svg4"
   xmlns="http://www.w3.org/2000/svg"
   xmlns:svg="http://www.w3.org/2000/svg"><defs
   id="defs4" />
    <g
   transform="matrix(4,0,0,4,11.999913,12)"
   id="g4">
        <g
   transform="translate(-128,-128)"
   id="g3">
            <g
   transform="scale(0.128)"
   id="g1">
                <path
   d="m 1013.4623,1015.7823 c 0.5015,0.5016 0.753,1.2022 0.6853,1.9081 -0.067,0.7059 -0.4479,1.3458 -1.0355,1.7426 -3.7465,2.5256 -8.258,4.0045 -13.1121,4.0045 -4.85421,0 -9.36572,-1.4789 -13.10808,-4.0104 -0.58596,-0.3956 -0.96506,-1.0336 -1.03254,-1.7374 -0.0675,-0.7038 0.18333,-1.4023 0.68335,-1.9022 -0.005,-0.01 -0.005,-0.01 -0.005,-0.01 1.0496,-1.0495 2.68319,-1.2394 3.94551,-0.4584 2.76047,1.7285 6.02323,2.7232 9.51647,2.7232 3.49339,0 6.75609,-0.9947 9.52079,-2.7164 1.259,-0.7789 2.8884,-0.5895 3.9354,0.4575 0.01,-0.01 0.01,-0.01 0.01,-0.01 z m 2.32,-29.24454 c 0.5016,-0.50149 1.2022,-0.75312 1.9081,-0.68541 0.7059,0.0677 1.3458,0.44789 1.7426,1.03561 2.5256,3.74632 4.0045,8.25783 4.0045,13.11204 0,4.8541 -1.4789,9.3656 -4.0104,13.1081 -0.3956,0.586 -1.0336,0.9649 -1.7374,1.0324 -0.7038,0.068 -1.4023,-0.1832 -1.9022,-0.6832 -0.01,0 -0.01,0 -0.01,0 -1.0495,-1.0495 -1.2394,-2.6833 -0.4584,-3.9454 1.7285,-2.7605 2.7232,-6.0232 2.7232,-9.5166 0,-3.49324 -0.9947,-6.756 -2.7164,-9.52076 -0.7789,-1.25911 -0.5895,-2.88851 0.4575,-3.93537 -0.01,-0.006 -0.01,-0.006 -0.01,-0.006 z m -35.20953,0.35416 c 0.4403,-0.65179 1.17736,-1.04337 1.96395,-1.04337 0.62833,0 1.23157,0.24987 1.67587,0.69418 0.005,-0.005 0.005,-0.005 0.005,-0.005 1.04951,1.0496 1.23938,2.68319 0.45856,3.94551 -1.72863,2.76047 -2.72328,6.02323 -2.72328,9.51647 0,3.49339 0.99465,6.75609 2.71636,9.52079 0.77881,1.259 0.58939,2.8884 -0.4575,3.9354 0.006,0.01 0.006,0.01 0.006,0.01 -0.50147,0.5015 -1.20192,0.753 -1.90786,0.6853 -0.70593,-0.068 -1.3458,-0.4479 -1.74279,-1.0355 -2.5255,-3.7465 -4.00441,-8.258 -4.00441,-13.1121 0,-4.8542 1.47891,-9.36571 4.01027,-13.10807 z M 1000,985.23437 c 8.1495,0 14.7656,6.61627 14.7656,14.76563 0,8.1495 -6.6161,14.7656 -14.7656,14.7656 -8.14936,0 -14.76563,-6.6161 -14.76563,-14.7656 0,-8.14936 6.61627,-14.76563 14.76563,-14.76563 z m -13.46224,-1.01681 c -0.44564,-0.44561 -0.69628,-1.05065 -0.69628,-1.68089 0,-0.7889 0.39274,-1.52815 1.04648,-1.96976 3.74632,-2.5255 8.25783,-4.00441 13.11204,-4.00441 4.8541,0 9.3656,1.47891 13.1081,4.01027 0.586,0.39584 0.9649,1.03378 1.0324,1.73761 0.067,0.70383 -0.1832,1.40222 -0.6832,1.90221 0,0.005 0,0.005 0,0.005 -1.0495,1.04951 -2.6833,1.23938 -3.9454,0.45856 -2.7605,-1.72863 -6.0232,-2.72328 -9.5166,-2.72328 -3.49324,0 -6.756,0.99465 -9.52076,2.71636 -1.25911,0.77881 -2.88851,0.58939 -3.93537,-0.4575 -0.006,0.006 -0.006,0.006 -0.006,0.006 z"
   style="fill:#208e7a;stroke-width:0.0234375"
   id="path1" />
            </g>
            <g
   transform="matrix(0.49705,0,0,0.49705,-374.924,-322.765)"
   id="g2">
                <path
   d="m 1013.131,906.71671 c 0.051,-0.0611 0.095,-0.12898 0.1333,-0.20372 0.083,-0.16341 0.1243,-0.33542 0.1243,-0.51593 v -0.32979 c 0,-0.34631 -0.1353,-0.62438 -0.4048,-0.83463 -0.2449,-0.1909 -0.5632,-0.29375 -0.9579,-0.30024 v -0.51417 c 0,-0.0936 -0.077,-0.17063 -0.1706,-0.17065 h -0.4481 c -0.094,0 -0.1707,0.077 -0.1707,0.17065 v 0.51384 h -0.6693 c -0.328,0 -0.5939,0.26593 -0.5939,0.59393 v 3.52817 c 0,0.17048 0.056,0.30733 0.162,0.41313 0.1058,0.10594 0.2426,0.16195 0.4131,0.16195 h 0.6881 v 0.51399 c 0,0.0942 0.076,0.17062 0.1707,0.17062 h 0.4481 c 0.093,0 0.1706,-0.0771 0.1706,-0.17062 v -0.51399 h 0.2648 c 0.4196,0 0.75,-0.12164 0.9952,-0.35503 0.2487,-0.23672 0.3766,-0.54972 0.3766,-0.94188 v -0.29869 c 0,-0.24773 -0.074,-0.4642 -0.2203,-0.65001 -0.087,-0.11032 -0.1903,-0.19941 -0.3112,-0.26693 z m -0.2703,0.91694 v 0.29869 c 0,0.16289 -0.051,0.29489 -0.1591,0.39356 -0.1148,0.1047 -0.2735,0.15138 -0.473,0.15138 h -1.4535 v -1.2517 h 1.578 c 0.157,0 0.285,0.0364 0.3811,0.11806 0.086,0.0728 0.1265,0.17006 0.1265,0.29001 z m -2.0856,-1.13519 v -1.21437 h 1.2107 c 0.1873,0 0.3408,0.0376 0.4582,0.12096 0.094,0.0667 0.1428,0.15335 0.1428,0.26222 v 0.32979 c 0,0.1533 -0.04,0.27764 -0.1294,0.36991 -0.087,0.0901 -0.2037,0.13149 -0.3471,0.13149 z"
   style="fill:#ffffff;fill-rule:nonzero;stroke-width:0.0234375"
   id="path2" />
            </g>
        </g>
    </g>
</svg>
