<?xml version="1.0" encoding="UTF-8" standalone="no"?>
<svg
   width="23.99996"
   height="9.89048"
   viewBox="0 0 23.99996 9.89048"
   version="1.1"
   xml:space="preserve"
   style="clip-rule:evenodd;fill-rule:evenodd;stroke-linejoin:round;stroke-miterlimit:2"
   id="svg3"
   xmlns="http://www.w3.org/2000/svg"
   xmlns:svg="http://www.w3.org/2000/svg"><defs
   id="defs3" />
    <g
   transform="matrix(4,0,0,4,11.98396,4.44734)"
   id="g3">
        <g
   transform="translate(-128,-53)"
   id="g2">
            <clipPath
   id="_clip1">
                <rect
   x="0"
   y="0"
   width="256"
   height="106"
   id="rect1" />
            </clipPath>
            <g
   clip-path="url(#_clip1)"
   id="g1">
                <path
   d="m 126.53304,52.442609 h 0.45183 c 0.0211,0 0.0382,0.01702 0.0382,0.03809 v 1.240383 c 0,0.02109 -0.0171,0.03809 -0.0382,0.03809 h -0.45183 c -0.0211,0 -0.0382,-0.01702 -0.0382,-0.03809 v -1.240383 c 0,-0.02107 0.0171,-0.03809 0.0382,-0.03809 z m 1.66179,-0.02201 c 0.22298,0 0.39326,0.05775 0.51065,0.173297 0.1145,0.112594 0.17166,0.273586 0.17166,0.482695 v 0.644297 c 0,0.02109 -0.0171,0.03809 -0.0382,0.03809 h -0.45181 c -0.0211,0 -0.0382,-0.01701 -0.0382,-0.03809 v -0.635554 c 0,-0.150704 -0.11004,-0.225985 -0.33009,-0.225985 -0.22006,0 -0.33007,0.07542 -0.33007,0.225985 v 0.635554 c 0,0.02109 -0.0171,0.03809 -0.0382,0.03809 h -0.45183 c -0.0211,0 -0.0382,-0.01701 -0.0382,-0.03809 v -1.240359 c 0,-0.02109 0.0171,-0.03811 0.0382,-0.03811 h 0.45183 c 0.0211,0 0.0382,0.01702 0.0382,0.03811 v 0.108914 c 0.11728,-0.1125 0.286,-0.168844 0.50606,-0.168844 z m 2.80917,0.03872 c -7e-5,-0.02062 -0.0168,-0.03769 -0.0374,-0.03809 -0.0855,-0.0023 -0.27978,0.0146 -0.40737,0.101062 -0.0307,0.02081 -0.0604,0.04202 -0.0867,0.06727 v 2.58e-4 c -0.15064,-0.112734 -0.36572,-0.169219 -0.64601,-0.169219 -0.28755,0 -0.50775,0.06005 -0.6603,0.179883 -0.1467,0.11707 -0.22006,0.283758 -0.22006,0.500344 0,0.216468 0.0734,0.383297 0.22006,0.500343 0.0981,0.07706 0.22413,0.129235 0.37797,0.156797 v 1.18e-4 c 0.0894,0.01664 0.19369,0.02515 0.31849,0.02388 0.0352,-0.0011 0.0705,-0.0031 0.10557,-0.0062 0.0276,-0.0021 0.0552,-0.005 0.0826,-0.0086 0.0164,-0.002 0.0329,-0.0042 0.0493,-0.0066 0.0371,-0.0056 0.0723,0.02037 0.0779,0.05752 0.005,0.03715 -0.0207,0.07221 -0.0578,0.0777 -0.0997,0.01474 -0.20836,0.02363 -0.29074,0.02363 -0.0979,0 -0.18938,-0.0066 -0.27418,-0.0198 -0.0557,-0.0085 -0.11076,-0.02058 -0.1649,-0.03619 -0.0195,-0.0056 -0.0403,0.0052 -0.0468,0.02449 l -0.11154,0.333656 c -0.006,0.01908 0.003,0.04008 0.0222,0.04748 0.1425,0.05726 0.3027,0.07819 0.45527,0.08658 0.21012,0.01156 0.43655,0.0066 0.64118,-0.04545 0.0502,-0.0127 0.10022,-0.02946 0.14569,-0.05358 0.0301,-0.01587 0.0582,-0.03504 0.083,-0.05829 0.0569,-0.05332 0.0937,-0.125813 0.11128,-0.201727 0.0362,-0.155531 0.0153,-0.346594 -0.13601,-0.433172 -0.005,-0.0029 -0.0108,-0.0059 -0.0165,-0.0086 0.11219,-0.11325 0.16835,-0.264609 0.16835,-0.45389 0,-0.08431 -0.0113,-0.160969 -0.0335,-0.230157 0.0378,-0.0074 0.0809,-0.01132 0.12939,-0.01132 0.0593,0 0.11065,0.0055 0.15396,0.01652 0.003,7.73e-4 0.006,0.0011 0.009,0.0011 0.0209,0 0.0381,-0.0172 0.0381,-0.03809 0,0 0,-2.3e-5 0,-2.3e-5 z m -1.17757,0.400172 c 0.23468,0 0.3521,0.08048 0.3521,0.241336 0,0.160992 -0.11742,0.241359 -0.3521,0.241359 -0.23484,0 -0.35213,-0.08051 -0.35213,-0.241359 0,-0.160852 0.11729,-0.241336 0.35213,-0.241336 z m -3.46901,-0.0382 V 52.48065 c 0,-0.02107 -0.017,-0.03809 -0.0382,-0.03809 h -0.48989 v -0.516094 c 0,-0.02602 -0.0256,-0.0443 -0.0503,-0.03616 l -0.45183,0.150446 c -0.0155,0.0052 -0.0261,0.01978 -0.0261,0.03616 v 0.365765 h -0.25889 c -0.0211,0 -0.0382,0.01702 -0.0382,0.03809 v 0.340524 c 0,0.02107 0.0171,0.03809 0.0382,0.03809 h 0.25889 v 0.418054 c 0,0.182813 0.0609,0.313828 0.18263,0.392813 0.11587,0.07453 0.30448,0.111844 0.56566,0.111844 0.0982,0 0.19039,-0.0076 0.27685,-0.02273 0.018,-0.0033 0.0312,-0.01913 0.0312,-0.03743 V 53.36137 c 0,-0.02386 -0.0218,-0.04177 -0.0454,-0.03734 -0.0695,0.01296 -0.13511,0.01931 -0.19673,0.01931 -0.0983,0 -0.16875,-0.0089 -0.21127,-0.02642 -0.0499,-0.01891 -0.0748,-0.05409 -0.0748,-0.105234 V 52.85935 h 0.48989 c 0.0212,0 0.0382,-0.01701 0.0382,-0.03809 z m 0.62745,-0.515555 h -0.45183 c -0.0211,0 -0.0382,-0.01702 -0.0382,-0.03809 v -0.341391 c 0,-0.02109 0.0171,-0.03809 0.0382,-0.03809 h 0.45183 c 0.0211,0 0.0382,0.01702 0.0382,0.03809 v 0.341391 c 0,0.02095 -0.0172,0.03809 -0.0382,0.03809 z"
   style="fill:#ff9920;fill-rule:nonzero;stroke-width:0.0234375"
   id="path1" />
            </g>
        </g>
    </g>
</svg>
