<?xml version="1.0" encoding="UTF-8" standalone="no"?>
<svg
   width="23.999998"
   height="31.953075"
   viewBox="0 0 23.999998 31.953075"
   version="1.1"
   xml:space="preserve"
   style="clip-rule:evenodd;fill-rule:evenodd;stroke-linejoin:round;stroke-miterlimit:2"
   id="svg1"
   xmlns="http://www.w3.org/2000/svg"
   xmlns:svg="http://www.w3.org/2000/svg"><defs
   id="defs1" />
    <g
   transform="matrix(4.02784,0,0,4.02784,-372.18948,-499.54872)"
   id="g1">
        <path
   d="m 92.404236,125.8437 c 0,-0.28611 0.232479,-0.51843 0.518931,-0.51843 h 2.460349 l 1.273871,-1.21537 c 0.120066,-0.11457 0.311503,-0.11457 0.431568,0 l 1.273809,1.2154 v 4.78326 c 0,0.30198 -0.245348,0.54711 -0.547636,0.54711 h -2.431675 l -1.273809,1.21543 c -0.120065,0.11457 -0.311534,0.11457 -0.431599,0 l -1.273809,-1.21546 z m 3.828517,1.86592 c -0.05741,0.0573 -0.151832,0.0573 -0.209241,0 l -9.3e-5,-9e-5 -0.409642,-0.40914 c -0.127094,-0.12703 -0.333585,-0.12703 -0.460679,0 l -0.40961,0.40923 c -0.05747,0.0573 -0.1518,0.0573 -0.209272,0 l -9.4e-5,-9e-5 -0.409891,-0.40949 c -0.127187,-0.12706 -0.333586,-0.12706 -0.460773,0 l -0.460772,0.46031 c -0.127094,0.12703 -0.127094,0.33324 0,0.4603 l 0.460772,0.46021 c 0.127187,0.12706 0.333586,0.12706 0.460773,0 l 0.409985,-0.40958 c 0.05722,-0.0571 0.1513,-0.0571 0.20846,1e-4 h 1.87e-4 l 0.410235,0.40986 c 0.127094,0.12703 0.333585,0.12703 0.460679,0 l 0.410266,-0.40986 c 0.05732,-0.0572 0.151488,-0.0572 0.208803,0 l 0.409923,0.40948 c 0.127156,0.12706 0.333586,0.12706 0.460742,0 l 0.460772,-0.46021 c 0.127094,-0.12706 0.127094,-0.33327 0,-0.4603 l -0.460772,-0.46031 c -0.127156,-0.12706 -0.333586,-0.12706 -0.460742,0 z"
   style="fill:#f1a200;stroke-width:0.0312346"
   id="path1" />
    </g>
</svg>
