<?xml version="1.0" encoding="UTF-8" standalone="no"?>
<svg
   width="48"
   height="48.000004"
   viewBox="0 0 48 48.000004"
   version="1.1"
   xml:space="preserve"
   style="clip-rule:evenodd;fill-rule:evenodd;stroke-linejoin:round;stroke-miterlimit:2"
   id="svg2"
   xmlns="http://www.w3.org/2000/svg"
   xmlns:svg="http://www.w3.org/2000/svg"><defs
   id="defs2" />
    <g
   transform="matrix(4,0,0,4,-488,-488.00004)"
   id="g1">
        <path
   d="m 126.23427,122.26486 c 0.558,-0.17227 1.152,-0.26485 1.76573,-0.26485 v 6 h -6 c 0,-0.61542 0.0926,-1.20773 0.26484,-1.76658 0.582,-1.89342 2.076,-3.38742 3.96943,-3.96857 z"
   style="fill:#a2c4b8;fill-rule:nonzero;stroke-width:0.046875"
   id="path1" />
    </g>
    <g
   transform="matrix(4,0,0,4,-488,-488.00004)"
   id="g2">
        <path
   d="m 128,131.00001 c 0,0.82885 -0.336,1.57885 -0.87858,2.12058 -0.25631,0.25697 -0.5572,0.46519 -0.888,0.61458 -0.38765,0.17489 -0.80812,0.26522 -1.23342,0.26484 -0.82884,0 -1.57884,-0.336 -2.12142,-0.87942 C 122.336,132.57886 122,131.82886 122,131.00001 c 0,-0.43973 0.0952,-0.85715 0.26484,-1.23342 0.14907,-0.33075 0.35705,-0.63164 0.61374,-0.888 0.54342,-0.54342 1.29342,-0.87858 2.12142,-0.87858 0,0.82885 0.336,1.57885 0.87858,2.12058 0.54342,0.54342 1.29342,0.87942 2.12142,0.87942 z m 6,-3 h -6 v -6 c 0.61458,0 1.20684,0.0926 1.76484,0.26485 h 8.9e-4 c 1.89343,0.58115 3.38743,2.07515 3.96943,3.96857 0.17311,0.55885 0.26484,1.15205 0.26484,1.76658 z m 0,0 v 3 c 0,0.82885 -0.336,1.57885 -0.87858,2.12058 -0.54342,0.54342 -1.29342,0.87942 -2.12142,0.87942 -0.4253,3.8e-4 -0.84577,-0.09 -1.23342,-0.26484 -0.33052,-0.14981 -0.63136,-0.35799 -0.888,-0.61458 C 128.336,132.57886 128,131.82886 128,131.00001 v -3 z"
   style="fill:#099250;fill-rule:nonzero;stroke-width:0.046875"
   id="path2" />
    </g>
</svg>
