<?xml version="1.0" encoding="UTF-8" standalone="no"?>
<svg
   width="23.999983"
   height="36.930103"
   viewBox="0 0 23.999983 36.930103"
   version="1.1"
   xml:space="preserve"
   style="clip-rule:evenodd;fill-rule:evenodd;stroke-linejoin:round;stroke-miterlimit:2"
   id="svg1"
   xmlns="http://www.w3.org/2000/svg"
   xmlns:svg="http://www.w3.org/2000/svg"><defs
   id="defs1" />
    <g
   transform="matrix(4.36557,0,0,4.36557,-1404.992,-1884.3188)"
   id="g1">
        <path
   d="m 324.34005,439.23409 c -0.72353,-0.027 -1.29072,-0.19695 -1.70149,-0.5097 -0.41081,-0.31271 -0.67877,-0.78184 -0.80384,-1.40734 l 1.1563,-0.22314 c 0.071,0.38882 0.21469,0.67621 0.43108,0.86216 0.21638,0.18595 0.52239,0.29584 0.91795,0.32963 v -2.16048 c -0.15212,-0.0372 -0.31276,-0.0803 -0.48179,-0.12933 -0.16907,-0.049 -0.32967,-0.10141 -0.48179,-0.1572 -0.15215,-0.0558 -0.27726,-0.11241 -0.37532,-0.1699 -0.30089,-0.17243 -0.52658,-0.38546 -0.67704,-0.63903 -0.15046,-0.25357 -0.22569,-0.56801 -0.22569,-0.9433 0,-0.5511 0.19186,-0.97796 0.57563,-1.28058 0.38376,-0.30262 0.93908,-0.46913 1.666,-0.49953 v -0.67455 h 0.57818 v 0.67455 c 0.41925,0.0203 0.77593,0.0862 1.07007,0.19778 0.29418,0.11158 0.53675,0.28992 0.72779,0.53505 0.19103,0.24513 0.33897,0.57563 0.44377,0.99149 l -1.18674,0.18764 c -0.0575,-0.30092 -0.16907,-0.53419 -0.33475,-0.69987 -0.16565,-0.16568 -0.40573,-0.26709 -0.72014,-0.30431 v 1.94243 c 0.15212,0.0304 0.31611,0.0693 0.49192,0.11664 0.17582,0.0474 0.36855,0.10819 0.57815,0.18259 0.45983,0.16565 0.7988,0.39642 1.01688,0.69226 0.21808,0.29584 0.3271,0.6703 0.3271,1.12334 0,0.59506 -0.20538,1.0608 -0.61619,1.39725 -0.41078,0.33641 -1.0101,0.52152 -1.79786,0.55532 v 0.86724 h -0.57818 z m -1.06502,-5.16794 c 0,0.16907 0.0321,0.30771 0.0964,0.4159 0.071,0.12846 0.17834,0.22991 0.32206,0.30428 0.14368,0.0744 0.35923,0.15554 0.6466,0.24343 v -1.8359 c -0.71001,0.0473 -1.06502,0.33811 -1.06502,0.87229 z m 2.88573,3.22554 c 0,-0.18595 -0.0346,-0.3381 -0.10397,-0.45643 -0.0693,-0.11836 -0.1699,-0.21639 -0.30175,-0.29418 -0.13524,-0.0744 -0.4142,-0.17073 -0.83681,-0.28906 v 2.03368 c 0.40908,-0.0271 0.71844,-0.12424 0.92809,-0.29161 0.2096,-0.16734 0.31444,-0.40148 0.31444,-0.7024 z"
   style="fill:#003f20;fill-rule:nonzero;stroke-width:0.0360645"
   id="path1" />
    </g>
</svg>
