<?xml version="1.0" encoding="UTF-8" standalone="no"?>
<svg
   width="24.0002"
   height="31.766668"
   viewBox="0 0 24.0002 31.766668"
   version="1.1"
   xml:space="preserve"
   style="clip-rule:evenodd;fill-rule:evenodd;stroke-linejoin:round;stroke-miterlimit:2"
   id="svg1"
   xmlns="http://www.w3.org/2000/svg"
   xmlns:svg="http://www.w3.org/2000/svg"><defs
   id="defs1" />
    <g
   transform="matrix(4.06892,0,0,4.06892,-492.1412,-496.11788)"
   id="g1">
        <path
   d="m 126.83431,125.0671 c 0.12275,-0.8203 -0.50188,-1.26129 -1.356,-1.55546 l 0.27705,-1.11121 -0.67646,-0.16856 -0.26973,1.08193 c -0.17784,-0.0443 -0.36048,-0.0861 -0.54198,-0.12753 l 0.27167,-1.08906 -0.67609,-0.16857 -0.27723,1.11084 c -0.14722,-0.0336 -0.29171,-0.0667 -0.43199,-0.10156 l 7.8e-4,-0.003 -0.93291,-0.23293 -0.17992,0.72243 c 0,0 0.50191,0.11502 0.49127,0.12213 0.27401,0.0684 0.32352,0.24968 0.31523,0.3934 l -0.3156,1.26591 c 0.0189,0.005 0.0434,0.0117 0.0703,0.0225 -0.0226,-0.006 -0.0466,-0.0118 -0.0715,-0.0177 l -0.44235,1.77334 c -0.0336,0.0832 -0.11849,0.20805 -0.31001,0.16065 0.007,0.01 -0.49168,-0.12271 -0.49168,-0.12271 l -0.33585,0.77427 0.88029,0.2194 c 0.16379,0.041 0.32429,0.084 0.48228,0.12446 l -0.27996,1.1239 0.67568,0.16859 0.27726,-1.11199 c 0.17918,0.0486 0.35888,0.0952 0.53907,0.13988 l -0.27626,1.10677 0.67646,0.16857 0.27993,-1.12179 c 1.15352,0.21826 2.02091,0.13022 2.38602,-0.91296 0.2942,-0.83997 -0.0146,-1.32448 -0.62155,-1.64042 0.44197,-0.10191 0.77492,-0.39263 0.86373,-0.99309 z m -1.54559,2.16708 c -0.20905,0.83997 -1.62342,0.3859 -2.08197,0.27202 l 0.37147,-1.48898 c 0.45855,0.11444 1.92901,0.34101 1.7105,1.21696 z m 0.20923,-2.17924 c -0.19074,0.76406 -1.36794,0.37587 -1.7498,0.2807 l 0.33679,-1.35047 c 0.38186,0.0952 1.61166,0.27279 1.41301,1.06977 z"
   style="fill-rule:nonzero;stroke-width:0.0310204"
   id="path1" />
    </g>
</svg>
