<?xml version="1.0" encoding="UTF-8" standalone="no"?>
<svg
   width="23.998678"
   height="23.99964"
   viewBox="0 0 23.998678 23.99964"
   version="1.1"
   xml:space="preserve"
   style="clip-rule:evenodd;fill-rule:evenodd;stroke-linejoin:round;stroke-miterlimit:2"
   id="svg5"
   xmlns="http://www.w3.org/2000/svg"
   xmlns:svg="http://www.w3.org/2000/svg"><defs
   id="defs5" />
    <g
   transform="matrix(4,0,0,4,12.003439,12.00204)"
   id="g5">
        <g
   transform="translate(-128,-128)"
   id="g4">
            <g
   id="g3">
                <clipPath
   id="_clip1">
                    <rect
   x="0"
   y="0"
   width="256"
   height="256"
   id="rect1" />
                </clipPath>
                <g
   clip-path="url(#_clip1)"
   id="g2">
                    <g
   id="g1">
                        <path
   d="m 130.95899,127.68499 c -0.008,-0.12373 -0.0655,-0.23918 -0.15876,-0.32095 -0.0931,-0.0817 -0.21497,-0.1231 -0.33858,-0.11506 h -0.0182 c -0.11728,0.0134 -0.22485,0.0719 -0.29983,0.16308 -0.0751,0.0913 -0.11182,0.20824 -0.10251,0.32606 v 0.0183 c 0.022,0.1623 0.022,0.32681 0,0.48911 v 0.0183 c -0.0275,0.18305 -0.0772,0.36206 -0.14806,0.53306 -0.14072,0.33361 -0.3663,0.62463 -0.6543,0.84407 -0.28778,0.21926 -0.62807,0.35932 -0.98682,0.40612 -0.35864,0.0467 -0.72335,-0.001 -1.05756,-0.13964 -0.33448,-0.1383 -0.62697,-0.36185 -0.84824,-0.64827 -0.22142,-0.28664 -0.3641,-0.62627 -0.41379,-0.98505 -0.0497,-0.35885 -0.005,-0.72451 0.13038,-1.06065 0.13495,-0.33597 0.3555,-0.63084 0.63965,-0.8552 0.28397,-0.2242 0.62179,-0.37008 0.9797,-0.42305 0.24324,-0.0331 0.49019,-0.0269 0.73146,0.0184 0.14371,0.0209 0.27342,0.0981 0.36037,0.21442 0.087,0.11642 0.1245,0.26271 0.10411,0.40664 -0.03,0.12614 -0.10786,0.23587 -0.21696,0.30595 -0.10901,0.07 -0.24103,0.095 -0.36806,0.0696 h -0.0184 c -0.0401,-0.01 -0.0812,-0.0155 -0.12251,-0.0165 h -0.0164 c -0.0668,-0.007 -0.13404,-0.0104 -0.20126,-0.009 -0.20086,0.0116 -0.39454,0.0791 -0.55896,0.19512 -0.1646,0.11603 -0.29352,0.27581 -0.37216,0.46122 -0.0787,0.18555 -0.10406,0.38943 -0.0732,0.5886 0.0308,0.1991 0.11671,0.38566 0.24787,0.53859 0.13106,0.15284 0.30232,0.26599 0.49431,0.3266 0.19188,0.0605 0.39694,0.0661 0.59182,0.016 0.19495,-0.0501 0.37202,-0.15375 0.51109,-0.29923 0.13925,-0.14559 0.23506,-0.32723 0.27661,-0.52436 l 0.0256,-0.15752 c 0.008,-0.0871 0.0108,-0.17459 0.009,-0.26201 -2.6e-4,-0.33817 0.12162,-0.66533 0.34305,-0.92092 0.22118,-0.25535 0.5275,-0.42222 0.862,-0.46956 h 0.0273 c 0.0576,-0.008 0.11568,-0.0107 0.17376,-0.009 h 0.0439 c -0.27044,-0.43043 -0.64546,-0.78548 -1.09004,-1.03195 -0.4443,-0.24625 -0.94387,-0.37591 -1.45185,-0.37682 -0.80111,0.0131 -1.56544,0.3423 -2.12545,0.91529 -0.56074,0.57363 -0.87344,1.34573 -0.8699,2.14787 0.0169,0.68024 0.26358,1.33515 0.69967,1.85749 0.43556,0.52186 1.03556,0.8808 1.70134,1.01779 0.66557,0.13683 1.35826,0.0437 1.96402,-0.26414 0.60623,-0.30815 1.09046,-0.8129 1.37326,-1.43136 l 0.009,-0.0164 c 0.13997,-0.32515 0.22523,-0.67122 0.25235,-1.02416 -0.005,-0.19235 -0.0239,-0.34987 -0.0404,-0.51658 z"
   style="fill:#ef4800;fill-rule:nonzero;stroke-width:0.0234373"
   id="path1" />
                    </g>
                </g>
            </g>
        </g>
    </g>
</svg>
