<?xml version="1.0" encoding="UTF-8" standalone="no"?>
<svg
   width="23.998819"
   height="23.999819"
   viewBox="0 0 23.998819 23.999819"
   version="1.1"
   xml:space="preserve"
   style="clip-rule:evenodd;fill-rule:evenodd;stroke-linejoin:round;stroke-miterlimit:2"
   id="svg1"
   xmlns="http://www.w3.org/2000/svg"
   xmlns:svg="http://www.w3.org/2000/svg"><defs
   id="defs1" />
    <g
   transform="matrix(3.99999,0,0,3.99999,-499.99487,-499.99695)"
   id="g1">
        <path
   d="m 130.95902,127.68498 c -0.008,-0.12372 -0.0655,-0.23918 -0.15876,-0.32095 -0.0931,-0.0817 -0.21497,-0.12309 -0.33858,-0.11505 h -0.0182 c -0.11728,0.0134 -0.22486,0.0719 -0.29984,0.16307 -0.0751,0.0913 -0.11182,0.20825 -0.10251,0.32607 v 0.0183 c 0.022,0.1623 0.022,0.32681 0,0.48911 v 0.0184 c -0.0275,0.18304 -0.0772,0.36206 -0.14806,0.53306 -0.14072,0.33361 -0.3663,0.62463 -0.6543,0.84408 -0.28779,0.21925 -0.62808,0.35932 -0.98684,0.40612 -0.35864,0.0467 -0.72335,-0.001 -1.05757,-0.13964 -0.33448,-0.1383 -0.62698,-0.36185 -0.84825,-0.64828 -0.22141,-0.28664 -0.3641,-0.62627 -0.41379,-0.98505 -0.0497,-0.35886 -0.005,-0.72453 0.13038,-1.06067 0.13496,-0.33598 0.3555,-0.63084 0.63966,-0.85521 0.28397,-0.2242 0.6218,-0.37008 0.97971,-0.42305 0.24323,-0.0331 0.4902,-0.0269 0.73146,0.0184 0.14372,0.0209 0.27342,0.0981 0.36038,0.21442 0.087,0.11642 0.1245,0.26272 0.10411,0.40665 -0.03,0.12614 -0.10786,0.23587 -0.21697,0.30595 -0.109,0.07 -0.24103,0.095 -0.36806,0.0696 h -0.0184 c -0.0401,-0.01 -0.0812,-0.0155 -0.1225,-0.0165 h -0.0164 c -0.0668,-0.007 -0.13404,-0.0104 -0.20126,-0.009 -0.20086,0.0116 -0.39455,0.0791 -0.55896,0.19512 -0.1646,0.11604 -0.29353,0.27581 -0.37217,0.46122 -0.0787,0.18556 -0.10406,0.38944 -0.0732,0.58861 0.0309,0.19911 0.11672,0.38567 0.24788,0.5386 0.13106,0.15283 0.30232,0.26599 0.49432,0.3266 0.19188,0.0605 0.39694,0.0661 0.59182,0.016 0.19495,-0.0501 0.37202,-0.15375 0.5111,-0.29923 0.13924,-0.14559 0.23506,-0.32723 0.27661,-0.52437 l 0.0255,-0.15752 c 0.008,-0.0871 0.0108,-0.17459 0.009,-0.26201 -2.6e-4,-0.33818 0.12162,-0.66534 0.34305,-0.92093 0.22118,-0.25535 0.52751,-0.42222 0.86201,-0.46957 h 0.0273 c 0.0576,-0.008 0.11569,-0.0107 0.17377,-0.009 h 0.0439 c -0.27045,-0.43043 -0.64547,-0.78548 -1.09006,-1.03195 -0.4443,-0.24626 -0.94387,-0.37592 -1.45186,-0.37683 -0.80111,0.0131 -1.56546,0.3423 -2.12547,0.9153 -0.56075,0.57364 -0.87345,1.34574 -0.86991,2.14789 0.0169,0.68025 0.26358,1.33516 0.69968,1.85751 0.43556,0.52186 1.03556,0.88081 1.70135,1.0178 0.66558,0.13683 1.35828,0.0437 1.96404,-0.26414 0.60624,-0.30816 1.09048,-0.81291 1.37327,-1.43138 l 0.009,-0.0164 c 0.13997,-0.32515 0.22523,-0.67123 0.25235,-1.02417 -0.005,-0.19235 -0.0239,-0.34988 -0.0404,-0.51659 z"
   style="fill:#46b549;fill-rule:nonzero;stroke-width:0.0234375"
   id="path1" />
    </g>
</svg>
