<?xml version="1.0" encoding="UTF-8" standalone="no"?>
<svg
   width="63.999882"
   height="60.749836"
   viewBox="0 0 63.999882 60.749836"
   version="1.1"
   xml:space="preserve"
   style="clip-rule:evenodd;fill-rule:evenodd;stroke-linejoin:round;stroke-miterlimit:2"
   id="svg1"
   xmlns="http://www.w3.org/2000/svg"
   xmlns:svg="http://www.w3.org/2000/svg"><defs
   id="defs1" />
    <g
   transform="matrix(3.99998,0,0,3.99998,-479.99952,-479.62247)"
   id="g1">
        <path
   d="m 134.55403,127.07313 c 0.0252,-0.0376 0.0492,-0.0758 0.0732,-0.11469 0.44556,-0.72081 0.66456,-1.55762 0.66456,-2.40312 v -0.0446 c 0,-0.91012 -0.255,-1.80706 -0.76487,-2.563 -0.75607,-1.12137 -1.9905,-1.89731 -3.41357,-2.0415 h -4.51293 c -0.17163,-4.3e-4 -0.33657,0.0675 -0.45813,0.18869 -0.12162,0.12006 -0.19012,0.28406 -0.19,0.455 v 2.04906 c 0,0.178 0.0726,0.33913 0.19,0.45507 0.12156,0.12118 0.2865,0.18912 0.45813,0.18868 h 4.06675 c 0.69793,0 1.26343,0.56288 1.26343,1.25488 v 0.0664 c 0,0.69325 -0.5655,1.25487 -1.26343,1.25487 h -6.65863 c -0.17162,3.1e-4 -0.33656,-0.0676 -0.45819,-0.18875 -0.1215,-0.12012 -0.19,-0.28412 -0.19,-0.455 V 120.55 c 0,-0.17806 -0.0725,-0.33912 -0.18993,-0.45506 -0.12157,-0.12106 -0.28644,-0.189 -0.45807,-0.18869 h -2.06375 c -0.35781,0 -0.64812,0.28832 -0.64812,0.64375 v 13.9 c 0,0.17675 0.0726,0.3385 0.19,0.45507 0.1215,0.12118 0.2865,0.18912 0.45812,0.18868 h 2.06313 c 0.17919,0 0.34075,-0.0721 0.45812,-0.18868 0.12157,-0.12013 0.19,-0.28413 0.19,-0.45507 v -4.62518 c 0,-0.35538 0.29025,-0.64375 0.64813,-0.64375 h 6.62644 c 0.10981,0 0.21706,-0.005 0.32437,-0.0119 h 0.419 c 0.69675,0 1.26344,0.56163 1.26344,1.25488 v 0.0652 c 0,0.69325 -0.56669,1.25488 -1.26344,1.25488 h -4.75525 c -0.007,-0.001 -0.0151,-0.001 -0.0221,-0.001 -0.007,0 -0.0151,0 -0.0221,0.001 -0.164,0.004 -0.32018,0.0718 -0.43606,0.188 -0.12169,0.12031 -0.19012,0.28456 -0.19,0.45569 V 134.45 c 0,0.17675 0.0726,0.3385 0.19,0.45507 0.12156,0.12125 0.2865,0.18918 0.45819,0.18868 h 5.07394 c 1.32531,-0.0915 2.49912,-0.7315 3.29175,-1.693 0.68162,-0.82612 1.03437,-1.87225 1.03437,-2.94037 v -0.009 c 0,-1.04113 -0.3345,-2.06156 -0.98512,-2.87769 -0.14188,-0.17787 -0.2965,-0.34525 -0.46257,-0.50081 h 0.001 z"
   style="fill:#000030;fill-rule:nonzero;stroke-width:0.0625"
   id="path1" />
    </g>
</svg>
