<svg xmlns="http://www.w3.org/2000/svg" xml:space="preserve" style="fill-rule:evenodd;clip-rule:evenodd;stroke-linejoin:round;stroke-miterlimit:2" viewBox="0 0 64 64"><path d="M1573.98 1672.98a102.638 102.638 0 0 1 29.71 81.28 102.648 102.648 0 0 1-43.02 75.1C1400.18 1936.71 1207.42 2000 1000 2000c-206.805 0-399.032-62.91-558.567-170.62a102.78 102.78 0 0 1-43.2-75.2 102.793 102.793 0 0 1 29.72-81.48c-.815-.84-.798-.86-.782-.88 45.209-45.19 115.834-52.68 169.515-17.97C713.282 1728.03 851.778 1770 1000 1770c147.71 0 285.76-41.68 403.04-113.93 53.77-34.62 124.4-27.05 169.61 18.17 1.31-1.29 1.32-1.28 1.33-1.26Zm99-1246.96a102.608 102.608 0 0 1 81.28-29.707 102.632 102.632 0 0 1 75.1 43.017C1936.71 599.818 2000 792.576 2000 1000c0 206.81-62.91 399.03-170.62 558.57a102.78 102.78 0 0 1-75.2 43.2c-30.21 2.6-60.03-8.28-81.48-29.72-.84.81-.86.8-.88.78-45.19-45.21-52.68-115.83-17.97-169.52C1728.03 1286.72 1770 1148.22 1770 1000c0-147.708-41.68-285.758-113.93-403.04-34.62-53.768-27.05-124.397 18.17-169.615-1.29-1.303-1.28-1.314-1.26-1.325ZM170.624 441.433a102.763 102.763 0 0 1 156.671-13.48c.848-.815.865-.798.881-.782 45.191 45.209 52.68 115.834 17.976 169.515C271.971 713.282 230 851.778 230 1000c0 147.71 41.681 285.76 113.929 403.04 34.618 53.77 27.054 124.4-18.164 169.61 1.282 1.31 1.271 1.32 1.26 1.33a102.655 102.655 0 0 1-81.288 29.71 102.639 102.639 0 0 1-75.098-43.02C63.29 1400.18 0 1207.42 0 1000c0-206.805 62.913-399.032 170.624-558.567ZM1000 370c347.71 0 630 282.294 630 630 0 347.71-282.29 630-630 630-347.706 0-630-282.29-630-630 0-347.706 282.294-630 630-630Zm-573.98-42.975a102.625 102.625 0 0 1 13.31-156.386C599.818 63.29 792.576 0 1000 0c206.81 0 399.03 62.913 558.57 170.624a102.765 102.765 0 0 1 43.2 75.199c2.6 30.212-8.28 60.03-29.72 81.472.81.848.8.865.78.881-45.21 45.191-115.83 52.68-169.52 17.976C1286.72 271.971 1148.22 230 1000 230c-147.708 0-285.758 41.681-403.04 113.929-53.768 34.618-124.397 27.054-169.615-18.164-1.303 1.282-1.314 1.271-1.325 1.26Z" style="fill:#208e7a" transform="scale(.032)"/><path d="M95.614 150.485a3.254 3.254 0 0 0-3.254 3.255v8.656a3.254 3.254 0 0 0 3.254 3.254h23.758v21.967a3.255 3.255 0 0 0 3.255 3.255h10.447a3.255 3.255 0 0 0 3.255-3.255V165.65h24.057a3.254 3.254 0 0 0 3.254-3.254v-8.656a3.254 3.254 0 0 0-3.254-3.255H95.614Zm64.846-10.763a3.255 3.255 0 0 0 3.255-3.255v-8.507a3.254 3.254 0 0 0-3.255-3.254h-20.388l27.549-48.721a3.257 3.257 0 0 0-.021-3.243 3.257 3.257 0 0 0-2.812-1.614H152.7a3.257 3.257 0 0 0-2.835 1.654l-21.922 38.827-21.651-38.812a3.253 3.253 0 0 0-2.842-1.669H91.212a3.253 3.253 0 0 0-2.837 4.851l27.418 48.727H95.689a3.255 3.255 0 0 0-3.255 3.254v8.507a3.255 3.255 0 0 0 3.255 3.255h64.771Z" style="fill:#fff;fill-rule:nonzero" transform="scale(.25)"/></svg>