<svg width="64" height="52" fill="none" xmlns="http://www.w3.org/2000/svg"><path d="M36.61 13.494 31.295 26H18.821a6.231 6.231 0 0 0-6.253 6.252 6.231 6.231 0 0 0 6.253 6.253h7.16l-5.284 12.412c-.626.063-1.25.094-1.876.094C8.472 51.01.062 42.6.062 32.252s8.41-18.758 18.759-18.758h17.82-.031Z" fill="#3551F2"/><path d="M64.001 19.747c0 10.348-8.41 18.758-18.758 18.758H25.984L31.3 25.999h13.944c3.439 0 6.253-2.813 6.253-6.252 0-3.44-2.814-6.253-6.253-6.253h-8.629L41.804 1.3a17.816 17.816 0 0 1 3.439-.313C55.59.988 64 9.398 64 19.747Z" fill="#3551F2"/></svg>