<?xml version="1.0" encoding="UTF-8" standalone="no"?>
<svg
   width="64"
   height="77.282928"
   viewBox="0 0 64 77.282928"
   version="1.1"
   xml:space="preserve"
   style="clip-rule:evenodd;fill-rule:evenodd;stroke-linejoin:round;stroke-miterlimit:2"
   id="svg1"
   xmlns="http://www.w3.org/2000/svg"
   xmlns:svg="http://www.w3.org/2000/svg"><defs
   id="defs1" />
    <g
   transform="matrix(4,0,0,4,-392,-473.35792)"
   id="g1">
        <path
   d="m 114,122.20356 v -3.86408 h -8 v 3.86408 h 4 c -0.0163,1.04038 -0.44694,2.03238 -1.19577,2.75472 -0.75004,0.72445 -1.75865,1.12332 -2.80423,1.1092 v -3.86392 c -2.09072,-0.0266 -4.10672,0.77177 -5.60626,2.22038 -1.499627,1.4486 -2.360382,3.42913 -2.39374,5.50762 0.03336,2.07841 0.894189,4.05894 2.39374,5.50755 1.49954,1.4486 3.51554,2.24694 5.60626,2.22037 2.09125,0.0284 4.1083,-0.76943 5.60823,-2.21841 1.49992,-1.44898 2.36015,-3.43057 2.39177,-5.50951 h -4 c -0.007,0.51517 -0.116,1.02385 -0.32083,1.4966 -0.20521,0.47344 -0.50196,0.90174 -0.87321,1.26015 -0.37192,0.35917 -0.81094,0.64174 -1.292,0.8314 -0.48173,0.19004 -0.99615,0.28385 -1.51396,0.27592 -1.04558,0.0141 -2.05404,-0.3849 -2.804,-1.10943 -0.75004,-0.72445 -1.18023,-1.71517 -1.196,-2.75464 0.0159,-1.03955 0.44604,-2.03027 1.196,-2.75472 0.74996,-0.72445 1.75834,-1.12355 2.804,-1.10936 v 3.86408 c 2.09072,0.0266 4.10672,-0.772 5.60626,-2.22061 1.49955,-1.44852 2.36038,-3.42898 2.39374,-5.50739 z"
   style="fill:#ef6100;fill-rule:nonzero;stroke-width:0.0754717"
   id="path1" />
    </g>
</svg>
