<?xml version="1.0" encoding="UTF-8" standalone="no"?>
<svg
   width="64.003685"
   height="76.566284"
   viewBox="0 0 64.003685 76.566284"
   version="1.1"
   xml:space="preserve"
   style="clip-rule:evenodd;fill-rule:evenodd;stroke-linejoin:round;stroke-miterlimit:2"
   id="svg4"
   xmlns="http://www.w3.org/2000/svg"
   xmlns:svg="http://www.w3.org/2000/svg"><defs
   id="defs4" />
    <g
   transform="matrix(0.999959,0,0,0.999959,-408.87867,-473.66411)"
   id="g4">
        <g
   transform="matrix(3.9987,0,0,3.9987,-38.875,0.251891)"
   id="g1">
            <path
   d="m 127.805,134.23072 c -0.0638,-0.076 -0.14216,-0.1385 -0.2304,-0.18389 -0.0882,-0.0455 -0.18441,-0.0736 -0.28327,-0.0825 -0.19952,-0.0174 -0.39799,0.0455 -0.55099,0.17476 -0.0197,0.0162 -0.0395,0.0325 -0.0585,0.0486 -0.0141,0.012 -0.0282,0.0232 -0.0423,0.0345 -0.21911,0.17842 -0.44749,0.34519 -0.68417,0.49961 l -0.031,0.0204 c -0.0522,0.0338 -0.10432,0.0669 -0.15719,0.0986 -0.0126,0.008 -0.0239,0.0148 -0.0359,0.0218 -0.012,0.007 -0.0232,0.0141 -0.0345,0.0212 l -0.0204,0.0126 -0.0366,0.0219 c -0.012,0.007 -0.0233,0.0141 -0.0352,0.0204 -0.13976,0.0813 -0.28192,0.15838 -0.42633,0.23107 l -0.0359,0.0183 -0.05,0.0254 -0.0656,0.0317 -0.005,0.003 c -0.0218,0.0106 -0.0437,0.0205 -0.0655,0.031 l -0.05,0.0232 -0.0324,0.0148 c -0.0169,0.008 -0.0345,0.0155 -0.0515,0.0233 -0.0226,0.01 -0.0458,0.0204 -0.0691,0.0303 -0.0464,0.0204 -0.0937,0.0402 -0.14089,0.0592 -0.0239,0.01 -0.0479,0.0197 -0.0719,0.0289 -0.0458,0.0183 -0.0923,0.0366 -0.13879,0.0542 h -10e-4 c -0.0458,0.0177 -0.0924,0.0345 -0.1388,0.0508 l -0.009,0.004 c -0.0218,0.008 -0.0437,0.0155 -0.0663,0.0233 -0.0233,0.008 -0.0465,0.0155 -0.069,0.0239 l -0.0698,0.0225 c -0.007,0.002 -0.0131,0.004 -0.0198,0.006 l -0.0451,0.0141 -0.0373,0.012 c -0.0381,0.012 -0.0754,0.0233 -0.11344,0.0345 l -0.0253,0.008 c -0.0156,0.004 -0.031,0.009 -0.0465,0.0134 l -0.0536,0.0148 -0.043,0.012 -0.0282,0.008 -0.036,0.009 c -0.0402,0.0105 -0.081,0.0211 -0.12189,0.031 -0.01,0.003 -0.0204,0.005 -0.0303,0.008 -0.0141,0.004 -0.0289,0.007 -0.0437,0.0105 l -0.036,0.008 c -0.003,7.5e-4 -0.006,10e-4 -0.009,0.002 -0.0183,0.004 -0.0374,0.008 -0.0556,0.0127 -0.0339,0.008 -0.0677,0.0148 -0.10223,0.0218 -0.0324,0.007 -0.0648,0.0134 -0.0965,0.0198 l -0.0789,0.0148 -0.0486,0.008 c -0.0162,0.003 -0.0289,0.006 -0.0437,0.008 l -0.0627,0.0105 -0.0613,0.01 -0.008,0.001 c -0.0254,0.004 -0.05,0.008 -0.0747,0.0112 -0.0247,0.004 -0.0486,0.007 -0.0719,0.01 l -0.0155,0.002 -0.0592,0.008 h -0.004 c -0.0169,0.002 -0.033,0.004 -0.0493,0.006 l -0.0437,0.005 c -0.043,0.005 -0.0867,0.01 -0.13035,0.0141 h -0.0106 c -0.0141,0.003 -0.0289,0.004 -0.043,0.006 l -0.0373,0.004 c -0.0148,0.001 -0.0296,0.003 -0.0444,0.004 l -0.0443,0.004 c -0.0585,0.004 -0.1177,0.008 -0.17618,0.012 l -0.0782,0.004 -0.0443,0.001 c -0.0113,8e-5 -0.0226,6e-4 -0.0339,0.001 l -0.0429,0.001 h -0.0438 c -0.0147,7.5e-4 -0.0295,0.002 -0.0443,0.002 h -0.0155 c -0.0247,0 -0.0494,6.7e-4 -0.0733,6.7e-4 h -0.15996 c -0.83373,-0.01 -1.66089,-0.14866 -2.45215,-0.41152 -0.0282,-0.01 -0.0571,-0.019 -0.0853,-0.0289 -0.0141,-0.005 -0.0282,-0.01 -0.0416,-0.0148 -0.0134,-0.005 -0.0282,-0.01 -0.0416,-0.0148 -0.0227,-0.008 -0.0452,-0.0161 -0.0676,-0.0247 l -0.0282,-0.0105 c -0.0254,-0.009 -0.0508,-0.019 -0.0754,-0.0282 l -0.0127,-0.005 c -0.01,-0.004 -0.0197,-0.008 -0.0289,-0.0112 l -0.01,-0.004 -0.008,-0.003 -0.0169,-0.006 -0.0155,-0.006 h -0.004 l -0.007,-0.004 -0.0317,-0.0127 -0.0408,-0.0169 c -0.0226,-0.009 -0.0451,-0.0183 -0.0677,-0.0282 h -0.004 l -0.0451,-0.0197 -0.0528,-0.0233 c -1.41419,-0.62263 -2.62138,-1.63659 -3.47883,-2.92208 -0.007,-0.009 -0.0126,-0.0186 -0.0182,-0.0282 -0.86575,-1.3172 -1.32894,-2.85867 -1.33246,-4.43491 v -0.1198 c 0,-0.0303 0.001,-0.0606 0.002,-0.0909 v -0.007 c 0.0245,-0.89999 0.19952,-1.78959 0.51787,-2.63178 0.0113,-0.0295 0.0226,-0.0585 0.0339,-0.0881 0.01,-0.026 0.0204,-0.0521 0.031,-0.0782 l 0.0218,-0.0529 c 0.012,-0.0289 0.0239,-0.0578 0.0366,-0.0867 0.0135,-0.0316 0.0275,-0.0633 0.0416,-0.0951 7.5e-4,-0.002 0.002,-0.004 0.003,-0.006 9.7e-4,-0.003 0.002,-0.006 0.004,-0.008 l 0.0296,-0.0655 c 0,0 0,-10e-4 7.5e-4,-0.002 0.009,-0.0205 0.0182,-0.0402 0.0274,-0.0599 0.003,-0.006 0.005,-0.012 0.008,-0.0177 l 0.004,-0.01 c 0.004,-0.01 0.009,-0.0197 0.014,-0.0289 0.003,-0.006 0.006,-0.0127 0.009,-0.0183 l 0.008,-0.0183 0.002,-0.004 0.006,-0.0112 c 0.0106,-0.0226 0.0218,-0.0451 0.0331,-0.0677 0.002,-0.004 0.004,-0.008 0.006,-0.0112 0.0148,-0.0297 0.0296,-0.0592 0.0444,-0.0882 0.0105,-0.0204 0.0212,-0.0416 0.0317,-0.062 l 0.007,-0.0127 c 0,0 0,-0.001 7.4e-4,-0.002 0,0 0,-0.001 7.5e-4,-0.001 0.006,-0.0127 0.0126,-0.0239 0.019,-0.0359 0.002,-0.004 0.005,-0.008 0.007,-0.0127 l 0.014,-0.026 c 0.004,-0.008 0.009,-0.017 0.0135,-0.0254 l 0.003,-0.005 0.006,-0.01 c 0.008,-0.0156 0.0162,-0.0304 0.0239,-0.0451 0.25142,-0.4549 0.54665,-0.88422 0.88152,-1.28176 0.006,-0.007 0.012,-0.0141 0.0169,-0.0212 0.1213,-0.15592 0.17671,-0.35334 0.15435,-0.54964 -0.0467,-0.40614 -0.41466,-0.70467 -0.82169,-0.66653 -0.19683,0.0186 -0.3787,0.11352 -0.50657,0.26428 -0.28185,0.33442 -0.5403,0.68776 -0.77369,1.05763 l -0.006,0.008 c -0.0204,0.0324 -0.0401,0.0648 -0.0606,0.0965 -0.0106,0.017 -0.0204,0.0339 -0.031,0.0515 -0.30945,0.51181 -0.57014,1.05158 -0.77863,1.61214 -0.10417,0.27991 -0.19495,0.56467 -0.27198,0.85326 -0.001,0.005 -0.003,0.01 -0.004,0.0156 -0.007,0.0254 -0.0135,0.0515 -0.0204,0.0776 -0.002,0.007 -0.004,0.0141 -0.006,0.0218 -0.004,0.0134 -0.007,0.0275 -0.0105,0.0416 l -0.0106,0.0416 c -0.007,0.0275 -0.0133,0.055 -0.0197,0.0831 0,0.002 -10e-4,0.005 -10e-4,0.007 -6.7e-4,0.004 -0.002,0.008 -0.003,0.012 v 0.003 c -0.004,0.0176 -0.008,0.0352 -0.0127,0.0521 -10e-4,0.005 -0.002,0.01 -0.004,0.0141 -0.27281,1.2042 -0.3099,2.44998 -0.10918,3.66832 0.001,0.009 0.003,0.019 0.005,0.0289 0.20692,1.23987 0.65688,2.42673 1.32401,3.49214 0.0112,0.0177 0.0225,0.036 0.0338,0.0535 l 0.0317,0.0494 c 0.0105,0.0169 0.0212,0.0331 0.0317,0.0493 0.0155,0.024 0.031,0.0473 0.0465,0.0712 0.009,0.0141 0.0183,0.0274 0.0274,0.0408 0.004,0.006 0.008,0.0113 0.0113,0.017 0.0155,0.0232 0.0317,0.0465 0.0479,0.0697 0.004,0.005 0.007,0.01 0.01,0.0148 0.001,0.003 0.004,0.005 0.005,0.008 l 0.006,0.008 c 0.0353,0.0514 0.0713,0.10238 0.10784,0.15286 0.0197,0.0275 0.0401,0.0557 0.0606,0.0832 0.0169,0.0233 0.0338,0.0459 0.0501,0.0683 0.008,0.0106 0.0154,0.0212 0.0239,0.0317 l 0.0402,0.0529 c 0.008,0.0105 0.0162,0.0218 0.0254,0.0324 0.0127,0.0169 0.026,0.0331 0.0387,0.05 0.007,0.009 0.0141,0.0183 0.0212,0.0268 0.0141,0.0183 0.0289,0.036 0.043,0.0543 0.009,0.0113 0.0176,0.0225 0.0268,0.0331 0.0127,0.0155 0.0254,0.0317 0.0387,0.0472 0.009,0.0113 0.0183,0.0218 0.0274,0.0324 0.0127,0.0162 0.0268,0.0317 0.0402,0.0479 0.009,0.0113 0.0191,0.0226 0.0289,0.0338 0.0127,0.0155 0.026,0.031 0.0394,0.0465 0.0212,0.0254 0.043,0.05 0.0648,0.074 0.0218,0.0247 0.0458,0.0514 0.0691,0.0775 0.0232,0.0254 0.0479,0.0535 0.0725,0.0796 0.0247,0.0268 0.0486,0.0529 0.0733,0.0789 0.0247,0.0261 0.0494,0.0522 0.0747,0.0782 0.51988,0.54082 1.1022,1.01793 1.73477,1.42123 l 0.0148,0.009 0.0507,0.0317 c 0.95085,0.59915 1.99996,1.02593 3.09902,1.26059 l 0.0507,0.0105 0.0465,0.009 c 0.0331,0.006 0.0655,0.0134 0.0986,0.0197 0.0162,0.004 0.0331,0.006 0.0494,0.009 l 0.0253,0.004 0.0254,0.004 0.0521,0.009 0.0127,0.002 0.0183,0.004 c 0.019,0.004 0.0381,0.006 0.0577,0.01 l 0.0698,0.0112 0.0705,0.0106 0.0704,0.0105 c 0.0233,0.004 0.0472,0.006 0.0704,0.01 l 0.0705,0.009 0.0444,0.006 0.0458,0.006 c 0.0134,10e-4 0.0275,0.004 0.0409,0.005 0.0289,0.004 0.0571,0.006 0.0859,0.009 l 0.0621,0.006 0.0373,0.004 0.0521,0.005 c 0.12496,0.0114 0.25022,0.0201 0.37555,0.026 0.0587,0.003 0.11741,0.005 0.17619,0.007 h 0.0233 l 0.10708,0.002 h 0.27482 c 0.0366,0 0.0726,-0.001 0.10926,-0.002 h 0.008 c 0.0374,-7.5e-4 0.074,-0.002 0.11135,-0.004 l 0.0571,-0.002 0.0571,-0.003 c 0.0346,-0.001 0.0698,-0.004 0.10432,-0.006 0.0515,-0.003 0.10215,-0.006 0.1536,-0.01 0.11359,-0.009 0.22703,-0.0195 0.34033,-0.0317 0.0204,-0.002 0.0409,-0.005 0.062,-0.007 0.0212,-0.002 0.0416,-0.005 0.062,-0.008 l 0.024,-0.003 c 0.0197,-0.002 0.0394,-0.005 0.0585,-0.008 0.0239,-0.003 0.0486,-0.006 0.0725,-0.01 l 0.0141,-0.002 c 0.0275,-0.004 0.055,-0.008 0.0832,-0.0127 l 0.01,-0.001 0.0535,-0.008 0.0507,-0.008 0.0303,-0.005 h 0.005 c 0.0388,-0.007 0.0768,-0.0134 0.11561,-0.0204 l 0.007,-0.001 0.0676,-0.0127 c 1.12501,-0.21006 2.20306,-0.62128 3.1821,-1.214 0.0176,-0.0106 0.0345,-0.0212 0.0522,-0.0318 0.0758,-0.0465 0.15105,-0.0942 0.22546,-0.14298 0.32538,-0.2129 0.63759,-0.4451 0.93507,-0.69547 0.15278,-0.12907 0.24812,-0.31371 0.26487,-0.513 0.0169,-0.19914 -0.0457,-0.39709 -0.17401,-0.55031 h -0.003 z"
   style="fill:#1066df;fill-rule:nonzero;stroke-width:0.0747814"
   id="path1" />
        </g>
        <g
   transform="matrix(3.9987,0,0,3.9987,-38.875,0.251891)"
   id="g2">
            <path
   d="m 117.12914,121.1 c 0.13326,1.5e-4 0.26412,-0.0354 0.37906,-0.1029 0.14957,-0.0868 0.30182,-0.16878 0.45662,-0.24588 0.0989,-0.0491 0.19869,-0.096 0.29942,-0.14096 0.017,-0.008 0.0339,-0.0148 0.0508,-0.0226 0.0112,-0.005 0.0225,-0.01 0.0345,-0.0147 0.0225,-0.01 0.0443,-0.0191 0.0669,-0.0289 l 0.05,-0.0211 c 0.0339,-0.0142 0.068,-0.028 0.10215,-0.0416 l 0.0387,-0.0156 0.0642,-0.0253 c 0.0155,-0.006 0.031,-0.012 0.0464,-0.0176 0.0733,-0.0275 0.14657,-0.0536 0.22127,-0.079 l 0.0437,-0.0147 c 0.0871,-0.0292 0.17476,-0.057 0.26285,-0.0832 l 0.0437,-0.0127 c 0.11397,-0.033 0.22861,-0.0636 0.34385,-0.0916 l 0.0381,-0.009 0.0444,-0.0106 0.0303,-0.007 0.0324,-0.008 c 0.0212,-0.005 0.043,-0.01 0.0642,-0.0141 0.0324,-0.007 0.0648,-0.0141 0.0979,-0.0204 l 0.0543,-0.0106 c 0.0733,-0.0141 0.14657,-0.0275 0.21986,-0.0402 0.0352,-0.006 0.0711,-0.012 0.10641,-0.0169 0.0359,-0.006 0.0719,-0.0105 0.10918,-0.0162 l 0.008,-10e-4 c 0.0521,-0.007 0.10425,-0.0141 0.15644,-0.0205 l 0.10986,-0.0127 c 0.0366,-0.004 0.0733,-0.008 0.10993,-0.0105 0.0366,-0.004 0.0733,-0.006 0.11067,-0.009 0.0233,-0.001 0.0465,-0.004 0.069,-0.005 l 0.13879,-0.008 c 0.0233,-0.001 0.0465,-0.002 0.0691,-0.004 0.0141,0 0.0274,-10e-4 0.0416,-10e-4 l 0.038,-0.001 0.0437,-0.001 0.0437,-10e-4 c 0.0296,-7.5e-4 0.0592,-0.001 0.0881,-0.001 h 0.10424 c 0.33263,0 0.66518,0.0204 0.99497,0.062 0.0698,0.008 0.13947,0.0183 0.20924,0.0289 0.0148,0.002 0.0303,0.005 0.0458,0.007 l 0.0768,0.0127 0.0148,0.003 0.0126,0.002 c 0.0191,0.004 0.0388,0.006 0.0578,0.01 l 0.019,0.004 0.0254,0.005 0.0254,0.005 0.0479,0.009 c 0.017,0.003 0.0339,0.006 0.05,0.01 l 0.0135,0.003 c 0.038,0.008 0.0768,0.0162 0.11479,0.0247 l 0.0352,0.008 c 0.0269,0.006 0.0529,0.012 0.0796,0.0183 0.031,0.007 0.062,0.0148 0.093,0.0226 0.0289,0.007 0.0578,0.0148 0.0867,0.0218 l 0.031,0.008 0.0331,0.008 h 0.001 c 0.0212,0.006 0.0423,0.0112 0.0627,0.0169 0.003,0 0.006,0.001 0.008,0.002 0.01,0.003 0.0198,0.006 0.0289,0.008 0.0134,0.004 0.0268,0.008 0.0402,0.0113 l 0.0331,0.009 c 0.0155,0.004 0.031,0.009 0.0465,0.0134 l 0.0366,0.0112 0.0331,0.01 0.0155,0.005 h 0.001 l 0.019,0.006 0.0402,0.0127 0.0254,0.008 0.0331,0.0105 c 0.0197,0.006 0.0387,0.0127 0.0585,0.0191 0.0295,0.01 0.0592,0.0204 0.0888,0.0303 0.13035,0.0458 0.25957,0.0946 0.38752,0.14657 l 0.0437,0.0183 c 0.0318,0.0134 0.0635,0.0261 0.0952,0.0402 0.10836,0.0463 0.2129,0.10096 0.31281,0.16347 0.92871,0.5827 1.32258,1.77427 0.87726,2.81291 -0.23728,0.55211 -0.68433,0.98801 -1.24227,1.21123 -0.55794,0.22322 -1.18244,0.21559 -1.73478,-0.0212 -0.42805,-0.18329 -0.88803,-0.28043 -1.35362,-0.28604 h -10e-4 c -0.13506,-0.001 -0.27011,0.005 -0.40449,0.019 -0.0606,0.006 -0.12048,0.0148 -0.18112,0.0239 -0.0268,0.004 -0.0542,0.009 -0.081,0.0141 l -0.0239,0.004 c -0.01,0.002 -0.0205,0.004 -0.0304,0.006 -0.0148,0.003 -0.0303,0.006 -0.0451,0.009 h -0.003 c -0.0162,0.004 -0.0317,0.008 -0.0479,0.0113 l -0.0381,0.009 -0.0225,0.006 -0.0366,0.009 c -0.0113,0.003 -0.0233,0.006 -0.0346,0.009 l -0.0239,0.006 c -0.0487,0.0134 -0.0973,0.0282 -0.14515,0.0437 -0.0191,0.006 -0.0388,0.0127 -0.0578,0.019 l -0.0289,0.01 c -0.01,0.004 -0.0191,0.006 -0.0289,0.0106 l -0.0282,0.0105 c -0.0282,0.0106 -0.0571,0.0212 -0.0845,0.0325 -0.14104,0.0564 -0.27826,0.12189 -0.41085,0.19593 -0.008,0.005 -0.0176,0.01 -0.026,0.0148 -0.0176,0.01 -0.0352,0.0204 -0.0529,0.0303 -0.0176,0.0105 -0.0345,0.0204 -0.0521,0.0317 -0.0163,0.0102 -0.0325,0.0205 -0.0486,0.031 l -0.0423,0.0275 c -0.01,0.006 -0.019,0.0127 -0.0289,0.019 -0.006,0.004 -0.011,0.007 -0.0162,0.0113 -0.006,0.004 -0.0134,0.009 -0.0204,0.0141 -0.007,0.005 -0.0162,0.0113 -0.0239,0.017 -0.0162,0.0112 -0.0325,0.0225 -0.0479,0.0345 -0.0155,0.0113 -0.0324,0.0239 -0.0486,0.0359 -0.008,0.006 -0.0156,0.012 -0.024,0.0176 -0.16811,0.12945 -0.32403,0.274 -0.46574,0.43194 l -0.004,0.004 c -0.012,0.0134 -0.0239,0.0268 -0.0359,0.0408 -0.0113,0.0127 -0.0226,0.0262 -0.0338,0.0395 l -0.0127,0.0148 c -0.0141,0.0169 -0.0282,0.0338 -0.0416,0.0507 -0.005,0.006 -0.009,0.0113 -0.0134,0.017 -0.012,0.0148 -0.0233,0.0295 -0.0345,0.0443 -0.008,0.0106 -0.0161,0.0212 -0.0246,0.0317 -0.0226,0.0296 -0.0444,0.0592 -0.0656,0.0895 v 6.7e-4 c -0.15921,0.22599 -0.2909,0.47008 -0.39245,0.72718 0,0.001 -7.5e-4,0.002 -0.001,0.004 l -0.0127,0.0317 -0.012,0.031 c -0.003,0.008 -0.006,0.0162 -0.009,0.0247 -0.003,0.008 -0.007,0.0197 -0.0106,0.0303 -0.004,0.012 -0.008,0.0247 -0.0127,0.0366 -0.004,0.0127 -0.008,0.0261 -0.0126,0.0387 -0.18703,0.56153 -0.22801,1.1615 -0.11905,1.74322 0.004,0.0212 0.008,0.0416 0.0127,0.0627 0.0874,0.43687 0.25792,0.85288 0.50238,1.22536 l 0.0197,0.0303 c 0.24947,0.37615 0.56999,0.69995 0.94344,0.95339 0.012,0.008 0.024,0.0162 0.036,0.0239 0.46552,0.31146 0.99916,0.50649 1.55583,0.56864 l 0.0402,0.004 0.0359,0.004 0.017,0.001 c 0.2233,0.0197 0.44809,0.0183 0.67146,-0.006 0.008,-6.7e-4 0.0176,-0.002 0.0261,-0.004 h 0.002 c 0.46529,-0.0521 0.91563,-0.19631 1.32468,-0.42416 0.0864,-0.0485 0.16258,-0.1133 0.22412,-0.191 0.0615,-0.078 0.10694,-0.16728 0.13386,-0.26285 0.0268,-0.0958 0.0352,-0.19518 0.0233,-0.29382 -0.0117,-0.0986 -0.0426,-0.19383 -0.0909,-0.28043 -0.0485,-0.0866 -0.11359,-0.16272 -0.19159,-0.22404 -0.0779,-0.0616 -0.16721,-0.10709 -0.26285,-0.13386 -0.0954,-0.0271 -0.19533,-0.0351 -0.29382,-0.0233 -0.0986,0.012 -0.19376,0.0422 -0.28043,0.0909 -0.368,0.20453 -0.79089,0.28881 -1.20914,0.24102 l -0.0219,-0.003 c -0.0126,-0.001 -0.0253,-0.004 -0.038,-0.005 -0.0127,-0.002 -0.0268,-0.004 -0.0409,-0.006 -0.0168,-0.003 -0.0334,-0.006 -0.05,-0.009 -0.0259,-0.005 -0.0518,-0.0105 -0.0775,-0.0169 -0.008,-0.001 -0.0148,-0.004 -0.0218,-0.005 l -0.0254,-0.006 c -0.008,-0.002 -0.0161,-0.004 -0.0254,-0.006 l -0.0253,-0.007 c -0.007,-0.002 -0.0141,-0.004 -0.0212,-0.006 l -0.0274,-0.008 c -0.0162,-0.005 -0.0325,-0.0105 -0.0486,-0.0155 -0.008,-0.003 -0.0162,-0.006 -0.024,-0.009 -0.0162,-0.006 -0.0324,-0.012 -0.0479,-0.0176 -0.0239,-0.009 -0.0476,-0.0188 -0.0712,-0.0289 l -0.0183,-0.008 -0.0191,-0.008 -0.019,-0.009 -0.0296,-0.0141 c -0.30406,-0.14874 -0.5661,-0.37114 -0.7624,-0.64686 l -0.0169,-0.0254 c -0.006,-0.008 -0.0113,-0.0162 -0.0162,-0.024 -0.006,-0.008 -0.01,-0.0147 -0.0141,-0.0218 -0.20422,-0.31685 -0.31647,-0.68425 -0.3241,-1.06115 v -0.0663 c 0,-0.01 0,-0.0211 6.7e-4,-0.0324 6.8e-4,-0.0105 6.8e-4,-0.0212 0.001,-0.0324 0,-0.008 0,-0.0155 10e-4,-0.0232 l 0.001,-0.0233 c 0.001,-0.0191 0.003,-0.0381 0.005,-0.0564 7.4e-4,-0.008 0.001,-0.0162 0.003,-0.0247 0.001,-0.0148 0.004,-0.0296 0.006,-0.0451 0.001,-0.0113 0.003,-0.0226 0.005,-0.0338 l 0.004,-0.0254 c 0.003,-0.0155 0.005,-0.031 0.008,-0.0465 0.003,-0.0156 0.006,-0.0296 0.008,-0.0444 0.004,-0.0148 0.007,-0.0324 0.0105,-0.0486 0.003,-0.0105 0.005,-0.0212 0.008,-0.0325 0.002,-0.008 0.004,-0.0161 0.006,-0.0254 l 0.0148,-0.0528 c 0.0225,-0.0733 0.0486,-0.1459 0.0789,-0.21634 0.0442,-0.10313 0.097,-0.20236 0.15786,-0.29666 0.008,-0.0127 0.0176,-0.0275 0.0274,-0.0409 0.006,-0.009 0.0127,-0.0176 0.0183,-0.026 0.01,-0.0141 0.0198,-0.0275 0.0296,-0.0409 l 0.0155,-0.0211 c 0.006,-0.008 0.0113,-0.0148 0.0169,-0.0218 0.007,-0.009 0.0141,-0.0183 0.0219,-0.0275 0.007,-0.009 0.0147,-0.0183 0.0218,-0.0268 l 0.0225,-0.0261 c 0.0127,-0.0155 0.0268,-0.0303 0.0409,-0.0451 l 0.003,-0.003 c 0.0156,-0.017 0.031,-0.0331 0.0473,-0.0494 0.012,-0.0127 0.0246,-0.0247 0.038,-0.0366 l 0.01,-0.009 c 0.0772,-0.0726 0.15988,-0.1391 0.24738,-0.19877 0.0169,-0.0112 0.0338,-0.0225 0.05,-0.0331 0.008,-0.006 0.0169,-0.0113 0.0268,-0.017 0.01,-0.006 0.0197,-0.0126 0.0295,-0.0183 0.01,-0.006 0.0197,-0.012 0.0304,-0.0176 0.10581,-0.06 0.21656,-0.11067 0.33113,-0.1515 l 0.0493,-0.0169 c 0.0113,-0.004 0.0218,-0.007 0.0331,-0.0106 0.0112,-0.004 0.0218,-0.006 0.0331,-0.01 0.0113,-0.003 0.0226,-0.006 0.0339,-0.009 0.0113,-0.003 0.0218,-0.006 0.0324,-0.008 0.024,-0.006 0.0479,-0.0113 0.0719,-0.0162 l 0.031,-0.006 0.0233,-0.004 0.0239,-0.004 c 0.0155,-0.003 0.0303,-0.005 0.0458,-0.007 h 0.001 c 0.0956,-0.0141 0.19226,-0.0211 0.28895,-0.0211 h 0.0331 c 0.26211,0.005 0.51995,0.0606 0.76097,0.16347 1.56712,0.67221 3.39844,0.20782 4.45398,-1.12957 0.52205,-0.66189 0.80861,-1.4794 0.81385,-2.32241 v -0.007 c 0.003,-0.74168 -0.2129,-1.46803 -0.62009,-2.0879 -0.40711,-0.61993 -0.98808,-1.10631 -1.67002,-1.39796 -0.0246,-0.0105 -0.0486,-0.0211 -0.0733,-0.031 -0.025,-0.01 -0.05,-0.0203 -0.0746,-0.031 -0.0374,-0.0155 -0.074,-0.0303 -0.1121,-0.0451 -0.0373,-0.0148 -0.0746,-0.0296 -0.11202,-0.0437 l -0.0613,-0.0232 c -0.0203,-0.008 -0.0408,-0.0154 -0.0613,-0.0226 -0.0183,-0.006 -0.036,-0.0135 -0.0543,-0.0198 l -0.0486,-0.0177 -0.0754,-0.026 c -0.0521,-0.0177 -0.10432,-0.0353 -0.15711,-0.0522 l -0.036,-0.012 -0.043,-0.0141 -0.0648,-0.0205 -0.0437,-0.0134 -0.0387,-0.0112 -0.055,-0.0162 -0.1106,-0.0317 c -0.0253,-0.007 -0.0507,-0.0139 -0.0761,-0.0204 l -0.0719,-0.0191 h -0.003 l -0.0155,-0.004 c -0.0416,-0.0106 -0.0824,-0.0212 -0.12399,-0.031 l -0.0423,-0.01 -0.0493,-0.012 c -0.0254,-0.006 -0.0494,-0.0112 -0.074,-0.0169 l -0.006,-10e-4 -0.0739,-0.0162 c -0.0515,-0.0112 -0.1029,-0.0218 -0.15435,-0.0324 l -0.0451,-0.008 -0.0655,-0.0127 c -0.0148,-0.003 -0.0296,-0.006 -0.0437,-0.008 l -0.0627,-0.0112 -0.0226,-0.004 c -0.0493,-0.008 -0.0986,-0.0162 -0.14792,-0.0247 -0.0518,-0.008 -0.10372,-0.0161 -0.15577,-0.0232 l -0.062,-0.009 -0.0352,-0.004 c -0.004,0 -0.008,-0.001 -0.0127,-0.001 l -0.0211,-0.003 -0.0212,-0.003 -0.0408,-0.005 -0.0282,-0.004 -0.0543,-0.006 -0.0169,-0.002 c -0.0218,-0.002 -0.0437,-0.005 -0.0663,-0.007 l -0.0613,-0.006 -0.0212,-0.002 -0.0606,-0.006 c -0.024,-0.002 -0.0479,-0.004 -0.0719,-0.006 -0.10859,-0.008 -0.21739,-0.0149 -0.3262,-0.0197 h -0.0247 l -0.0141,-7.5e-4 -0.0529,-0.002 -0.0747,-0.002 c -0.0552,-10e-4 -0.11038,-0.002 -0.16557,-0.003 h -0.16205 c -0.0233,0 -0.0458,0 -0.0691,7.5e-4 -0.0233,6.8e-4 -0.0443,6.8e-4 -0.0662,0.001 -0.0219,0 -0.0438,7.5e-4 -0.0663,0.001 -0.0317,6.8e-4 -0.0642,0.002 -0.0959,0.003 l -0.0556,0.002 -0.0254,0.001 -0.0416,0.002 -0.0543,0.003 -0.0493,0.003 h -0.007 c -0.43478,0.0274 -0.86672,0.0845 -1.29305,0.17125 l -0.0155,0.003 c -0.0345,0.007 -0.069,0.0148 -0.10432,0.0218 l -0.006,0.001 c -0.0155,0.003 -0.031,0.006 -0.0465,0.01 -0.15293,0.0339 -0.30436,0.0712 -0.4552,0.11202 -0.75805,0.20707 -1.48755,0.50747 -2.17165,0.89424 l -0.074,0.0423 -0.0295,0.0169 -0.0127,0.008 -0.0127,0.008 c -0.13843,0.0876 -0.24454,0.21806 -0.3022,0.37136 -0.0576,0.15323 -0.0643,0.32112 -0.0191,0.47846 0.046,0.15704 0.14142,0.29523 0.27198,0.39387 0.1311,0.0983 0.29068,0.15128 0.45453,0.15083 h 7.4e-4 z"
   style="fill:#1066df;fill-rule:nonzero;stroke-width:0.0747814"
   id="path2" />
        </g>
        <g
   transform="matrix(3.9987,0,0,3.9987,-38.875,0.251891)"
   id="g3">
            <path
   d="m 115.97279,124.54077 -0.006,0.0105 c -0.34795,0.56692 -0.60692,1.18387 -0.768,1.82923 -7.5e-4,0.004 -0.002,0.007 -0.003,0.0106 l -0.0105,0.0444 c -10e-4,0.007 -0.004,0.0148 -0.005,0.0218 -0.004,0.0141 -0.006,0.0282 -0.01,0.0422 -0.18718,0.81071 -0.21777,1.64975 -0.0902,2.4719 0.001,0.007 0.002,0.0141 0.003,0.0211 0.004,0.0209 0.007,0.0418 0.0105,0.0627 l 10e-4,0.007 c 0,0 0,0.004 7.5e-4,0.006 0.1512,0.89177 0.48563,1.74263 0.98217,2.49867 l 0.0127,0.0197 c 0.0479,0.0726 0.0972,0.1438 0.14791,0.21425 0.0191,0.0268 0.0388,0.0529 0.0578,0.0789 1.0343,1.39243 2.58093,2.31792 4.29686,2.57121 l 0.009,0.001 0.043,0.006 h 0.006 l 0.0352,0.006 h 0.008 l 0.0381,0.006 c 0.51682,0.0653 1.03961,0.0686 1.55725,0.01 l 0.0331,-0.004 c 0.0105,-0.001 0.0212,-0.003 0.0317,-0.004 l 0.0444,-0.006 0.008,-10e-4 h 0.006 l 0.01,-0.002 0.0416,-0.006 0.0148,-0.002 c 0.0254,-0.004 0.0493,-0.007 0.0733,-0.0105 h 6.7e-4 c 1.08635,-0.16766 2.11302,-0.60655 2.98482,-1.27607 0.0796,-0.0599 0.14642,-0.13513 0.1966,-0.22128 0.0503,-0.0862 0.0831,-0.18149 0.0965,-0.28043 0.0274,-0.19959 -0.0264,-0.40202 -0.14942,-0.5616 -0.0609,-0.079 -0.13685,-0.14538 -0.22337,-0.19518 -0.0865,-0.0499 -0.18209,-0.082 -0.28118,-0.0944 -0.0991,-0.0128 -0.19966,-0.006 -0.29591,0.0211 -0.0961,0.0268 -0.18605,0.0721 -0.26495,0.13319 -0.53454,0.41025 -1.14602,0.70907 -1.79819,0.87868 -0.008,0.002 -0.0169,0.004 -0.0254,0.006 -0.16497,0.0421 -0.33196,0.0757 -0.50029,0.1008 h -0.007 c -0.0197,0.004 -0.0394,0.006 -0.0592,0.009 l -0.0218,0.003 c -0.21612,0.0281 -0.43388,0.0422 -0.6518,0.0422 h -0.001 c -0.46529,0 -0.92841,-0.0642 -1.37612,-0.19092 l -0.004,-0.001 c -0.0348,-0.01 -0.0696,-0.0203 -0.10432,-0.031 -0.0513,-0.0156 -0.1023,-0.0323 -0.15293,-0.05 l -0.0782,-0.0275 -0.0338,-0.0127 -0.01,-0.004 c -0.0198,-0.007 -0.0394,-0.0148 -0.0592,-0.0225 l -0.0169,-0.006 -0.0296,-0.012 -0.008,-0.003 h -0.001 c -0.0197,-0.008 -0.0394,-0.0155 -0.0592,-0.0239 l -0.0148,-0.006 -0.0162,-0.007 c -0.0295,-0.0127 -0.0585,-0.0254 -0.0881,-0.0381 l -0.0239,-0.0105 c -0.84884,-0.3861 -1.57482,-0.99923 -2.09761,-1.7715 l -0.0127,-0.0183 -0.0218,-0.0331 -0.0191,-0.0296 c -0.51973,-0.80479 -0.80076,-1.74068 -0.81033,-2.69871 v -0.0648 c 0,-0.0261 0,-0.0522 7.4e-4,-0.0782 v -0.006 c 0.002,-0.0986 0.007,-0.1966 0.0148,-0.29382 6.7e-4,-0.0105 0.001,-0.0212 0.003,-0.031 0,-0.005 7.5e-4,-0.01 0.001,-0.0148 0.0473,-0.52878 0.17798,-1.04679 0.38745,-1.53466 0.0935,-0.21851 0.20235,-0.43014 0.32559,-0.6334 0.005,-0.009 0.0106,-0.0176 0.0155,-0.0262 0.0899,-0.14478 0.18703,-0.28492 0.29105,-0.4199 0.26794,-0.34923 0.58038,-0.66189 0.92939,-0.93013 0.10289,-0.0793 0.20886,-0.15457 0.31774,-0.22547 0.0931,-0.0602 0.18808,-0.11755 0.28469,-0.17199 0.5412,-0.30272 1.13317,-0.50403 1.74675,-0.59392 0.23833,-0.0338 0.47875,-0.0508 0.71947,-0.0508 h 0.001 c 0.0183,0 0.0366,-7.5e-4 0.0556,-0.002 h 0.004 c 0.6509,0.008 1.29409,0.14239 1.89332,0.39672 0.0106,0.004 0.0212,0.008 0.0317,0.0134 h 0.001 c 0.18403,0.0797 0.39245,0.0824 0.5785,0.008 0.28657,-0.11419 0.47554,-0.39297 0.47554,-0.70145 0,-0.0962 -0.0184,-0.19151 -0.0541,-0.2808 -0.0745,-0.18598 -0.21979,-0.33502 -0.40375,-0.41429 h -0.001 c -1.1099,-0.47868 -2.33153,-0.63893 -3.52736,-0.4629 l -0.0261,0.004 -0.0416,0.006 -0.008,0.001 -0.031,0.005 c -0.9006,0.14515 -1.76066,0.47837 -2.52395,0.97791 l -0.006,0.004 c -0.0112,0.008 -0.0232,0.0148 -0.0345,0.0226 l -0.0352,0.0232 c -0.008,0.006 -0.0156,0.0106 -0.0233,0.0163 -0.70437,0.47546 -1.30845,1.08478 -1.77778,1.79326 -0.009,0.0141 -0.0197,0.0295 -0.0295,0.0443 l -0.006,0.009 -0.0303,0.0471 -0.0176,0.0275 c -0.006,0.01 -0.0127,0.0197 -0.0183,0.0296 -0.004,0.006 -0.007,0.0112 -0.0106,0.0162 l -0.0127,0.0197 -0.001,0.004 7.5e-4,-0.001 z"
   style="fill:#1066df;fill-rule:nonzero;stroke-width:0.0747814"
   id="path3" />
        </g>
    </g>
</svg>
