<svg width="64" height="64" fill="none" xmlns="http://www.w3.org/2000/svg"><path d="M32.098 53.267c11.902 0 21.485-9.583 21.485-21.183S44 10.902 32.098 10.902s-21.485 9.583-21.485 21.182c0 11.6 9.582 21.182 21.485 21.182Z" fill="#46B549"/><path d="M50.092 54.53c1.155 1.095 1.085 2.964-.24 3.845-12.46 8.291-29.38 7.076-40.447-3.896-12.608-12.508-12.608-32.48 0-44.987C20.415-1.516 37.495-2.703 49.977 5.68c1.266.85 1.357 2.634.279 3.712-.92.92-2.377.994-3.464.28-10.38-6.816-24.52-5.581-33.554 3.451-10.691 10.39-10.691 27.335-.201 37.725 9.034 9.034 23.179 10.268 33.559 3.448 1.091-.717 2.548-.664 3.496.234Zm4.655-4.549c1.095 1.156 2.965 1.092 3.853-.23 7.227-10.75 7.197-24.945-.092-35.667-.854-1.256-2.629-1.34-3.703-.266-.925.926-.995 2.392-.268 3.48 5.865 8.796 5.856 20.236-.027 29.178-.72 1.094-.663 2.554.237 3.505Z" fill="#46B549"/></svg>