<?xml version="1.0" encoding="UTF-8" standalone="no"?>
<svg
   width="111.86696"
   height="87.517395"
   viewBox="0 0 111.86696 87.517395"
   version="1.1"
   xml:space="preserve"
   style="clip-rule:evenodd;fill-rule:evenodd;stroke-linejoin:round;stroke-miterlimit:2"
   id="svg2"
   xmlns="http://www.w3.org/2000/svg"
   xmlns:svg="http://www.w3.org/2000/svg"><defs
   id="defs2" />
    <g
   transform="matrix(4.00296,0,0,4.00296,-456.95578,-360.53668)"
   id="g2">
        <path
   d="m 130.12888,95.533428 -2.32302,5.466022 h -5.45236 c -0.003,0 -0.006,0 -0.009,0 -1.49419,0 -2.72361,1.22942 -2.72361,2.72361 0,0.003 0,0.006 0,0.009 0,0.003 0,0.006 0,0.009 0,1.49419 1.22942,2.72361 2.72361,2.72361 0.003,0 0.006,0 0.009,0 h 3.12934 l -2.28652,5.46602 c -0.54637,-0.005 -0.56953,0 -0.84282,0 -4.52311,0 -8.19903,-3.67592 -8.19903,-8.19903 0,-4.523212 3.67592,-8.199022 8.19903,-8.199022 h 7.78914 z"
   style="fill:#3551f2;fill-rule:nonzero;stroke-width:0.109272"
   id="path1" />
        <path
   d="m 142.10053,98.266437 c 0,4.523213 -3.67592,8.199023 -8.19903,8.199023 h -8.41768 l 2.32302,-5.46601 h 6.09466 c 1.50315,0 2.73301,-1.229864 2.73301,-2.732904 0,-1.503258 -1.22986,-2.733118 -2.73301,-2.733118 h -3.77164 l 2.3546,-5.465908 c 0.54636,0.0048 0.89778,0 1.41704,0 4.52311,0 8.19903,3.67581 8.19903,8.198917 z"
   style="fill:#3551f2;fill-rule:nonzero;stroke-width:0.109272"
   id="path2" />
    </g>
</svg>
