<?xml version="1.0" encoding="UTF-8" standalone="no"?>
<svg
   width="95.395966"
   height="95.39566"
   viewBox="0 0 95.395966 95.39566"
   version="1.1"
   xml:space="preserve"
   style="clip-rule:evenodd;fill-rule:evenodd;stroke-linejoin:round;stroke-miterlimit:2"
   id="svg3"
   xmlns="http://www.w3.org/2000/svg"
   xmlns:svg="http://www.w3.org/2000/svg"><defs
   id="defs3" />
    <g
   transform="matrix(1.00373,0,0,1.01105,-464.10566,-469.95916)"
   id="g3">
        <g
   transform="matrix(3.98212,0,0,3.98212,0.583005,2.53258)"
   id="g1">
            <path
   d="m 127.947,135.86871 c 4.43536,0 8.0061,-3.57074 8.0061,-7.89328 0,-4.32264 -3.57074,-7.89329 -8.0061,-7.89329 -4.43527,0 -8.00601,3.57074 -8.00601,7.89329 0,4.32254 3.57083,7.89328 8.00601,7.89328 z"
   style="fill:#46b549;fill-rule:nonzero;stroke-width:0.0931603"
   id="path1" />
        </g>
        <g
   transform="matrix(3.98212,0,0,3.98212,0.583005,2.53258)"
   id="g2">
            <path
   d="m 134.65332,136.33973 c 0.43041,0.40776 0.40413,1.10432 -0.0894,1.43281 -4.64348,3.08947 -10.94848,2.63643 -15.07222,-1.452 -4.69844,-4.66081 -4.69844,-12.10311 0,-16.76391 4.10222,-4.10222 10.46712,-4.54446 15.11871,-1.42061 0.47176,0.31675 0.50558,0.98145 0.10378,1.38334 -0.34283,0.34283 -0.88558,0.37022 -1.29083,0.10406 -3.86774,-2.53973 -9.13744,-2.07952 -12.50332,1.28636 -3.98428,3.87146 -3.98428,10.18614 -0.0752,14.05761 3.36653,3.36653 8.63754,3.82637 12.50537,1.28496 0.40683,-0.26728 0.94977,-0.24744 1.30312,0.0874 z m 1.73456,-1.69533 c 0.40804,0.43077 1.10478,0.40683 1.43578,-0.0856 2.69308,-4.00636 2.68162,-9.29554 -0.0343,-13.2909 -0.31824,-0.46813 -0.97967,-0.49944 -1.37998,-0.0992 -0.34479,0.34488 -0.3706,0.89127 -0.10006,1.29698 2.18573,3.27747 2.18247,7.54039 -0.01,10.87264 -0.26821,0.40777 -0.24725,0.95182 0.0884,1.30611 z"
   style="fill:#46b549;fill-rule:nonzero;stroke-width:0.0931603"
   id="path2" />
        </g>
    </g>
</svg>
