<svg width="64" height="64" fill="none" xmlns="http://www.w3.org/2000/svg"><g clip-path="url(#a)"><g clip-path="url(#b)" fill="#000"><path d="M9.554 50.324a.228.228 0 0 1-.23-.075.259.259 0 0 1-.063-.128c-.102-.644 2.695-6.567 3.982-8.869.645-1.143 5.474-4.3 8.73-5.847.29-.138 2.172-1.04 2.23-.938.057.103-1.7 1.47-1.791 1.548-2.863 2.295-7.983 8.298-10.655 11.714-1.702 2.176-2.013 2.557-2.203 2.595Z"/><path d="M38.866 18.65c4.5-.142 6.872 1.143 8.051 2.287a4.788 4.788 0 0 1 1.596 3.32c.03 1.703-1.813 2.214-2.916 2.523a7.372 7.372 0 0 0-.477.137c.76.304 2.508.85 4.08 1.338 6.54 2.036 9.308 3.05 9.543 3.93a.576.576 0 0 1-.168.561c-.351.293-1.015.244-2.123.057l-.16-.027C44.93 30.97 37.162 31.1 37.081 31.1c-20.845.317-31.5 15.407-35.005 20.367C1.156 52.774.789 53.291.452 53.3a.472.472 0 0 1-.271-.092.717.717 0 0 1-.254-.587C-.15 50.27 4.8 36.36 15.336 28.457c4.384-3.292 11.835-6.625 22.56-4.001a3.59 3.59 0 0 1-.965-2.42c-3.15.41-8.781-.039-12.79-.561-3.448-.462-9.274-1.4-9.648-2.726-.08-.29.037-.602.782-1.037 3.35-1.967 8.158-2.393 8.158-2.393 13.558-1.309 15.433 3.33 15.433 3.33Z"/><path d="M24.047 14.206s-4.096-2.409-3.436-3.049c.66-.64 8.163 0 13.096 2.115 4.933 2.116 5.245 4.475 5.245 4.475-1.607-2.63-5.842-4.254-14.905-3.54ZM59.048 29.603c-.733.023-1.378.035-2.352.05a1.99 1.99 0 0 1-.699-.135l-6.268-1.99c-.184-.057-1.375-.442-1.27-.599.106-.156 1.203-.148 1.394-.14h.424c7.693.224 12.217.76 13.502 1.589a.42.42 0 0 1 .198.488c-.07.28-.142.596-4.93.737ZM10.008 31.89a1.036 1.036 0 0 1-.603-.065c-.317-.13-.466-.381-.762-.76-.761-.93-1.069-1.982-.82-2.737a1.408 1.408 0 0 1 1.042-.915c1.5-.38 3.191.203 3.817.915.508.558.275.74-.382 1.285-.383.32-.747.664-1.088 1.03-.557.565-.76 1.03-1.204 1.247Z"/></g></g><defs><clipPath id="a"><path fill="#fff" d="M0 0h64v64H0z"/></clipPath><clipPath id="b"><rect width="64" height="64" rx="16" fill="#fff"/></clipPath></defs></svg>