<?xml version="1.0" encoding="UTF-8" standalone="no"?>
<svg
   width="274.3551"
   height="181.46439"
   viewBox="0 0 274.3551 181.46439"
   version="1.1"
   xml:space="preserve"
   style="clip-rule:evenodd;fill-rule:evenodd;stroke-linejoin:round;stroke-miterlimit:2"
   id="svg3"
   xmlns="http://www.w3.org/2000/svg"
   xmlns:svg="http://www.w3.org/2000/svg"><defs
   id="defs3" />
    <g
   transform="matrix(3.98978,0,0,3.98978,-372.9328,-421.6869)"
   id="g3">
        <path
   d="m 103.80797,147.98176 c -0.0389,0.01 -0.0797,0.01 -0.11859,0 -0.10115,-0.0295 -0.17735,-0.11403 -0.19667,-0.2176 -0.10894,-0.69117 2.89238,-7.04877 4.27364,-9.51857 0.69224,-1.22698 5.87572,-4.61466 9.36966,-6.27577 0.31177,-0.1473 2.33161,-1.11671 2.39332,-1.00616 0.0617,0.11027 -1.82343,1.57739 -1.9219,1.6611 -3.07323,2.46282 -8.56741,8.90602 -11.43565,12.57167 -1.82665,2.33537 -2.1607,2.74455 -2.36381,2.78533 z"
   style="fill-rule:nonzero;stroke-width:0.26831"
   id="path1" />
        <path
   d="m 135.26384,113.98553 c 4.83092,-0.15106 7.37557,1.22725 8.64146,2.45504 1.0228,0.91145 1.63991,2.19504 1.71289,3.56316 0.0327,1.82853 -1.94659,2.37669 -3.1301,2.70805 -0.15965,0.0408 -0.35256,0.0942 -0.51221,0.1473 0.81728,0.32654 2.69223,0.91226 4.3799,1.436 7.01872,2.18431 9.98918,3.27285 10.24139,4.2181 0.0537,0.21814 -0.0156,0.44888 -0.1803,0.60155 -0.37698,0.315 -1.08961,0.2616 -2.27822,0.0614 l -0.17199,-0.0287 c -12.19389,-1.93908 -20.53216,-1.79983 -20.61802,-1.79983 -22.37169,0.33941 -33.807871,16.53515 -37.568773,21.85842 -0.98765,1.40326 -1.380992,1.95813 -1.743211,1.96805 -0.104909,-0.002 -0.206599,-0.0362 -0.291116,-0.0985 -0.184598,-0.15535 -0.285751,-0.38905 -0.272335,-0.62999 -0.08157,-2.52426 5.229631,-17.45276 16.537295,-25.93351 4.70508,-3.53337 12.7026,-7.11075 24.2123,-4.29484 -0.6579,-0.70565 -1.02736,-1.6332 -1.03488,-2.59778 -3.38043,0.44164 -9.42439,-0.0408 -13.72808,-0.60155 -3.7,-0.49503 -9.95269,-1.50119 -10.35409,-2.92511 -0.0861,-0.31124 0.0408,-0.64636 0.83981,-1.11295 3.59536,-2.11107 8.75604,-2.56907 8.75604,-2.56907 14.55045,-1.40434 16.56224,3.57469 16.56224,3.57469 z"
   style="fill-rule:nonzero;stroke-width:0.26831"
   id="path2" />
        <path
   d="m 119.35735,109.219 c 0,0 -4.3968,-2.58597 -3.68819,-3.27284 0.70887,-0.68688 8.76032,0 14.05488,2.27044 5.29456,2.27017 5.62968,4.80275 5.62968,4.80275 -1.72523,-2.82262 -6.2696,-4.56583 -15.99664,-3.80035 z m 37.57011,16.52388 c -0.78668,0.0244 -1.47892,0.037 -2.52372,0.0545 -0.25678,-0.003 -0.51086,-0.0529 -0.7502,-0.14623 l -6.72787,-2.13548 c -0.19667,-0.0614 -1.47517,-0.47437 -1.36194,-0.64234 0.11349,-0.16823 1.29057,-0.15937 1.49556,-0.15132 h 0.45478 c 8.25644,0.24148 13.11178,0.81593 14.49062,1.70564 0.18433,0.10277 0.27341,0.32171 0.21304,0.52401 -0.0746,0.30024 -0.15213,0.63965 -5.29027,0.79125 z m -52.63492,2.45531 c -0.21787,0.0416 -0.44325,0.0174 -0.64716,-0.0698 -0.33995,-0.13925 -0.50013,-0.4089 -0.81728,-0.81593 -0.817,-0.99811 -1.14729,-2.12716 -0.88086,-2.93719 0.17494,-0.49986 0.59994,-0.87308 1.11832,-0.98174 1.6104,-0.40891 3.42551,0.2176 4.09709,0.98174 0.54467,0.59834 0.29541,0.79366 -0.40944,1.37885 -0.41185,0.3437 -0.80198,0.7129 -1.16795,1.1049 -0.59833,0.60692 -0.8162,1.10624 -1.29272,1.33914 z"
   style="fill-rule:nonzero;stroke-width:0.26831"
   id="path3" />
    </g>
</svg>
