<svg width="64" height="64" fill="none" xmlns="http://www.w3.org/2000/svg"><path d="M63.992 0 42.66 21.332H28.44a7.112 7.112 0 0 0-6.736 9.395 7.096 7.096 0 0 0 1.705 2.739 7.086 7.086 0 0 0 5.029 2.088l-7.11 7.11a21.258 21.258 0 0 1-11.46-3.335C3.931 35.54-.004 28.898-.004 21.332-.004 9.55 9.546 0 21.328 0h42.664Z" fill="#B2FE92"/><path d="M63.992 42.664c0 11.782-9.55 21.332-21.332 21.332H-.004l21.332-21.332h14.223a7.11 7.11 0 0 0 7.11-7.11c0-.101 0-.2-.006-.298 0-.07-.005-.133-.01-.2 0-.016 0-.03-.006-.048a1.12 1.12 0 0 0-.01-.13.783.783 0 0 0-.011-.112c-.006-.038-.008-.08-.016-.118 0-.024-.006-.048-.008-.069-.008-.064-.019-.125-.027-.186 0-.006 0-.01-.005-.016a3.729 3.729 0 0 0-.045-.237c0-.024-.009-.048-.017-.072a7.626 7.626 0 0 0-.053-.24l-.013-.048a5.636 5.636 0 0 0-.15-.503 7.693 7.693 0 0 0-.186-.49 6.66 6.66 0 0 0-.14-.31 4.685 4.685 0 0 0-.145-.285c-.064-.12-.133-.237-.2-.351-.045-.072-.09-.144-.135-.21a3.526 3.526 0 0 0-.16-.23 1.45 1.45 0 0 0-.075-.101 3.472 3.472 0 0 0-.128-.165 3.075 3.075 0 0 0-.122-.152c-.059-.07-.12-.139-.181-.208a7.084 7.084 0 0 0-5.258-2.326l7.109-7.11c.139 0 .277 0 .416.006.103 0 .207.006.314.008a17.346 17.346 0 0 1 1.113.07 19.197 19.197 0 0 1 1.745.218l.28.048c.021.005.045.005.066.013a17.704 17.704 0 0 1 .837.17l.096.025c.157.037.317.074.471.114.006 0 .011 0 .016.006a18.495 18.495 0 0 1 .994.285 12.75 12.75 0 0 1 .511.165c.147.05.296.1.443.157.02.005.042.016.064.024.154.056.309.112.46.176a27.659 27.659 0 0 1 .895.376c.19.085.379.172.563.263.143.07.29.141.434.216.154.08.306.157.455.24.152.08.301.165.45.25.15.085.296.173.445.26.136.084.275.166.408.251l.037.024a22.393 22.393 0 0 1 1.665 1.188c.123.096.242.192.362.293l.062.048c.386.32.759.653 1.121 1 .123.12.245.236.368.359.122.122.24.242.36.367.117.123.231.248.348.373.203.224.403.45.594.682.043.048.083.102.123.152a19.93 19.93 0 0 1 1.18 1.582c.096.142.19.286.285.43.09.143.181.284.27.431.015.03.034.059.05.085.072.12.144.24.213.363.085.149.17.298.25.45a22.95 22.95 0 0 1 .634 1.268 17.987 17.987 0 0 1 .46 1.079c.054.133.108.271.155.407.024.061.048.125.07.19a15.193 15.193 0 0 1 .296.882c.047.143.09.29.13.433.013.038.024.078.035.115.042.152.082.303.122.455 0 .006.005.01.005.016a25.448 25.448 0 0 1 .25 1.081c.027.129.049.257.073.387.027.136.048.272.07.408l.047.298c.016.12.035.24.048.36a15.382 15.382 0 0 1 .069.602v.005a17.045 17.045 0 0 1 .083 1.057 12.347 12.347 0 0 1 .021.541v.072c.006.17.006.341.006.512l-.009-.011Z" fill="#078465"/></svg>