<?xml version="1.0" encoding="UTF-8" standalone="no"?>
<svg
   width="63.999691"
   height="64.000053"
   viewBox="0 0 63.999691 64.000053"
   version="1.1"
   xml:space="preserve"
   style="clip-rule:evenodd;fill-rule:evenodd;stroke-linejoin:round;stroke-miterlimit:2"
   id="svg1"
   xmlns="http://www.w3.org/2000/svg"
   xmlns:svg="http://www.w3.org/2000/svg"><defs
   id="defs1" />
    <g
   transform="matrix(4.11463,0,0,4.11463,-495.97276,-495.98569)"
   id="g1">
        <path
   d="m 132.92282,122.05462 1.34112,-1.34113 c 0.22863,-0.22862 0.59994,-0.22869 0.82863,-6e-5 l 0.82856,0.82862 c 0.22869,0.22863 0.22862,0.59994 0,0.82863 v -6e-5 l -1.34106,1.34106 c 0.95087,1.29019 1.51293,2.88369 1.51293,4.6075 0,1.72375 -0.56206,3.31731 -1.51262,4.60706 l 1.34119,1.34119 c 0.22862,0.22862 0.22862,0.59987 -7e-5,0.82856 l -0.82862,0.82863 c -0.22863,0.22862 -0.59988,0.22862 -0.8285,0 l -1.34119,-1.34119 c -1.28994,0.95075 -2.8835,1.51275 -4.60725,1.51275 -1.72381,0 -3.31731,-0.562 -4.60719,-1.51269 l -1.34125,1.34125 c -0.22862,0.22869 -0.59987,0.22869 -0.82856,0 l -0.82862,-0.82862 c -0.22863,-0.22863 -0.22863,-0.59988 0,-0.8285 l 1.34125,-1.34125 c -0.95069,-1.28988 -1.51269,-2.88344 -1.51269,-4.60719 0,-1.72381 0.562,-3.31731 1.51275,-4.60731 l -1.34113,-1.34113 c -0.22862,-0.22862 -0.22868,-0.59994 -6e-5,-0.82862 l 0.82863,-0.82857 c 0.22862,-0.22868 0.59993,-0.22862 0.82862,0 h -6e-5 l 1.34119,1.34119 c 1.28981,-0.95062 2.88331,-1.51262 4.60712,-1.51262 1.72375,0 3.31731,0.562 4.60688,1.5125 z m -4.60688,0.83106 c 2.99881,0 5.43344,2.43462 5.43344,5.4335 0,2.99881 -2.43463,5.43344 -5.43344,5.43344 -2.99887,0 -5.4335,-2.43463 -5.4335,-5.43344 0,-2.99888 2.43463,-5.4335 5.4335,-5.4335 z"
   style="fill:#959595;stroke-width:0.0625"
   id="path1" />
    </g>
</svg>
