<?xml version="1.0" encoding="UTF-8" standalone="no"?>
<svg
   width="64.000046"
   height="46.546799"
   viewBox="0 0 64.000046 46.546799"
   version="1.1"
   xml:space="preserve"
   style="clip-rule:evenodd;fill-rule:evenodd;stroke-linejoin:round;stroke-miterlimit:2"
   id="svg1"
   xmlns="http://www.w3.org/2000/svg"
   xmlns:svg="http://www.w3.org/2000/svg"><defs
   id="defs1" />
    <g
   transform="matrix(4.3809,0,0,4.3809,-504.11262,-537.47974)"
   id="g1">
        <path
   d="m 129.67944,127.99953 c 0,0.96769 -0.25925,1.87431 -0.71094,2.65625 -0.46713,0.80731 -1.138,1.47819 -1.94531,1.94531 -0.0281,0.0157 -0.0553,0.0314 -0.0834,0.0471 -0.76212,0.42275 -1.639,0.66381 -2.57206,0.66381 h -5.31163 l 0.99575,-2.65619 h -2.98812 l 0.99575,-2.65625 h 6.30825 l -0.99575,2.65625 h 0.99575 c 1.23775,0 2.27725,-0.84637 2.57206,-1.99244 0.0556,-0.21687 0.0836,-0.43993 0.0834,-0.66381 0,-1.46644 -1.189,-2.65625 -2.65625,-2.65625 h -5.31169 l 0.99581,-2.65625 h 4.31588 c 0.96768,0 1.87431,0.25925 2.65625,0.71094 0.80731,0.46712 1.47818,1.138 1.94531,1.94531 0.45169,0.78113 0.71094,1.6885 0.71094,2.65625 z m -11.62157,0 h -2.98731 l 0.99575,-2.65625 h 2.98819 z"
   style="fill:#c82020;fill-rule:nonzero;stroke-width:0.0625"
   id="path1" />
    </g>
</svg>
