<svg width="64" height="64" fill="none" xmlns="http://www.w3.org/2000/svg"><g clip-path="url(#a)" fill-rule="evenodd" clip-rule="evenodd" fill="#959595"><path d="M32.08.97c17.17 0 31.11 13.94 31.11 31.109 0 17.169-13.94 31.108-31.11 31.108C14.913 63.187.974 49.248.974 32.08.973 14.909 14.912.97 32.08.97Zm0 9.375c11.996 0 21.735 9.739 21.735 21.734 0 11.995-9.739 21.734-21.734 21.734-11.996 0-21.734-9.739-21.734-21.734 0-11.995 9.739-21.734 21.734-21.734Z"/><path d="M62.499 8.286c.914-.915.914-2.4 0-3.315l-3.315-3.314a2.345 2.345 0 0 0-3.314 0L45.845 11.682a2.345 2.345 0 0 0 0 3.314l3.314 3.315c.915.915 2.4.915 3.315 0L62.499 8.286ZM18.311 52.477c.915-.914.915-2.4 0-3.314l-3.314-3.314a2.345 2.345 0 0 0-3.314 0L1.658 55.874a2.345 2.345 0 0 0 0 3.314l3.314 3.314c.915.915 2.4.915 3.314 0l10.025-10.025ZM8.286 1.658a2.345 2.345 0 0 0-3.315 0L1.657 4.972a2.345 2.345 0 0 0 0 3.314l10.025 10.025c.915.915 2.4.915 3.314 0l3.315-3.314c.915-.915.915-2.4 0-3.315L8.286 1.659Zm44.191 44.191a2.345 2.345 0 0 0-3.314 0l-3.314 3.314a2.345 2.345 0 0 0 0 3.315l10.025 10.025c.914.914 2.4.914 3.314 0l3.314-3.315c.915-.915.915-2.4 0-3.314L52.477 45.849Z"/></g><defs><clipPath id="a"><path fill="#fff" d="M0 0h64v64H0z"/></clipPath></defs></svg>