<?xml version="1.0" encoding="UTF-8" standalone="no"?>
<svg
   width="64.000023"
   height="80.063988"
   viewBox="0 0 64.000023 80.063988"
   version="1.1"
   xml:space="preserve"
   style="clip-rule:evenodd;fill-rule:evenodd;stroke-linejoin:round;stroke-miterlimit:2"
   id="svg1"
   xmlns="http://www.w3.org/2000/svg"
   xmlns:svg="http://www.w3.org/2000/svg"><defs
   id="defs1" />
    <g
   transform="matrix(4.67367,0,0,4.67367,-895.15091,-1766.2316)"
   id="g1">
        <path
   d="m 191.53063,389.33535 0.7932,-1.90587 h 0.83731 c -0.0221,-0.33789 -0.0331,-0.66472 -0.0331,-0.98052 0,-0.42601 0.0183,-0.82258 0.0551,-1.18984 h -1.65252 l 0.7932,-1.90587 h 1.24491 c 1.16039,-3.62812 3.77501,-5.44218 7.84388,-5.44218 1.33665,0 2.60726,0.1689 3.81175,0.5067 v 2.4017 c -1.131,-0.49214 -2.33189,-0.73813 -3.60242,-0.73813 -2.43836,0 -4.00643,1.09066 -4.70414,3.27191 h 7.26001 l -0.7932,1.90587 h -6.94053 c -0.0367,0.23503 -0.0551,0.5509 -0.0551,0.94746 0,0.45539 0.0146,0.863 0.044,1.2229 h 6.04815 l -0.78216,1.90587 h -4.84734 c 0.52144,1.322 1.15679,2.24188 1.90588,2.75964 0.74917,0.51783 1.81774,0.77667 3.20586,0.77667 0.99149,0 2.07847,-0.23502 3.26094,-0.70507 v 2.25841 c -1.12372,0.41129 -2.46037,0.61693 -4.01003,0.61693 -4.07623,0 -6.65411,-1.90219 -7.73373,-5.70658 z"
   style="fill:#003f20;fill-rule:nonzero;stroke-width:0.0783408"
   id="path1" />
    </g>
</svg>
