<?xml version="1.0" encoding="UTF-8" standalone="no"?>
<svg
   width="64"
   height="64"
   viewBox="0 0 64 64"
   version="1.1"
   xml:space="preserve"
   style="clip-rule:evenodd;fill-rule:evenodd;stroke-linejoin:round;stroke-miterlimit:2"
   id="svg3"
   xmlns="http://www.w3.org/2000/svg"
   xmlns:svg="http://www.w3.org/2000/svg"><defs
   id="defs3" />
    <g
   transform="matrix(4,0,0,4,-480,-480)"
   id="g3">
        <g
   transform="scale(0.128)"
   id="g1">
            <path
   d="m 1035.8994,1042.0863 c 1.3375,1.3375 2.0081,3.2056 1.8275,5.0881 -0.18,1.8825 -1.1944,3.5887 -2.7613,4.6469 -9.9906,6.735 -22.0212,10.6787 -34.9656,10.6787 -12.94456,0 -24.97525,-3.9437 -34.95488,-10.6944 -1.56256,-1.055 -2.57349,-2.7562 -2.75343,-4.6331 -0.18013,-1.8769 0.48887,-3.7394 1.82225,-5.0725 -0.013,-0.014 -0.0127,-0.014 -0.0126,-0.014 2.79894,-2.7987 7.15519,-3.305 10.52138,-1.2225 7.36125,4.6094 16.06194,7.2619 25.37725,7.2619 9.31563,0 18.01633,-2.6525 25.38883,-7.2437 3.3575,-2.0769 7.7025,-1.5719 10.4943,1.22 0.016,-0.015 0.016,-0.015 0.016,-0.015 z m 6.1869,-77.98561 c 1.3375,-1.33732 3.2056,-2.00832 5.0881,-1.82775 1.8825,0.18044 3.5887,1.19437 4.6469,2.76162 6.735,9.99019 10.6787,22.02088 10.6787,34.96544 0,12.9444 -3.9437,24.975 -10.6944,34.955 -1.055,1.5625 -2.7562,2.5731 -4.6331,2.7531 -1.8769,0.1807 -3.7394,-0.4887 -5.0725,-1.8218 -0.014,0.013 -0.014,0.013 -0.014,0.013 -2.7987,-2.7988 -3.305,-7.1557 -1.2225,-10.5213 4.6094,-7.3612 7.2619,-16.0619 7.2619,-25.3775 0,-9.31531 -2.6525,-18.016 -7.2437,-25.38869 -2.0769,-3.35762 -1.5719,-7.70268 1.22,-10.49431 -0.015,-0.0158 -0.015,-0.0161 -0.015,-0.0163 z m -93.89224,0.94443 c 1.17413,-1.73812 3.13963,-2.78231 5.23719,-2.78231 1.67556,0 3.28419,0.66631 4.469,1.85113 0.0135,-0.013 0.0137,-0.0127 0.014,-0.0126 2.79869,2.79894 3.305,7.15519 1.22281,10.52138 -4.60969,7.36125 -7.26206,16.06194 -7.26206,25.37725 0,9.31563 2.65237,18.01633 7.24362,25.38883 2.07682,3.3575 1.57169,7.7025 -1.21999,10.4943 0.0154,0.016 0.0151,0.016 0.0149,0.016 -1.33725,1.3375 -3.20512,2.0081 -5.08763,1.8275 -1.8825,-0.1806 -3.58881,-1.1944 -4.64743,-2.7613 C 941.44375,1024.975 937.5,1012.9444 937.5,1000 c 0,-12.94456 3.94375,-24.97525 10.69406,-34.95488 z M 1000,960.625 c 21.7319,0 39.375,17.64337 39.375,39.375 0,21.7319 -17.6431,39.375 -39.375,39.375 -21.73163,0 -39.375,-17.6431 -39.375,-39.375 0,-21.73163 17.64337,-39.375 39.375,-39.375 z m -35.89931,-2.7115 c -1.18838,-1.18831 -1.85675,-2.80175 -1.85675,-4.48238 0,-2.10375 1.04731,-4.07506 2.79062,-5.25268 C 975.02475,941.44375 987.05544,937.5 1000,937.5 c 12.9444,0 24.975,3.94375 34.955,10.69406 1.5625,1.05557 2.5731,2.75675 2.7531,4.63363 0.18,1.87687 -0.4887,3.73925 -1.8218,5.07256 0.013,0.0135 0.013,0.0137 0.013,0.014 -2.7988,2.79869 -7.1557,3.305 -10.5213,1.22281 -7.3612,-4.60969 -16.0619,-7.26206 -25.3775,-7.26206 -9.31531,0 -18.016,2.65237 -25.38869,7.24362 -3.35762,2.07682 -7.70268,1.57169 -10.49431,-1.21999 -0.0158,0.0154 -0.0161,0.0151 -0.0163,0.0149 z"
   style="fill:#208e7a;stroke-width:0.0625"
   id="path1" />
        </g>
        <g
   transform="matrix(0.128,0,0,0.128,-0.512,-0.262)"
   id="g2">
            <path
   d="m 976.3125,1004.6746 c 0,0 -2.40025,0 -2.40025,3.3606 0,3.5144 2.17394,3.6137 2.99656,3.6137 h 3.70163 c 1.70394,6.1107 4.78869,10.7525 9.25412,13.925 4.4655,3.1732 9.66544,4.7594 15.59984,4.7594 2.5269,0 4.8325,-0.22 6.9187,-0.6606 2.0856,-0.4413 3.8482,-1.0288 5.2881,-1.7631 1.4394,-0.7344 2.5557,-1.5863 3.3488,-2.5557 0.7931,-0.9693 1.19,-2.0125 1.19,-3.1287 0,-1.175 -0.2794,-2.2106 -0.9694,-2.9969 -1.8031,-2.0537 -4.9281,-0.1787 -7.315,0.7494 -1.9025,0.7394 -4.2306,1.19 -7.0512,1.19 -3.349,0 -6.3161,-0.7938 -8.90146,-2.38 -2.58525,-1.5863 -4.55363,-3.9663 -5.905,-7.1388 l 19.86956,-0.099 c 0,0 3.1413,-0.625 3.1337,-3.5144 -0.01,-3.3606 -3.1337,-3.525 -2.9968,-3.525 z m 0,-5.25565 c 0,0 -2.40025,10e-4 -2.40025,-3.36094 0,-3.51406 2.17394,-3.6135 2.99656,-3.6135 h 3.70163 c 1.70394,-6.11069 4.78869,-10.75244 9.25412,-13.92531 4.4655,-3.17282 9.66544,-4.75925 15.59984,-4.75925 2.5269,0 4.8325,0.22037 6.9187,0.661 2.0856,0.44068 3.8482,1.02825 5.2881,1.76268 1.4394,0.7345 2.5557,1.58644 3.3488,2.55594 0.7931,0.96944 1.19,2.01238 1.19,3.12875 0,1.17513 -0.2794,2.21038 -0.9694,2.99656 -1.8031,2.05407 -4.9281,0.17907 -7.315,-0.74912 -1.9025,-0.7395 -4.2306,-1.18981 -7.0512,-1.18981 -3.349,0 -6.3161,0.79318 -8.90146,2.37962 -2.58525,1.58644 -4.55363,3.96606 -5.905,7.13894 l 19.86956,0.0994 c 0,0 3.1413,0.625 3.1337,3.51406 -0.01,3.36094 -3.1337,3.52537 -2.9968,3.52537 z"
   style="fill:#ffffff;fill-rule:nonzero;stroke-width:0.0625"
   id="path2" />
        </g>
    </g>
</svg>
