<svg width="64" height="47" fill="none" xmlns="http://www.w3.org/2000/svg"><g clip-path="url(#a)"><path d="M56.472 5.068h-27.62c-.355 0-.71 0-1.064.01a48.532 48.532 0 0 0-3.034.16l-.264.026c-5.67.505-10.158 2.07-13.479 4.68-3.962 3.17-5.94 7.69-5.94 13.556 0 5.867 1.978 10.384 5.94 13.561 4.116 3.245 10.067 4.869 17.84 4.869 7.774 0 13.761-1.624 17.843-4.869 3.962-3.177 5.949-7.689 5.949-13.56 0-3.712-.795-6.881-2.39-9.516-.011-.019-.019-.026-.027-.042a.198.198 0 0 0-.033-.052l.033-.016 7.456-4.225c2.187-1.243 1.308-4.582-1.21-4.582Zm-13.855 9.357-3.2 18.15c-.141.793-.897 1.437-1.692 1.437h-4.479c-.795 0-1.324-.644-1.183-1.436l1.027-5.823h-9.616l-1.027 5.823c-.141.792-.897 1.436-1.692 1.436h-4.478c-.796 0-1.325-.644-1.184-1.436l3.201-18.15c.138-.796.897-1.437 1.69-1.437h4.48c.793 0 1.322.641 1.184 1.436l-1.027 5.823h9.616l1.027-5.823c.138-.795.897-1.436 1.689-1.436h4.48c.793 0 1.323.641 1.184 1.436Z" fill="#2BCCB9"/><path d="M63.74 5.604C62.86 2.247 59.935 0 56.471 0h-27.62c-.397 0-.793 0-1.192.008a58.795 58.795 0 0 0-3.404.187l-.222.016c-6.624.6-12.067 2.526-16.193 5.77C2.635 10.15 0 16.04 0 23.502s2.635 13.35 7.867 17.54C12.88 44.999 19.944 47 28.851 47c8.907 0 16.016-2.002 21.013-5.981 5.205-4.176 7.851-10.066 7.851-17.518 0-2.671-.357-5.163-1.05-7.446l3.516-1.994c3.019-1.707 4.447-5.113 3.558-8.457ZM57.68 9.65l-7.455 4.225-.034.016a.194.194 0 0 1 .034.052c.008.015.016.023.026.042 1.595 2.635 2.39 5.804 2.39 9.515 0 5.872-1.986 10.384-5.948 13.561-4.082 3.245-10.023 4.869-17.843 4.869s-13.724-1.624-17.84-4.869c-3.962-3.177-5.94-7.689-5.94-13.56 0-5.873 1.978-10.387 5.94-13.556 3.32-2.612 7.81-4.176 13.48-4.681l.262-.026a48.54 48.54 0 0 1 3.035-.16c.354-.01.709-.01 1.063-.01h27.62c2.519 0 3.397 3.339 1.21 4.582Z" fill="#073744"/><path d="M41.434 12.99h-4.481c-.793 0-1.551.641-1.69 1.436l-1.026 5.823H24.62l1.028-5.823c.138-.795-.391-1.436-1.184-1.436h-4.48c-.793 0-1.552.641-1.69 1.436l-3.201 18.15c-.14.793.388 1.437 1.183 1.437h4.479c.795 0 1.55-.644 1.692-1.436l1.027-5.823h9.616l-1.027 5.823c-.141.792.388 1.436 1.183 1.436h4.478c.796 0 1.552-.644 1.692-1.436l3.201-18.15c.138-.796-.39-1.437-1.183-1.437Z" fill="#073744"/></g><defs><clipPath id="a"><path fill="#fff" d="M0 0h64v47H0z"/></clipPath></defs></svg>