<?xml version="1.0" encoding="UTF-8" standalone="no"?>
<svg
   width="64"
   height="64"
   viewBox="0 0 64 64"
   version="1.1"
   xml:space="preserve"
   style="clip-rule:evenodd;fill-rule:evenodd;stroke-linejoin:round;stroke-miterlimit:2"
   id="svg1"
   xmlns="http://www.w3.org/2000/svg"
   xmlns:svg="http://www.w3.org/2000/svg"><defs
   id="defs1" />
    <g
   transform="matrix(4,0,0,4,-577.01,-382.986)"
   id="g1">
        <path
   d="m 152.25151,111.7465 c -4.41091,0 -7.99901,-3.58797 -7.99901,-7.99901 0,-4.410909 3.5881,-8.00099 7.99901,-8.00099 4.41104,0 8.00099,3.588102 8.00099,8.00099 0,4.41302 -3.58995,7.99901 -8.00099,7.99901 z m 0,-12.87344 c -2.68666,0 -4.87245,2.18579 -4.87245,4.87245 0,2.68666 2.18579,4.87258 4.87245,4.87258 2.68666,0 4.87245,-2.18592 4.87245,-4.87258 0,-2.68666 -2.18579,-4.87245 -4.87245,-4.87245 z"
   style="fill:#282828;fill-rule:nonzero;stroke-width:0.131945"
   id="path1" />
    </g>
</svg>
