<?xml version="1.0" encoding="UTF-8" standalone="no"?>
<svg
   width="64"
   height="63.906517"
   viewBox="0 0 64 63.906517"
   version="1.1"
   xml:space="preserve"
   style="clip-rule:evenodd;fill-rule:evenodd;stroke-linejoin:round;stroke-miterlimit:2"
   id="svg1"
   xmlns="http://www.w3.org/2000/svg"
   xmlns:svg="http://www.w3.org/2000/svg"><defs
   id="defs1" />
    <g
   transform="matrix(74.7882,0,0,74.7882,32.000001,543.20539)"
   id="g1">
        <path
   d="M -0.087875,-6.8665 -0.2478125,-7.14425 C -0.26425,-7.165812 -0.2821875,-7.186187 -0.3015,-7.20525 -0.323875,-7.227625 -0.3493125,-7.238812 -0.3778125,-7.238812 h -0.0305 V -7.26325 h 0.3661875 v 0.024438 h -0.0305 c -0.0285,0 -0.04375,0.011188 -0.0458125,0.033562 -0.002062,0.020938 0.00175,0.042063 0.011,0.061 L 0.022,-6.919625 0.1806875,-7.1466875 c 0.010125,-0.018688 0.01525,-0.03825 0.01525,-0.058563 0,-0.022375 -0.01425,-0.033562 -0.04275,-0.033562 h -0.0305 V -7.26325 H 0.427875 v 0.024438 H 0.3973125 c -0.0284375,0 -0.05675,0.011188 -0.0848125,0.033562 -0.0231875,0.018313 -0.041125,0.036 -0.0536875,0.053063 l -0.007937,0.011 -0.191688,0.274687 H 0.427875 v 0.061 h -0.34 l 0.162375,0.281375 c 0.0118125,0.018312 0.02825,0.037437 0.0494375,0.057375 0.023625,0.022375 0.049625,0.033563 0.078125,0.033563 h 0.0305 V -6.40875 H 0.042125 v -0.024437 h 0.0305 c 0.0285,0 0.04375,-0.011188 0.0458125,-0.033563 C 0.1205,-6.488 0.1165,-6.509375 0.1068125,-6.528375 L -0.022,-6.75175 -0.176375,-6.5308125 c -0.012625,0.019 -0.0194375,0.04125 -0.0195625,0.064062 0,0.022375 0.01425,0.033563 0.04275,0.033563 h 0.0305 V -6.40875 H -0.427875 v -0.024437 h 0.0305625 c 0.0284375,0 0.0559375,-0.011188 0.082375,-0.033563 0.0248125,-0.02075 0.045375,-0.040875 0.061625,-0.060437 L -0.058625,-6.8055 h -0.36925 v -0.061 z"
   style="fill-rule:nonzero;stroke-width:0.0625"
   id="path1" />
    </g>
</svg>
