<svg width="64" height="64" fill="none" xmlns="http://www.w3.org/2000/svg"><path d="M63.864 18.964a20.434 20.434 0 0 0-1.125-4.744 21.385 21.385 0 0 0-1.203-2.673 21.315 21.315 0 0 0-3.181-4.437 19.787 19.787 0 0 0-1.738-1.674c-.277-.244-.56-.477-.849-.698a20.985 20.985 0 0 0-1.614-1.146 20.895 20.895 0 0 0-2.463-1.373c-.798-.385-1.62-.72-2.463-1.005a22.397 22.397 0 0 0-2.457-.686A23.21 23.21 0 0 0 41.845 0H6.152a6.265 6.265 0 0 0-3.69 1.192 5.76 5.76 0 0 0-1.225 1.174A5.742 5.742 0 0 0 0 5.924v42.67c0 .398.018.795.053 1.187a14.832 14.832 0 0 0 2.41 7.025.671.671 0 0 0 .059.084c.56.853 1.21 1.647 1.938 2.372.148.153.3.3.46.443l.006.005c.75.7 1.574 1.324 2.457 1.861a15.867 15.867 0 0 0 2.463 1.248c.797.32 1.621.577 2.462.767.808.184 1.63.306 2.457.363h.006V64h20.923v-.023a1.52 1.52 0 0 0 .882-.504 1.42 1.42 0 0 0 .343-.931 1.38 1.38 0 0 0-.336-.914 1.482 1.482 0 0 0-.577-.425c-.106-.057-.212-.114-.312-.17a24.106 24.106 0 0 1-2.463-1.533 4.326 4.326 0 0 1-.33-.238 20.834 20.834 0 0 1-.902-.692 22.183 22.183 0 0 1-1.867-1.68 8.54 8.54 0 0 1-.395-.403c-.07-.068-.136-.141-.2-.21a22.665 22.665 0 0 1-1.486-1.758 21.295 21.295 0 0 1-.978-1.385 21.942 21.942 0 0 1-1.815-3.353 20.07 20.07 0 0 1-.642-1.652 10.432 10.432 0 0 1-.236-.72 16.97 16.97 0 0 1-.33-1.186c-.1-.392-.188-.79-.265-1.186a22.338 22.338 0 0 1-.4-4.222v-7.632h-8.173a1.54 1.54 0 0 1-.966-.333 1.44 1.44 0 0 1-.515-1.43c.043-.191.125-.37.243-.529l.053-.074.743-1.021.448-.613.536-.738 1.473-2.031.247-.34 1.727-2.372.489-.676 1.231-1.696 1.232-1.691.489-.675.742-1.022.985-1.35.247-.34 1.48-2.032.977-1.35.743-1.022.483-.663c.14-.193.325-.35.54-.46a1.557 1.557 0 0 1 1.4 0c.216.11.401.267.54.46l.484.663.736 1.016.984 1.356.248.335 1.231 1.697.247.34.985 1.35.743 1.022.483.67 1.237 1.696 1.226 1.69.495.682 1.726 2.372.242.335 1.478 2.037.985 1.35.743 1.021.053.074a1.366 1.366 0 0 1 .247 1.106 1.45 1.45 0 0 1-.361.7c-.184.198-.42.344-.682.424a1.61 1.61 0 0 1-.448.062h-8.166V40.3c0 .814.174 1.62.513 2.366.187.418.427.812.713 1.175a6.259 6.259 0 0 0 2.462 1.89 6.323 6.323 0 0 0 2.463.493c.106 0 .213 0 .319-.006a22.371 22.371 0 0 0 2.144-.124c.828-.09 1.65-.222 2.463-.398a22.045 22.045 0 0 0 2.369-.658h.088v-.028c.842-.285 1.665-.62 2.463-1.005a21.884 21.884 0 0 0 2.41-1.339h.053v-.034a21.437 21.437 0 0 0 2.463-1.844 21.617 21.617 0 0 0 2.457-2.48c.106-.125.206-.25.306-.38a20.346 20.346 0 0 0 1.655-2.372c.177-.29.342-.578.501-.88.26-.482.507-.981.73-1.492.166-.391.325-.783.472-1.186a17.3 17.3 0 0 0 .395-1.18c.232-.78.42-1.572.56-2.372.138-.785.229-1.576.27-2.372H64V21.33c0-.79-.046-1.58-.136-2.365Z" fill="#3749E7"/></svg>