<?xml version="1.0" encoding="UTF-8" standalone="no"?>
<svg
   width="63.997402"
   height="66.062439"
   viewBox="0 0 63.997402 66.062439"
   version="1.1"
   xml:space="preserve"
   style="clip-rule:evenodd;fill-rule:evenodd;stroke-linejoin:round;stroke-miterlimit:2"
   id="svg1"
   xmlns="http://www.w3.org/2000/svg"
   xmlns:svg="http://www.w3.org/2000/svg"><defs
   id="defs1" />
    <g
   transform="matrix(4,0,0,4,-463.99992,-478.9676)"
   id="g1">
        <path
   d="m 131.96593,124.63574 c -0.023,-0.20581 -0.0574,-0.41013 -0.1031,-0.61206 -0.0473,-0.20736 -0.10677,-0.41181 -0.17825,-0.61213 -0.0747,-0.20897 -0.16181,-0.41336 -0.26071,-0.61207 -0.10568,-0.2109 -0.22471,-0.41484 -0.35646,-0.61058 -0.0929,-0.13916 -0.19271,-0.27355 -0.29903,-0.40271 -0.0579,-0.0715 -0.11787,-0.14135 -0.17974,-0.20942 -0.13594,-0.15271 -0.28103,-0.29697 -0.43452,-0.432 -0.0686,-0.0624 -0.13935,-0.12251 -0.21213,-0.18006 -0.12974,-0.10497 -0.26445,-0.20368 -0.40361,-0.29581 -0.17316,-0.11619 -0.35322,-0.22181 -0.53909,-0.31632 -0.0251,-0.0136 -0.0506,-0.0263 -0.0766,-0.0381 -0.19954,-0.0993 -0.40522,-0.18587 -0.61567,-0.25922 -0.2011,-0.071 -0.4062,-0.13013 -0.61426,-0.17716 -0.40419,-0.0906 -0.81716,-0.13626 -1.23142,-0.1362 h -8.92342 c -0.33258,-1.9e-4 -0.65632,0.10775 -0.92219,0.30755 -0.11658,0.0854 -0.21981,0.18749 -0.30645,0.3031 -0.20091,0.26381 -0.30962,0.58645 -0.3093,0.91806 v 11.01181 c 0,0.10252 0.004,0.20503 0.0133,0.30606 0.0146,0.20575 0.0461,0.41 0.0942,0.61058 0.10032,0.42652 0.27213,0.83304 0.50819,1.2022 0.004,0.008 0.009,0.015 0.0148,0.022 0.14013,0.22006 0.30252,0.42516 0.48452,0.61206 0.0368,0.0396 0.0752,0.0776 0.11496,0.1142 l 0.001,0.001 c 0.18775,0.18071 0.39355,0.34161 0.6142,0.48026 0.007,0.005 0.0145,0.0103 0.0222,0.0146 0.18871,0.11923 0.38729,0.22213 0.59355,0.30755 0.19955,0.0825 0.40548,0.14865 0.61574,0.19768 0.20187,0.0477 0.40729,0.079 0.6142,0.0937 h 0.001 v 0.0132 h 5.23064 v -0.006 c 0.0865,-0.0163 0.16452,-0.0624 0.22058,-0.13013 0.0559,-0.0676 0.0863,-0.15264 0.0858,-0.24032 8.4e-4,-0.086 -0.029,-0.16961 -0.084,-0.23574 -0.0383,-0.048 -0.0879,-0.0857 -0.14432,-0.10981 -0.0262,-0.0143 -0.0522,-0.029 -0.0781,-0.0439 -0.10445,-0.0584 -0.20716,-0.11987 -0.30787,-0.18452 -0.106,-0.0659 -0.20767,-0.13761 -0.3078,-0.21084 -0.0284,-0.0192 -0.056,-0.0397 -0.0825,-0.0616 -0.0768,-0.0575 -0.15187,-0.11703 -0.22535,-0.17864 -0.0676,-0.0561 -0.13394,-0.11362 -0.19884,-0.17278 -0.0926,-0.0835 -0.182,-0.17045 -0.26813,-0.26064 -0.034,-0.0336 -0.0669,-0.0682 -0.0986,-0.10394 -0.0177,-0.0176 -0.0339,-0.0366 -0.0501,-0.0542 -0.13135,-0.14497 -0.25529,-0.29645 -0.37135,-0.45394 -0.0862,-0.1158 -0.16781,-0.23503 -0.24458,-0.35729 -0.0533,-0.0835 -0.10439,-0.16851 -0.15316,-0.25477 -0.11213,-0.19742 -0.21245,-0.40129 -0.30045,-0.61058 -0.0596,-0.13968 -0.11323,-0.28187 -0.16059,-0.42613 -0.0218,-0.0613 -0.0415,-0.12336 -0.0589,-0.186 -0.0311,-0.10103 -0.0586,-0.2031 -0.0825,-0.30606 -0.025,-0.10136 -0.0472,-0.20342 -0.0663,-0.30607 -0.0376,-0.20245 -0.0647,-0.40677 -0.081,-0.61206 -0.006,-0.0746 -0.0103,-0.14923 -0.0132,-0.224 -0.004,-0.0844 -0.006,-0.16884 -0.006,-0.25336 v -1.96955 h -2.0431 c -0.0881,3.3e-4 -0.17348,-0.0301 -0.24148,-0.0861 -0.0678,-0.0557 -0.11381,-0.13368 -0.12987,-0.21994 -0.0202,-0.0996 0.002,-0.20322 0.0619,-0.28555 l 0.0133,-0.019 0.18561,-0.26361 0.11194,-0.15813 0.13406,-0.19039 0.36826,-0.52419 0.0618,-0.0879 0.43161,-0.61213 0.12226,-0.17419 0.30793,-0.43787 0.30781,-0.43633 0.12226,-0.17426 0.18561,-0.26361 0.24619,-0.34839 0.0618,-0.0879 0.36974,-0.52419 0.24452,-0.34852 0.18561,-0.26355 0.12077,-0.17135 c 0.0348,-0.0498 0.0812,-0.0904 0.13517,-0.11839 0.10954,-0.0569 0.24032,-0.0569 0.34987,0 0.0539,0.028 0.10032,0.0686 0.13516,0.11839 l 0.12077,0.17135 0.18413,0.26213 0.246,0.34994 0.0619,0.0864 0.30781,0.4378 0.0619,0.0879 0.24619,0.34846 0.18562,0.26361 0.12077,0.17277 0.30936,0.43781 0.30638,0.43639 0.12374,0.17574 0.43162,0.61206 0.0603,0.0864 0.36974,0.52574 0.2462,0.34845 0.18561,0.26355 0.0132,0.0191 c 0.0596,0.0823 0.0821,0.18593 0.0619,0.28548 -0.0132,0.0672 -0.0444,0.12968 -0.0903,0.18058 -0.0459,0.0511 -0.10484,0.0889 -0.17045,0.10936 -0.0363,0.0108 -0.0741,0.0162 -0.11194,0.0161 h -2.04161 v 1.83626 c -2e-4,0.21019 0.0435,0.41819 0.12819,0.61058 0.0469,0.10787 0.10671,0.20967 0.17819,0.30309 0.16065,0.212 0.37258,0.37987 0.61575,0.48768 0.19425,0.0844 0.40393,0.12781 0.61574,0.12742 0.0265,0 0.053,0 0.0796,-0.001 0.17916,-0.002 0.35806,-0.0126 0.53613,-0.0322 0.20696,-0.0228 0.41251,-0.0571 0.61574,-0.10251 0.20045,-0.0452 0.39819,-0.10194 0.59213,-0.16987 h 0.0221 v -0.007 c 0.21052,-0.0734 0.41613,-0.15993 0.61574,-0.25916 0.208,-0.10225 0.40923,-0.21767 0.60245,-0.34561 h 0.0133 v -0.009 c 0.21646,-0.14355 0.42226,-0.30258 0.61575,-0.47587 0.0467,-0.0408 0.0924,-0.0828 0.13696,-0.12593 0.16994,-0.16097 0.32929,-0.33265 0.47723,-0.514 0.0265,-0.0323 0.0515,-0.0645 0.0766,-0.0981 0.15213,-0.19407 0.29045,-0.39858 0.41394,-0.61207 0.044,-0.0744 0.0857,-0.15006 0.12516,-0.22697 0.0659,-0.12593 0.12684,-0.25445 0.18264,-0.38516 0.0417,-0.10103 0.081,-0.20309 0.11787,-0.306 0.0365,-0.10032 0.0694,-0.20193 0.0986,-0.30458 0.0581,-0.20129 0.10477,-0.40568 0.13993,-0.61213 0.0346,-0.20251 0.0572,-0.4069 0.0678,-0.61206 h 0.009 v -1.22432 c -1.9e-4,-0.204 -0.0115,-0.40781 -0.0341,-0.61052 z"
   style="fill:#3749e7;fill-rule:nonzero;stroke-width:0.0645161"
   id="path1" />
    </g>
</svg>
