<svg width="64" height="64" fill="none" xmlns="http://www.w3.org/2000/svg"><g clip-path="url(#a)"><mask id="b" style="mask-type:luminance" maskUnits="userSpaceOnUse" x="-1" y="0" width="65" height="64"><path d="M63.8 0H-.003v63.77h63.805V0Z" fill="#fff"/></mask><g mask="url(#b)" fill="#281149"><path d="M47.825 64.057c8.805 0 15.943-7.138 15.943-15.943 0-8.804-7.138-15.942-15.943-15.942S31.883 39.31 31.883 48.114c0 8.805 7.137 15.943 15.942 15.943ZM15.939 32.172c8.804 0 15.942-7.138 15.942-15.942C31.881 7.425 24.743.287 15.94.287 7.134.287-.004 7.425-.004 16.23c0 8.804 7.138 15.942 15.943 15.942Zm-3.188 31.712c7.045 0 12.756-5.711 12.756-12.756 0-7.044-5.711-12.755-12.756-12.755-7.044 0-12.755 5.71-12.755 12.755 0 7.045 5.71 12.756 12.755 12.756ZM51.044.287c-6.997 0-12.755 5.758-12.755 12.755 0 6.998 5.758 12.756 12.755 12.756 6.998 0 12.756-5.758 12.756-12.756C63.8 6.045 58.042.287 51.044.287Zm-.056 19.13c-3.499 0-6.378-2.879-6.378-6.378s2.879-6.377 6.378-6.377c3.498 0 6.377 2.878 6.377 6.377v.003c0 3.497-2.877 6.375-6.374 6.375h-.003Z"/></g></g><defs><clipPath id="a"><path fill="#fff" d="M0 0h64v64H0z"/></clipPath></defs></svg>