<?xml version="1.0" encoding="UTF-8" standalone="no"?>
<svg
   width="63.999989"
   height="86.65168"
   viewBox="0 0 63.999989 86.65168"
   version="1.1"
   xml:space="preserve"
   style="clip-rule:evenodd;fill-rule:evenodd;stroke-linejoin:round;stroke-miterlimit:2"
   id="svg1"
   xmlns="http://www.w3.org/2000/svg"
   xmlns:svg="http://www.w3.org/2000/svg"><defs
   id="defs1" />
    <g
   transform="matrix(4.91778,0,0,4.91778,-2276.7305,-1616.4741)"
   id="g1">
        <path
   d="m 462.959,341.7627 h 2.169 v -1.97403 h -2.169 v -2.09589 h 2.169 v -8.99282 h 4.72793 c 1.90093,0 3.39567,0.47929 4.48423,1.43787 1.08856,0.95859 1.63284,2.29898 1.63284,4.02119 0,0.69862 -0.1056,1.38507 -0.31682,2.05933 -0.21121,0.67426 -0.54834,1.28353 -1.01139,1.82781 -0.46304,0.54428 -1.06825,0.97889 -1.81562,1.30384 -0.74737,0.32494 -1.65721,0.48741 -2.72953,0.48741 h -2.60767 v 1.92529 h 2.43708 v 2.09589 h -2.43708 v 2.46145 H 465.128 v -2.46145 h -2.169 z m 7.14064,-4.21614 c 0.68238,0 1.25104,-0.10967 1.70596,-0.32901 0.45492,-0.21934 0.81642,-0.50772 1.0845,-0.86516 0.26808,-0.35744 0.45898,-0.72707 0.57271,-1.10887 0.11373,-0.38181 0.1706,-0.72707 0.1706,-1.03576 0,-0.47117 -0.10967,-0.95859 -0.32901,-1.46225 -0.21934,-0.50366 -0.57677,-0.92609 -1.07231,-1.26728 -0.49554,-0.34119 -1.16574,-0.51179 -2.0106,-0.51179 h -2.72952 v 6.58012 z"
   style="fill:#003f20;fill-rule:nonzero;stroke-width:0.0846208"
   id="path1" />
    </g>
</svg>
