<svg xmlns="http://www.w3.org/2000/svg" xml:space="preserve" style="fill-rule:evenodd;clip-rule:evenodd;stroke-linejoin:round;stroke-miterlimit:2" viewBox="0 0 64 64"><path d="M1573.98 1672.98a102.638 102.638 0 0 1 29.71 81.28 102.648 102.648 0 0 1-43.02 75.1C1400.18 1936.71 1207.42 2000 1000 2000c-206.805 0-399.032-62.91-558.567-170.62a102.78 102.78 0 0 1-43.2-75.2 102.793 102.793 0 0 1 29.72-81.48c-.815-.84-.798-.86-.782-.88 45.209-45.19 115.834-52.68 169.515-17.97C713.282 1728.03 851.778 1770 1000 1770c147.71 0 285.76-41.68 403.04-113.93 53.77-34.62 124.4-27.05 169.61 18.17 1.31-1.29 1.32-1.28 1.33-1.26Zm99-1246.96a102.608 102.608 0 0 1 81.28-29.707 102.632 102.632 0 0 1 75.1 43.017C1936.71 599.818 2000 792.576 2000 1000c0 206.81-62.91 399.03-170.62 558.57a102.78 102.78 0 0 1-75.2 43.2c-30.21 2.6-60.03-8.28-81.48-29.72-.84.81-.86.8-.88.78-45.19-45.21-52.68-115.83-17.97-169.52C1728.03 1286.72 1770 1148.22 1770 1000c0-147.708-41.68-285.758-113.93-403.04-34.62-53.768-27.05-124.397 18.17-169.615-1.29-1.303-1.28-1.314-1.26-1.325ZM170.624 441.433a102.763 102.763 0 0 1 156.671-13.48c.848-.815.865-.798.881-.782 45.191 45.209 52.68 115.834 17.976 169.515C271.971 713.282 230 851.778 230 1000c0 147.71 41.681 285.76 113.929 403.04 34.618 53.77 27.054 124.4-18.164 169.61 1.282 1.31 1.271 1.32 1.26 1.33a102.655 102.655 0 0 1-81.288 29.71 102.639 102.639 0 0 1-75.098-43.02C63.29 1400.18 0 1207.42 0 1000c0-206.805 62.913-399.032 170.624-558.567ZM1000 370c347.71 0 630 282.294 630 630 0 347.71-282.29 630-630 630-347.706 0-630-282.29-630-630 0-347.706 282.294-630 630-630Zm-573.98-42.975a102.625 102.625 0 0 1 13.31-156.386C599.818 63.29 792.576 0 1000 0c206.81 0 399.03 62.913 558.57 170.624a102.765 102.765 0 0 1 43.2 75.199c2.6 30.212-8.28 60.03-29.72 81.472.81.848.8.865.78.881-45.21 45.191-115.83 52.68-169.52 17.976C1286.72 271.971 1148.22 230 1000 230c-147.708 0-285.758 41.681-403.04 113.929-53.768 34.618-124.397 27.054-169.615-18.164-1.303 1.282-1.314 1.271-1.325 1.26Z" style="fill:#208e7a" transform="scale(.032)"/><path d="M933.212 926.083c-5.697 0-6.52-7.584-6.52-12.96 0-4.992 1.056-8.496 3.168-10.512s4.704-3.024 7.776-3.024h17.568v-59.616c0-3.456 1.008-6.192 3.024-8.208s4.656-3.504 7.92-4.464c3.072-.96 6.576-1.824 10.512-2.592 3.936-.768 7.968-1.44 12.096-2.016a180.481 180.481 0 0 1 12.384-1.296c4.13-.288 8.02-.432 11.66-.432 23.43 0 41.04 4.8 52.85 14.4 11.81 9.6 17.71 22.656 17.71 39.168 0 15.552-5.42 28.032-16.27 37.44-10.85 9.408-27.02 14.112-48.53 14.112h-85.348Zm58.568 39.456v19.279s-.662 9.072-3.788 12.673c-2.778 3.199-9.652 4.339-12.916 4.339-7.104 0-12.192-1.35-15.264-4.035-3.072-2.688-4.608-7.104-4.608-13.248v-19.008l-20.851.252c-4.093.049-6.221-3.276-6.797-5.292-.576-2.016-.864-4.176-.864-6.48 0-4.416.912-7.536 2.736-9.36 1.824-1.824 4.08-2.736 6.768-2.736 0 0 98.584-.331 120.354.408 6.2.211 8.2 1.883 9.1 4.92a23.343 23.343 0 0 1 1.01 6.768c0 3.84-.96 6.72-2.88 8.64-1.92 1.92-4.22 2.88-6.91 2.88h-65.09Zm22.75-67.392c9.99 0 17.76-1.968 23.33-5.904 5.57-3.936 8.35-9.744 8.35-17.424 0-8.064-2.97-14.112-8.93-18.144-5.95-4.032-14.11-6.048-24.48-6.048-3.45 0-7 .144-10.65.432-3.65.288-7.106.912-10.37 1.872v45.216h22.75Z" style="fill:#fff;fill-rule:nonzero" transform="matrix(.15668 0 0 .15668 -125.472 -110.801)"/></svg>