<?xml version="1.0" encoding="UTF-8" standalone="no"?>
<svg
   width="63.999744"
   height="63.999744"
   viewBox="0 0 63.999744 63.999744"
   version="1.1"
   xml:space="preserve"
   style="clip-rule:evenodd;fill-rule:evenodd;stroke-linejoin:round;stroke-miterlimit:2"
   id="svg3"
   xmlns="http://www.w3.org/2000/svg"
   xmlns:svg="http://www.w3.org/2000/svg"><defs
   id="defs3" />
    <g
   transform="matrix(1.23373,0,0,1.23373,-479.99808,-479.99808)"
   id="g3">
        <g
   transform="scale(0.415)"
   id="g1">
            <path
   d="m 1035.8994,1042.0863 c 1.3375,1.3375 2.0081,3.2056 1.8275,5.0881 -0.18,1.8825 -1.1944,3.5887 -2.7613,4.6469 -9.9906,6.735 -22.0212,10.6787 -34.9656,10.6787 -12.94456,0 -24.97525,-3.9437 -34.95487,-10.6944 -1.56257,-1.055 -2.5735,-2.7562 -2.75344,-4.6331 -0.18013,-1.8769 0.48887,-3.7394 1.82225,-5.0725 -0.013,-0.014 -0.0127,-0.014 -0.0126,-0.014 2.79893,-2.7987 7.15518,-3.305 10.52137,-1.2225 7.36125,4.6094 16.06194,7.2619 25.37725,7.2619 9.31564,0 18.01634,-2.6525 25.38884,-7.2437 3.3575,-2.0769 7.7025,-1.5719 10.4943,1.22 0.016,-0.015 0.016,-0.015 0.016,-0.015 z m 6.1869,-77.98561 c 1.3375,-1.33731 3.2056,-2.00831 5.0881,-1.82775 1.8825,0.18044 3.5887,1.19437 4.6469,2.76162 6.735,9.99019 10.6787,22.02088 10.6787,34.96544 0,12.9444 -3.9437,24.975 -10.6944,34.955 -1.055,1.5625 -2.7562,2.5731 -4.6331,2.7531 -1.8769,0.1807 -3.7394,-0.4887 -5.0725,-1.8218 -0.014,0.013 -0.014,0.013 -0.014,0.013 -2.7987,-2.7988 -3.305,-7.1557 -1.2225,-10.5213 4.6094,-7.3612 7.2619,-16.0619 7.2619,-25.3775 0,-9.31531 -2.6525,-18.016 -7.2437,-25.38869 -2.0769,-3.35762 -1.5719,-7.70268 1.22,-10.49431 -0.015,-0.0158 -0.015,-0.0161 -0.015,-0.0163 z m -93.89224,0.94444 c 1.17413,-1.73813 3.13963,-2.78232 5.23719,-2.78232 1.67556,0 3.28419,0.66632 4.469,1.85113 0.0135,-0.013 0.0137,-0.0127 0.014,-0.0126 2.79869,2.79893 3.305,7.15518 1.22281,10.52137 -4.60968,7.36125 -7.26206,16.06194 -7.26206,25.37725 0,9.31564 2.65238,18.01634 7.24363,25.38884 2.07681,3.3575 1.57168,7.7025 -1.22,10.4943 0.0154,0.016 0.0151,0.016 0.0149,0.016 -1.33725,1.3375 -3.20512,2.0081 -5.08762,1.8275 -1.8825,-0.1806 -3.58882,-1.1944 -4.64744,-2.7613 C 941.44375,1024.975 937.5,1012.9444 937.5,1000 c 0,-12.94456 3.94375,-24.97525 10.69406,-34.95487 z M 1000,960.625 c 21.7319,0 39.375,17.64338 39.375,39.375 0,21.7319 -17.6431,39.375 -39.375,39.375 -21.73162,0 -39.375,-17.6431 -39.375,-39.375 0,-21.73162 17.64338,-39.375 39.375,-39.375 z m -35.89931,-2.7115 c -1.18838,-1.18831 -1.85675,-2.80175 -1.85675,-4.48237 0,-2.10375 1.04731,-4.07507 2.79062,-5.25269 C 975.02475,941.44375 987.05544,937.5 1000,937.5 c 12.9444,0 24.975,3.94375 34.955,10.69406 1.5625,1.05557 2.5731,2.75675 2.7531,4.63363 0.18,1.87687 -0.4887,3.73925 -1.8218,5.07256 0.013,0.0135 0.013,0.0137 0.013,0.014 -2.7988,2.79869 -7.1557,3.305 -10.5213,1.22281 -7.3612,-4.60968 -16.0619,-7.26206 -25.3775,-7.26206 -9.31531,0 -18.016,2.65238 -25.38869,7.24363 -3.35762,2.07681 -7.70268,1.57168 -10.49431,-1.22 -0.0158,0.0154 -0.0161,0.0151 -0.0163,0.0149 z"
   style="fill:#208e7a;stroke-width:0.0625"
   id="path1" />
        </g>
        <g
   transform="matrix(2.03201,0,0,2.03201,-1627.21,-1436.95)"
   id="g2">
            <path
   d="m 1000.5317,912.30665 c -0.3561,0 -0.4075,-0.474 -0.4075,-0.81 0,-0.312 0.066,-0.531 0.198,-0.657 0.132,-0.126 0.294,-0.189 0.486,-0.189 h 1.098 v -3.726 c 0,-0.216 0.063,-0.387 0.189,-0.513 0.126,-0.126 0.291,-0.219 0.495,-0.279 0.192,-0.06 0.411,-0.114 0.657,-0.162 0.246,-0.048 0.498,-0.09 0.756,-0.126 0.257,-0.0359 0.5151,-0.0629 0.774,-0.081 0.2581,-0.018 0.5012,-0.027 0.7287,-0.027 1.4644,0 2.565,0.3 3.3032,0.9 0.7381,0.6 1.1068,1.416 1.1068,2.448 0,0.972 -0.3387,1.752 -1.0168,2.34 -0.6782,0.588 -1.6888,0.882 -3.0332,0.882 z m 3.6605,2.466 v 1.20494 c 0,0 -0.041,0.567 -0.2368,0.79206 -0.1736,0.19994 -0.6032,0.27119 -0.8072,0.27119 -0.444,0 -0.762,-0.0844 -0.954,-0.25219 -0.192,-0.168 -0.288,-0.444 -0.288,-0.828 v -1.188 l -1.3032,0.0158 c -0.2558,0.003 -0.3888,-0.20475 -0.4248,-0.33075 -0.036,-0.126 -0.054,-0.261 -0.054,-0.405 0,-0.276 0.057,-0.471 0.171,-0.585 0.114,-0.114 0.255,-0.171 0.423,-0.171 0,0 6.1615,-0.0207 7.5221,0.0255 0.3875,0.0132 0.5125,0.11769 0.5688,0.3075 0.042,0.13713 0.063,0.27969 0.063,0.423 0,0.24 -0.06,0.42 -0.18,0.54 -0.12,0.12 -0.2638,0.18 -0.4319,0.18 z m 1.4219,-4.212 c 0.6243,0 1.11,-0.123 1.4581,-0.369 0.3481,-0.246 0.5219,-0.609 0.5219,-1.089 0,-0.504 -0.1857,-0.882 -0.5582,-1.134 -0.3718,-0.252 -0.8818,-0.378 -1.53,-0.378 -0.2156,0 -0.4375,0.009 -0.6656,0.027 -0.2281,0.018 -0.4441,0.057 -0.6481,0.117 v 2.826 z"
   style="fill:#ffffff;fill-rule:nonzero;stroke-width:0.0625"
   id="path2" />
        </g>
    </g>
</svg>
