<?xml version="1.0" encoding="UTF-8" standalone="no"?>
<svg
   width="64.001396"
   height="63.99968"
   viewBox="0 0 64.001396 63.99968"
   version="1.1"
   xml:space="preserve"
   style="clip-rule:evenodd;fill-rule:evenodd;stroke-linejoin:round;stroke-miterlimit:2"
   id="svg2"
   xmlns="http://www.w3.org/2000/svg"
   xmlns:svg="http://www.w3.org/2000/svg"><defs
   id="defs2" />
    <g
   transform="matrix(3.99977,0,0,3.99977,-479.95472,-479.94272)"
   id="g2">
        <path
   d="m 135.99642,119.99258 -5.33363,5.33363 h -3.55526 c -0.98173,0 -1.77832,0.7959 -1.77832,1.77763 0,0.19977 0.0333,0.39229 0.0939,0.57144 0.0876,0.2579 0.23352,0.49224 0.42629,0.6847 0.32166,0.32234 0.76659,0.52218 1.25745,0.52218 l -1.77769,1.77763 c -1.0543,0 -2.03734,-0.30635 -2.86524,-0.83391 -1.48454,-0.94772 -2.46833,-2.60815 -2.46833,-4.49967 0,-2.94594 2.38775,-5.33363 5.33363,-5.33363 z"
   style="fill:#b2fe92;fill-rule:nonzero;stroke-width:0.0625067"
   id="path1" />
        <path
   d="m 135.99642,130.65985 c 0,2.94588 -2.38775,5.33357 -5.33363,5.33357 h -10.66721 l 5.33363,-5.33357 h 3.55595 c 0.98173,0 1.77763,-0.7959 1.77763,-1.77763 0,-0.0253 0,-0.05 -0.001,-0.0746 0,-0.0173 -0.001,-0.0333 -0.003,-0.0499 0,-0.004 0,-0.007 -0.001,-0.012 0,-0.0106 -0.001,-0.0219 -0.003,-0.0326 0,-0.009 -0.001,-0.0186 -0.003,-0.0279 -0.001,-0.009 -0.002,-0.02 -0.004,-0.0293 0,-0.006 -10e-4,-0.012 -0.002,-0.0173 -0.002,-0.016 -0.005,-0.0313 -0.007,-0.0466 0,-0.001 0,-0.003 -0.001,-0.004 -0.003,-0.02 -0.007,-0.0393 -0.0113,-0.0592 -3.8e-4,-0.006 -0.002,-0.0122 -0.004,-0.018 -0.004,-0.02 -0.009,-0.04 -0.0133,-0.0599 -0.001,-0.004 -0.002,-0.008 -0.003,-0.012 -0.005,-0.0188 -0.01,-0.0374 -0.0153,-0.0559 -0.007,-0.0235 -0.0141,-0.0468 -0.022,-0.0699 -0.014,-0.0413 -0.03,-0.0826 -0.0466,-0.12251 -0.0111,-0.0261 -0.0228,-0.0518 -0.0353,-0.0773 -0.0112,-0.0242 -0.0232,-0.0479 -0.0359,-0.0713 -0.016,-0.0299 -0.0333,-0.0593 -0.0499,-0.0879 -0.0111,-0.0178 -0.0224,-0.0353 -0.034,-0.0526 -0.0126,-0.0196 -0.0259,-0.0387 -0.0399,-0.0573 -0.006,-0.009 -0.0121,-0.0171 -0.0186,-0.0253 -0.01,-0.014 -0.0207,-0.0273 -0.032,-0.0413 -0.009,-0.0126 -0.02,-0.0253 -0.0306,-0.0379 -0.0149,-0.0175 -0.03,-0.0348 -0.0453,-0.0519 -0.0186,-0.0207 -0.0373,-0.0406 -0.0573,-0.0599 -0.33278,-0.33429 -0.78577,-0.52212 -1.25744,-0.5215 l 1.77762,-1.77769 c 0.0346,0 0.0693,0 0.10389,10e-4 0.026,0 0.0519,0.001 0.0786,0.002 0.07,0.002 0.13996,0.006 0.20978,0.0112 0.0226,10e-4 0.0459,0.003 0.0686,0.006 0.0872,0.007 0.17445,0.0166 0.2604,0.0279 0.0253,0.003 0.0499,0.007 0.0753,0.0106 0.0333,0.005 0.0673,0.01 0.10057,0.016 l 0.07,0.012 c 0.005,0.001 0.0113,0.001 0.0166,0.003 0.0306,0.005 0.0619,0.0114 0.0926,0.0174 0.0386,0.008 0.0779,0.0166 0.11657,0.0253 l 0.0239,0.006 c 0.0393,0.009 0.0793,0.0187 0.11789,0.0287 0.001,0 0.003,0 0.004,0.001 0.0413,0.0107 0.0819,0.022 0.12258,0.0334 0.0419,0.0119 0.0846,0.0246 0.12588,0.0379 0.0378,0.0113 0.0753,0.0233 0.11258,0.0359 0.005,0.002 0.01,0.004 0.0153,0.005 0.0366,0.0126 0.0739,0.0253 0.11052,0.0393 0.005,0.001 0.0107,0.004 0.016,0.006 0.0386,0.014 0.0773,0.028 0.11526,0.0439 0.0406,0.0153 0.0806,0.032 0.12051,0.0493 0.0824,0.0343 0.16371,0.0712 0.24378,0.11057 0.0364,0.0174 0.0726,0.0354 0.10857,0.054 0.0386,0.02 0.0766,0.0392 0.11389,0.0599 0.0379,0.02 0.0753,0.0412 0.11257,0.0626 0.0373,0.0213 0.0739,0.0433 0.1112,0.0653 0.034,0.0206 0.0686,0.0413 0.10189,0.0626 0.003,0.002 0.006,0.004 0.009,0.006 0.0714,0.0461 0.14182,0.0939 0.21108,0.1432 0.0697,0.0495 0.13808,0.10083 0.20515,0.15383 0.0306,0.024 0.0606,0.048 0.0906,0.0733 0.005,0.004 0.01,0.008 0.0153,0.0119 0.0964,0.0799 0.18996,0.16321 0.28041,0.24978 0.0307,0.03 0.0613,0.0592 0.0919,0.0899 0.0306,0.0306 0.0599,0.0606 0.0899,0.0919 0.0293,0.0306 0.0579,0.0619 0.0873,0.0933 0.0506,0.0559 0.10057,0.11257 0.14852,0.17052 0.0107,0.0119 0.0207,0.0252 0.0306,0.0379 0.0233,0.0279 0.046,0.0559 0.0686,0.0846 0.0523,0.0662 0.10295,0.1337 0.15183,0.20246 0.0489,0.0688 0.001,0.001 0.001,0.003 0.0253,0.0346 0.0493,0.0699 0.0733,0.10588 0.0239,0.0353 0.0472,0.0713 0.0713,0.10727 0.0226,0.0359 0.0453,0.0713 0.0673,0.10788 0.004,0.007 0.009,0.0146 0.0127,0.0213 0.0179,0.0299 0.0359,0.0599 0.0533,0.0906 0.0213,0.0373 0.0426,0.0746 0.0626,0.11257 0.0153,0.0279 0.0306,0.0566 0.0453,0.0853 0.0395,0.0764 0.0773,0.15371 0.11326,0.23178 0.01,0.0213 0.0199,0.0426 0.0292,0.0646 0.0147,0.0326 0.0287,0.0653 0.0426,0.0986 0.0147,0.0353 0.0293,0.0713 0.0433,0.10657 0.0133,0.0333 0.0266,0.0679 0.0386,0.10189 0.006,0.0154 0.012,0.0313 0.0173,0.0473 0.009,0.0246 0.018,0.0486 0.026,0.0733 0.0166,0.0486 0.0333,0.0979 0.0479,0.1472 0.012,0.0359 0.0226,0.0726 0.0326,0.10857 0.003,0.009 0.006,0.0193 0.009,0.0286 0.0107,0.0379 0.0207,0.076 0.0307,0.11389 0,0.001 10e-4,0.003 10e-4,0.004 0.009,0.0359 0.0186,0.0726 0.0266,0.10857 0.0127,0.0533 0.0246,0.10789 0.036,0.16183 0.007,0.032 0.0119,0.064 0.0179,0.0966 0.007,0.034 0.012,0.0679 0.0173,0.10188 0.004,0.0247 0.008,0.0493 0.012,0.0746 0.004,0.03 0.009,0.06 0.012,0.0899 0.003,0.0187 0.005,0.0366 0.007,0.0553 0.004,0.0312 0.007,0.0633 0.0107,0.0952 v 0.001 c 0.005,0.0433 0.009,0.0859 0.012,0.1292 0,0.004 0,0.009 10e-4,0.014 0.003,0.0406 0.005,0.0806 0.007,0.1212 0,0.005 0,0.0113 0.001,0.0173 0.002,0.0393 0.003,0.0786 0.004,0.11789 v 0.018 c 0.001,0.0426 0.001,0.0853 0.001,0.12789 z"
   style="fill:#078465;fill-rule:nonzero;stroke-width:0.0625067"
   id="path2" />
    </g>
</svg>
