<?xml version="1.0" encoding="UTF-8" standalone="no"?>
<svg
   width="64.000252"
   height="84.707512"
   viewBox="0 0 64.000252 84.707512"
   version="1.1"
   xml:space="preserve"
   style="clip-rule:evenodd;fill-rule:evenodd;stroke-linejoin:round;stroke-miterlimit:2"
   id="svg1"
   xmlns="http://www.w3.org/2000/svg"
   xmlns:svg="http://www.w3.org/2000/svg"><defs
   id="defs1" />
    <g
   transform="matrix(4.06892,0,0,4.06892,-472.20577,-469.64712)"
   id="g1">
        <path
   d="m 131.73982,123.79226 c 0.32725,-2.18747 -1.33843,-3.36344 -3.61599,-4.14788 l 0.73879,-2.96324 -1.8039,-0.4495 -0.71926,2.88514 c -0.47424,-0.11821 -0.96131,-0.22963 -1.44531,-0.34006 l 0.72439,-2.90418 -1.80282,-0.4495 -0.73936,2.96224 c -0.39251,-0.0895 -0.77783,-0.17785 -1.15189,-0.27083 l 0.002,-0.009 -2.48775,-0.62115 -0.47987,1.92649 c 0,0 1.33843,0.30673 1.31014,0.32567 0.73059,0.1824 0.86262,0.66582 0.84053,1.04907 l -0.84152,3.37577 c 0.0503,0.0128 0.11556,0.0313 0.18753,0.0601 -0.0601,-0.0149 -0.12433,-0.0314 -0.19068,-0.0472 l -1.1796,4.72892 c -0.0894,0.22185 -0.31599,0.55481 -0.82671,0.42841 0.018,0.0262 -1.31113,-0.32725 -1.31113,-0.32725 l -0.89554,2.06472 2.34746,0.58509 c 0.43677,0.10944 0.86468,0.22401 1.28598,0.33188 l -0.74647,2.99706 1.80183,0.44959 0.73936,-2.9653 c 0.4778,0.12954 0.957,0.25387 1.43753,0.37299 l -0.7368,2.95141 1.8039,0.4495 0.74656,-2.99144 c 3.07606,0.58203 5.38911,0.34726 6.36274,-2.43457 0.78453,-2.23992 -0.0391,-3.53194 -1.65748,-4.37445 1.17861,-0.27174 2.06645,-1.047 2.30328,-2.64824 z m -4.12158,5.7789 c -0.55745,2.23992 -4.32912,1.02905 -5.55199,0.72538 l 0.99059,-3.97061 c 1.22286,0.30516 5.14401,0.90935 4.5614,3.24523 z m 0.55796,-5.81132 c -0.50866,2.0375 -3.64784,1.00233 -4.66622,0.74854 l 0.8981,-3.60126 c 1.01838,0.25378 4.29786,0.72745 3.76812,2.85272 z"
   style="fill:#ef4800;fill-rule:nonzero;stroke-width:0.0827211"
   id="path1" />
    </g>
</svg>
