<?xml version="1.0" encoding="UTF-8" standalone="no"?>
<svg
   width="95.394142"
   height="95.347069"
   viewBox="0 0 95.394142 95.347069"
   version="1.1"
   xml:space="preserve"
   style="clip-rule:evenodd;fill-rule:evenodd;stroke-linejoin:round;stroke-miterlimit:2"
   id="svg2"
   xmlns="http://www.w3.org/2000/svg"
   xmlns:svg="http://www.w3.org/2000/svg"><defs
   id="defs2" />
    <g
   transform="matrix(3.95941,0,0,3.98627,-458.56302,-462.32747)"
   id="g2">
        <path
   d="m 127.90509,135.94421 c 4.47738,0 8.08206,-3.60467 8.08206,-7.9682 0,-4.36353 -3.60468,-7.96811 -8.08206,-7.96811 -4.47729,0 -8.08197,3.60458 -8.08197,7.96811 0,4.36353 3.60468,7.9682 8.08197,7.9682 z"
   style="fill:#ef4800;fill-rule:nonzero;stroke-width:0.0934775"
   id="path1" />
        <path
   d="m 134.67865,136.4202 c 0.43448,0.41158 0.40803,1.11481 -0.0903,1.44638 -4.68743,3.11878 -11.05231,2.66149 -15.21514,-1.46573 -4.74295,-4.705 -4.74295,-12.21788 0,-16.92288 4.14124,-4.14114 10.56641,-4.58759 15.26216,-1.43404 0.47617,0.31988 0.51039,0.99087 0.10479,1.39656 -0.34615,0.34605 -0.89402,0.37372 -1.30308,0.10497 -3.90446,-2.5639 -9.22407,-2.09931 -12.62198,1.29859 -4.02196,3.90811 -4.02196,10.28262 -0.0758,14.19082 3.39847,3.39846 8.71939,3.86267 12.62394,1.29718 0.41065,-0.26987 0.95871,-0.24977 1.31542,0.0881 z m 1.75065,-1.71101 c 0.41186,0.43476 1.11528,0.41055 1.44936,-0.0865 2.71861,-4.0443 2.70711,-9.38364 -0.0346,-13.417 -0.32128,-0.47253 -0.98899,-0.50413 -1.3931,-0.10002 -0.34811,0.34801 -0.37409,0.89962 -0.10095,1.30915 2.20644,3.30863 2.20307,7.61196 -0.01,10.97584 -0.2708,0.41158 -0.24958,0.96076 0.0893,1.3185 z"
   style="fill:#ef4800;fill-rule:nonzero;stroke-width:0.0934775"
   id="path2" />
    </g>
</svg>
