<svg xmlns="http://www.w3.org/2000/svg" width="64" height="64" fill="none"><g clip-path="url(#a)"><g clip-path="url(#b)"><path fill="#EF4800" d="M57.272 18.774c-2.338-3.848-5.576-6.794-9.773-8.838-4.197-2.104-9.053-3.186-14.51-3.186H10.085v20.921H3.25v7.816h6.835V57.25H32.99c5.457 0 10.313-1.022 14.51-3.126 4.197-2.104 7.435-5.05 9.773-8.838C59.611 41.5 60.75 37.05 60.75 32c0-5.05-1.14-9.439-3.478-13.226Zm-12.83 24.709c-2.999 2.765-7.016 4.208-12.052 4.208H21.777V35.487h12.591V27.67h-12.59v-11.3H32.39c5.036 0 9.053 1.383 12.051 4.208C47.44 23.403 48.938 27.19 48.938 32s-1.499 8.657-4.497 11.483Z"/></g></g><defs><clipPath id="a"><path fill="#fff" d="M0 0h64v64H0z"/></clipPath><clipPath id="b"><path fill="#fff" d="M0 0h57.5v50.5H0z" transform="translate(3.25 6.75)"/></clipPath></defs></svg>