<?xml version="1.0" encoding="UTF-8" standalone="no"?>
<svg
   width="63.999954"
   height="58.847416"
   viewBox="0 0 63.999954 58.847416"
   version="1.1"
   xml:space="preserve"
   style="clip-rule:evenodd;fill-rule:evenodd;stroke-linejoin:round;stroke-miterlimit:2"
   id="svg1"
   xmlns="http://www.w3.org/2000/svg"
   xmlns:svg="http://www.w3.org/2000/svg"><defs
   id="defs1" />
    <g
   transform="matrix(4.33898,0,0,4.33898,-514.7115,-554.1691)"
   id="g1">
        <path
   d="m 127.49731,135.00738 v -0.002 c -0.0841,0.006 -0.518,0.0312 -1.48362,0.0312 -0.77213,0 -1.31356,-0.0214 -1.50513,-0.0312 v 0.002 c -2.96912,-0.13075 -5.18375,-0.64594 -5.18375,-1.26457 0,-0.61662 2.21657,-1.13375 5.18375,-1.2645 v 2.01582 c 0.19357,0.0137 0.75063,0.0469 1.51882,0.0469 0.92262,0 1.38387,-0.0391 1.46993,-0.0469 v -2.01388 c 2.96325,0.13269 5.17207,0.64787 5.17207,1.26456 0,0.61663 -2.21075,1.13182 -5.17207,1.2645 m 0,-2.73787 v -1.80313 h 4.13413 v -2.74956 h -11.255 v 2.74956 h 4.13412 v 1.80313 c -3.36012,0.15419 -5.88556,0.81769 -5.88556,1.61387 0,0.79619 2.52738,1.45969 5.88556,1.61575 v 5.78019 h 2.98869 v -5.78019 c 3.35419,-0.15412 5.87575,-0.81762 5.87575,-1.61381 0,-0.79425 -2.52156,-1.45969 -5.87575,-1.61387"
   style="fill:#26a17b;fill-rule:nonzero;stroke-width:0.0625"
   id="path1" />
    </g>
</svg>
