<svg xmlns="http://www.w3.org/2000/svg" width="64" height="64" fill="none"><path fill="#26A17B" d="M37.49 35.654v-.007c-.337.023-2.073.125-5.935.125-3.089 0-5.254-.086-6.02-.125v.008c-11.877-.523-20.736-2.584-20.736-5.059 0-2.466 8.866-4.535 20.735-5.058v8.064a90.34 90.34 0 0 0 6.076.187c3.69 0 5.535-.156 5.88-.187v-8.056c11.852.53 20.687 2.592 20.687 5.058 0 2.467-8.843 4.528-20.688 5.058m0-10.951v-7.213h16.537V6.5H9.006v10.998h16.536v7.213C12.102 25.328 2 27.98 2 31.166s10.11 5.839 23.542 6.463V60.75h11.955V37.63C50.914 37.012 61 34.358 61 31.173c0-3.177-10.086-5.839-23.503-6.455"/></svg>