<?xml version="1.0" encoding="UTF-8" standalone="no"?>
<svg
   width="63.999924"
   height="125.11842"
   viewBox="0 0 63.999924 125.11842"
   version="1.1"
   xml:space="preserve"
   style="clip-rule:evenodd;fill-rule:evenodd;stroke-linejoin:round;stroke-miterlimit:2"
   id="svg1"
   xmlns="http://www.w3.org/2000/svg"
   xmlns:svg="http://www.w3.org/2000/svg"><defs
   id="defs1" />
    <g
   transform="matrix(3.12899,0,0,3.12899,-764.32483,-962.124)"
   id="g1">
        <path
   d="m 255.17249,347.47392 h -3.6839 v -4.6736 h -7.21653 v -29.80108 h 7.21653 v -5.51216 h 3.6839 v 5.59463 c 1.99773,0.0367 3.67473,0.34823 5.03099,0.93472 h -0.0137 c 1.05385,0.43987 1.90145,1.24165 2.54293,2.40547 0.28408,0.54067 0.49949,1.08367 0.64611,1.62886 0.14663,0.54531 0.21994,1.10664 0.21994,1.68396 0,2.52008 -0.98054,4.57732 -2.94162,6.17185 -0.23826,0.2016 -0.47885,0.3872 -0.72163,0.55667 -0.24291,0.1696 -0.52015,0.35055 -0.83172,0.543 0.8889,0.32073 1.70229,0.7446 2.43993,1.27146 0.73775,0.52699 1.38143,1.14781 1.93126,1.8626 0.83392,1.09967 1.25094,2.52008 1.25094,4.26122 0,1.51205 -0.38488,2.91413 -1.15465,4.20625 -0.75145,1.27378 -1.79613,2.27265 -3.13407,2.9966 -1.34709,0.74228 -3.10205,1.14097 -5.26473,1.19595 z m 0,-22.30963 c 0.21077,-0.055 0.43302,-0.13282 0.66676,-0.23362 0.23362,-0.1008 0.47873,-0.21994 0.73532,-0.35739 0.29324,-0.15579 0.57733,-0.38489 0.85224,-0.6873 0.27492,-0.30241 0.52235,-0.67361 0.74228,-1.11348 0.21994,-0.44903 0.38721,-0.87509 0.50182,-1.2783 0.11449,-0.40322 0.17179,-0.79274 0.17179,-1.16847 0,-0.92555 -0.38036,-1.70901 -1.14097,-2.35048 -0.43987,-0.43071 -1.28295,-0.73776 -2.52924,-0.92104 z m -3.6839,-8.19255 h -2.41928 v 8.50876 h 2.41928 z m 3.6839,21.88345 c 0.32073,-0.0183 0.63011,-0.0527 0.92788,-0.10312 0.29788,-0.0503 0.59333,-0.12133 0.88657,-0.21297 0.32074,-0.10081 0.61399,-0.2269 0.87974,-0.37804 0.26576,-0.15127 0.50866,-0.32758 0.72859,-0.52919 h -0.0138 c 0.82475,-0.79726 1.23713,-1.7778 1.23713,-2.94162 0,-0.8889 -0.25659,-1.73663 -0.76977,-2.54305 h 0.0138 c -0.46736,-0.71479 -1.2188,-1.31961 -2.25432,-1.81446 -0.559,-0.27492 -1.10431,-0.49021 -1.63582,-0.64599 z m -6.10318,-9.45717 v 9.47098 h 2.41928 v -9.47098 z"
   style="fill:#003f20;fill-rule:nonzero;stroke-width:0.122186"
   id="path1" />
    </g>
</svg>
