<svg xmlns="http://www.w3.org/2000/svg" xml:space="preserve" style="fill-rule:evenodd;clip-rule:evenodd;stroke-linejoin:round;stroke-miterlimit:2" viewBox="0 0 64 64"><path d="M1573.98 1672.98a102.638 102.638 0 0 1 29.71 81.28 102.648 102.648 0 0 1-43.02 75.1C1400.18 1936.71 1207.42 2000 1000 2000c-206.805 0-399.032-62.91-558.567-170.62a102.78 102.78 0 0 1-43.2-75.2 102.793 102.793 0 0 1 29.72-81.48c-.815-.84-.798-.86-.782-.88 45.209-45.19 115.834-52.68 169.515-17.97C713.282 1728.03 851.778 1770 1000 1770c147.71 0 285.76-41.68 403.04-113.93 53.77-34.62 124.4-27.05 169.61 18.17 1.31-1.29 1.32-1.28 1.33-1.26Zm99-1246.96a102.608 102.608 0 0 1 81.28-29.707 102.632 102.632 0 0 1 75.1 43.017C1936.71 599.818 2000 792.576 2000 1000c0 206.81-62.91 399.03-170.62 558.57a102.78 102.78 0 0 1-75.2 43.2c-30.21 2.6-60.03-8.28-81.48-29.72-.84.81-.86.8-.88.78-45.19-45.21-52.68-115.83-17.97-169.52C1728.03 1286.72 1770 1148.22 1770 1000c0-147.708-41.68-285.758-113.93-403.04-34.62-53.768-27.05-124.397 18.17-169.615-1.29-1.303-1.28-1.314-1.26-1.325ZM170.624 441.433a102.763 102.763 0 0 1 156.671-13.48c.848-.815.865-.798.881-.782 45.191 45.209 52.68 115.834 17.976 169.515C271.971 713.282 230 851.778 230 1000c0 147.71 41.681 285.76 113.929 403.04 34.618 53.77 27.054 124.4-18.164 169.61 1.282 1.31 1.271 1.32 1.26 1.33a102.655 102.655 0 0 1-81.288 29.71 102.639 102.639 0 0 1-75.098-43.02C63.29 1400.18 0 1207.42 0 1000c0-206.805 62.913-399.032 170.624-558.567ZM1000 370c347.71 0 630 282.294 630 630 0 347.71-282.29 630-630 630-347.706 0-630-282.29-630-630 0-347.706 282.294-630 630-630Zm-573.98-42.975a102.625 102.625 0 0 1 13.31-156.386C599.818 63.29 792.576 0 1000 0c206.81 0 399.03 62.913 558.57 170.624a102.765 102.765 0 0 1 43.2 75.199c2.6 30.212-8.28 60.03-29.72 81.472.81.848.8.865.78.881-45.21 45.191-115.83 52.68-169.52 17.976C1286.72 271.971 1148.22 230 1000 230c-147.708 0-285.758 41.681-403.04 113.929-53.768 34.618-124.397 27.054-169.615-18.164-1.303 1.282-1.314 1.271-1.325 1.26Z" style="fill:#208e7a" transform="scale(.032)"/><path d="M1067.85 899.888c2.17-2.606 4.07-5.503 5.69-8.692 3.54-6.972 5.3-14.311 5.3-22.013v-14.071c0-14.776-5.77-26.64-17.27-35.611-10.45-8.145-24.03-12.533-40.87-12.81v-21.938a7.281 7.281 0 0 0-7.28-7.281H994.3a7.281 7.281 0 0 0-7.281 7.281v21.924h-28.556c-13.996 0-25.341 11.346-25.341 25.341v150.535c0 7.274 2.397 13.113 6.911 17.627 4.515 4.52 10.354 6.91 17.628 6.91h29.358v21.93c0 4.02 3.26 7.28 7.281 7.28h19.12a7.28 7.28 0 0 0 7.28-7.28v-21.93h11.3c17.9 0 32-5.19 42.46-15.148 10.61-10.1 16.07-23.455 16.07-40.187v-12.744c0-10.57-3.16-19.806-9.4-27.734-3.7-4.707-8.12-8.508-13.28-11.389Zm-11.53 39.123v12.744c0 6.95-2.18 12.582-6.79 16.792-4.9 4.467-11.67 6.459-20.18 6.459h-62.018V921.6h67.328c6.7 0 12.16 1.552 16.26 5.037 3.65 3.107 5.4 7.256 5.4 12.374Zm-88.988-48.435v-51.813h51.658c7.99 0 14.54 1.602 19.55 5.161 4.01 2.844 6.09 6.543 6.09 11.188v14.071c0 6.541-1.72 11.846-5.52 15.783-3.71 3.842-8.69 5.61-14.81 5.61h-56.968Z" style="fill:#fff;fill-rule:nonzero" transform="translate(-93.731 -80.691) scale(.12426)"/></svg>