<?xml version="1.0" encoding="UTF-8" standalone="no"?>
<svg
   width="64"
   height="64"
   viewBox="0 0 64 64"
   version="1.1"
   xml:space="preserve"
   style="clip-rule:evenodd;fill-rule:evenodd;stroke-linejoin:round;stroke-miterlimit:2"
   id="svg4"
   xmlns="http://www.w3.org/2000/svg"
   xmlns:svg="http://www.w3.org/2000/svg"><defs
   id="defs4" />
    <g
   transform="matrix(4,0,0,4,32,32)"
   id="g4">
        <g
   transform="translate(-128,-128)"
   id="g3">
            <g
   transform="scale(0.128)"
   id="g1">
                <path
   d="m 1035.8994,1042.0863 c 1.3375,1.3375 2.0081,3.2056 1.8275,5.0881 -0.18,1.8825 -1.1944,3.5887 -2.7613,4.6469 -9.9906,6.735 -22.0212,10.6787 -34.9656,10.6787 -12.94456,0 -24.97525,-3.9437 -34.95488,-10.6944 -1.56256,-1.055 -2.57349,-2.7562 -2.75343,-4.6331 -0.18013,-1.8769 0.48887,-3.7394 1.82225,-5.0725 -0.013,-0.014 -0.0127,-0.014 -0.0126,-0.014 2.79894,-2.7987 7.15519,-3.305 10.52138,-1.2225 7.36125,4.6094 16.06194,7.2619 25.37725,7.2619 9.31563,0 18.01633,-2.6525 25.38883,-7.2437 3.3575,-2.0769 7.7025,-1.5719 10.4943,1.22 0.016,-0.015 0.016,-0.015 0.016,-0.015 z m 6.1869,-77.98561 c 1.3375,-1.33732 3.2056,-2.00832 5.0881,-1.82775 1.8825,0.18044 3.5887,1.19437 4.6469,2.76162 6.735,9.99019 10.6787,22.02088 10.6787,34.96544 0,12.9444 -3.9437,24.975 -10.6944,34.955 -1.055,1.5625 -2.7562,2.5731 -4.6331,2.7531 -1.8769,0.1807 -3.7394,-0.4887 -5.0725,-1.8218 -0.014,0.013 -0.014,0.013 -0.014,0.013 -2.7987,-2.7988 -3.305,-7.1557 -1.2225,-10.5213 4.6094,-7.3612 7.2619,-16.0619 7.2619,-25.3775 0,-9.31531 -2.6525,-18.016 -7.2437,-25.38869 -2.0769,-3.35762 -1.5719,-7.70268 1.22,-10.49431 -0.015,-0.0158 -0.015,-0.0161 -0.015,-0.0163 z m -93.89224,0.94443 c 1.17413,-1.73812 3.13963,-2.78231 5.23719,-2.78231 1.67556,0 3.28419,0.66631 4.469,1.85113 0.0135,-0.013 0.0137,-0.0127 0.014,-0.0126 2.79869,2.79894 3.305,7.15519 1.22281,10.52138 -4.60969,7.36125 -7.26206,16.06194 -7.26206,25.37725 0,9.31563 2.65237,18.01633 7.24362,25.38883 2.07682,3.3575 1.57169,7.7025 -1.21999,10.4943 0.0154,0.016 0.0151,0.016 0.0149,0.016 -1.33725,1.3375 -3.20512,2.0081 -5.08763,1.8275 -1.8825,-0.1806 -3.58881,-1.1944 -4.64743,-2.7613 C 941.44375,1024.975 937.5,1012.9444 937.5,1000 c 0,-12.94456 3.94375,-24.97525 10.69406,-34.95488 z M 1000,960.625 c 21.7319,0 39.375,17.64337 39.375,39.375 0,21.7319 -17.6431,39.375 -39.375,39.375 -21.73163,0 -39.375,-17.6431 -39.375,-39.375 0,-21.73163 17.64337,-39.375 39.375,-39.375 z m -35.89931,-2.7115 c -1.18838,-1.18831 -1.85675,-2.80175 -1.85675,-4.48238 0,-2.10375 1.04731,-4.07506 2.79062,-5.25268 C 975.02475,941.44375 987.05544,937.5 1000,937.5 c 12.9444,0 24.975,3.94375 34.955,10.69406 1.5625,1.05557 2.5731,2.75675 2.7531,4.63363 0.18,1.87687 -0.4887,3.73925 -1.8218,5.07256 0.013,0.0135 0.013,0.0137 0.013,0.014 -2.7988,2.79869 -7.1557,3.305 -10.5213,1.22281 -7.3612,-4.60969 -16.0619,-7.26206 -25.3775,-7.26206 -9.31531,0 -18.016,2.65237 -25.38869,7.24362 -3.35762,2.07682 -7.70268,1.57169 -10.49431,-1.21999 -0.0158,0.0154 -0.0161,0.0151 -0.0163,0.0149 z"
   style="fill:#208e7a;stroke-width:0.0625"
   id="path1" />
            </g>
            <g
   transform="matrix(0.49705,0,0,0.49705,-374.924,-322.765)"
   id="g2">
                <path
   d="m 1015.3197,906.44356 c 0.1357,-0.16288 0.2544,-0.34394 0.3557,-0.54325 0.2212,-0.43575 0.3312,-0.89444 0.3312,-1.37581 v -0.87944 c 0,-0.9235 -0.3606,-1.665 -1.0794,-2.22569 -0.6531,-0.50906 -1.5018,-0.78331 -2.5543,-0.80062 v -1.37113 c 0,-0.24962 -0.2057,-0.455 -0.455,-0.45506 h -1.195 c -0.2497,0 -0.4551,0.20544 -0.4551,0.45506 v 1.37025 h -1.7847 c -0.8748,0 -1.5839,0.70913 -1.5839,1.58381 v 9.40844 c 0,0.45463 0.1499,0.81956 0.432,1.10169 0.2822,0.2825 0.6471,0.43187 1.1017,0.43187 h 1.8349 v 1.37063 c 0,0.25125 0.2038,0.455 0.4551,0.455 h 1.195 c 0.2493,0 0.455,-0.20563 0.455,-0.455 v -1.37063 h 0.7062 c 1.1188,0 2,-0.32437 2.6538,-0.94675 0.6631,-0.63125 1.0043,-1.46593 1.0043,-2.51168 v -0.7965 c 0,-0.66063 -0.1975,-1.23788 -0.5875,-1.73338 -0.2312,-0.29419 -0.5075,-0.53175 -0.83,-0.71181 z m -0.7206,2.44519 v 0.7965 c 0,0.43437 -0.1362,0.78637 -0.4244,1.0495 -0.3062,0.27918 -0.7293,0.40368 -1.2612,0.40368 h -3.8761 v -3.33787 h 4.208 c 0.4187,0 0.76,0.097 1.0162,0.31481 0.2281,0.19419 0.3375,0.4535 0.3375,0.77338 z m -5.5617,-3.02719 v -3.23831 h 3.2286 c 0.4994,0 0.9087,0.10012 1.2219,0.32256 0.2506,0.17775 0.3806,0.40894 0.3806,0.69925 v 0.87944 c 0,0.40881 -0.1075,0.74037 -0.345,0.98643 -0.2319,0.24013 -0.5431,0.35063 -0.9256,0.35063 z"
   style="fill:#ffffff;fill-rule:nonzero;stroke-width:0.0625"
   id="path2" />
            </g>
        </g>
    </g>
</svg>
