<svg width="64" height="28" fill="none" xmlns="http://www.w3.org/2000/svg"><path d="M16.31 6.758h4.82c.225 0 .407.181.407.406v13.23a.406.406 0 0 1-.408.407h-4.82a.406.406 0 0 1-.407-.406V7.165c0-.226.182-.407.408-.407Zm17.726-.235c2.379 0 4.195.617 5.447 1.849 1.222 1.201 1.832 2.918 1.832 5.149v6.872a.406.406 0 0 1-.408.406h-4.82a.406.406 0 0 1-.407-.406v-6.779c0-1.607-1.173-2.41-3.52-2.41-2.348 0-3.522.804-3.522 2.41v6.78a.406.406 0 0 1-.407.405h-4.82a.406.406 0 0 1-.407-.406V7.163c0-.225.182-.407.407-.407h4.82c.225 0 .407.182.407.407v1.162c1.251-1.2 3.051-1.802 5.398-1.802Zm29.966.413c0-.22-.177-.4-.4-.406-.91-.024-2.984.156-4.345 1.078a6.967 6.967 0 0 0-.925.718v.003c-1.607-1.203-3.901-1.806-6.89-1.806-3.068 0-5.417.641-7.044 1.92-1.565 1.248-2.347 3.026-2.347 5.336 0 2.31.782 4.089 2.347 5.337 1.046.822 2.39 1.379 4.032 1.673v.001c.953.178 2.066.268 3.397.255.348-.01.73-.033 1.126-.067.303-.023.596-.054.882-.092.176-.021.353-.044.525-.07.4-.06.772.215.832.613a.73.73 0 0 1-.617.829c-1.064.157-2.222.252-3.101.252-1.045 0-2.02-.07-2.925-.211a13.915 13.915 0 0 1-1.759-.386.407.407 0 0 0-.498.261l-1.19 3.559a.407.407 0 0 0 .236.506c1.52.611 3.229.835 4.856.924 2.241.123 4.657.07 6.84-.485a6.962 6.962 0 0 0 1.553-.571c.321-.17.621-.374.886-.622.607-.569 1-1.342 1.187-2.152.386-1.659.163-3.697-1.45-4.62a3.623 3.623 0 0 0-.177-.092c1.197-1.208 1.796-2.823 1.796-4.842 0-.899-.121-1.717-.358-2.455.404-.078.863-.12 1.38-.12.634 0 1.181.058 1.643.176a.406.406 0 0 0 .505-.394l.003-4.05Zm-12.56 4.269c2.503 0 3.755.858 3.755 2.574 0 1.717-1.252 2.575-3.756 2.575-2.505 0-3.756-.859-3.756-2.575 0-1.716 1.251-2.574 3.756-2.574Zm-37.005-.408V7.164a.406.406 0 0 0-.408-.407H8.804V1.252a.408.408 0 0 0-.537-.386l-4.82 1.605a.407.407 0 0 0-.278.386V6.76H.408A.406.406 0 0 0 0 7.165v3.632c0 .225.182.406.408.406h2.761v4.46c0 1.95.65 3.347 1.948 4.19 1.236.794 3.248 1.193 6.034 1.193 1.047 0 2.03-.082 2.953-.243a.406.406 0 0 0 .333-.4v-3.845a.407.407 0 0 0-.484-.398c-.742.138-1.441.205-2.099.205-1.048 0-1.8-.094-2.253-.281-.533-.202-.797-.577-.797-1.123v-3.758h5.225a.406.406 0 0 0 .408-.406Zm6.693-5.499h-4.82a.406.406 0 0 1-.408-.407V1.25c0-.225.182-.406.408-.406h4.82c.225 0 .407.181.407.406v3.641a.408.408 0 0 1-.408.407Z" fill="#FF9920"/></svg>