<?xml version="1.0" encoding="UTF-8" standalone="no"?>
<svg
   width="63.999882"
   height="26.373684"
   viewBox="0 0 63.999882 26.373684"
   version="1.1"
   xml:space="preserve"
   style="clip-rule:evenodd;fill-rule:evenodd;stroke-linejoin:round;stroke-miterlimit:2"
   id="svg3"
   xmlns="http://www.w3.org/2000/svg"
   xmlns:svg="http://www.w3.org/2000/svg"><defs
   id="defs3" />
    <g
   transform="matrix(4,0,0,4,31.98388,12.689108)"
   id="g3">
        <g
   transform="translate(-128,-53)"
   id="g2">
            <clipPath
   id="_clip1">
                <rect
   x="0"
   y="0"
   width="256"
   height="106"
   id="rect1" />
            </clipPath>
            <g
   clip-path="url(#_clip1)"
   id="g1">
                <path
   d="m 124.08144,51.306225 h 1.20487 c 0.0564,0 0.10188,0.04537 0.10188,0.101562 v 3.307688 c 0,0.05625 -0.0455,0.101562 -0.10188,0.101562 h -1.20487 c -0.0564,0 -0.10188,-0.04537 -0.10188,-0.101562 v -3.307688 c 0,-0.05619 0.0455,-0.101562 0.10188,-0.101562 z m 4.43144,-0.05869 c 0.59462,0 1.04868,0.154 1.36175,0.462125 0.30531,0.30025 0.45775,0.729563 0.45775,1.287188 v 1.718125 c 0,0.05625 -0.0455,0.101562 -0.10188,0.101562 h -1.20481 c -0.0564,0 -0.10188,-0.04537 -0.10188,-0.101562 V 53.02016 c 0,-0.401875 -0.29343,-0.602625 -0.88025,-0.602625 -0.58681,0 -0.88018,0.201125 -0.88018,0.602625 v 1.694813 c 0,0.05625 -0.0456,0.101562 -0.10188,0.101562 h -1.20487 c -0.0564,0 -0.10188,-0.04537 -0.10188,-0.101562 V 51.40735 c 0,-0.05625 0.0455,-0.101625 0.10188,-0.101625 h 1.20487 c 0.0563,0 0.10188,0.04537 0.10188,0.101625 v 0.290437 c 0.31275,-0.3 0.76268,-0.45025 1.3495,-0.45025 z m 7.49112,0.10325 c -1.9e-4,-0.055 -0.0449,-0.1005 -0.0999,-0.101562 -0.22788,-0.0061 -0.74607,0.03894 -1.08632,0.2695 -0.0819,0.0555 -0.161,0.112062 -0.23131,0.179375 v 6.87e-4 c -0.40169,-0.300625 -0.97525,-0.45125 -1.72269,-0.45125 -0.76681,0 -1.354,0.160125 -1.76081,0.479688 -0.39119,0.312187 -0.58681,0.756687 -0.58681,1.33425 0,0.57725 0.19562,1.022125 0.58681,1.33425 0.2615,0.2055 0.59769,0.344625 1.00794,0.418125 v 3.12e-4 c 0.23837,0.04437 0.5165,0.06706 0.84931,0.06369 0.094,-0.0029 0.18788,-0.0084 0.2815,-0.01663 0.0737,-0.0056 0.14713,-0.01325 0.22038,-0.023 0.0439,-0.0053 0.0877,-0.01119 0.13143,-0.01763 0.0991,-0.01487 0.19282,0.05431 0.20782,0.153375 0.0145,0.09906 -0.0551,0.192562 -0.15413,0.207187 -0.26594,0.03931 -0.55562,0.063 -0.77531,0.063 -0.26113,0 -0.505,-0.01763 -0.73113,-0.05281 -0.1485,-0.02262 -0.29537,-0.05488 -0.43975,-0.0965 -0.052,-0.01494 -0.10737,0.014 -0.12468,0.06531 l -0.29744,0.88975 c -0.0169,0.05087 0.009,0.106875 0.0591,0.126625 0.38,0.152688 0.80719,0.2085 1.21406,0.230875 0.56032,0.03081 1.16413,0.01763 1.70982,-0.121187 0.13381,-0.03388 0.26725,-0.07856 0.3885,-0.142875 0.0801,-0.04231 0.15518,-0.09344 0.22143,-0.155438 0.15175,-0.142187 0.24994,-0.3355 0.29675,-0.537937 0.0964,-0.41475 0.0407,-0.92425 -0.36268,-1.155125 -0.0139,-0.0078 -0.0288,-0.01563 -0.0441,-0.023 0.29919,-0.302 0.44894,-0.705625 0.44894,-1.210375 0,-0.224813 -0.0302,-0.42925 -0.0893,-0.61375 0.10087,-0.01969 0.21562,-0.03019 0.34506,-0.03019 0.15819,0 0.29506,0.01456 0.41056,0.04406 0.008,0.0021 0.0164,0.0031 0.0247,0.0031 0.0557,0 0.10156,-0.04587 0.10156,-0.101562 0,0 0,-6.3e-5 0,-6.3e-5 z m -3.14019,1.067125 c 0.62582,0 0.93894,0.214625 0.93894,0.643563 0,0.429312 -0.31312,0.643625 -0.93894,0.643625 -0.62625,0 -0.939,-0.214688 -0.939,-0.643625 0,-0.428938 0.31275,-0.643563 0.939,-0.643563 z m -9.25068,-0.101875 V 51.40766 c 0,-0.05619 -0.0454,-0.101562 -0.10188,-0.101562 h -1.30637 v -1.37625 c 0,-0.06938 -0.0683,-0.118125 -0.13413,-0.09644 l -1.20487,0.401188 c -0.0414,0.01375 -0.0696,0.05275 -0.0696,0.09644 v 0.975375 h -0.69037 c -0.0564,0 -0.10188,0.04537 -0.10188,0.101563 v 0.908062 c 0,0.05619 0.0455,0.101563 0.10188,0.101563 h 0.69037 v 1.114812 c 0,0.4875 0.16231,0.836875 0.487,1.0475 0.309,0.19875 0.81194,0.29825 1.50844,0.29825 0.26187,0 0.50769,-0.02031 0.73825,-0.06063 0.048,-0.0087 0.0833,-0.051 0.0833,-0.09981 v -0.9615 c 0,-0.06363 -0.0581,-0.111375 -0.12094,-0.09956 -0.18537,0.03456 -0.36031,0.0515 -0.52462,0.0515 -0.26219,0 -0.45,-0.02375 -0.56338,-0.07044 -0.13312,-0.05044 -0.19937,-0.14425 -0.19937,-0.280625 v -0.939563 h 1.30637 c 0.0564,0 0.10188,-0.04537 0.10188,-0.101562 z m 1.67318,-1.374812 h -1.20487 c -0.0564,0 -0.10188,-0.04537 -0.10188,-0.101563 v -0.910375 c 0,-0.05625 0.0455,-0.101562 0.10188,-0.101562 h 1.20487 c 0.0564,0 0.10188,0.04537 0.10188,0.101562 v 0.910375 c 0,0.05588 -0.0458,0.101563 -0.10188,0.101563 z"
   style="fill:#ff9920;fill-rule:nonzero;stroke-width:0.0625"
   id="path1" />
            </g>
        </g>
    </g>
</svg>
