<svg width="48" height="64" fill="none" xmlns="http://www.w3.org/2000/svg"><g clip-path="url(#a)"><path fill-rule="evenodd" clip-rule="evenodd" d="M0 14.815c0-2.29 1.86-4.15 4.154-4.15h19.692L34.042.939a2.502 2.502 0 0 1 3.454 0l10.196 9.728V48.95a4.383 4.383 0 0 1-4.384 4.379H23.845L13.65 63.058a2.502 2.502 0 0 1-3.455 0L0 53.33V14.815ZM30.643 29.75a1.186 1.186 0 0 1-1.675 0l-3.279-3.276a2.61 2.61 0 0 0-3.687 0l-3.279 3.276a1.186 1.186 0 0 1-1.675 0l-3.281-3.278a2.61 2.61 0 0 0-3.688 0L6.39 30.156a2.605 2.605 0 0 0 0 3.684l3.688 3.684a2.61 2.61 0 0 0 3.688 0l3.281-3.278a1.18 1.18 0 0 1 1.669 0h.001l3.284 3.28a2.61 2.61 0 0 0 3.687 0l3.284-3.28c.462-.46 1.21-.46 1.671 0l3.28 3.278a2.61 2.61 0 0 0 3.689 0L41.3 33.84a2.605 2.605 0 0 0 0-3.684l-3.688-3.684a2.61 2.61 0 0 0-3.688 0l-3.282 3.278Z" fill="#F1A200"/></g><defs><clipPath id="a"><path fill="#fff" d="M0 0h47.692v64H0z"/></clipPath></defs></svg>