<?xml version="1.0" encoding="UTF-8" standalone="no"?>
<svg
   width="63.999977"
   height="85.208168"
   viewBox="0 0 63.999977 85.208168"
   version="1.1"
   xml:space="preserve"
   style="clip-rule:evenodd;fill-rule:evenodd;stroke-linejoin:round;stroke-miterlimit:2"
   id="svg1"
   xmlns="http://www.w3.org/2000/svg"
   xmlns:svg="http://www.w3.org/2000/svg"><defs
   id="defs1" />
    <g
   transform="matrix(4.02784,0,0,4.02784,-352.18948,-472.92117)"
   id="g1">
        <path
   d="m 87.438796,122.2657 c 0,-0.76296 0.619944,-1.38248 1.383817,-1.38248 h 6.560929 l 3.39699,-3.24099 c 0.320175,-0.30551 0.830673,-0.30551 1.150849,0 l 3.396819,3.24107 v 12.75537 c 0,0.80527 -0.65426,1.45895 -1.46036,1.45895 h -6.484465 l -3.396824,3.24115 c -0.320175,0.30551 -0.830756,0.30551 -1.150932,0 l -3.396823,-3.24124 z m 10.209378,4.97579 c -0.153091,0.15285 -0.404883,0.15285 -0.557975,0 l -2.49e-4,-2.5e-4 -1.092378,-1.09104 c -0.338916,-0.33875 -0.889561,-0.33875 -1.228477,0 l -1.092294,1.09129 c -0.153258,0.15276 -0.404801,0.15276 -0.558058,0 l -2.5e-4,-2.5e-4 -1.093044,-1.09196 c -0.339166,-0.33883 -0.889561,-0.33883 -1.228727,0 l -1.228727,1.22748 c -0.338916,0.33875 -0.338916,0.88865 0,1.22748 l 1.228727,1.22723 c 0.339166,0.33883 0.889561,0.33883 1.228727,0 l 1.093294,-1.09221 c 0.152591,-0.15226 0.403467,-0.15218 0.555892,2.5e-4 h 5e-4 l 1.09396,1.09296 c 0.338916,0.33875 0.889561,0.33875 1.228477,0 l 1.094043,-1.09296 c 0.152842,-0.15251 0.403968,-0.15251 0.556809,0 l 1.093127,1.09196 c 0.339083,0.33883 0.889561,0.33883 1.228644,0 l 1.228725,-1.22723 c 0.33892,-0.33883 0.33892,-0.88873 0,-1.22748 l -1.228725,-1.22748 c -0.339083,-0.33883 -0.889561,-0.33883 -1.228644,0 z"
   style="fill:#f1a200;stroke-width:0.0832922"
   id="path1" />
    </g>
</svg>
