<?xml version="1.0" encoding="UTF-8" standalone="no"?>
<svg
   width="128"
   height="128.00002"
   viewBox="0 0 128 128.00002"
   version="1.1"
   xml:space="preserve"
   style="clip-rule:evenodd;fill-rule:evenodd;stroke-linejoin:round;stroke-miterlimit:2"
   id="svg2"
   xmlns="http://www.w3.org/2000/svg"
   xmlns:svg="http://www.w3.org/2000/svg"><defs
   id="defs2" />
    <g
   transform="matrix(4,0,0,4,-448,-448.00004)"
   id="g1">
        <path
   d="m 123.29138,112.70626 c 1.488,-0.45937 3.072,-0.70625 4.70862,-0.70625 v 16 h -16 c 0,-1.64112 0.24688,-3.22062 0.70625,-4.71087 1.552,-5.04913 5.536,-9.03313 10.58513,-10.58288 z"
   style="fill:#a2c4b8;fill-rule:nonzero;stroke-width:0.125"
   id="path1" />
    </g>
    <g
   transform="matrix(4,0,0,4,-448,-448.00004)"
   id="g2">
        <path
   d="m 128,136.00001 c 0,2.21025 -0.896,4.21025 -2.34287,5.65488 -0.68351,0.68525 -1.48588,1.2405 -2.368,1.63887 -1.03375,0.46638 -2.15501,0.70725 -3.28913,0.70625 -2.21025,0 -4.21025,-0.896 -5.65712,-2.34512 C 112.896,140.21026 112,138.21026 112,136.00001 c 0,-1.17262 0.25375,-2.28575 0.70625,-3.28912 0.3975,-0.882 0.95213,-1.68438 1.63663,-2.368 1.44912,-1.44913 3.44912,-2.34288 5.65712,-2.34288 0,2.21025 0.896,4.21025 2.34287,5.65488 1.44913,1.44912 3.44913,2.34512 5.65713,2.34512 z m 16,-8 h -16 v -16 c 1.63887,0 3.21825,0.24688 4.70625,0.70625 h 0.002 c 5.04913,1.54975 9.03313,5.53375 10.58513,10.58288 0.46163,1.49025 0.70625,3.07212 0.70625,4.71087 z m 0,0 v 8 c 0,2.21025 -0.896,4.21025 -2.34288,5.65488 -1.44912,1.44912 -3.44912,2.34512 -5.65712,2.34512 -1.13413,0.001 -2.25538,-0.23987 -3.28913,-0.70625 -0.88137,-0.3995 -1.68362,-0.95462 -2.368,-1.63887 C 128.896,140.21026 128,138.21026 128,136.00001 v -8 z"
   style="fill:#099250;fill-rule:nonzero;stroke-width:0.125"
   id="path2" />
    </g>
</svg>
