<?xml version="1.0" encoding="UTF-8" standalone="no"?>
<svg
   width="64.000046"
   height="98.480278"
   viewBox="0 0 64.000046 98.480278"
   version="1.1"
   xml:space="preserve"
   style="clip-rule:evenodd;fill-rule:evenodd;stroke-linejoin:round;stroke-miterlimit:2"
   id="svg1"
   xmlns="http://www.w3.org/2000/svg"
   xmlns:svg="http://www.w3.org/2000/svg"><defs
   id="defs1" />
    <g
   transform="matrix(4.36557,0,0,4.36557,-1384.992,-1853.5438)"
   id="g1">
        <path
   d="m 323.93429,444.85508 c -1.9294,-0.0721 -3.4419,-0.5252 -4.5373,-1.3592 -1.0955,-0.83391 -1.81005,-2.08492 -2.14358,-3.75292 l 3.08347,-0.59502 c 0.18936,1.03683 0.57251,1.80323 1.14954,2.29909 0.57704,0.49586 1.39306,0.7889 2.44787,0.87901 v -5.76128 c -0.40565,-0.0992 -0.834,-0.21408 -1.28476,-0.34487 -0.45086,-0.1307 -0.87911,-0.27044 -1.28476,-0.41922 -0.40575,-0.14878 -0.73938,-0.29977 -1.00087,-0.45307 -0.80236,-0.45979 -1.4042,-1.02788 -1.80543,-1.70407 -0.40123,-0.67618 -0.60185,-1.51471 -0.60185,-2.51547 0,-1.46961 0.51164,-2.6079 1.535,-3.41488 1.02337,-0.80698 2.50423,-1.25101 4.44267,-1.33208 v -1.7988 h 1.54183 v 1.7988 c 1.118,0.0541 2.06914,0.22985 2.85352,0.52741 0.78448,0.29755 1.43133,0.77312 1.94075,1.42681 0.50943,0.65368 0.90392,1.535 1.1834,2.64396 l -3.16464,0.50038 c -0.15329,-0.80246 -0.45085,-1.4245 -0.89267,-1.86631 -0.44171,-0.44182 -1.08193,-0.71225 -1.92036,-0.8115 v 5.17982 c 0.40565,0.0812 0.84295,0.18485 1.31179,0.31102 0.46884,0.12628 0.98278,0.28852 1.54173,0.48692 1.2262,0.44172 2.13012,1.05713 2.71167,1.84603 0.58155,0.78889 0.87228,1.78745 0.87228,2.99556 0,1.58684 -0.5477,2.82881 -1.6432,3.726 -1.0954,0.89709 -2.69358,1.39074 -4.79427,1.48085 v 2.31265 h -1.54183 z m -2.84006,-13.78117 c 0,0.45086 0.0857,0.82054 0.25698,1.10906 0.18936,0.34256 0.47557,0.61309 0.85881,0.8114 0.38315,0.1984 0.95797,0.41479 1.72427,0.64916 v -4.89573 c -1.89334,0.12618 -2.84006,0.90161 -2.84006,2.32611 z m 7.69531,8.60144 c 0,-0.49587 -0.0924,-0.90162 -0.27727,-1.21716 -0.18484,-0.31563 -0.45306,-0.57703 -0.80467,-0.78447 -0.36064,-0.19831 -1.10453,-0.45528 -2.23148,-0.77082 v 5.42314 c 1.09088,-0.0721 1.91584,-0.33131 2.47489,-0.77765 0.55895,-0.44623 0.83853,-1.07058 0.83853,-1.87304 z"
   style="fill:#003f20;fill-rule:nonzero;stroke-width:0.096172"
   id="path1" />
    </g>
</svg>
