<?xml version="1.0" encoding="UTF-8" standalone="no"?>
<svg
   width="64.00029"
   height="84.707428"
   viewBox="0 0 64.00029 84.707428"
   version="1.1"
   xml:space="preserve"
   style="clip-rule:evenodd;fill-rule:evenodd;stroke-linejoin:round;stroke-miterlimit:2"
   id="svg1"
   xmlns="http://www.w3.org/2000/svg"
   xmlns:svg="http://www.w3.org/2000/svg"><defs
   id="defs1" />
    <g
   transform="matrix(4.06892,0,0,4.06892,-472.14112,-469.64716)"
   id="g1">
        <path
   d="m 131.72392,123.79227 c 0.32733,-2.18748 -1.33834,-3.36344 -3.61598,-4.14788 l 0.73878,-2.96324 -1.8039,-0.4495 -0.71926,2.88514 c -0.47424,-0.11821 -0.9613,-0.22963 -1.4453,-0.34006 l 0.72447,-2.90417 -1.8029,-0.44951 -0.73928,2.96224 c -0.3926,-0.0895 -0.77791,-0.17785 -1.15198,-0.27083 l 0.002,-0.009 -2.48775,-0.62115 -0.47978,1.92649 c 0,0 1.33843,0.30673 1.31005,0.32567 0.73068,0.1824 0.8627,0.66582 0.84061,1.04907 l -0.8416,3.37576 c 0.0504,0.0128 0.11564,0.0313 0.18753,0.0601 -0.0601,-0.0149 -0.12433,-0.0314 -0.19059,-0.0472 l -1.1796,4.72891 c -0.0895,0.22186 -0.316,0.55481 -0.82672,0.42841 0.0179,0.0262 -1.31112,-0.32724 -1.31112,-0.32724 l -0.89562,2.06472 2.34745,0.58508 c 0.43677,0.10944 0.86477,0.22401 1.28607,0.33188 l -0.74656,2.99706 1.80183,0.44959 0.73936,-2.9653 c 0.47779,0.12954 0.957,0.25387 1.43752,0.37299 l -0.73671,2.9514 1.8039,0.44951 0.74647,-2.99144 c 3.07606,0.58202 5.38911,0.34726 6.36274,-2.43456 0.78452,-2.23992 -0.0391,-3.53194 -1.65749,-4.37445 1.17861,-0.27174 2.06646,-1.047 2.30329,-2.64823 z m -4.12158,5.77888 c -0.55745,2.23992 -4.32912,1.02905 -5.5519,0.72539 l 0.99059,-3.97061 c 1.22278,0.30515 5.144,0.90935 4.56131,3.24522 z m 0.55796,-5.81131 c -0.50865,2.0375 -3.64783,1.00233 -4.66613,0.74854 l 0.8981,-3.60126 c 1.0183,0.25379 4.29777,0.72745 3.76803,2.85272 z"
   style="fill-rule:nonzero;stroke-width:0.082721"
   id="path1" />
    </g>
</svg>
