<svg xmlns="http://www.w3.org/2000/svg" width="64" height="64" fill="none"><g clip-path="url(#a)"><g clip-path="url(#b)"><path fill="#000" d="M59.03 17.857c-2.5-4.114-5.964-7.264-10.453-9.45C44.088 6.157 38.894 5 33.058 5H8.561v22.371H1.25v8.358h7.31V59h24.498c5.836 0 11.03-1.093 15.52-3.343 4.488-2.25 7.951-5.4 10.453-9.45C61.53 42.157 62.75 37.4 62.75 32s-1.218-10.093-3.72-14.143ZM45.308 44.28c-3.207 2.957-7.503 4.5-12.89 4.5H21.066V35.73h13.467v-8.36H21.066V15.286h11.35c5.388 0 9.684 1.478 12.89 4.5 3.207 3.021 4.81 7.071 4.81 12.214 0 5.143-1.603 9.257-4.81 12.279Z"/></g></g><defs><clipPath id="a"><path fill="#fff" d="M0 0h64v64H0z"/></clipPath><clipPath id="b"><path fill="#fff" d="M0 0h61.5v54H0z" transform="translate(1.25 5)"/></clipPath></defs></svg>