<?xml version="1.0" encoding="UTF-8" standalone="no"?>
<svg
   width="63.999638"
   height="63.998966"
   viewBox="0 0 63.999638 63.998966"
   version="1.1"
   xml:space="preserve"
   style="clip-rule:evenodd;fill-rule:evenodd;stroke-linejoin:round;stroke-miterlimit:2"
   id="svg5"
   xmlns="http://www.w3.org/2000/svg"
   xmlns:svg="http://www.w3.org/2000/svg"><defs
   id="defs5" />
    <g
   transform="matrix(4,0,0,4,32.002796,32.0032)"
   id="g5">
        <g
   transform="translate(-128,-128)"
   id="g4">
            <g
   id="g3">
                <clipPath
   id="_clip1">
                    <rect
   x="0"
   y="0"
   width="256"
   height="256"
   id="rect1" />
                </clipPath>
                <g
   clip-path="url(#_clip1)"
   id="g2">
                    <g
   id="g1">
                        <path
   d="m 135.8917,127.16131 c -0.0224,-0.32993 -0.17474,-0.6378 -0.42337,-0.85586 -0.24831,-0.21781 -0.57324,-0.32825 -0.90286,-0.30681 h -0.0486 c -0.31274,0.0358 -0.59961,0.19174 -0.79955,0.43487 -0.20012,0.24343 -0.29818,0.5553 -0.27337,0.86949 v 0.0489 c 0.0587,0.4328 0.0587,0.87149 0,1.30429 v 0.0489 c -0.0734,0.48812 -0.20594,0.96549 -0.39481,1.42149 -0.37525,0.88961 -0.9768,1.66567 -1.7448,2.25085 -0.76743,0.58468 -1.67486,0.95818 -2.63153,1.08299 -0.95637,0.12462 -1.92892,-0.004 -2.82016,-0.37237 -0.89193,-0.36881 -1.67192,-0.96493 -2.26198,-1.72873 -0.59043,-0.76437 -0.97093,-1.67005 -1.10343,-2.62679 -0.1325,-0.95693 -0.0126,-1.93204 0.34769,-2.82841 0.35987,-0.89593 0.94799,-1.68223 1.70573,-2.28054 0.75724,-0.59787 1.65811,-0.98687 2.61254,-1.12811 0.64862,-0.0883 1.30717,-0.0717 1.95054,0.0489 0.38325,0.0558 0.72912,0.26156 0.96099,0.57181 0.23212,0.31043 0.332,0.70055 0.27762,1.08436 -0.0801,0.33638 -0.28762,0.629 -0.57855,0.81587 -0.29069,0.18662 -0.64275,0.25325 -0.98149,0.18562 h -0.0491 c -0.10693,-0.0266 -0.21649,-0.0414 -0.32668,-0.0439 h -0.0438 c -0.17819,-0.0197 -0.35744,-0.0278 -0.53669,-0.0244 -0.53561,0.0308 -1.05211,0.21106 -1.49054,0.52031 -0.43894,0.30943 -0.78275,0.73549 -0.99243,1.22992 -0.20987,0.49481 -0.2775,1.03849 -0.19525,1.56961 0.0823,0.53094 0.31125,1.02843 0.66099,1.43624 0.3495,0.40756 0.80618,0.70931 1.31818,0.87093 0.51168,0.16137 1.05849,0.17619 1.57817,0.0427 0.51987,-0.1335 0.99205,-0.41 1.36293,-0.79793 0.3713,-0.38825 0.6268,-0.87262 0.73761,-1.3983 l 0.0681,-0.42006 c 0.0204,-0.23231 0.0289,-0.46556 0.0247,-0.69868 -6.9e-4,-0.9018 0.32431,-1.77423 0.9148,-2.45579 0.58981,-0.68093 1.40667,-1.12593 2.29867,-1.25217 h 0.0729 c 0.15356,-0.0204 0.3085,-0.0286 0.46337,-0.0246 h 0.11712 c -0.72118,-1.1478 -1.72123,-2.0946 -2.90678,-2.75185 -1.1848,-0.65668 -2.51697,-1.00242 -3.87159,-1.00486 -2.13629,0.0351 -4.17452,0.9128 -5.66788,2.44079 -1.4953,1.52967 -2.32916,3.58859 -2.31973,5.72763 0.0451,1.81398 0.70287,3.5604 1.8658,4.95333 1.16149,1.39161 2.76147,2.34879 4.53689,2.71409 1.77486,0.36488 3.62203,0.11644 5.23739,-0.70436 1.61661,-0.82175 2.90791,-2.16773 3.66202,-3.81697 l 0.0248,-0.0439 c 0.37324,-0.86705 0.60062,-1.78992 0.67293,-2.7311 -0.0146,-0.51293 -0.0637,-0.93299 -0.10763,-1.37755 z"
   style="fill:#ef4800;fill-rule:nonzero;stroke-width:0.0624994"
   id="path1" />
                    </g>
                </g>
            </g>
        </g>
    </g>
</svg>
