<?xml version="1.0" encoding="UTF-8" standalone="no"?>
<svg
   width="64.000114"
   height="63.999447"
   viewBox="0 0 64.000114 63.999447"
   version="1.1"
   xml:space="preserve"
   style="clip-rule:evenodd;fill-rule:evenodd;stroke-linejoin:round;stroke-miterlimit:2"
   id="svg1"
   xmlns="http://www.w3.org/2000/svg"
   xmlns:svg="http://www.w3.org/2000/svg"><defs
   id="defs1" />
    <g
   transform="matrix(3.99999,0,0,3.99999,-479.99604,-479.99528)"
   id="g1">
        <path
   d="m 135.89178,127.1613 c -0.0224,-0.32993 -0.17475,-0.63781 -0.42337,-0.85587 -0.24832,-0.21781 -0.57325,-0.32825 -0.90288,-0.30681 h -0.0486 c -0.31275,0.0357 -0.59963,0.19175 -0.79956,0.43487 -0.20013,0.24344 -0.29819,0.55531 -0.27338,0.8695 v 0.0489 c 0.0587,0.43281 0.0587,0.8715 0,1.30431 v 0.0489 c -0.0734,0.48812 -0.20594,0.9655 -0.39481,1.4215 -0.37525,0.88962 -0.97681,1.66569 -1.74481,2.25087 -0.76744,0.58469 -1.67488,0.95819 -2.63157,1.083 -0.95637,0.12463 -1.92893,-0.004 -2.82018,-0.37237 -0.89194,-0.36881 -1.67194,-0.96494 -2.262,-1.72875 -0.59044,-0.76438 -0.97094,-1.67006 -1.10344,-2.62681 -0.1325,-0.95694 -0.0126,-1.93207 0.34769,-2.82844 0.35987,-0.89594 0.948,-1.68225 1.70575,-2.28056 0.75725,-0.59788 1.65812,-0.98688 2.61256,-1.12813 0.64862,-0.0883 1.30719,-0.0718 1.95056,0.0489 0.38325,0.0558 0.72913,0.26156 0.961,0.57181 0.23213,0.31044 0.332,0.70056 0.27763,1.08438 -0.0801,0.33637 -0.28763,0.629 -0.57857,0.81587 -0.29068,0.18663 -0.64275,0.25325 -0.9815,0.18563 h -0.0491 c -0.10694,-0.0266 -0.2165,-0.0414 -0.32669,-0.0439 h -0.0438 c -0.17819,-0.0197 -0.35744,-0.0278 -0.53669,-0.0244 -0.53562,0.0308 -1.05212,0.21107 -1.49056,0.52032 -0.43894,0.30943 -0.78275,0.7355 -0.99244,1.22993 -0.20987,0.49482 -0.2775,1.0385 -0.19525,1.56963 0.0823,0.53094 0.31125,1.02844 0.661,1.43625 0.3495,0.40756 0.80619,0.70931 1.31819,0.87094 0.51169,0.16137 1.0585,0.17618 1.57819,0.0427 0.51987,-0.1335 0.99206,-0.41 1.36294,-0.79793 0.37131,-0.38825 0.62681,-0.87263 0.73762,-1.39832 l 0.0681,-0.42006 c 0.0204,-0.23231 0.0289,-0.46556 0.0248,-0.69869 -6.9e-4,-0.90181 0.32431,-1.77425 0.91481,-2.45581 0.58981,-0.68094 1.40669,-1.12594 2.29869,-1.25219 h 0.0729 c 0.15356,-0.0204 0.3085,-0.0286 0.46338,-0.0246 h 0.11712 c -0.72119,-1.14781 -1.72125,-2.09462 -2.90681,-2.75187 -1.18481,-0.65669 -2.517,-1.00244 -3.87163,-1.00488 -2.13631,0.0351 -4.17456,0.91281 -5.66793,2.44081 -1.49532,1.52969 -2.32919,3.58863 -2.31975,5.72769 0.0451,1.814 0.70287,3.56044 1.86581,4.95338 1.1615,1.39162 2.7615,2.34881 4.53694,2.71412 1.77487,0.36488 3.62206,0.11644 5.23743,-0.70437 1.61663,-0.82175 2.90794,-2.16775 3.66207,-3.817 l 0.0248,-0.0439 c 0.37325,-0.86706 0.60062,-1.78994 0.67294,-2.73112 -0.0146,-0.51294 -0.0637,-0.933 -0.10763,-1.37757 z"
   style="fill:#46b549;fill-rule:nonzero;stroke-width:0.0625"
   id="path1" />
    </g>
</svg>
