<svg width="64" height="64" fill="none" xmlns="http://www.w3.org/2000/svg"><path d="M22.583 1.413A31.898 31.898 0 0 1 32 0v32H0c0-3.282.494-6.441 1.413-9.422C4.517 12.48 12.485 4.512 22.583 1.413Z" fill="#fff"/><path d="M22.583 1.413A31.898 31.898 0 0 1 32 0v32H0c0-3.282.494-6.441 1.413-9.422C4.517 12.48 12.485 4.512 22.583 1.413Z" fill="#A2C4B8"/><path d="M32 48c0 4.42-1.792 8.42-4.686 11.31A15.972 15.972 0 0 1 16 64c-4.42 0-8.42-1.792-11.314-4.69A15.932 15.932 0 0 1 0 48c0-2.345.507-4.571 1.413-6.578a15.96 15.96 0 0 1 3.273-4.736A15.948 15.948 0 0 1 16 32c0 4.42 1.792 8.42 4.686 11.31A15.952 15.952 0 0 0 32 48Zm32-16H32V0c3.278 0 6.437.494 9.413 1.413h.004c10.098 3.099 18.066 11.067 21.17 21.165A31.777 31.777 0 0 1 64 32Z" fill="#099250"/><path d="M64 32v16c0 4.42-1.792 8.42-4.686 11.31A15.952 15.952 0 0 1 48 64a15.96 15.96 0 0 1-11.314-4.69A15.932 15.932 0 0 1 32 48V32h32Z" fill="#099250"/></svg>