<svg width="64" height="64" fill="none" xmlns="http://www.w3.org/2000/svg"><g clip-path="url(#a)"><path d="M58.002 30.563c.1-.15.196-.302.292-.457 1.775-2.873 2.648-6.208 2.648-9.578v-.177c0-3.627-1.016-7.202-3.048-10.215A18.675 18.675 0 0 0 44.289 2H26.303c-.714 0-1.36.287-1.826.752a2.545 2.545 0 0 0-.757 1.814v8.166c0 .71.29 1.351.758 1.813a2.576 2.576 0 0 0 1.825.752h16.208c2.782 0 5.035 2.244 5.035 5.001v.265c0 2.763-2.253 5.001-5.035 5.001H15.974a2.58 2.58 0 0 1-1.826-.752A2.55 2.55 0 0 1 13.39 23V4.566c0-.71-.29-1.352-.757-1.814A2.58 2.58 0 0 0 10.808 2H2.583A2.575 2.575 0 0 0 0 4.566v55.397a2.576 2.576 0 0 0 2.583 2.566h8.222a2.58 2.58 0 0 0 1.826-.752 2.55 2.55 0 0 0 .757-1.814V41.53a2.575 2.575 0 0 1 2.583-2.566h26.41c.437 0 .864-.02 1.292-.047h1.67c2.777 0 5.035 2.238 5.035 5v.26c0 2.764-2.258 5.002-5.035 5.002H26.391c-.027-.005-.06-.005-.087-.005-.028 0-.06 0-.089.005-.679.02-1.292.302-1.738.75a2.55 2.55 0 0 0-.757 1.815v8.219a2.576 2.576 0 0 0 2.583 2.566h20.222a18.65 18.65 0 0 0 13.12-6.748c2.716-3.292 4.122-7.462 4.122-11.718v-.035c0-4.15-1.333-8.216-3.927-11.469a18.777 18.777 0 0 0-1.843-1.996h.005Z" fill="#000030"/></g><defs><clipPath id="a"><path fill="#fff" d="M0 0h64v64H0z"/></clipPath></defs></svg>