<svg xmlns="http://www.w3.org/2000/svg" width="64" height="64" fill="none"><path fill="#F7931A" d="M54.623 25.293c.99-6.61-4.045-10.164-10.928-12.535l2.233-8.956-5.452-1.358-2.174 8.72a227.998 227.998 0 0 0-4.368-1.029l2.19-8.776L30.673 0 28.44 8.952c-1.186-.27-2.35-.537-3.481-.818l.006-.028-7.518-1.877-1.45 5.822s4.044.927 3.959.985c2.208.55 2.607 2.012 2.54 3.17l-2.543 10.202c.152.039.35.095.567.182-.182-.045-.376-.095-.576-.143l-3.566 14.292c-.27.67-.954 1.676-2.498 1.294.054.08-3.963-.989-3.963-.989l-2.706 6.24 7.095 1.769c1.32.33 2.613.677 3.886 1.003l-2.256 9.058 5.445 1.358 2.235-8.962c1.487.404 2.931.777 4.345 1.128l-2.227 8.92 5.452 1.358 2.256-9.04c9.296 1.758 16.287 1.049 19.23-7.359 2.37-6.769-.119-10.674-5.01-13.22 3.562-.821 6.245-3.164 6.961-8.004ZM42.167 42.76c-1.685 6.769-13.084 3.11-16.78 2.192l2.994-12c3.696.922 15.547 2.748 13.786 9.808Zm1.686-17.563c-1.537 6.157-11.025 3.029-14.102 2.262l2.714-10.884c3.078.767 12.989 2.198 11.388 8.622Z"/></svg>