<svg width="63" height="64" fill="none" xmlns="http://www.w3.org/2000/svg"><g clip-path="url(#a)" fill="#1066DF"><path d="M56.15 52.93a2.498 2.498 0 0 0-.77-.615 2.569 2.569 0 0 0-.946-.276 2.517 2.517 0 0 0-1.842.584c-.066.055-.133.109-.196.163a26.888 26.888 0 0 1-2.429 1.785l-.103.069c-.175.113-.349.224-.526.33-.042.026-.08.05-.12.073-.04.023-.078.047-.115.07l-.069.043-.122.073c-.04.023-.078.047-.118.068-.466.271-.942.53-1.425.773l-.12.061-.167.085-.22.106-.016.01-.219.103-.167.078-.109.05-.172.077-.23.101c-.156.069-.314.134-.471.198a26.621 26.621 0 0 1-.704.278h-.006c-.153.059-.308.115-.464.17l-.03.011-.222.078a6.722 6.722 0 0 0-.23.08l-.234.076a2.181 2.181 0 0 1-.066.02l-.15.048-.125.04c-.127.04-.252.078-.38.115l-.084.026-.156.045-.179.05-.144.04-.094.026-.12.03c-.134.035-.27.07-.408.104-.032.01-.068.016-.1.026l-.147.035-.12.028-.03.007-.187.043c-.113.026-.226.05-.341.073l-.323.066-.264.05-.162.027c-.055.01-.097.02-.146.026l-.21.036-.205.033-.026.004-.25.038c-.082.012-.162.024-.24.033l-.052.007-.197.026h-.015l-.165.021-.146.017c-.143.016-.29.033-.435.047h-.036c-.047.01-.096.014-.143.019l-.125.011c-.05.005-.1.01-.149.012l-.148.012c-.196.014-.394.028-.589.04l-.261.014-.149.005c-.038 0-.075.002-.113.005l-.144.004h-.146c-.05.003-.099.007-.148.007h-.052c-.082 0-.165.003-.245.003h-.535a27.021 27.021 0 0 1-8.197-1.376l-.285-.097a9.404 9.404 0 0 1-.14-.049l-.138-.05a8.561 8.561 0 0 1-.226-.082l-.095-.035c-.084-.03-.17-.064-.252-.095l-.042-.016-.097-.038-.033-.014-.026-.01-.056-.02-.052-.022h-.012l-.023-.011-.106-.043-.137-.056a9.252 9.252 0 0 1-.226-.094h-.012l-.15-.067-.177-.077a27.11 27.11 0 0 1-11.691-9.863A27.104 27.104 0 0 1 8.31 32.01v-.401c0-.101.005-.203.007-.304v-.023a26.962 26.962 0 0 1 1.732-8.799l.113-.294c.033-.087.068-.174.104-.262l.073-.176a14.788 14.788 0 0 1 .262-.608c.001-.007.006-.014.008-.021a211.335 211.335 0 0 1 .11-.247c.001 0 .001-.005.004-.008l.091-.2c.01-.019.017-.04.026-.059l.014-.033c.015-.033.031-.066.048-.096a1.44 1.44 0 0 1 .028-.062l.028-.06.007-.015.019-.038c.035-.075.073-.15.11-.226.008-.012.013-.026.02-.037.05-.1.098-.198.148-.295.035-.068.07-.139.106-.207l.024-.043s0-.004.002-.007c0 0 0-.004.002-.004.021-.043.043-.08.064-.12l.023-.043.047-.087.045-.085.01-.016.019-.033c.026-.052.054-.102.08-.151a26.692 26.692 0 0 1 2.947-4.285c.018-.024.04-.047.056-.07a2.527 2.527 0 0 0-3.924-3.183 31.906 31.906 0 0 0-2.587 3.536l-.019.028c-.068.108-.134.217-.202.323-.036.056-.069.113-.104.172a31.91 31.91 0 0 0-3.526 8.294c-.024.085-.045.172-.069.259-.007.023-.011.047-.018.073l-.036.139-.035.139a9.54 9.54 0 0 0-.066.278c0 .007-.005.016-.005.023-.002.015-.007.026-.01.04v.01c-.013.059-.028.118-.042.174l-.011.047a31.98 31.98 0 0 0-.366 12.264c.005.03.01.063.017.096A31.888 31.888 0 0 0 8.11 48.982l.113.179.106.165.106.165.156.237c.03.048.061.092.092.137.011.019.026.038.037.057l.16.233a.603.603 0 0 1 .033.05l.017.025.019.026a20.685 20.685 0 0 0 .563.79c.056.077.113.152.167.228l.08.106.134.176c.029.036.055.074.085.109.043.056.087.11.13.167l.07.09.144.18c.03.039.059.076.09.112.042.052.084.106.13.157.03.038.06.073.091.109.042.054.09.106.134.16.03.038.064.075.097.113.042.052.087.104.132.156.07.084.143.167.216.247l.231.259c.078.085.16.18.243.266a24.145 24.145 0 0 0 .495.525 31.642 31.642 0 0 0 5.8 4.752l.049.03.17.106a31.948 31.948 0 0 0 10.36 4.215l.169.035.155.03.33.067c.054.011.11.02.165.03l.085.014.085.014.174.031.042.007.062.012c.063.012.127.021.193.033l.233.038.236.035.235.035c.078.012.158.022.236.033l.235.03.149.02.153.019c.045.004.092.011.136.016.097.012.191.021.288.03l.207.022.125.012.174.016a29.958 29.958 0 0 0 1.845.111h.078l.358.007h.918c.123 0 .243-.005.365-.007h.026c.125-.003.248-.007.372-.012l.191-.007.191-.01a44.134 44.134 0 0 0 .862-.051 32.626 32.626 0 0 0 1.138-.107c.068-.006.137-.016.207-.023.071-.007.14-.016.208-.026l.08-.01a5.02 5.02 0 0 0 .195-.025c.08-.01.163-.021.243-.033l.047-.007c.092-.014.184-.026.278-.043l.033-.004.179-.029.17-.028.1-.016h.017l.387-.069.023-.004.226-.043a31.823 31.823 0 0 0 10.638-4.058l.175-.106a30.863 30.863 0 0 0 .753-.479 32.37 32.37 0 0 0 3.126-2.325 2.53 2.53 0 0 0 .304-3.555h-.01Z"/><path d="M20.457 9.031a2.5 2.5 0 0 0 1.268-.344 27.223 27.223 0 0 1 2.36-1.218l.167-.075.17-.075.115-.05.224-.096.167-.071.342-.14.13-.05.214-.086.155-.059c.245-.091.49-.179.74-.263l.146-.05c.29-.096.584-.19.879-.278l.146-.042a26.27 26.27 0 0 1 1.15-.306l.127-.031.148-.035.101-.024.109-.026c.07-.016.143-.033.214-.047.108-.024.217-.047.327-.068l.182-.036c.245-.047.49-.092.735-.134.117-.019.238-.04.355-.056.12-.02.24-.036.366-.055l.026-.004.522-.069.368-.042c.122-.014.245-.026.367-.035.123-.012.245-.022.37-.031l.231-.017.464-.028c.078-.004.156-.007.231-.012.047 0 .092-.004.139-.004l.127-.005.146-.005.146-.004c.1-.003.198-.005.295-.005h.348a26.602 26.602 0 0 1 4.026.304l.153.023.257.043.05.01.042.006c.063.012.13.021.193.033l.064.012.084.016.085.017.16.03c.057.01.114.022.168.034l.044.009c.128.026.257.054.384.082l.118.026c.09.02.177.04.266.062.104.023.208.05.311.075.097.024.194.05.29.073l.104.028.11.029h.005l.21.056c.01 0 .019.005.028.007l.097.028.134.038.11.03.156.045.123.038.11.033.052.017h.005l.063.018.135.043.084.026.111.035.196.064.297.101c.435.153.866.316 1.295.49l.146.061c.106.045.212.087.318.134a7.59 7.59 0 0 1 1.046.547c3.105 1.948 4.422 5.932 2.933 9.404a7.59 7.59 0 0 1-4.153 4.049 7.578 7.578 0 0 1-5.8-.07 11.86 11.86 0 0 0-4.525-.957h-.005a11.789 11.789 0 0 0-2.228.19l-.08.015-.101.019c-.05.01-.102.018-.151.03h-.01a3.865 3.865 0 0 1-.16.038l-.127.03-.075.02-.123.03-.115.03-.08.022a11.58 11.58 0 0 0-.486.146c-.063.021-.13.042-.193.064l-.096.033c-.033.011-.064.02-.097.035l-.094.035c-.094.036-.19.07-.283.109-.47.188-.93.407-1.373.654l-.087.05c-.06.033-.118.068-.177.101l-.174.106a9.372 9.372 0 0 0-.163.104l-.141.092c-.033.02-.064.042-.097.063a.747.747 0 0 0-.054.038l-.068.047-.08.057a3.092 3.092 0 0 0-.16.115l-.163.12-.08.06A11.6 11.6 0 0 0 26.48 24.1l-.014.014-.12.137c-.038.042-.076.087-.114.132l-.042.05a8.027 8.027 0 0 0-.139.169l-.045.056c-.04.05-.077.1-.115.149l-.083.106a8.898 8.898 0 0 0-.219.299v.002a11.645 11.645 0 0 0-1.312 2.431c0 .005-.002.007-.004.012l-.043.106-.04.104c-.01.026-.021.054-.03.082l-.036.101-.042.123-.043.13a11.654 11.654 0 0 0-.355 6.037c.292 1.46.862 2.85 1.68 4.096l.065.102a11.605 11.605 0 0 0 3.154 3.187l.12.08a11.684 11.684 0 0 0 5.202 1.901l.134.014.12.012.057.005a11.527 11.527 0 0 0 2.332-.031h.007a11.8 11.8 0 0 0 4.428-1.418 2.525 2.525 0 0 0-.549-4.633 2.536 2.536 0 0 0-1.92.226 6.745 6.745 0 0 1-4.042.805l-.073-.01c-.042-.004-.084-.011-.127-.016-.042-.007-.09-.011-.136-.021a4.613 4.613 0 0 1-.426-.087c-.027-.005-.05-.012-.074-.017l-.085-.02-.084-.022-.085-.024-.07-.02-.093-.029-.162-.052-.08-.028c-.055-.019-.109-.04-.16-.059-.08-.03-.16-.064-.238-.097l-.062-.026-.063-.028-.064-.03-.099-.047a6.794 6.794 0 0 1-2.549-2.163l-.056-.085c-.019-.028-.038-.054-.054-.08a6.805 6.805 0 0 1-1.13-3.62v-.222a1.315 1.315 0 0 1 .001-.108c.003-.036.003-.07.005-.109 0-.026 0-.051.005-.077l.004-.078a4.585 4.585 0 0 1 .026-.271c.005-.05.012-.099.02-.15.004-.038.009-.076.016-.114l.014-.085c.01-.051.016-.103.028-.155l.028-.149c.012-.049.024-.108.036-.162.01-.035.016-.07.026-.108.007-.029.014-.055.02-.085l.05-.177c.076-.245.163-.488.264-.723.127-.3.278-.587.448-.864l.08-.128a1.92 1.92 0 0 1 .092-.136c.018-.031.042-.06.06-.088a6.64 6.64 0 0 1 .1-.136l.052-.07c.018-.027.037-.05.056-.074.024-.03.047-.061.073-.092l.073-.09.076-.086c.042-.052.09-.102.136-.151l.01-.01a5.344 5.344 0 0 1 .285-.287l.033-.03c.256-.243.534-.465.826-.665l.168-.11a.933.933 0 0 1 .09-.057c.032-.021.065-.043.098-.061.033-.02.066-.04.102-.06.353-.2.723-.37 1.107-.506l.164-.056.111-.036c.038-.011.073-.02.11-.033.039-.009.076-.02.114-.03l.108-.028c.08-.02.16-.038.24-.055l.104-.02.078-.015.08-.014a3.52 3.52 0 0 1 .153-.024h.005c.32-.047.643-.07.966-.07h.11a6.801 6.801 0 0 1 2.544.546c5.24 2.247 11.362.695 14.89-3.776a12.664 12.664 0 0 0 2.721-7.764v-.024A12.623 12.623 0 0 0 47.853 2.58c-.082-.035-.162-.07-.245-.104a17.66 17.66 0 0 0-.624-.254c-.125-.05-.25-.099-.374-.146l-.205-.078a7.04 7.04 0 0 0-.205-.075c-.062-.021-.12-.045-.182-.066l-.162-.059-.252-.087a34.557 34.557 0 0 0-.526-.174l-.12-.04-.143-.048-.217-.068-.146-.045-.13-.037-.183-.055c-.123-.035-.248-.07-.37-.106-.085-.023-.17-.047-.255-.068l-.24-.063h-.01l-.05-.017c-.14-.035-.276-.07-.415-.103l-.141-.033-.165-.04-.247-.057-.02-.004-.247-.055a47.152 47.152 0 0 0-.515-.108l-.151-.028-.22-.043-.145-.028-.21-.038-.075-.014-.495-.082a19.822 19.822 0 0 0-.52-.078L39.44.251l-.118-.014c-.014 0-.028-.005-.042-.005l-.07-.01-.071-.009L39 .198l-.094-.012-.182-.021-.056-.007c-.073-.008-.146-.017-.222-.024l-.205-.019-.07-.007-.203-.019a33.454 33.454 0 0 0-1.33-.085h-.083l-.047-.002-.177-.007-.25-.007c-.186-.005-.37-.007-.553-.01h-.542c-.078 0-.153 0-.23.003-.079.002-.15.002-.222.005-.073 0-.146.002-.222.004-.106.003-.214.007-.32.012l-.186.007-.085.005-.139.007-.181.01-.165.009h-.024a31.747 31.747 0 0 0-4.322.572l-.052.01c-.116.023-.231.05-.349.073l-.019.004-.155.033a31.751 31.751 0 0 0-8.782 3.364l-.247.141-.1.057-.042.026-.042.026a2.52 2.52 0 0 0-1.01 1.241 2.547 2.547 0 0 0-.064 1.6 2.52 2.52 0 0 0 2.429 1.82h.002l-.003.024Z"/><path d="m16.595 20.535-.021.035a21.762 21.762 0 0 0-2.568 6.115c-.002.012-.007.024-.01.035l-.035.149c-.005.023-.012.05-.016.073l-.033.141a21.845 21.845 0 0 0-.33 8.08l.028.184a.713.713 0 0 1 .01.07l.014.08.021.13.005.023s0 .012.002.02a21.879 21.879 0 0 0 3.284 8.352l.042.066c.16.243.325.48.495.716.064.09.13.177.193.264a21.872 21.872 0 0 0 14.365 8.596l.03.005.144.02h.021l.118.02h.026l.127.019a21.9 21.9 0 0 0 5.206.033l.11-.015c.036-.004.071-.009.107-.011l.148-.02.028-.004h.02l.032-.007.14-.019.049-.007.245-.035h.002a21.857 21.857 0 0 0 9.978-4.266 2.538 2.538 0 0 0 .919-2.666 2.544 2.544 0 0 0-2.125-1.856 2.508 2.508 0 0 0-.989.07c-.32.09-.622.24-.886.445a16.833 16.833 0 0 1-6.011 2.937c-.029.007-.057.012-.085.02-.551.14-1.11.251-1.673.336H37.7c-.066.014-.132.021-.198.03l-.073.01c-.723.094-1.451.141-2.179.141h-.005a16.89 16.89 0 0 1-4.6-.638l-.014-.005a19.168 19.168 0 0 1-.86-.27l-.262-.092-.113-.043-.033-.012a6.4 6.4 0 0 1-.198-.075l-.056-.021-.1-.04-.025-.01h-.005c-.066-.026-.132-.051-.198-.08l-.049-.021-.054-.024-.295-.127-.08-.035a16.934 16.934 0 0 1-7.012-5.922l-.043-.061-.073-.111-.064-.099a16.94 16.94 0 0 1-2.708-9.022v-.217c0-.087 0-.174.002-.261v-.021a16.963 16.963 0 0 1 .059-1.086 16.79 16.79 0 0 1 1.3-5.18c.306-.714.66-1.407 1.06-2.071l.028-.047.052-.087c.3-.48.622-.95.973-1.404a16.88 16.88 0 0 1 5.121-4.438 17.016 17.016 0 0 1 5.84-1.986c.796-.113 1.6-.17 2.405-.17h.005c.06 0 .122-.002.186-.007h.011a16.7 16.7 0 0 1 6.436 1.371h.005a2.527 2.527 0 1 0 1.993-4.643h-.005a21.771 21.771 0 0 0-11.792-1.548l-.088.015-.138.021-.026.005-.104.016a21.72 21.72 0 0 0-8.438 3.27l-.019.012c-.037.026-.078.049-.115.075l-.118.078-.078.054a21.678 21.678 0 0 0-5.849 5.854c-.033.047-.063.094-.094.14-.03.048-.066.1-.099.15l-.019.028-.101.157-.059.092c-.021.033-.042.066-.061.1a1.064 1.064 0 0 1-.035.053l-.043.066-.005.012.003-.005Z"/></g><defs><clipPath id="a"><path fill="#fff" transform="translate(-1.25)" d="M0 0h64v64H0z"/></clipPath></defs></svg>