<svg width="54" height="64" fill="none" xmlns="http://www.w3.org/2000/svg"><path d="M53.75 12.8V0h-26.5v12.8H40.5a12.96 12.96 0 0 1-3.961 9.125 13.114 13.114 0 0 1-9.289 3.674v-12.8a26.25 26.25 0 0 0-18.57 7.356A25.945 25.945 0 0 0 .75 38.399a25.945 25.945 0 0 0 7.93 18.244 26.25 26.25 0 0 0 18.57 7.355 26.229 26.229 0 0 0 18.577-7.349 25.923 25.923 0 0 0 7.923-18.25H40.5a12.91 12.91 0 0 1-1.063 4.957 12.973 12.973 0 0 1-2.892 4.175 13.056 13.056 0 0 1-4.28 2.754c-1.595.629-3.3.94-5.015.913a13.114 13.114 0 0 1-9.288-3.674A12.96 12.96 0 0 1 14 38.399a12.96 12.96 0 0 1 3.962-9.125 13.114 13.114 0 0 1 9.288-3.675v12.8a26.251 26.251 0 0 0 18.57-7.356A25.944 25.944 0 0 0 53.75 12.8Z" fill="#EF6100"/></svg>