<svg width="64" height="64" fill="none" xmlns="http://www.w3.org/2000/svg"><path d="M31.9 21.607v-6.948l-10.572-3.07v6.945l10.573 3.073Z" fill="#E1E1E1"/><path d="M31.898 21.605v-6.948l10.576-3.053v6.929l-10.576 3.072Z" fill="#C4C3C3"/><path d="M31.9 32.166v-6.948l-10.572-3.07v6.945l10.573 3.073Z" fill="#E1E1E1"/><path d="M31.898 32.165v-6.948l10.576-3.055v6.93l-10.576 3.073Z" fill="#C4C3C3"/><path d="M31.9 53.279V46.33l-10.572-3.07v6.945l10.573 3.073Z" fill="#E1E1E1"/><path d="M31.898 53.28v-6.95l10.576-3.054v6.93l-10.576 3.072Z" fill="#C4C3C3"/><path d="M31.901 42.722v-6.947l-20.936-6.078v6.941L31.9 42.722Z" fill="#44B549"/><path d="M31.898 42.721v-6.948l20.946-6.048-.001 6.911-20.945 6.085Z" fill="#409244"/><path d="m17.913 59.929-6.948-2.203V8.556l6.948 2.021V59.93Z" fill="#44B549"/><path d="m45.89 10.577 6.958-2.02-.01 49.17-6.947 2.202V10.577Z" fill="#409244"/><path d="M31.9 63.837V56.89l-10.571-3.07v6.945l10.573 3.072Z" fill="#E1E1E1"/><path d="M31.898 63.838v-6.947l10.576-3.055v6.93l-10.576 3.072Z" fill="#C4C3C3"/><path d="M31.9 11.188 10.96 5.085 31.9 0l20.949 5.085-20.95 6.103Z" fill="#E1E1E1"/></svg>