<svg xmlns="http://www.w3.org/2000/svg" width="64" height="64" fill="none"><g fill="#C82020" clip-path="url(#a)"><path d="M60.999 31.997c0 3.677-.985 7.12-2.7 10.091a20.263 20.263 0 0 1-7.39 7.39l-.318.179a20.08 20.08 0 0 1-9.77 2.522H20.643l3.783-10.091H13.074l3.783-10.09h23.964l-3.783 10.09h3.783c4.702 0 8.65-3.215 9.77-7.569.207-.806.317-1.65.317-2.522 0-5.57-4.517-10.09-10.09-10.09H20.64l3.782-10.09h16.396c3.676 0 7.12.984 10.09 2.7a20.264 20.264 0 0 1 7.39 7.39 20.1 20.1 0 0 1 2.7 10.09Zm-44.147 0H5.504l3.783-10.09h11.351l-3.786 10.09Z"/></g><defs><clipPath id="a"><path fill="#fff" d="M0 0h64v64H0z"/></clipPath></defs></svg>