<svg xmlns="http://www.w3.org/2000/svg" width="64" height="64" fill="none"><g fill="#EF4800" clip-path="url(#a)"><path d="M59.183 33.5a18.83 18.83 0 0 1-2.529 9.45 18.975 18.975 0 0 1-6.92 6.92 18.805 18.805 0 0 1-9.446 2.529H21.392l3.543-9.45h-10.63l3.542-9.45h22.44l-3.542 9.45h3.543c4.403 0 8.1-3.01 9.15-7.087a9.474 9.474 0 0 0 .296-2.362c0-5.217-4.23-9.45-9.45-9.45H21.39l3.543-9.448h15.353c3.442 0 6.667.922 9.449 2.529 2.87 1.66 5.26 4.05 6.92 6.92a18.822 18.822 0 0 1 2.53 9.449Zm-41.341 0H7.215l3.542-9.45h10.63l-3.545 9.45Z"/></g><defs><clipPath id="a"><path fill="#fff" d="M0 0h64v64H0z"/></clipPath></defs></svg>