<svg xmlns="http://www.w3.org/2000/svg" width="64" height="64" fill="none"><path fill="#000" d="M54.62 25.293c.988-6.61-4.046-10.164-10.93-12.535l2.234-8.956-5.452-1.358-2.174 8.72a227.998 227.998 0 0 0-4.368-1.029l2.19-8.776L30.67 0l-2.234 8.952c-1.186-.27-2.35-.537-3.48-.818l.005-.028-7.518-1.877-1.45 5.822s4.045.927 3.96.985c2.207.55 2.606 2.012 2.54 3.17l-2.544 10.202c.152.039.35.095.567.182-.182-.045-.376-.095-.576-.143l-3.566 14.292c-.27.67-.954 1.676-2.498 1.294.055.08-3.962-.989-3.962-.989l-2.707 6.24 7.095 1.769c1.32.33 2.613.677 3.886 1.003l-2.256 9.058 5.446 1.358 2.234-8.962c1.488.404 2.932.777 4.345 1.128l-2.227 8.92 5.452 1.358 2.256-9.04c9.296 1.758 16.287 1.049 19.23-7.359 2.37-6.769-.119-10.674-5.01-13.22 3.562-.821 6.245-3.164 6.961-8.004ZM42.162 42.76c-1.685 6.769-13.084 3.11-16.78 2.192l2.994-12c3.696.922 15.547 2.748 13.786 9.808Zm1.686-17.563c-1.537 6.157-11.024 3.029-14.102 2.262l2.714-10.884c3.078.767 12.989 2.198 11.388 8.622Z"/></svg>