<svg xmlns="http://www.w3.org/2000/svg" width="64" height="64" fill="none"><g clip-path="url(#a)"><g fill="#000" clip-path="url(#b)"><path d="M32.083 53.392c11.975 0 21.615-9.64 21.615-21.31 0-11.67-9.64-21.31-21.615-21.31-11.974 0-21.614 9.64-21.614 21.31 0 11.67 9.64 21.31 21.614 21.31Z"/><path d="M50.2 54.666c1.163 1.101 1.092 2.982-.24 3.869-12.537 8.34-29.56 7.118-40.693-3.92-12.684-12.584-12.684-32.676 0-45.26C20.343-1.72 37.527-2.914 50.085 5.52c1.274.855 1.365 2.65.28 3.735-.925.925-2.39 1-3.485.28-10.442-6.857-24.669-5.614-33.756 3.473C2.367 23.462 2.367 40.51 12.92 50.962c9.089 9.09 23.32 10.33 33.762 3.47 1.098-.722 2.564-.669 3.518.235Zm4.682-4.576c1.102 1.162 2.983 1.097 3.876-.232 7.27-10.816 7.24-25.096-.092-35.883-.86-1.264-2.645-1.348-3.726-.268-.931.931-1 2.406-.27 3.502 5.9 8.848 5.892 20.358-.027 29.354-.724 1.1-.668 2.57.239 3.526Z"/></g></g><defs><clipPath id="a"><path fill="#fff" d="M0 0h64v64H0z"/></clipPath><clipPath id="b"><rect width="64" height="64" fill="#fff" rx="32"/></clipPath></defs></svg>