<svg xmlns="http://www.w3.org/2000/svg" width="64" height="64" fill="none"><g clip-path="url(#a)"><g clip-path="url(#b)"><path fill="#EF4800" d="M63.57 28.648a5.006 5.006 0 0 0-1.694-3.423 4.987 4.987 0 0 0-3.612-1.227h-.194a4.855 4.855 0 0 0-3.198 1.739 4.873 4.873 0 0 0-1.093 3.478v.196a19.42 19.42 0 0 1 0 5.217v.196a24.3 24.3 0 0 1-1.58 5.686 22.136 22.136 0 0 1-6.98 9.003 22.06 22.06 0 0 1-21.807 2.843 22.11 22.11 0 0 1-9.047-6.915 22.162 22.162 0 0 1-3.023-21.821 22.134 22.134 0 0 1 6.823-9.122 22.082 22.082 0 0 1 10.45-4.513 24.435 24.435 0 0 1 7.802.196 5.851 5.851 0 0 1 3.845 2.287 5.87 5.87 0 0 1 1.11 4.338 5.353 5.353 0 0 1-2.314 3.263 5.334 5.334 0 0 1-3.926.743h-.196a5.995 5.995 0 0 0-1.307-.176h-.175a16.661 16.661 0 0 0-2.147-.097 11.49 11.49 0 0 0-5.962 2.08 11.524 11.524 0 0 0-3.97 4.92 11.55 11.55 0 0 0 1.863 12.024 11.489 11.489 0 0 0 17.037.463 11.536 11.536 0 0 0 2.95-5.593l.273-1.68c.082-.93.116-1.863.099-2.796a14.984 14.984 0 0 1 3.66-9.823 14.933 14.933 0 0 1 9.194-5.008h.291a11.778 11.778 0 0 1 1.854-.099h.469A32.132 32.132 0 0 0 47.437 4.02 32.063 32.063 0 0 0 31.951 0 32.445 32.445 0 0 0 9.279 9.763 32.57 32.57 0 0 0 0 32.673a32.162 32.162 0 0 0 7.464 19.814A32.054 32.054 0 0 0 25.61 63.344a32.01 32.01 0 0 0 20.95-2.818A32.102 32.102 0 0 0 61.209 45.26l.1-.176A34.27 34.27 0 0 0 64 34.159c-.059-2.052-.255-3.732-.43-5.51Z"/></g></g><defs><clipPath id="a"><path fill="#fff" d="M0 0h64v64H0z"/></clipPath><clipPath id="b"><rect width="64" height="64" fill="#fff" rx="32"/></clipPath></defs></svg>