<svg width="128" height="128" fill="none" xmlns="http://www.w3.org/2000/svg"><path d="M45.166 2.825A63.796 63.796 0 0 1 64 0v64H0c0-6.565.987-12.882 2.825-18.843C9.033 24.96 24.97 9.024 45.165 2.825Z" fill="#fff"/><path d="M45.166 2.825A63.796 63.796 0 0 1 64 0v64H0c0-6.565.987-12.882 2.825-18.843C9.033 24.96 24.97 9.024 45.165 2.825Z" fill="#A2C4B8"/><path d="M64 96a31.863 31.863 0 0 1-9.371 22.619A31.924 31.924 0 0 1 32 128c-8.841 0-16.841-3.584-22.629-9.381A31.863 31.863 0 0 1 0 96a31.92 31.92 0 0 1 2.825-13.157 31.922 31.922 0 0 1 6.546-9.472C15.168 67.575 23.168 64 32 64a31.864 31.864 0 0 0 9.371 22.62C47.168 92.415 55.168 96 64 96Zm64-32H64V0a63.69 63.69 0 0 1 18.825 2.825h.01c20.196 6.199 36.132 22.135 42.34 42.332C127.022 51.117 128 57.445 128 64Z" fill="#099250"/><path d="M128 64v32a31.864 31.864 0 0 1-9.371 22.619C112.832 124.416 104.832 128 96 128c-4.69 0-9.143-1.015-13.157-2.825a32.176 32.176 0 0 1-9.472-6.556A31.863 31.863 0 0 1 64 96V64h64Z" fill="#099250"/></svg>