<svg width="128" height="102" fill="none" xmlns="http://www.w3.org/2000/svg"><path d="M73.22 25.986 62.59 50.997H37.642a12.462 12.462 0 0 0-12.506 12.506c0 6.94 5.565 12.505 12.506 12.505H51.96l-10.567 24.824c-1.25.125-2.5.187-3.751.187-20.697 0-37.517-16.82-37.517-37.516 0-20.697 16.82-37.517 37.517-37.517h35.64-.062Z" fill="#3551F2"/><path d="M127.998 38.493c0 20.697-16.819 37.517-37.516 37.517H51.965l10.63-25.011h27.887c6.878 0 12.505-5.628 12.505-12.506S97.36 25.988 90.482 25.988H73.224l10.38-24.386c2.25-.438 4.502-.625 6.878-.625 20.697 0 37.516 16.82 37.516 37.516Z" fill="#3551F2"/></svg>