<svg width="128" height="128" fill="none" xmlns="http://www.w3.org/2000/svg"><path d="M63.805 43.212V29.316L42.66 23.178v13.889l21.145 6.145Z" fill="#E1E1E1"/><path d="M63.805 43.213V29.317l21.152-6.108v13.858l-21.152 6.146Z" fill="#C4C3C3"/><path d="M63.805 64.33V50.432L42.66 44.295v13.889l21.145 6.145Z" fill="#E1E1E1"/><path d="M63.805 64.33V50.432l21.152-6.109v13.86l-21.152 6.145Z" fill="#C4C3C3"/><path d="M63.805 106.56V92.664L42.66 86.525v13.889l21.145 6.146Z" fill="#E1E1E1"/><path d="M63.805 106.56V92.664l21.152-6.107v13.858l-21.152 6.145Z" fill="#C4C3C3"/><path d="M63.802 85.443V71.547L21.93 59.393v13.882l41.872 12.168Z" fill="#44B549"/><path d="M63.805 85.445V71.549l41.892-12.098-.003 13.824-41.89 12.17Z" fill="#409244"/><path d="m35.826 119.856-13.896-4.405v-98.34l13.896 4.042v98.703Z" fill="#44B549"/><path d="m91.79 21.153 13.914-4.042-.019 98.34-13.896 4.405V21.153Z" fill="#409244"/><path d="M63.805 127.675v-13.896l-21.145-6.138v13.889l21.145 6.145Z" fill="#E1E1E1"/><path d="M63.805 127.675v-13.896l21.152-6.109v13.86l-21.152 6.145Z" fill="#C4C3C3"/><path d="M63.802 22.376 21.926 10.17 63.802 0l41.899 10.17-41.899 12.206Z" fill="#E1E1E1"/></svg>