<svg width="128" height="128" fill="none" xmlns="http://www.w3.org/2000/svg"><path d="M127.989 0 85.325 42.664h-28.44c-7.853 0-14.225 6.367-14.225 14.22 0 1.598.267 3.138.752 4.571a14.193 14.193 0 0 0 3.41 5.477 14.173 14.173 0 0 0 10.058 4.177l-14.22 14.22a42.516 42.516 0 0 1-22.92-6.67C7.866 71.076-.003 57.794-.003 42.663-.004 19.1 19.096 0 42.66 0h85.329Z" fill="#B2FE92"/><path d="M127.989 85.328c0 23.564-19.1 42.664-42.664 42.664H-.004L42.66 85.328h28.445c7.853 0 14.22-6.367 14.22-14.22 0-.202 0-.4-.011-.596 0-.139-.01-.267-.021-.4 0-.032 0-.059-.011-.096 0-.085-.01-.176-.021-.26 0-.076-.011-.15-.022-.225-.01-.074-.016-.16-.032-.234 0-.048-.01-.096-.016-.139-.016-.127-.037-.25-.053-.373 0-.01 0-.02-.01-.031a7.45 7.45 0 0 0-.091-.475.466.466 0 0 0-.032-.144c-.032-.16-.07-.32-.107-.479-.01-.032-.016-.064-.026-.096-.037-.15-.08-.298-.123-.448a11.37 11.37 0 0 0-.176-.559 13.29 13.29 0 0 0-.655-1.598 9.516 9.516 0 0 0-.288-.57c-.127-.24-.266-.474-.4-.704-.09-.143-.18-.287-.27-.42a7.014 7.014 0 0 0-.32-.459 2.844 2.844 0 0 0-.15-.202 6.892 6.892 0 0 0-.255-.33c-.075-.102-.16-.203-.245-.304a26.97 26.97 0 0 0-.363-.416 9.786 9.786 0 0 0-.458-.48A14.168 14.168 0 0 0 71.11 56.9l14.22-14.22c.277 0 .554 0 .831.01.208 0 .416.011.629.016a35.526 35.526 0 0 1 2.227.139 38.28 38.28 0 0 1 2.685.309c.266.037.538.08.804.128l.56.096c.042.01.09.01.133.026a32.047 32.047 0 0 1 1.673.341l.192.048c.314.075.634.15.943.23.01 0 .021 0 .032.01.33.085.655.176.98.266a30.8 30.8 0 0 1 1.007.304c.303.09.602.186.9.288a.83.83 0 0 0 .123.042c.293.102.591.203.884.315.043.01.085.032.128.048.309.111.618.223.922.351.325.123.644.256.964.395.277.117.549.234.826.356.378.17.756.347 1.124.528.288.138.581.282.868.431.309.16.613.315.911.48.304.16.602.33.901.5.298.171.591.347.89.523.271.165.548.33.815.5.026.017.048.033.074.049.57.367 1.135.75 1.689 1.145a39.94 39.94 0 0 1 2.366 1.817l.122.096a41.263 41.263 0 0 1 2.243 1.998c.245.24.49.474.735.719s.48.485.72.735c.234.245.463.495.698.746.404.447.804.9 1.188 1.364.085.096.165.202.245.303a39.752 39.752 0 0 1 1.763 2.296s.011.011.011.022c.202.277.394.56.586.847.192.282.378.57.57.858.181.288.362.57.538.863.032.059.069.117.101.17.144.24.288.48.426.725.171.298.341.597.501.9.123.224.245.453.363.682a45.36 45.36 0 0 1 1.481 3.16c.117.282.234.57.346.852.107.267.213.544.309.815.048.123.096.25.138.378.075.198.144.39.208.587.133.389.267.783.384 1.177.096.288.181.58.261.868.027.075.048.155.069.23.085.303.165.607.245.91 0 .011.011.022.011.032a53.633 53.633 0 0 1 .501 2.163c.053.256.096.512.144.773.053.272.095.543.138.815l.096.597c.032.24.069.48.096.72.021.148.037.292.053.441.032.25.059.507.085.762v.01c.038.347.07.688.096 1.034 0 .032 0 .075.011.112.027.325.043.645.059.97 0 .043 0 .09.01.139.016.314.027.628.032.943v.143c.011.341.011.682.011 1.023l-.016-.021Z" fill="#078465"/></svg>