<svg xmlns="http://www.w3.org/2000/svg" width="128" height="128" fill="none"><g clip-path="url(#a)"><path fill="#EF4800" d="M109.246 50.587c1.978-13.222-8.09-20.33-21.857-25.072l4.466-17.91-10.903-2.717-4.348 17.438c-2.867-.714-5.81-1.388-8.736-2.055l4.379-17.554L61.349 0l-4.468 17.904a365.083 365.083 0 0 1-6.963-1.636l.012-.056-15.036-3.754-2.901 11.644s8.09 1.854 7.919 1.97c4.416 1.102 5.214 4.024 5.08 6.34l-5.086 20.404c.304.078.699.19 1.133.364-.363-.09-.751-.19-1.152-.286l-7.13 28.583c-.54 1.342-1.91 3.354-4.997 2.59.109.158-7.925-1.978-7.925-1.978l-5.413 12.48 14.189 3.537c2.64.66 5.227 1.353 7.773 2.005l-4.512 18.116 10.89 2.717 4.47-17.923a418.3 418.3 0 0 0 8.689 2.255l-4.453 17.839 10.903 2.717 4.512-18.082c18.593 3.519 32.574 2.099 38.459-14.715 4.742-13.539-.236-21.348-10.018-26.44 7.124-1.644 12.49-6.33 13.922-16.008Zm-24.913 34.93c-3.37 13.539-26.167 6.22-33.558 4.385l5.988-24c7.39 1.844 31.092 5.496 27.57 19.615Zm3.373-35.126c-3.074 12.315-22.05 6.058-28.204 4.524l5.428-21.767c6.155 1.534 25.978 4.397 22.776 17.243Z"/></g><defs><clipPath id="a"><path fill="#fff" d="M0 0h128v128H0z"/></clipPath></defs></svg>