<svg xmlns="http://www.w3.org/2000/svg" width="128" height="128" fill="none"><path fill="#26A17B" d="M74.978 71.309v-.016c-.672.047-4.144.25-11.868.25-6.177 0-10.509-.172-12.041-.25v.016c-23.754-1.046-41.47-5.167-41.47-10.116 0-4.933 17.732-9.07 41.47-10.116v16.126c1.548.11 6.004.375 12.15.375 7.38 0 11.071-.312 11.76-.375v-16.11c23.706 1.06 41.376 5.182 41.376 10.115 0 4.934-17.686 9.055-41.377 10.117m0-21.903V34.997h33.073V13h-90.04v21.997h33.073v14.425C24.204 50.655 4 55.962 4 62.332S24.22 74.01 51.084 75.26v46.24h23.91V75.259C101.828 74.025 122 68.718 122 62.348c0-6.354-20.172-11.677-47.006-12.91"/></svg>