<svg xmlns="http://www.w3.org/2000/svg" width="128" height="128" fill="none"><path fill="#000" d="M109.238 50.587c1.978-13.222-8.09-20.33-21.856-25.072l4.465-17.91-10.903-2.717-4.348 17.438c-2.866-.714-5.81-1.388-8.736-2.055l4.38-17.554L61.342 0l-4.47 17.904a365.083 365.083 0 0 1-6.962-1.636l.013-.056-15.037-3.754-2.9 11.644s8.089 1.854 7.918 1.97c4.416 1.102 5.214 4.024 5.08 6.34l-5.086 20.404c.304.078.699.19 1.134.364-.364-.09-.752-.19-1.153-.286l-7.13 28.583c-.54 1.342-1.91 3.354-4.997 2.59.109.158-7.925-1.978-7.925-1.978l-5.413 12.48 14.19 3.537c2.639.66 5.226 1.353 7.772 2.005l-4.512 18.116 10.891 2.717 4.469-17.923a416.73 416.73 0 0 0 8.69 2.255l-4.454 17.839 10.903 2.717 4.513-18.082c18.593 3.519 32.574 2.099 38.459-14.715 4.742-13.539-.237-21.348-10.019-26.44 7.124-1.644 12.491-6.33 13.922-16.008Zm-24.912 34.93c-3.37 13.539-26.167 6.22-33.559 4.385l5.988-24c7.39 1.844 31.092 5.496 27.57 19.615Zm3.372-35.126c-3.074 12.315-22.049 6.058-28.204 4.524l5.428-21.767c6.156 1.534 25.978 4.397 22.776 17.243Z"/></svg>