<?xml version="1.0" encoding="UTF-8" standalone="no"?>
<svg
   width="191.9996"
   height="182.24913"
   viewBox="0 0 191.9996 182.24913"
   version="1.1"
   xml:space="preserve"
   style="clip-rule:evenodd;fill-rule:evenodd;stroke-linejoin:round;stroke-miterlimit:2"
   id="svg1"
   xmlns="http://www.w3.org/2000/svg"
   xmlns:svg="http://www.w3.org/2000/svg"><defs
   id="defs1" />
    <g
   transform="matrix(3.99998,0,0,3.99998,-415.99956,-418.87289)"
   id="g1">
        <path
   d="m 147.66109,126.21938 c 0.0757,-0.11269 0.14757,-0.22744 0.21957,-0.34406 1.33668,-2.16244 1.99368,-4.67288 1.99368,-7.20938 v -0.13369 c 0,-2.73037 -0.765,-5.42118 -2.29462,-7.689 -2.26819,-3.36412 -5.9715,-5.69193 -10.24069,-6.1245 h -13.53881 c -0.51488,-0.001 -1.00969,0.2025 -1.37438,0.56607 -0.36487,0.36018 -0.57037,0.85218 -0.57,1.365 v 6.14718 c 0,0.534 0.21769,1.01738 0.57,1.36519 0.36469,0.36356 0.8595,0.56738 1.37438,0.56606 h 12.20025 c 2.09381,0 3.79031,1.68863 3.79031,3.76463 v 0.19931 c 0,2.07975 -1.6965,3.76463 -3.79031,3.76463 h -19.97588 c -0.51487,9.3e-4 -1.00968,-0.20288 -1.37456,-0.56625 -0.3645,-0.36038 -0.57,-0.85238 -0.57,-1.365 V 106.65 c 0,-0.53418 -0.2175,-1.01737 -0.56981,-1.36518 -0.36469,-0.36319 -0.85931,-0.567 -1.37419,-0.56607 h -6.19125 c -1.07344,0 -1.94437,0.86494 -1.94437,1.93125 v 41.7 c 0,0.53025 0.21768,1.0155 0.57,1.36519 0.3645,0.36356 0.8595,0.56738 1.37437,0.56606 h 6.18938 c 0.53756,0 1.02225,-0.21618 1.37437,-0.56606 0.36469,-0.36037 0.57,-0.85237 0.57,-1.36519 v -13.87556 c 0,-1.06612 0.87075,-1.93125 1.94438,-1.93125 h 19.87931 c 0.32944,0 0.65119,-0.015 0.97312,-0.0356 h 1.257 c 2.09025,0 3.79032,1.68487 3.79032,3.76462 v 0.19556 c 0,2.07975 -1.70007,3.76463 -3.79032,3.76463 h -14.26575 c -0.0208,-0.004 -0.0454,-0.004 -0.0662,-0.004 -0.0208,0 -0.0454,0 -0.0664,0.004 -0.492,0.0133 -0.96056,0.21544 -1.30819,0.564 -0.36506,0.36094 -0.57037,0.85369 -0.57,1.36706 V 148.35 c 0,0.53025 0.21788,1.0155 0.57,1.36519 0.36469,0.36375 0.8595,0.56756 1.37457,0.56606 h 15.22181 c 3.97594,-0.2745 7.49737,-2.1945 9.87525,-5.079 2.04487,-2.47837 3.10312,-5.61675 3.10312,-8.82112 v -0.0263 c 0,-3.12338 -1.0035,-6.18469 -2.95537,-8.63306 -0.42563,-0.53363 -0.8895,-1.03575 -1.38769,-1.50244 h 0.004 z"
   style="fill:#000030;fill-rule:nonzero;stroke-width:0.1875"
   id="path1" />
    </g>
</svg>
