<?xml version="1.0" encoding="UTF-8" standalone="no"?>
<svg
   width="335.6008"
   height="262.56174"
   viewBox="0 0 335.6008 262.56174"
   version="1.1"
   xml:space="preserve"
   style="clip-rule:evenodd;fill-rule:evenodd;stroke-linejoin:round;stroke-miterlimit:2"
   id="svg2"
   xmlns="http://www.w3.org/2000/svg"
   xmlns:svg="http://www.w3.org/2000/svg"><defs
   id="defs2" />
    <g
   transform="matrix(4.00296,0,0,4.00296,-345.08886,-273.01613)"
   id="g2">
        <path
   d="m 134.13163,84.601285 -6.96906,16.398055 H 110.8055 c -0.01,0 -0.0187,0 -0.0282,0 -4.48256,0 -8.17083,3.68826 -8.17083,8.17083 0,0.01 0,0.0187 0,0.0282 0,0.01 0,0.0187 0,0.0282 0,4.48257 3.68827,8.17084 8.17083,8.17084 0.01,0 0.0187,0 0.0282,0 h 9.38801 l -6.85956,16.39805 c -1.63909,-0.0141 -1.70858,0 -2.52845,0 -13.569324,0 -24.59708,-11.02776 -24.59708,-24.59708 0,-13.569646 11.027756,-24.597075 24.59708,-24.597075 h 23.36743 z"
   style="fill:#3551f2;fill-rule:nonzero;stroke-width:0.327817"
   id="path1" />
        <path
   d="m 170.04658,92.80031 c 0,13.56965 -11.02776,24.59708 -24.59708,24.59708 h -25.25304 l 6.96906,-16.39805 h 18.28398 c 4.50945,0 8.19903,-3.689582 8.19903,-8.198702 0,-4.509775 -3.68958,-8.199353 -8.19903,-8.199353 h -11.31492 l 7.0638,-16.397724 c 1.63908,0.01442 2.69334,0 4.25112,0 13.56932,0 24.59708,11.027429 24.59708,24.596749 z"
   style="fill:#3551f2;fill-rule:nonzero;stroke-width:0.327817"
   id="path2" />
    </g>
</svg>
