<?xml version="1.0" encoding="UTF-8" standalone="no"?>
<svg
   width="191.99915"
   height="229.72697"
   viewBox="0 0 191.99915 229.72697"
   version="1.1"
   xml:space="preserve"
   style="clip-rule:evenodd;fill-rule:evenodd;stroke-linejoin:round;stroke-miterlimit:2"
   id="svg4"
   xmlns="http://www.w3.org/2000/svg"
   xmlns:svg="http://www.w3.org/2000/svg"><defs
   id="defs4" />
    <g
   transform="matrix(0.999959,0,0,0.999959,-344.87547,-397.0708)"
   id="g4">
        <g
   transform="matrix(3.9987,0,0,3.9987,-38.875,0.251891)"
   id="g1">
            <path
   d="m 143.45187,146.75615 c -0.19136,-0.22793 -0.42648,-0.41549 -0.6912,-0.55166 -0.26473,-0.13663 -0.55323,-0.22076 -0.84982,-0.24745 -0.59855,-0.0523 -1.19396,0.13662 -1.65296,0.52429 -0.0592,0.0487 -0.11846,0.0974 -0.17544,0.14582 -0.0424,0.0361 -0.0846,0.0698 -0.12698,0.10365 -0.65733,0.53528 -1.34248,1.03557 -2.05252,1.49884 l -0.0929,0.0613 c -0.1566,0.1014 -0.31296,0.20079 -0.47157,0.29591 -0.0379,0.0233 -0.0718,0.0444 -0.10769,0.0655 -0.0359,0.0211 -0.0698,0.0424 -0.10365,0.0635 l -0.0612,0.0379 -0.10993,0.0657 c -0.0359,0.0211 -0.0698,0.0422 -0.10567,0.0613 -0.4193,0.24386 -0.84578,0.47516 -1.27898,0.69322 l -0.10769,0.055 -0.15009,0.0763 -0.19674,0.0951 -0.0148,0.008 c -0.0655,0.0318 -0.13102,0.0615 -0.19653,0.0931 l -0.15008,0.0698 -0.0971,0.0444 c -0.0507,0.0231 -0.10365,0.0464 -0.15435,0.0698 -0.0678,0.0296 -0.13753,0.0613 -0.2073,0.0909 -0.13931,0.0613 -0.2811,0.12047 -0.42266,0.17746 -0.0718,0.0296 -0.14381,0.0592 -0.2156,0.0868 -0.13752,0.055 -0.27684,0.10993 -0.41638,0.16265 h -0.004 c -0.13752,0.0529 -0.27707,0.10364 -0.41638,0.15233 l -0.0276,0.0105 c -0.0655,0.0231 -0.13102,0.0464 -0.19877,0.0698 -0.0698,0.0231 -0.13954,0.0464 -0.20707,0.0718 l -0.20931,0.0675 c -0.0195,0.007 -0.0393,0.0132 -0.0592,0.0191 l -0.13528,0.0424 -0.11194,0.0359 c -0.1142,0.0359 -0.22614,0.0698 -0.34033,0.10365 l -0.0761,0.0231 c -0.0467,0.0128 -0.0931,0.0276 -0.13954,0.0402 l -0.16063,0.0444 -0.129,0.0359 -0.0846,0.0233 -0.1079,0.0276 c -0.12048,0.0316 -0.24297,0.0633 -0.36569,0.0929 -0.0296,0.009 -0.0612,0.0148 -0.0908,0.0233 -0.0422,0.0105 -0.0866,0.0211 -0.13102,0.0316 l -0.10791,0.0253 c -0.008,0.002 -0.0189,0.004 -0.0274,0.006 -0.055,0.0128 -0.11217,0.0254 -0.16691,0.0381 -0.10163,0.0233 -0.20303,0.0444 -0.30668,0.0655 -0.0971,0.0211 -0.19451,0.0402 -0.28963,0.0592 l -0.23668,0.0444 -0.14583,0.0254 c -0.0487,0.009 -0.0866,0.0168 -0.13101,0.0233 l -0.18823,0.0316 -0.18396,0.0296 -0.0231,0.004 c -0.0763,0.0105 -0.15008,0.0231 -0.22412,0.0336 -0.074,0.0105 -0.14582,0.0213 -0.21559,0.0296 l -0.0464,0.007 -0.17768,0.0231 h -0.0128 c -0.0507,0.006 -0.0992,0.0128 -0.14784,0.0191 l -0.13102,0.0148 c -0.129,0.0148 -0.26001,0.0296 -0.39103,0.0422 h -0.0319 c -0.0422,0.009 -0.0866,0.0128 -0.129,0.0171 l -0.11194,0.0105 c -0.0444,0.004 -0.0888,0.009 -0.13326,0.0105 l -0.13304,0.0105 c -0.17544,0.0128 -0.35312,0.0254 -0.52856,0.0359 l -0.23466,0.0128 -0.13304,0.004 c -0.0339,2.2e-4 -0.0678,0.002 -0.10162,0.004 l -0.12878,0.004 h -0.13124 c -0.0442,0.002 -0.0886,0.006 -0.13303,0.006 h -0.0464 c -0.074,0 -0.14807,0.002 -0.21986,0.002 h -0.47987 c -2.50122,-0.0296 -4.98269,-0.44599 -7.35647,-1.23456 -0.0846,-0.0296 -0.17118,-0.057 -0.25575,-0.0866 -0.0422,-0.0148 -0.0846,-0.0296 -0.12474,-0.0444 -0.0402,-0.0148 -0.0846,-0.0296 -0.12474,-0.0444 -0.068,-0.0236 -0.1355,-0.0482 -0.2028,-0.074 l -0.0846,-0.0316 c -0.076,-0.0274 -0.15233,-0.057 -0.22614,-0.0846 l -0.0381,-0.0148 c -0.0296,-0.0105 -0.0592,-0.0231 -0.0866,-0.0336 l -0.0296,-0.0128 -0.0233,-0.009 -0.0507,-0.0188 -0.0464,-0.0191 h -0.0105 l -0.0213,-0.0105 -0.0951,-0.0381 -0.12249,-0.0507 c -0.0678,-0.0276 -0.13528,-0.055 -0.20303,-0.0846 h -0.0105 l -0.13528,-0.0592 -0.15838,-0.0698 c -4.24258,-1.86789 -7.86416,-4.90977 -10.43649,-8.76625 -0.0195,-0.0274 -0.0377,-0.0556 -0.0547,-0.0846 -2.59723,-3.9516 -3.98682,-8.57601 -3.99737,-13.30473 v -0.3594 c 0,-0.0909 0.004,-0.18172 0.006,-0.27258 v -0.0213 c 0.0736,-2.69999 0.59856,-5.36878 1.55359,-7.89535 0.0339,-0.0886 0.0678,-0.17543 0.10163,-0.26427 0.0296,-0.0781 0.0612,-0.15637 0.0929,-0.23444 l 0.0655,-0.15862 c 0.0359,-0.0866 0.0718,-0.17341 0.10993,-0.26023 0.0404,-0.0949 0.0826,-0.19002 0.12474,-0.28515 0.002,-0.006 0.007,-0.0128 0.009,-0.0191 0.003,-0.009 0.007,-0.017 0.0105,-0.0254 l 0.0888,-0.19652 c 0,0 0,-0.004 0.002,-0.006 0.0274,-0.0615 0.0547,-0.1207 0.0823,-0.1797 0.009,-0.017 0.0148,-0.0359 0.0231,-0.053 l 0.0128,-0.0296 c 0.0126,-0.0296 0.0274,-0.0592 0.0422,-0.0866 0.009,-0.0191 0.017,-0.0381 0.0256,-0.055 l 0.0254,-0.055 0.006,-0.0128 0.0168,-0.0337 c 0.0319,-0.0678 0.0655,-0.13528 0.0994,-0.20303 0.006,-0.0105 0.0105,-0.0233 0.0168,-0.0337 0.0444,-0.0891 0.0888,-0.17768 0.13326,-0.2645 0.0316,-0.0613 0.0635,-0.12474 0.0951,-0.18598 l 0.0211,-0.0381 c 0,0 0,-0.004 0.002,-0.006 0,0 0,-0.004 0.002,-0.004 0.0188,-0.0381 0.0379,-0.0718 0.057,-0.10769 0.006,-0.0128 0.0148,-0.0254 0.0211,-0.0381 l 0.0422,-0.0781 c 0.0128,-0.0254 0.0276,-0.0509 0.0404,-0.0763 l 0.008,-0.0148 0.0168,-0.0294 c 0.0233,-0.0467 0.0487,-0.0911 0.0718,-0.13528 0.75425,-1.36469 1.63996,-2.65265 2.64457,-3.84526 0.017,-0.0211 0.0359,-0.0422 0.0507,-0.0635 0.36388,-0.46776 0.53012,-1.06003 0.46304,-1.64893 -0.13999,-1.21841 -1.24399,-2.114 -2.46509,-1.99958 -0.59048,0.0559 -1.13608,0.34055 -1.51971,0.79283 -0.84555,1.00327 -1.62089,2.0633 -2.32106,3.1729 l -0.017,0.0254 c -0.0613,0.0971 -0.12048,0.19451 -0.18172,0.28941 -0.0319,0.0509 -0.0613,0.10162 -0.0931,0.15457 -0.928332,1.53541 -1.710395,3.15473 -2.335867,4.83641 -0.312511,0.83972 -0.584865,1.69402 -0.815939,2.55977 -0.004,0.015 -0.0083,0.0298 -0.01256,0.0467 -0.02109,0.0763 -0.04038,0.15435 -0.06125,0.23265 -0.0065,0.0211 -0.01077,0.0422 -0.01705,0.0655 -0.01054,0.0402 -0.02109,0.0823 -0.03163,0.12474 l -0.03186,0.12474 c -0.02109,0.0823 -0.03993,0.16489 -0.059,0.24924 0,0.007 -0.0045,0.0148 -0.0045,0.0213 -0.002,0.0126 -0.0061,0.0231 -0.0083,0.0359 v 0.009 c -0.01256,0.0527 -0.02535,0.10545 -0.03814,0.15637 -0.004,0.0148 -0.0063,0.0296 -0.01054,0.0422 -0.818407,3.61261 -0.929682,7.34996 -0.327542,11.00498 0.0043,0.0274 0.0085,0.057 0.01481,0.0866 0.620761,3.71963 1.970639,7.2802 3.972018,10.47643 0.0337,0.0529 0.0675,0.10791 0.1014,0.16063 l 0.0951,0.14806 c 0.0316,0.0507 0.0635,0.0994 0.0951,0.14785 0.0464,0.072 0.0931,0.14178 0.13954,0.21357 0.0274,0.0422 0.055,0.0823 0.0823,0.12249 0.0106,0.0171 0.0233,0.0339 0.0339,0.0509 0.0464,0.0698 0.0951,0.13954 0.14358,0.20909 0.0108,0.0148 0.0213,0.0296 0.0298,0.0444 0.004,0.009 0.0105,0.0148 0.0148,0.0233 l 0.0168,0.0233 c 0.10589,0.15413 0.2138,0.30713 0.3235,0.45856 0.0592,0.0826 0.12048,0.16714 0.18172,0.24947 0.0507,0.0698 0.10141,0.13753 0.15031,0.20505 0.0231,0.0316 0.0462,0.0635 0.0718,0.0951 l 0.12048,0.15861 c 0.0254,0.0316 0.0485,0.0655 0.076,0.0971 0.0381,0.0507 0.0781,0.0994 0.11621,0.15008 0.0211,0.0276 0.0422,0.055 0.0635,0.0803 0.0422,0.055 0.0866,0.10791 0.129,0.16287 0.0274,0.0339 0.0527,0.0675 0.0803,0.0994 0.0381,0.0464 0.076,0.0951 0.11621,0.14156 0.0274,0.0339 0.055,0.0655 0.0823,0.0971 0.0381,0.0487 0.0803,0.0951 0.12047,0.1438 0.0276,0.0339 0.0572,0.0678 0.0868,0.10141 0.0381,0.0467 0.0781,0.0931 0.11823,0.13954 0.0635,0.0763 0.129,0.15009 0.19451,0.2221 0.0655,0.074 0.13752,0.15435 0.20729,0.23242 0.0696,0.0761 0.14358,0.16063 0.21761,0.23893 0.074,0.0803 0.14583,0.15861 0.21986,0.23668 0.074,0.0783 0.14807,0.15659 0.22412,0.23466 1.55964,1.62246 3.30661,3.05378 5.20434,4.26367 l 0.0444,0.0276 0.1521,0.0951 c 2.85254,1.79745 5.99986,3.07778 9.29705,3.78177 l 0.1521,0.0316 0.13954,0.0276 c 0.0994,0.0188 0.19653,0.0401 0.29591,0.059 0.0487,0.0105 0.0994,0.0191 0.14807,0.0276 l 0.076,0.0126 0.0761,0.0128 0.15636,0.0274 0.0381,0.006 0.055,0.0105 c 0.057,0.0105 0.11419,0.0191 0.17319,0.0296 l 0.20931,0.0336 0.21156,0.0319 0.21133,0.0316 c 0.0698,0.0105 0.14156,0.0191 0.21134,0.0296 l 0.21133,0.0276 0.13326,0.0168 0.1373,0.0168 c 0.0401,0.004 0.0826,0.0105 0.12271,0.0148 0.0866,0.0105 0.17118,0.0191 0.25777,0.0276 l 0.18621,0.0191 0.11195,0.0105 0.15637,0.0148 c 0.37487,0.0343 0.75065,0.0603 1.12665,0.0781 0.17611,0.009 0.35222,0.0164 0.52856,0.0213 h 0.0698 l 0.32126,0.006 h 0.82446 c 0.10993,0 0.21784,-0.004 0.32777,-0.006 h 0.0231 c 0.11217,-0.002 0.2221,-0.006 0.33405,-0.0108 l 0.17117,-0.006 0.17118,-0.009 c 0.10364,-0.004 0.20931,-0.0105 0.31296,-0.0168 0.15434,-0.009 0.30645,-0.0191 0.4608,-0.0296 0.34078,-0.0267 0.68111,-0.0583 1.02099,-0.0951 0.0612,-0.006 0.12271,-0.0148 0.18598,-0.0211 0.0635,-0.006 0.12473,-0.0148 0.18598,-0.0233 l 0.072,-0.008 c 0.0592,-0.007 0.11822,-0.0148 0.17543,-0.0233 0.0718,-0.009 0.14583,-0.0191 0.21762,-0.0296 l 0.0424,-0.006 c 0.0823,-0.0128 0.16489,-0.0233 0.24947,-0.0381 l 0.0296,-0.004 0.16063,-0.0254 0.15211,-0.0254 0.0909,-0.0148 h 0.0148 c 0.11644,-0.0211 0.2304,-0.0402 0.34684,-0.0612 l 0.0211,-0.004 0.2028,-0.0381 c 3.37504,-0.63018 6.60918,-1.86385 9.5463,-3.642 0.0529,-0.0319 0.10364,-0.0635 0.15659,-0.0953 0.22748,-0.13954 0.45317,-0.28267 0.6764,-0.42894 0.97612,-0.63871 1.91275,-1.3353 2.8052,-2.0864 0.45833,-0.38722 0.74437,-0.94113 0.79462,-1.539 0.0507,-0.59743 -0.13707,-1.19127 -0.52205,-1.65095 h -0.009 z"
   style="fill:#1066df;fill-rule:nonzero;stroke-width:0.224344"
   id="path1" />
        </g>
        <g
   transform="matrix(3.9987,0,0,3.9987,-38.875,0.251891)"
   id="g2">
            <path
   d="m 111.42428,107.36401 c 0.39978,4.5e-4 0.79238,-0.10612 1.1372,-0.3087 0.44869,-0.26046 0.90545,-0.50634 1.36984,-0.73764 0.29659,-0.14717 0.59609,-0.28806 0.89828,-0.42289 0.0509,-0.0233 0.10163,-0.0444 0.15233,-0.0678 0.0336,-0.0146 0.0675,-0.0294 0.10365,-0.0442 0.0675,-0.0296 0.13303,-0.0572 0.20078,-0.0868 l 0.15009,-0.0633 c 0.10185,-0.0426 0.20393,-0.0841 0.30645,-0.12474 l 0.11621,-0.0467 0.19249,-0.0761 c 0.0464,-0.0191 0.0929,-0.0359 0.13932,-0.0527 0.21986,-0.0826 0.43971,-0.16063 0.66383,-0.2369 l 0.13102,-0.0442 c 0.26136,-0.0877 0.52429,-0.17095 0.78857,-0.24947 l 0.13102,-0.0381 c 0.3419,-0.0989 0.68582,-0.19069 1.03153,-0.27482 l 0.11419,-0.0274 0.13326,-0.0319 0.0909,-0.0211 0.0971,-0.0233 c 0.0635,-0.0148 0.129,-0.0296 0.19249,-0.0422 0.0971,-0.0211 0.19451,-0.0422 0.29367,-0.0613 l 0.16287,-0.0319 c 0.21986,-0.0422 0.43972,-0.0823 0.65957,-0.12047 0.10567,-0.0168 0.21335,-0.0359 0.31924,-0.0507 0.10769,-0.0168 0.2156,-0.0316 0.32755,-0.0487 l 0.0233,-0.004 c 0.15637,-0.0215 0.31273,-0.0422 0.46933,-0.0615 l 0.32956,-0.0381 c 0.10993,-0.0126 0.21986,-0.0231 0.32978,-0.0314 0.10993,-0.0108 0.21986,-0.0191 0.33203,-0.0276 0.0698,-0.004 0.13955,-0.0105 0.20707,-0.0148 l 0.41639,-0.0254 c 0.0698,-0.004 0.13954,-0.006 0.20729,-0.0105 0.0422,0 0.0823,-0.004 0.12473,-0.004 l 0.11397,-0.004 0.13124,-0.004 0.13102,-0.004 c 0.0888,-0.002 0.17746,-0.004 0.26428,-0.004 h 0.31273 c 0.99789,0 1.99554,0.0612 2.9849,0.18598 0.20932,0.0253 0.4184,0.055 0.62772,0.0866 0.0444,0.006 0.0909,0.0148 0.13752,0.0211 l 0.2304,0.0381 0.0444,0.008 0.0379,0.007 c 0.0572,0.0105 0.11643,0.0191 0.17341,0.0296 l 0.057,0.0106 0.0763,0.0148 0.0761,0.0148 0.14358,0.0274 c 0.0509,0.009 0.10162,0.0191 0.15008,0.0296 l 0.0404,0.009 c 0.11396,0.0233 0.2304,0.0487 0.34436,0.074 l 0.10567,0.0231 c 0.0805,0.0171 0.15861,0.0359 0.23893,0.055 0.0931,0.0213 0.18598,0.0444 0.27908,0.0677 0.0866,0.0211 0.17342,0.0444 0.26001,0.0655 l 0.0931,0.0254 0.0992,0.0254 h 0.004 c 0.0635,0.0168 0.12698,0.0337 0.18823,0.0507 0.009,0 0.0168,0.004 0.0253,0.006 0.0296,0.009 0.0592,0.017 0.0866,0.0254 0.0402,0.0108 0.0803,0.0233 0.12048,0.0339 l 0.0994,0.0276 c 0.0464,0.0126 0.0931,0.0274 0.13954,0.0402 l 0.10993,0.0336 0.0994,0.0298 0.0464,0.0146 h 0.004 l 0.057,0.017 0.1207,0.0381 0.0761,0.0231 0.0994,0.0316 c 0.059,0.0191 0.11622,0.0381 0.17544,0.0572 0.0886,0.0296 0.17746,0.0613 0.2663,0.0909 0.39103,0.1373 0.7787,0.2838 1.16255,0.43972 l 0.13102,0.055 c 0.0953,0.0402 0.19046,0.0783 0.28559,0.12048 0.32507,0.13887 0.6387,0.30286 0.93843,0.49041 2.78613,1.74809 3.96775,5.32279 2.63178,8.43871 -0.71184,1.65633 -2.05297,2.96403 -3.72681,3.6337 -1.67383,0.66967 -3.54733,0.64678 -5.20433,-0.0635 -1.28415,-0.54987 -2.66409,-0.84129 -4.06085,-0.85812 h -0.004 c -0.40517,-0.004 -0.81033,0.0148 -1.21348,0.057 -0.18172,0.0191 -0.36142,0.0444 -0.54336,0.0718 -0.0803,0.0128 -0.16265,0.0276 -0.24297,0.0424 l -0.0718,0.0126 c -0.0296,0.007 -0.0615,0.0106 -0.0911,0.017 -0.0444,0.009 -0.0909,0.0168 -0.13528,0.0274 h -0.008 c -0.0487,0.0128 -0.0951,0.0233 -0.1438,0.0339 l -0.1142,0.0276 -0.0675,0.0168 -0.10993,0.0274 c -0.0339,0.009 -0.0698,0.0191 -0.10365,0.0276 l -0.0718,0.0191 c -0.14605,0.0402 -0.29187,0.0846 -0.43545,0.13102 -0.0572,0.0191 -0.11644,0.0381 -0.17342,0.057 l -0.0866,0.0296 c -0.0296,0.0105 -0.0572,0.0191 -0.0868,0.0318 l -0.0846,0.0314 c -0.0846,0.0319 -0.17117,0.0635 -0.2535,0.0974 -0.42312,0.16915 -0.83479,0.36568 -1.23255,0.58778 -0.0254,0.0148 -0.0527,0.0296 -0.0781,0.0444 -0.053,0.0296 -0.10567,0.0612 -0.15861,0.0909 -0.0529,0.0316 -0.10365,0.0612 -0.15637,0.0951 -0.0489,0.0305 -0.0976,0.0615 -0.14583,0.0929 l -0.12697,0.0826 c -0.0296,0.0191 -0.057,0.0381 -0.0866,0.057 -0.0168,0.0105 -0.033,0.022 -0.0487,0.0339 -0.0168,0.0128 -0.0402,0.0274 -0.0613,0.0422 -0.0211,0.015 -0.0487,0.0339 -0.0718,0.0509 -0.0487,0.0336 -0.0974,0.0675 -0.1438,0.10342 -0.0464,0.0339 -0.0974,0.0718 -0.14583,0.10769 -0.0233,0.017 -0.0467,0.0361 -0.072,0.0529 -0.50433,0.38834 -0.97209,0.822 -1.39722,1.29581 l -0.0128,0.0128 c -0.0359,0.0402 -0.0718,0.0803 -0.10768,0.12249 -0.0339,0.0381 -0.0677,0.0785 -0.1014,0.11846 l -0.0381,0.0444 c -0.0422,0.0507 -0.0846,0.1014 -0.12474,0.1521 -0.0148,0.0171 -0.0274,0.0339 -0.0402,0.0509 -0.0359,0.0444 -0.0698,0.0886 -0.10364,0.13303 -0.0254,0.0319 -0.0485,0.0635 -0.0738,0.0951 -0.0678,0.0888 -0.13326,0.17768 -0.19675,0.26854 v 0.002 c -0.47763,0.67797 -0.8727,1.41023 -1.17736,2.18153 0,0.004 -0.002,0.007 -0.004,0.0105 l -0.0381,0.0951 -0.0359,0.0931 c -0.008,0.0233 -0.0191,0.0487 -0.0274,0.074 -0.009,0.0231 -0.0211,0.0592 -0.0318,0.0909 -0.0126,0.0359 -0.0251,0.074 -0.0381,0.10993 -0.0126,0.0381 -0.0251,0.0783 -0.0379,0.11621 -0.56108,1.6846 -0.68402,3.48451 -0.35715,5.22968 0.0105,0.0635 0.0233,0.12474 0.0381,0.18823 0.26226,1.31062 0.77376,2.55864 1.50714,3.6761 l 0.0592,0.0909 c 0.74841,1.12845 1.70995,2.09986 2.83032,2.86016 0.0359,0.0231 0.072,0.0485 0.10791,0.0718 1.39655,0.93439 2.99747,1.51948 4.66748,1.70591 l 0.12048,0.0126 0.10768,0.0108 0.0509,0.004 c 0.66989,0.0592 1.34427,0.055 2.01438,-0.0168 0.0254,-0.002 0.053,-0.006 0.0783,-0.0105 h 0.006 c 1.39587,-0.15637 2.74687,-0.58891 3.97403,-1.27248 0.25935,-0.14538 0.48773,-0.33988 0.67236,-0.57298 0.18441,-0.23399 0.32081,-0.50185 0.40158,-0.78857 0.0803,-0.28738 0.10566,-0.58553 0.0698,-0.88144 -0.035,-0.29569 -0.12765,-0.5815 -0.2728,-0.8413 -0.14538,-0.25979 -0.34078,-0.48817 -0.57477,-0.67213 -0.23377,-0.18486 -0.50164,-0.32126 -0.78857,-0.40158 -0.28627,-0.0814 -0.58599,-0.10521 -0.88145,-0.0698 -0.29591,0.0359 -0.58128,0.12676 -0.84129,0.27258 -1.104,0.61358 -2.37266,0.86642 -3.62742,0.72306 l -0.0657,-0.009 c -0.0379,-0.004 -0.0761,-0.0105 -0.11397,-0.0148 -0.0381,-0.006 -0.0803,-0.0105 -0.12272,-0.0191 -0.0502,-0.008 -0.10028,-0.0173 -0.15008,-0.0274 -0.0778,-0.0148 -0.15547,-0.0316 -0.23242,-0.0507 -0.0233,-0.004 -0.0444,-0.0108 -0.0655,-0.0148 l -0.0763,-0.0191 c -0.0254,-0.006 -0.0485,-0.0128 -0.0761,-0.0191 l -0.076,-0.0211 c -0.0211,-0.007 -0.0422,-0.0128 -0.0635,-0.0191 l -0.0823,-0.0253 c -0.0487,-0.0148 -0.0974,-0.0316 -0.14582,-0.0464 -0.0233,-0.009 -0.0487,-0.017 -0.072,-0.0256 -0.0485,-0.0168 -0.0971,-0.0359 -0.14358,-0.0527 -0.0718,-0.0276 -0.1429,-0.0565 -0.21357,-0.0866 l -0.055,-0.0233 -0.0572,-0.0254 -0.057,-0.0276 -0.0888,-0.0422 c -0.91218,-0.44622 -1.69828,-1.11342 -2.28719,-1.94058 l -0.0507,-0.0761 c -0.0168,-0.0254 -0.0339,-0.0487 -0.0487,-0.072 -0.0168,-0.0254 -0.0296,-0.0442 -0.0422,-0.0655 -0.61268,-0.95055 -0.94942,-2.05275 -0.97231,-3.18345 v -0.19877 c 0,-0.0296 0,-0.0633 0.002,-0.0971 0.002,-0.0316 0.002,-0.0635 0.004,-0.0971 0,-0.0233 0,-0.0467 0.004,-0.0698 l 0.004,-0.0698 c 0.004,-0.0572 0.009,-0.11419 0.0148,-0.16915 0.002,-0.0254 0.004,-0.0487 0.009,-0.074 0.004,-0.0444 0.0105,-0.0888 0.017,-0.13528 0.004,-0.0339 0.008,-0.0677 0.0146,-0.1014 l 0.0128,-0.076 c 0.009,-0.0467 0.0148,-0.0931 0.0254,-0.13955 0.009,-0.0467 0.0168,-0.0888 0.0253,-0.13326 0.0105,-0.0444 0.0211,-0.0971 0.0316,-0.14582 0.009,-0.0316 0.0148,-0.0635 0.0233,-0.0974 0.006,-0.0254 0.0128,-0.0485 0.0191,-0.076 l 0.0444,-0.15839 c 0.0675,-0.21985 0.14583,-0.43769 0.23669,-0.64902 0.13258,-0.30937 0.29097,-0.60708 0.47359,-0.88998 0.0231,-0.0381 0.0527,-0.0825 0.0823,-0.12271 0.017,-0.0274 0.0381,-0.0527 0.055,-0.0781 0.0296,-0.0424 0.0592,-0.0826 0.0888,-0.12272 l 0.0464,-0.0633 c 0.017,-0.0233 0.0339,-0.0444 0.0507,-0.0655 0.0213,-0.0276 0.0424,-0.055 0.0657,-0.0826 0.0211,-0.0274 0.0442,-0.055 0.0655,-0.0803 l 0.0675,-0.0783 c 0.0381,-0.0464 0.0803,-0.0909 0.12271,-0.13528 l 0.008,-0.008 c 0.0467,-0.0509 0.0931,-0.0994 0.14179,-0.14807 0.0359,-0.0381 0.0738,-0.074 0.11397,-0.10993 l 0.0296,-0.0274 c 0.23152,-0.21784 0.47965,-0.41728 0.74213,-0.59631 0.0507,-0.0337 0.1014,-0.0675 0.15009,-0.0992 0.0253,-0.017 0.0507,-0.0339 0.0803,-0.0509 0.0296,-0.0189 0.0592,-0.0379 0.0886,-0.055 0.0296,-0.0168 0.0592,-0.0359 0.0911,-0.0527 0.31745,-0.17992 0.6497,-0.33203 0.9934,-0.45452 l 0.14806,-0.0507 c 0.0339,-0.0106 0.0655,-0.0211 0.0994,-0.0316 0.0337,-0.0108 0.0655,-0.0191 0.0992,-0.0296 0.0339,-0.009 0.0678,-0.0191 0.10163,-0.0276 0.0339,-0.008 0.0655,-0.0168 0.0971,-0.0254 0.072,-0.0168 0.1438,-0.0339 0.21559,-0.0487 l 0.0931,-0.0189 0.0698,-0.0128 0.0718,-0.0126 c 0.0464,-0.009 0.0909,-0.0148 0.13752,-0.0213 h 0.004 c 0.28693,-0.0422 0.57679,-0.0633 0.86686,-0.0633 h 0.0994 c 0.78632,0.0148 1.55986,0.18172 2.28292,0.49042 4.70136,2.01663 10.19532,0.62345 13.36194,-3.38872 1.56615,-1.98567 2.42583,-4.4382 2.44154,-6.96723 v -0.0211 c 0.009,-2.22505 -0.63871,-4.4041 -1.86026,-6.26369 -1.22133,-1.85981 -2.96426,-3.31895 -5.01006,-4.19389 -0.0738,-0.0314 -0.14582,-0.0633 -0.21985,-0.0929 -0.0752,-0.0298 -0.14987,-0.0608 -0.2239,-0.0931 -0.11217,-0.0464 -0.2221,-0.0909 -0.33629,-0.13528 -0.11195,-0.0444 -0.2239,-0.0888 -0.33607,-0.13102 l -0.18374,-0.0695 c -0.061,-0.0236 -0.12226,-0.0462 -0.18396,-0.0678 -0.055,-0.0191 -0.10791,-0.0404 -0.16287,-0.0592 l -0.14583,-0.053 -0.22614,-0.0781 c -0.15636,-0.0529 -0.31296,-0.10589 -0.47134,-0.15659 l -0.10791,-0.0359 -0.129,-0.0422 -0.19451,-0.0615 -0.13101,-0.0402 -0.11621,-0.0337 -0.1649,-0.0487 -0.3318,-0.0951 c -0.0758,-0.0213 -0.15211,-0.0417 -0.22838,-0.0612 l -0.2156,-0.0572 h -0.009 l -0.0464,-0.0126 c -0.12474,-0.0319 -0.24723,-0.0635 -0.37197,-0.0931 l -0.12697,-0.0296 -0.14785,-0.0359 c -0.0761,-0.01683 -0.14806,-0.03365 -0.2221,-0.0507 l -0.0168,-0.0043 -0.22188,-0.04868 c -0.15435,-0.03365 -0.3087,-0.06551 -0.46305,-0.09714 l -0.13528,-0.02535 -0.19652,-0.03814 c -0.0444,-0.0085 -0.0888,-0.01682 -0.13102,-0.02535 l -0.18822,-0.03365 -0.0677,-0.01279 c -0.14785,-0.02535 -0.29591,-0.04868 -0.44376,-0.07403 -0.15547,-0.02535 -0.31116,-0.04846 -0.46731,-0.06955 l -0.18598,-0.02558 -0.10566,-0.01279 c -0.0126,0 -0.0254,-0.004 -0.0381,-0.004 l -0.0633,-0.0085 -0.0635,-0.0085 -0.12249,-0.01481 -0.0846,-0.01054 -0.16287,-0.01907 -0.0507,-0.0063 c -0.0655,-0.0063 -0.13102,-0.01481 -0.19877,-0.02109 l -0.18374,-0.01683 -0.0635,-0.0065 -0.18172,-0.01683 c -0.072,-0.0063 -0.1438,-0.01279 -0.21582,-0.01705 -0.32574,-0.0249 -0.65216,-0.04464 -0.97859,-0.059 h -0.074 l -0.0422,-0.0022 -0.15861,-0.0063 -0.22412,-0.0063 c -0.16556,-0.0038 -0.33113,-0.0067 -0.49669,-0.0085 h -0.48616 c -0.0698,0 -0.13752,0 -0.20729,0.0022 -0.0698,0.002 -0.13304,0.002 -0.19855,0.004 -0.0657,0 -0.13124,0.0022 -0.19877,0.0045 -0.0951,0.002 -0.19248,0.0061 -0.2876,0.01032 l -0.16692,0.0065 -0.0761,0.004 -0.12474,0.0065 -0.16287,0.0083 -0.14784,0.0085 h -0.0211 c -1.30434,0.08233 -2.60015,0.253509 -3.87913,0.513748 l -0.0464,0.0083 c -0.10365,0.02131 -0.20707,0.04442 -0.31296,0.06551 l -0.0168,0.0045 c -0.0464,0.01032 -0.0931,0.01884 -0.13954,0.02939 -0.45879,0.101632 -0.91308,0.213582 -1.36558,0.336072 -2.27418,0.62121 -4.46266,1.5224 -6.51496,2.68271 l -0.2221,0.12675 -0.0886,0.0507 -0.0381,0.0233 -0.0381,0.0231 c -0.41526,0.26293 -0.73361,0.65419 -0.90658,1.11409 -0.17297,0.45969 -0.19293,0.96334 -0.0572,1.43536 0.13797,0.47112 0.42423,0.88571 0.81594,1.18162 0.39327,0.29501 0.87202,0.45385 1.36356,0.4525 h 0.002 z"
   style="fill:#1066df;fill-rule:nonzero;stroke-width:0.224344"
   id="path2" />
        </g>
        <g
   transform="matrix(3.9987,0,0,3.9987,-38.875,0.251891)"
   id="g3">
            <path
   d="m 107.95525,117.68631 -0.0191,0.0316 c -1.04388,1.70075 -1.82078,3.55159 -2.30402,5.48768 -0.002,0.0106 -0.006,0.0211 -0.009,0.0316 l -0.0316,0.13326 c -0.004,0.0211 -0.0105,0.0444 -0.0148,0.0655 -0.0106,0.0422 -0.0191,0.0846 -0.0296,0.12676 -0.56153,2.43211 -0.65329,4.94925 -0.27056,7.41569 0.004,0.0211 0.006,0.0422 0.009,0.0633 0.011,0.0626 0.0215,0.12541 0.0316,0.18822 l 0.004,0.0211 c 0,0 0,0.0105 0.002,0.0168 0.45362,2.6753 1.45689,5.22789 2.94653,7.49601 l 0.0381,0.059 c 0.14358,0.21784 0.29165,0.43142 0.44376,0.64275 0.0572,0.0803 0.11643,0.15861 0.17341,0.23668 3.10291,4.17729 7.74279,6.95377 12.89059,7.71363 l 0.0274,0.004 0.129,0.0191 h 0.0191 l 0.10567,0.0168 h 0.0231 l 0.1142,0.0168 c 1.55044,0.19585 3.11883,0.20595 4.67174,0.0296 l 0.0994,-0.0126 c 0.0316,-0.004 0.0635,-0.009 0.0951,-0.0105 l 0.13326,-0.0171 0.0254,-0.004 h 0.0168 l 0.0296,-0.006 0.12473,-0.0168 0.0444,-0.007 c 0.076,-0.0105 0.14784,-0.0211 0.21986,-0.0316 h 0.002 c 3.25904,-0.50298 6.33907,-1.81966 8.95447,-3.82821 0.23893,-0.1797 0.43926,-0.40539 0.5898,-0.66384 0.15076,-0.25867 0.24925,-0.54448 0.28963,-0.84129 0.0823,-0.59877 -0.0792,-1.20607 -0.44824,-1.68482 -0.18284,-0.23713 -0.41055,-0.43613 -0.67012,-0.58554 -0.25956,-0.14964 -0.54628,-0.24588 -0.84353,-0.28312 -0.29726,-0.0384 -0.599,-0.0168 -0.88773,0.0633 -0.28828,0.0805 -0.55817,0.21627 -0.79485,0.39956 -1.60361,1.23075 -3.43808,2.12723 -5.39458,2.63604 -0.0254,0.006 -0.0507,0.0105 -0.0761,0.0168 -0.49491,0.1263 -0.99587,0.22726 -1.50087,0.30241 h -0.0213 c -0.059,0.0126 -0.11823,0.0191 -0.17746,0.0274 l -0.0655,0.009 c -0.64836,0.0844 -1.30165,0.12675 -1.95539,0.12675 h -0.004 c -1.39587,0 -2.78523,-0.19271 -4.12838,-0.57275 l -0.0126,-0.004 c -0.10455,-0.0301 -0.20887,-0.061 -0.31296,-0.0929 -0.1539,-0.0469 -0.30691,-0.0969 -0.45879,-0.15008 l -0.23466,-0.0826 -0.10141,-0.0381 -0.0296,-0.0105 c -0.0592,-0.0211 -0.11823,-0.0444 -0.17746,-0.0675 l -0.0507,-0.0191 -0.0888,-0.0359 -0.0233,-0.009 h -0.004 c -0.059,-0.0233 -0.11823,-0.0464 -0.17746,-0.0718 l -0.0444,-0.0191 -0.0487,-0.0211 c -0.0886,-0.0381 -0.17544,-0.076 -0.26428,-0.11419 l -0.0718,-0.0316 c -2.54653,-1.15829 -4.72446,-2.99769 -6.29285,-5.31449 l -0.0381,-0.055 -0.0655,-0.0992 -0.0572,-0.0888 c -1.55919,-2.41439 -2.40227,-5.22205 -2.43099,-8.09613 v -0.1945 c 0,-0.0783 0,-0.1566 0.002,-0.23467 v -0.0191 c 0.006,-0.29591 0.0211,-0.5898 0.0444,-0.88145 0.002,-0.0316 0.004,-0.0635 0.008,-0.0931 0,-0.0148 0.002,-0.0296 0.004,-0.0444 0.14179,-1.58634 0.53394,-3.14037 1.16233,-4.60399 0.28065,-0.65553 0.60707,-1.29043 0.97679,-1.90019 0.0148,-0.0256 0.0316,-0.0529 0.0464,-0.0785 0.26966,-0.43433 0.56109,-0.85476 0.87315,-1.2597 0.80382,-1.04768 1.74113,-1.98567 2.78815,-2.79039 0.3087,-0.23803 0.62659,-0.46372 0.95324,-0.6764 0.27931,-0.18059 0.56422,-0.35267 0.85408,-0.51599 1.62357,-0.90814 3.39948,-1.51208 5.24023,-1.78174 0.71498,-0.1014 1.43625,-0.15233 2.15841,-0.15233 h 0.004 c 0.055,0 0.10993,-0.002 0.16692,-0.006 h 0.0105 c 1.95269,0.0229 3.88227,0.42715 5.67994,1.19014 0.0319,0.0126 0.0635,0.0254 0.0951,0.0402 h 0.004 c 0.55211,0.23893 1.17736,0.24723 1.73553,0.0233 0.85968,-0.34257 1.4266,-1.17892 1.4266,-2.10434 0,-0.28851 -0.0552,-0.57455 -0.16243,-0.84242 -0.22344,-0.55794 -0.65934,-1.00506 -1.21123,-1.24286 h -0.004 c -3.32972,-1.43603 -6.9946,-1.9168 -10.58209,-1.38869 l -0.0783,0.0123 -0.12473,0.0191 -0.0231,0.004 -0.0931,0.0148 c -2.70178,0.43546 -5.28196,1.43513 -7.57184,2.93375 l -0.017,0.0106 c -0.0336,0.0233 -0.0695,0.0444 -0.10365,0.0678 l -0.10544,0.0695 c -0.0233,0.017 -0.0467,0.0319 -0.07,0.0489 -2.11309,1.42638 -3.92535,3.25434 -5.33333,5.37978 -0.0274,0.0422 -0.059,0.0886 -0.0886,0.13303 l -0.017,0.0256 -0.0909,0.14133 -0.0527,0.0826 c -0.0191,0.0296 -0.0381,0.0592 -0.055,0.0888 -0.0105,0.0168 -0.0213,0.0337 -0.0319,0.0487 l -0.0381,0.059 -0.004,0.0108 0.002,-0.004 z"
   style="fill:#1066df;fill-rule:nonzero;stroke-width:0.224344"
   id="path3" />
        </g>
    </g>
</svg>
