<?xml version="1.0" encoding="UTF-8" standalone="no"?>
<svg
   width="192"
   height="231.84877"
   viewBox="0 0 192 231.84877"
   version="1.1"
   xml:space="preserve"
   style="clip-rule:evenodd;fill-rule:evenodd;stroke-linejoin:round;stroke-miterlimit:2"
   id="svg1"
   xmlns="http://www.w3.org/2000/svg"
   xmlns:svg="http://www.w3.org/2000/svg"><defs
   id="defs1" />
    <g
   transform="matrix(4,0,0,4,-328,-396.075)"
   id="g1">
        <path
   d="M 130,110.61098 V 99.018751 h -24 v 11.592229 h 12 c -0.0489,3.12113 -1.34083,6.09713 -3.58732,8.26415 -2.25011,2.17336 -5.27593,3.36996 -8.41268,3.32762 v -11.59177 c -6.272151,-0.0797 -12.320151,2.31532 -16.818792,6.66113 -4.498868,4.34581 -7.081133,10.2874 -7.181208,16.52287 0.100075,6.23524 2.682566,12.17683 7.181208,16.52264 4.498641,4.34581 10.546641,6.74083 16.818792,6.66113 6.27374,0.0851 12.32491,-2.3083 16.82468,-6.65524 4.49977,-4.34695 7.08045,-10.2917 7.17532,-16.52853 h -12 c -0.0208,1.54551 -0.348,3.07154 -0.96249,4.48981 -0.61562,1.4203 -1.50589,2.70521 -2.61962,3.78045 -1.11578,1.07751 -2.43283,1.92521 -3.876,2.49419 -1.44521,0.57011 -2.98846,0.85155 -4.54189,0.82777 -3.13675,0.0423 -6.162113,-1.15471 -8.412,-3.3283 -2.250113,-2.17336 -3.540679,-5.14551 -3.588,-8.26392 0.04755,-3.11864 1.338113,-6.0908 3.588,-8.26415 2.249887,-2.17336 5.27502,-3.37065 8.412,-3.32808 v 11.59223 c 6.27215,0.0797 12.32015,-2.316 16.81879,-6.66181 4.49864,-4.34559 7.08113,-10.28695 7.18121,-16.52219 z"
   style="fill:#ef6100;fill-rule:nonzero;stroke-width:0.226415"
   id="path1" />
    </g>
</svg>
