<?xml version="1.0" encoding="UTF-8" standalone="no"?>
<svg
   width="286.18829"
   height="286.18698"
   viewBox="0 0 286.18829 286.18698"
   version="1.1"
   xml:space="preserve"
   style="clip-rule:evenodd;fill-rule:evenodd;stroke-linejoin:round;stroke-miterlimit:2"
   id="svg3"
   xmlns="http://www.w3.org/2000/svg"
   xmlns:svg="http://www.w3.org/2000/svg"><defs
   id="defs3" />
    <g
   transform="matrix(1.00373,0,0,1.01105,-368.70944,-374.5635)"
   id="g3">
        <g
   transform="matrix(3.98212,0,0,3.98212,0.583005,2.53258)"
   id="g1">
            <path
   d="m 128.03822,151.72895 c 13.30608,0 24.01831,-10.71222 24.01831,-23.67985 0,-12.96791 -10.71223,-23.67985 -24.01831,-23.67985 -13.3058,0 -24.01803,10.71222 -24.01803,23.67985 0,12.96763 10.71251,23.67985 24.01803,23.67985 z"
   style="fill:#46b549;fill-rule:nonzero;stroke-width:0.279481"
   id="path1" />
        </g>
        <g
   transform="matrix(3.98212,0,0,3.98212,0.583005,2.53258)"
   id="g2">
            <path
   d="m 148.15721,153.14201 c 1.2912,1.22329 1.21239,3.31297 -0.2683,4.29842 -13.93045,9.26842 -32.84543,7.9093 -45.21665,-4.35599 -14.09534,-13.98243 -14.09534,-36.30932 0,-50.29175 12.30666,-12.306656 31.40135,-13.633352 45.35611,-4.2618 1.41529,0.950235 1.51674,2.94433 0.31134,4.15001 -1.02849,1.02849 -2.65674,1.11066 -3.87249,0.31218 -11.6032,-7.619205 -27.41232,-6.23857 -37.50996,3.85907 -11.952839,11.61439 -11.952839,30.55844 -0.22554,42.17283 10.0996,10.0996 25.91263,11.47912 37.51611,3.85488 1.22049,-0.80183 2.84931,-0.7423 3.90938,0.26215 z m 5.20365,-5.08599 c 1.22413,1.29232 3.31437,1.22049 4.30736,-0.25685 8.07924,-12.01907 8.04486,-27.8866 -0.10285,-39.87269 -0.9547,-1.40439 -2.93902,-1.4983 -4.13995,-0.29765 -1.03435,1.03464 -1.11177,2.67379 -0.30016,3.89093 6.55718,9.83242 6.5474,22.62118 -0.0296,32.61794 -0.80463,1.22328 -0.74175,2.85545 0.26522,3.91832 z"
   style="fill:#46b549;fill-rule:nonzero;stroke-width:0.279481"
   id="path2" />
        </g>
    </g>
</svg>
