<?xml version="1.0" encoding="UTF-8" standalone="no"?>
<svg
   width="823.06537"
   height="544.3938"
   viewBox="0 0 823.06537 544.3938"
   version="1.1"
   xml:space="preserve"
   style="clip-rule:evenodd;fill-rule:evenodd;stroke-linejoin:round;stroke-miterlimit:2"
   id="svg3"
   xmlns="http://www.w3.org/2000/svg"
   xmlns:svg="http://www.w3.org/2000/svg"><defs
   id="defs3" />
    <g
   transform="matrix(3.98978,0,0,3.98978,-98.577675,-240.22236)"
   id="g3">
        <path
   d="m 55.715401,187.0794 c -0.116715,0.029 -0.239064,0.029 -0.355779,0 -0.303459,-0.0885 -0.532059,-0.3421 -0.590014,-0.6528 -0.326802,-2.0735 8.677148,-21.14632 12.820928,-28.5557 2.07672,-3.68095 17.627167,-13.844 28.108968,-18.82732 0.935329,-0.44191 6.994846,-3.35012 7.179976,-3.01849 0.18513,0.33083 -5.470305,4.73218 -5.765714,4.98332 -9.21967,7.38846 -25.702226,26.71805 -34.30693,37.71501 -5.479965,7.00611 -6.482103,8.23363 -7.091435,8.35598 z"
   style="fill-rule:nonzero;stroke-width:0.80493"
   id="path1" />
        <path
   d="m 150.083,85.090717 c 14.49277,-0.453176 22.12673,3.681751 25.92439,7.365111 3.06839,2.734348 4.91973,6.585134 5.13867,10.689472 0.0982,5.4856 -5.83976,7.13007 -9.39031,8.12416 -0.47894,0.12235 -1.05768,0.28253 -1.53661,0.44191 2.45181,0.9796 8.07667,2.73676 13.13968,4.30798 21.05617,6.55294 29.96755,9.81854 30.72418,12.65431 0.16099,0.65441 -0.0467,1.34665 -0.54091,1.80466 -1.13093,0.94498 -3.26882,0.7848 -6.83466,0.18433 l -0.51596,-0.0861 c -36.58167,-5.81723 -61.59648,-5.39947 -61.85406,-5.39947 -67.115079,1.01823 -101.423619,49.60543 -112.706325,65.57524 -2.962948,4.20979 -4.142976,5.87438 -5.229632,5.90417 -0.314728,-0.006 -0.619796,-0.10867 -0.873349,-0.29541 -0.553792,-0.46606 -0.857251,-1.16715 -0.817004,-1.88998 -0.244699,-7.57278 15.688894,-52.35829 49.611872,-77.80053 14.115256,-10.60012 38.107808,-21.332257 72.636898,-12.88451 -1.97369,-2.11697 -3.08207,-4.899614 -3.10461,-7.793338 C 133.71394,97.317637 115.58208,95.870372 102.671,94.188068 91.571017,92.702972 72.812923,89.684484 71.608748,85.412719 71.350365,84.479 71.731097,83.473642 74.128179,82.073869 84.914244,75.740678 100.39627,74.366662 100.39627,74.366662 144.04764,70.153657 150.083,85.090747 150.083,85.090747 Z"
   style="fill-rule:nonzero;stroke-width:0.80493"
   id="path2" />
        <path
   d="m 102.36352,70.791132 c 0,0 -13.19039,-7.757917 -11.06457,-9.818538 2.126626,-2.060622 26.28097,0 42.16466,6.811319 15.88369,6.810514 16.88904,14.40825 16.88904,14.40825 -5.1757,-8.467865 -18.8088,-13.697497 -47.98993,-11.401031 z m 112.71035,49.571628 c -2.36005,0.0733 -4.43677,0.11108 -7.57117,0.1634 -0.77032,-0.01 -1.53259,-0.15857 -2.25059,-0.43869 l -20.18362,-6.40644 c -0.59002,-0.18433 -4.42551,-1.42311 -4.08583,-1.927 0.34049,-0.50469 3.87172,-0.47813 4.48668,-0.45398 h 1.36436 c 24.76931,0.72444 39.33533,2.44779 43.47187,5.11694 0.55298,0.30829 0.82022,0.96511 0.63911,1.57203 -0.22377,0.90072 -0.4564,1.91895 -15.87081,2.37374 z m -157.904765,7.36591 c -0.653603,0.12477 -1.329745,0.0523 -1.941492,-0.20928 -1.019846,-0.41776 -1.50039,-1.22671 -2.451817,-2.44779 -2.451013,-2.99434 -3.441882,-6.38149 -2.642586,-8.81157 0.524815,-1.49959 1.799824,-2.61924 3.354949,-2.94524 4.831191,-1.22671 10.276544,0.6528 12.291284,2.94524 1.634009,1.79499 0.886228,2.38098 -1.228323,4.13654 -1.235568,1.03111 -2.405937,2.13869 -3.503861,3.3147 -1.794995,1.82075 -2.448598,3.31873 -3.878154,4.0174 z"
   style="fill-rule:nonzero;stroke-width:0.80493"
   id="path3" />
    </g>
</svg>
