<?xml version="1.0" encoding="UTF-8" standalone="no"?>
<svg
   width="191.99908"
   height="192.00015"
   viewBox="0 0 191.99908 192.00015"
   version="1.1"
   xml:space="preserve"
   style="clip-rule:evenodd;fill-rule:evenodd;stroke-linejoin:round;stroke-miterlimit:2"
   id="svg1"
   xmlns="http://www.w3.org/2000/svg"
   xmlns:svg="http://www.w3.org/2000/svg"><defs
   id="defs1" />
    <g
   transform="matrix(4.11463,0,0,4.11463,-431.97306,-431.98564)"
   id="g1">
        <path
   d="m 142.13657,109.5256 4.02338,-4.02337 c 0.68587,-0.68588 1.79981,-0.68607 2.48587,-1.9e-4 l 2.48569,2.48587 c 0.68606,0.68588 0.68588,1.79982 0,2.48588 v -1.9e-4 l -4.02319,4.02319 c 2.85263,3.87056 4.53882,8.65106 4.53882,13.8225 0,5.17125 -1.68619,9.95194 -4.53788,13.82119 l 4.02356,4.02356 c 0.68588,0.68587 0.68588,1.79962 -1.8e-4,2.48569 l -2.48588,2.48587 c -0.68587,0.68588 -1.79962,0.68588 -2.4855,0 l -4.02356,-4.02356 c -3.86981,2.85225 -8.6505,4.53825 -13.82175,4.53825 -5.17144,0 -9.95194,-1.686 -13.82156,-4.53806 l -4.02375,4.02375 c -0.68588,0.68606 -1.79963,0.68606 -2.48569,0 l -2.48588,-2.48588 c -0.68587,-0.68587 -0.68587,-1.79962 0,-2.4855 l 4.02375,-4.02375 c -2.85206,-3.86962 -4.53806,-8.65031 -4.53806,-13.82156 0,-5.17144 1.686,-9.95194 4.53825,-13.82194 l -4.02337,-4.02337 c -0.68588,-0.68588 -0.68607,-1.79982 -1.9e-4,-2.48588 l 2.48587,-2.48569 c 0.68588,-0.68606 1.79982,-0.68587 2.48588,0 h -1.9e-4 l 4.02356,4.02357 c 3.86944,-2.85188 8.64994,-4.53788 13.82138,-4.53788 5.17125,0 9.95194,1.686 13.82062,4.5375 z m -13.82062,2.49319 c 8.99644,0 16.30031,7.30387 16.30031,16.3005 0,8.99644 -7.30387,16.30031 -16.30031,16.30031 -8.99663,0 -16.3005,-7.30387 -16.3005,-16.30031 0,-8.99663 7.30387,-16.3005 16.3005,-16.3005 z"
   style="fill:#959595;stroke-width:0.1875"
   id="path1" />
    </g>
</svg>
