<?xml version="1.0" encoding="UTF-8" standalone="no"?>
<svg
   width="192.00005"
   height="139.6404"
   viewBox="0 0 192.00005 139.6404"
   version="1.1"
   xml:space="preserve"
   style="clip-rule:evenodd;fill-rule:evenodd;stroke-linejoin:round;stroke-miterlimit:2"
   id="svg1"
   xmlns="http://www.w3.org/2000/svg"
   xmlns:svg="http://www.w3.org/2000/svg"><defs
   id="defs1" />
    <g
   transform="matrix(4.3809,0,0,4.3809,-440.11262,-490.93281)"
   id="g1">
        <path
   d="m 144.28831,127.99959 c 0,2.90307 -0.77775,5.62294 -2.13281,7.96875 -1.40138,2.42194 -3.414,4.43457 -5.83594,5.83594 -0.0842,0.0471 -0.16594,0.0941 -0.25012,0.14119 -2.28638,1.26825 -4.917,1.99144 -7.71619,1.99144 h -15.93488 l 2.98726,-7.96857 h -8.96438 l 2.98725,-7.96875 h 18.92475 l -2.98725,7.96875 h 2.98725 c 3.71325,0 6.83175,-2.53912 7.71619,-5.97731 0.16669,-0.65062 0.25087,-1.31981 0.25012,-1.99144 0,-4.39931 -3.567,-7.96875 -7.96875,-7.96875 h -15.93506 l 2.98744,-7.96875 h 12.94762 c 2.90306,0 5.62294,0.77775 7.96875,2.13282 2.42194,1.40137 4.43456,3.414 5.83594,5.83593 1.35506,2.34338 2.13281,5.0655 2.13281,7.96875 z m -34.86468,0 h -8.96194 l 2.98725,-7.96875 h 8.96456 z"
   style="fill:#c82020;fill-rule:nonzero;stroke-width:0.1875"
   id="path1" />
    </g>
</svg>
