<?xml version="1.0" encoding="UTF-8" standalone="no"?>
<svg
   width="192.00015"
   height="240.19205"
   viewBox="0 0 192.00015 240.19205"
   version="1.1"
   xml:space="preserve"
   style="clip-rule:evenodd;fill-rule:evenodd;stroke-linejoin:round;stroke-miterlimit:2"
   id="svg1"
   xmlns="http://www.w3.org/2000/svg"
   xmlns:svg="http://www.w3.org/2000/svg"><defs
   id="defs1" />
    <g
   transform="matrix(4.67367,0,0,4.67367,-831.1508,-1686.1676)"
   id="g1">
        <path
   d="m 177.83688,395.05306 2.37961,-5.71763 h 2.51192 c -0.0663,-1.01365 -0.0992,-1.99416 -0.0992,-2.94154 0,-1.27805 0.055,-2.46774 0.16522,-3.56952 h -4.95757 l 2.37961,-5.71763 h 3.73474 c 3.48115,-10.88436 11.32503,-16.32654 23.53163,-16.32654 4.00995,0 7.82178,0.5067 11.43526,1.52012 v 7.20509 c -3.39302,-1.47641 -6.99568,-2.21439 -10.80728,-2.21439 -7.31508,0 -12.01929,3.27199 -14.1124,9.81572 h 21.78001 l -2.3796,5.71763 h -20.82159 c -0.11022,0.70507 -0.16522,1.65268 -0.16522,2.84236 0,1.36619 0.044,2.58901 0.13208,3.6687 h 18.14445 l -2.34647,5.71763 h -14.54202 c 1.56431,3.966 3.47035,6.72564 5.71763,8.2789 2.24752,1.5535 5.45323,2.33002 9.61759,2.33002 2.97445,0 6.23539,-0.70507 9.78282,-2.11521 v 6.77523 c -3.37117,1.23387 -7.38112,1.8508 -12.0301,1.8508 -12.22869,0 -19.96234,-5.70658 -23.20119,-17.11974 z"
   style="fill:#003f20;fill-rule:nonzero;stroke-width:0.235023"
   id="path1" />
    </g>
</svg>
