<?xml version="1.0" encoding="UTF-8" standalone="no"?>
<svg
   width="192"
   height="192"
   viewBox="0 0 192 192"
   version="1.1"
   xml:space="preserve"
   style="clip-rule:evenodd;fill-rule:evenodd;stroke-linejoin:round;stroke-miterlimit:2"
   id="svg1"
   xmlns="http://www.w3.org/2000/svg"
   xmlns:svg="http://www.w3.org/2000/svg"><defs
   id="defs1" />
    <g
   transform="matrix(4,0,0,4,-513.01,-318.986)"
   id="g1">
        <path
   d="m 152.24953,127.7465 c -13.23272,0 -23.99703,-10.76391 -23.99703,-23.99703 0,-13.232727 10.76431,-24.00297 23.99703,-24.00297 13.23312,0 24.00297,10.764306 24.00297,24.00297 0,13.23906 -10.76985,23.99703 -24.00297,23.99703 z m 0,-38.620321 c -8.05997,0 -14.61735,6.557383 -14.61735,14.617351 0,8.05997 6.55738,14.61775 14.61735,14.61775 8.05997,0 14.61735,-6.55778 14.61735,-14.61775 0,-8.059968 -6.55738,-14.617351 -14.61735,-14.617351 z"
   style="fill:#282828;fill-rule:nonzero;stroke-width:0.395834"
   id="path1" />
    </g>
</svg>
