<?xml version="1.0" encoding="UTF-8" standalone="no"?>
<svg
   width="192"
   height="191.71954"
   viewBox="0 0 192 191.71954"
   version="1.1"
   xml:space="preserve"
   style="clip-rule:evenodd;fill-rule:evenodd;stroke-linejoin:round;stroke-miterlimit:2"
   id="svg1"
   xmlns="http://www.w3.org/2000/svg"
   xmlns:svg="http://www.w3.org/2000/svg"><defs
   id="defs1" />
    <g
   transform="matrix(74.7882,0,0,74.7882,96.000003,607.11191)"
   id="g1">
        <path
   d="M -0.263625,-6.9275 -0.7434375,-7.76075 C -0.79275,-7.8254375 -0.8465625,-7.8865625 -0.9045,-7.94375 -0.971625,-8.010875 -1.0479375,-8.0444375 -1.1334375,-8.0444375 h -0.0915 V -8.11775 h 1.0985625 v 0.073312 h -0.0915 c -0.0855,0 -0.13125,0.033563 -0.1374375,0.1006875 -0.006188,0.062812 0.00525,0.1261875 0.033,0.183 L 0.066,-7.086875 0.5420625,-7.7680625 c 0.030375,-0.056063 0.04575,-0.11475 0.04575,-0.1756875 0,-0.067125 -0.04275,-0.1006875 -0.12825,-0.1006875 h -0.0915 V -8.11775 H 1.283625 v 0.073312 H 1.191938 c -0.085313,0 -0.17025,0.033563 -0.2544375,0.1006875 -0.0695625,0.054937 -0.123375,0.108 -0.1610625,0.1591875 l -0.0238125,0.033 -0.575063,0.824063 H 1.283625 v 0.183 h -1.02 l 0.487125,0.844125 c 0.0354375,0.054938 0.08475,0.1123125 0.1483125,0.172125 0.070875,0.067125 0.148875,0.1006875 0.234375,0.1006875 h 0.0915 V -5.55425 H 0.126375 v -0.073313 h 0.0915 c 0.0855,0 0.13125,-0.033563 0.1374375,-0.1006875 C 0.3615,-5.792 0.3495,-5.856125 0.3204375,-5.913125 L -0.066,-6.58325 -0.529125,-5.9204375 c -0.037875,0.057 -0.0583125,0.12375 -0.0586875,0.1921875 0,0.067125 0.04275,0.1006875 0.12825,0.1006875 h 0.0915 V -5.55425 H -1.283625 v -0.073313 h 0.091687 c 0.085313,0 0.1678125,-0.033563 0.247125,-0.1006875 0.0744375,-0.06225 0.136125,-0.122625 0.184875,-0.1813125 L -0.175875,-6.7445 h -1.10775 v -0.183 z"
   style="fill-rule:nonzero;stroke-width:0.1875"
   id="path1" />
    </g>
</svg>
