<?xml version="1.0" encoding="UTF-8" standalone="no"?>
<svg
   width="192.00003"
   height="198.19168"
   viewBox="0 0 192.00003 198.19168"
   version="1.1"
   xml:space="preserve"
   style="clip-rule:evenodd;fill-rule:evenodd;stroke-linejoin:round;stroke-miterlimit:2"
   id="svg1"
   xmlns="http://www.w3.org/2000/svg"
   xmlns:svg="http://www.w3.org/2000/svg"><defs
   id="defs1" />
    <g
   transform="matrix(4,0,0,4,-399.99998,-412.9032)"
   id="g1">
        <path
   d="m 147.8978,117.90722 c -0.0689,-0.61742 -0.17226,-1.23038 -0.30929,-1.83619 -0.14187,-0.62206 -0.32032,-1.23542 -0.53477,-1.83639 -0.22413,-0.6269 -0.48542,-1.24006 -0.78213,-1.83619 -0.31703,-0.63271 -0.67413,-1.24452 -1.06936,-1.83174 -0.27871,-0.41749 -0.57813,-0.82065 -0.89709,-1.20813 -0.17362,-0.21445 -0.35362,-0.42407 -0.53923,-0.62826 -0.40781,-0.45813 -0.8431,-0.8909 -1.30355,-1.296 -0.20593,-0.18735 -0.41806,-0.36755 -0.63638,-0.54019 -0.38923,-0.31491 -0.79336,-0.61103 -1.21084,-0.88742 -0.51949,-0.34858 -1.05968,-0.66542 -1.61729,-0.94897 -0.0753,-0.0406 -0.15194,-0.0788 -0.22975,-0.11419 -0.59864,-0.29787 -1.21567,-0.55762 -1.84703,-0.77768 -0.60329,-0.2129 -1.21858,-0.39039 -1.84277,-0.53148 -1.21258,-0.27175 -2.45149,-0.40878 -3.69426,-0.40859 H 104.6138 c -0.99774,-5.8e-4 -1.96897,0.32323 -2.76658,0.92265 -0.34974,0.25606 -0.65942,0.56245 -0.91935,0.90929 -0.60271,0.79142 -0.928842,1.75936 -0.927874,2.75419 v 33.03542 c 0,0.30755 0.01335,0.6151 0.03987,0.9182 0.0439,0.61722 0.13838,1.23 0.28258,1.83174 0.30096,1.27955 0.81638,2.4991 1.52458,3.60658 0.0134,0.023 0.0281,0.0451 0.0445,0.066 0.42039,0.66019 0.90755,1.27548 1.45355,1.83619 0.11052,0.11865 0.22549,0.23284 0.34491,0.34258 l 0.004,0.004 c 0.56323,0.54212 1.18065,1.02483 1.84258,1.44077 0.0213,0.0163 0.0434,0.031 0.0666,0.0439 0.56613,0.35768 1.16188,0.66639 1.78065,0.92265 0.59865,0.24755 1.21645,0.44594 1.84723,0.59303 0.60561,0.14303 1.22187,0.2371 1.84258,0.28123 h 0.004 v 0.0395 h 15.69193 v -0.0176 c 0.25936,-0.049 0.49355,-0.18716 0.66175,-0.39039 0.1678,-0.20264 0.25896,-0.45793 0.25741,-0.72097 0.003,-0.258 -0.0869,-0.50883 -0.252,-0.70722 -0.11477,-0.144 -0.26361,-0.25703 -0.43296,-0.32942 -0.0786,-0.043 -0.15658,-0.0869 -0.2342,-0.13181 -0.31335,-0.17516 -0.62148,-0.35961 -0.92361,-0.55355 -0.318,-0.19761 -0.62303,-0.41283 -0.92342,-0.63251 -0.0854,-0.0577 -0.168,-0.11923 -0.24755,-0.18465 -0.23032,-0.17245 -0.45561,-0.35109 -0.67606,-0.53593 -0.20284,-0.1682 -0.40181,-0.34084 -0.59652,-0.51833 -0.27774,-0.25064 -0.546,-0.51135 -0.80438,-0.78193 -0.102,-0.10065 -0.20071,-0.20458 -0.29594,-0.31181 -0.0532,-0.0528 -0.10181,-0.10974 -0.15039,-0.16258 -0.39406,-0.4349 -0.76587,-0.88935 -1.11406,-1.3618 -0.25858,-0.34742 -0.50342,-0.7051 -0.73374,-1.07188 -0.15987,-0.25064 -0.31317,-0.50554 -0.45949,-0.76432 -0.33638,-0.59226 -0.63735,-1.20387 -0.90135,-1.83174 -0.17884,-0.41903 -0.33968,-0.84561 -0.48174,-1.27839 -0.0654,-0.18387 -0.12446,-0.37006 -0.17671,-0.558 -0.0933,-0.30309 -0.17594,-0.60929 -0.24755,-0.91819 -0.0751,-0.30406 -0.14149,-0.61026 -0.19878,-0.91819 -0.11284,-0.60736 -0.19393,-1.22033 -0.24309,-1.8362 -0.0178,-0.22374 -0.031,-0.44767 -0.0397,-0.672 -0.0126,-0.25316 -0.0184,-0.50651 -0.0176,-0.76006 v -5.90865 h -6.12929 c -0.2642,9.7e-4 -0.52046,-0.0904 -0.72446,-0.25819 -0.20342,-0.16723 -0.34142,-0.40103 -0.38961,-0.65981 -0.0606,-0.29884 0.007,-0.60967 0.18561,-0.85664 l 0.0399,-0.0571 0.55683,-0.79084 0.33581,-0.47438 0.40219,-0.57117 1.10478,-1.57258 0.18542,-0.26361 1.29484,-1.83639 0.36677,-0.52258 0.92381,-1.31361 0.92342,-1.30897 0.36677,-0.52277 0.55684,-0.79084 0.73858,-1.04516 0.18542,-0.26381 1.10922,-1.57258 0.73355,-1.04555 0.55684,-0.79064 0.36232,-0.51407 c 0.10452,-0.14942 0.24368,-0.27116 0.40549,-0.35516 0.32864,-0.17071 0.72097,-0.17071 1.04961,0 0.16181,0.084 0.30097,0.20594 0.40549,0.35516 l 0.36232,0.51407 0.55238,0.78638 0.738,1.04981 0.18562,0.25936 0.92342,1.31341 0.18561,0.26362 0.73858,1.04535 0.55684,0.79084 0.36232,0.51832 0.92807,1.31342 0.91916,1.30916 0.37122,0.52723 1.29484,1.83619 0.18097,0.25917 1.10923,1.57722 0.73858,1.04536 0.55684,0.79064 0.0397,0.0573 c 0.17884,0.24697 0.2462,0.55781 0.18562,0.85645 -0.0397,0.20168 -0.13317,0.38904 -0.27078,0.54174 -0.13781,0.1533 -0.31451,0.26671 -0.51135,0.32807 -0.10897,0.0323 -0.2222,0.0486 -0.33581,0.0484 h -6.12484 v 5.50877 c -5.8e-4,0.63058 0.13045,1.25458 0.38458,1.83174 0.14071,0.32362 0.32013,0.62903 0.53458,0.90929 0.48194,0.636 1.11774,1.13962 1.84723,1.46304 0.58277,0.25316 1.2118,0.38341 1.84722,0.38225 0.0794,0 0.1591,0 0.23865,-0.004 0.53748,-0.005 1.07419,-0.0377 1.60839,-0.0966 0.6209,-0.0685 1.23754,-0.17129 1.84722,-0.30755 0.60136,-0.13567 1.19458,-0.3058 1.77639,-0.50961 h 0.0662 v -0.0219 c 0.63155,-0.22007 1.24839,-0.47981 1.84723,-0.77749 0.624,-0.30677 1.22768,-0.65303 1.80735,-1.03683 h 0.0399 v -0.0265 c 0.64936,-0.43065 1.26678,-0.90774 1.84723,-1.42761 0.14013,-0.12233 0.27716,-0.24833 0.4109,-0.37781 0.50981,-0.4829 0.98787,-0.99793 1.43168,-1.542 0.0796,-0.0968 0.15465,-0.19335 0.22974,-0.29439 0.45639,-0.58219 0.87136,-1.19574 1.24181,-1.83619 0.132,-0.22316 0.25723,-0.45019 0.37548,-0.6809 0.19781,-0.37781 0.38052,-0.76336 0.54794,-1.15549 0.12503,-0.30309 0.2429,-0.60929 0.35361,-0.918 0.10936,-0.30096 0.20807,-0.6058 0.29594,-0.91374 0.17419,-0.60387 0.31432,-1.21703 0.4198,-1.83639 0.10375,-0.60754 0.17168,-1.22071 0.20323,-1.83619 H 148 v -3.67297 c -5.9e-4,-0.612 -0.0346,-1.22342 -0.1022,-1.83155 z"
   style="fill:#3749e7;fill-rule:nonzero;stroke-width:0.193548"
   id="path1" />
    </g>
</svg>
