<?xml version="1.0" encoding="UTF-8" standalone="no"?>
<svg
   width="192.00006"
   height="259.95514"
   viewBox="0 0 192.00006 259.95514"
   version="1.1"
   xml:space="preserve"
   style="clip-rule:evenodd;fill-rule:evenodd;stroke-linejoin:round;stroke-miterlimit:2"
   id="svg1"
   xmlns="http://www.w3.org/2000/svg"
   xmlns:svg="http://www.w3.org/2000/svg"><defs
   id="defs1" />
    <g
   transform="matrix(4.91778,0,0,4.91778,-2212.7305,-1529.8224)"
   id="g1">
        <path
   d="m 449.94499,350.26811 h 6.507 v -5.9221 h -6.507 v -6.28767 h 6.507 v -26.97847 h 14.18381 c 5.70277,0 10.18699,1.43788 13.45268,4.31363 3.26569,2.87576 4.89853,6.89694 4.89853,12.06355 0,2.09588 -0.31682,4.15522 -0.95046,6.17799 -0.63364,2.02278 -1.64503,3.85059 -3.03417,5.48343 -1.38913,1.63285 -3.20476,2.93668 -5.44687,3.91152 -2.24211,0.97483 -4.97164,1.46224 -8.18859,1.46224 h -7.82302 v 5.77588 h 7.31124 v 6.28767 h -7.31124 v 7.38435 h -7.09191 v -7.38435 h -6.507 z m 21.42193,-12.64844 c 2.04715,0 3.75311,-0.32901 5.11787,-0.98702 1.36476,-0.65801 2.44926,-1.52317 3.2535,-2.59549 0.80424,-1.07231 1.37695,-2.18119 1.71814,-3.32661 0.34119,-1.14543 0.51179,-2.18119 0.51179,-3.10728 0,-1.41351 -0.32901,-2.87575 -0.98702,-4.38674 -0.65801,-1.51099 -1.73032,-2.77827 -3.21694,-3.80185 -1.48662,-1.02357 -3.49721,-1.53536 -6.03178,-1.53536 h -8.18858 v 19.74035 z"
   style="fill:#003f20;fill-rule:nonzero;stroke-width:0.253862"
   id="path1" />
    </g>
</svg>
