<?xml version="1.0" encoding="UTF-8" standalone="no"?>
<svg
   width="191.99924"
   height="191.99924"
   viewBox="0 0 191.99924 191.99924"
   version="1.1"
   xml:space="preserve"
   style="clip-rule:evenodd;fill-rule:evenodd;stroke-linejoin:round;stroke-miterlimit:2"
   id="svg3"
   xmlns="http://www.w3.org/2000/svg"
   xmlns:svg="http://www.w3.org/2000/svg"><defs
   id="defs3" />
    <g
   transform="matrix(1.23373,0,0,1.23373,-415.99833,-415.99833)"
   id="g3">
        <g
   transform="scale(0.415)"
   id="g1">
            <path
   d="m 1107.6981,1126.2588 c 4.0125,4.0125 6.0244,9.6168 5.4825,15.2643 -0.54,5.6475 -3.5831,10.7663 -8.2837,13.9407 -29.9719,20.205 -66.0638,32.0362 -104.8969,32.0362 -38.83369,0 -74.92575,-11.8312 -104.86462,-32.0831 -4.68769,-3.165 -7.7205,-8.2688 -8.26032,-13.8994 -0.54037,-5.6306 1.46663,-11.2181 5.46675,-15.2175 -0.039,-0.041 -0.0383,-0.041 -0.0377,-0.043 8.39681,-8.3963 21.46556,-9.915 31.56412,-3.6675 22.08375,13.8281 48.18581,21.7856 76.13175,21.7856 27.94692,0 54.04882,-7.9575 76.16632,-21.7312 10.0725,-6.2307 23.1075,-4.7157 31.4831,3.66 0.047,-0.045 0.047,-0.045 0.049,-0.045 z m 18.5607,-233.95674 c 4.0125,-4.01193 9.6168,-6.02493 15.2643,-5.48325 5.6475,0.54132 10.7663,3.58313 13.9407,8.28488 20.205,29.97056 32.0362,66.06262 32.0362,104.89631 0,38.8331 -11.8312,74.925 -32.0831,104.865 -3.165,4.6875 -8.2688,7.7194 -13.8994,8.2594 -5.6306,0.5419 -11.2181,-1.4663 -15.2175,-5.4656 -0.041,0.038 -0.041,0.038 -0.043,0.038 -8.3963,-8.3963 -9.915,-21.4669 -3.6675,-31.5638 13.8281,-22.0837 21.7856,-48.1856 21.7856,-76.1325 0,-27.94594 -7.9575,-54.048 -21.7312,-76.16606 -6.2307,-10.07288 -4.7157,-23.10806 3.66,-31.48294 -0.045,-0.0474 -0.045,-0.0482 -0.045,-0.0489 z m -281.67661,2.83332 c 3.52237,-5.21438 9.41887,-8.34694 15.71156,-8.34694 5.02669,0 9.85256,1.99894 13.407,5.55337 0.0405,-0.039 0.0412,-0.0383 0.042,-0.0377 8.39606,8.39681 9.915,21.46556 3.66844,31.56412 C 863.58213,945.952 855.625,972.05406 855.625,1000 c 0,27.9469 7.95713,54.0488 21.73088,76.1663 6.23043,10.0725 4.71506,23.1075 -3.66,31.4831 0.0461,0.047 0.0454,0.047 0.0446,0.049 -4.01175,4.0125 -9.61537,6.0244 -15.26287,5.4825 -5.6475,-0.5418 -10.76644,-3.5831 -13.94232,-8.2837 C 824.33125,1074.925 812.5,1038.8331 812.5,1000 c 0,-38.83369 11.83125,-74.92575 32.08219,-104.86462 z M 1000,881.875 c 65.1956,0 118.125,52.93013 118.125,118.125 0,65.1956 -52.9294,118.125 -118.125,118.125 -65.19487,0 -118.125,-52.9294 -118.125,-118.125 0,-65.19487 52.93013,-118.125 118.125,-118.125 z m -107.69794,-8.1345 c -3.56512,-3.56494 -5.57025,-8.40525 -5.57025,-13.44712 0,-6.31125 3.14194,-12.22519 8.37188,-15.75807 C 925.07425,824.33125 961.16631,812.5 1000,812.5 c 38.8331,0 74.925,11.83125 104.865,32.08219 4.6875,3.16669 7.7194,8.27025 8.2594,13.90087 0.54,5.63063 -1.4663,11.21775 -5.4656,15.21769 0.038,0.0405 0.038,0.0412 0.038,0.042 -8.3963,8.39606 -21.4669,9.915 -31.5638,3.66844 C 1054.0488,863.58213 1027.9469,855.625 1000,855.625 c -27.94594,0 -54.048,7.95713 -76.16606,21.73088 -10.07288,6.23043 -23.10806,4.71506 -31.48294,-3.66 -0.0474,0.0461 -0.0482,0.0454 -0.0489,0.0446 z"
   style="fill:#208e7a;stroke-width:0.1875"
   id="path1" />
        </g>
        <g
   transform="matrix(2.03201,0,0,2.03201,-1627.21,-1436.95)"
   id="g2">
            <path
   d="m 991.55572,914.1435 c -1.06818,0 -1.2225,-1.422 -1.2225,-2.43 0,-0.936 0.198,-1.593 0.594,-1.971 0.396,-0.378 0.882,-0.567 1.458,-0.567 h 3.294 v -11.178 c 0,-0.648 0.189,-1.161 0.567,-1.539 0.378,-0.378 0.873,-0.657 1.485,-0.837 0.576,-0.18 1.233,-0.342 1.971,-0.486 0.73798,-0.144 1.49398,-0.27 2.26798,-0.378 0.771,-0.10762 1.5454,-0.18881 2.322,-0.243 0.7744,-0.054 1.5038,-0.081 2.1863,-0.081 4.3931,0 7.695,0.9 9.9093,2.7 2.2144,1.8 3.3207,4.248 3.3207,7.344 0,2.916 -1.0163,5.256 -3.0507,7.02 -2.0343,1.764 -5.0662,2.646 -9.0993,2.646 z m 10.98148,7.398 v 3.61481 c 0,0 -0.1241,1.701 -0.7102,2.37619 -0.5209,0.59981 -1.8098,0.81356 -2.42178,0.81356 -1.332,0 -2.286,-0.25312 -2.862,-0.75656 -0.576,-0.504 -0.864,-1.332 -0.864,-2.484 v -3.564 l -3.90956,0.0472 c -0.76744,0.009 -1.16644,-0.61425 -1.27444,-0.99225 -0.108,-0.378 -0.162,-0.783 -0.162,-1.215 0,-0.828 0.171,-1.413 0.513,-1.755 0.342,-0.342 0.765,-0.513 1.269,-0.513 0,0 18.48448,-0.0621 22.56638,0.0765 1.1625,0.0396 1.5375,0.35306 1.7062,0.9225 0.1257,0.41138 0.1894,0.83906 0.1894,1.269 0,0.72 -0.18,1.26 -0.54,1.62 -0.36,0.36 -0.7912,0.54 -1.2956,0.54 z m 4.2656,-12.636 c 1.8732,0 3.33,-0.369 4.3744,-1.107 1.0444,-0.738 1.5656,-1.827 1.5656,-3.267 0,-1.512 -0.5568,-2.646 -1.6743,-3.402 -1.1157,-0.756 -2.6457,-1.134 -4.59,-1.134 -0.6469,0 -1.3125,0.027 -1.9969,0.081 -0.6844,0.054 -1.3324,0.171 -1.9444,0.351 v 8.478 z"
   style="fill:#ffffff;fill-rule:nonzero;stroke-width:0.1875"
   id="path2" />
        </g>
    </g>
</svg>
