<?xml version="1.0" encoding="UTF-8" standalone="no"?>
<svg
   width="192.02119"
   height="191.99911"
   viewBox="0 0 192.02119 191.99911"
   version="1.1"
   xml:space="preserve"
   style="clip-rule:evenodd;fill-rule:evenodd;stroke-linejoin:round;stroke-miterlimit:2"
   id="svg2"
   xmlns="http://www.w3.org/2000/svg"
   xmlns:svg="http://www.w3.org/2000/svg"><defs
   id="defs2" />
    <g
   transform="matrix(3.99977,0,0,3.99977,-415.947,-415.943)"
   id="g2">
        <path
   d="m 151.99527,103.99173 -16.00091,16.00091 h -10.66577 c -2.94519,0 -5.33495,2.38769 -5.33495,5.33289 0,0.59931 0.1,1.17687 0.28166,1.71431 0.2629,0.7737 0.70057,1.47672 1.27888,2.05409 0.96498,0.96704 2.29975,1.56654 3.77235,1.56654 l -5.33308,5.33289 c -3.1629,0 -6.11203,-0.91904 -8.59573,-2.50171 -4.45361,-2.84318 -7.40499,-7.82446 -7.40499,-13.49901 0,-8.83782 7.16327,-16.00091 16.00091,-16.00091 z"
   style="fill:#b2fe92;fill-rule:nonzero;stroke-width:0.18752"
   id="path1" />
        <path
   d="m 151.99527,135.99355 c 0,8.83763 -7.16327,16.00072 -16.00091,16.00072 h -32.00163 l 16.00091,-16.00072 h 10.66783 c 2.9452,0 5.33289,-2.3877 5.33289,-5.33289 0,-0.0759 0,-0.15001 -0.004,-0.2239 0,-0.0519 -0.004,-0.0999 -0.008,-0.14983 0,-0.012 0,-0.0219 -0.004,-0.036 0,-0.0319 -0.004,-0.0658 -0.008,-0.0979 0,-0.0279 -0.004,-0.0559 -0.008,-0.0838 -0.004,-0.0281 -0.006,-0.06 -0.012,-0.0879 0,-0.018 -0.004,-0.036 -0.006,-0.052 -0.006,-0.048 -0.0141,-0.0939 -0.0201,-0.13989 0,-0.004 0,-0.008 -0.004,-0.012 -0.01,-0.06 -0.0199,-0.11795 -0.0339,-0.17777 -0.001,-0.0186 -0.005,-0.0368 -0.012,-0.054 -0.012,-0.06 -0.0261,-0.11983 -0.0399,-0.17984 -0.004,-0.012 -0.006,-0.024 -0.01,-0.036 -0.0144,-0.0562 -0.0298,-0.11214 -0.0459,-0.16783 -0.0202,-0.0705 -0.0422,-0.14045 -0.066,-0.20983 -0.042,-0.12377 -0.09,-0.24772 -0.13989,-0.36754 -0.0332,-0.0782 -0.0684,-0.15546 -0.10595,-0.23178 -0.0336,-0.0726 -0.0696,-0.14383 -0.10782,-0.21396 -0.048,-0.0898 -0.1,-0.17777 -0.14983,-0.26365 -0.0332,-0.0533 -0.0671,-0.10576 -0.10201,-0.15789 -0.0377,-0.0589 -0.0776,-0.11608 -0.11982,-0.17177 -0.0174,-0.0261 -0.0362,-0.0514 -0.0559,-0.076 -0.03,-0.042 -0.0621,-0.0819 -0.096,-0.12395 -0.0279,-0.0379 -0.06,-0.076 -0.0919,-0.11382 -0.0446,-0.0525 -0.09,-0.10445 -0.13595,-0.15583 -0.0559,-0.0621 -0.11176,-0.12189 -0.17177,-0.17984 -0.99836,-1.00285 -2.35732,-1.56635 -3.77234,-1.56448 l 5.33288,-5.33307 c 0.10389,0 0.20777,0 0.31166,0.004 0.078,0 0.15583,0.004 0.2359,0.006 0.21002,0.006 0.41986,0.0174 0.62932,0.0337 0.0679,0.004 0.13783,0.0101 0.2059,0.0182 0.26159,0.0199 0.52336,0.0499 0.7812,0.0838 0.0759,0.01 0.14983,0.0201 0.22578,0.0319 0.1,0.0141 0.20177,0.03 0.30172,0.048 l 0.20983,0.036 c 0.0159,0.004 0.0339,0.004 0.0499,0.01 0.0919,0.0161 0.18584,0.0341 0.27772,0.0521 0.11589,0.0238 0.23384,0.0499 0.34973,0.0758 l 0.0718,0.018 c 0.11795,0.0281 0.23777,0.0561 0.35366,0.0861 0.004,0 0.008,0 0.012,0.004 0.12395,0.0321 0.24584,0.066 0.36773,0.10014 0.12582,0.0358 0.25371,0.0739 0.37766,0.11382 0.11327,0.0339 0.22578,0.0698 0.33773,0.10783 0.0139,0.006 0.0298,0.012 0.0459,0.0161 0.10989,0.0379 0.22165,0.0758 0.33154,0.11776 0.0161,0.004 0.0321,0.012 0.048,0.018 0.11589,0.042 0.23178,0.084 0.34579,0.13182 0.12189,0.046 0.24171,0.096 0.36154,0.14796 0.24715,0.10295 0.49111,0.21358 0.73132,0.33172 0.10933,0.0523 0.2179,0.10632 0.32573,0.16183 0.11588,0.06 0.22971,0.11776 0.34166,0.17983 0.11382,0.06 0.22577,0.12376 0.33772,0.18771 0.11176,0.0639 0.22165,0.12995 0.3336,0.19596 0.10201,0.0619 0.2059,0.12376 0.30566,0.18771 0.0101,0.006 0.018,0.012 0.0281,0.018 0.21433,0.13839 0.42548,0.28165 0.63325,0.42961 0.20909,0.14851 0.41423,0.30247 0.61544,0.46148 0.0919,0.072 0.1819,0.14402 0.27172,0.21996 0.0161,0.0118 0.03,0.0238 0.0459,0.0358 0.28916,0.23965 0.56988,0.48962 0.84122,0.74933 0.0921,0.09 0.18396,0.17777 0.27584,0.26984 0.0919,0.0919 0.17983,0.18171 0.26965,0.27566 0.088,0.0919 0.17384,0.18583 0.26178,0.27978 0.15189,0.16783 0.30172,0.33772 0.44555,0.51155 0.0321,0.0358 0.0621,0.0758 0.0919,0.11383 0.0699,0.0838 0.13801,0.16783 0.20589,0.25371 0.15696,0.19859 0.30885,0.40111 0.45549,0.60738 0.14664,0.20627 0.004,0.004 0.004,0.008 0.076,0.10389 0.14777,0.20984 0.21978,0.31766 0.0718,0.10595 0.14176,0.21377 0.21377,0.32179 0.0679,0.10782 0.13595,0.21377 0.20177,0.32366 0.012,0.0219 0.0261,0.0439 0.0381,0.0639 0.0538,0.0898 0.10782,0.17983 0.15977,0.27172 0.0639,0.11195 0.12788,0.22371 0.18789,0.33772 0.0459,0.0838 0.0919,0.16989 0.13577,0.25578 0.11851,0.22915 0.23177,0.46111 0.33978,0.69532 0.0298,0.064 0.0598,0.12789 0.0878,0.19371 0.0441,0.0979 0.0861,0.19596 0.12789,0.29572 0.0441,0.10595 0.088,0.21377 0.12995,0.31972 0.0399,0.1 0.0799,0.20384 0.11589,0.30566 0.018,0.0461 0.036,0.094 0.0519,0.14195 0.0279,0.0739 0.054,0.14589 0.078,0.21978 0.0499,0.14589 0.0998,0.29365 0.14383,0.44161 0.036,0.10782 0.0679,0.21771 0.0979,0.32572 0.01,0.0279 0.018,0.0579 0.0259,0.0859 0.0321,0.11383 0.0621,0.22784 0.0921,0.34167 0,0.004 0.004,0.008 0.004,0.012 0.0279,0.10782 0.0559,0.21771 0.0799,0.32572 0.0381,0.15977 0.0739,0.32366 0.10801,0.48549 0.0199,0.096 0.0358,0.19183 0.0538,0.28972 0.0201,0.10201 0.036,0.20383 0.0519,0.30566 0.012,0.0741 0.024,0.14795 0.036,0.22389 0.012,0.0898 0.0261,0.17984 0.036,0.26966 0.008,0.0561 0.0139,0.10988 0.0199,0.16595 0.012,0.0938 0.0221,0.18977 0.0321,0.2856 v 0.004 c 0.0141,0.12977 0.0259,0.25765 0.036,0.38761 0,0.012 0,0.0279 0.004,0.042 0.01,0.12189 0.0159,0.24171 0.0219,0.3636 0,0.0159 0,0.0339 0.004,0.052 0.006,0.11795 0.01,0.23571 0.0118,0.35366 v 0.054 c 0.004,0.12789 0.004,0.25578 0.004,0.38367 z"
   style="fill:#078465;fill-rule:nonzero;stroke-width:0.18752"
   id="path2" />
    </g>
</svg>
