<?xml version="1.0" encoding="UTF-8" standalone="no"?>
<svg
   width="192.00085"
   height="254.11958"
   viewBox="0 0 192.00085 254.11958"
   version="1.1"
   xml:space="preserve"
   style="clip-rule:evenodd;fill-rule:evenodd;stroke-linejoin:round;stroke-miterlimit:2"
   id="svg1"
   xmlns="http://www.w3.org/2000/svg"
   xmlns:svg="http://www.w3.org/2000/svg"><defs
   id="defs1" />
    <g
   transform="matrix(4.06892,0,0,4.06892,-408.2052,-384.94063)"
   id="g1">
        <path
   d="m 147.38662,119.71279 c 0.98173,-6.56243 -4.01529,-10.09032 -10.84797,-12.44366 l 2.21635,-8.889702 -5.4117,-1.34852 -2.15778,8.655442 c -1.42272,-0.35463 -2.88391,-0.6889 -4.33591,-1.0202 l 2.17317,-8.712519 -5.40847,-1.348519 -2.21809,8.886728 c -1.17753,-0.26851 -2.33348,-0.53355 -3.45567,-0.81249 l 0.006,-0.0275 -7.46326,-1.86346 -1.4396,5.77947 c 0,0 4.01528,0.92019 3.93041,0.97702 2.19178,0.5472 2.58785,1.99747 2.52159,3.14721 l -2.52457,10.1273 c 0.15089,0.0385 0.34669,0.0938 0.56259,0.18017 -0.18041,-0.0447 -0.37299,-0.0941 -0.57202,-0.14171 l -3.53881,14.18676 c -0.26826,0.66557 -0.94798,1.66443 -2.48014,1.28524 0.0541,0.0787 -3.93339,-0.98174 -3.93339,-0.98174 l -2.68661,6.19416 7.04237,1.75526 c 1.31031,0.32832 2.59406,0.67202 3.85795,0.99563 l -2.23942,8.9912 5.40549,1.34877 2.21808,-8.89591 c 1.43339,0.38862 2.871,0.76161 4.31259,1.11897 l -2.2104,8.85422 5.4117,1.34852 2.23968,-8.97433 c 9.2282,1.74608 16.16734,1.04179 19.08822,-7.3037 2.35359,-6.71976 -0.11713,-10.59583 -4.97244,-13.12337 3.53583,-0.81522 6.19936,-3.141 6.90986,-7.9447 z m -12.36474,17.33669 c -1.67238,6.71977 -12.98738,3.08715 -16.65598,2.17614 l 2.97175,-11.91184 c 3.6686,0.91548 15.43204,2.72806 13.68423,9.7357 z m 1.67386,-17.43397 c -1.52596,6.11251 -10.94351,3.00699 -13.99865,2.24563 l 2.69431,-10.80379 c 3.05514,0.76136 12.89358,2.18235 11.30434,8.55816 z"
   style="fill:#ef4800;fill-rule:nonzero;stroke-width:0.248163"
   id="path1" />
    </g>
</svg>
