<?xml version="1.0" encoding="UTF-8" standalone="no"?>
<svg
   width="286.18246"
   height="286.04123"
   viewBox="0 0 286.18246 286.04123"
   version="1.1"
   xml:space="preserve"
   style="clip-rule:evenodd;fill-rule:evenodd;stroke-linejoin:round;stroke-miterlimit:2"
   id="svg2"
   xmlns="http://www.w3.org/2000/svg"
   xmlns:svg="http://www.w3.org/2000/svg"><defs
   id="defs2" />
    <g
   transform="matrix(3.95941,0,0,3.98627,-363.16886,-366.9804)"
   id="g2">
        <path
   d="m 127.99024,151.95384 c 13.43215,0 24.24619,-10.81404 24.24619,-23.90462 0,-13.09058 -10.81404,-23.90434 -24.24619,-23.90434 -13.43187,0 -24.2459,10.81376 -24.2459,23.90434 0,13.09058 10.81403,23.90462 24.2459,23.90462 z"
   style="fill:#ef4800;fill-rule:nonzero;stroke-width:0.280432"
   id="path1" />
        <path
   d="m 148.31093,153.3818 c 1.30345,1.23474 1.22409,3.34444 -0.27089,4.33913 -14.06229,9.35635 -33.15693,7.98447 -45.64542,-4.39718 -14.228862,-14.115 -14.228862,-36.65364 0,-50.76864 12.42371,-12.423435 31.69923,-13.76278 45.78647,-4.302113 1.42853,0.95964 1.53117,2.972583 0.31437,4.189663 -1.03844,1.03816 -2.68206,1.12117 -3.90923,0.31492 -11.71338,-7.691697 -27.67223,-6.297948 -37.86594,3.89577 -12.065887,11.72432 -12.065887,30.84784 -0.22743,42.57244 10.1954,10.1954 26.15817,11.58803 37.87183,3.89156 1.23194,-0.80961 2.87611,-0.74931 3.94624,0.26445 z m 5.25194,-5.13304 c 1.23559,1.3043 3.34584,1.23166 4.34811,-0.2594 8.15581,-12.1329 8.12132,-28.15092 -0.10376,-40.25102 -0.96385,-1.41758 -2.96698,-1.51237 -4.17929,-0.30006 -1.04433,1.04405 -1.12229,2.69888 -0.30286,3.92746 6.61932,9.9259 6.60923,22.83589 -0.03,32.92753 -0.81241,1.23474 -0.74876,2.88228 0.26781,3.95549 z"
   style="fill:#ef4800;fill-rule:nonzero;stroke-width:0.280432"
   id="path2" />
    </g>
</svg>
