<?xml version="1.0" encoding="UTF-8" standalone="no"?>
<svg
   width="191.99986"
   height="176.54225"
   viewBox="0 0 191.99986 176.54225"
   version="1.1"
   xml:space="preserve"
   style="clip-rule:evenodd;fill-rule:evenodd;stroke-linejoin:round;stroke-miterlimit:2"
   id="svg1"
   xmlns="http://www.w3.org/2000/svg"
   xmlns:svg="http://www.w3.org/2000/svg"><defs
   id="defs1" />
    <g
   transform="matrix(4.33898,0,0,4.33898,-450.71155,-495.32169)"
   id="g1">
        <path
   d="m 130.49194,136.02213 v -0.006 c -0.25219,0.0174 -1.554,0.0936 -4.45088,0.0936 -2.31637,0 -3.94068,-0.0643 -4.51537,-0.0936 v 0.006 c -8.90738,-0.39225 -15.55125,-1.93782 -15.55125,-3.79369 0,-1.84988 6.64969,-3.40125 15.55125,-3.7935 v 6.04744 c 0.58069,0.0411 2.25187,0.14062 4.55644,0.14062 2.76787,0 4.15162,-0.11719 4.40981,-0.14062 v -6.04163 c 8.88975,0.39806 15.51619,1.94362 15.51619,3.79369 0,1.84987 -6.63225,3.39544 -15.51619,3.7935 m 0,-8.21363 v -5.40937 h 12.40237 v -8.24869 h -33.765 v 8.24869 h 12.40238 v 5.40937 c -10.08038,0.46257 -17.65669,2.45307 -17.65669,4.84163 0,2.38856 7.58213,4.37906 17.65669,4.84725 v 17.34056 h 8.96606 v -17.34056 c 10.06256,-0.46238 17.62725,-2.45288 17.62725,-4.84144 0,-2.38275 -7.56469,-4.37906 -17.62725,-4.84162"
   style="fill:#26a17b;fill-rule:nonzero;stroke-width:0.1875"
   id="path1" />
    </g>
</svg>
