<?xml version="1.0" encoding="UTF-8" standalone="no"?>
<svg
   width="191.99983"
   height="375.35532"
   viewBox="0 0 191.99983 375.35532"
   version="1.1"
   xml:space="preserve"
   style="clip-rule:evenodd;fill-rule:evenodd;stroke-linejoin:round;stroke-miterlimit:2"
   id="svg1"
   xmlns="http://www.w3.org/2000/svg"
   xmlns:svg="http://www.w3.org/2000/svg"><defs
   id="defs1" />
    <g
   transform="matrix(3.12899,0,0,3.12899,-700.32485,-837.00554)"
   id="g1">
        <path
   d="m 256.51946,387.46077 h -11.05169 v -14.0208 h -21.64959 v -89.40326 h 21.64959 v -16.53648 h 11.05169 v 16.78391 c 5.99321,0.10997 11.0242,1.04469 15.09299,2.80416 h -0.0411 c 3.16156,1.3196 5.70436,3.72495 7.62879,7.21641 0.85224,1.62201 1.49848,3.25099 1.93835,4.88657 0.43987,1.63594 0.6598,3.31991 0.6598,5.05189 0,7.56024 -2.94162,13.73196 -8.82486,18.51553 -0.71478,0.60481 -1.43653,1.16161 -2.16488,1.67003 -0.72872,0.50878 -1.56044,1.05165 -2.49516,1.62898 2.66671,0.96221 5.10688,2.2338 7.31978,3.81439 2.21327,1.58096 4.1443,3.44344 5.7938,5.5878 2.50175,3.29901 3.75281,7.56023 3.75281,12.78367 0,4.53615 -1.15465,8.74239 -3.46396,12.61873 -2.25433,3.82135 -5.38839,6.81796 -9.40219,8.98981 -4.04129,2.22683 -9.30615,3.42291 -15.79421,3.58786 z m 0,-66.92891 c 0.63231,-0.16495 1.29908,-0.39845 2.0003,-0.70086 0.70086,-0.3024 1.43617,-0.6598 2.20594,-1.07217 0.87974,-0.46736 1.73199,-1.15466 2.55674,-2.06189 0.82475,-0.90723 1.56703,-2.02083 2.22683,-3.34043 0.65981,-1.3471 1.16162,-2.62528 1.50545,-3.83492 0.34347,-1.20964 0.51538,-2.37822 0.51538,-3.50539 0,-2.77667 -1.14109,-5.12703 -3.42291,-7.05145 -1.3196,-1.29212 -3.84885,-2.21327 -7.58773,-2.76311 z m -11.05169,-24.57765 h -7.25783 v 25.5263 h 7.25783 z m 11.05169,65.65037 c 0.96221,-0.055 1.89034,-0.15799 2.78364,-0.30938 0.89366,-0.15102 1.78,-0.36399 2.65973,-0.63891 0.96222,-0.30241 1.84195,-0.68069 2.63921,-1.13412 0.79727,-0.4538 1.52598,-0.98274 2.18578,-1.58756 h -0.0414 c 2.47426,-2.39179 3.71139,-5.33341 3.71139,-8.82486 0,-2.66671 -0.76977,-5.20988 -2.30931,-7.62915 h 0.0414 c -1.40208,-2.14436 -3.6564,-3.95882 -6.76297,-5.44338 -1.677,-0.82475 -3.31294,-1.47062 -4.90747,-1.93798 z M 238.20994,333.23306 V 361.646 h 7.25783 v -28.41294 z"
   style="fill:#003f20;fill-rule:nonzero;stroke-width:0.366557"
   id="path1" />
    </g>
</svg>
