<?xml version="1.0" encoding="UTF-8" standalone="no"?>
<svg
   width="192"
   height="192"
   viewBox="0 0 192 192"
   version="1.1"
   xml:space="preserve"
   style="clip-rule:evenodd;fill-rule:evenodd;stroke-linejoin:round;stroke-miterlimit:2"
   id="svg4"
   xmlns="http://www.w3.org/2000/svg"
   xmlns:svg="http://www.w3.org/2000/svg"><defs
   id="defs4" />
    <g
   transform="matrix(4,0,0,4,96,96)"
   id="g4">
        <g
   transform="translate(-128,-128)"
   id="g3">
            <g
   transform="scale(0.128)"
   id="g1">
                <path
   d="m 1107.6981,1126.2588 c 4.0125,4.0125 6.0244,9.6168 5.4825,15.2643 -0.54,5.6475 -3.5831,10.7663 -8.2837,13.9406 -29.9719,20.2051 -66.0638,32.0363 -104.8969,32.0363 -38.83369,0 -74.92575,-11.8312 -104.86463,-32.0831 -4.68768,-3.165 -7.7205,-8.2688 -8.26031,-13.8994 -0.54037,-5.6306 1.46663,-11.2181 5.46675,-15.2175 -0.039,-0.041 -0.0383,-0.041 -0.0377,-0.043 8.39682,-8.3963 21.46557,-9.915 31.56413,-3.6675 22.08375,13.8281 48.18581,21.7856 76.13175,21.7856 27.94691,0 54.04881,-7.9575 76.16631,-21.7312 10.0725,-6.2307 23.1075,-4.7157 31.4831,3.66 0.047,-0.045 0.047,-0.045 0.049,-0.045 z m 18.5607,-233.95674 c 4.0125,-4.01194 9.6168,-6.02494 15.2643,-5.48325 5.6475,0.54132 10.7663,3.58313 13.9406,8.28488 20.2051,29.97056 32.0363,66.06262 32.0363,104.89631 0,38.8331 -11.8312,74.925 -32.0831,104.865 -3.165,4.6875 -8.2688,7.7194 -13.8994,8.2594 -5.6306,0.5419 -11.2181,-1.4663 -15.2175,-5.4656 -0.041,0.038 -0.041,0.038 -0.043,0.038 -8.3963,-8.3963 -9.915,-21.4669 -3.6675,-31.5638 13.8281,-22.0837 21.7856,-48.1856 21.7856,-76.1325 0,-27.94594 -7.9575,-54.048 -21.7312,-76.16606 -6.2307,-10.07288 -4.7157,-23.10807 3.66,-31.48294 -0.045,-0.0474 -0.045,-0.0482 -0.045,-0.0489 z m -281.67661,2.83331 c 3.52237,-5.21437 9.41887,-8.34693 15.71156,-8.34693 5.02669,0 9.85256,1.99893 13.407,5.55337 0.0405,-0.039 0.0412,-0.0383 0.042,-0.0377 8.39606,8.39682 9.915,21.46557 3.66844,31.56413 C 863.58213,945.952 855.625,972.05406 855.625,1000 c 0,27.9469 7.95713,54.0488 21.73087,76.1663 6.23044,10.0725 4.71507,23.1075 -3.66,31.4831 0.0461,0.047 0.0454,0.047 0.0446,0.049 -4.01175,4.0125 -9.61537,6.0244 -15.26288,5.4825 -5.6475,-0.5418 -10.76643,-3.5831 -13.94231,-8.2837 C 824.33125,1074.925 812.5,1038.8331 812.5,1000 c 0,-38.83369 11.83125,-74.92575 32.08219,-104.86463 z M 1000,881.875 c 65.1956,0 118.125,52.93012 118.125,118.125 0,65.1956 -52.9294,118.125 -118.125,118.125 -65.19488,0 -118.125,-52.9294 -118.125,-118.125 0,-65.19488 52.93012,-118.125 118.125,-118.125 z m -107.69794,-8.1345 c -3.56512,-3.56494 -5.57025,-8.40525 -5.57025,-13.44713 0,-6.31125 3.14194,-12.22518 8.37188,-15.75806 C 925.07425,824.33125 961.16631,812.5 1000,812.5 c 38.8331,0 74.925,11.83125 104.865,32.08219 4.6875,3.16668 7.7194,8.27025 8.2594,13.90087 0.54,5.63063 -1.4663,11.21775 -5.4656,15.21769 0.038,0.0405 0.038,0.0412 0.038,0.042 -8.3963,8.39606 -21.4669,9.915 -31.5638,3.66844 C 1054.0488,863.58213 1027.9469,855.625 1000,855.625 c -27.94594,0 -54.048,7.95713 -76.16606,21.73087 -10.07288,6.23044 -23.10807,4.71507 -31.48294,-3.66 -0.0474,0.0461 -0.0482,0.0454 -0.0489,0.0446 z"
   style="fill:#208e7a;stroke-width:0.1875"
   id="path1" />
            </g>
            <g
   transform="matrix(0.49705,0,0,0.49705,-374.924,-322.765)"
   id="g2">
                <path
   d="m 1022.3238,905.56948 c 0.4069,-0.48862 0.7631,-1.03181 1.0669,-1.62975 0.6637,-1.30725 0.9937,-2.68331 0.9937,-4.12743 v -2.63832 c 0,-2.7705 -1.0819,-4.995 -3.2381,-6.67706 -1.9594,-1.52719 -4.5056,-2.34994 -7.6631,-2.40187 v -4.11338 c 0,-0.74887 -0.6169,-1.365 -1.365,-1.36519 h -3.585 c -0.7489,0 -1.3652,0.61632 -1.3652,1.36519 v 4.11075 h -5.3543 c -2.62424,0 -4.75142,2.12738 -4.75142,4.75144 v 28.22531 c 0,1.36388 0.44943,2.45869 1.29581,3.30506 0.84656,0.8475 1.94141,1.29563 3.30521,1.29563 h 5.5047 v 4.11187 c 0,0.75375 0.6112,1.365 1.3652,1.365 h 3.585 c 0.7481,0 1.365,-0.61687 1.365,-1.365 v -4.11187 h 2.1187 c 3.3563,0 6,-0.97313 7.9613,-2.84025 1.9893,-1.89375 3.0131,-4.39781 3.0131,-7.53506 v -2.3895 c 0,-1.98188 -0.5925,-3.71363 -1.7625,-5.20013 -0.6938,-0.88256 -1.5225,-1.59525 -2.49,-2.13544 z m -2.1619,7.33557 v 2.3895 c 0,1.30312 -0.4087,2.35912 -1.2731,3.1485 -0.9188,0.83756 -2.1881,1.21106 -3.7838,1.21106 h -11.6283 v -10.01363 h 12.624 c 1.2562,0 2.28,0.291 3.0487,0.94444 0.6844,0.58256 1.0125,1.3605 1.0125,2.32013 z m -16.6852,-9.08157 v -9.71493 h 9.6858 c 1.4982,0 2.7263,0.30037 3.6657,0.96768 0.7518,0.53325 1.1418,1.22682 1.1418,2.09775 v 2.63832 c 0,1.22643 -0.3225,2.22112 -1.035,2.95931 -0.6956,0.72037 -1.6293,1.05187 -2.7768,1.05187 z"
   style="fill:#ffffff;fill-rule:nonzero;stroke-width:0.1875"
   id="path2" />
            </g>
        </g>
    </g>
</svg>
