<?xml version="1.0" encoding="UTF-8" standalone="no"?>
<svg
   width="192"
   height="79.121277"
   viewBox="0 0 192 79.121277"
   version="1.1"
   xml:space="preserve"
   style="clip-rule:evenodd;fill-rule:evenodd;stroke-linejoin:round;stroke-miterlimit:2"
   id="svg3"
   xmlns="http://www.w3.org/2000/svg"
   xmlns:svg="http://www.w3.org/2000/svg"><defs
   id="defs3" />
    <g
   transform="matrix(4,0,0,4,95.984,39.06282)"
   id="g3">
        <g
   transform="translate(-128,-53)"
   id="g2">
            <clipPath
   id="_clip1">
                <rect
   x="0"
   y="0"
   width="256"
   height="106"
   id="rect1" />
            </clipPath>
            <g
   clip-path="url(#_clip1)"
   id="g1">
                <path
   d="m 116.23631,47.669795 h 3.61463 c 0.16912,0 0.30562,0.136125 0.30562,0.304687 v 9.923063 c 0,0.16875 -0.1365,0.304687 -0.30562,0.304687 h -3.61463 c -0.16912,0 -0.30562,-0.136125 -0.30562,-0.304687 v -9.923063 c 0,-0.168562 0.1365,-0.304687 0.30562,-0.304687 z m 13.29432,-0.176063 c 1.78387,0 3.14606,0.462 4.08525,1.386375 0.91593,0.90075 1.37324,2.188688 1.37324,3.861563 v 5.154375 c 0,0.16875 -0.13649,0.304687 -0.30562,0.304687 h -3.61444 c -0.16912,0 -0.30562,-0.136125 -0.30562,-0.304687 v -5.084438 c 0,-1.205625 -0.88032,-1.807875 -2.64075,-1.807875 -1.76044,0 -2.64056,0.603375 -2.64056,1.807875 v 5.084438 c 0,0.16875 -0.13669,0.304687 -0.30563,0.304687 h -3.61462 c -0.16913,0 -0.30563,-0.136125 -0.30563,-0.304687 V 47.97317 c 0,-0.16875 0.1365,-0.304875 0.30563,-0.304875 h 3.61462 c 0.16894,0 0.30563,0.136125 0.30563,0.304875 v 0.871312 c 0.93825,-0.9 2.28806,-1.35075 4.0485,-1.35075 z m 22.47337,0.30975 c -5.6e-4,-0.165 -0.13463,-0.3015 -0.29962,-0.304687 -0.68363,-0.01837 -2.23819,0.116812 -3.25894,0.8085 -0.24563,0.1665 -0.483,0.336187 -0.69394,0.538125 v 0.0021 c -1.20506,-0.901875 -2.92575,-1.35375 -5.16806,-1.35375 -2.30044,0 -4.062,0.480375 -5.28244,1.439063 -1.17356,0.936562 -1.76044,2.270062 -1.76044,4.00275 0,1.73175 0.58688,3.066375 1.76044,4.00275 0.7845,0.6165 1.79306,1.033875 3.02381,1.254375 v 9.37e-4 c 0.71513,0.133125 1.5495,0.201188 2.54794,0.191063 0.282,-0.0086 0.56362,-0.02513 0.8445,-0.04988 0.22106,-0.01669 0.44137,-0.03975 0.66112,-0.069 0.13163,-0.01594 0.26307,-0.03356 0.39432,-0.05288 0.29719,-0.04462 0.57844,0.162937 0.62343,0.460125 0.0435,0.297187 -0.16518,0.577687 -0.46237,0.621562 -0.79781,0.117938 -1.66687,0.189 -2.32594,0.189 -0.78337,0 -1.515,-0.05288 -2.19337,-0.158437 -0.4455,-0.06788 -0.88613,-0.164625 -1.31925,-0.2895 -0.156,-0.04481 -0.32213,0.042 -0.37407,0.195937 l -0.89231,2.66925 c -0.0506,0.152625 0.0276,0.320625 0.17719,0.379875 1.14,0.458063 2.42156,0.6255 3.64219,0.692625 1.68093,0.09244 3.49237,0.05288 5.12943,-0.363562 0.40144,-0.101625 0.80176,-0.235688 1.1655,-0.428625 0.24038,-0.126938 0.46557,-0.280313 0.66432,-0.466313 0.45525,-0.426562 0.74981,-1.0065 0.89025,-1.613812 0.28931,-1.24425 0.12225,-2.77275 -1.08807,-3.465375 -0.0416,-0.02344 -0.0864,-0.04687 -0.13237,-0.069 0.89756,-0.906 1.34681,-2.116875 1.34681,-3.631125 0,-0.674438 -0.0906,-1.28775 -0.26793,-1.84125 0.30262,-0.05906 0.64687,-0.09056 1.03518,-0.09056 0.47457,0 0.88519,0.04369 1.23169,0.132188 0.0242,0.0062 0.0491,0.0092 0.0743,0.0092 0.16706,0 0.30469,-0.137625 0.30469,-0.304687 0,0 0,-1.88e-4 0,-1.88e-4 z m -9.42056,3.201375 c 1.87744,0 2.81681,0.643875 2.81681,1.930688 0,1.287937 -0.93937,1.930875 -2.81681,1.930875 -1.87875,0 -2.817,-0.644063 -2.817,-1.930875 0,-1.286813 0.93825,-1.930688 2.817,-1.930688 z m -27.75206,-0.305625 v -2.725125 c 0,-0.168562 -0.13632,-0.304687 -0.30563,-0.304687 h -3.91912 v -4.12875 c 0,-0.208125 -0.20475,-0.354375 -0.40238,-0.289313 l -3.61462,1.203563 c -0.12432,0.04125 -0.20888,0.15825 -0.20888,0.289312 v 2.926125 h -2.07112 c -0.16913,0 -0.30563,0.136125 -0.30563,0.304688 v 2.724187 c 0,0.168563 0.1365,0.304688 0.30563,0.304688 h 2.07112 v 3.344437 c 0,1.4625 0.48694,2.510625 1.461,3.1425 0.927,0.59625 2.43581,0.89475 4.52531,0.89475 0.78563,0 1.52307,-0.06094 2.21475,-0.181875 0.144,-0.02625 0.24975,-0.153 0.24975,-0.299437 v -2.8845 c 0,-0.190875 -0.17437,-0.334125 -0.36281,-0.298688 -0.55612,0.103688 -1.08094,0.1545 -1.57387,0.1545 -0.78657,0 -1.35,-0.07125 -1.69013,-0.211312 -0.39937,-0.151313 -0.59812,-0.43275 -0.59812,-0.841875 v -2.818688 h 3.91912 c 0.16931,0 0.30563,-0.136125 0.30563,-0.304687 z m 5.01956,-4.124437 h -3.61463 c -0.16912,0 -0.30562,-0.136125 -0.30562,-0.304688 v -2.731125 c 0,-0.16875 0.1365,-0.304687 0.30562,-0.304687 h 3.61463 c 0.16912,0 0.30562,0.136125 0.30562,0.304687 v 2.731125 c 0,0.167625 -0.13743,0.304688 -0.30562,0.304688 z"
   style="fill:#ff9920;fill-rule:nonzero;stroke-width:0.1875"
   id="path1" />
            </g>
        </g>
    </g>
</svg>
