<?xml version="1.0" encoding="UTF-8" standalone="no"?>
<svg
   width="191.99997"
   height="255.62456"
   viewBox="0 0 191.99997 255.62456"
   version="1.1"
   xml:space="preserve"
   style="clip-rule:evenodd;fill-rule:evenodd;stroke-linejoin:round;stroke-miterlimit:2"
   id="svg1"
   xmlns="http://www.w3.org/2000/svg"
   xmlns:svg="http://www.w3.org/2000/svg"><defs
   id="defs1" />
    <g
   transform="matrix(4.02784,0,0,4.02784,-288.18948,-387.71297)"
   id="g1">
        <path
   d="m 71.549387,110.8161 c 0,-2.28887 1.859832,-4.14745 4.151451,-4.14745 H 95.383625 L 105.5746,96.945695 c 0.96052,-0.916547 2.49202,-0.916547 3.45254,0 l 10.19047,9.723205 v 38.26611 c 0,2.41581 -1.96278,4.37684 -4.38108,4.37684 H 95.383125 l -10.190471,9.72345 c -0.960526,0.91655 -2.49227,0.91655 -3.452796,0 l -10.190471,-9.7237 z m 30.628133,14.92738 c -0.45927,0.45853 -1.21465,0.45853 -1.67392,0 l -7.5e-4,-7.5e-4 -3.277134,-3.27313 c -1.016748,-1.01625 -2.668683,-1.01625 -3.685431,0 l -3.276883,3.27388 c -0.459773,0.45828 -1.214401,0.45828 -1.674174,0 l -7.5e-4,-7.5e-4 -3.279132,-3.27588 c -1.017497,-1.0165 -2.668683,-1.0165 -3.68618,0 l -3.686181,3.68243 c -1.016749,1.01625 -1.016749,2.66594 0,3.68244 l 3.686181,3.68168 c 1.017497,1.0165 2.668683,1.0165 3.68618,0 l 3.279882,-3.27663 c 0.457774,-0.45678 1.210403,-0.45653 1.667677,7.5e-4 h 0.0015 l 3.281881,3.27888 c 1.016748,1.01625 2.668683,1.01625 3.685431,0 l 3.282133,-3.27888 c 0.45852,-0.45753 1.2119,-0.45753 1.67042,0 l 3.27938,3.27588 c 1.01725,1.0165 2.66869,1.0165 3.68593,0 l 3.68619,-3.68168 c 1.01674,-1.0165 1.01674,-2.66619 0,-3.68244 l -3.68619,-3.68243 c -1.01724,-1.0165 -2.66868,-1.0165 -3.68593,0 z"
   style="fill:#f1a200;stroke-width:0.249877"
   id="path1" />
    </g>
</svg>
