<?xml version="1.0" encoding="UTF-8" standalone="no"?>
<svg
   width="384"
   height="384.00003"
   viewBox="0 0 384 384.00003"
   version="1.1"
   xml:space="preserve"
   style="clip-rule:evenodd;fill-rule:evenodd;stroke-linejoin:round;stroke-miterlimit:2"
   id="svg2"
   xmlns="http://www.w3.org/2000/svg"
   xmlns:svg="http://www.w3.org/2000/svg"><defs
   id="defs2" />
    <g
   transform="matrix(4,0,0,4,-320,-320.00003)"
   id="g1">
        <path
   d="m 113.87412,82.118758 c 4.464,-1.378125 9.21601,-2.11875 14.12588,-2.11875 V 128.00001 H 80 c 0,-4.92338 0.740625,-9.66188 2.11875,-14.13263 4.656,-15.147372 16.608,-27.099372 31.75537,-31.748622 z"
   style="fill:#a2c4b8;fill-rule:nonzero;stroke-width:0.375"
   id="path1" />
    </g>
    <g
   transform="matrix(4,0,0,4,-320,-320.00003)"
   id="g2">
        <path
   d="m 128,152.00001 c 0,6.63075 -2.688,12.63075 -7.02863,16.96462 -2.0505,2.05575 -4.45762,3.7215 -7.10399,4.91663 -3.10125,1.39912 -6.465,2.12175 -9.86738,2.11875 -6.63075,0 -12.63075,-2.688 -16.971375,-7.03538 C 82.688,164.63076 80,158.63076 80,152.00001 c 0,-3.51788 0.76125,-6.85725 2.11875,-9.86738 1.1925,-2.646 2.856375,-5.05312 4.909875,-7.104 C 91.376,130.68126 97.376,128.00001 104,128.00001 c 0,6.63075 2.688,12.63075 7.02863,16.96462 4.34737,4.34738 10.34737,7.03538 16.97137,7.03538 z m 48,-24 H 128 V 80.000008 c 4.91662,0 9.65475,0.740625 14.11875,2.11875 h 0.007 c 15.14738,4.64925 27.09938,16.60125 31.75538,31.748622 1.38487,4.47075 2.11875,9.21638 2.11875,14.13263 z m 0,0 v 24 c 0,6.63075 -2.688,12.63075 -7.02863,16.96462 -4.34737,4.34738 -10.34737,7.03538 -16.97137,7.03538 -3.40238,0.003 -6.76613,-0.71963 -9.86737,-2.11875 -2.64413,-1.1985 -5.05088,-2.86388 -7.10401,-4.91663 C 130.688,164.63076 128,158.63076 128,152.00001 v -24 z"
   style="fill:#099250;fill-rule:nonzero;stroke-width:0.375"
   id="path2" />
    </g>
</svg>
