<?xml version="1.0" encoding="UTF-8" standalone="no"?>
<svg
   width="192.00012"
   height="295.44092"
   viewBox="0 0 192.00012 295.44092"
   version="1.1"
   xml:space="preserve"
   style="clip-rule:evenodd;fill-rule:evenodd;stroke-linejoin:round;stroke-miterlimit:2"
   id="svg1"
   xmlns="http://www.w3.org/2000/svg"
   xmlns:svg="http://www.w3.org/2000/svg"><defs
   id="defs1" />
    <g
   transform="matrix(4.36557,0,0,4.36557,-1320.9919,-1755.0634)"
   id="g1">
        <path
   d="m 322.63587,462.84223 c -5.78821,-0.21638 -10.3257,-1.57558 -13.6119,-4.0776 -3.28649,-2.50172 -5.43016,-6.25474 -6.43074,-11.25876 l 9.25041,-1.78505 c 0.56808,3.11049 1.71753,5.40968 3.44863,6.89727 1.7311,1.48758 4.17916,2.36669 7.3436,2.63703 v -17.28385 c -1.21696,-0.29746 -2.50201,-0.64223 -3.85429,-1.03461 -1.35256,-0.3921 -2.63732,-0.81131 -3.85428,-1.25765 -1.21725,-0.44633 -2.21812,-0.8993 -3.00259,-1.3592 -2.40709,-1.37939 -4.21262,-3.08366 -5.41631,-5.11221 -1.20369,-2.02856 -1.80554,-4.54413 -1.80554,-7.54643 0,-4.40882 1.53491,-7.82369 4.60501,-10.24463 3.0701,-2.42094 7.51267,-3.75302 13.328,-3.99624 v -5.39641 h 4.62549 v 5.39641 c 3.354,0.16214 6.20743,0.68955 8.56057,1.58222 2.35342,0.89267 4.29398,2.31938 5.82225,4.28043 1.52827,1.96104 2.71176,4.605 3.55019,7.93188 l -9.49391,1.50115 c -0.45989,-2.40738 -1.35256,-4.2735 -2.67801,-5.59894 -1.32515,-1.32545 -3.2458,-2.13675 -5.76109,-2.4345 v 15.53948 c 1.21696,0.24351 2.52885,0.55453 3.93536,0.93306 1.40652,0.37882 2.94835,0.86555 4.62521,1.46076 3.67858,1.32515 6.39034,3.17137 8.135,5.53807 1.74465,2.36669 2.61684,5.36236 2.61684,8.9867 0,4.76051 -1.6431,8.48641 -4.92959,11.17798 -3.2862,2.69128 -8.08076,4.17223 -14.38282,4.44257 v 6.93795 h -4.62549 z m -8.52017,-41.3435 c 0,1.35257 0.25707,2.46162 0.77092,3.32717 0.56808,1.0277 1.42671,1.83929 2.57645,2.43421 1.14944,0.59521 2.8739,1.24437 5.1728,1.94749 v -14.68721 c -5.68002,0.37854 -8.52017,2.70484 -8.52017,6.97834 z m 23.08591,25.80431 c 0,-1.48759 -0.27726,-2.70484 -0.83179,-3.65146 -0.55453,-0.94691 -1.3592,-1.7311 -2.41402,-2.35343 -1.08193,-0.59492 -3.3136,-1.36583 -6.69444,-2.31245 v 16.26942 c 3.27264,-0.21638 5.74753,-0.99393 7.42468,-2.33294 1.67685,-1.33871 2.51557,-3.21176 2.51557,-5.61914 z"
   style="fill:#003f20;fill-rule:nonzero;stroke-width:0.288516"
   id="path1" />
    </g>
</svg>
