<?xml version="1.0" encoding="UTF-8" standalone="no"?>
<svg
   width="192"
   height="192"
   viewBox="0 0 192 192"
   version="1.1"
   xml:space="preserve"
   style="clip-rule:evenodd;fill-rule:evenodd;stroke-linejoin:round;stroke-miterlimit:2"
   id="svg2"
   xmlns="http://www.w3.org/2000/svg"
   xmlns:svg="http://www.w3.org/2000/svg"><defs
   id="defs2" />
    <g
   transform="matrix(0.512,0,0,0.512,-416,-416)"
   id="g1">
        <path
   d="m 1107.6981,1126.2588 c 4.0125,4.0125 6.0244,9.6168 5.4825,15.2643 -0.54,5.6475 -3.5831,10.7663 -8.2837,13.9406 -29.9719,20.2051 -66.0638,32.0363 -104.8969,32.0363 -38.83369,0 -74.92575,-11.8312 -104.86463,-32.0831 -4.68768,-3.165 -7.7205,-8.2688 -8.26031,-13.8994 -0.54037,-5.6306 1.46663,-11.2181 5.46675,-15.2175 -0.039,-0.041 -0.0383,-0.041 -0.0377,-0.043 8.39682,-8.3963 21.46557,-9.915 31.56413,-3.6675 22.08375,13.8281 48.18581,21.7856 76.13175,21.7856 27.94691,0 54.04881,-7.9575 76.16631,-21.7312 10.0725,-6.2307 23.1075,-4.7157 31.4831,3.66 0.047,-0.045 0.047,-0.045 0.049,-0.045 z m 18.5607,-233.95674 c 4.0125,-4.01194 9.6168,-6.02494 15.2643,-5.48325 5.6475,0.54132 10.7663,3.58313 13.9406,8.28488 20.2051,29.97056 32.0363,66.06262 32.0363,104.89631 0,38.8331 -11.8312,74.925 -32.0831,104.865 -3.165,4.6875 -8.2688,7.7194 -13.8994,8.2594 -5.6306,0.5419 -11.2181,-1.4663 -15.2175,-5.4656 -0.041,0.038 -0.041,0.038 -0.043,0.038 -8.3963,-8.3963 -9.915,-21.4669 -3.6675,-31.5638 13.8281,-22.0837 21.7856,-48.1856 21.7856,-76.1325 0,-27.94594 -7.9575,-54.048 -21.7312,-76.16606 -6.2307,-10.07288 -4.7157,-23.10807 3.66,-31.48294 -0.045,-0.0474 -0.045,-0.0482 -0.045,-0.0489 z m -281.67661,2.83331 c 3.52237,-5.21437 9.41887,-8.34693 15.71156,-8.34693 5.02669,0 9.85256,1.99893 13.407,5.55337 0.0405,-0.039 0.0412,-0.0383 0.042,-0.0377 8.39606,8.39682 9.915,21.46557 3.66844,31.56413 C 863.58213,945.952 855.625,972.05406 855.625,1000 c 0,27.9469 7.95713,54.0488 21.73087,76.1663 6.23044,10.0725 4.71507,23.1075 -3.66,31.4831 0.0461,0.047 0.0454,0.047 0.0446,0.049 -4.01175,4.0125 -9.61537,6.0244 -15.26288,5.4825 -5.6475,-0.5418 -10.76643,-3.5831 -13.94231,-8.2837 C 824.33125,1074.925 812.5,1038.8331 812.5,1000 c 0,-38.83369 11.83125,-74.92575 32.08219,-104.86463 z M 1000,881.875 c 65.1956,0 118.125,52.93012 118.125,118.125 0,65.1956 -52.9294,118.125 -118.125,118.125 -65.19488,0 -118.125,-52.9294 -118.125,-118.125 0,-65.19488 52.93012,-118.125 118.125,-118.125 z m -107.69794,-8.1345 c -3.56512,-3.56494 -5.57025,-8.40525 -5.57025,-13.44713 0,-6.31125 3.14194,-12.22518 8.37188,-15.75806 C 925.07425,824.33125 961.16631,812.5 1000,812.5 c 38.8331,0 74.925,11.83125 104.865,32.08219 4.6875,3.16668 7.7194,8.27025 8.2594,13.90087 0.54,5.63063 -1.4663,11.21775 -5.4656,15.21769 0.038,0.0405 0.038,0.0412 0.038,0.042 -8.3963,8.39606 -21.4669,9.915 -31.5638,3.66844 C 1054.0488,863.58213 1027.9469,855.625 1000,855.625 c -27.94594,0 -54.048,7.95713 -76.16606,21.73087 -10.07288,6.23044 -23.10807,4.71507 -31.48294,-3.66 -0.0474,0.0461 -0.0482,0.0454 -0.0489,0.0446 z"
   style="fill:#208e7a;stroke-width:0.1875"
   id="path1" />
    </g>
    <g
   transform="matrix(0.512,0,0,0.512,-413.868,-421.332)"
   id="g2">
        <path
   d="m 1048.1792,1038.1483 c 0,-27.3431 -16.4063,-36.7181 -49.21875,-40.62375 -23.4375,-3.12562 -28.125,-9.375 -28.125,-20.31375 0,-10.93875 7.81312,-17.96812 23.4375,-17.96812 14.06245,0 21.87565,4.6875 25.78125,16.40625 0.7819,2.34375 3.1256,3.90562 5.4694,3.90562 h 12.4987 c 3.1256,0 5.4694,-2.34375 5.4694,-5.4675 v -0.78187 c -3.1256,-17.18813 -17.1881,-30.46875 -35.1563,-32.03063 v -18.75 c 0,-3.12562 -2.3437,-5.46937 -6.2493,-6.25125 h -11.71878 c -3.12562,0 -5.46937,2.34375 -6.25125,6.25125 v 17.96813 c -23.4375,3.12562 -38.28,18.75 -38.28,38.28187 0,25.78125 15.62438,35.93625 48.43688,39.84375 21.87565,3.9056 28.90685,8.5931 28.90685,21.0938 0,12.5006 -10.9387,21.0937 -25.78123,21.0937 -20.31375,0 -27.345,-8.595 -29.68875,-20.3137 -0.78,-3.1238 -3.12375,-4.6875 -5.4675,-4.6875 h -13.2825 c -3.12375,0 -5.4675,2.3437 -5.4675,5.4693 v 0.7819 c 3.12375,19.53 15.62438,33.5925 41.40563,37.5 v 18.75 c 0,3.1238 2.34375,5.4675 6.24937,6.2494 h 11.71878 c 3.1256,0 5.4693,-2.3438 6.2512,-6.2494 v -18.75 c 23.4375,-3.9075 39.0619,-20.3137 39.0619,-41.4075 z"
   style="fill:#ffffff;fill-rule:nonzero;stroke-width:0.1875"
   id="path2" />
    </g>
</svg>
