<?xml version="1.0" encoding="UTF-8" standalone="no"?>
<svg
   width="192.00089"
   height="254.11926"
   viewBox="0 0 192.00089 254.11926"
   version="1.1"
   xml:space="preserve"
   style="clip-rule:evenodd;fill-rule:evenodd;stroke-linejoin:round;stroke-miterlimit:2"
   id="svg1"
   xmlns="http://www.w3.org/2000/svg"
   xmlns:svg="http://www.w3.org/2000/svg"><defs
   id="defs1" />
    <g
   transform="matrix(4.06892,0,0,4.06892,-408.14051,-384.9408)"
   id="g1">
        <path
   d="m 147.37067,119.7128 c 0.98198,-6.56243 -4.01503,-10.09031 -10.84795,-12.44364 l 2.21635,-8.889697 -5.41169,-1.348518 -2.15778,8.655425 c -1.42272,-0.35462 -2.8839,-0.6889 -4.33591,-1.02019 l 2.17342,-8.71251 -5.40872,-1.348518 -2.21783,8.886718 c -1.17778,-0.26851 -2.33373,-0.53355 -3.45592,-0.81249 l 0.006,-0.0275 -7.46326,-1.86346 -1.43934,5.77947 c 0,0 4.01527,0.92019 3.93015,0.97702 2.19203,0.5472 2.5881,1.99746 2.52184,3.1472 l -2.52481,10.12729 c 0.15113,0.0385 0.34693,0.0938 0.56258,0.18016 -0.18041,-0.0447 -0.37299,-0.0941 -0.57177,-0.1417 l -3.5388,14.18674 c -0.26851,0.66557 -0.94798,1.66442 -2.48014,1.28523 0.0538,0.0787 -3.93339,-0.98173 -3.93339,-0.98173 l -2.68686,6.19415 7.04237,1.75525 c 1.3103,0.32832 2.5943,0.67203 3.85819,0.99563 l -2.23967,8.9912 5.40549,1.34876 2.21808,-8.89589 c 1.43339,0.38862 2.871,0.76161 4.31258,1.11896 l -2.21014,8.85421 5.41169,1.34852 2.23942,-8.97432 c 9.22819,1.74607 16.16732,1.04179 19.0882,-7.30369 2.35358,-6.71975 -0.11713,-10.59581 -4.97244,-13.12335 3.53583,-0.81522 6.19936,-3.141 6.90985,-7.94469 z m -12.36472,17.33666 c -1.67237,6.71976 -12.98736,3.08715 -16.65571,2.17615 l 2.97175,-11.91183 c 3.66835,0.91547 15.43202,2.72806 13.68396,9.73568 z m 1.67386,-17.43394 c -1.52595,6.1125 -10.94349,3.00699 -13.99838,2.24562 l 2.69431,-10.80377 c 3.05488,0.76136 12.89331,2.18234 11.30407,8.55815 z"
   style="fill-rule:nonzero;stroke-width:0.248163"
   id="path1" />
    </g>
</svg>
