<?xml version="1.0" encoding="UTF-8" standalone="no"?>
<svg
   width="191.99892"
   height="191.9969"
   viewBox="0 0 191.99892 191.9969"
   version="1.1"
   xml:space="preserve"
   style="clip-rule:evenodd;fill-rule:evenodd;stroke-linejoin:round;stroke-miterlimit:2"
   id="svg5"
   xmlns="http://www.w3.org/2000/svg"
   xmlns:svg="http://www.w3.org/2000/svg"><defs
   id="defs5" />
    <g
   transform="matrix(4,0,0,4,96.001871,96.00164)"
   id="g5">
        <g
   transform="translate(-128,-128)"
   id="g4">
            <g
   id="g3">
                <clipPath
   id="_clip1">
                    <rect
   x="0"
   y="0"
   width="256"
   height="256"
   id="rect1" />
                </clipPath>
                <g
   clip-path="url(#_clip1)"
   id="g2">
                    <g
   id="g1">
                        <path
   d="m 151.67638,125.48555 c -0.0673,-0.9898 -0.52425,-1.91341 -1.27011,-2.5676 -0.74493,-0.65343 -1.71974,-0.98474 -2.7086,-0.92042 h -0.14569 c -0.93824,0.10725 -1.79886,0.57524 -2.39866,1.30461 -0.60037,0.7303 -0.89456,1.66592 -0.82012,2.60847 v 0.14681 c 0.17606,1.29843 0.17606,2.61448 0,3.9129 v 0.14681 c -0.22012,1.46437 -0.61781,2.89648 -1.18443,4.26446 -1.12573,2.66885 -2.9304,4.99702 -5.23438,6.75256 -2.30229,1.75405 -5.02458,2.87454 -7.89461,3.24897 -2.8691,0.37387 -5.78676,-0.0114 -8.46048,-1.11711 -2.67579,-1.10643 -5.01577,-2.89479 -6.78594,-5.1862 -1.77129,-2.29311 -2.91278,-5.01014 -3.31028,-7.88036 -0.39749,-2.87079 -0.0379,-5.79613 1.04306,-8.48523 1.07961,-2.68779 2.84397,-5.0467 5.1172,-6.84162 2.27172,-1.79361 4.97432,-2.9606 7.83761,-3.38435 1.94585,-0.26493 3.92152,-0.21524 5.85163,0.14681 1.14974,0.16744 2.18735,0.78468 2.88297,1.71543 0.69637,0.9313 0.99599,2.10166 0.83287,3.25309 -0.24038,1.00911 -0.86287,1.88698 -1.73567,2.4476 -0.87206,0.55987 -1.92824,0.75974 -2.94448,0.55687 h -0.14718 c -0.32081,-0.0799 -0.6495,-0.12412 -0.98005,-0.13181 h -0.13144 c -0.53456,-0.0591 -1.0723,-0.0834 -1.61005,-0.0731 -1.60686,0.0924 -3.15634,0.63319 -4.47164,1.56093 -1.3168,0.9283 -2.34823,2.20647 -2.97728,3.68977 -0.62962,1.48443 -0.8325,3.11547 -0.58575,4.70883 0.24675,1.5928 0.93374,3.08528 1.98298,4.30871 1.04849,1.22268 2.41854,2.12792 3.95453,2.61279 1.53504,0.48412 3.17546,0.52855 4.73451,0.12806 1.55961,-0.4005 2.97616,-1.22999 4.08877,-2.39379 1.11393,-1.16474 1.88042,-2.61785 2.21286,-4.1949 l 0.20437,-1.26017 c 0.0611,-0.69693 0.0866,-1.39668 0.0743,-2.09605 -0.002,-2.70541 0.97293,-5.32269 2.74441,-7.36736 1.76942,-2.04279 4.22002,-3.37778 6.896,-3.75653 h 0.21862 c 0.46068,-0.0611 0.92549,-0.0857 1.39011,-0.0737 h 0.35137 c -2.16354,-3.44341 -5.1637,-6.28382 -8.72035,-8.25555 -3.5544,-1.97004 -7.55093,-3.00728 -11.61476,-3.01459 -6.40888,0.10518 -12.52357,2.73841 -17.00365,7.32236 -4.48589,4.58902 -6.98749,10.76577 -6.95918,17.1829 0.13519,5.44194 2.1086,10.68121 5.59738,14.85998 3.48447,4.17483 8.28442,7.04637 13.61068,8.14229 5.32457,1.09462 10.86608,0.34931 15.71216,-2.1131 4.84983,-2.46523 8.72373,-6.50319 10.98608,-11.45089 l 0.0744,-0.13162 c 1.11974,-2.60117 1.80186,-5.36976 2.01879,-8.1933 -0.0439,-1.5388 -0.19125,-2.79897 -0.32287,-4.13265 z"
   style="fill:#ef4800;fill-rule:nonzero;stroke-width:0.187498"
   id="path1" />
                    </g>
                </g>
            </g>
        </g>
    </g>
</svg>
