<?xml version="1.0" encoding="UTF-8" standalone="no"?>
<svg
   width="192.00031"
   height="191.99831"
   viewBox="0 0 192.00031 191.99831"
   version="1.1"
   xml:space="preserve"
   style="clip-rule:evenodd;fill-rule:evenodd;stroke-linejoin:round;stroke-miterlimit:2"
   id="svg1"
   xmlns="http://www.w3.org/2000/svg"
   xmlns:svg="http://www.w3.org/2000/svg"><defs
   id="defs1" />
    <g
   transform="matrix(3.99999,0,0,3.99999,-415.99573,-415.99636)"
   id="g1">
        <path
   d="m 151.67661,125.48553 c -0.0673,-0.98981 -0.52425,-1.91344 -1.27013,-2.56763 -0.74493,-0.65343 -1.71975,-0.98475 -2.70862,-0.92043 h -0.14569 c -0.93825,0.10725 -1.79887,0.57525 -2.39869,1.30462 -0.60037,0.73031 -0.89456,1.66594 -0.82012,2.6085 v 0.14681 c 0.17606,1.29844 0.17606,2.6145 0,3.91294 v 0.14681 c -0.22013,1.46438 -0.61781,2.8965 -1.18444,4.2645 -1.12575,2.66888 -2.93044,4.99707 -5.23444,6.75263 -2.30231,1.75406 -5.02462,2.87456 -7.89468,3.249 -2.86913,0.37387 -5.78682,-0.0114 -8.46057,-1.11713 -2.67581,-1.10643 -5.01581,-2.89481 -6.786,-5.18625 -1.77131,-2.29312 -2.91281,-5.01018 -3.31031,-7.88043 -0.3975,-2.87082 -0.0379,-5.79619 1.04306,-8.48532 1.07963,-2.68781 2.844,-5.04675 5.11725,-6.84168 2.27175,-1.79363 4.97438,-2.96063 7.83769,-3.38438 1.94588,-0.26494 3.92156,-0.21525 5.85169,0.14681 1.14975,0.16744 2.18737,0.78469 2.883,1.71544 0.69637,0.93131 0.996,2.10169 0.83287,3.25313 -0.24037,1.00912 -0.86287,1.887 -1.73568,2.44762 -0.87207,0.55988 -1.92825,0.75975 -2.9445,0.55688 h -0.14719 c -0.32081,-0.0799 -0.6495,-0.12413 -0.98006,-0.13182 h -0.13144 c -0.53456,-0.0591 -1.07231,-0.0834 -1.61006,-0.0731 -1.60688,0.0924 -3.15638,0.63319 -4.47169,1.56094 -1.31681,0.92831 -2.34825,2.2065 -2.97731,3.68981 -0.62963,1.48444 -0.8325,3.1155 -0.58575,4.70887 0.24675,1.59282 0.93375,3.08532 1.983,4.30875 1.0485,1.22269 2.41856,2.12794 3.95456,2.61282 1.53506,0.48412 3.1755,0.52856 4.73456,0.12806 1.55963,-0.4005 2.97619,-1.23 4.08881,-2.39381 1.11394,-1.16475 1.88044,-2.61788 2.21288,-4.19494 l 0.20437,-1.26019 c 0.0611,-0.69694 0.0866,-1.39669 0.0742,-2.09606 -0.002,-2.70544 0.97294,-5.32275 2.74444,-7.36744 1.76944,-2.04281 4.22006,-3.37781 6.89606,-3.75656 h 0.21863 c 0.46069,-0.0611 0.9255,-0.0857 1.39012,-0.0737 h 0.35138 c -2.16356,-3.44344 -5.16375,-6.28387 -8.72044,-8.25562 -3.55444,-1.97007 -7.551,-3.00732 -11.61487,-3.01463 -6.40894,0.10519 -12.52369,2.73844 -17.00382,7.32244 -4.48593,4.58906 -6.98756,10.76587 -6.95925,17.18306 0.13519,5.442 2.10863,10.68131 5.59744,14.86013 3.4845,4.17487 8.2845,7.04643 13.61081,8.14237 5.32463,1.09463 10.86619,0.34931 15.71232,-2.11312 4.84987,-2.46525 8.72381,-6.50325 10.98618,-11.451 l 0.0744,-0.13163 c 1.11975,-2.60119 1.80188,-5.36981 2.01881,-8.19337 -0.0439,-1.53882 -0.19125,-2.799 -0.32287,-4.13269 z"
   style="fill:#46b549;fill-rule:nonzero;stroke-width:0.1875"
   id="path1" />
    </g>
</svg>
