<?xml version="1.0" encoding="UTF-8" standalone="no"?>
<svg
   width="95.99984"
   height="91.124687"
   viewBox="0 0 95.99984 91.124687"
   version="1.1"
   xml:space="preserve"
   style="clip-rule:evenodd;fill-rule:evenodd;stroke-linejoin:round;stroke-miterlimit:2"
   id="svg1"
   xmlns="http://www.w3.org/2000/svg"
   xmlns:svg="http://www.w3.org/2000/svg"><defs
   id="defs1" />
    <g
   transform="matrix(3.99998,0,0,3.99998,-463.99948,-464.43519)"
   id="g1">
        <path
   d="m 137.8308,126.85969 c 0.0379,-0.0563 0.0738,-0.11372 0.10978,-0.17203 0.66834,-1.08122 0.99684,-2.33644 0.99684,-3.60469 v -0.0668 c 0,-1.36519 -0.3825,-2.71059 -1.14731,-3.8445 -1.13409,-1.68206 -2.98575,-2.84597 -5.12034,-3.06225 h -6.76941 c -0.25744,-6.6e-4 -0.50484,0.10125 -0.68719,0.28303 -0.18244,0.18009 -0.28519,0.42609 -0.285,0.6825 v 3.07359 c 0,0.267 0.10885,0.50869 0.285,0.6826 0.18235,0.18178 0.42975,0.28369 0.68719,0.28303 h 6.10012 c 1.04691,0 1.89516,0.84431 1.89516,1.88231 v 0.0997 c 0,1.03987 -0.84825,1.88231 -1.89516,1.88231 h -9.98793 c -0.25744,4.7e-4 -0.50485,-0.10144 -0.68728,-0.28312 -0.18225,-0.18019 -0.285,-0.42619 -0.285,-0.6825 V 117.075 c 0,-0.26709 -0.10875,-0.50868 -0.28491,-0.68259 -0.18234,-0.18159 -0.42966,-0.2835 -0.68709,-0.28303 h -3.09563 c -0.53672,0 -0.97219,0.43247 -0.97219,0.96562 v 20.85 c 0,0.26513 0.10885,0.50775 0.285,0.6826 0.18225,0.18178 0.42975,0.28369 0.68719,0.28303 h 3.09469 c 0.26878,0 0.51112,-0.10809 0.68719,-0.28303 0.18234,-0.18019 0.285,-0.42619 0.285,-0.6826 v -6.93778 c 0,-0.53306 0.43537,-0.96562 0.97218,-0.96562 h 9.93966 c 0.16472,0 0.32559,-0.007 0.48656,-0.0178 h 0.6285 c 1.04513,0 1.89516,0.84243 1.89516,1.88231 v 0.0978 c 0,1.03987 -0.85003,1.88231 -1.89516,1.88231 h -7.13287 c -0.0104,-0.002 -0.0227,-0.002 -0.0331,-0.002 -0.0104,0 -0.0227,0 -0.0332,0.002 -0.246,0.007 -0.48029,0.10772 -0.6541,0.282 -0.18253,0.18047 -0.28519,0.42685 -0.285,0.68353 v 3.09328 c 0,0.26513 0.10894,0.50775 0.285,0.6826 0.18235,0.18187 0.42975,0.28378 0.68728,0.28303 h 7.61091 c 1.98797,-0.13725 3.74869,-1.09725 4.93762,-2.5395 1.02244,-1.23919 1.55157,-2.80838 1.55157,-4.41056 v -0.0131 c 0,-1.56169 -0.50175,-3.09234 -1.47769,-4.31653 -0.21281,-0.26681 -0.44475,-0.51787 -0.69384,-0.75122 h 0.002 z"
   style="fill:#000030;fill-rule:nonzero;stroke-width:0.09375"
   id="path1" />
    </g>
</svg>
