<?xml version="1.0" encoding="UTF-8" standalone="no"?>
<svg
   width="96"
   height="96"
   viewBox="0 0 96 96"
   version="1.1"
   xml:space="preserve"
   style="clip-rule:evenodd;fill-rule:evenodd;stroke-linejoin:round;stroke-miterlimit:2"
   id="svg2"
   xmlns="http://www.w3.org/2000/svg"
   xmlns:svg="http://www.w3.org/2000/svg"><defs
   id="defs2" />
    <g
   transform="matrix(0.512,0,0,0.512,-464,-464)"
   id="g1">
        <path
   d="m 1053.8491,1063.1294 c 2.0062,2.0062 3.0122,4.8084 2.7412,7.6322 -0.27,2.8237 -1.7915,5.3831 -4.1419,6.9703 -14.9859,10.1025 -33.0318,16.0181 -52.4484,16.0181 -19.41684,0 -37.46288,-5.9156 -52.43231,-16.0416 -2.34385,-1.5825 -3.86025,-4.1343 -4.13016,-6.9496 -0.27019,-2.8154 0.73331,-5.6091 2.73338,-7.6088 -0.0195,-0.021 -0.0191,-0.021 -0.0189,-0.022 4.19841,-4.1981 10.73278,-4.9575 15.78206,-1.8337 11.04188,6.9141 24.09291,10.8928 38.06588,10.8928 13.97335,0 27.02435,-3.9787 38.08305,-10.8656 5.0363,-3.1153 11.5538,-2.3578 15.7416,1.83 0.023,-0.023 0.023,-0.023 0.024,-0.023 z m 9.2803,-116.97837 c 2.0062,-2.00597 4.8084,-3.01247 7.6322,-2.74162 2.8237,0.27065 5.3831,1.79156 6.9703,4.14243 10.1025,14.98528 16.0181,33.03132 16.0181,52.44816 0,19.4166 -5.9156,37.4625 -16.0416,52.4325 -1.5825,2.3437 -4.1343,3.8597 -6.9496,4.1297 -2.8154,0.2709 -5.6091,-0.7331 -7.6088,-2.7328 -0.021,0.019 -0.021,0.019 -0.022,0.019 -4.1981,-4.1981 -4.9575,-10.7334 -1.8337,-15.7818 6.9141,-11.0419 10.8928,-24.0929 10.8928,-38.0663 0,-13.97297 -3.9787,-27.024 -10.8656,-38.08303 -3.1153,-5.03644 -2.3578,-11.55403 1.83,-15.74147 -0.023,-0.0237 -0.023,-0.0241 -0.023,-0.0245 z m -140.83831,1.41666 c 1.76119,-2.60719 4.70944,-4.17347 7.85579,-4.17347 2.51334,0 4.92628,0.99947 6.70349,2.77669 0.0203,-0.0195 0.0206,-0.0191 0.021,-0.0189 4.19804,4.19841 4.95751,10.73278 1.83422,15.78206 C 931.79106,972.976 927.8125,986.02703 927.8125,1000 c 0,13.9734 3.97856,27.0244 10.86544,38.0831 3.11522,5.0363 2.35753,11.5538 -1.83,15.7416 0.0231,0.023 0.0227,0.023 0.0223,0.024 -2.00588,2.0062 -4.80769,3.0122 -7.63144,2.7412 -2.82375,-0.2709 -5.38322,-1.7915 -6.97115,-4.1419 C 912.16562,1037.4625 906.25,1019.4166 906.25,1000 c 0,-19.41684 5.91562,-37.46288 16.04109,-52.43231 z M 1000,940.9375 c 32.5978,0 59.0625,26.46506 59.0625,59.0625 0,32.5978 -26.4647,59.0625 -59.0625,59.0625 -32.59744,0 -59.0625,-26.4647 -59.0625,-59.0625 0,-32.59744 26.46506,-59.0625 59.0625,-59.0625 z m -53.84897,-4.06725 c -1.78256,-1.78247 -2.78512,-4.20262 -2.78512,-6.72356 0,-3.15563 1.57096,-6.1126 4.18593,-7.87903 C 962.53712,912.16562 980.58316,906.25 1000,906.25 c 19.4166,0 37.4625,5.91562 52.4325,16.04109 2.3437,1.58335 3.8597,4.13513 4.1297,6.95044 0.27,2.81531 -0.7331,5.60888 -2.7328,7.60884 0.019,0.0203 0.019,0.0206 0.019,0.021 -4.1981,4.19804 -10.7334,4.95751 -15.7818,1.83422 -11.0419,-6.91453 -24.0929,-10.89309 -38.0663,-10.89309 -13.97297,0 -27.024,3.97856 -38.08303,10.86544 -5.03644,3.11522 -11.55403,2.35753 -15.74147,-1.83 -0.0237,0.0231 -0.0241,0.0227 -0.0245,0.0223 z"
   style="fill:#208e7a;stroke-width:0.09375"
   id="path1" />
    </g>
    <g
   transform="matrix(4,0,0,4,-464,-464)"
   id="g2">
        <path
   d="m 124.96381,130.10797 c -0.16734,0 -0.30506,0.13772 -0.30506,0.30506 v 0.81159 c 0,0.16735 0.13772,0.30507 0.30506,0.30507 h 2.22732 v 2.0594 c 0,0.16744 0.13771,0.30516 0.30515,0.30516 h 0.97941 c 0.16743,0 0.30515,-0.13772 0.30515,-0.30516 v -2.0594 h 2.25535 c 0.16734,0 0.30506,-0.13772 0.30506,-0.30507 v -0.81159 c 0,-0.16734 -0.13772,-0.30506 -0.30506,-0.30506 z m 6.07931,-1.00903 c 0.16744,0 0.30516,-0.13772 0.30516,-0.30516 v -0.79753 c 0,-0.16734 -0.13772,-0.30506 -0.30506,-0.30506 0,0 -1e-4,0 -1e-4,0 h -1.91137 l 2.58272,-4.5676 c 0.0533,-0.0944 0.0526,-0.21037 -0.002,-0.30403 -0.0547,-0.0936 -0.15525,-0.15131 -0.26363,-0.15131 h -1.13325 c -0.10996,0 -0.21168,0.0593 -0.26578,0.15506 l -2.05518,3.64003 -2.02978,-3.63862 c -0.0538,-0.0965 -0.156,-0.15647 -0.26644,-0.15647 h -1.14731 c -1e-4,0 -1.9e-4,0 -3.8e-4,0 -0.16725,0 -0.30497,0.13763 -0.30497,0.30497 0,0.0525 0.0136,0.10406 0.0394,0.14981 l 2.57043,4.56816 h -1.88475 c -0.16734,0 -0.30506,0.13772 -0.30515,0.30506 v 0.79753 c 0,0.16744 0.13772,0.30516 0.30515,0.30516 z"
   style="fill:#ffffff;fill-rule:nonzero;stroke-width:0.09375"
   id="path2" />
    </g>
</svg>
