<?xml version="1.0" encoding="UTF-8" standalone="no"?>
<svg
   width="167.8004"
   height="131.28084"
   viewBox="0 0 167.8004 131.28084"
   version="1.1"
   xml:space="preserve"
   style="clip-rule:evenodd;fill-rule:evenodd;stroke-linejoin:round;stroke-miterlimit:2"
   id="svg2"
   xmlns="http://www.w3.org/2000/svg"
   xmlns:svg="http://www.w3.org/2000/svg"><defs
   id="defs2" />
    <g
   transform="matrix(4.00296,0,0,4.00296,-428.98906,-338.65654)"
   id="g2">
        <path
   d="m 131.12956,92.800392 -3.48452,8.199028 h -8.17854 c -0.005,0 -0.009,0 -0.0141,0 -2.24128,0 -4.08541,1.84413 -4.08541,4.08541 0,0.005 0,0.009 0,0.0141 0,0.005 0,0.009 0,0.0141 0,2.24128 1.84413,4.08541 4.08541,4.08541 0.005,0 0.009,0 0.0141,0 h 4.69401 l -3.42979,8.19903 c -0.81954,-0.007 -0.85429,0 -1.26422,0 -6.78466,0 -12.29854,-5.51388 -12.29854,-12.29854 0,-6.784823 5.51388,-12.298538 12.29854,-12.298538 h 11.68372 z"
   style="fill:#3551f2;fill-rule:nonzero;stroke-width:0.163908"
   id="path1" />
        <path
   d="m 149.08704,96.899905 c 0,6.784825 -5.51388,12.298535 -12.29854,12.298535 h -12.62652 l 3.48453,-8.19902 h 9.14199 c 2.25473,0 4.09951,-1.844791 4.09951,-4.099351 0,-2.254888 -1.84478,-4.099677 -4.09951,-4.099677 h -5.65746 l 3.5319,-8.198862 c 0.81954,0.0072 1.34667,0 2.12556,0 6.78466,0 12.29854,5.513715 12.29854,12.298375 z"
   style="fill:#3551f2;fill-rule:nonzero;stroke-width:0.163908"
   id="path2" />
    </g>
</svg>
