<?xml version="1.0" encoding="UTF-8" standalone="no"?>
<svg
   width="95.993546"
   height="114.84723"
   viewBox="0 0 95.993546 114.84723"
   version="1.1"
   xml:space="preserve"
   style="clip-rule:evenodd;fill-rule:evenodd;stroke-linejoin:round;stroke-miterlimit:2"
   id="svg4"
   xmlns="http://www.w3.org/2000/svg"
   xmlns:svg="http://www.w3.org/2000/svg"><defs
   id="defs4" />
    <g
   transform="matrix(0.999959,0,0,0.999959,-392.87175,-454.51389)"
   id="g4">
        <g
   transform="matrix(3.9987,0,0,3.9987,-38.875,0.251891)"
   id="g1">
            <path
   d="m 131.71672,137.36207 c -0.0957,-0.11396 -0.21324,-0.20774 -0.3456,-0.27583 -0.13237,-0.0683 -0.27662,-0.11037 -0.42491,-0.12372 -0.29928,-0.0261 -0.59698,0.0683 -0.82649,0.26214 -0.0296,0.0243 -0.0592,0.0487 -0.0877,0.0729 -0.0212,0.0181 -0.0423,0.0349 -0.0635,0.0518 -0.32867,0.26764 -0.67124,0.51779 -1.02627,0.74942 l -0.0464,0.0306 c -0.0783,0.0507 -0.15648,0.1004 -0.23579,0.14796 -0.019,0.0117 -0.0359,0.0222 -0.0538,0.0327 -0.0179,0.0105 -0.0349,0.0212 -0.0518,0.0318 l -0.0306,0.0189 -0.055,0.0329 c -0.018,0.0105 -0.0349,0.0211 -0.0528,0.0306 -0.20965,0.12194 -0.42289,0.23758 -0.63949,0.34662 l -0.0538,0.0275 -0.0751,0.0381 -0.0984,0.0476 -0.007,0.004 c -0.0328,0.0159 -0.0655,0.0307 -0.0983,0.0465 l -0.075,0.0349 -0.0486,0.0222 c -0.0253,0.0116 -0.0518,0.0232 -0.0772,0.0349 -0.0339,0.0148 -0.0688,0.0306 -0.10365,0.0454 -0.0697,0.0306 -0.14055,0.0602 -0.21133,0.0887 -0.0359,0.0148 -0.0719,0.0296 -0.1078,0.0434 -0.0688,0.0275 -0.13842,0.055 -0.20819,0.0813 h -0.002 c -0.0688,0.0265 -0.13854,0.0518 -0.2082,0.0762 l -0.0138,0.005 c -0.0328,0.0115 -0.0655,0.0232 -0.0994,0.0349 -0.0349,0.0115 -0.0698,0.0232 -0.10353,0.0359 l -0.10466,0.0338 c -0.01,0.003 -0.0196,0.007 -0.0296,0.01 l -0.0676,0.0212 -0.056,0.0179 c -0.0571,0.0179 -0.11306,0.0349 -0.17016,0.0518 l -0.038,0.0115 c -0.0233,0.006 -0.0465,0.0138 -0.0698,0.0201 l -0.0803,0.0222 -0.0645,0.018 -0.0423,0.0117 -0.054,0.0138 c -0.0602,0.0158 -0.12148,0.0316 -0.18284,0.0464 -0.0148,0.004 -0.0306,0.007 -0.0454,0.0117 -0.0211,0.005 -0.0433,0.0105 -0.0655,0.0158 l -0.054,0.0127 c -0.004,0.001 -0.009,0.002 -0.0137,0.003 -0.0275,0.006 -0.0561,0.0127 -0.0835,0.0191 -0.0508,0.0117 -0.10152,0.0222 -0.15334,0.0328 -0.0486,0.0105 -0.0973,0.0201 -0.14481,0.0296 l -0.11834,0.0222 -0.0729,0.0127 c -0.0243,0.004 -0.0433,0.008 -0.0655,0.0117 l -0.0941,0.0158 -0.092,0.0148 -0.0115,0.002 c -0.0381,0.005 -0.0751,0.0116 -0.11206,0.0168 -0.037,0.005 -0.0729,0.0107 -0.1078,0.0148 l -0.0232,0.003 -0.0888,0.0115 h -0.006 c -0.0254,0.003 -0.0496,0.006 -0.0739,0.01 l -0.0655,0.007 c -0.0645,0.007 -0.13001,0.0148 -0.19552,0.0211 h -0.0159 c -0.0211,0.004 -0.0433,0.006 -0.0645,0.009 l -0.056,0.005 c -0.0222,0.002 -0.0444,0.004 -0.0666,0.005 l -0.0665,0.005 c -0.0877,0.006 -0.17656,0.0127 -0.26428,0.018 l -0.11733,0.006 -0.0665,0.002 c -0.0169,1.2e-4 -0.0339,9e-4 -0.0508,0.002 l -0.0644,0.002 h -0.0656 c -0.0221,0.001 -0.0443,0.003 -0.0665,0.003 h -0.0232 c -0.037,0 -0.074,0.001 -0.10993,0.001 h -0.23994 c -1.25061,-0.0148 -2.49134,-0.223 -3.67823,-0.61729 -0.0423,-0.0148 -0.0856,-0.0285 -0.12788,-0.0433 -0.0211,-0.007 -0.0423,-0.0148 -0.0624,-0.0222 -0.0201,-0.007 -0.0423,-0.0148 -0.0624,-0.0222 -0.034,-0.0118 -0.0678,-0.0241 -0.1014,-0.037 l -0.0423,-0.0158 c -0.038,-0.0137 -0.0762,-0.0285 -0.11307,-0.0423 l -0.0191,-0.007 c -0.0148,-0.005 -0.0296,-0.0115 -0.0433,-0.0168 l -0.0148,-0.006 -0.0117,-0.004 -0.0254,-0.009 -0.0232,-0.01 h -0.005 l -0.0107,-0.005 -0.0476,-0.0191 -0.0612,-0.0254 c -0.0339,-0.0138 -0.0676,-0.0275 -0.10152,-0.0423 h -0.005 l -0.0676,-0.0296 -0.0792,-0.0349 c -2.12129,-0.93394 -3.93208,-2.45489 -5.21825,-4.38312 -0.01,-0.0137 -0.0188,-0.0278 -0.0274,-0.0423 -1.29862,-1.9758 -1.99341,-4.288 -1.99868,-6.65237 v -0.1797 c 0,-0.0454 0.002,-0.0909 0.003,-0.13629 v -0.0106 c 0.0368,-1.34999 0.29927,-2.68439 0.77679,-3.94767 0.0169,-0.0443 0.0339,-0.0877 0.0508,-0.13214 0.0148,-0.039 0.0306,-0.0782 0.0464,-0.11722 l 0.0328,-0.0793 c 0.0179,-0.0433 0.0359,-0.0867 0.055,-0.13012 0.0202,-0.0474 0.0413,-0.095 0.0624,-0.14257 0.001,-0.003 0.003,-0.006 0.004,-0.01 0.001,-0.004 0.003,-0.009 0.005,-0.0127 l 0.0444,-0.0983 c 0,0 0,-0.002 10e-4,-0.003 0.0137,-0.0307 0.0274,-0.0603 0.0412,-0.0898 0.004,-0.009 0.007,-0.0179 0.0116,-0.0265 l 0.006,-0.0148 c 0.006,-0.0148 0.0137,-0.0296 0.0211,-0.0433 0.004,-0.01 0.009,-0.0191 0.0128,-0.0275 l 0.0127,-0.0275 0.003,-0.006 0.008,-0.0168 c 0.0159,-0.0339 0.0328,-0.0676 0.0497,-0.10152 0.003,-0.005 0.005,-0.0117 0.008,-0.0168 0.0222,-0.0445 0.0444,-0.0888 0.0666,-0.13226 0.0158,-0.0306 0.0318,-0.0624 0.0476,-0.093 l 0.0105,-0.0191 c 0,0 0,-0.002 0.001,-0.003 0,0 0,-0.002 0.001,-0.002 0.009,-0.0191 0.019,-0.0359 0.0285,-0.0538 0.003,-0.006 0.007,-0.0127 0.0105,-0.0191 l 0.0211,-0.039 c 0.006,-0.0127 0.0138,-0.0255 0.0202,-0.0381 l 0.004,-0.007 0.008,-0.0147 c 0.0117,-0.0233 0.0243,-0.0455 0.0359,-0.0676 0.37713,-0.68234 0.81998,-1.32632 1.32229,-1.92263 0.009,-0.0105 0.0179,-0.0211 0.0254,-0.0318 0.18194,-0.23387 0.26506,-0.53001 0.23152,-0.82446 -0.07,-0.60921 -0.62199,-1.057 -1.23254,-0.99979 -0.29524,0.0279 -0.56804,0.17028 -0.75986,0.39642 -0.42277,0.50163 -0.81044,1.03164 -1.16053,1.58645 l -0.009,0.0127 c -0.0306,0.0486 -0.0602,0.0973 -0.0909,0.1447 -0.0159,0.0255 -0.0306,0.0508 -0.0466,0.0773 -0.46416,0.76771 -0.8552,1.57736 -1.16793,2.41821 -0.15626,0.41986 -0.29243,0.84701 -0.40797,1.27988 -0.002,0.008 -0.004,0.0149 -0.006,0.0233 -0.0105,0.0381 -0.0202,0.0772 -0.0306,0.11632 -0.003,0.0106 -0.005,0.0211 -0.009,0.0328 -0.005,0.0201 -0.0105,0.0412 -0.0158,0.0624 l -0.0159,0.0624 c -0.0105,0.0412 -0.02,0.0824 -0.0295,0.12463 0,0.003 -0.002,0.007 -0.002,0.0106 -0.001,0.006 -0.003,0.0116 -0.004,0.0179 v 0.004 c -0.006,0.0264 -0.0127,0.0527 -0.0191,0.0782 -0.002,0.007 -0.003,0.0148 -0.005,0.0211 -0.40921,1.80631 -0.46484,3.67499 -0.16377,5.50249 0.002,0.0137 0.004,0.0285 0.007,0.0433 0.31038,1.85981 0.98532,3.6401 1.98601,5.23821 0.0168,0.0265 0.0338,0.054 0.0507,0.0803 l 0.0476,0.074 c 0.0158,0.0254 0.0317,0.0497 0.0476,0.0739 0.0232,0.036 0.0465,0.0709 0.0698,0.10679 0.0137,0.0211 0.0275,0.0412 0.0412,0.0613 0.005,0.009 0.0117,0.0169 0.0169,0.0255 0.0232,0.0349 0.0476,0.0698 0.0718,0.10454 0.005,0.007 0.0106,0.0148 0.0149,0.0222 0.002,0.004 0.005,0.007 0.007,0.0117 l 0.008,0.0117 c 0.0529,0.0771 0.1069,0.15356 0.16175,0.22928 0.0296,0.0413 0.0602,0.0836 0.0909,0.12473 0.0254,0.0349 0.0507,0.0688 0.0752,0.10253 0.0115,0.0158 0.0231,0.0317 0.0359,0.0476 l 0.0602,0.0793 c 0.0127,0.0158 0.0242,0.0328 0.038,0.0486 0.0191,0.0254 0.039,0.0497 0.0581,0.0751 0.0106,0.0138 0.0211,0.0275 0.0318,0.0402 0.0211,0.0275 0.0433,0.054 0.0645,0.0814 0.0137,0.0169 0.0264,0.0338 0.0402,0.0497 0.0191,0.0232 0.038,0.0476 0.0581,0.0708 0.0137,0.0169 0.0275,0.0328 0.0412,0.0486 0.0191,0.0243 0.0401,0.0476 0.0602,0.0719 0.0138,0.0169 0.0286,0.0339 0.0434,0.0507 0.0191,0.0233 0.039,0.0465 0.0591,0.0698 0.0317,0.0381 0.0645,0.075 0.0973,0.11105 0.0327,0.037 0.0688,0.0772 0.10365,0.11621 0.0348,0.038 0.0718,0.0803 0.1088,0.11946 0.037,0.0402 0.0729,0.0793 0.10993,0.11835 0.037,0.0391 0.074,0.0783 0.11206,0.11733 0.77982,0.81123 1.65331,1.52688 2.60217,2.13183 l 0.0222,0.0138 0.076,0.0476 c 1.42627,0.89872 2.99993,1.53888 4.64853,1.89088 l 0.076,0.0158 0.0698,0.0138 c 0.0497,0.009 0.0983,0.0201 0.14795,0.0295 0.0243,0.005 0.0497,0.01 0.074,0.0138 l 0.038,0.006 0.038,0.006 0.0782,0.0137 0.0191,0.003 0.0275,0.005 c 0.0285,0.005 0.0571,0.01 0.0866,0.0148 l 0.10466,0.0168 0.10578,0.0159 0.10566,0.0158 c 0.0349,0.005 0.0708,0.01 0.10567,0.0148 l 0.10567,0.0138 0.0666,0.008 0.0687,0.008 c 0.0201,0.002 0.0413,0.005 0.0613,0.007 0.0433,0.005 0.0856,0.01 0.12889,0.0138 l 0.0931,0.01 0.056,0.005 0.0782,0.007 c 0.18744,0.0172 0.37533,0.0302 0.56333,0.039 0.088,0.005 0.17611,0.008 0.26428,0.0107 h 0.0349 l 0.16063,0.003 h 0.41223 c 0.055,0 0.10892,-0.002 0.16389,-0.003 h 0.0115 c 0.0561,-0.001 0.11105,-0.003 0.16702,-0.005 l 0.0856,-0.003 0.0856,-0.004 c 0.0518,-0.002 0.10466,-0.005 0.15648,-0.008 0.0772,-0.004 0.15323,-0.01 0.2304,-0.0148 0.17039,-0.0134 0.34056,-0.0292 0.5105,-0.0476 0.0306,-0.003 0.0614,-0.007 0.093,-0.0105 0.0317,-0.003 0.0624,-0.007 0.093,-0.0117 l 0.036,-0.004 c 0.0296,-0.003 0.0591,-0.007 0.0877,-0.0117 0.0359,-0.004 0.0729,-0.01 0.10881,-0.0148 l 0.0212,-0.003 c 0.0412,-0.006 0.0824,-0.0117 0.12474,-0.0191 l 0.0148,-0.002 0.0803,-0.0127 0.076,-0.0127 0.0454,-0.007 h 0.007 c 0.0582,-0.0105 0.1152,-0.0201 0.17342,-0.0306 l 0.0105,-0.002 0.1014,-0.0191 c 1.68752,-0.31509 3.30459,-0.93193 4.77315,-1.821 0.0265,-0.0159 0.0518,-0.0318 0.0783,-0.0477 0.11374,-0.0698 0.22659,-0.14133 0.3382,-0.21447 0.48806,-0.31935 0.95638,-0.66765 1.4026,-1.0432 0.22917,-0.19361 0.37219,-0.47056 0.39731,-0.7695 0.0254,-0.29872 -0.0685,-0.59563 -0.26102,-0.82548 h -0.004 z"
   style="fill:#1066df;fill-rule:nonzero;stroke-width:0.112172"
   id="path1" />
        </g>
        <g
   transform="matrix(3.9987,0,0,3.9987,-38.875,0.251891)"
   id="g2">
            <path
   d="m 115.70292,117.666 c 0.19989,2.3e-4 0.39619,-0.053 0.5686,-0.15434 0.22435,-0.13024 0.45273,-0.25318 0.68492,-0.36883 0.1483,-0.0736 0.29805,-0.14402 0.44914,-0.21144 0.0255,-0.0117 0.0508,-0.0222 0.0762,-0.0339 0.0168,-0.007 0.0338,-0.0147 0.0518,-0.0221 0.0338,-0.0148 0.0665,-0.0286 0.10039,-0.0434 l 0.0751,-0.0316 c 0.0509,-0.0213 0.10196,-0.0421 0.15322,-0.0624 l 0.0581,-0.0233 0.0962,-0.038 c 0.0232,-0.01 0.0464,-0.0179 0.0697,-0.0264 0.10993,-0.0413 0.21986,-0.0803 0.33192,-0.11846 l 0.0655,-0.0221 c 0.13068,-0.0439 0.26214,-0.0855 0.39428,-0.12474 l 0.0655,-0.0191 c 0.17095,-0.0495 0.34291,-0.0954 0.51577,-0.13741 l 0.0571,-0.0137 0.0666,-0.0159 0.0454,-0.0105 0.0486,-0.0117 c 0.0317,-0.007 0.0645,-0.0148 0.0962,-0.0211 0.0486,-0.0105 0.0973,-0.0211 0.14683,-0.0306 l 0.0814,-0.0159 c 0.10993,-0.0211 0.21985,-0.0412 0.32978,-0.0602 0.0528,-0.008 0.10668,-0.018 0.15962,-0.0254 0.0538,-0.008 0.1078,-0.0158 0.16378,-0.0243 l 0.0117,-0.002 c 0.0782,-0.0108 0.15637,-0.0211 0.23467,-0.0307 l 0.16478,-0.0191 c 0.055,-0.006 0.10992,-0.0115 0.16489,-0.0157 0.055,-0.005 0.10993,-0.01 0.16601,-0.0138 0.0349,-0.002 0.0698,-0.005 0.10354,-0.007 l 0.20819,-0.0127 c 0.0349,-0.002 0.0698,-0.003 0.10365,-0.005 0.0211,0 0.0412,-0.002 0.0624,-0.002 l 0.057,-0.002 0.0656,-0.002 0.0655,-0.002 c 0.0444,-0.001 0.0887,-0.002 0.13214,-0.002 h 0.15636 c 0.49894,0 0.99777,0.0306 1.49245,0.093 0.10466,0.0127 0.2092,0.0275 0.31386,0.0433 0.0222,0.003 0.0454,0.007 0.0688,0.0105 l 0.1152,0.0191 0.0222,0.004 0.019,0.003 c 0.0286,0.005 0.0582,0.01 0.0867,0.0148 l 0.0285,0.005 0.0381,0.007 0.038,0.007 0.0718,0.0137 c 0.0255,0.004 0.0508,0.01 0.075,0.0148 l 0.0202,0.004 c 0.057,0.0117 0.1152,0.0243 0.17218,0.037 l 0.0528,0.0115 c 0.0403,0.009 0.0793,0.0179 0.11946,0.0275 0.0465,0.0106 0.093,0.0222 0.13954,0.0339 0.0433,0.0105 0.0867,0.0222 0.13001,0.0328 l 0.0466,0.0127 0.0496,0.0127 h 0.002 c 0.0317,0.008 0.0635,0.0168 0.0941,0.0253 0.004,0 0.008,0.002 0.0127,0.003 0.0148,0.004 0.0296,0.009 0.0433,0.0127 0.0201,0.005 0.0402,0.0117 0.0602,0.0169 l 0.0497,0.0138 c 0.0232,0.006 0.0465,0.0137 0.0698,0.0201 l 0.055,0.0168 0.0497,0.0149 0.0232,0.007 h 0.002 l 0.0285,0.009 0.0603,0.0191 0.038,0.0115 0.0497,0.0158 c 0.0295,0.01 0.0581,0.0191 0.0877,0.0286 0.0443,0.0148 0.0887,0.0306 0.13315,0.0454 0.19552,0.0687 0.38935,0.1419 0.58128,0.21986 l 0.0655,0.0275 c 0.0477,0.0201 0.0952,0.0391 0.14279,0.0602 0.16254,0.0694 0.31935,0.15143 0.46922,0.24521 1.39306,0.87404 1.98387,2.66139 1.31589,4.21935 -0.35593,0.82817 -1.02649,1.48202 -1.86341,1.81685 -0.83691,0.33483 -1.77366,0.32339 -2.60216,-0.0317 -0.64208,-0.27493 -1.33205,-0.42064 -2.03043,-0.42905 h -0.002 c -0.20258,-0.002 -0.40516,0.007 -0.60674,0.0285 -0.0909,0.01 -0.18071,0.0222 -0.27168,0.0359 -0.0402,0.006 -0.0813,0.0138 -0.12148,0.0212 l -0.0359,0.006 c -0.0148,0.003 -0.0307,0.005 -0.0455,0.009 -0.0222,0.004 -0.0454,0.008 -0.0676,0.0137 h -0.004 c -0.0243,0.006 -0.0476,0.0117 -0.0719,0.0169 l -0.0571,0.0138 -0.0338,0.008 -0.055,0.0137 c -0.0169,0.004 -0.0349,0.01 -0.0518,0.0138 l -0.0359,0.01 c -0.073,0.0201 -0.14594,0.0423 -0.21773,0.0655 -0.0286,0.01 -0.0582,0.0191 -0.0867,0.0285 l -0.0433,0.0148 c -0.0148,0.005 -0.0286,0.01 -0.0434,0.0159 l -0.0423,0.0157 c -0.0423,0.0159 -0.0856,0.0317 -0.12675,0.0487 -0.21156,0.0846 -0.41739,0.18284 -0.61627,0.29389 -0.0127,0.007 -0.0264,0.0148 -0.039,0.0222 -0.0265,0.0148 -0.0528,0.0306 -0.0793,0.0454 -0.0265,0.0158 -0.0518,0.0306 -0.0782,0.0476 -0.0245,0.0153 -0.0488,0.0307 -0.0729,0.0464 l -0.0635,0.0413 c -0.0148,0.01 -0.0285,0.0191 -0.0433,0.0285 -0.008,0.005 -0.0165,0.011 -0.0243,0.0169 -0.008,0.006 -0.0201,0.0137 -0.0306,0.0211 -0.0105,0.008 -0.0243,0.0169 -0.0359,0.0255 -0.0243,0.0168 -0.0487,0.0338 -0.0719,0.0517 -0.0232,0.0169 -0.0487,0.0359 -0.0729,0.0538 -0.0117,0.009 -0.0233,0.0181 -0.036,0.0265 -0.25216,0.19417 -0.48604,0.411 -0.69861,0.64791 l -0.006,0.006 c -0.0179,0.0201 -0.0359,0.0402 -0.0538,0.0613 -0.0169,0.0191 -0.0339,0.0393 -0.0507,0.0592 l -0.0191,0.0222 c -0.0211,0.0254 -0.0423,0.0507 -0.0624,0.0761 -0.007,0.009 -0.0137,0.0169 -0.0201,0.0255 -0.0179,0.0222 -0.0349,0.0443 -0.0518,0.0665 -0.0127,0.0159 -0.0242,0.0317 -0.0369,0.0476 -0.0339,0.0444 -0.0666,0.0888 -0.0984,0.13427 v 0.001 c -0.23882,0.33898 -0.43635,0.70511 -0.58868,1.09076 0,0.002 -0.001,0.003 -0.002,0.005 l -0.0191,0.0476 -0.0179,0.0466 c -0.004,0.0117 -0.01,0.0243 -0.0137,0.037 -0.004,0.0115 -0.0105,0.0296 -0.0159,0.0454 -0.006,0.0179 -0.0126,0.037 -0.0191,0.055 -0.006,0.0191 -0.0126,0.0392 -0.019,0.0581 -0.28054,0.8423 -0.34201,1.74226 -0.17858,2.61484 0.005,0.0318 0.0117,0.0624 0.0191,0.0941 0.13113,0.65531 0.38688,1.27933 0.75357,1.83806 l 0.0296,0.0454 c 0.3742,0.56422 0.85497,1.04993 1.41516,1.43008 0.0179,0.0115 0.036,0.0242 0.054,0.0359 0.69827,0.4672 1.49873,0.75974 2.33374,0.85296 l 0.0602,0.006 0.0538,0.005 0.0255,0.002 c 0.33494,0.0296 0.67213,0.0275 1.00719,-0.008 0.0127,-0.001 0.0265,-0.003 0.0392,-0.005 h 0.003 c 0.69793,-0.0782 1.37343,-0.29445 1.98701,-0.63624 0.12967,-0.0727 0.24387,-0.16994 0.33618,-0.28649 0.0922,-0.11699 0.16041,-0.25093 0.20079,-0.39428 0.0402,-0.1437 0.0528,-0.29277 0.0349,-0.44073 -0.0175,-0.14784 -0.0638,-0.29075 -0.1364,-0.42064 -0.0727,-0.1299 -0.17039,-0.24409 -0.28739,-0.33607 -0.11688,-0.0924 -0.25082,-0.16063 -0.39428,-0.20079 -0.14314,-0.0407 -0.293,-0.0526 -0.44073,-0.0349 -0.14795,0.0179 -0.29064,0.0634 -0.42064,0.13629 -0.552,0.30679 -1.18634,0.4332 -1.81371,0.36153 l -0.0329,-0.004 c -0.019,-0.002 -0.038,-0.005 -0.057,-0.007 -0.0191,-0.003 -0.0402,-0.005 -0.0614,-0.01 -0.0251,-0.004 -0.0501,-0.009 -0.075,-0.0137 -0.0389,-0.007 -0.0777,-0.0158 -0.11621,-0.0254 -0.0117,-0.002 -0.0222,-0.005 -0.0328,-0.007 l -0.0381,-0.01 c -0.0127,-0.003 -0.0242,-0.006 -0.038,-0.01 l -0.038,-0.0106 c -0.0105,-0.003 -0.0211,-0.006 -0.0318,-0.01 l -0.0412,-0.0127 c -0.0243,-0.007 -0.0487,-0.0158 -0.0729,-0.0232 -0.0117,-0.004 -0.0243,-0.009 -0.036,-0.0128 -0.0242,-0.008 -0.0486,-0.018 -0.0718,-0.0264 -0.0359,-0.0138 -0.0715,-0.0283 -0.10679,-0.0433 l -0.0275,-0.0117 -0.0286,-0.0127 -0.0285,-0.0138 -0.0444,-0.0211 c -0.45609,-0.22311 -0.84914,-0.55671 -1.14359,-0.97029 l -0.0254,-0.038 c -0.008,-0.0127 -0.0169,-0.0243 -0.0243,-0.036 -0.008,-0.0127 -0.0148,-0.0221 -0.0211,-0.0328 -0.30634,-0.47527 -0.47471,-1.02637 -0.48616,-1.59172 v -0.0994 c 0,-0.0148 0,-0.0316 10e-4,-0.0486 0.001,-0.0158 0.001,-0.0318 0.002,-0.0486 0,-0.0117 0,-0.0233 0.002,-0.0349 l 0.002,-0.0349 c 0.002,-0.0286 0.004,-0.0571 0.007,-0.0846 0.001,-0.0127 0.002,-0.0243 0.004,-0.037 0.002,-0.0222 0.005,-0.0444 0.009,-0.0676 0.002,-0.0169 0.004,-0.0339 0.007,-0.0507 l 0.006,-0.038 c 0.004,-0.0233 0.007,-0.0465 0.0127,-0.0698 0.004,-0.0233 0.008,-0.0444 0.0127,-0.0666 0.005,-0.0222 0.0105,-0.0486 0.0158,-0.0729 0.004,-0.0158 0.007,-0.0317 0.0117,-0.0487 0.003,-0.0127 0.006,-0.0242 0.01,-0.038 l 0.0222,-0.0792 c 0.0338,-0.10993 0.0729,-0.21885 0.11834,-0.32452 0.0663,-0.15468 0.14549,-0.30353 0.2368,-0.44498 0.0115,-0.0191 0.0264,-0.0413 0.0412,-0.0614 0.009,-0.0137 0.0191,-0.0264 0.0275,-0.039 0.0148,-0.0212 0.0296,-0.0413 0.0444,-0.0614 l 0.0232,-0.0316 c 0.009,-0.0117 0.0169,-0.0222 0.0254,-0.0328 0.0106,-0.0138 0.0212,-0.0275 0.0329,-0.0413 0.0105,-0.0137 0.0221,-0.0275 0.0328,-0.0402 l 0.0338,-0.0391 c 0.0191,-0.0232 0.0402,-0.0454 0.0614,-0.0676 l 0.004,-0.004 c 0.0233,-0.0255 0.0465,-0.0497 0.0709,-0.074 0.0179,-0.0191 0.0369,-0.037 0.057,-0.055 l 0.0148,-0.0137 c 0.11576,-0.10892 0.23983,-0.20864 0.37107,-0.29815 0.0254,-0.0168 0.0507,-0.0338 0.075,-0.0496 0.0127,-0.009 0.0253,-0.0169 0.0402,-0.0255 0.0148,-0.009 0.0296,-0.019 0.0443,-0.0275 0.0148,-0.008 0.0296,-0.0179 0.0455,-0.0264 0.15872,-0.09 0.32485,-0.16601 0.4967,-0.22726 l 0.074,-0.0254 c 0.0169,-0.005 0.0327,-0.0105 0.0497,-0.0158 0.0168,-0.005 0.0328,-0.01 0.0496,-0.0148 0.0169,-0.004 0.0339,-0.01 0.0508,-0.0138 0.0169,-0.004 0.0327,-0.008 0.0486,-0.0127 0.036,-0.008 0.0719,-0.0169 0.10779,-0.0243 l 0.0465,-0.009 0.0349,-0.006 0.0359,-0.006 c 0.0232,-0.004 0.0454,-0.007 0.0688,-0.0106 h 0.002 c 0.14346,-0.0211 0.28839,-0.0316 0.43343,-0.0316 h 0.0497 c 0.39316,0.007 0.77993,0.0909 1.14146,0.2452 2.35068,1.00832 5.09766,0.31173 6.68097,-1.69436 0.78308,-0.99283 1.21292,-2.2191 1.22077,-3.48361 v -0.0105 c 0.004,-1.11252 -0.31935,-2.20205 -0.93013,-3.13184 -0.61066,-0.92991 -1.48213,-1.65947 -2.50503,-2.09694 -0.0369,-0.0157 -0.0729,-0.0316 -0.10993,-0.0464 -0.0376,-0.0149 -0.0749,-0.0304 -0.11194,-0.0465 -0.0561,-0.0232 -0.11105,-0.0454 -0.16815,-0.0676 -0.056,-0.0222 -0.11195,-0.0444 -0.16803,-0.0655 l -0.0919,-0.0348 c -0.0305,-0.0118 -0.0611,-0.0231 -0.092,-0.0339 -0.0275,-0.01 -0.054,-0.0202 -0.0814,-0.0296 l -0.0729,-0.0265 -0.11307,-0.039 c -0.0782,-0.0265 -0.15648,-0.0529 -0.23567,-0.0783 l -0.054,-0.0179 -0.0645,-0.0211 -0.0973,-0.0307 -0.0655,-0.0201 -0.0581,-0.0168 -0.0824,-0.0243 -0.1659,-0.0476 c -0.0379,-0.0107 -0.0761,-0.0209 -0.11419,-0.0306 l -0.1078,-0.0286 h -0.004 l -0.0232,-0.006 c -0.0624,-0.0159 -0.12362,-0.0317 -0.18599,-0.0465 l -0.0635,-0.0148 -0.0739,-0.0179 c -0.038,-0.008 -0.074,-0.0168 -0.11105,-0.0254 l -0.008,-0.002 -0.11094,-0.0243 c -0.0772,-0.0168 -0.15435,-0.0328 -0.23152,-0.0486 l -0.0676,-0.0127 -0.0983,-0.0191 c -0.0222,-0.004 -0.0444,-0.008 -0.0655,-0.0127 l -0.0941,-0.0168 -0.0339,-0.006 c -0.0739,-0.0127 -0.14796,-0.0243 -0.22188,-0.037 -0.0777,-0.0127 -0.15558,-0.0242 -0.23365,-0.0348 l -0.093,-0.0128 -0.0528,-0.006 c -0.006,0 -0.0127,-0.002 -0.0191,-0.002 l -0.0316,-0.004 -0.0317,-0.004 -0.0613,-0.007 -0.0423,-0.005 -0.0814,-0.01 -0.0254,-0.003 c -0.0328,-0.003 -0.0655,-0.007 -0.0994,-0.0105 l -0.0919,-0.008 -0.0317,-0.003 -0.0909,-0.008 c -0.036,-0.003 -0.0719,-0.006 -0.10791,-0.009 -0.16287,-0.0125 -0.32609,-0.0223 -0.4893,-0.0295 h -0.037 l -0.0211,-0.001 -0.0793,-0.003 -0.11206,-0.003 c -0.0828,-0.002 -0.16556,-0.003 -0.24835,-0.004 h -0.24307 c -0.0349,0 -0.0688,0 -0.10365,0.001 -0.0349,0.001 -0.0665,0.001 -0.0993,0.002 -0.0329,0 -0.0656,0.001 -0.0994,0.002 -0.0476,10e-4 -0.0962,0.003 -0.1438,0.005 l -0.0835,0.003 -0.038,0.002 -0.0624,0.003 -0.0814,0.004 -0.0739,0.004 h -0.0105 c -0.65217,0.0412 -1.30008,0.12676 -1.93957,0.25688 l -0.0232,0.004 c -0.0518,0.0106 -0.10353,0.0222 -0.15648,0.0327 l -0.008,0.002 c -0.0232,0.005 -0.0465,0.009 -0.0698,0.0147 -0.2294,0.0508 -0.45654,0.10679 -0.6828,0.16803 -1.13708,0.31061 -2.23132,0.7612 -3.25747,1.34136 l -0.11105,0.0634 -0.0443,0.0253 -0.0191,0.0117 -0.0191,0.0116 c -0.20763,0.13146 -0.3668,0.32709 -0.45329,0.55704 -0.0865,0.22984 -0.0965,0.48167 -0.0286,0.71768 0.069,0.23556 0.21212,0.44285 0.40797,0.59081 0.19664,0.14751 0.43601,0.22692 0.68178,0.22625 h 0.001 z"
   style="fill:#1066df;fill-rule:nonzero;stroke-width:0.112172"
   id="path2" />
        </g>
        <g
   transform="matrix(3.9987,0,0,3.9987,-38.875,0.251891)"
   id="g3">
            <path
   d="m 113.9684,122.82715 -0.01,0.0158 c -0.52194,0.85038 -0.91039,1.7758 -1.15201,2.74384 -10e-4,0.005 -0.003,0.0105 -0.004,0.0158 l -0.0158,0.0666 c -0.002,0.0105 -0.005,0.0222 -0.007,0.0328 -0.005,0.0211 -0.01,0.0423 -0.0148,0.0634 -0.28076,1.21606 -0.32664,2.47463 -0.13528,3.70785 0.002,0.0105 0.003,0.0211 0.004,0.0316 0.005,0.0313 0.0108,0.0627 0.0158,0.0941 l 0.002,0.0105 c 0,0 0,0.005 0.001,0.008 0.22681,1.33765 0.72844,2.61394 1.47326,3.748 l 0.0191,0.0295 c 0.0718,0.10891 0.14583,0.2157 0.22188,0.32137 0.0286,0.0402 0.0582,0.0793 0.0867,0.11834 1.55145,2.08864 3.87139,3.47689 6.44529,3.85681 l 0.0137,0.002 0.0645,0.01 h 0.01 l 0.0528,0.008 h 0.0115 l 0.0571,0.008 c 0.77523,0.0979 1.55942,0.10298 2.33588,0.0148 l 0.0497,-0.006 c 0.0158,-0.002 0.0317,-0.004 0.0476,-0.005 l 0.0666,-0.009 0.0127,-0.002 h 0.008 l 0.0148,-0.003 0.0624,-0.008 0.0222,-0.003 c 0.038,-0.005 0.0739,-0.0105 0.10993,-0.0158 h 10e-4 c 1.62952,-0.25149 3.16953,-0.90983 4.47724,-1.91411 0.11946,-0.0898 0.21963,-0.20269 0.2949,-0.33191 0.0754,-0.12934 0.12462,-0.27225 0.14481,-0.42065 0.0412,-0.29939 -0.0396,-0.60304 -0.22412,-0.84241 -0.0914,-0.11857 -0.20527,-0.21806 -0.33506,-0.29277 -0.12978,-0.0748 -0.27314,-0.12294 -0.42176,-0.14156 -0.14863,-0.0192 -0.2995,-0.008 -0.44387,0.0316 -0.14414,0.0403 -0.27908,0.10814 -0.39742,0.19978 -0.80181,0.61538 -1.71904,1.06362 -2.69729,1.31802 -0.0127,0.003 -0.0253,0.005 -0.038,0.008 -0.24745,0.0632 -0.49793,0.11363 -0.75043,0.15121 h -0.0107 c -0.0295,0.006 -0.0591,0.01 -0.0887,0.0137 l -0.0327,0.004 c -0.32418,0.0422 -0.65082,0.0634 -0.97769,0.0634 h -0.002 c -0.69794,0 -1.39262,-0.0964 -2.06419,-0.28638 l -0.006,-0.002 c -0.0523,-0.015 -0.10443,-0.0305 -0.15648,-0.0464 -0.077,-0.0234 -0.15345,-0.0485 -0.22939,-0.075 l -0.11733,-0.0413 -0.0507,-0.0191 -0.0148,-0.005 c -0.0296,-0.0105 -0.0591,-0.0222 -0.0887,-0.0338 l -0.0254,-0.01 -0.0444,-0.018 -0.0117,-0.004 h -0.002 c -0.0295,-0.0117 -0.0591,-0.0232 -0.0887,-0.0359 l -0.0222,-0.01 -0.0243,-0.0105 c -0.0443,-0.0191 -0.0877,-0.038 -0.13214,-0.0571 l -0.0359,-0.0158 c -1.27326,-0.57914 -2.36223,-1.49884 -3.14642,-2.65724 l -0.0191,-0.0275 -0.0328,-0.0496 -0.0286,-0.0444 c -0.7796,-1.2072 -1.20114,-2.61103 -1.2155,-4.04807 v -0.0973 c 0,-0.0392 0,-0.0783 0.001,-0.11733 v -0.01 c 0.003,-0.14795 0.0105,-0.2949 0.0222,-0.44072 0.001,-0.0158 0.002,-0.0317 0.004,-0.0465 0,-0.007 10e-4,-0.0148 0.002,-0.0222 0.0709,-0.79317 0.26697,-1.57019 0.58116,-2.302 0.14033,-0.32777 0.30354,-0.64521 0.4884,-0.9501 0.007,-0.0128 0.0158,-0.0265 0.0232,-0.0393 0.13483,-0.21716 0.28054,-0.42737 0.43657,-0.62984 0.40191,-0.52385 0.87057,-0.99284 1.39408,-1.3952 0.15435,-0.11901 0.31329,-0.23186 0.47662,-0.3382 0.13965,-0.0903 0.28211,-0.17633 0.42703,-0.25799 0.81179,-0.45408 1.69975,-0.75604 2.62012,-0.89087 0.35749,-0.0507 0.71813,-0.0762 1.07921,-0.0762 h 0.002 c 0.0275,0 0.055,-10e-4 0.0834,-0.003 h 0.005 c 0.97634,0.0114 1.94113,0.21358 2.83997,0.59507 0.0159,0.006 0.0317,0.0127 0.0476,0.0201 h 0.002 c 0.27606,0.11946 0.58868,0.12361 0.86776,0.0117 0.42985,-0.17129 0.71331,-0.58947 0.71331,-1.05218 0,-0.14425 -0.0276,-0.28727 -0.0812,-0.4212 -0.11172,-0.27897 -0.32967,-0.50253 -0.60561,-0.62144 h -0.002 c -1.66486,-0.71801 -3.4973,-0.95839 -5.29105,-0.69434 l -0.0392,0.006 -0.0624,0.01 -0.0116,0.002 -0.0465,0.007 c -1.35089,0.21772 -2.64098,0.71756 -3.78592,1.46687 l -0.009,0.005 c -0.0168,0.0117 -0.0348,0.0222 -0.0518,0.0339 l -0.0527,0.0348 c -0.0117,0.009 -0.0233,0.0159 -0.035,0.0245 -1.05654,0.71319 -1.96267,1.62716 -2.66666,2.68988 -0.0137,0.0211 -0.0295,0.0443 -0.0443,0.0665 l -0.009,0.0128 -0.0454,0.0707 -0.0264,0.0413 c -0.01,0.0148 -0.0191,0.0296 -0.0275,0.0444 -0.005,0.008 -0.0106,0.0168 -0.0159,0.0243 l -0.0191,0.0295 -0.002,0.005 0.001,-0.002 z"
   style="fill:#1066df;fill-rule:nonzero;stroke-width:0.112172"
   id="path3" />
        </g>
    </g>
</svg>
