<?xml version="1.0" encoding="UTF-8" standalone="no"?>
<svg
   width="96"
   height="115.9244"
   viewBox="0 0 96 115.9244"
   version="1.1"
   xml:space="preserve"
   style="clip-rule:evenodd;fill-rule:evenodd;stroke-linejoin:round;stroke-miterlimit:2"
   id="svg1"
   xmlns="http://www.w3.org/2000/svg"
   xmlns:svg="http://www.w3.org/2000/svg"><defs
   id="defs1" />
    <g
   transform="matrix(4,0,0,4,-376,-454.0372)"
   id="g1">
        <path
   d="m 118,119.30541 v -5.79611 h -12 v 5.79611 h 6 c -0.0245,1.56057 -0.67042,3.04857 -1.79366,4.13208 -1.12506,1.08668 -2.63796,1.68498 -4.20634,1.66381 v -5.79589 c -3.13608,-0.0399 -6.160075,1.15766 -8.409396,3.33057 -2.249434,2.1729 -3.540566,5.1437 -3.590604,8.26143 0.05004,3.11763 1.341283,6.08842 3.590604,8.26132 2.249321,2.17291 5.273316,3.37042 8.409396,3.33057 3.13687,0.0426 6.16245,-1.15415 8.41234,-3.32762 2.24989,-2.17347 3.54023,-5.14585 3.58766,-8.26427 h -6 c -0.0104,0.77276 -0.174,1.53578 -0.48125,2.24491 -0.30781,0.71015 -0.75294,1.3526 -1.30981,1.89023 -0.55788,0.53875 -1.21641,0.9626 -1.938,1.24709 -0.7226,0.28506 -1.49422,0.42577 -2.27094,0.41389 -1.56838,0.0212 -3.08106,-0.57736 -4.206,-1.66415 -1.12506,-1.08668 -1.77034,-2.57276 -1.794,-4.13197 0.0238,-1.55932 0.66906,-3.04539 1.794,-4.13207 1.12494,-1.08668 2.63751,-1.68532 4.206,-1.66404 v 5.79611 c 3.13608,0.0399 6.16008,-1.158 8.4094,-3.3309 2.24932,-2.17279 3.54056,-5.14347 3.5906,-8.2611 z"
   style="fill:#ef6100;fill-rule:nonzero;stroke-width:0.113208"
   id="path1" />
    </g>
</svg>
