<?xml version="1.0" encoding="UTF-8" standalone="no"?>
<svg
   width="143.09416"
   height="143.09351"
   viewBox="0 0 143.09416 143.09351"
   version="1.1"
   xml:space="preserve"
   style="clip-rule:evenodd;fill-rule:evenodd;stroke-linejoin:round;stroke-miterlimit:2"
   id="svg3"
   xmlns="http://www.w3.org/2000/svg"
   xmlns:svg="http://www.w3.org/2000/svg"><defs
   id="defs3" />
    <g
   transform="matrix(1.00373,0,0,1.01105,-440.25651,-446.11024)"
   id="g3">
        <g
   transform="matrix(3.98212,0,0,3.98212,0.583005,2.53258)"
   id="g1">
            <path
   d="m 127.9698,139.83377 c 6.65304,0 12.00915,-5.35611 12.00915,-11.83992 0,-6.48396 -5.35611,-11.83993 -12.00915,-11.83993 -6.6529,0 -12.00901,5.35611 -12.00901,11.83993 0,6.48381 5.35625,11.83992 12.00901,11.83992 z"
   style="fill:#46b549;fill-rule:nonzero;stroke-width:0.13974"
   id="path1" />
        </g>
        <g
   transform="matrix(3.98212,0,0,3.98212,0.583005,2.53258)"
   id="g2">
            <path
   d="m 138.0293,140.5403 c 0.6456,0.61164 0.60619,1.65648 -0.13415,2.14921 -6.96523,4.63421 -16.42272,3.95465 -22.60833,-2.178 -7.04767,-6.99121 -7.04767,-18.15465 0,-25.14587 6.15333,-6.15333 15.70068,-6.81668 22.67806,-2.1309 0.70764,0.47512 0.75837,1.47217 0.15567,2.07501 -0.51425,0.51424 -1.32838,0.55532 -1.93625,0.15609 -5.8016,-3.80961 -13.70616,-3.11929 -18.75498,1.92953 -5.97642,5.8072 -5.97642,15.27922 -0.11277,21.08641 5.0498,5.0498 12.95631,5.73956 18.75806,1.92744 0.61024,-0.40091 1.42465,-0.37115 1.95469,0.13108 z m 2.60182,-2.543 c 0.61207,0.64616 1.65718,0.61025 2.15368,-0.12842 4.03962,-6.00953 4.02243,-13.9433 -0.0514,-19.93635 -0.47736,-0.70219 -1.46951,-0.74914 -2.06998,-0.14882 -0.51718,0.51732 -0.55588,1.3369 -0.15008,1.94547 3.27859,4.91621 3.2737,11.31059 -0.0148,16.30896 -0.40231,0.61165 -0.37087,1.42773 0.13261,1.95916 z"
   style="fill:#46b549;fill-rule:nonzero;stroke-width:0.13974"
   id="path2" />
        </g>
    </g>
</svg>
