<?xml version="1.0" encoding="UTF-8" standalone="no"?>
<svg
   width="411.53268"
   height="272.19684"
   viewBox="0 0 411.53268 272.19684"
   version="1.1"
   xml:space="preserve"
   style="clip-rule:evenodd;fill-rule:evenodd;stroke-linejoin:round;stroke-miterlimit:2"
   id="svg3"
   xmlns="http://www.w3.org/2000/svg"
   xmlns:svg="http://www.w3.org/2000/svg"><defs
   id="defs3" />
    <g
   transform="matrix(3.98978,0,0,3.98978,-304.34402,-376.32077)"
   id="g3">
        <path
   d="m 91.784829,157.75617 c -0.05836,0.0145 -0.119532,0.0145 -0.177889,0 -0.15173,-0.0443 -0.26603,-0.17105 -0.295007,-0.3264 -0.163401,-1.03675 4.338574,-10.57316 6.410464,-14.27785 1.03836,-1.84047 8.813583,-6.922 14.054483,-9.41366 0.46767,-0.22095 3.49742,-1.67506 3.58999,-1.50924 0.0926,0.16541 -2.73515,2.36609 -2.88286,2.49166 -4.60983,3.69422 -12.851111,13.35902 -17.153463,18.8575 -2.739983,3.50306 -3.241052,4.11681 -3.545718,4.17799 z"
   style="fill-rule:nonzero;stroke-width:0.402465"
   id="path1" />
        <path
   d="m 138.96863,106.76183 c 7.24638,-0.22659 11.06336,1.84087 12.96219,3.68255 1.5342,1.36718 2.45987,3.29257 2.56934,5.34474 0.0491,2.7428 -2.91988,3.56504 -4.69516,4.06208 -0.23946,0.0612 -0.52884,0.14127 -0.7683,0.22095 1.22591,0.4898 4.03833,1.36839 6.56984,2.154 10.52808,3.27647 14.98377,4.90927 15.36209,6.32715 0.0805,0.32721 -0.0233,0.67333 -0.27046,0.90233 -0.56546,0.47249 -1.63441,0.3924 -3.41733,0.0922 l -0.25798,-0.0431 c -18.29083,-2.90862 -30.79824,-2.69974 -30.92703,-2.69974 -33.55754,0.50912 -50.711806,24.80272 -56.353159,32.78763 -1.481474,2.10489 -2.071488,2.93719 -2.614816,2.95208 -0.157364,-0.003 -0.309898,-0.0543 -0.436674,-0.14771 -0.276896,-0.23302 -0.428626,-0.58357 -0.408502,-0.94498 -0.12235,-3.7864 7.844447,-26.17915 24.805931,-38.90027 7.05763,-5.30006 19.05391,-10.66613 36.31846,-6.44226 -0.98685,-1.05848 -1.54104,-2.4498 -1.55231,-3.89666 -5.07066,0.66245 -14.13659,-0.0612 -20.59213,-0.90233 -5.54999,-0.74255 -14.92904,-2.25179 -15.531127,-4.38768 -0.129192,-0.46685 0.06117,-0.96953 1.259717,-1.66942 5.39303,-3.1666 13.13404,-3.8536 13.13404,-3.8536 21.82569,-2.106506 24.84337,5.36204 24.84337,5.36204 z"
   style="fill-rule:nonzero;stroke-width:0.402465"
   id="path2" />
        <path
   d="m 115.10889,99.612036 c 0,0 -6.5952,-3.878958 -5.53229,-4.909269 1.06332,-1.03031 13.14049,0 21.08233,3.40566 7.94185,3.405253 8.44453,7.204123 8.44453,7.204123 -2.58785,-4.23393 -9.40441,-6.848746 -23.99497,-5.700514 z m 56.35517,24.785814 c -1.18002,0.0366 -2.21838,0.0555 -3.78558,0.0817 -0.38516,-0.005 -0.7663,-0.0793 -1.12529,-0.21934 l -10.09182,-3.20322 c -0.295,-0.0922 -2.21275,-0.71156 -2.04291,-0.9635 0.17024,-0.25235 1.93586,-0.23907 2.24334,-0.22699 h 0.68218 c 12.38466,0.36221 19.66766,1.22389 21.73593,2.55847 0.2765,0.15414 0.41011,0.48255 0.31956,0.78601 -0.11189,0.45036 -0.2282,0.95948 -7.93541,1.18687 z m -78.952379,3.68296 c -0.326801,0.0624 -0.664872,0.0262 -0.970746,-0.10464 -0.509923,-0.20888 -0.750195,-0.61336 -1.225908,-1.2239 -1.225507,-1.49717 -1.720941,-3.19074 -1.321293,-4.40579 0.262407,-0.74979 0.899912,-1.30962 1.677474,-1.47261 2.415596,-0.61336 5.138272,0.32639 6.145642,1.47261 0.817005,0.8975 0.443114,1.1905 -0.614161,2.06827 -0.617784,0.51556 -1.202969,1.06935 -1.751931,1.65735 -0.897497,0.91038 -1.224299,1.65937 -1.939077,2.00871 z"
   style="fill-rule:nonzero;stroke-width:0.402465"
   id="path3" />
    </g>
</svg>
