<?xml version="1.0" encoding="UTF-8" standalone="no"?>
<svg
   width="95.999535"
   height="96.000069"
   viewBox="0 0 95.999535 96.000069"
   version="1.1"
   xml:space="preserve"
   style="clip-rule:evenodd;fill-rule:evenodd;stroke-linejoin:round;stroke-miterlimit:2"
   id="svg1"
   xmlns="http://www.w3.org/2000/svg"
   xmlns:svg="http://www.w3.org/2000/svg"><defs
   id="defs1" />
    <g
   transform="matrix(4.11463,0,0,4.11463,-479.97284,-479.98568)"
   id="g1">
        <path
   d="m 135.22626,118.92236 2.01168,-2.01168 c 0.34294,-0.34294 0.89991,-0.34304 1.24294,-1e-4 l 1.24284,1.24294 c 0.34304,0.34294 0.34294,0.89991 0,1.24294 v -1e-4 l -2.01159,2.0116 c 1.42631,1.93528 2.26941,4.32553 2.26941,6.91125 0,2.58562 -0.8431,4.97597 -2.26894,6.91059 l 2.01178,2.01178 c 0.34294,0.34294 0.34294,0.89981 -9e-5,1.24285 l -1.24294,1.24293 c -0.34294,0.34294 -0.89981,0.34294 -1.24275,0 l -2.01178,-2.01178 c -1.93491,1.42613 -4.32525,2.26913 -6.91088,2.26913 -2.58572,0 -4.97597,-0.843 -6.91078,-2.26903 l -2.01187,2.01187 c -0.34294,0.34303 -0.89982,0.34303 -1.24285,0 l -1.24293,-1.24294 c -0.34294,-0.34293 -0.34294,-0.89981 0,-1.24275 l 2.01187,-2.01187 c -1.42603,-1.93481 -2.26903,-4.32516 -2.26903,-6.91078 0,-2.58572 0.843,-4.97597 2.26912,-6.91097 l -2.01168,-2.01169 c -0.34294,-0.34294 -0.34303,-0.89991 -1e-4,-1.24294 l 1.24294,-1.24284 c 0.34294,-0.34303 0.89991,-0.34294 1.24294,0 h -1e-4 l 2.01179,2.01178 c 1.93471,-1.42594 4.32496,-2.26894 6.91068,-2.26894 2.58563,0 4.97597,0.843 6.91032,2.26875 z m -6.91032,1.2466 c 4.49822,0 8.15016,3.65193 8.15016,8.15025 0,4.49822 -3.65194,8.15015 -8.15016,8.15015 -4.49831,0 -8.15025,-3.65193 -8.15025,-8.15015 0,-4.49832 3.65194,-8.15025 8.15025,-8.15025 z"
   style="fill:#959595;stroke-width:0.09375"
   id="path1" />
    </g>
</svg>
