<?xml version="1.0" encoding="UTF-8" standalone="no"?>
<svg
   width="96.000061"
   height="69.820152"
   viewBox="0 0 96.000061 69.820152"
   version="1.1"
   xml:space="preserve"
   style="clip-rule:evenodd;fill-rule:evenodd;stroke-linejoin:round;stroke-miterlimit:2"
   id="svg1"
   xmlns="http://www.w3.org/2000/svg"
   xmlns:svg="http://www.w3.org/2000/svg"><defs
   id="defs1" />
    <g
   transform="matrix(4.3809,0,0,4.3809,-488.11261,-525.84298)"
   id="g1">
        <path
   d="m 133.33166,127.99955 c 0,1.45153 -0.38888,2.81147 -1.06641,3.98437 -0.70069,1.21097 -1.707,2.21728 -2.91797,2.91797 -0.0421,0.0235 -0.083,0.0471 -0.12506,0.0706 -1.14319,0.63413 -2.4585,0.99572 -3.85809,0.99572 h -7.96744 l 1.49362,-3.98428 h -4.48219 l 1.49363,-3.98437 h 9.46238 l -1.49363,3.98437 h 1.49363 c 1.85662,0 3.41587,-1.26956 3.85809,-2.98865 0.0833,-0.32532 0.12544,-0.65991 0.12506,-0.99572 0,-2.19966 -1.7835,-3.98438 -3.98437,-3.98438 h -7.96753 l 1.49371,-3.98437 h 6.47382 c 1.45153,0 2.81146,0.38887 3.98437,1.0664 1.21097,0.70069 2.21728,1.707 2.91797,2.91797 0.67753,1.17169 1.06641,2.53275 1.06641,3.98438 z m -17.43235,0 h -4.48097 l 1.49363,-3.98438 h 4.48228 z"
   style="fill:#c82020;fill-rule:nonzero;stroke-width:0.09375"
   id="path1" />
    </g>
</svg>
