<?xml version="1.0" encoding="UTF-8" standalone="no"?>
<svg
   width="96.000076"
   height="120.09602"
   viewBox="0 0 96.000076 120.09602"
   version="1.1"
   xml:space="preserve"
   style="clip-rule:evenodd;fill-rule:evenodd;stroke-linejoin:round;stroke-miterlimit:2"
   id="svg1"
   xmlns="http://www.w3.org/2000/svg"
   xmlns:svg="http://www.w3.org/2000/svg"><defs
   id="defs1" />
    <g
   transform="matrix(4.67367,0,0,4.67367,-879.15084,-1746.2156)"
   id="g1">
        <path
   d="m 188.10719,390.76478 1.1898,-2.85881 h 1.25596 c -0.0331,-0.50683 -0.0496,-0.99709 -0.0496,-1.47078 0,-0.63902 0.0275,-1.23386 0.0826,-1.78476 h -2.47878 l 1.1898,-2.85881 h 1.86738 c 1.74057,-5.44218 5.66251,-8.16327 11.76581,-8.16327 2.00498,0 3.91089,0.25335 5.71763,0.76006 v 3.60254 c -1.69651,-0.7382 -3.49784,-1.10719 -5.40364,-1.10719 -3.65754,0 -6.00964,1.63599 -7.0562,4.90786 h 10.89 l -1.1898,2.85881 h -10.41079 c -0.0551,0.35254 -0.0826,0.82634 -0.0826,1.42118 0,0.6831 0.022,1.29451 0.066,1.83436 h 9.07222 l -1.17323,2.85881 h -7.27101 c 0.78216,1.983 1.73517,3.36282 2.85882,4.13945 1.12376,0.77675 2.72661,1.16501 4.80879,1.16501 1.48722,0 3.11769,-0.35254 4.89141,-1.0576 v 3.38761 c -1.68558,0.61694 -3.69056,0.9254 -6.01505,0.9254 -6.11435,0 -9.98117,-2.85329 -11.60059,-8.55987 z"
   style="fill:#003f20;fill-rule:nonzero;stroke-width:0.117511"
   id="path1" />
    </g>
</svg>
