<?xml version="1.0" encoding="UTF-8" standalone="no"?>
<svg
   width="96"
   height="96"
   viewBox="0 0 96 96"
   version="1.1"
   xml:space="preserve"
   style="clip-rule:evenodd;fill-rule:evenodd;stroke-linejoin:round;stroke-miterlimit:2"
   id="svg3"
   xmlns="http://www.w3.org/2000/svg"
   xmlns:svg="http://www.w3.org/2000/svg"><defs
   id="defs3" />
    <g
   transform="matrix(4,0,0,4,-464,-464)"
   id="g3">
        <g
   transform="scale(0.128)"
   id="g1">
            <path
   d="m 1053.8491,1063.1294 c 2.0062,2.0062 3.0122,4.8084 2.7412,7.6322 -0.27,2.8237 -1.7915,5.3831 -4.1419,6.9703 -14.9859,10.1025 -33.0318,16.0181 -52.4484,16.0181 -19.41684,0 -37.46288,-5.9156 -52.43231,-16.0416 -2.34385,-1.5825 -3.86025,-4.1343 -4.13016,-6.9496 -0.27019,-2.8154 0.73331,-5.6091 2.73338,-7.6088 -0.0195,-0.021 -0.0191,-0.021 -0.0189,-0.022 4.19841,-4.1981 10.73278,-4.9575 15.78206,-1.8337 11.04188,6.9141 24.09291,10.8928 38.06588,10.8928 13.97335,0 27.02435,-3.9787 38.08305,-10.8656 5.0363,-3.1153 11.5538,-2.3578 15.7416,1.83 0.023,-0.023 0.023,-0.023 0.024,-0.023 z m 9.2803,-116.97837 c 2.0062,-2.00597 4.8084,-3.01247 7.6322,-2.74162 2.8237,0.27065 5.3831,1.79156 6.9703,4.14243 10.1025,14.98528 16.0181,33.03132 16.0181,52.44816 0,19.4166 -5.9156,37.4625 -16.0416,52.4325 -1.5825,2.3437 -4.1343,3.8597 -6.9496,4.1297 -2.8154,0.2709 -5.6091,-0.7331 -7.6088,-2.7328 -0.021,0.019 -0.021,0.019 -0.022,0.019 -4.1981,-4.1981 -4.9575,-10.7334 -1.8337,-15.7818 6.9141,-11.0419 10.8928,-24.0929 10.8928,-38.0663 0,-13.97297 -3.9787,-27.024 -10.8656,-38.08303 -3.1153,-5.03644 -2.3578,-11.55403 1.83,-15.74147 -0.023,-0.0237 -0.023,-0.0241 -0.023,-0.0245 z m -140.83831,1.41666 c 1.76119,-2.60719 4.70944,-4.17347 7.85579,-4.17347 2.51334,0 4.92628,0.99947 6.70349,2.77669 0.0203,-0.0195 0.0206,-0.0191 0.021,-0.0189 4.19804,4.19841 4.95751,10.73278 1.83422,15.78206 C 931.79106,972.976 927.8125,986.02703 927.8125,1000 c 0,13.9734 3.97856,27.0244 10.86544,38.0831 3.11522,5.0363 2.35753,11.5538 -1.83,15.7416 0.0231,0.023 0.0227,0.023 0.0223,0.024 -2.00588,2.0062 -4.80769,3.0122 -7.63144,2.7412 -2.82375,-0.2709 -5.38322,-1.7915 -6.97115,-4.1419 C 912.16562,1037.4625 906.25,1019.4166 906.25,1000 c 0,-19.41684 5.91562,-37.46288 16.04109,-52.43231 z M 1000,940.9375 c 32.5978,0 59.0625,26.46506 59.0625,59.0625 0,32.5978 -26.4647,59.0625 -59.0625,59.0625 -32.59744,0 -59.0625,-26.4647 -59.0625,-59.0625 0,-32.59744 26.46506,-59.0625 59.0625,-59.0625 z m -53.84897,-4.06725 c -1.78256,-1.78247 -2.78512,-4.20262 -2.78512,-6.72356 0,-3.15563 1.57096,-6.1126 4.18593,-7.87903 C 962.53712,912.16562 980.58316,906.25 1000,906.25 c 19.4166,0 37.4625,5.91562 52.4325,16.04109 2.3437,1.58335 3.8597,4.13513 4.1297,6.95044 0.27,2.81531 -0.7331,5.60888 -2.7328,7.60884 0.019,0.0203 0.019,0.0206 0.019,0.021 -4.1981,4.19804 -10.7334,4.95751 -15.7818,1.83422 -11.0419,-6.91453 -24.0929,-10.89309 -38.0663,-10.89309 -13.97297,0 -27.024,3.97856 -38.08303,10.86544 -5.03644,3.11522 -11.55403,2.35753 -15.74147,-1.83 -0.0237,0.0231 -0.0241,0.0227 -0.0245,0.0223 z"
   style="fill:#208e7a;stroke-width:0.09375"
   id="path1" />
        </g>
        <g
   transform="matrix(0.128,0,0,0.128,-0.512,-0.262)"
   id="g2">
            <path
   d="m 962.46875,1005.9884 c 0,0 -3.60037,0 -3.60037,5.041 0,5.2715 3.2609,5.4206 4.49484,5.4206 h 5.55244 c 2.5559,9.1659 7.18303,16.1287 13.88118,20.8875 6.69825,4.7597 14.49816,7.139 23.39976,7.139 3.7903,0 7.2487,-0.33 10.3781,-0.9909 3.1284,-0.6619 5.7722,-1.5431 7.9322,-2.6447 2.159,-1.1015 3.8334,-2.3794 5.0231,-3.8334 1.1897,-1.4541 1.785,-3.0188 1.785,-4.6931 0,-1.7625 -0.4191,-3.316 -1.4541,-4.4954 -2.7046,-3.0806 -7.3922,-0.2681 -10.9725,1.1241 -2.8537,1.1091 -6.3459,1.785 -10.5768,1.785 -5.0234,0 -9.47422,-1.1906 -13.35219,-3.57 -3.87788,-2.3794 -6.83044,-5.9494 -8.8575,-10.7081 l 29.80429,-0.1491 c 0,0 4.7119,-0.9375 4.7007,-5.2715 -0.013,-5.041 -4.7007,-5.2875 -4.4953,-5.2875 z m 0,-7.88342 c 0,0 -3.60037,0.002 -3.60037,-5.04141 0,-5.27109 3.2609,-5.42025 4.49484,-5.42025 h 5.55244 c 2.5559,-9.16603 7.18303,-16.12865 13.88118,-20.88796 6.69825,-4.75922 14.49816,-7.13888 23.39976,-7.13888 3.7903,0 7.2487,0.33056 10.3781,0.9915 3.1284,0.66103 5.7722,1.54238 7.9322,2.64403 2.159,1.10175 3.8334,2.37966 5.0231,3.83391 1.1897,1.45415 1.785,3.01856 1.785,4.69312 0,1.76269 -0.4191,3.31557 -1.4541,4.49485 -2.7046,3.08109 -7.3922,0.26859 -10.9725,-1.12369 -2.8537,-1.10925 -6.3459,-1.78472 -10.5768,-1.78472 -5.0234,0 -9.47422,1.18978 -13.35219,3.56944 -3.87788,2.37965 -6.83044,5.94909 -8.8575,10.7084 l 29.80429,0.14916 c 0,0 4.7119,0.9375 4.7007,5.27109 -0.013,5.04141 -4.7007,5.28807 -4.4953,5.28807 z"
   style="fill:#ffffff;fill-rule:nonzero;stroke-width:0.09375"
   id="path2" />
        </g>
    </g>
</svg>
