<?xml version="1.0" encoding="UTF-8" standalone="no"?>
<svg
   width="96"
   height="96"
   viewBox="0 0 96 96"
   version="1.1"
   xml:space="preserve"
   style="clip-rule:evenodd;fill-rule:evenodd;stroke-linejoin:round;stroke-miterlimit:2"
   id="svg1"
   xmlns="http://www.w3.org/2000/svg"
   xmlns:svg="http://www.w3.org/2000/svg"><defs
   id="defs1" />
    <g
   transform="matrix(4,0,0,4,-561.01,-366.986)"
   id="g1">
        <path
   d="m 152.25102,115.7465 c -6.61637,0 -11.99852,-5.38195 -11.99852,-11.99852 0,-6.616358 5.38215,-12.00148 11.99852,-12.00148 6.61656,0 12.00148,5.382153 12.00148,12.00148 0,6.61953 -5.38492,11.99852 -12.00148,11.99852 z m 0,-19.310161 c -4.02999,0 -7.30868,3.278692 -7.30868,7.308681 0,4.02998 3.27869,7.30887 7.30868,7.30887 4.02998,0 7.30867,-3.27889 7.30867,-7.30887 0,-4.029989 -3.27869,-7.308681 -7.30867,-7.308681 z"
   style="fill:#282828;fill-rule:nonzero;stroke-width:0.197917"
   id="path1" />
    </g>
</svg>
