<?xml version="1.0" encoding="UTF-8" standalone="no"?>
<svg
   width="96"
   height="95.85981"
   viewBox="0 0 96 95.85981"
   version="1.1"
   xml:space="preserve"
   style="clip-rule:evenodd;fill-rule:evenodd;stroke-linejoin:round;stroke-miterlimit:2"
   id="svg1"
   xmlns="http://www.w3.org/2000/svg"
   xmlns:svg="http://www.w3.org/2000/svg"><defs
   id="defs1" />
    <g
   transform="matrix(74.7882,0,0,74.7882,48.000002,559.18202)"
   id="g1">
        <path
   d="m -0.1318125,-6.88175 -0.23990625,-0.416625 c -0.0246562,-0.032344 -0.0515625,-0.062906 -0.0805312,-0.0915 -0.0335625,-0.033563 -0.0717187,-0.050344 -0.11446875,-0.050344 h -0.04575 v -0.036656 h 0.54928125 v 0.036656 h -0.04575 c -0.04275,0 -0.065625,0.016781 -0.0687187,0.050344 -0.003094,0.031406 0.002625,0.063094 0.0165,0.0915 L 0.033,-6.9614375 0.27103125,-7.3020313 c 0.0151875,-0.028031 0.022875,-0.057375 0.022875,-0.087844 0,-0.033563 -0.021375,-0.050344 -0.064125,-0.050344 h -0.04575 V -7.476875 H 0.6418125 v 0.036656 H 0.5959688 c -0.0426563,0 -0.085125,0.016781 -0.12721875,0.050344 -0.0347812,0.027469 -0.0616875,0.054 -0.0805312,0.079594 l -0.0119063,0.0165 -0.2875313,0.412031 H 0.6418125 v 0.0915 h -0.51 l 0.2435625,0.4220625 c 0.0177188,0.027469 0.042375,0.056156 0.0741562,0.086063 0.0354375,0.033562 0.0744375,0.050344 0.1171875,0.050344 h 0.04575 v 0.036656 H 0.0631875 v -0.036656 h 0.04575 c 0.04275,0 0.065625,-0.016781 0.0687187,-0.050344 C 0.18075,-6.314 0.17475,-6.3460625 0.16021875,-6.3745625 L -0.033,-6.709625 -0.2645625,-6.3782188 c -0.0189375,0.0285 -0.0291562,0.061875 -0.0293438,0.096094 0,0.033562 0.021375,0.050344 0.064125,0.050344 h 0.04575 v 0.036656 h -0.4577812 v -0.036656 h 0.0458437 c 0.0426563,0 0.0839063,-0.016781 0.1235625,-0.050344 0.0372188,-0.031125 0.0680625,-0.061313 0.0924375,-0.090656 L -0.0879375,-6.79025 h -0.553875 v -0.0915 z"
   style="fill-rule:nonzero;stroke-width:0.09375"
   id="path1" />
    </g>
</svg>
