<?xml version="1.0" encoding="UTF-8" standalone="no"?>
<svg
   width="95.996925"
   height="99.095802"
   viewBox="0 0 95.996925 99.095802"
   version="1.1"
   xml:space="preserve"
   style="clip-rule:evenodd;fill-rule:evenodd;stroke-linejoin:round;stroke-miterlimit:2"
   id="svg1"
   xmlns="http://www.w3.org/2000/svg"
   xmlns:svg="http://www.w3.org/2000/svg"><defs
   id="defs1" />
    <g
   transform="matrix(4,0,0,4,-447.99996,-462.4516)"
   id="g1">
        <path
   d="m 135.9489,122.95361 c -0.0345,-0.30871 -0.0861,-0.61519 -0.15465,-0.9181 -0.0709,-0.31103 -0.16016,-0.61771 -0.26738,-0.91819 -0.11207,-0.31345 -0.24271,-0.62003 -0.39107,-0.9181 -0.15851,-0.31635 -0.33706,-0.62225 -0.53468,-0.91587 -0.13935,-0.20874 -0.28906,-0.41032 -0.44854,-0.60406 -0.0868,-0.10723 -0.17681,-0.21203 -0.26962,-0.31413 -0.2039,-0.22907 -0.42155,-0.44545 -0.65177,-0.648 -0.10297,-0.0937 -0.20903,-0.18377 -0.3182,-0.2701 -0.19461,-0.15745 -0.39667,-0.30551 -0.60541,-0.44371 -0.25975,-0.17429 -0.52984,-0.33271 -0.80865,-0.47448 -0.0376,-0.0203 -0.076,-0.0394 -0.11487,-0.0571 -0.29932,-0.14893 -0.60784,-0.2788 -0.92352,-0.38884 -0.30164,-0.10645 -0.60929,-0.19519 -0.92138,-0.26574 -0.60629,-0.13587 -1.22575,-0.20439 -1.84713,-0.20429 H 114.3069 c -0.49887,-2.9e-4 -0.98449,0.16161 -1.38329,0.46132 -0.17487,0.12804 -0.32971,0.28123 -0.45968,0.45465 -0.30135,0.39571 -0.46442,0.87968 -0.46394,1.3771 v 16.51771 c 0,0.15377 0.007,0.30754 0.0199,0.45909 0.022,0.30862 0.0692,0.615 0.14129,0.91587 0.15048,0.63978 0.40819,1.24955 0.76229,1.80329 0.007,0.0115 0.014,0.0225 0.0223,0.033 0.21019,0.3301 0.45377,0.63775 0.72677,0.9181 0.0553,0.0593 0.11275,0.11642 0.17245,0.17129 l 0.002,0.002 c 0.28162,0.27106 0.59033,0.51242 0.92129,0.72038 0.0106,0.008 0.0217,0.0155 0.0333,0.022 0.28307,0.17884 0.58094,0.33319 0.89033,0.46132 0.29932,0.12378 0.60822,0.22297 0.92361,0.29652 0.30281,0.0715 0.61094,0.11855 0.92129,0.14061 h 0.002 v 0.0197 h 7.84596 v -0.009 c 0.12968,-0.0245 0.24678,-0.0936 0.33087,-0.1952 0.0839,-0.10132 0.12949,-0.22896 0.12871,-0.36048 10e-4,-0.129 -0.0435,-0.25442 -0.126,-0.35361 -0.0574,-0.072 -0.1318,-0.12852 -0.21648,-0.16471 -0.0393,-0.0215 -0.0783,-0.0435 -0.1171,-0.0659 -0.15667,-0.0876 -0.31074,-0.17981 -0.4618,-0.27678 -0.159,-0.0988 -0.31152,-0.20642 -0.46171,-0.31626 -0.0427,-0.0288 -0.084,-0.0596 -0.12378,-0.0923 -0.11516,-0.0862 -0.2278,-0.17555 -0.33803,-0.26797 -0.10142,-0.0841 -0.2009,-0.17042 -0.29826,-0.25916 -0.13887,-0.12532 -0.273,-0.25568 -0.40219,-0.39097 -0.051,-0.0503 -0.10036,-0.10229 -0.14797,-0.1559 -0.0266,-0.0264 -0.0509,-0.0549 -0.0752,-0.0813 -0.19703,-0.21745 -0.38294,-0.44468 -0.55703,-0.6809 -0.12929,-0.17371 -0.25171,-0.35255 -0.36687,-0.53594 -0.0799,-0.12532 -0.15659,-0.25277 -0.22975,-0.38216 -0.16819,-0.29613 -0.31867,-0.60194 -0.45067,-0.91587 -0.0894,-0.20952 -0.16984,-0.42281 -0.24088,-0.63919 -0.0327,-0.0919 -0.0622,-0.18504 -0.0884,-0.279 -0.0466,-0.15155 -0.088,-0.30465 -0.12377,-0.4591 -0.0376,-0.15203 -0.0708,-0.30513 -0.0994,-0.4591 -0.0564,-0.30368 -0.097,-0.61016 -0.12155,-0.91809 -0.009,-0.11188 -0.0155,-0.22384 -0.0198,-0.336 -0.006,-0.12659 -0.009,-0.25326 -0.009,-0.38004 v -2.95432 h -3.06465 c -0.1321,4.8e-4 -0.26023,-0.0452 -0.36223,-0.1291 -0.10171,-0.0836 -0.17071,-0.20051 -0.1948,-0.3299 -0.0303,-0.14942 0.003,-0.30484 0.0928,-0.42832 l 0.0199,-0.0286 0.27842,-0.39542 0.1679,-0.23719 0.2011,-0.28558 0.55239,-0.78629 0.0927,-0.13181 0.64742,-0.91819 0.18338,-0.26129 0.46191,-0.65681 0.46171,-0.65449 0.18338,-0.26138 0.27842,-0.39542 0.36929,-0.52258 0.0927,-0.13191 0.55461,-0.78629 0.36678,-0.52277 0.27842,-0.39532 0.18116,-0.25703 c 0.0523,-0.0747 0.12184,-0.13559 0.20274,-0.17759 0.16432,-0.0853 0.36049,-0.0853 0.52481,0 0.0809,0.042 0.15048,0.10297 0.20274,0.17759 l 0.18116,0.25703 0.27619,0.39319 0.369,0.5249 0.0928,0.12968 0.46171,0.65671 0.0928,0.13181 0.36929,0.52268 0.27842,0.39541 0.18116,0.25917 0.46403,0.65671 0.45958,0.65458 0.18561,0.26361 0.64742,0.9181 0.0905,0.12958 0.55461,0.78861 0.36929,0.52268 0.27842,0.39532 0.0198,0.0286 c 0.0894,0.12349 0.1231,0.27891 0.0928,0.42823 -0.0198,0.10084 -0.0666,0.19452 -0.13538,0.27087 -0.0689,0.0767 -0.15726,0.13336 -0.25568,0.16403 -0.0545,0.0162 -0.1111,0.0243 -0.1679,0.0242 h -3.06242 v 2.75438 c -2.9e-4,0.31529 0.0652,0.62729 0.19229,0.91588 0.0704,0.1618 0.16006,0.31451 0.26729,0.45464 0.24097,0.318 0.55887,0.56981 0.92361,0.73152 0.29139,0.12658 0.6059,0.19171 0.92361,0.19113 0.0397,0 0.0796,0 0.11933,-0.002 0.26874,-0.003 0.53709,-0.0189 0.80419,-0.0483 0.31045,-0.0343 0.61877,-0.0857 0.92361,-0.15377 0.30068,-0.0678 0.59729,-0.15291 0.8882,-0.25481 h 0.0331 v -0.0109 c 0.31578,-0.11003 0.6242,-0.2399 0.92362,-0.38874 0.312,-0.15339 0.61384,-0.32651 0.90367,-0.51842 h 0.0199 v -0.0133 c 0.32468,-0.21532 0.63339,-0.45387 0.92361,-0.7138 0.0701,-0.0612 0.13858,-0.12416 0.20545,-0.18891 0.25491,-0.24145 0.49394,-0.49896 0.71584,-0.771 0.0398,-0.0484 0.0773,-0.0967 0.11487,-0.14719 0.2282,-0.2911 0.43568,-0.59787 0.62091,-0.9181 0.066,-0.11158 0.12861,-0.22509 0.18774,-0.34045 0.0989,-0.1889 0.19026,-0.38168 0.27397,-0.57774 0.0625,-0.15155 0.12145,-0.30464 0.1768,-0.459 0.0547,-0.15048 0.10404,-0.3029 0.14797,-0.45687 0.0871,-0.30194 0.15716,-0.60852 0.2099,-0.91819 0.0519,-0.30378 0.0858,-0.61036 0.10162,-0.9181 h 0.0132 v -1.83648 c -2.9e-4,-0.306 -0.0173,-0.61171 -0.0511,-0.91578 z"
   style="fill:#3749e7;fill-rule:nonzero;stroke-width:0.0967742"
   id="path1" />
    </g>
</svg>
