<?xml version="1.0" encoding="UTF-8" standalone="no"?>
<svg
   width="95.999985"
   height="129.97762"
   viewBox="0 0 95.999985 129.97762"
   version="1.1"
   xml:space="preserve"
   style="clip-rule:evenodd;fill-rule:evenodd;stroke-linejoin:round;stroke-miterlimit:2"
   id="svg1"
   xmlns="http://www.w3.org/2000/svg"
   xmlns:svg="http://www.w3.org/2000/svg"><defs
   id="defs1" />
    <g
   transform="matrix(4.91778,0,0,4.91778,-2260.7305,-1594.8111)"
   id="g1">
        <path
   d="m 459.7055,343.88906 h 3.2535 V 340.928 h -3.2535 v -3.14383 h 3.2535 v -13.48924 h 7.0919 c 2.85138,0 5.0935,0.71894 6.72634,2.15682 1.63284,1.43788 2.44926,3.44847 2.44926,6.03177 0,1.04795 -0.15841,2.07761 -0.47523,3.089 -0.31682,1.01139 -0.82251,1.92529 -1.51708,2.74172 -0.69457,0.81642 -1.60238,1.46834 -2.72343,1.95575 -1.12106,0.48742 -2.48583,0.73113 -4.0943,0.73113 h -3.91151 v 2.88794 h 3.65562 v 3.14383 h -3.65562 v 3.69218 H 462.959 v -3.69218 h -3.2535 z m 10.71096,-6.32423 c 1.02357,0 1.87655,-0.1645 2.55893,-0.4935 0.68239,-0.32901 1.22464,-0.76159 1.62676,-1.29775 0.40211,-0.53616 0.68847,-1.09059 0.85907,-1.66331 0.17059,-0.57271 0.25589,-1.09059 0.25589,-1.55363 0,-0.70676 -0.1645,-1.43788 -0.49351,-2.19338 -0.329,-0.75549 -0.86516,-1.38913 -1.60847,-1.90092 -0.74331,-0.51179 -1.74861,-0.76768 -3.01589,-0.76768 h -4.09429 v 9.87017 z"
   style="fill:#003f20;fill-rule:nonzero;stroke-width:0.126931"
   id="path1" />
    </g>
</svg>
