<?xml version="1.0" encoding="UTF-8" standalone="no"?>
<svg
   width="95.999619"
   height="95.999619"
   viewBox="0 0 95.999619 95.999619"
   version="1.1"
   xml:space="preserve"
   style="clip-rule:evenodd;fill-rule:evenodd;stroke-linejoin:round;stroke-miterlimit:2"
   id="svg3"
   xmlns="http://www.w3.org/2000/svg"
   xmlns:svg="http://www.w3.org/2000/svg"><defs
   id="defs3" />
    <g
   transform="matrix(1.23373,0,0,1.23373,-463.99814,-463.99814)"
   id="g3">
        <g
   transform="scale(0.415)"
   id="g1">
            <path
   d="m 1053.8491,1063.1294 c 2.0062,2.0062 3.0122,4.8084 2.7412,7.6322 -0.27,2.8237 -1.7915,5.3831 -4.1419,6.9703 -14.9859,10.1025 -33.0318,16.0181 -52.4484,16.0181 -19.41684,0 -37.46287,-5.9156 -52.43231,-16.0416 -2.34385,-1.5825 -3.86025,-4.1343 -4.13016,-6.9496 -0.27019,-2.8154 0.73331,-5.6091 2.73338,-7.6088 -0.0195,-0.021 -0.0191,-0.021 -0.0189,-0.022 4.19841,-4.1981 10.73278,-4.9575 15.78207,-1.8337 11.04187,6.9141 24.0929,10.8928 38.06587,10.8928 13.97335,0 27.02435,-3.9787 38.08305,-10.8656 5.0363,-3.1153 11.5538,-2.3578 15.7416,1.83 0.023,-0.023 0.023,-0.023 0.024,-0.023 z m 9.2803,-116.97837 c 2.0062,-2.00597 4.8084,-3.01247 7.6322,-2.74162 2.8237,0.27065 5.3831,1.79156 6.9703,4.14243 10.1025,14.98529 16.0181,33.03132 16.0181,52.44816 0,19.4166 -5.9156,37.4625 -16.0416,52.4325 -1.5825,2.3438 -4.1343,3.8597 -6.9496,4.1297 -2.8154,0.2709 -5.6091,-0.7331 -7.6088,-2.7328 -0.021,0.019 -0.021,0.019 -0.022,0.019 -4.1981,-4.1981 -4.9575,-10.7334 -1.8337,-15.7818 6.9141,-11.0419 10.8928,-24.0929 10.8928,-38.0663 0,-13.97297 -3.9787,-27.024 -10.8656,-38.08303 -3.1153,-5.03644 -2.3578,-11.55403 1.83,-15.74147 -0.023,-0.0237 -0.023,-0.0241 -0.023,-0.0245 z m -140.83831,1.41666 c 1.76119,-2.60719 4.70944,-4.17347 7.85579,-4.17347 2.51334,0 4.92628,0.99947 6.7035,2.77669 0.0203,-0.0195 0.0206,-0.0191 0.021,-0.0189 4.19803,4.19841 4.9575,10.73278 1.83421,15.78207 -6.91453,11.04187 -10.89309,24.0929 -10.89309,38.06587 0,13.97335 3.97856,27.02445 10.86544,38.08315 3.11522,5.0363 2.35753,11.5537 -1.83,15.7416 0.0231,0.023 0.0227,0.023 0.0223,0.024 -2.00587,2.0062 -4.80769,3.0121 -7.63144,2.7411 -2.82375,-0.2709 -5.38322,-1.7915 -6.97115,-4.1419 C 912.16563,1037.4625 906.25,1019.4166 906.25,1000 c 0,-19.41684 5.91563,-37.46287 16.04109,-52.43231 z M 1000,940.9375 c 32.5978,0 59.0625,26.46506 59.0625,59.0625 0,32.5978 -26.4647,59.0625 -59.0625,59.0625 -32.59744,0 -59.0625,-26.4647 -59.0625,-59.0625 0,-32.59744 26.46506,-59.0625 59.0625,-59.0625 z m -53.84897,-4.06725 c -1.78256,-1.78247 -2.78512,-4.20262 -2.78512,-6.72356 0,-3.15563 1.57097,-6.1126 4.18593,-7.87903 C 962.53713,912.16563 980.58316,906.25 1000,906.25 c 19.4166,0 37.4625,5.91563 52.4325,16.04109 2.3438,1.58335 3.8597,4.13513 4.1297,6.95044 0.27,2.81531 -0.7331,5.60888 -2.7328,7.60885 0.019,0.0203 0.019,0.0206 0.019,0.021 -4.1981,4.19803 -10.7334,4.9575 -15.7818,1.83421 -11.0419,-6.91453 -24.0929,-10.89309 -38.0663,-10.89309 -13.97297,0 -27.024,3.97856 -38.08303,10.86544 -5.03644,3.11522 -11.55403,2.35753 -15.74147,-1.83 -0.0237,0.0231 -0.0241,0.0227 -0.0245,0.0223 z"
   style="fill:#208e7a;stroke-width:0.09375"
   id="path1" />
        </g>
        <g
   transform="matrix(2.03201,0,0,2.03201,-1627.21,-1436.95)"
   id="g2">
            <path
   d="m 998.28769,912.76587 c -0.53409,0 -0.61125,-0.711 -0.61125,-1.215 0,-0.468 0.099,-0.7965 0.297,-0.9855 0.198,-0.189 0.441,-0.2835 0.729,-0.2835 h 1.64696 v -5.589 c 0,-0.324 0.095,-0.5805 0.2835,-0.7695 0.189,-0.189 0.4365,-0.3285 0.7425,-0.4185 0.288,-0.09 0.6165,-0.171 0.9855,-0.243 0.369,-0.072 0.747,-0.135 1.134,-0.189 0.3855,-0.0538 0.7727,-0.0944 1.161,-0.1215 0.3872,-0.027 0.7519,-0.0405 1.0932,-0.0405 2.1965,0 3.8475,0.45 4.9547,1.35 1.1071,0.9 1.6603,2.124 1.6603,3.672 0,1.458 -0.5082,2.628 -1.5253,3.51 -1.0172,0.882 -2.5332,1.323 -4.5497,1.323 z m 5.49071,3.699 v 1.8074 c 0,0 -0.062,0.8505 -0.3551,1.1881 -0.2604,0.2999 -0.9049,0.40678 -1.2109,0.40678 -0.666,0 -1.143,-0.12657 -1.431,-0.37828 -0.288,-0.252 -0.432,-0.666 -0.432,-1.242 v -1.782 l -1.95474,0.0236 c -0.38372,0.005 -0.58322,-0.30712 -0.63722,-0.49612 -0.054,-0.189 -0.081,-0.3915 -0.081,-0.6075 0,-0.414 0.0855,-0.7065 0.2565,-0.8775 0.171,-0.171 0.3825,-0.2565 0.6345,-0.2565 0,0 9.24226,-0.031 11.28316,0.0383 0.5813,0.0198 0.7688,0.17653 0.8532,0.46125 0.063,0.20568 0.095,0.41953 0.095,0.6345 0,0.36 -0.09,0.63 -0.27,0.81 -0.18,0.18 -0.3956,0.27 -0.6478,0.27 z m 2.1329,-6.318 c 0.9365,0 1.665,-0.1845 2.1871,-0.5535 0.5222,-0.369 0.7829,-0.9135 0.7829,-1.6335 0,-0.756 -0.2785,-1.323 -0.8372,-1.701 -0.5578,-0.378 -1.3228,-0.567 -2.295,-0.567 -0.3235,0 -0.6563,0.0135 -0.9985,0.0405 -0.3422,0.027 -0.6662,0.0855 -0.9722,0.1755 v 4.239 z"
   style="fill:#ffffff;fill-rule:nonzero;stroke-width:0.09375"
   id="path2" />
        </g>
    </g>
</svg>
