<?xml version="1.0" encoding="UTF-8" standalone="no"?>
<svg
   width="96.010918"
   height="95.999519"
   viewBox="0 0 96.010918 95.999519"
   version="1.1"
   xml:space="preserve"
   style="clip-rule:evenodd;fill-rule:evenodd;stroke-linejoin:round;stroke-miterlimit:2"
   id="svg2"
   xmlns="http://www.w3.org/2000/svg"
   xmlns:svg="http://www.w3.org/2000/svg"><defs
   id="defs2" />
    <g
   transform="matrix(3.99977,0,0,3.99977,-463.9528,-463.9428)"
   id="g2">
        <path
   d="m 139.99613,115.99237 -8.00045,8.00045 h -5.33289 c -1.47259,0 -2.66747,1.19385 -2.66747,2.66644 0,0.29966 0.05,0.58844 0.14083,0.85716 0.13145,0.38685 0.35029,0.73836 0.63944,1.02705 0.48249,0.48352 1.14987,0.78327 1.88617,0.78327 l -2.66653,2.66644 c -1.58145,0 -3.05602,-0.45952 -4.29787,-1.25085 -2.2268,-1.42159 -3.70249,-3.91224 -3.70249,-6.74951 0,-4.41891 3.58163,-8.00045 8.00045,-8.00045 z"
   style="fill:#b2fe92;fill-rule:nonzero;stroke-width:0.0937601"
   id="path1" />
        <path
   d="m 139.99613,131.99327 c 0,4.41882 -3.58163,8.00036 -8.00045,8.00036 h -16.00081 l 8.00045,-8.00036 h 5.33392 c 1.47259,0 2.66644,-1.19384 2.66644,-2.66644 0,-0.038 0,-0.075 -0.002,-0.11195 0,-0.026 -0.002,-0.05 -0.004,-0.0749 0,-0.006 0,-0.011 -0.002,-0.018 0,-0.0159 -0.002,-0.0329 -0.004,-0.0489 0,-0.014 -0.002,-0.0279 -0.004,-0.0419 -0.002,-0.0141 -0.003,-0.03 -0.006,-0.044 0,-0.009 -0.002,-0.018 -0.003,-0.026 -0.003,-0.024 -0.007,-0.047 -0.01,-0.07 0,-0.002 0,-0.004 -0.002,-0.006 -0.005,-0.03 -0.01,-0.059 -0.017,-0.0889 -5.7e-4,-0.009 -0.003,-0.0184 -0.006,-0.027 -0.006,-0.03 -0.013,-0.0599 -0.02,-0.0899 -0.002,-0.006 -0.003,-0.012 -0.005,-0.018 -0.007,-0.0281 -0.0149,-0.0561 -0.023,-0.0839 -0.0101,-0.0352 -0.0211,-0.0702 -0.033,-0.10492 -0.021,-0.0619 -0.045,-0.12385 -0.0699,-0.18377 -0.0166,-0.0391 -0.0342,-0.0777 -0.053,-0.11588 -0.0168,-0.0363 -0.0348,-0.0719 -0.0539,-0.10698 -0.024,-0.0449 -0.05,-0.0889 -0.0749,-0.13183 -0.0166,-0.0266 -0.0336,-0.0529 -0.051,-0.0789 -0.0188,-0.0294 -0.0388,-0.058 -0.0599,-0.0859 -0.009,-0.013 -0.0181,-0.0257 -0.0279,-0.038 -0.015,-0.021 -0.031,-0.041 -0.048,-0.062 -0.014,-0.0189 -0.03,-0.038 -0.0459,-0.0569 -0.0223,-0.0263 -0.045,-0.0522 -0.068,-0.0779 -0.0279,-0.031 -0.0559,-0.0609 -0.0859,-0.0899 -0.49918,-0.50143 -1.17866,-0.78318 -1.88617,-0.78224 l 2.66644,-2.66654 c 0.0519,0 0.10389,0 0.15583,0.002 0.039,0 0.0779,0.002 0.11795,0.003 0.10501,0.003 0.20993,0.009 0.31466,0.0169 0.0339,0.002 0.0689,0.005 0.10295,0.009 0.13079,0.01 0.26168,0.0249 0.3906,0.0419 0.038,0.005 0.0749,0.01 0.11289,0.0159 0.05,0.007 0.10089,0.015 0.15086,0.024 l 0.10492,0.018 c 0.008,0.002 0.017,0.002 0.0249,0.005 0.0459,0.008 0.0929,0.0171 0.13886,0.0261 0.0579,0.0119 0.11691,0.0249 0.17486,0.0379 l 0.0359,0.009 c 0.059,0.0141 0.11889,0.028 0.17683,0.043 0.002,0 0.004,0 0.006,0.002 0.062,0.016 0.12292,0.033 0.18386,0.0501 0.0629,0.0179 0.12686,0.0369 0.18884,0.0569 0.0566,0.017 0.11288,0.0349 0.16886,0.0539 0.007,0.003 0.0149,0.006 0.023,0.008 0.0549,0.0189 0.11082,0.0379 0.16577,0.0589 0.008,0.002 0.016,0.006 0.024,0.009 0.0579,0.021 0.11589,0.042 0.17289,0.0659 0.0609,0.023 0.12086,0.048 0.18077,0.074 0.12358,0.0515 0.24556,0.1068 0.36567,0.16586 0.0547,0.0262 0.10895,0.0532 0.16286,0.0809 0.0579,0.03 0.11485,0.0589 0.17083,0.0899 0.0569,0.03 0.11289,0.0619 0.16886,0.0939 0.0559,0.032 0.11083,0.065 0.1668,0.098 0.051,0.0309 0.10295,0.0619 0.15283,0.0938 0.005,0.003 0.009,0.006 0.0141,0.009 0.10717,0.0692 0.21275,0.14083 0.31663,0.21481 0.10454,0.0743 0.20712,0.15123 0.30772,0.23074 0.0459,0.036 0.091,0.072 0.13586,0.10998 0.008,0.006 0.015,0.0119 0.023,0.0179 0.14458,0.11983 0.28494,0.24481 0.42061,0.37467 0.046,0.045 0.092,0.0889 0.13792,0.13492 0.0459,0.0459 0.0899,0.0909 0.13483,0.13782 0.044,0.046 0.0869,0.0929 0.13089,0.13989 0.0759,0.0839 0.15086,0.16887 0.22277,0.25578 0.016,0.0179 0.031,0.0379 0.0459,0.0569 0.035,0.0419 0.069,0.0839 0.10295,0.12686 0.0785,0.0993 0.15442,0.20055 0.22774,0.30369 0.0733,0.10314 0.002,0.002 0.002,0.004 0.038,0.0519 0.0739,0.10492 0.10988,0.15883 0.0359,0.053 0.0709,0.10689 0.10689,0.16089 0.0339,0.0539 0.068,0.10689 0.10089,0.16183 0.006,0.011 0.013,0.0219 0.019,0.032 0.0269,0.0449 0.0539,0.0899 0.0799,0.13585 0.032,0.056 0.064,0.11186 0.094,0.16887 0.023,0.0419 0.0459,0.0849 0.0679,0.12788 0.0593,0.11458 0.11589,0.23056 0.1699,0.34767 0.0149,0.032 0.0299,0.0639 0.0439,0.0969 0.022,0.0489 0.043,0.098 0.0639,0.14786 0.022,0.053 0.044,0.10689 0.065,0.15986 0.02,0.05 0.0399,0.10192 0.0579,0.15283 0.009,0.0231 0.018,0.047 0.026,0.071 0.014,0.0369 0.027,0.0729 0.039,0.10988 0.0249,0.073 0.0499,0.14683 0.0719,0.22081 0.018,0.0539 0.0339,0.10885 0.0489,0.16286 0.005,0.014 0.009,0.029 0.0129,0.0429 0.016,0.0569 0.031,0.11392 0.046,0.17083 0,0.002 0.002,0.004 0.002,0.006 0.014,0.0539 0.0279,0.10886 0.0399,0.16286 0.019,0.0799 0.0369,0.16183 0.054,0.24275 0.01,0.048 0.0179,0.0959 0.0269,0.14486 0.01,0.051 0.018,0.10192 0.026,0.15283 0.006,0.037 0.012,0.074 0.018,0.11195 0.006,0.0449 0.013,0.0899 0.018,0.13482 0.004,0.028 0.007,0.0549 0.01,0.083 0.006,0.0469 0.0111,0.0949 0.016,0.1428 v 0.002 c 0.007,0.0649 0.0129,0.12883 0.018,0.1938 0,0.006 0,0.014 0.002,0.021 0.005,0.0609 0.008,0.12085 0.011,0.1818 0,0.008 0,0.017 0.002,0.026 0.003,0.059 0.005,0.11785 0.006,0.17683 v 0.027 c 0.002,0.0639 0.002,0.12789 0.002,0.19184 z"
   style="fill:#078465;fill-rule:nonzero;stroke-width:0.0937601"
   id="path2" />
    </g>
</svg>
