<?xml version="1.0" encoding="UTF-8" standalone="no"?>
<svg
   width="96.000435"
   height="127.05943"
   viewBox="0 0 96.000435 127.05943"
   version="1.1"
   xml:space="preserve"
   style="clip-rule:evenodd;fill-rule:evenodd;stroke-linejoin:round;stroke-miterlimit:2"
   id="svg1"
   xmlns="http://www.w3.org/2000/svg"
   xmlns:svg="http://www.w3.org/2000/svg"><defs
   id="defs1" />
    <g
   transform="matrix(4.06892,0,0,4.06892,-456.2056,-448.4705)"
   id="g1">
        <path
   d="m 135.65152,122.77239 c 0.49087,-3.28121 -2.00764,-5.04516 -5.42398,-6.22182 l 1.10817,-4.44486 -2.70585,-0.67426 -1.07889,4.32772 c -0.71136,-0.17731 -1.44195,-0.34445 -2.16795,-0.5101 l 1.08658,-4.35625 -2.70423,-0.67426 -1.10905,4.44336 c -0.58876,-0.13426 -1.16674,-0.26678 -1.72783,-0.40624 l 0.003,-0.0138 -3.73163,-0.93173 -0.7198,2.88974 c 0,0 2.00764,0.4601 1.9652,0.48851 1.09589,0.2736 1.29393,0.99874 1.2608,1.57361 l -1.26229,5.06364 c 0.0754,0.0192 0.17335,0.0469 0.2813,0.0901 -0.0902,-0.0223 -0.1865,-0.047 -0.28601,-0.0709 l -1.7694,7.09337 c -0.13414,0.33279 -0.474,0.83222 -1.24008,0.64262 0.027,0.0393 -1.96669,-0.49086 -1.96669,-0.49086 l -1.34331,3.09707 3.52119,0.87763 c 0.65515,0.16416 1.29703,0.33602 1.92897,0.49782 l -1.11971,4.4956 2.70275,0.67439 1.10904,-4.44796 c 0.7167,0.19431 1.4355,0.38081 2.15629,0.55948 l -1.10519,4.42711 2.70584,0.67426 1.11984,-4.48716 c 4.6141,0.87304 8.08367,0.52089 9.54411,-3.65185 1.1768,-3.35988 -0.0586,-5.29791 -2.48622,-6.56169 1.76792,-0.4076 3.09968,-1.5705 3.45493,-3.97235 z m -6.18237,8.66835 c -0.83619,3.35988 -6.49369,1.54358 -8.32799,1.08807 l 1.48588,-5.95592 c 1.8343,0.45774 7.71602,1.36403 6.84211,4.86785 z m 0.83693,-8.71699 c -0.76298,3.05626 -5.47175,1.5035 -6.99932,1.12282 l 1.34715,-5.4019 c 1.52757,0.38069 6.44679,1.09118 5.65217,4.27908 z"
   style="fill:#ef4800;fill-rule:nonzero;stroke-width:0.124082"
   id="path1" />
    </g>
</svg>
