<?xml version="1.0" encoding="UTF-8" standalone="no"?>
<svg
   width="143.09123"
   height="143.0206"
   viewBox="0 0 143.09123 143.0206"
   version="1.1"
   xml:space="preserve"
   style="clip-rule:evenodd;fill-rule:evenodd;stroke-linejoin:round;stroke-miterlimit:2"
   id="svg2"
   xmlns="http://www.w3.org/2000/svg"
   xmlns:svg="http://www.w3.org/2000/svg"><defs
   id="defs2" />
    <g
   transform="matrix(3.95941,0,0,3.98627,-434.71446,-438.49071)"
   id="g2">
        <path
   d="m 127.92637,139.94662 c 6.71608,0 12.1231,-5.40702 12.1231,-11.95231 0,-6.54529 -5.40702,-11.95217 -12.1231,-11.95217 -6.71593,0 -12.12295,5.40688 -12.12295,11.95217 0,6.54529 5.40702,11.95231 12.12295,11.95231 z"
   style="fill:#ef4800;fill-rule:nonzero;stroke-width:0.140216"
   id="path1" />
        <path
   d="m 138.08672,140.6606 c 0.65173,0.61737 0.61204,1.67222 -0.13545,2.16957 -7.03114,4.67817 -16.57846,3.99223 -22.82271,-2.19859 -7.11443,-7.05751 -7.11443,-18.32682 0,-25.38432 6.21186,-6.21172 15.84962,-6.88139 22.89324,-2.15106 0.71426,0.47982 0.76558,1.48629 0.15718,2.09483 -0.51922,0.51908 -1.34102,0.56058 -1.95461,0.15746 -5.85669,-3.84585 -13.83611,-3.14897 -18.93297,1.94789 -6.03294,5.86215 -6.03294,15.42392 -0.11372,21.28622 5.0977,5.0977 13.07909,5.79401 18.93592,1.94578 0.61597,-0.40481 1.43806,-0.37466 1.97312,0.13222 z m 2.62597,-2.56652 c 0.61779,0.65215 1.67292,0.61583 2.17405,-0.1297 4.07791,-6.06645 4.06066,-14.07546 -0.0519,-20.12551 -0.48192,-0.70879 -1.48349,-0.75618 -2.08964,-0.15003 -0.52217,0.52203 -0.56115,1.34944 -0.15143,1.96373 3.30966,4.96295 3.30461,11.41794 -0.015,16.46376 -0.4062,0.61738 -0.37437,1.44115 0.13391,1.97775 z"
   style="fill:#ef4800;fill-rule:nonzero;stroke-width:0.140216"
   id="path2" />
    </g>
</svg>
