<?xml version="1.0" encoding="UTF-8" standalone="no"?>
<svg
   width="95.999931"
   height="88.271126"
   viewBox="0 0 95.999931 88.271126"
   version="1.1"
   xml:space="preserve"
   style="clip-rule:evenodd;fill-rule:evenodd;stroke-linejoin:round;stroke-miterlimit:2"
   id="svg1"
   xmlns="http://www.w3.org/2000/svg"
   xmlns:svg="http://www.w3.org/2000/svg"><defs
   id="defs1" />
    <g
   transform="matrix(4.33898,0,0,4.33898,-498.71151,-539.45727)"
   id="g1">
        <path
   d="m 128.24597,135.26106 v -0.003 c -0.1261,0.009 -0.777,0.0468 -2.22544,0.0468 -1.15819,0 -1.97034,-0.0322 -2.25769,-0.0468 v 0.003 c -4.45368,-0.19612 -7.77562,-0.9689 -7.77562,-1.89684 0,-0.92494 3.32484,-1.70063 7.77562,-1.89675 v 3.02372 c 0.29035,0.0205 1.12594,0.0703 2.27822,0.0703 1.38394,0 2.07582,-0.0586 2.20491,-0.0703 v -3.02081 c 4.44487,0.19903 7.75809,0.97181 7.75809,1.89684 0,0.92494 -3.31612,1.69772 -7.75809,1.89675 m 0,-4.10681 v -2.70469 h 6.20119 v -4.12434 h -16.8825 v 4.12434 h 6.20118 v 2.70469 c -5.04018,0.23128 -8.82834,1.22653 -8.82834,2.42081 0,1.19428 3.79106,2.18953 8.82834,2.42362 v 8.67029 h 4.48304 v -8.67029 c 5.03128,-0.23118 8.81362,-1.22643 8.81362,-2.42071 0,-1.19138 -3.78234,-2.18954 -8.81362,-2.42082"
   style="fill:#26a17b;fill-rule:nonzero;stroke-width:0.09375"
   id="path1" />
    </g>
</svg>
