<?xml version="1.0" encoding="UTF-8" standalone="no"?>
<svg
   width="96.000038"
   height="187.6777"
   viewBox="0 0 96.000038 187.6777"
   version="1.1"
   xml:space="preserve"
   style="clip-rule:evenodd;fill-rule:evenodd;stroke-linejoin:round;stroke-miterlimit:2"
   id="svg1"
   xmlns="http://www.w3.org/2000/svg"
   xmlns:svg="http://www.w3.org/2000/svg"><defs
   id="defs1" />
    <g
   transform="matrix(3.12899,0,0,3.12899,-748.32484,-930.84436)"
   id="g1">
        <path
   d="m 255.50923,357.47064 h -5.52585 v -7.01041 h -10.82479 v -44.70162 h 10.82479 v -8.26825 h 5.52585 v 8.39196 c 2.9966,0.055 5.5121,0.52234 7.54649,1.40208 h -0.0205 c 1.58077,0.6598 2.85218,1.86248 3.81439,3.6082 0.42612,0.81101 0.74924,1.6255 0.96918,2.44329 0.21993,0.81797 0.3299,1.65995 0.3299,2.52594 0,3.78012 -1.47081,6.86598 -4.41243,9.25777 -0.3574,0.30241 -0.71827,0.58081 -1.08245,0.83501 -0.36435,0.2544 -0.78021,0.52583 -1.24757,0.81449 1.33335,0.48111 2.55343,1.1169 3.65989,1.9072 1.10663,0.79048 2.07214,1.72172 2.8969,2.7939 1.25087,1.6495 1.8764,3.78012 1.8764,6.39184 0,2.26807 -0.57733,4.37119 -1.73198,6.30936 -1.12716,1.91068 -2.69419,3.40898 -4.70109,4.4949 -2.02065,1.11342 -4.65308,1.71146 -7.89711,1.79393 z m 0,-33.46446 c 0.31616,-0.0825 0.64954,-0.19922 1.00015,-0.35043 0.35043,-0.1512 0.71809,-0.3299 1.10297,-0.53609 0.43987,-0.23368 0.86599,-0.57732 1.27837,-1.03094 0.41238,-0.45361 0.78352,-1.01041 1.11342,-1.67022 0.3299,-0.67354 0.58081,-1.31264 0.75272,-1.91746 0.17173,-0.60481 0.25769,-1.18911 0.25769,-1.75269 0,-1.38833 -0.57055,-2.56351 -1.71145,-3.52573 -0.65981,-0.64605 -1.92443,-1.10663 -3.79387,-1.38155 z m -5.52585,-12.28882 h -3.62891 v 12.76315 h 3.62891 z m 5.52585,32.82518 c 0.48111,-0.0275 0.94517,-0.079 1.39182,-0.15469 0.44683,-0.0755 0.89,-0.18199 1.32987,-0.31945 0.4811,-0.15121 0.92097,-0.34035 1.3196,-0.56707 0.39863,-0.2269 0.76299,-0.49137 1.09289,-0.79378 h -0.0207 c 1.23713,-1.19589 1.8557,-2.6667 1.8557,-4.41243 0,-1.33335 -0.38489,-2.60493 -1.15466,-3.81457 h 0.0207 c -0.70104,-1.07218 -1.8282,-1.97941 -3.38149,-2.72169 -0.8385,-0.41237 -1.65647,-0.73531 -2.45373,-0.96899 z m -9.15476,-14.18576 v 14.20647 h 3.62891 v -14.20647 z"
   style="fill:#003f20;fill-rule:nonzero;stroke-width:0.183279"
   id="path1" />
    </g>
</svg>
