<?xml version="1.0" encoding="UTF-8" standalone="no"?>
<svg
   width="96"
   height="96"
   viewBox="0 0 96 96"
   version="1.1"
   xml:space="preserve"
   style="clip-rule:evenodd;fill-rule:evenodd;stroke-linejoin:round;stroke-miterlimit:2"
   id="svg4"
   xmlns="http://www.w3.org/2000/svg"
   xmlns:svg="http://www.w3.org/2000/svg"><defs
   id="defs4" />
    <g
   transform="matrix(4,0,0,4,48,48)"
   id="g4">
        <g
   transform="translate(-128,-128)"
   id="g3">
            <g
   transform="scale(0.128)"
   id="g1">
                <path
   d="m 1053.8491,1063.1294 c 2.0062,2.0062 3.0122,4.8084 2.7412,7.6322 -0.27,2.8237 -1.7915,5.3831 -4.1419,6.9703 -14.9859,10.1025 -33.0318,16.0181 -52.4484,16.0181 -19.41684,0 -37.46288,-5.9156 -52.43231,-16.0416 -2.34385,-1.5825 -3.86025,-4.1343 -4.13016,-6.9496 -0.27019,-2.8154 0.73331,-5.6091 2.73338,-7.6088 -0.0195,-0.021 -0.0191,-0.021 -0.0189,-0.022 4.19841,-4.1981 10.73278,-4.9575 15.78206,-1.8337 11.04188,6.9141 24.09291,10.8928 38.06588,10.8928 13.97335,0 27.02435,-3.9787 38.08305,-10.8656 5.0363,-3.1153 11.5538,-2.3578 15.7416,1.83 0.023,-0.023 0.023,-0.023 0.024,-0.023 z m 9.2803,-116.97837 c 2.0062,-2.00597 4.8084,-3.01247 7.6322,-2.74162 2.8237,0.27065 5.3831,1.79156 6.9703,4.14243 10.1025,14.98528 16.0181,33.03132 16.0181,52.44816 0,19.4166 -5.9156,37.4625 -16.0416,52.4325 -1.5825,2.3437 -4.1343,3.8597 -6.9496,4.1297 -2.8154,0.2709 -5.6091,-0.7331 -7.6088,-2.7328 -0.021,0.019 -0.021,0.019 -0.022,0.019 -4.1981,-4.1981 -4.9575,-10.7334 -1.8337,-15.7818 6.9141,-11.0419 10.8928,-24.0929 10.8928,-38.0663 0,-13.97297 -3.9787,-27.024 -10.8656,-38.08303 -3.1153,-5.03644 -2.3578,-11.55403 1.83,-15.74147 -0.023,-0.0237 -0.023,-0.0241 -0.023,-0.0245 z m -140.83831,1.41666 c 1.76119,-2.60719 4.70944,-4.17347 7.85579,-4.17347 2.51334,0 4.92628,0.99947 6.70349,2.77669 0.0203,-0.0195 0.0206,-0.0191 0.021,-0.0189 4.19804,4.19841 4.95751,10.73278 1.83422,15.78206 C 931.79106,972.976 927.8125,986.02703 927.8125,1000 c 0,13.9734 3.97856,27.0244 10.86544,38.0831 3.11522,5.0363 2.35753,11.5538 -1.83,15.7416 0.0231,0.023 0.0227,0.023 0.0223,0.024 -2.00588,2.0062 -4.80769,3.0122 -7.63144,2.7412 -2.82375,-0.2709 -5.38322,-1.7915 -6.97115,-4.1419 C 912.16562,1037.4625 906.25,1019.4166 906.25,1000 c 0,-19.41684 5.91562,-37.46288 16.04109,-52.43231 z M 1000,940.9375 c 32.5978,0 59.0625,26.46506 59.0625,59.0625 0,32.5978 -26.4647,59.0625 -59.0625,59.0625 -32.59744,0 -59.0625,-26.4647 -59.0625,-59.0625 0,-32.59744 26.46506,-59.0625 59.0625,-59.0625 z m -53.84897,-4.06725 c -1.78256,-1.78247 -2.78512,-4.20262 -2.78512,-6.72356 0,-3.15563 1.57096,-6.1126 4.18593,-7.87903 C 962.53712,912.16562 980.58316,906.25 1000,906.25 c 19.4166,0 37.4625,5.91562 52.4325,16.04109 2.3437,1.58335 3.8597,4.13513 4.1297,6.95044 0.27,2.81531 -0.7331,5.60888 -2.7328,7.60884 0.019,0.0203 0.019,0.0206 0.019,0.021 -4.1981,4.19804 -10.7334,4.95751 -15.7818,1.83422 -11.0419,-6.91453 -24.0929,-10.89309 -38.0663,-10.89309 -13.97297,0 -27.024,3.97856 -38.08303,10.86544 -5.03644,3.11522 -11.55403,2.35753 -15.74147,-1.83 -0.0237,0.0231 -0.0241,0.0227 -0.0245,0.0223 z"
   style="fill:#208e7a;stroke-width:0.09375"
   id="path1" />
            </g>
            <g
   transform="matrix(0.49705,0,0,0.49705,-374.924,-322.765)"
   id="g2">
                <path
   d="m 1017.0708,906.22504 c 0.2034,-0.24431 0.3815,-0.51591 0.5334,-0.81488 0.3319,-0.65362 0.4969,-1.34165 0.4969,-2.06371 v -1.31916 c 0,-1.38525 -0.541,-2.4975 -1.6191,-3.33853 -0.9797,-0.7636 -2.2528,-1.17497 -3.8316,-1.20094 v -2.05669 c 0,-0.37443 -0.3084,-0.6825 -0.6825,-0.68259 h -1.7925 c -0.3744,0 -0.6826,0.30816 -0.6826,0.68259 v 2.05538 h -2.6771 c -1.3121,0 -2.3757,1.06369 -2.3757,2.37572 v 14.11265 c 0,0.68194 0.2247,1.22935 0.6479,1.65253 0.4233,0.42375 0.9707,0.64782 1.6526,0.64782 h 2.7523 v 2.05593 c 0,0.37688 0.3057,0.6825 0.6826,0.6825 h 1.7925 c 0.3741,0 0.6825,-0.30843 0.6825,-0.6825 v -2.05593 h 1.0594 c 1.6781,0 3,-0.48657 3.9806,-1.42013 0.9947,-0.94687 1.5066,-2.1989 1.5066,-3.76753 v -1.19475 c 0,-0.99094 -0.2962,-1.85681 -0.8812,-2.60006 -0.3469,-0.44128 -0.7613,-0.79763 -1.245,-1.06772 z m -1.081,3.66778 v 1.19475 c 0,0.65156 -0.2044,1.17956 -0.6365,1.57425 -0.4594,0.41878 -1.0941,0.60553 -1.8919,0.60553 h -5.8142 v -5.00681 h 6.312 c 0.6281,0 1.14,0.1455 1.5244,0.47222 0.3422,0.29128 0.5062,0.68025 0.5062,1.16006 z m -8.3426,-4.54078 v -4.85747 h 4.8429 c 0.7491,0 1.3632,0.15019 1.8328,0.48384 0.376,0.26663 0.571,0.61341 0.571,1.04888 v 1.31916 c 0,0.61321 -0.1613,1.11056 -0.5175,1.47965 -0.3478,0.36019 -0.8147,0.52594 -1.3885,0.52594 z"
   style="fill:#ffffff;fill-rule:nonzero;stroke-width:0.09375"
   id="path2" />
            </g>
        </g>
    </g>
</svg>
