<?xml version="1.0" encoding="UTF-8" standalone="no"?>
<svg
   width="96"
   height="39.560432"
   viewBox="0 0 96 39.560432"
   version="1.1"
   xml:space="preserve"
   style="clip-rule:evenodd;fill-rule:evenodd;stroke-linejoin:round;stroke-miterlimit:2"
   id="svg3"
   xmlns="http://www.w3.org/2000/svg"
   xmlns:svg="http://www.w3.org/2000/svg"><defs
   id="defs3" />
    <g
   transform="matrix(4,0,0,4,47.984,19.282528)"
   id="g3">
        <g
   transform="translate(-128,-53)"
   id="g2">
            <clipPath
   id="_clip1">
                <rect
   x="0"
   y="0"
   width="256"
   height="106"
   id="rect1" />
            </clipPath>
            <g
   clip-path="url(#_clip1)"
   id="g1">
                <path
   d="m 122.12016,50.397117 h 1.80731 c 0.0846,0 0.15281,0.06806 0.15281,0.152344 v 4.961531 c 0,0.08438 -0.0683,0.152344 -0.15281,0.152344 h -1.80731 c -0.0846,0 -0.15282,-0.06806 -0.15282,-0.152344 v -4.961531 c 0,-0.08428 0.0683,-0.152344 0.15282,-0.152344 z m 6.64715,-0.08803 c 0.89194,0 1.57303,0.231 2.04263,0.693187 0.45797,0.450375 0.68662,1.094344 0.68662,1.930782 v 2.577187 c 0,0.08438 -0.0682,0.152344 -0.15281,0.152344 h -1.80722 c -0.0846,0 -0.15281,-0.06806 -0.15281,-0.152344 v -2.542219 c 0,-0.602812 -0.44016,-0.903937 -1.32038,-0.903937 -0.88021,0 -1.32028,0.301687 -1.32028,0.903937 v 2.542219 c 0,0.08438 -0.0683,0.152344 -0.15281,0.152344 h -1.80731 c -0.0846,0 -0.15281,-0.06806 -0.15281,-0.152344 v -4.961437 c 0,-0.08438 0.0683,-0.152438 0.15281,-0.152438 h 1.80731 c 0.0845,0 0.15281,0.06806 0.15281,0.152438 v 0.435656 c 0.46913,-0.45 1.14403,-0.675375 2.02425,-0.675375 z m 11.23669,0.154875 c -2.8e-4,-0.0825 -0.0673,-0.15075 -0.14981,-0.152344 -0.34181,-0.0092 -1.1191,0.05841 -1.62947,0.40425 -0.12281,0.08325 -0.2415,0.168094 -0.34697,0.269063 v 10e-4 c -0.60253,-0.450938 -1.46287,-0.676875 -2.58403,-0.676875 -1.15022,0 -2.031,0.240187 -2.64122,0.719531 -0.58678,0.468281 -0.88022,1.135031 -0.88022,2.001375 0,0.865875 0.29344,1.533188 0.88022,2.001375 0.39225,0.30825 0.89653,0.516938 1.51191,0.627188 v 4.68e-4 c 0.35756,0.06656 0.77475,0.100594 1.27396,0.09553 0.14101,-0.0043 0.28182,-0.01256 0.42226,-0.02494 0.11053,-0.0083 0.22068,-0.01987 0.33056,-0.0345 0.0658,-0.008 0.13153,-0.01678 0.19715,-0.02644 0.1486,-0.02231 0.28922,0.08147 0.31172,0.230062 0.0217,0.148594 -0.0826,0.288844 -0.23118,0.310781 -0.39891,0.05897 -0.83344,0.0945 -1.16297,0.0945 -0.39169,0 -0.7575,-0.02644 -1.09669,-0.07922 -0.22275,-0.03394 -0.44306,-0.08231 -0.65963,-0.14475 -0.078,-0.02241 -0.16106,0.021 -0.18703,0.09797 l -0.44615,1.334625 c -0.0253,0.07631 0.0138,0.160313 0.0886,0.189938 0.57,0.229031 1.21078,0.31275 1.82109,0.346312 0.84047,0.04622 1.74619,0.02644 2.56472,-0.181781 0.20072,-0.05081 0.40088,-0.117844 0.58275,-0.214312 0.12019,-0.06347 0.23278,-0.140157 0.33216,-0.233157 0.22762,-0.213281 0.37491,-0.50325 0.44512,-0.806906 0.14466,-0.622125 0.0611,-1.386375 -0.54403,-1.732687 -0.0208,-0.01172 -0.0432,-0.02344 -0.0662,-0.0345 0.44879,-0.453 0.67341,-1.058438 0.67341,-1.815563 0,-0.337219 -0.0453,-0.643875 -0.13397,-0.920625 0.15131,-0.02953 0.32344,-0.04528 0.5176,-0.04528 0.23728,0 0.44259,0.02184 0.61584,0.06609 0.0121,0.0031 0.0246,0.0046 0.0371,0.0046 0.0835,0 0.15235,-0.06881 0.15235,-0.152343 0,0 0,-9.4e-5 0,-9.4e-5 z m -4.71028,1.600687 c 0.93872,0 1.40841,0.321938 1.40841,0.965344 0,0.643969 -0.46969,0.965438 -1.40841,0.965438 -0.93938,0 -1.4085,-0.322032 -1.4085,-0.965438 0,-0.643406 0.46912,-0.965344 1.4085,-0.965344 z m -13.87603,-0.152812 v -1.362563 c 0,-0.08428 -0.0682,-0.152343 -0.15281,-0.152343 h -1.95957 v -2.064375 c 0,-0.104063 -0.10237,-0.177188 -0.20118,-0.144657 l -1.80732,0.601782 c -0.0621,0.02063 -0.10443,0.07913 -0.10443,0.144656 v 1.463062 h -1.03557 c -0.0846,0 -0.15281,0.06806 -0.15281,0.152344 v 1.362094 c 0,0.08428 0.0682,0.152344 0.15281,0.152344 h 1.03557 v 1.672218 c 0,0.73125 0.24346,1.255313 0.7305,1.57125 0.4635,0.298125 1.2179,0.447375 2.26265,0.447375 0.39281,0 0.76153,-0.03047 1.10738,-0.09094 0.072,-0.01312 0.12487,-0.0765 0.12487,-0.149719 v -1.44225 c 0,-0.09544 -0.0872,-0.167062 -0.1814,-0.149344 -0.27807,0.05184 -0.54047,0.07725 -0.78694,0.07725 -0.39328,0 -0.675,-0.03562 -0.84506,-0.105656 -0.19969,-0.07566 -0.29907,-0.216375 -0.29907,-0.420937 v -1.409344 h 1.95957 c 0.0846,0 0.15281,-0.06806 0.15281,-0.152344 z m 2.50978,-2.062219 h -1.80731 c -0.0846,0 -0.15282,-0.06806 -0.15282,-0.152344 v -1.365562 c 0,-0.08438 0.0683,-0.152344 0.15282,-0.152344 h 1.80731 c 0.0846,0 0.15281,0.06806 0.15281,0.152344 v 1.365562 c 0,0.08381 -0.0687,0.152344 -0.15281,0.152344 z"
   style="fill:#ff9920;fill-rule:nonzero;stroke-width:0.09375"
   id="path1" />
            </g>
        </g>
    </g>
</svg>
