<?xml version="1.0" encoding="UTF-8" standalone="no"?>
<svg
   width="96.000008"
   height="127.8123"
   viewBox="0 0 96.000008 127.8123"
   version="1.1"
   xml:space="preserve"
   style="clip-rule:evenodd;fill-rule:evenodd;stroke-linejoin:round;stroke-miterlimit:2"
   id="svg1"
   xmlns="http://www.w3.org/2000/svg"
   xmlns:svg="http://www.w3.org/2000/svg"><defs
   id="defs1" />
    <g
   transform="matrix(4.02784,0,0,4.02784,-336.18948,-451.6191)"
   id="g1">
        <path
   d="m 83.466443,119.4033 c 0,-1.14444 0.929917,-2.07373 2.075726,-2.07373 h 9.841393 l 5.095488,-4.86147 c 0.48026,-0.45828 1.24601,-0.45828 1.72627,0 l 5.09524,4.8616 v 19.13306 c 0,1.2079 -0.98139,2.18842 -2.19055,2.18842 h -9.726697 l -5.095236,4.86172 c -0.480263,0.45828 -1.246135,0.45828 -1.726398,0 l -5.095236,-4.86185 z m 15.314068,7.46369 c -0.229637,0.22926 -0.607325,0.22926 -0.836962,0 l -3.75e-4,-3.7e-4 -1.638566,-1.63657 c -0.508374,-0.50812 -1.334342,-0.50812 -1.842716,0 l -1.638441,1.63694 c -0.229887,0.22914 -0.6072,0.22914 -0.837087,0 l -3.75e-4,-3.7e-4 -1.639566,-1.63794 c -0.508749,-0.50825 -1.334341,-0.50825 -1.84309,0 l -1.843091,1.84121 c -0.508374,0.50813 -0.508374,1.33297 0,1.84122 l 1.843091,1.84084 c 0.508749,0.50825 1.334341,0.50825 1.84309,0 l 1.639941,-1.63832 c 0.228887,-0.22838 0.605201,-0.22826 0.833838,3.8e-4 h 7.5e-4 l 1.64094,1.63944 c 0.508374,0.50812 1.334342,0.50812 1.842716,0 l 1.641065,-1.63944 c 0.229262,-0.22876 0.605951,-0.22876 0.835213,0 l 1.639694,1.63794 c 0.50862,0.50825 1.33434,0.50825 1.84296,0 l 1.84309,-1.84084 c 0.50838,-0.50825 0.50838,-1.33309 0,-1.84122 l -1.84309,-1.84121 c -0.50862,-0.50825 -1.33434,-0.50825 -1.84296,0 z"
   style="fill:#f1a200;stroke-width:0.124938"
   id="path1" />
    </g>
</svg>
