<?xml version="1.0" encoding="UTF-8" standalone="no"?>
<svg
   width="192.00172"
   height="192.00002"
   viewBox="0 0 192.00172 192.00002"
   version="1.1"
   xml:space="preserve"
   style="clip-rule:evenodd;fill-rule:evenodd;stroke-linejoin:round;stroke-miterlimit:2"
   id="svg2"
   xmlns="http://www.w3.org/2000/svg"
   xmlns:svg="http://www.w3.org/2000/svg"><defs
   id="defs2" />
    <g
   transform="matrix(4,0,0,4,-416,-416.00004)"
   id="g1">
        <path
   d="m 120.93706,105.05939 c 2.232,-0.68907 4.608,-1.05938 7.06294,-1.05938 v 24 h -24 c 0,-2.46169 0.37031,-4.83094 1.05938,-7.06631 2.328,-7.57369 8.304,-13.54969 15.87768,-15.87431 z"
   style="fill:#a2c4b8;fill-rule:nonzero;stroke-width:0.1875"
   id="path1" />
    </g>
    <g
   transform="matrix(4,0,0,4,-416,-416.00004)"
   id="g2">
        <path
   d="m 128,140.00001 c 0,3.31538 -1.344,6.31538 -3.51431,8.48231 -1.02525,1.02788 -2.22881,1.86075 -3.552,2.45832 -1.55063,0.69956 -3.2325,1.06087 -4.93369,1.05937 -3.31538,0 -6.31538,-1.344 -8.48569,-3.51769 C 105.344,146.31539 104,143.31539 104,140.00001 c 0,-1.75894 0.38062,-3.42862 1.05938,-4.93369 0.59625,-1.323 1.42818,-2.52656 2.45493,-3.552 2.17369,-2.17368 5.17369,-3.51431 8.48569,-3.51431 0,3.31538 1.344,6.31538 3.51431,8.48231 2.17369,2.17369 5.17369,3.51769 8.48569,3.51769 z m 24,-12 h -24 v -24 c 2.45831,0 4.82738,0.37031 7.05937,1.05938 h 0.004 c 7.57368,2.32462 13.54968,8.30062 15.87768,15.87431 0.69244,2.23537 1.05938,4.60819 1.05938,7.06631 z m 0,0 v 12 c 0,3.31538 -1.344,6.31538 -3.51431,8.48231 -2.17369,2.17369 -5.17369,3.51769 -8.48569,3.51769 -1.70119,0.001 -3.38306,-0.35981 -4.93369,-1.05937 -1.32206,-0.59925 -2.52544,-1.43194 -3.552,-2.45832 C 129.344,146.31539 128,143.31539 128,140.00001 v -12 z"
   style="fill:#099250;fill-rule:nonzero;stroke-width:0.1875"
   id="path2" />
    </g>
</svg>
