<?xml version="1.0" encoding="UTF-8" standalone="no"?>
<svg
   width="96.000023"
   height="147.72041"
   viewBox="0 0 96.000023 147.72041"
   version="1.1"
   xml:space="preserve"
   style="clip-rule:evenodd;fill-rule:evenodd;stroke-linejoin:round;stroke-miterlimit:2"
   id="svg1"
   xmlns="http://www.w3.org/2000/svg"
   xmlns:svg="http://www.w3.org/2000/svg"><defs
   id="defs1" />
    <g
   transform="matrix(4.36557,0,0,4.36557,-1368.992,-1828.9237)"
   id="g1">
        <path
   d="m 323.60969,449.35187 c -2.89411,-0.1082 -5.16286,-0.7878 -6.80596,-2.0388 -1.64324,-1.25086 -2.71508,-3.12737 -3.21536,-5.62939 l 4.6252,-0.89252 c 0.28404,1.55525 0.85877,2.70484 1.72431,3.44863 0.86555,0.7438 2.08958,1.18335 3.67181,1.31852 v -8.64192 c -0.60848,-0.14873 -1.25101,-0.32112 -1.92715,-0.51731 -0.67628,-0.19605 -1.31866,-0.40566 -1.92714,-0.62882 -0.60863,-0.22317 -1.10906,-0.44966 -1.5013,-0.6796 -1.20354,-0.6897 -2.10631,-1.54183 -2.70815,-2.55611 -0.60185,-1.01428 -0.90277,-2.27207 -0.90277,-3.77322 0,-2.2044 0.76745,-3.91184 2.3025,-5.12231 1.53505,-1.21047 3.75634,-1.87651 6.66401,-1.99812 v -2.6982 h 2.31274 v 2.6982 c 1.677,0.0811 3.10371,0.34478 4.28028,0.79111 1.17672,0.44634 2.147,1.15969 2.91113,2.14021 0.76414,0.98053 1.35588,2.30251 1.7751,3.96595 l -4.74696,0.75057 c -0.22995,-1.20369 -0.67628,-2.13675 -1.339,-2.79947 -0.66258,-0.66272 -1.62291,-1.06838 -2.88055,-1.21725 v 7.76974 c 0.60848,0.12175 1.26442,0.27726 1.96768,0.46653 0.70326,0.18941 1.47417,0.43277 2.3126,0.73038 1.83929,0.66258 3.19517,1.58568 4.0675,2.76903 0.87233,1.18335 1.30842,2.68118 1.30842,4.49335 0,2.38026 -0.82155,4.24321 -2.46479,5.58899 -1.6431,1.34564 -4.04038,2.08612 -7.19141,2.22129 v 3.46897 h -2.31274 z m -4.26009,-20.67175 c 0,0.67628 0.12853,1.23081 0.38546,1.66358 0.28404,0.51385 0.71335,0.91965 1.28822,1.21711 0.57473,0.2976 1.43696,0.62218 2.58641,0.97374 v -7.3436 c -2.84001,0.18926 -4.26009,1.35242 -4.26009,3.48917 z m 11.54295,12.90215 c 0,-0.74379 -0.13863,-1.35242 -0.41589,-1.82573 -0.27727,-0.47345 -0.6796,-0.86555 -1.20701,-1.17671 -0.54097,-0.29746 -1.6568,-0.68292 -3.34722,-1.15623 v 8.13471 c 1.63632,-0.10819 2.87377,-0.49697 3.71234,-1.16647 0.83843,-0.66936 1.25778,-1.60588 1.25778,-2.80957 z"
   style="fill:#003f20;fill-rule:nonzero;stroke-width:0.144258"
   id="path1" />
    </g>
</svg>
