<?xml version="1.0" encoding="UTF-8" standalone="no"?>
<svg
   width="96"
   height="96"
   viewBox="0 0 96 96"
   version="1.1"
   xml:space="preserve"
   style="clip-rule:evenodd;fill-rule:evenodd;stroke-linejoin:round;stroke-miterlimit:2"
   id="svg2"
   xmlns="http://www.w3.org/2000/svg"
   xmlns:svg="http://www.w3.org/2000/svg"><defs
   id="defs2" />
    <g
   transform="matrix(0.512,0,0,0.512,-464,-464)"
   id="g1">
        <path
   d="m 1053.8491,1063.1294 c 2.0062,2.0062 3.0122,4.8084 2.7412,7.6322 -0.27,2.8237 -1.7915,5.3831 -4.1419,6.9703 -14.9859,10.1025 -33.0318,16.0181 -52.4484,16.0181 -19.41684,0 -37.46288,-5.9156 -52.43231,-16.0416 -2.34385,-1.5825 -3.86025,-4.1343 -4.13016,-6.9496 -0.27019,-2.8154 0.73331,-5.6091 2.73338,-7.6088 -0.0195,-0.021 -0.0191,-0.021 -0.0189,-0.022 4.19841,-4.1981 10.73278,-4.9575 15.78206,-1.8337 11.04188,6.9141 24.09291,10.8928 38.06588,10.8928 13.97335,0 27.02435,-3.9787 38.08305,-10.8656 5.0363,-3.1153 11.5538,-2.3578 15.7416,1.83 0.023,-0.023 0.023,-0.023 0.024,-0.023 z m 9.2803,-116.97837 c 2.0062,-2.00597 4.8084,-3.01247 7.6322,-2.74162 2.8237,0.27065 5.3831,1.79156 6.9703,4.14243 10.1025,14.98528 16.0181,33.03132 16.0181,52.44816 0,19.4166 -5.9156,37.4625 -16.0416,52.4325 -1.5825,2.3437 -4.1343,3.8597 -6.9496,4.1297 -2.8154,0.2709 -5.6091,-0.7331 -7.6088,-2.7328 -0.021,0.019 -0.021,0.019 -0.022,0.019 -4.1981,-4.1981 -4.9575,-10.7334 -1.8337,-15.7818 6.9141,-11.0419 10.8928,-24.0929 10.8928,-38.0663 0,-13.97297 -3.9787,-27.024 -10.8656,-38.08303 -3.1153,-5.03644 -2.3578,-11.55403 1.83,-15.74147 -0.023,-0.0237 -0.023,-0.0241 -0.023,-0.0245 z m -140.83831,1.41666 c 1.76119,-2.60719 4.70944,-4.17347 7.85579,-4.17347 2.51334,0 4.92628,0.99947 6.70349,2.77669 0.0203,-0.0195 0.0206,-0.0191 0.021,-0.0189 4.19804,4.19841 4.95751,10.73278 1.83422,15.78206 C 931.79106,972.976 927.8125,986.02703 927.8125,1000 c 0,13.9734 3.97856,27.0244 10.86544,38.0831 3.11522,5.0363 2.35753,11.5538 -1.83,15.7416 0.0231,0.023 0.0227,0.023 0.0223,0.024 -2.00588,2.0062 -4.80769,3.0122 -7.63144,2.7412 -2.82375,-0.2709 -5.38322,-1.7915 -6.97115,-4.1419 C 912.16562,1037.4625 906.25,1019.4166 906.25,1000 c 0,-19.41684 5.91562,-37.46288 16.04109,-52.43231 z M 1000,940.9375 c 32.5978,0 59.0625,26.46506 59.0625,59.0625 0,32.5978 -26.4647,59.0625 -59.0625,59.0625 -32.59744,0 -59.0625,-26.4647 -59.0625,-59.0625 0,-32.59744 26.46506,-59.0625 59.0625,-59.0625 z m -53.84897,-4.06725 c -1.78256,-1.78247 -2.78512,-4.20262 -2.78512,-6.72356 0,-3.15563 1.57096,-6.1126 4.18593,-7.87903 C 962.53712,912.16562 980.58316,906.25 1000,906.25 c 19.4166,0 37.4625,5.91562 52.4325,16.04109 2.3437,1.58335 3.8597,4.13513 4.1297,6.95044 0.27,2.81531 -0.7331,5.60888 -2.7328,7.60884 0.019,0.0203 0.019,0.0206 0.019,0.021 -4.1981,4.19804 -10.7334,4.95751 -15.7818,1.83422 -11.0419,-6.91453 -24.0929,-10.89309 -38.0663,-10.89309 -13.97297,0 -27.024,3.97856 -38.08303,10.86544 -5.03644,3.11522 -11.55403,2.35753 -15.74147,-1.83 -0.0237,0.0231 -0.0241,0.0227 -0.0245,0.0223 z"
   style="fill:#208e7a;stroke-width:0.09375"
   id="path1" />
    </g>
    <g
   transform="matrix(0.512,0,0,0.512,-461.868,-469.332)"
   id="g2">
        <path
   d="m 1022.0076,1024.2812 c 0,-13.6716 -8.2032,-18.3591 -24.60941,-20.3119 -11.71875,-1.5628 -14.0625,-4.68749 -14.0625,-10.15687 0,-5.46937 3.90657,-8.98406 11.71875,-8.98406 7.03126,0 10.93786,2.34375 12.89066,8.20312 0.3909,1.17188 1.5628,1.95282 2.7347,1.95282 h 6.2493 c 1.5628,0 2.7347,-1.17188 2.7347,-2.73375 v -0.39094 c -1.5628,-8.59406 -8.594,-15.23438 -17.5781,-16.01531 v -9.375 c 0,-1.56282 -1.1719,-2.73469 -3.12469,-3.12563 h -5.85938 c -1.56281,0 -2.73469,1.17188 -3.12562,3.12563 v 8.98406 c -11.71875,1.56281 -19.14,9.375 -19.14,19.14094 0,12.89059 7.81218,17.96809 24.21843,19.92189 10.93786,1.9528 14.45346,4.2965 14.45346,10.5469 0,6.2503 -5.4694,10.5468 -12.89064,10.5468 -10.15688,0 -13.6725,-4.2975 -14.84438,-10.1568 -0.39,-1.5619 -1.56187,-2.3438 -2.73375,-2.3438 h -6.64125 c -1.56187,0 -2.73375,1.1719 -2.73375,2.7347 v 0.3909 c 1.56188,9.765 7.81219,16.7963 20.70281,18.75 v 9.375 c 0,1.5619 1.17188,2.7338 3.12469,3.1247 h 5.85938 c 1.56279,0 2.73469,-1.1719 3.12559,-3.1247 v -9.375 c 11.7188,-1.9537 19.531,-10.1568 19.531,-20.7037 z"
   style="fill:#ffffff;fill-rule:nonzero;stroke-width:0.09375"
   id="path2" />
    </g>
</svg>
