<?xml version="1.0" encoding="UTF-8" standalone="no"?>
<svg
   width="96.000427"
   height="127.05927"
   viewBox="0 0 96.000427 127.05927"
   version="1.1"
   xml:space="preserve"
   style="clip-rule:evenodd;fill-rule:evenodd;stroke-linejoin:round;stroke-miterlimit:2"
   id="svg1"
   xmlns="http://www.w3.org/2000/svg"
   xmlns:svg="http://www.w3.org/2000/svg"><defs
   id="defs1" />
    <g
   transform="matrix(4.06892,0,0,4.06892,-456.14099,-448.47058)"
   id="g1">
        <path
   d="m 135.63561,122.7724 c 0.49099,-3.28121 -2.00752,-5.04516 -5.42398,-6.22182 l 1.10817,-4.44485 -2.70584,-0.67426 -1.07889,4.32772 c -0.71136,-0.17732 -1.44195,-0.34445 -2.16795,-0.5101 l 1.0867,-4.35626 -2.70435,-0.67425 -1.10892,4.44335 c -0.58889,-0.13425 -1.16686,-0.26677 -1.72796,-0.40624 l 0.003,-0.0138 -3.73162,-0.93173 -0.71968,2.88973 c 0,0 2.00764,0.4601 1.96508,0.48851 1.09601,0.2736 1.29405,0.99874 1.26092,1.57361 l -1.26241,5.06364 c 0.0756,0.0192 0.17347,0.0469 0.2813,0.0901 -0.0902,-0.0223 -0.1865,-0.047 -0.28589,-0.0709 l -1.7694,7.09337 c -0.13426,0.33278 -0.47399,0.83221 -1.24007,0.64262 0.0269,0.0393 -1.96669,-0.49087 -1.96669,-0.49087 l -1.34343,3.09707 3.52118,0.87763 c 0.65515,0.16416 1.29715,0.33602 1.9291,0.49782 l -1.11984,4.49559 2.70275,0.67439 1.10904,-4.44795 c 0.71669,0.19431 1.43549,0.3808 2.15628,0.55948 l -1.10507,4.42711 2.70585,0.67425 1.11971,-4.48716 c 4.6141,0.87304 8.08366,0.5209 9.5441,-3.65184 1.17679,-3.35988 -0.0586,-5.29791 -2.48622,-6.56168 1.76791,-0.4076 3.09968,-1.5705 3.45493,-3.97234 z m -6.18236,8.66833 c -0.83619,3.35988 -6.49369,1.54358 -8.32786,1.08807 l 1.48588,-5.95591 c 1.83417,0.45774 7.71601,1.36403 6.84198,4.86784 z m 0.83693,-8.71697 c -0.76298,3.05625 -5.47175,1.50349 -6.99919,1.12281 l 1.34715,-5.40189 c 1.52744,0.38069 6.44665,1.09118 5.65204,4.27908 z"
   style="fill-rule:nonzero;stroke-width:0.124082"
   id="path1" />
    </g>
</svg>
