<?xml version="1.0" encoding="UTF-8" standalone="no"?>
<svg
   width="95.999474"
   height="95.998474"
   viewBox="0 0 95.999474 95.998474"
   version="1.1"
   xml:space="preserve"
   style="clip-rule:evenodd;fill-rule:evenodd;stroke-linejoin:round;stroke-miterlimit:2"
   id="svg5"
   xmlns="http://www.w3.org/2000/svg"
   xmlns:svg="http://www.w3.org/2000/svg"><defs
   id="defs5" />
    <g
   transform="matrix(4,0,0,4,48.002595,48.003)"
   id="g5">
        <g
   transform="translate(-128,-128)"
   id="g4">
            <g
   id="g3">
                <clipPath
   id="_clip1">
                    <rect
   x="0"
   y="0"
   width="256"
   height="256"
   id="rect1" />
                </clipPath>
                <g
   clip-path="url(#_clip1)"
   id="g2">
                    <g
   id="g1">
                        <path
   d="m 139.83787,126.74237 c -0.0337,-0.4949 -0.26212,-0.95671 -0.63505,-1.2838 -0.37247,-0.32671 -0.85987,-0.49237 -1.3543,-0.46021 h -0.0729 c -0.46912,0.0536 -0.89942,0.28762 -1.19933,0.6523 -0.30018,0.36516 -0.44728,0.83297 -0.41006,1.30424 v 0.0734 c 0.088,0.64921 0.088,1.30723 0,1.95645 v 0.0734 c -0.11006,0.73218 -0.3089,1.44824 -0.59221,2.13223 -0.56287,1.33443 -1.4652,2.49851 -2.61719,3.37628 -1.15115,0.87702 -2.51229,1.43727 -3.94731,1.62449 -1.43455,0.18693 -2.89338,-0.006 -4.23024,-0.55856 -1.33789,-0.55322 -2.50788,-1.44739 -3.39296,-2.5931 -0.88565,-1.14655 -1.4564,-2.50507 -1.65515,-3.94018 -0.19874,-1.43539 -0.0189,-2.89807 0.52153,-4.24262 0.53981,-1.34389 1.42199,-2.52335 2.5586,-3.42081 1.13587,-0.8968 2.48716,-1.48029 3.91881,-1.69217 0.97292,-0.13247 1.96076,-0.10762 2.92581,0.0734 0.57487,0.0837 1.09368,0.39234 1.44149,0.85771 0.34818,0.46565 0.49799,1.05083 0.41643,1.62654 -0.12019,0.50456 -0.43143,0.9435 -0.86783,1.22381 -0.43603,0.27993 -0.96412,0.37987 -1.47224,0.27843 h -0.0736 c -0.16041,-0.0399 -0.32475,-0.0621 -0.49003,-0.0659 h -0.0657 c -0.26728,-0.0295 -0.53615,-0.0417 -0.80502,-0.0366 -0.80343,0.0462 -1.57817,0.31659 -2.23582,0.78046 -0.6584,0.46416 -1.17412,1.10324 -1.48864,1.84489 -0.31481,0.74221 -0.41625,1.55774 -0.29288,2.35442 0.12338,0.79639 0.46687,1.54264 0.99149,2.15435 0.52425,0.61134 1.20927,1.06396 1.97727,1.30639 0.76752,0.24206 1.58773,0.26428 2.36725,0.064 0.77981,-0.20024 1.48808,-0.61499 2.04439,-1.19689 0.55696,-0.58237 0.94021,-1.30892 1.10643,-2.09745 l 0.10218,-0.63009 c 0.0306,-0.34846 0.0433,-0.69833 0.0371,-1.04802 -10e-4,-1.3527 0.48646,-2.66135 1.3722,-3.68368 0.88471,-1.0214 2.11001,-1.68889 3.448,-1.87826 h 0.10931 c 0.23034,-0.0306 0.46275,-0.0429 0.69506,-0.0369 h 0.17568 c -1.08177,-1.7217 -2.58185,-3.1419 -4.36017,-4.12777 -1.7772,-0.98502 -3.77547,-1.50364 -5.80738,-1.5073 -3.20444,0.0526 -6.26179,1.36921 -8.50183,3.66119 -2.24294,2.29451 -3.49374,5.38288 -3.47959,8.59144 0.0676,2.72098 1.0543,5.34061 2.79869,7.42999 1.74224,2.08742 4.14221,3.52319 6.80534,4.07115 2.66229,0.54731 5.43304,0.17466 7.85608,-1.05655 2.42492,-1.23261 4.36187,-3.25159 5.49304,-5.72544 l 0.0372,-0.0658 c 0.55987,-1.30058 0.90093,-2.68488 1.0094,-4.09664 -0.0219,-0.7694 -0.0956,-1.39949 -0.16144,-2.06633 z"
   style="fill:#ef4800;fill-rule:nonzero;stroke-width:0.0937491"
   id="path1" />
                    </g>
                </g>
            </g>
        </g>
    </g>
</svg>
