<?xml version="1.0" encoding="UTF-8" standalone="no"?>
<svg
   width="96.000153"
   height="95.999146"
   viewBox="0 0 96.000153 95.999146"
   version="1.1"
   xml:space="preserve"
   style="clip-rule:evenodd;fill-rule:evenodd;stroke-linejoin:round;stroke-miterlimit:2"
   id="svg1"
   xmlns="http://www.w3.org/2000/svg"
   xmlns:svg="http://www.w3.org/2000/svg"><defs
   id="defs1" />
    <g
   transform="matrix(3.99999,0,0,3.99999,-463.9962,-463.99536)"
   id="g1">
        <path
   d="m 139.83799,126.74236 c -0.0337,-0.49491 -0.26213,-0.95672 -0.63506,-1.28381 -0.37247,-0.32672 -0.85988,-0.49238 -1.35432,-0.46022 h -0.0728 c -0.46913,0.0536 -0.89944,0.28762 -1.19934,0.65231 -0.30019,0.36516 -0.44729,0.83297 -0.41007,1.30425 v 0.0734 c 0.088,0.64922 0.088,1.30725 0,1.95647 v 0.0734 c -0.11006,0.73219 -0.3089,1.44825 -0.59222,2.13225 -0.56287,1.33444 -1.46521,2.49853 -2.61721,3.37632 -1.15116,0.87703 -2.51232,1.43728 -3.94735,1.6245 -1.43456,0.18693 -2.8934,-0.006 -4.23028,-0.55857 -1.33791,-0.55322 -2.50791,-1.4474 -3.393,-2.59312 -0.88566,-1.14656 -1.45641,-2.5051 -1.65516,-3.94022 -0.19875,-1.43541 -0.0189,-2.89809 0.52154,-4.24266 0.53981,-1.3439 1.422,-2.52337 2.55862,-3.42084 1.13588,-0.89681 2.48719,-1.48031 3.91884,-1.69219 0.97294,-0.13247 1.96079,-0.10762 2.92585,0.0734 0.57487,0.0837 1.09369,0.39234 1.4415,0.85772 0.34819,0.46565 0.498,1.05084 0.41644,1.62656 -0.12019,0.50456 -0.43144,0.9435 -0.86785,1.22381 -0.43603,0.27994 -0.96412,0.37988 -1.47225,0.27844 h -0.0736 c -0.16041,-0.0399 -0.32475,-0.0621 -0.49003,-0.0659 h -0.0657 c -0.26728,-0.0295 -0.53616,-0.0417 -0.80503,-0.0366 -0.80344,0.0462 -1.57819,0.31659 -2.23585,0.78047 -0.6584,0.46416 -1.17412,1.10325 -1.48865,1.84491 -0.31482,0.74221 -0.41625,1.55775 -0.29288,2.35443 0.12338,0.79641 0.46688,1.54266 0.9915,2.15438 0.52425,0.61134 1.20928,1.06397 1.97728,1.3064 0.76753,0.24207 1.58775,0.26429 2.36728,0.064 0.77982,-0.20025 1.4881,-0.615 2.04441,-1.19691 0.55697,-0.58238 0.94022,-1.30894 1.10644,-2.09747 l 0.10219,-0.63009 c 0.0306,-0.34847 0.0433,-0.69835 0.0371,-1.04803 -0.001,-1.35272 0.48647,-2.66138 1.37222,-3.68372 0.88472,-1.02141 2.11003,-1.68891 3.44803,-1.87828 h 0.10931 c 0.23035,-0.0306 0.46275,-0.0429 0.69507,-0.0369 h 0.17568 c -1.08178,-1.72172 -2.58187,-3.14194 -4.36022,-4.12781 -1.77721,-0.98503 -3.7755,-1.50366 -5.80743,-1.50731 -3.20447,0.0526 -6.26185,1.36922 -8.50191,3.66122 -2.24297,2.29453 -3.49378,5.38293 -3.47962,8.59153 0.0676,2.721 1.05431,5.34065 2.79871,7.43006 1.74225,2.08744 4.14225,3.52322 6.80541,4.07119 2.66231,0.54731 5.43309,0.17465 7.85616,-1.05657 2.42493,-1.23262 4.3619,-3.25162 5.49309,-5.7255 l 0.0372,-0.0658 c 0.55987,-1.30059 0.90094,-2.6849 1.00941,-4.09669 -0.0219,-0.7694 -0.0956,-1.3995 -0.16144,-2.06634 z"
   style="fill:#46b549;fill-rule:nonzero;stroke-width:0.09375"
   id="path1" />
    </g>
</svg>
