<?xml version="1.0" encoding="UTF-8" standalone="no"?>
<svg
   width="2048"
   height="2048.0002"
   viewBox="0 0 2048 2048.0002"
   version="1.1"
   xml:space="preserve"
   style="clip-rule:evenodd;fill-rule:evenodd;stroke-linejoin:round;stroke-miterlimit:2"
   id="svg2"
   xmlns="http://www.w3.org/2000/svg"
   xmlns:svg="http://www.w3.org/2000/svg"><defs
   id="defs2" />
    <g
   transform="matrix(4,0,0,4,512,512.00004)"
   id="g1">
        <path
   d="m 52.662,-116.70001 c 23.808,-7.35 49.152,-11.3 75.338,-11.3 v 256 h -256 c 0,-26.258 3.95,-51.530002 11.3,-75.374002 24.832,-80.786 88.576,-144.53 169.362,-169.325998 z"
   style="fill:#a2c4b8;fill-rule:nonzero;stroke-width:2"
   id="path1" />
    </g>
    <g
   transform="matrix(4,0,0,4,512,512.00004)"
   id="g2">
        <path
   d="m 128,255.99999 c 0,35.364 -14.336,67.364 -37.486,90.478 -10.936,10.964 -23.774,19.848 -37.888,26.222 -16.54,7.462 -34.48,11.316 -52.626,11.3 -35.364,0 -67.364,-14.336 -90.514,-37.522 -23.15,-23.114 -37.486,-55.114 -37.486,-90.478 0,-18.762 4.06,-36.572 11.3,-52.626 6.36,-14.112 15.234,-26.95 26.186,-37.888 23.186,-23.186 55.186,-37.486 90.514,-37.486 0,35.364 14.336,67.364 37.486,90.478 23.186,23.186 55.186,37.522 90.514,37.522 z m 256,-128 H 128 v -256 c 26.222,0 51.492,3.95 75.3,11.3 h 0.038 c 80.786,24.795998 144.53,88.539998 169.362,169.325998 7.386,23.844 11.3,49.154002 11.3,75.374002 z m 0,0 v 128 c 0,35.364 -14.336,67.364 -37.486,90.478 -23.186,23.186 -55.186,37.522 -90.514,37.522 -18.146,0.016 -36.086,-3.838 -52.626,-11.3 -14.102,-6.392 -26.938,-15.274 -37.888,-26.222 -23.15,-23.114 -37.486,-55.114 -37.486,-90.478 v -128 z"
   style="fill:#099250;fill-rule:nonzero;stroke-width:2"
   id="path2" />
    </g>
</svg>
