<?xml version="1.0" encoding="UTF-8" standalone="no"?>
<svg
   width="1023.9989"
   height="971.99542"
   viewBox="0 0 1023.9989 971.99542"
   version="1.1"
   xml:space="preserve"
   style="clip-rule:evenodd;fill-rule:evenodd;stroke-linejoin:round;stroke-miterlimit:2"
   id="svg1"
   xmlns="http://www.w3.org/2000/svg"
   xmlns:svg="http://www.w3.org/2000/svg"><defs
   id="defs1" />
    <g
   transform="matrix(3.99998,0,0,3.99998,0,-23.999746)"
   id="g1">
        <path
   d="m 232.857,120.67 c 0.404,-0.601 0.787,-1.213 1.171,-1.835 7.129,-11.533 10.633,-24.922 10.633,-38.45 v -0.713 c 0,-14.562 -4.08,-28.913 -12.238,-41.008 C 220.326,20.722 200.575,8.307 177.806,6 h -72.207 c -2.746,-0.007 -5.385,1.08 -7.33,3.019 -1.946,1.921 -3.042,4.545 -3.04,7.28 v 32.785 c 0,2.848 1.161,5.426 3.04,7.281 1.945,1.939 4.584,3.026 7.33,3.019 h 65.068 c 11.167,0 20.215,9.006 20.215,20.078 v 1.063 c 0,11.092 -9.048,20.078 -20.215,20.078 H 64.129 c -2.746,0.005 -5.385,-1.082 -7.331,-3.02 -1.944,-1.922 -3.04,-4.546 -3.04,-7.28 V 16.3 c 0,-2.849 -1.16,-5.426 -3.039,-7.281 C 48.774,7.082 46.136,5.995 43.39,6 H 10.37 C 4.645,6 0,10.613 0,16.3 v 222.4 c 0,2.828 1.161,5.416 3.04,7.281 1.944,1.939 4.584,3.026 7.33,3.019 h 33.01 c 2.867,0 5.452,-1.153 7.33,-3.019 1.945,-1.922 3.04,-4.546 3.04,-7.281 v -74.003 c 0,-5.686 4.644,-10.3 10.37,-10.3 h 106.023 c 1.757,0 3.473,-0.08 5.19,-0.19 h 6.704 c 11.148,0 20.215,8.986 20.215,20.078 v 1.043 c 0,11.092 -9.067,20.078 -20.215,20.078 h -76.084 c -0.111,-0.02 -0.242,-0.02 -0.353,-0.02 -0.111,0 -0.242,0 -0.354,0.02 -2.624,0.071 -5.123,1.149 -6.977,3.008 -1.947,1.925 -3.042,4.553 -3.04,7.291 V 238.7 c 0,2.828 1.162,5.416 3.04,7.281 1.945,1.94 4.584,3.027 7.331,3.019 h 81.183 c 21.205,-1.464 39.986,-11.704 52.668,-27.088 10.906,-13.218 16.55,-29.956 16.55,-47.046 v -0.14 c 0,-16.658 -5.352,-32.985 -15.762,-46.043 -2.27,-2.846 -4.744,-5.524 -7.401,-8.013 h 0.02 z"
   style="fill:#000030;fill-rule:nonzero"
   id="path1" />
    </g>
</svg>
