<?xml version="1.0" encoding="UTF-8" standalone="no"?>
<svg
   width="1024"
   height="1024"
   viewBox="0 0 1024 1024"
   version="1.1"
   xml:space="preserve"
   style="clip-rule:evenodd;fill-rule:evenodd;stroke-linejoin:round;stroke-miterlimit:2"
   id="svg2"
   xmlns="http://www.w3.org/2000/svg"
   xmlns:svg="http://www.w3.org/2000/svg"><defs
   id="defs2" />
    <g
   transform="scale(0.512)"
   id="g1">
        <path
   d="m 1574.39,1673.38 c 21.4,21.4 32.13,51.29 29.24,81.41 -2.88,30.12 -19.11,57.42 -44.18,74.35 C 1399.6,1936.9 1207.11,2000 1000,2000 c -207.113,0 -399.604,-63.1 -559.278,-171.11 -25.001,-16.88 -41.176,-44.1 -44.055,-74.13 -2.882,-30.03 7.822,-59.83 29.156,-81.16 -0.208,-0.22 -0.204,-0.22 -0.201,-0.23 44.783,-44.78 114.483,-52.88 168.342,-19.56 117.78,73.75 256.991,116.19 406.036,116.19 149.05,0 288.26,-42.44 406.22,-115.9 53.72,-33.23 123.24,-25.15 167.91,19.52 0.25,-0.24 0.25,-0.24 0.26,-0.24 z m 98.99,-1247.769 c 21.4,-21.397 51.29,-32.133 81.41,-29.244 30.12,2.887 57.42,19.11 74.35,44.186 C 1936.9,600.396 2000,792.887 2000,1000 c 0,207.11 -63.1,399.6 -171.11,559.28 -16.88,25 -44.1,41.17 -74.13,44.05 -30.03,2.89 -59.83,-7.82 -81.16,-29.15 -0.22,0.2 -0.22,0.2 -0.23,0.2 -44.78,-44.78 -52.88,-114.49 -19.56,-168.34 C 1727.56,1288.26 1770,1149.05 1770,1000 c 0,-149.045 -42.44,-288.256 -115.9,-406.219 -33.23,-53.722 -25.15,-123.243 19.52,-167.909 -0.24,-0.253 -0.24,-0.257 -0.24,-0.261 z M 171.105,440.722 c 18.786,-27.81 50.234,-44.517 83.795,-44.517 26.809,0 52.547,10.661 71.504,29.618 0.216,-0.208 0.22,-0.204 0.224,-0.201 44.779,44.783 52.88,114.483 19.565,168.342 C 272.438,711.744 230,850.955 230,1000 c 0,149.05 42.438,288.26 115.898,406.22 33.229,53.72 25.147,123.24 -19.52,167.91 0.246,0.25 0.242,0.25 0.238,0.26 -21.396,21.4 -51.282,32.13 -81.402,29.24 -30.12,-2.89 -57.421,-19.11 -74.359,-44.18 C 63.1,1399.6 0,1207.11 0,1000 0,792.887 63.1,600.396 171.105,440.722 Z M 1000,370 c 347.71,0 630,282.294 630,630 0,347.71 -282.29,630 -630,630 -347.706,0 -630,-282.29 -630,-630 0,-347.706 282.294,-630 630,-630 z M 425.611,326.616 c -19.014,-19.013 -29.708,-44.828 -29.708,-71.718 0,-33.66 16.757,-65.201 44.65,-84.043 C 600.396,63.1 792.887,0 1000,0 c 207.11,0 399.6,63.1 559.28,171.105 25,16.889 41.17,44.108 44.05,74.138 2.88,30.03 -7.82,59.828 -29.15,81.161 0.2,0.216 0.2,0.22 0.2,0.224 -44.78,44.779 -114.49,52.88 -168.34,19.565 C 1288.26,272.438 1149.05,230 1000,230 c -149.045,0 -288.256,42.438 -406.219,115.898 -53.722,33.229 -123.243,25.147 -167.909,-19.52 -0.253,0.246 -0.257,0.242 -0.261,0.238 z"
   style="fill:#208e7a"
   id="path1" />
    </g>
    <g
   transform="scale(4)"
   id="g2">
        <path
   d="m 95.614,150.485 c -1.785,0 -3.254,1.469 -3.254,3.254 v 8.657 c 0,1.785 1.469,3.254 3.254,3.254 h 23.758 v 21.967 c 0,1.786 1.469,3.255 3.255,3.255 h 10.447 c 1.786,0 3.255,-1.469 3.255,-3.255 V 165.65 h 24.057 c 1.785,0 3.254,-1.469 3.254,-3.254 v -8.657 c 0,-1.785 -1.469,-3.254 -3.254,-3.254 z m 64.846,-10.763 c 1.786,0 3.255,-1.469 3.255,-3.255 v -8.507 c 0,-1.785 -1.469,-3.254 -3.254,-3.254 0,0 -0.001,0 -0.001,0 h -20.388 l 27.549,-48.721 c 0.569,-1.007 0.561,-2.244 -0.021,-3.243 -0.583,-0.998 -1.656,-1.614 -2.812,-1.614 H 152.7 c -1.173,0 -2.258,0.633 -2.835,1.654 l -21.922,38.827 -21.651,-38.812 c -0.574,-1.029 -1.664,-1.669 -2.842,-1.669 H 91.212 c -0.001,0 -0.002,0 -0.004,0 -1.784,0 -3.253,1.468 -3.253,3.253 0,0.56 0.145,1.11 0.42,1.598 l 27.418,48.727 H 95.689 c -1.785,0 -3.254,1.469 -3.255,3.254 v 8.507 c 0,1.786 1.469,3.255 3.255,3.255 z"
   style="fill:#ffffff;fill-rule:nonzero"
   id="path2" />
    </g>
</svg>
