<?xml version="1.0" encoding="UTF-8" standalone="no"?>
<svg
   width="1024"
   height="1236.5269"
   viewBox="0 0 1024 1236.5269"
   version="1.1"
   xml:space="preserve"
   style="clip-rule:evenodd;fill-rule:evenodd;stroke-linejoin:round;stroke-miterlimit:2"
   id="svg1"
   xmlns="http://www.w3.org/2000/svg"
   xmlns:svg="http://www.w3.org/2000/svg"><defs
   id="defs1" />
    <g
   transform="matrix(4,0,0,4,88,106.26402)"
   id="g1">
        <path
   d="M 234,35.259201 V -26.566006 H 106 v 61.825207 h 64 C 169.73917,51.905239 162.84891,67.777239 150.86762,79.334673 138.86702,90.925918 122.72936,97.307805 106,97.081994 V 35.259201 C 72.548528,34.834145 40.292528,47.607579 16.299774,70.785239 -7.6941887,93.962899 -21.466264,125.65135 -22,158.9072 c 0.533736,33.25464 14.3070189,64.9431 38.299774,88.12076 23.992754,23.17766 56.248754,35.95109 89.700226,35.52603 33.45992,0.45404 65.73283,-12.31094 89.73162,-35.49464 C 219.73042,223.87565 233.49404,192.1703 234,158.9072 h -64 c -0.11109,8.24272 -1.856,16.38159 -5.13328,23.94566 -3.28332,7.57494 -8.0314,14.42778 -13.97132,20.16242 -5.9508,5.74671 -12.9751,10.26777 -20.672,13.30234 -7.70778,3.0406 -15.93842,4.54158 -24.2234,4.41479 C 89.270642,220.95822 73.135396,214.57392 61.136,202.98147 49.135396,191.39022 42.252377,175.53875 42,158.9072 42.253585,142.27445 49.136604,126.42297 61.136,114.83173 73.135396,103.24048 89.269434,96.854975 106,97.081994 V 158.9072 c 33.45147,0.42506 65.70747,-12.352 89.70023,-35.52966 C 219.69298,100.20109 233.46626,68.513843 234,35.259201 Z"
   style="fill:#ef6100;fill-rule:nonzero;stroke-width:1.20755"
   id="path1" />
    </g>
</svg>
