<?xml version="1.0" encoding="UTF-8" standalone="no"?>
<svg
   width="1789.871"
   height="1400.3289"
   viewBox="0 0 1789.871 1400.3289"
   version="1.1"
   xml:space="preserve"
   style="clip-rule:evenodd;fill-rule:evenodd;stroke-linejoin:round;stroke-miterlimit:2"
   id="svg2"
   xmlns="http://www.w3.org/2000/svg"
   xmlns:svg="http://www.w3.org/2000/svg"><defs
   id="defs2" />
    <g
   transform="matrix(4.00296,0,0,4.00296,382.04622,295.86748)"
   id="g2">
        <path
   d="M 160.14952,13.542351 122.98121,100.99863 H 35.743483 c -0.0507,0 -0.09966,0 -0.150359,0 -23.907022,0 -43.5777783,19.67075 -43.5777783,43.57777 0,0.0507 0,0.0997 0,0.15036 0,0.0507 0,0.0997 0,0.15036 0,23.90702 19.6707563,43.57778 43.5777783,43.57778 0.0507,0 0.09966,0 0.150359,0 h 50.069426 l -36.584354,87.45628 c -8.741781,-0.0752 -9.112433,0 -13.485072,0 -72.369709,0 -131.184412,-58.81471 -131.184412,-131.18442 0,-72.371454 58.814703,-131.184409 131.184412,-131.184409 H 160.36981 Z"
   style="fill:#3551f2;fill-rule:nonzero;stroke-width:1.74836"
   id="path1" />
        <path
   d="m 351.69593,57.270488 c 0,72.371462 -58.8147,131.184412 -131.18441,131.184412 H 85.828644 l 37.168306,-87.45627 h 97.51457 c 24.05039,0 43.72813,-19.677753 43.72813,-43.726393 0,-24.052137 -19.67774,-43.729886 -43.72813,-43.729886 h -60.34627 l 37.67358,-87.454527 c 8.74178,0.07693 14.3645,0 22.67269,0 72.36971,0 131.18441,58.812955 131.18441,131.182664 z"
   style="fill:#3551f2;fill-rule:nonzero;stroke-width:1.74836"
   id="path2" />
    </g>
</svg>
