<?xml version="1.0" encoding="UTF-8" standalone="no"?>
<svg
   width="1024.0005"
   height="1225.2671"
   viewBox="0 0 1024.0005 1225.2671"
   version="1.1"
   xml:space="preserve"
   style="clip-rule:evenodd;fill-rule:evenodd;stroke-linejoin:round;stroke-miterlimit:2"
   id="svg4"
   xmlns="http://www.w3.org/2000/svg"
   xmlns:svg="http://www.w3.org/2000/svg"><defs
   id="defs4" />
    <g
   transform="matrix(0.999959,0,0,0.999959,71.122874,100.69717)"
   id="g4">
        <g
   transform="matrix(3.9987,0,0,3.9987,-38.875,0.251891)"
   id="g1">
            <path
   d="m 245.15655,228.17146 c -1.02062,-1.21564 -2.27455,-2.21592 -3.68643,-2.9422 -1.41187,-0.72867 -2.95057,-1.17736 -4.53235,-1.31974 -3.19226,-0.27878 -6.36778,0.72867 -8.81582,2.79623 -0.31588,0.25964 -0.63176,0.51928 -0.93567,0.77772 -0.22614,0.19264 -0.45108,0.37211 -0.67722,0.55279 -3.50575,2.85485 -7.15987,5.52305 -10.9468,7.99383 l -0.49535,0.32664 c -0.83516,0.54082 -1.66912,1.07087 -2.51505,1.57819 -0.20221,0.12443 -0.38288,0.23691 -0.57432,0.34938 -0.19144,0.11247 -0.37211,0.22614 -0.55278,0.33861 l -0.32665,0.20221 -0.58628,0.35057 c -0.19144,0.11247 -0.37211,0.22494 -0.56355,0.32665 -2.23627,1.30059 -4.51082,2.53419 -6.82126,3.69719 l -0.57432,0.29314 -0.80046,0.40681 -1.04934,0.50732 -0.079,0.0443 c -0.34937,0.1699 -0.69875,0.32784 -1.04813,0.49655 l -0.80046,0.37211 -0.51809,0.23691 c -0.27041,0.12324 -0.55278,0.24767 -0.82319,0.37211 -0.36134,0.15794 -0.73346,0.32664 -1.10557,0.48458 -0.74303,0.32665 -1.49922,0.64252 -2.25421,0.94644 -0.38288,0.15793 -0.76696,0.31587 -1.14984,0.46304 -0.73345,0.29314 -1.47648,0.58629 -2.2207,0.86747 h -0.0227 c -0.73345,0.28237 -1.47768,0.55278 -2.22071,0.81242 l -0.14717,0.0562 c -0.34937,0.12324 -0.69875,0.24767 -1.0601,0.37211 -0.37211,0.12324 -0.74422,0.24767 -1.10437,0.38288 l -1.11633,0.36015 c -0.1041,0.0359 -0.20939,0.0706 -0.31588,0.1017 l -0.72149,0.22614 -0.59706,0.19144 c -0.60902,0.19144 -1.20607,0.37211 -1.81509,0.55278 l -0.40561,0.12324 c -0.24888,0.0682 -0.49655,0.14717 -0.74423,0.21418 l -0.85669,0.2369 -0.68799,0.19144 -0.45108,0.12444 -0.57552,0.14717 c -0.64252,0.16871 -1.29581,0.33741 -1.9503,0.49535 -0.15794,0.0455 -0.32665,0.079 -0.48458,0.12444 -0.22495,0.0562 -0.46185,0.11247 -0.69876,0.1687 l -0.57552,0.13521 c -0.0443,0.012 -0.1005,0.0227 -0.14597,0.0335 -0.29314,0.0682 -0.59825,0.13521 -0.8902,0.20341 -0.54201,0.12443 -1.08283,0.2369 -1.63562,0.34938 -0.51808,0.11247 -1.03736,0.21417 -1.54468,0.31587 l -1.26231,0.23691 -0.77773,0.1352 c -0.25964,0.0455 -0.46185,0.0897 -0.69875,0.12444 l -1.00387,0.16871 -0.98113,0.15794 -0.12324,0.0227 c -0.40681,0.0562 -0.80046,0.12324 -1.19531,0.17947 -0.39484,0.0562 -0.77772,0.11367 -1.14984,0.15794 l -0.24767,0.0347 -0.94763,0.12324 h -0.0682 c -0.27041,0.0335 -0.52886,0.0682 -0.7885,0.1017 l -0.69875,0.079 c -0.68799,0.079 -1.38675,0.15794 -2.08551,0.22494 h -0.1699 c -0.22494,0.0455 -0.46185,0.0682 -0.68799,0.0909 l -0.59705,0.0562 c -0.23691,0.0227 -0.47382,0.0455 -0.71073,0.0562 l -0.70952,0.0562 c -0.93567,0.0682 -1.8833,0.1352 -2.81896,0.19144 l -1.25154,0.0682 -0.70953,0.0227 c -0.18067,10e-4 -0.36134,0.01 -0.54201,0.0227 l -0.6868,0.0215 h -0.69995 c -0.23571,0.012 -0.47262,0.0347 -0.70952,0.0347 h -0.24768 c -0.39485,0 -0.78969,0.0108 -1.17257,0.0108 h -2.55932 c -13.3398,-0.15794 -26.57431,-2.37865 -39.2345,-6.58435 -0.45108,-0.15794 -0.91293,-0.30391 -1.36401,-0.46185 -0.22495,-0.079 -0.45108,-0.15794 -0.66526,-0.23691 -0.21417,-0.079 -0.45108,-0.15794 -0.66525,-0.23691 -0.36254,-0.12563 -0.72269,-0.25725 -1.08164,-0.39484 l -0.45108,-0.16871 c -0.405617,-0.14597 -0.812428,-0.30391 -1.206077,-0.45108 l -0.203406,-0.079 c -0.157938,-0.0562 -0.315876,-0.12324 -0.461849,-0.17948 l -0.157939,-0.0682 -0.124436,-0.0455 -0.270409,-0.10051 -0.247676,-0.1017 h -0.05624 l -0.113668,-0.0562 -0.507316,-0.2034 -0.653291,-0.27041 c -0.361343,-0.14717 -0.72149,-0.29315 -1.082834,-0.45108 h -0.05624 l -0.72149,-0.31588 -0.844731,-0.37211 C 70.838155,236.24785 51.523021,220.02448 37.803928,199.45661 37.699833,199.31063 37.602916,199.15988 37.511982,199.00553 23.660077,177.93034 16.248943,153.26684 16.192707,128.04697 v -1.9168 c 0,-0.48458 0.02273,-0.96916 0.0335,-1.45375 v -0.11366 c 0.392452,-14.39991 3.192267,-28.633497 8.285777,-42.108503 0.180671,-0.472619 0.361343,-0.935665 0.542015,-1.40948 0.157938,-0.416383 0.326645,-0.833962 0.495352,-1.250345 l 0.349378,-0.845927 c 0.191441,-0.461849 0.382881,-0.924896 0.586287,-1.387942 0.21537,-0.50612 0.440312,-1.013437 0.665255,-1.520754 0.01197,-0.0335 0.0347,-0.0682 0.04547,-0.101703 0.01555,-0.04666 0.0347,-0.09093 0.05623,-0.135205 l 0.473815,-1.048135 c 0,0 0,-0.02393 0.01197,-0.0335 0.145973,-0.327842 0.291947,-0.643719 0.439116,-0.958399 0.04547,-0.09093 0.07897,-0.19144 0.12324,-0.282374 l 0.0682,-0.157938 c 0.067,-0.157939 0.145973,-0.315877 0.224942,-0.46185 0.04547,-0.101703 0.09093,-0.203406 0.136401,-0.293143 l 0.135205,-0.293143 0.0335,-0.0682 0.08974,-0.179475 c 0.169903,-0.361344 0.349379,-0.721491 0.53005,-1.082835 0.0335,-0.05624 0.05624,-0.124436 0.08974,-0.179475 0.236907,-0.475011 0.473815,-0.94763 0.710722,-1.410676 0.168707,-0.326645 0.33861,-0.665255 0.507317,-0.9919 L 30.9384,68.158452 c 0,0 0,-0.02154 0.01197,-0.0335 0,0 0,-0.02273 0.01197,-0.02273 0.100507,-0.203405 0.202209,-0.382881 0.303912,-0.574321 0.0335,-0.0682 0.07897,-0.135205 0.112471,-0.203405 l 0.224943,-0.416383 c 0.0682,-0.135205 0.147169,-0.271606 0.21537,-0.406811 l 0.04427,-0.07897 0.08974,-0.156742 c 0.124436,-0.248872 0.259641,-0.48578 0.382881,-0.721491 4.02264,-7.278322 8.74643,-14.14744 14.104367,-20.508046 0.09093,-0.112471 0.19144,-0.224942 0.270409,-0.33861 1.940726,-2.494707 2.827334,-5.653472 2.46958,-8.79429 C 48.433666,29.40495 42.545679,24.628514 36.033118,25.23873 c -3.149193,0.297929 -6.059086,1.81629 -8.105105,4.228438 -4.509616,5.350757 -8.644728,11.00423 -12.379011,16.922129 l -0.09093,0.135205 c -0.326645,0.518085 -0.642521,1.037367 -0.969167,1.543488 -0.169903,0.271606 -0.326645,0.542015 -0.496548,0.82439 -4.9511256,8.18886 -9.1221319,16.825212 -12.4579798,25.794192 -1.66672742,4.478507 -3.119281,9.034787 -4.3516781,13.652089 -0.021537,0.08017 -0.044271,0.159135 -0.067004,0.248872 -0.1124712,0.406811 -0.2153704,0.823194 -0.3266451,1.240773 -0.034699,0.112471 -0.057432,0.224942 -0.090934,0.349379 -0.056236,0.214174 -0.1124712,0.439116 -0.1687068,0.665255 l -0.1699033,0.665255 c -0.1124712,0.439116 -0.2129774,0.879429 -0.31468,1.329314 0,0.0347 -0.02393,0.07897 -0.02393,0.113668 -0.010768,0.067 -0.032306,0.123239 -0.044271,0.19144 v 0.04547 c -0.067004,0.281178 -0.1352048,0.562356 -0.2034054,0.833962 -0.021537,0.07897 -0.033502,0.157938 -0.056236,0.224942 -4.3648397,19.267269 -4.9583047,39.199799 -1.7468931,58.693219 0.022734,0.14597 0.045467,0.30391 0.078969,0.46185 3.3107213,19.838 10.5100744,38.82768 21.1840696,55.87425 0.179475,0.28237 0.360147,0.57552 0.540819,0.8567 l 0.507317,0.78969 c 0.168706,0.27041 0.33861,0.53005 0.507316,0.78849 0.247676,0.38408 0.496549,0.75619 0.744225,1.13907 0.145973,0.22494 0.293143,0.43912 0.439116,0.65329 0.05624,0.0909 0.124436,0.18067 0.180672,0.27161 0.247676,0.37211 0.507317,0.74422 0.765761,1.11514 0.05743,0.079 0.113668,0.15794 0.159135,0.23691 0.02273,0.0455 0.05624,0.079 0.07897,0.12443 l 0.08974,0.12444 c 0.564749,0.82199 1.140266,1.63801 1.725356,2.44565 0.315876,0.44031 0.642521,0.89139 0.969167,1.33051 0.270409,0.37211 0.540818,0.73345 0.801656,1.0936 0.12324,0.16871 0.246479,0.33861 0.382881,0.50732 l 0.642521,0.84593 c 0.135205,0.1687 0.258445,0.34937 0.405614,0.51808 0.203406,0.27041 0.416383,0.53005 0.619789,0.80046 0.112471,0.14717 0.224942,0.29314 0.33861,0.42835 0.224942,0.29314 0.461849,0.57552 0.687988,0.86866 0.145974,0.18067 0.281178,0.36015 0.428348,0.53005 0.203405,0.24768 0.405614,0.50732 0.619788,0.75499 0.145973,0.18067 0.293143,0.34938 0.439116,0.51809 0.203406,0.25964 0.428348,0.50731 0.642522,0.76696 0.14717,0.18067 0.305108,0.36134 0.463046,0.54081 0.203406,0.24888 0.416383,0.49655 0.630557,0.74423 0.33861,0.40681 0.687989,0.80046 1.037367,1.18454 0.349379,0.39484 0.733456,0.82319 1.105568,1.23957 0.370916,0.40562 0.765762,0.8567 1.160607,1.27428 0.394846,0.42834 0.777727,0.84592 1.172572,1.26231 0.394846,0.41758 0.789692,0.83515 1.195306,1.25154 8.318083,8.6531 17.635244,16.28678 27.756456,22.73952 l 0.236907,0.14717 0.811229,0.50732 c 15.213524,9.58637 31.999252,16.41481 49.584249,20.16943 l 0.81122,0.16871 0.74423,0.14717 c 0.53005,0.10051 1.04813,0.21417 1.57818,0.31468 0.25965,0.0562 0.53005,0.1017 0.7897,0.14717 l 0.40561,0.067 0.40561,0.0682 0.83397,0.14598 0.2034,0.0347 0.29314,0.0562 c 0.30392,0.0562 0.60902,0.1017 0.9237,0.15794 l 1.11634,0.17947 1.1283,0.16991 1.12711,0.1687 c 0.37211,0.0562 0.75499,0.10171 1.1271,0.15794 l 1.12711,0.14717 0.71072,0.0897 0.73226,0.0897 c 0.21417,0.0227 0.44031,0.0562 0.65448,0.079 0.46185,0.0562 0.91294,0.1017 1.37479,0.14717 l 0.99309,0.1017 0.59706,0.0562 0.83396,0.079 c 1.99935,0.18307 4.0035,0.32186 6.00883,0.41639 0.93926,0.049 1.87851,0.0873 2.81896,0.11366 h 0.37211 l 1.71339,0.0335 h 4.39715 c 0.58629,0 1.1618,-0.0227 1.74809,-0.0335 h 0.12324 c 0.59825,-0.012 1.18454,-0.0347 1.78159,-0.0574 l 0.91293,-0.0335 0.91293,-0.0455 c 0.55279,-0.0215 1.11634,-0.0562 1.66912,-0.0897 0.8232,-0.0455 1.63443,-0.10171 2.45762,-0.15794 1.81749,-0.14239 3.63258,-0.31109 5.44528,-0.50732 0.32664,-0.0335 0.65449,-0.079 0.9919,-0.11247 0.33861,-0.0335 0.66526,-0.079 0.9919,-0.12444 l 0.38408,-0.0443 c 0.31587,-0.0347 0.63055,-0.079 0.93566,-0.12443 0.38288,-0.0455 0.77773,-0.10171 1.16061,-0.15794 l 0.22614,-0.0335 c 0.43911,-0.0682 0.87943,-0.12444 1.33051,-0.20341 l 0.15794,-0.0227 0.85669,-0.13521 0.81123,-0.1352 0.48458,-0.079 h 0.079 c 0.62099,-0.11247 1.22881,-0.21418 1.8498,-0.32665 l 0.11247,-0.0227 1.08163,-0.20341 c 18.00018,-3.36097 35.24896,-9.94053 50.91356,-19.42401 0.28238,-0.1699 0.55279,-0.33861 0.83516,-0.50851 1.21325,-0.74423 2.41693,-1.5076 3.60745,-2.28772 5.20598,-3.40644 10.20138,-7.12158 14.96107,-11.12747 2.44445,-2.06516 3.96999,-5.01932 4.23801,-8.208 0.27041,-3.18628 -0.73107,-6.35343 -2.78426,-8.80506 h -0.0455 z"
   style="fill:#1066df;fill-rule:nonzero;stroke-width:1.1965"
   id="path1" />
        </g>
        <g
   transform="matrix(3.9987,0,0,3.9987,-38.875,0.251891)"
   id="g2">
            <path
   d="m 74.34271,18.080051 c 2.132166,0.0024 4.226045,-0.565946 6.065069,-1.646387 2.393004,-1.389139 4.829082,-2.700506 7.305842,-3.934099 1.581775,-0.784906 3.179106,-1.536309 4.790794,-2.255407 0.271606,-0.124436 0.542015,-0.236907 0.812425,-0.3613433 0.179475,-0.077773 0.360147,-0.1567418 0.552784,-0.235711 0.360147,-0.1579382 0.709526,-0.305108 1.070869,-0.4630463 l 0.80046,-0.3374136 C 96.284165,8.6193084 96.828574,8.3979556 97.375375,8.1813887 L 97.995163,7.9325162 99.021762,7.526902 c 0.247676,-0.1017027 0.495352,-0.1914403 0.743028,-0.281178 1.17257,-0.4403127 2.34514,-0.8566955 3.54045,-1.2635062 L 104.004,5.7465069 c 1.39392,-0.4678323 2.79622,-0.9117346 4.2057,-1.3305103 l 0.69876,-0.2034054 c 1.82347,-0.5276574 3.65771,-1.0170268 5.50152,-1.4657151 l 0.60901,-0.1459732 0.71073,-0.1699033 0.48458,-0.1124712 0.51809,-0.1244362 c 0.33861,-0.078969 0.68798,-0.1579383 1.02659,-0.2249424 0.51809,-0.1124712 1.03737,-0.2249424 1.56623,-0.3266451 l 0.86866,-0.1699033 c 1.17257,-0.2249424 2.34514,-0.4391163 3.51771,-0.64252164 0.56356,-0.0897377 1.13788,-0.19144033 1.70263,-0.27040947 0.57432,-0.0897377 1.14983,-0.1687068 1.74689,-0.25964096 l 0.12443,-0.021537 c 0.83397,-0.1148642 1.66793,-0.22494239 2.50309,-0.32784157 l 1.75766,-0.20340536 c 0.58628,-0.0670041 1.17257,-0.12323972 1.75886,-0.16751029 0.58628,-0.0574321 1.17257,-0.10170268 1.77082,-0.14716976 0.37211,-0.0227335 0.74422,-0.0562356 1.10437,-0.0789691 l 2.22071,-0.13520474 c 0.37211,-0.0227335 0.74422,-0.0335021 1.10557,-0.0562356 0.22494,0 0.43911,-0.02393 0.66525,-0.02393 l 0.60783,-0.021537 0.69995,-0.0227335 0.69876,-0.0227335 c 0.47381,-0.011965 0.94643,-0.021537 1.40948,-0.021537 h 1.66792 c 5.32204,0 10.64289,0.32664507 15.91946,0.99190024 1.11634,0.13520474 2.23148,0.29314301 3.34781,0.46184981 0.23691,0.0335021 0.48459,0.0789691 0.73346,0.1124712 l 1.22881,0.20340535 0.2369,0.0442706 0.20221,0.0346986 c 0.30511,0.0562356 0.62099,0.10170268 0.9249,0.15793829 l 0.30391,0.056236 0.40681,0.078969 0.40562,0.078969 0.76576,0.1459733 c 0.2716,0.045467 0.54201,0.1017027 0.80046,0.1579383 l 0.21537,0.045467 c 0.60782,0.1244363 1.2288,0.259641 1.83663,0.3948457 l 0.56355,0.1232398 c 0.42954,0.090934 0.84593,0.1914403 1.27427,0.293143 0.49655,0.1136677 0.99191,0.2369074 1.48845,0.3613436 0.46185,0.1124712 0.9249,0.2369074 1.38675,0.3493786 l 0.49655,0.1352048 0.52885,0.1352047 h 0.0227 c 0.33861,0.089738 0.67722,0.1794753 1.00386,0.2704095 0.0455,0 0.0897,0.022734 0.13521,0.033502 0.15793,0.045467 0.31587,0.090934 0.46184,0.1352048 0.21418,0.057432 0.42835,0.1244362 0.64253,0.1806718 l 0.53005,0.1471697 c 0.24767,0.067004 0.49655,0.1459733 0.74422,0.2141739 l 0.58629,0.1794753 0.53005,0.1591348 0.24767,0.077773 h 0.0227 l 0.30391,0.090934 0.64372,0.2034054 0.40561,0.1232397 0.53005,0.1687068 c 0.31468,0.1017027 0.61979,0.2034053 0.93567,0.305108 0.47261,0.1579383 0.94643,0.3266451 1.42024,0.4845834 2.08551,0.7322593 4.15306,1.5135751 6.20028,2.3451441 l 0.69876,0.293143 c 0.50851,0.2141739 1.01583,0.4175792 1.52314,0.6425216 1.73373,0.7406354 3.40644,1.6152784 5.00497,2.6155544 14.85936,9.323144 21.16134,28.388208 14.03617,45.006426 -3.7965,8.833775 -10.94919,15.808186 -19.8763,19.379745 -8.9271,3.571558 -18.91909,3.449515 -27.75645,-0.338611 -6.84878,-2.932626 -14.20846,-4.486882 -21.65789,-4.57662 h -0.0215 c -2.16089,-0.02273 -4.32177,0.07897 -6.47188,0.303911 -0.96917,0.101703 -1.92757,0.236908 -2.89793,0.382881 -0.42835,0.0682 -0.86747,0.14717 -1.29581,0.226139 l -0.38288,0.067 c -0.15794,0.0347 -0.32785,0.05624 -0.48578,0.09093 -0.23691,0.04547 -0.48459,0.08974 -0.72149,0.145974 h -0.0443 c -0.25965,0.0682 -0.50732,0.124436 -0.76696,0.180671 l -0.60902,0.14717 -0.36015,0.08974 -0.58629,0.145973 c -0.18067,0.04547 -0.37211,0.101703 -0.55278,0.14717 l -0.38288,0.101703 c -0.77892,0.214173 -1.55665,0.451081 -2.32241,0.698757 -0.30511,0.101702 -0.62099,0.203405 -0.9249,0.303911 l -0.46185,0.157939 c -0.15793,0.05624 -0.3051,0.101702 -0.46304,0.169903 l -0.45108,0.16751 c -0.45109,0.169903 -0.91294,0.33861 -1.35205,0.519282 -2.2566,0.902163 -4.45219,1.950298 -6.57358,3.134836 -0.13521,0.07897 -0.28118,0.157938 -0.41639,0.236907 -0.28237,0.157938 -0.56355,0.326645 -0.84592,0.484583 -0.28238,0.168707 -0.55279,0.326645 -0.83397,0.507317 -0.26083,0.162724 -0.52047,0.327842 -0.77772,0.495352 l -0.67722,0.440313 c -0.15794,0.101703 -0.30391,0.203405 -0.46185,0.303911 -0.0897,0.05624 -0.17589,0.117258 -0.25964,0.180672 -0.0897,0.0682 -0.21418,0.145973 -0.32665,0.224943 -0.11247,0.08017 -0.25964,0.180671 -0.38288,0.271606 -0.25964,0.179475 -0.51928,0.360147 -0.76696,0.551587 -0.24767,0.180672 -0.51928,0.382881 -0.77772,0.574321 -0.12444,0.09093 -0.24888,0.192637 -0.38408,0.282375 -2.68974,2.071145 -5.18444,4.383983 -7.45182,6.910996 l -0.0682,0.0682 c -0.19144,0.214174 -0.38288,0.428348 -0.57432,0.65329 -0.18067,0.203406 -0.36134,0.418776 -0.54082,0.631754 l -0.2034,0.236907 c -0.22494,0.270409 -0.45108,0.540819 -0.66526,0.811228 -0.079,0.09094 -0.14597,0.180672 -0.21417,0.271606 -0.19144,0.236908 -0.37211,0.472619 -0.55278,0.709526 -0.13521,0.169903 -0.25845,0.33861 -0.393653,0.507317 -0.361344,0.473815 -0.710723,0.94763 -1.049333,1.432213 v 0.01077 c -2.547353,3.615829 -4.654393,7.521219 -6.279243,11.634789 0,0.0227 -0.01197,0.0347 -0.02273,0.0562 l -0.203406,0.50731 -0.19144,0.49655 c -0.04427,0.12444 -0.101703,0.25964 -0.145973,0.39485 -0.04547,0.12324 -0.112472,0.31587 -0.169904,0.48458 -0.067,0.19144 -0.134008,0.39485 -0.203405,0.58629 -0.067,0.2034 -0.134008,0.41758 -0.202209,0.61978 -2.992452,8.98454 -3.648135,18.58408 -1.904831,27.89167 0.05623,0.33861 0.124436,0.66525 0.203405,1.00386 1.398711,6.98997 4.126736,13.64611 8.038101,19.60588 l 0.315877,0.48459 c 3.991524,6.0184 9.119734,11.19926 15.095064,15.2542 0.19144,0.12324 0.38408,0.25845 0.57552,0.38288 7.44823,4.98343 15.98647,8.10391 24.89323,9.09821 l 0.64252,0.067 0.57432,0.0574 0.27161,0.0215 c 3.57275,0.31588 7.16944,0.29314 10.74339,-0.0897 0.1352,-0.0108 0.28237,-0.0335 0.41758,-0.0562 h 0.0335 c 7.44464,-0.83397 14.64997,-3.14082 21.19484,-6.78656 1.38315,-0.77534 2.60119,-1.81271 3.58591,-3.05587 0.98353,-1.24795 1.711,-2.67658 2.14174,-4.20571 0.42835,-1.53271 0.56356,-3.12287 0.37212,-4.70105 -0.18666,-1.57699 -0.68081,-3.10134 -1.45495,-4.48689 -0.77533,-1.38554 -1.81749,-2.60358 -3.06544,-3.58472 -1.24675,-0.98591 -2.67538,-1.71339 -4.2057,-2.14173 -1.52674,-0.43433 -3.12527,-0.56116 -4.70106,-0.37212 -1.57819,0.19144 -3.10014,0.67603 -4.48688,1.45375 -5.88799,3.27244 -12.65421,4.62089 -19.34625,3.85633 l -0.35057,-0.0455 c -0.20221,-0.0227 -0.40562,-0.0562 -0.60782,-0.079 -0.20341,-0.0335 -0.42835,-0.0562 -0.65449,-0.1017 -0.26802,-0.0431 -0.53484,-0.0921 -0.80046,-0.14597 -0.41519,-0.079 -0.82918,-0.16871 -1.23958,-0.27041 -0.12443,-0.0227 -0.2369,-0.0574 -0.34938,-0.079 l -0.40681,-0.1017 c -0.1352,-0.0347 -0.25844,-0.0682 -0.40561,-0.10171 l -0.40562,-0.11247 c -0.11247,-0.0347 -0.22494,-0.0682 -0.33861,-0.1017 l -0.43911,-0.1352 c -0.25964,-0.079 -0.51928,-0.16871 -0.77773,-0.24768 -0.12443,-0.0455 -0.25964,-0.0909 -0.38408,-0.1364 -0.25844,-0.0897 -0.51808,-0.19144 -0.76576,-0.28118 -0.38288,-0.14717 -0.76217,-0.30152 -1.13907,-0.46185 l -0.29314,-0.12444 -0.30511,-0.1352 -0.30391,-0.14717 -0.47381,-0.22494 c -4.86498,-2.37985 -9.05752,-5.93824 -12.19834,-10.34975 l -0.27041,-0.40561 c -0.0897,-0.13521 -0.18067,-0.25964 -0.25964,-0.38408 -0.0897,-0.1352 -0.15794,-0.23571 -0.22495,-0.34938 -3.26764,-5.06958 -5.06359,-10.94799 -5.18564,-16.97836 v -1.0601 c 0,-0.15794 0,-0.33742 0.0108,-0.51809 0.0108,-0.1687 0.0108,-0.33861 0.0227,-0.51808 0,-0.12444 0,-0.24888 0.0227,-0.37211 l 0.0215,-0.37212 c 0.0227,-0.30511 0.0455,-0.60902 0.079,-0.90216 0.012,-0.1352 0.0227,-0.25964 0.0455,-0.39485 0.0227,-0.2369 0.0562,-0.47381 0.0909,-0.72149 0.0215,-0.18067 0.0443,-0.36134 0.0778,-0.54082 l 0.0682,-0.40561 c 0.0455,-0.24887 0.079,-0.49655 0.13521,-0.74422 0.0455,-0.24888 0.0897,-0.47382 0.1352,-0.71073 0.0562,-0.2369 0.11247,-0.51808 0.16871,-0.77772 0.0455,-0.16871 0.079,-0.33861 0.12443,-0.51928 0.0335,-0.13521 0.0682,-0.25845 0.10171,-0.40562 l 0.2369,-0.84473 c 0.36015,-1.17257 0.77773,-2.33437 1.26231,-3.46148 0.70714,-1.64998 1.55187,-3.23773 2.52582,-4.74652 0.12324,-0.20341 0.28118,-0.44032 0.43911,-0.65449 0.0909,-0.14597 0.20341,-0.28118 0.29315,-0.41638 0.15794,-0.22614 0.31587,-0.44032 0.47381,-0.65449 l 0.24768,-0.33741 c 0.0909,-0.12444 0.18067,-0.23691 0.27041,-0.34938 0.11367,-0.14717 0.22614,-0.29314 0.35057,-0.44031 0.11247,-0.14598 0.23571,-0.29315 0.34938,-0.42835 l 0.36015,-0.41758 c 0.2034,-0.24768 0.42835,-0.48458 0.65449,-0.72149 l 0.0443,-0.0443 c 0.24887,-0.27161 0.49654,-0.53005 0.75619,-0.78969 0.19144,-0.20341 0.39364,-0.39485 0.60782,-0.58629 l 0.15794,-0.14597 c 1.23479,-1.16181 2.55812,-2.2255 3.95803,-3.18031 0.27041,-0.17947 0.54081,-0.36014 0.80046,-0.52885 0.1352,-0.0909 0.27041,-0.18067 0.42834,-0.27161 0.15794,-0.1005 0.31588,-0.2022 0.47262,-0.29314 0.15794,-0.0897 0.31588,-0.19144 0.48578,-0.281181 1.69305,-0.959594 3.46507,-1.770823 5.29811,-2.424113 l 0.78969,-0.270409 c 0.18068,-0.05624 0.34938,-0.112472 0.53005,-0.168707 0.17948,-0.05743 0.34938,-0.101703 0.52886,-0.157938 0.18067,-0.04547 0.36134,-0.101703 0.54201,-0.14717 0.18068,-0.04427 0.34938,-0.08974 0.51809,-0.135205 0.38408,-0.08974 0.76696,-0.180672 1.14984,-0.259641 l 0.49655,-0.100506 0.37211,-0.0682 0.38288,-0.067 c 0.24768,-0.04547 0.48458,-0.07897 0.73346,-0.113668 h 0.0215 c 1.53033,-0.224942 3.07621,-0.337413 4.62329,-0.337413 h 0.53005 c 4.19374,0.07897 8.31928,0.969167 12.1756,2.615553 25.0739,10.755358 54.37504,3.325078 71.26367,-18.073164 8.35278,-10.59024 12.93777,-23.670401 13.02153,-37.158569 V 42.973277 C 242.14615,31.106369 238.69424,19.484744 232.17928,9.5669381 225.66553,-0.35206431 216.3699,-8.134114 205.459,-12.800472 c -0.39365,-0.16751 -0.77773,-0.337414 -1.17257,-0.495352 -0.40083,-0.159135 -0.79927,-0.324252 -1.19411,-0.496548 -0.59825,-0.247676 -1.18454,-0.484584 -1.79356,-0.721491 -0.59705,-0.236908 -1.19411,-0.473815 -1.79236,-0.698757 l -0.97993,-0.370916 c -0.32545,-0.125633 -0.6521,-0.246479 -0.98114,-0.361344 -0.29314,-0.101702 -0.57551,-0.21537 -0.86866,-0.315876 l -0.77772,-0.282375 -1.20608,-0.416382 c -0.83396,-0.282375 -1.66912,-0.564749 -2.51385,-0.835159 l -0.57552,-0.19144 -0.68798,-0.224943 -1.03737,-0.327841 -0.69876,-0.214174 -0.61979,-0.179475 -0.87943,-0.259641 -1.76962,-0.507317 c -0.40442,-0.113668 -0.81123,-0.22255 -1.21804,-0.326645 l -1.14984,-0.305108 h -0.0455 l -0.24767,-0.06701 c -0.66526,-0.169903 -1.31855,-0.33861 -1.9838,-0.496548 l -0.67722,-0.157938 -0.7885,-0.19144 c -0.40561,-0.08974 -0.78969,-0.179476 -1.18454,-0.27041 l -0.0897,-0.02273 -1.18334,-0.25964 c -0.8232,-0.179476 -1.64639,-0.349379 -2.46958,-0.518086 l -0.72149,-0.135205 -1.04814,-0.203405 c -0.23691,-0.04547 -0.47382,-0.08974 -0.69876,-0.135205 l -1.00386,-0.179475 -0.36135,-0.0682 c -0.78849,-0.135204 -1.57818,-0.259641 -2.36668,-0.394845 -0.82917,-0.135205 -1.65955,-0.258445 -2.49231,-0.370916 l -0.9919,-0.136401 -0.56355,-0.0682 c -0.067,0 -0.13521,-0.02154 -0.20341,-0.02154 l -0.33741,-0.04547 -0.33861,-0.04547 -0.65329,-0.07897 -0.45108,-0.05624 -0.86867,-0.101702 -0.2704,-0.0335 c -0.34938,-0.0335 -0.69876,-0.07897 -1.06011,-0.112471 l -0.97993,-0.08974 -0.33861,-0.0347 -0.96917,-0.08974 c -0.38407,-0.0335 -0.76696,-0.0682 -1.15103,-0.09093 -1.73732,-0.132811 -3.47823,-0.238104 -5.21914,-0.31468 h -0.39485 l -0.22494,-0.01197 -0.84593,-0.0335 -1.19531,-0.0335 c -0.88301,-0.02034 -1.76603,-0.0359 -2.64905,-0.04547 h -2.59282 c -0.37211,0 -0.73346,0 -1.10557,0.01197 -0.37211,0.01077 -0.70953,0.01077 -1.0589,0.02154 -0.35058,0 -0.69996,0.01197 -1.0601,0.02393 -0.50732,0.01077 -1.0266,0.03231 -1.53392,0.05504 l -0.8902,0.0347 -0.40561,0.02154 -0.66526,0.0347 -0.86866,0.04427 -0.78849,0.04547 h -0.11247 c -6.95647,0.439116 -13.86746,1.352047 -20.68872,2.73999 l -0.24768,0.04427 c -0.55278,0.113668 -1.10437,0.236908 -1.66912,0.349379 l -0.0897,0.02393 c -0.24767,0.05504 -0.49654,0.100506 -0.74422,0.156742 -2.44685,0.542015 -4.86976,1.13907 -7.28311,1.79236 -12.12894,3.313114 -23.800818,8.119463 -34.746419,14.3077721 l -1.184537,0.6760237 -0.472619,0.2704094 -0.203405,0.1244363 -0.203405,0.1232397 c -2.214726,1.4023004 -3.912562,3.4890001 -4.835065,5.9418294 -0.922503,2.4516328 -1.028992,5.13778 -0.305108,7.6552205 0.735848,2.5126539 2.262585,4.7237899 4.351678,6.3019769 2.097468,1.5734 4.650803,2.420523 7.27234,2.413344 h 0.01197 z"
   style="fill:#1066df;fill-rule:nonzero;stroke-width:1.1965"
   id="path2" />
        </g>
        <g
   transform="matrix(3.9987,0,0,3.9987,-38.875,0.251891)"
   id="g3">
            <path
   d="m 55.841198,73.132309 -0.101703,0.168707 c -5.567324,9.070682 -9.710811,18.941824 -12.288077,29.267634 -0.01196,0.0562 -0.0335,0.11247 -0.04547,0.16871 l -0.168707,0.71072 c -0.02273,0.11247 -0.05623,0.23691 -0.07897,0.34938 -0.05624,0.22494 -0.101702,0.45108 -0.157938,0.67602 -2.994845,12.97128 -3.484214,26.39604 -1.442982,39.55038 0.02273,0.11247 0.0335,0.22494 0.04547,0.33742 0.05863,0.33382 0.114864,0.66884 0.168706,1.00386 l 0.02273,0.11247 c 0,0 0,0.0562 0.01196,0.0897 2.419327,14.26829 7.770085,27.88209 15.714859,39.97872 l 0.203405,0.31468 c 0.765761,1.16181 1.555453,2.30088 2.366681,3.42798 0.305108,0.42835 0.620985,0.84593 0.924896,1.26231 16.548821,22.27887 41.294882,37.08678 68.749812,41.13933 l 0.14598,0.0227 0.68799,0.1017 h 0.1017 l 0.56355,0.0897 h 0.12324 l 0.60902,0.0897 c 8.26903,1.04454 16.63377,1.09838 24.91596,0.15793 l 0.53005,-0.067 c 0.16871,-0.0227 0.33861,-0.0455 0.50732,-0.0562 l 0.71072,-0.0909 0.1352,-0.0227 h 0.0897 l 0.15794,-0.0335 0.66525,-0.0897 0.23691,-0.0347 c 0.40562,-0.0562 0.7885,-0.11247 1.17257,-0.16871 h 0.0108 c 17.38159,-2.68256 33.80837,-9.70483 47.75719,-20.41711 1.27427,-0.9584 2.34275,-2.16208 3.1456,-3.54045 0.80405,-1.37957 1.32932,-2.90391 1.54469,-4.48688 0.43911,-3.19347 -0.42237,-6.4324 -2.39062,-8.98573 -0.97514,-1.26471 -2.18959,-2.326 -3.57395,-3.12287 -1.38435,-0.79807 -2.91348,-1.31137 -4.49884,-1.50999 -1.58537,-0.2046 -3.19467,-0.0897 -4.73456,0.33741 -1.53751,0.42955 -2.9769,1.15343 -4.23921,2.13097 -8.5526,6.56401 -18.3364,11.34524 -28.77109,14.0589 -0.1352,0.0335 -0.27041,0.0562 -0.40561,0.0897 -2.63949,0.67363 -5.31128,1.21206 -8.0046,1.61289 h -0.11367 c -0.31468,0.067 -0.63056,0.1017 -0.94643,0.14597 l -0.34938,0.0455 c -3.45789,0.44988 -6.94211,0.67602 -10.42872,0.67602 h -0.0227 c -7.44463,0 -14.85457,-1.0278 -22.01803,-3.05467 l -0.067,-0.0227 c -0.55757,-0.16033 -1.11395,-0.32545 -1.66912,-0.49536 -0.82081,-0.25006 -1.63682,-0.51688 -2.44685,-0.80046 l -1.25154,-0.44031 -0.54082,-0.2034 -0.15794,-0.0562 c -0.31588,-0.11247 -0.63056,-0.23691 -0.94643,-0.36015 l -0.27041,-0.1017 -0.47382,-0.19144 -0.12443,-0.0455 h -0.0227 c -0.31468,-0.12443 -0.63055,-0.24767 -0.94643,-0.38288 l -0.23691,-0.1017 -0.25964,-0.11247 c -0.47262,-0.20341 -0.93566,-0.40561 -1.40948,-0.60902 l -0.38288,-0.16871 C 98.291896,195.29876 86.676253,185.48864 78.311507,173.13236 l -0.203405,-0.29314 -0.349379,-0.52885 -0.305108,-0.47382 C 69.137925,158.9598 64.641471,143.98557 64.488318,128.65719 v -1.03737 c 0,-0.41758 0,-0.83516 0.01196,-1.25154 v -0.10171 c 0.0335,-1.57818 0.112471,-3.1456 0.236908,-4.70105 0.01077,-0.16871 0.02273,-0.33861 0.04427,-0.49655 0,-0.079 0.01197,-0.15794 0.02393,-0.23691 0.75619,-8.46046 2.847675,-16.74863 6.199078,-24.554615 1.496824,-3.496179 3.237734,-6.88228 5.20957,-10.134372 0.07897,-0.136402 0.168707,-0.282375 0.247676,-0.418776 1.438195,-2.316428 2.992452,-4.558673 4.656786,-6.718359 4.287067,-5.587665 9.286053,-10.590241 14.870128,-14.882094 1.646387,-1.269488 3.34183,-2.473169 5.083936,-3.607453 1.48964,-0.963185 3.0092,-1.880902 4.55508,-2.751955 8.65909,-4.843441 18.1306,-8.064424 27.9479,-9.50262 3.81325,-0.540819 7.66,-0.812425 11.51154,-0.812425 h 0.0227 c 0.29314,0 0.58628,-0.01196 0.89019,-0.0335 h 0.0562 c 10.41435,0.122043 20.70547,2.27814 30.29304,6.347444 0.1699,0.067 0.33861,0.135204 0.50732,0.214174 h 0.0227 c 2.94459,1.274274 6.27924,1.318545 9.25614,0.124436 4.585,-1.827059 7.60856,-6.287619 7.60856,-11.22319 0,-1.538702 -0.29434,-3.064242 -0.86627,-4.492865 -1.19172,-2.975701 -3.51652,-5.36033 -6.45992,-6.628622 h -0.0227 C 168.63656,24.098458 149.0905,21.534354 129.95723,24.35092 l -0.41758,0.06581 -0.66525,0.101702 -0.12324,0.02273 -0.49655,0.07897 c -14.40947,2.322411 -28.17044,7.654024 -40.383136,15.646658 l -0.09093,0.05624 c -0.179476,0.124436 -0.370916,0.236907 -0.552784,0.361343 l -0.562356,0.370916 c -0.124437,0.09093 -0.248873,0.169903 -0.373309,0.260837 -11.269853,7.607361 -20.935197,17.35646 -28.444444,28.692121 -0.145974,0.224942 -0.31468,0.472618 -0.472619,0.709525 l -0.09093,0.136402 -0.484583,0.753796 -0.281178,0.440313 c -0.101703,0.157938 -0.203406,0.315876 -0.293143,0.473815 -0.05624,0.08974 -0.113668,0.179475 -0.169904,0.259641 l -0.203405,0.31468 -0.02154,0.05743 0.01196,-0.02393 z"
   style="fill:#1066df;fill-rule:nonzero;stroke-width:1.1965"
   id="path3" />
        </g>
    </g>
</svg>
