<?xml version="1.0" encoding="UTF-8" standalone="no"?>
<svg
   width="1526.3376"
   height="1526.3306"
   viewBox="0 0 1526.3376 1526.3306"
   version="1.1"
   xml:space="preserve"
   style="clip-rule:evenodd;fill-rule:evenodd;stroke-linejoin:round;stroke-miterlimit:2"
   id="svg3"
   xmlns="http://www.w3.org/2000/svg"
   xmlns:svg="http://www.w3.org/2000/svg"><defs
   id="defs3" />
    <g
   transform="matrix(1.00373,0,0,1.01105,251.36522,245.50831)"
   id="g3">
        <g
   transform="matrix(3.98212,0,0,3.98212,0.583005,2.53258)"
   id="g1">
            <path
   d="m 128.63119,254.82053 c 70.96578,0 128.09763,-57.13185 128.09763,-126.29256 0,-69.162194 -57.13185,-126.2925546 -128.09763,-126.2925546 -70.964291,0 -128.09614222,57.1318506 -128.09614222,126.2925546 0,69.16071 57.13334122,126.29256 128.09614222,126.29256 z"
   style="fill:#46b549;fill-rule:nonzero;stroke-width:1.49056"
   id="path1" />
        </g>
        <g
   transform="matrix(3.98212,0,0,3.98212,0.583005,2.53258)"
   id="g2">
            <path
   d="m 235.93246,262.35683 c 6.88641,6.5242 6.46607,17.66915 -1.43094,22.92488 -74.2957,49.43159 -175.175623,42.18298 -241.1554653,-23.23194 -75.1751357,-74.57295 -75.1751357,-193.649682 0,-268.2226296 C 58.981577,-71.808382 160.81993,-78.884092 235.24531,-28.902479 c 7.54822,5.067919 8.0893,15.703098 1.66049,22.1333936 -5.48528,5.4852778 -14.1693,5.92350375 -20.65326,1.6649607 C 154.36877,-45.739897 70.053491,-38.376508 16.199391,15.477591 -47.549076,77.420985 -47.549076,178.45593 14.996506,240.39932 c 53.864533,53.86453 138.200674,61.22196 200.085944,20.55936 6.50929,-4.27643 15.1963,-3.95894 20.85001,1.39815 z m 27.75283,-27.1253 c 6.52867,6.89237 17.6766,6.5093 22.97258,-1.36983 43.08924,-64.10173 42.9059,-148.728534 -0.54853,-212.654378 -5.09177,-7.490087 -15.67478,-7.990917 -22.07973,-1.587452 -5.51658,5.518071 -5.92947,14.260232 -1.60087,20.751641 34.97163,52.439553 34.91946,120.646299 -0.158,173.962309 -4.29134,6.5242 -3.95596,15.22909 1.41455,20.89771 z"
   style="fill:#46b549;fill-rule:nonzero;stroke-width:1.49056"
   id="path2" />
        </g>
    </g>
</svg>
