<?xml version="1.0" encoding="UTF-8" standalone="no"?>
<svg
   width="4389.6821"
   height="2903.4329"
   viewBox="0 0 4389.6821 2903.4329"
   version="1.1"
   xml:space="preserve"
   style="clip-rule:evenodd;fill-rule:evenodd;stroke-linejoin:round;stroke-miterlimit:2"
   id="svg3"
   xmlns="http://www.w3.org/2000/svg"
   xmlns:svg="http://www.w3.org/2000/svg"><defs
   id="defs3" />
    <g
   transform="matrix(3.98978,0,0,3.98978,1684.7306,939.29721)"
   id="g3">
        <path
   d="m -256.88631,441.21404 c -0.62248,0.15455 -1.27501,0.15455 -1.89749,0 -1.61845,-0.47222 -2.83765,-1.8245 -3.14674,-3.48159 -1.74294,-11.05866 46.27812,-112.78038 68.37828,-152.29708 11.07584,-19.63171 94.011558,-73.83464 149.914497,-100.41236 4.988421,-2.35684 37.3058315,-17.86731 38.2932125,-16.09861 0.9873811,1.76441 -29.1749635,25.23832 -30.7504795,26.57773 -49.171576,39.40508 -137.07854,142.49625 -182.97029,201.14669 -29.22648,37.36593 -34.57122,43.91269 -37.82099,44.56522 z"
   style="fill-rule:nonzero;stroke-width:4.29296"
   id="path1" />
        <path
   d="m 246.40756,-102.72559 c 77.29477,-2.41693 118.00921,19.636008 138.2634,39.280598 16.36477,14.583188 26.23858,35.120714 27.40626,57.0105225 0.52375,29.2565295 -31.14543,38.0270485 -50.08168,43.3288555 -2.55431,0.65253 -5.64095,1.50683 -8.19526,2.356836 13.07636,5.224534 43.07557,14.596068 70.07829,22.975928 112.29957,34.948995 159.82694,52.36554 163.86233,67.48964 0.85859,3.49018 -0.24899,7.18212 -2.88487,9.62482 -6.03161,5.03994 -17.43372,4.18564 -36.45153,0.98309 l -2.75179,-0.45935 c -195.1022,-31.02523 -328.51455,-28.79718 -329.8883,-28.79718 -357.94709,5.43059 -540.92597,264.56231 -601.10041,349.73466 -15.80239,22.45218 -22.09587,31.33003 -27.89137,31.48886 -1.67854,-0.0301 -3.30558,-0.57954 -4.65786,-1.57551 -2.95356,-2.48563 -4.572,-6.2248 -4.35735,-10.07987 -1.30506,-40.38818 83.6741,-279.24424 264.59665,-414.936155 C -82.364565,9.1661509 45.595725,-48.071899 229.75088,-3.0172725 219.22454,-14.30776 213.31313,-29.148526 213.19292,-44.581721 159.10591,-37.515508 62.402668,-45.234252 -6.4564274,-54.20654 -65.65636,-62.127053 -165.69952,-78.225657 -172.12179,-101.0084 c -1.37804,-4.97984 0.65253,-10.34174 13.43696,-17.8072 57.52568,-33.77702 140.096495,-41.10511 140.096495,-41.10511 232.807275,-22.46935 264.995895,57.19512 264.995895,57.19512 z"
   style="fill-rule:nonzero;stroke-width:4.29296"
   id="path2" />
        <path
   d="m -8.0963385,-178.99004 c 0,0 -70.3487525,-41.37556 -59.0110425,-52.36554 11.342003,-10.98998 140.165178,0 224.878181,36.32704 84.713,36.32274 90.07491,76.844 90.07491,76.844 -27.60374,-45.16195 -100.31362,-73.05332 -255.9463415,-60.8055 z M 593.02553,85.391967 c -12.58696,0.39066 -23.6628,0.592429 -40.37959,0.871471 -4.10836,-0.05151 -8.1738,-0.845713 -12.00312,-2.339663 l -107.646,-34.167677 c -3.14674,-0.983088 -23.6027,-7.589955 -21.79107,-10.277349 1.81593,-2.691687 20.64915,-2.550019 23.92897,-2.42123 h 7.27657 c 132.10299,3.863665 209.78842,13.054894 231.84994,27.290353 2.94927,1.644204 4.37453,5.147261 3.40862,8.384153 -1.19345,4.803824 -2.43411,10.234419 -84.64432,12.659942 z m -842.15875,39.284883 c -3.48589,0.66541 -7.09197,0.27905 -10.35462,-1.11617 -5.43919,-2.22804 -8.00208,-6.54247 -13.07636,-13.05489 -13.07207,-15.969816 -18.35671,-34.034596 -14.0938,-46.995045 2.79902,-7.997787 9.59907,-13.969295 17.89307,-15.707945 25.76635,-6.542472 54.80823,3.481592 65.55351,15.707945 8.71471,9.573303 4.72655,12.698579 -6.55106,22.061527 -6.58969,5.499283 -12.83166,11.406397 -18.68726,17.678418 -9.5733,9.71067 -13.05918,17.69987 -20.68348,21.42616 z"
   style="fill-rule:nonzero;stroke-width:4.29296"
   id="path3" />
    </g>
</svg>
