<?xml version="1.0" encoding="UTF-8" standalone="no"?>
<svg
   width="1023.9951"
   height="1024.0007"
   viewBox="0 0 1023.9951 1024.0007"
   version="1.1"
   xml:space="preserve"
   style="clip-rule:evenodd;fill-rule:evenodd;stroke-linejoin:round;stroke-miterlimit:2"
   id="svg1"
   xmlns="http://www.w3.org/2000/svg"
   xmlns:svg="http://www.w3.org/2000/svg"><defs
   id="defs1" />
    <g
   transform="matrix(4.11463,0,0,4.11463,-15.975051,-15.985337)"
   id="g1">
        <path
   d="M 202.026,28.087 223.484,6.629 c 3.658,-3.658 9.599,-3.659 13.258,-10e-4 l 13.257,13.258 c 3.659,3.658 3.658,9.599 0,13.258 V 33.143 L 228.542,54.6 c 15.214,20.643 24.207,46.139 24.207,73.72 0,27.58 -8.993,53.077 -24.202,73.713 l 21.459,21.459 c 3.658,3.658 3.658,9.598 -0.001,13.257 l -13.258,13.258 c -3.658,3.658 -9.598,3.658 -13.256,0 l -21.459,-21.459 c -20.639,15.212 -46.136,24.204 -73.716,24.204 -27.581,0 -53.077,-8.992 -73.715,-24.203 l -21.46,21.46 c -3.658,3.659 -9.598,3.659 -13.257,0 L 6.626,236.751 c -3.658,-3.658 -3.658,-9.598 0,-13.256 l 21.46,-21.46 C 12.875,181.397 3.883,155.9 3.883,128.32 c 0,-27.581 8.992,-53.077 24.204,-73.717 L 6.629,33.145 C 2.971,29.487 2.97,23.546 6.628,19.887 L 19.886,6.63 c 3.658,-3.659 9.599,-3.658 13.258,0 h -10e-4 l 21.459,21.459 c 20.637,-15.21 46.133,-24.202 73.714,-24.202 27.58,0 53.077,8.992 73.71,24.2 z m -73.71,13.297 c 47.981,0 86.935,38.954 86.935,86.936 0,47.981 -38.954,86.935 -86.935,86.935 -47.982,0 -86.936,-38.954 -86.936,-86.935 0,-47.982 38.954,-86.936 86.936,-86.936 z"
   style="fill:#959595"
   id="path1" />
    </g>
</svg>
