<?xml version="1.0" encoding="UTF-8" standalone="no"?>
<svg
   width="1024.0004"
   height="744.7486"
   viewBox="0 0 1024.0004 744.7486"
   version="1.1"
   xml:space="preserve"
   style="clip-rule:evenodd;fill-rule:evenodd;stroke-linejoin:round;stroke-miterlimit:2"
   id="svg1"
   xmlns="http://www.w3.org/2000/svg"
   xmlns:svg="http://www.w3.org/2000/svg"><defs
   id="defs1" />
    <g
   transform="matrix(4.3809,0,0,4.3809,-24.112474,-188.3787)"
   id="g1">
        <path
   d="m 239.246,128 c 0,15.483 -4.148,29.989 -11.375,42.5 -7.474,12.917 -18.208,23.651 -31.125,31.125 -0.449,0.251 -0.885,0.502 -1.334,0.753 -12.194,6.764 -26.224,10.621 -41.153,10.621 H 69.273 L 85.205,170.5 H 37.395 L 53.327,128 h 100.932 l -15.932,42.5 h 15.932 c 19.804,0 36.436,-13.542 41.153,-31.879 0.889,-3.47 1.338,-7.039 1.334,-10.621 0,-23.463 -19.024,-42.5 -42.5,-42.5 H 69.259 L 85.192,43 h 69.054 c 15.483,0 29.989,4.148 42.5,11.375 12.917,7.474 23.651,18.208 31.125,31.125 7.227,12.498 11.375,27.016 11.375,42.5 z M 53.301,128 H 5.504 L 21.436,85.5 h 47.811 z"
   style="fill:#c82020;fill-rule:nonzero"
   id="path1" />
    </g>
</svg>
