<?xml version="1.0" encoding="UTF-8" standalone="no"?>
<svg
   width="1024.0006"
   height="1281.0245"
   viewBox="0 0 1024.0006 1281.0245"
   version="1.1"
   xml:space="preserve"
   style="clip-rule:evenodd;fill-rule:evenodd;stroke-linejoin:round;stroke-miterlimit:2"
   id="svg1"
   xmlns="http://www.w3.org/2000/svg"
   xmlns:svg="http://www.w3.org/2000/svg"><defs
   id="defs1" />
    <g
   transform="matrix(4.67367,0,0,4.67367,-415.15066,-1165.7514)"
   id="g1">
        <path
   d="m 88.827551,432.21815 12.691219,-30.49402 h 13.39691 c -0.35348,-5.40614 -0.52896,-10.63555 -0.52896,-15.68822 0,-6.81628 0.29331,-13.16126 0.88118,-19.03745 H 88.827551 l 12.691219,-30.49401 h 19.91863 c 18.56615,-58.04994 60.40016,-87.07491 125.50202,-87.07491 21.38642,0 41.71618,2.70245 60.98803,8.10734 V 295.964 c -18.09611,-7.87419 -37.3103,-11.81004 -57.6388,-11.81004 -39.01374,0 -64.10286,17.45058 -75.26612,52.35049 h 116.16003 l -12.69121,30.49401 H 167.4429 c -0.58787,3.76036 -0.88118,8.81429 -0.88118,15.15927 0,7.28632 0.23439,13.80804 0.70444,19.5664 h 96.77036 l -12.51448,30.49402 h -77.55743 c 8.34299,21.15203 18.5085,35.87008 30.49402,44.15415 11.98677,8.28533 29.08388,12.42674 51.29382,12.42674 15.86371,0 33.25537,-3.76036 52.175,-11.28108 v 36.13455 c -17.97954,6.58063 -39.36596,9.87095 -64.16052,9.87095 -65.21969,0 -106.46583,-30.43511 -123.73967,-91.30531 z"
   style="fill:#003f20;fill-rule:nonzero;stroke-width:1.25345"
   id="path1" />
    </g>
</svg>
