<?xml version="1.0" encoding="UTF-8" standalone="no"?>
<svg
   width="1023.9973"
   height="1025.9136"
   viewBox="0 0 1023.9973 1025.9136"
   version="1.1"
   xml:space="preserve"
   style="clip-rule:evenodd;fill-rule:evenodd;stroke-linejoin:round;stroke-miterlimit:2"
   id="svg7"
   xmlns="http://www.w3.org/2000/svg"
   xmlns:svg="http://www.w3.org/2000/svg"><defs
   id="defs7" />
    <g
   transform="matrix(16,0,0,16,512.96307,512.95678)"
   id="g7">
        <g
   transform="translate(-32,-32)"
   id="g6">
            <clipPath
   id="_clip1">
                <rect
   x="0"
   y="0"
   width="64"
   height="64"
   id="rect1" />
            </clipPath>
            <g
   clip-path="url(#_clip1)"
   id="g5">
                <g
   transform="matrix(0.632461,0,0,0.64,-188.632,0)"
   id="g4">
                    <g
   id="g3">
                        <g
   id="g2">
                            <g
   id="g1">
                                <path
   d="m 310.12796,80.056062 h 0.0501 l -8.26842,20.037378 H 321.947 l 8.26843,-20.037378 h -0.0501 l 8.26842,-20.037375 h -20.03737 z m 89.21941,-50.093436 c 0,16.580927 -13.47513,30.056061 -30.05606,30.056061 h -30.85756 l 8.51589,-20.037374 h 22.34167 c 5.51028,0 10.01869,-4.508409 10.01869,-10.018687 0,-5.510278 -4.50841,-10.018688 -10.01869,-10.018688 h -13.82579 l 8.31551,-20.037374 h 5.51028 c 16.58093,0 30.05606,13.475134 30.05606,30.056062 z m -72.88595,10.018687 h -20.03737 l -8.26842,20.037374 H 318.193 Z m 14.1534,-40.074749 h -20.03737 l -8.26842,20.037374 h 20.03737 z"
   style="fill:#77bb65;fill-rule:nonzero;stroke-width:1.00187"
   id="path1" />
                            </g>
                        </g>
                    </g>
                </g>
            </g>
        </g>
    </g>
</svg>
