<?xml version="1.0" encoding="UTF-8" standalone="no"?>
<svg
   width="1024"
   height="1057.0321"
   viewBox="0 0 1024 1057.0321"
   version="1.1"
   xml:space="preserve"
   style="clip-rule:evenodd;fill-rule:evenodd;stroke-linejoin:round;stroke-miterlimit:2"
   id="svg1"
   xmlns="http://www.w3.org/2000/svg"
   xmlns:svg="http://www.w3.org/2000/svg"><defs
   id="defs1" />
    <g
   transform="matrix(4,0,0,4,16.000045,16.516145)"
   id="g1">
        <path
   d="m 251.45497,74.171871 c -0.36749,-3.292903 -0.91871,-6.562064 -1.64955,-9.793032 -0.75665,-3.317678 -1.70839,-6.588903 -2.85213,-9.794065 -1.19535,-3.343484 -2.5889,-6.613677 -4.17135,-9.793032 -1.69084,-3.374452 -3.59536,-6.637419 -5.70323,-9.76929 -1.48645,-2.226581 -3.08335,-4.376775 -4.78452,-6.443355 -0.92593,-1.143742 -1.88593,-2.261678 -2.87587,-3.35071 -2.17496,-2.443355 -4.49651,-4.751484 -6.95226,-6.912 -1.09832,-0.999226 -2.22967,-1.960258 -3.39406,-2.881032 -2.07587,-1.679484 -4.23123,-3.258839 -6.45781,-4.732903 -2.77058,-1.8590971 -5.65161,-3.5489035 -8.62554,-5.0611616 -0.40155,-0.2167742 -0.81033,-0.420129 -1.22529,-0.6090323 -3.19278,-1.5886451 -6.48362,-2.9739355 -9.85084,-4.14761287 -3.21755,-1.13548387 -6.4991,-2.08206453 -9.82813,-2.83458063 -6.4671,-1.4492903 -13.07458,-2.180129 -19.70271,-2.1790968 H 20.606968 C 15.285678,-4.132129 10.105807,-2.4051612 5.8518711,0.791742 3.9865808,2.1574194 2.3349679,3.7914839 0.94864534,5.6412904 -2.2658063,9.8621936 -4.0051611,15.024516 -3.9999998,20.330323 V 196.51923 c 0,1.64025 0.071226,3.28051 0.2126451,4.89703 0.2343226,3.29187 0.7380646,6.56 1.5070968,9.76929 1.60516131,6.82426 4.3540645,13.32851 8.1310968,19.2351 0.071226,0.12283 0.1496774,0.24051 0.2374193,0.352 2.2420646,3.52103 4.8402578,6.80258 7.7522578,9.79303 0.58942,0.63277 1.202581,1.2418 1.839484,1.82709 l 0.02271,0.0237 c 3.003871,2.89135 6.296774,5.4658 9.827097,7.68413 0.113548,0.0867 0.231225,0.16516 0.355096,0.23432 3.019355,1.90761 6.196646,3.55406 9.496775,4.92077 3.192774,1.32026 6.487742,2.37832 9.851871,3.16284 3.229935,0.76284 6.516645,1.26452 9.827096,1.49987 h 0.02374 v 0.21058 h 83.690325 v -0.0939 c 1.38323,-0.26116 2.63226,-0.9982 3.52929,-2.08207 0.89497,-1.08077 1.38116,-2.44232 1.3729,-3.84516 0.0134,-1.376 -0.46348,-2.71381 -1.344,-3.77187 -0.61213,-0.768 -1.40593,-1.37084 -2.30916,-1.7569 -0.41909,-0.22916 -0.83509,-0.46349 -1.24903,-0.70297 -1.67123,-0.93419 -3.31458,-1.91794 -4.92594,-2.95226 -1.696,-1.05393 -3.32283,-2.20181 -4.9249,-3.37342 -0.45522,-0.30761 -0.896,-0.63587 -1.32026,-0.98477 -1.22838,-0.91974 -2.42993,-1.87252 -3.60567,-2.85833 -1.08181,-0.89703 -2.14297,-1.8178 -3.18142,-2.76438 -1.48129,-1.33678 -2.912,-2.72723 -4.29007,-4.17032 -0.544,-0.53678 -1.07045,-1.0911 -1.57832,-1.66297 -0.28387,-0.28181 -0.54297,-0.58529 -0.80207,-0.8671 -2.10167,-2.31948 -4.08464,-4.74323 -5.94167,-7.26297 -1.3791,-1.8529 -2.68491,-3.76051 -3.91329,-5.71664 -0.85265,-1.33678 -1.6702,-2.69626 -2.45058,-4.07639 -1.79407,-3.15871 -3.399231,-6.42064 -4.807231,-9.76929 -0.953807,-2.23484 -1.811613,-4.50994 -2.569291,-6.81806 -0.348903,-0.98065 -0.663742,-1.97368 -0.942451,-2.976 -0.497549,-1.61652 -0.938323,-3.24955 -1.320258,-4.89704 -0.400517,-1.62167 -0.754581,-3.25471 -1.06013,-4.89703 -0.601806,-3.23922 -1.034322,-6.50839 -1.296516,-9.79303 -0.09497,-1.19329 -0.165161,-2.38761 -0.211613,-3.584 -0.0671,-1.35019 -0.09806,-2.70142 -0.09394,-4.05368 V 132.88568 H 56.849549 c -1.409033,0.005 -2.775742,-0.48207 -3.863742,-1.37703 -1.084904,-0.89188 -1.820904,-2.13884 -2.077936,-3.51897 -0.323097,-1.59381 0.03613,-3.25162 0.989936,-4.56878 l 0.212645,-0.30451 2.969806,-4.21781 1.790968,-2.53006 2.145032,-3.0462 5.892129,-8.38709 0.988904,-1.40594 6.905806,-9.794064 1.956129,-2.787097 4.926968,-7.005935 4.924903,-6.981162 1.956129,-2.788129 2.969806,-4.217806 3.939097,-5.574194 0.988903,-1.406967 5.915868,-8.387097 3.91226,-5.576258 2.96981,-4.216774 1.93239,-2.741678 c 0.55741,-0.796903 1.29961,-1.446193 2.16258,-1.894193 1.75277,-0.910452 3.84516,-0.910452 5.59793,0 0.86297,0.448 1.60516,1.098322 2.16258,1.894193 l 1.93239,2.741678 2.94606,4.194064 3.936,5.598968 0.98994,1.383226 4.9249,7.004903 0.98994,1.405935 3.93909,5.575226 2.96981,4.217807 1.93239,2.764387 4.94968,7.004903 4.90219,6.982193 1.97987,2.811871 6.90581,9.79303 0.96516,1.3822 5.91587,8.41187 3.9391,5.57522 2.9698,4.21678 0.21161,0.30555 c 0.95381,1.31716 1.31304,2.97496 0.98994,4.56774 -0.21161,1.07561 -0.71019,2.07484 -1.44413,2.88929 -0.73497,0.81755 -1.67742,1.42245 -2.72722,1.74968 -0.58117,0.17238 -1.18504,0.25909 -1.79097,0.25806 h -32.66581 v 29.38013 c -0.003,3.3631 0.69574,6.6911 2.0511,9.76929 0.75045,1.72593 1.70735,3.35484 2.85109,4.84955 2.57033,3.392 5.9613,6.07793 9.85188,7.80284 3.10812,1.35019 6.46296,2.0449 9.85187,2.03871 0.42322,0 0.84851,0 1.27277,-0.0237 2.86658,-0.0289 5.72903,-0.20129 8.57807,-0.51509 3.31148,-0.36542 6.60025,-0.91355 9.85187,-1.64026 3.20722,-0.72361 6.37109,-1.63097 9.47406,-2.71794 h 0.35303 v -0.11664 c 3.36826,-1.17368 6.65807,-2.55897 9.85187,-4.14658 3.328,-1.63613 6.54762,-3.48284 9.63923,-5.52981 h 0.21265 v -0.14142 c 3.46322,-2.29677 6.75612,-4.84129 9.85187,-7.61393 0.74735,-0.65239 1.47819,-1.32439 2.19148,-2.01497 2.71897,-2.57549 5.26865,-5.32232 7.63561,-8.224 0.42426,-0.51613 0.82478,-1.03123 1.22529,-1.57007 2.43407,-3.10503 4.64723,-6.37729 6.62297,-9.79303 0.704,-1.19019 1.37187,-2.40103 2.00258,-3.63148 1.05497,-2.01497 2.02942,-4.07123 2.92232,-6.16258 0.66684,-1.61652 1.29549,-3.24955 1.88594,-4.896 0.58323,-1.60516 1.10968,-3.23097 1.57832,-4.87329 0.92903,-3.22065 1.67639,-6.49084 2.23897,-9.79407 0.55329,-3.24026 0.91561,-6.51045 1.08387,-9.79303 H 252 V 83.940129 c -0.003,-3.264 -0.18477,-6.524903 -0.54503,-9.768258 z"
   style="fill:#3749e7;fill-rule:nonzero;stroke-width:1.03226"
   id="path1" />
    </g>
</svg>
