<?xml version="1.0" encoding="UTF-8" standalone="no"?>
<svg
   width="1024.0004"
   height="1386.4274"
   viewBox="0 0 1024.0004 1386.4274"
   version="1.1"
   xml:space="preserve"
   style="clip-rule:evenodd;fill-rule:evenodd;stroke-linejoin:round;stroke-miterlimit:2"
   id="svg1"
   xmlns="http://www.w3.org/2000/svg"
   xmlns:svg="http://www.w3.org/2000/svg"><defs
   id="defs1" />
    <g
   transform="matrix(4.91778,0,0,4.91778,-1796.7303,-966.58627)"
   id="g1">
        <path
   d="m 365.35395,405.55327 h 34.70402 V 373.96871 H 365.35395 V 340.4345 h 34.70402 V 196.54931 h 75.64695 c 30.41476,0 54.33064,7.66867 71.74763,23.00603 17.417,15.33735 26.1255,36.78366 26.1255,64.3389 0,11.17808 -1.68971,22.16118 -5.06913,32.94932 -3.37941,10.78814 -8.77348,20.53646 -16.18221,29.24496 -7.40872,8.7085 -17.09205,15.6623 -29.04999,20.8614 -11.95794,5.19911 -26.51543,7.79866 -43.67247,7.79866 h -41.7228 v 30.80469 h 38.99327 v 33.53422 h -38.99327 v 39.3832 h -37.82348 v -39.3832 h -34.70402 z m 114.2503,-67.45837 c 10.91812,0 20.01655,-1.7547 27.2953,-5.26409 7.27874,-3.5094 13.06274,-8.1236 17.352,-13.84262 4.28926,-5.71901 7.34374,-11.63299 9.16342,-17.74194 1.81969,-6.10894 2.72953,-11.63299 2.72953,-16.57214 0,-7.5387 -1.75469,-15.33736 -5.26409,-23.39597 -3.50939,-8.05861 -9.22841,-14.81744 -17.15704,-20.2765 -7.92863,-5.45906 -18.65179,-8.18859 -32.16945,-8.18859 H 437.88145 V 338.0949 Z"
   style="fill:#003f20;fill-rule:nonzero;stroke-width:1.35393"
   id="path1" />
    </g>
</svg>
