<?xml version="1.0" encoding="UTF-8" standalone="no"?>
<svg
   width="1023.9959"
   height="1023.9959"
   viewBox="0 0 1023.9959 1023.9959"
   version="1.1"
   xml:space="preserve"
   style="clip-rule:evenodd;fill-rule:evenodd;stroke-linejoin:round;stroke-miterlimit:2"
   id="svg3"
   xmlns="http://www.w3.org/2000/svg"
   xmlns:svg="http://www.w3.org/2000/svg"><defs
   id="defs3" />
    <g
   transform="scale(1.23373)"
   id="g3">
        <g
   transform="scale(0.415)"
   id="g1">
            <path
   d="m 1574.39,1673.38 c 21.4,21.4 32.13,51.29 29.24,81.41 -2.88,30.12 -19.11,57.42 -44.18,74.35 C 1399.6,1936.9 1207.11,2000 1000,2000 c -207.113,0 -399.604,-63.1 -559.278,-171.11 -25.001,-16.88 -41.176,-44.1 -44.055,-74.13 -2.882,-30.03 7.822,-59.83 29.156,-81.16 -0.208,-0.22 -0.204,-0.22 -0.201,-0.23 44.783,-44.78 114.483,-52.88 168.342,-19.56 117.78,73.75 256.991,116.19 406.036,116.19 149.05,0 288.26,-42.44 406.22,-115.9 53.72,-33.23 123.24,-25.15 167.91,19.52 0.25,-0.24 0.25,-0.24 0.26,-0.24 z m 98.99,-1247.769 c 21.4,-21.397 51.29,-32.133 81.41,-29.244 30.12,2.887 57.42,19.11 74.35,44.186 C 1936.9,600.396 2000,792.887 2000,1000 c 0,207.11 -63.1,399.6 -171.11,559.28 -16.88,25 -44.1,41.17 -74.13,44.05 -30.03,2.89 -59.83,-7.82 -81.16,-29.15 -0.22,0.2 -0.22,0.2 -0.23,0.2 -44.78,-44.78 -52.88,-114.49 -19.56,-168.34 C 1727.56,1288.26 1770,1149.05 1770,1000 c 0,-149.045 -42.44,-288.256 -115.9,-406.219 -33.23,-53.722 -25.15,-123.243 19.52,-167.909 -0.24,-0.253 -0.24,-0.257 -0.24,-0.261 z M 171.105,440.722 c 18.786,-27.81 50.234,-44.517 83.795,-44.517 26.809,0 52.547,10.661 71.504,29.618 0.216,-0.208 0.22,-0.204 0.224,-0.201 44.779,44.783 52.88,114.483 19.565,168.342 C 272.438,711.744 230,850.955 230,1000 c 0,149.05 42.438,288.26 115.898,406.22 33.229,53.72 25.147,123.24 -19.52,167.91 0.246,0.25 0.242,0.25 0.238,0.26 -21.396,21.4 -51.282,32.13 -81.402,29.24 -30.12,-2.89 -57.421,-19.11 -74.359,-44.18 C 63.1,1399.6 0,1207.11 0,1000 0,792.887 63.1,600.396 171.105,440.722 Z M 1000,370 c 347.71,0 630,282.294 630,630 0,347.71 -282.29,630 -630,630 -347.706,0 -630,-282.29 -630,-630 0,-347.706 282.294,-630 630,-630 z M 425.611,326.616 c -19.014,-19.013 -29.708,-44.828 -29.708,-71.718 0,-33.66 16.757,-65.201 44.65,-84.043 C 600.396,63.1 792.887,0 1000,0 c 207.11,0 399.6,63.1 559.28,171.105 25,16.889 41.17,44.108 44.05,74.138 2.88,30.03 -7.82,59.828 -29.15,81.161 0.2,0.216 0.2,0.22 0.2,0.224 -44.78,44.779 -114.49,52.88 -168.34,19.565 C 1288.26,272.438 1149.05,230 1000,230 c -149.045,0 -288.256,42.438 -406.219,115.898 -53.722,33.229 -123.243,25.147 -167.909,-19.52 -0.253,0.246 -0.257,0.242 -0.261,0.238 z"
   style="fill:#208e7a"
   id="path1" />
        </g>
        <g
   transform="matrix(2.03201,0,0,2.03201,-1627.21,-1436.95)"
   id="g2">
            <path
   d="m 933.212,926.083 c -5.697,0 -6.52,-7.584 -6.52,-12.96 0,-4.992 1.056,-8.496 3.168,-10.512 2.112,-2.016 4.704,-3.024 7.776,-3.024 h 17.568 v -59.616 c 0,-3.456 1.008,-6.192 3.024,-8.208 2.016,-2.016 4.656,-3.504 7.92,-4.464 3.072,-0.96 6.576,-1.824 10.512,-2.592 3.936,-0.768 7.968,-1.44 12.096,-2.016 4.112,-0.574 8.242,-1.007 12.384,-1.296 4.13,-0.288 8.02,-0.432 11.66,-0.432 23.43,0 41.04,4.8 52.85,14.4 11.81,9.6 17.71,22.656 17.71,39.168 0,15.552 -5.42,28.032 -16.27,37.44 -10.85,9.408 -27.02,14.112 -48.53,14.112 z m 58.568,39.456 v 19.279 c 0,0 -0.662,9.072 -3.788,12.673 -2.778,3.199 -9.652,4.339 -12.916,4.339 -7.104,0 -12.192,-1.35 -15.264,-4.035 -3.072,-2.688 -4.608,-7.104 -4.608,-13.248 v -19.008 l -20.851,0.252 c -4.093,0.049 -6.221,-3.276 -6.797,-5.292 -0.576,-2.016 -0.864,-4.176 -0.864,-6.48 0,-4.416 0.912,-7.536 2.736,-9.36 1.824,-1.824 4.08,-2.736 6.768,-2.736 0,0 98.584,-0.331 120.354,0.408 6.2,0.211 8.2,1.883 9.1,4.92 0.67,2.194 1.01,4.475 1.01,6.768 0,3.84 -0.96,6.72 -2.88,8.64 -1.92,1.92 -4.22,2.88 -6.91,2.88 z m 22.75,-67.392 c 9.99,0 17.76,-1.968 23.33,-5.904 5.57,-3.936 8.35,-9.744 8.35,-17.424 0,-8.064 -2.97,-14.112 -8.93,-18.144 -5.95,-4.032 -14.11,-6.048 -24.48,-6.048 -3.45,0 -7,0.144 -10.65,0.432 -3.65,0.288 -7.106,0.912 -10.37,1.872 v 45.216 z"
   style="fill:#ffffff;fill-rule:nonzero"
   id="path2" />
        </g>
    </g>
</svg>
