<?xml version="1.0" encoding="UTF-8" standalone="no"?>
<svg
   width="1024.1233"
   height="1023.9951"
   viewBox="0 0 1024.1233 1023.9951"
   version="1.1"
   xml:space="preserve"
   style="clip-rule:evenodd;fill-rule:evenodd;stroke-linejoin:round;stroke-miterlimit:2"
   id="svg2"
   xmlns="http://www.w3.org/2000/svg"
   xmlns:svg="http://www.w3.org/2000/svg"><defs
   id="defs2" />
    <g
   transform="matrix(3.99977,0,0,3.99977,0.10300384,0.05499972)"
   id="g2">
        <path
   d="M 255.98775,-0.01375072 170.64958,85.324416 h -56.88411 c -15.707686,0 -28.453055,12.734368 -28.453055,28.442054 0,3.19635 0.533057,6.27668 1.502161,9.14298 1.402151,4.12645 3.736401,7.87585 6.820733,10.95518 5.146553,5.15755 12.265321,8.3549 20.119161,8.3549 l -28.443055,28.44205 c -16.868812,0 -32.597502,-4.90152 -45.843925,-13.34243 -23.752552,-15.16363 -39.49324244,-41.73048 -39.49324244,-71.994734 0,-47.135063 38.20410444,-85.33816672 85.33816744,-85.33816672 z"
   style="fill:#b2fe92;fill-rule:nonzero;stroke-width:1.00011"
   id="path1" />
        <path
   d="m 255.98775,170.66258 c 0,47.13407 -38.2041,85.33717 -85.33817,85.33717 H -0.02575244 L 85.312415,170.66258 h 56.895115 c 15.70768,0 28.44205,-12.73436 28.44205,-28.44205 0,-0.40505 0,-0.80009 -0.021,-1.19413 0,-0.27703 -0.021,-0.53306 -0.043,-0.79909 0,-0.064 0,-0.11701 -0.021,-0.19202 0,-0.17001 -0.021,-0.35103 -0.043,-0.52205 0,-0.14902 -0.021,-0.29803 -0.042,-0.44705 -0.021,-0.15002 -0.032,-0.32003 -0.064,-0.46905 0,-0.096 -0.021,-0.19202 -0.032,-0.27703 -0.032,-0.25603 -0.075,-0.50105 -0.10701,-0.74608 0,-0.021 0,-0.043 -0.021,-0.064 -0.053,-0.32003 -0.10601,-0.62907 -0.18102,-0.9481 -0.006,-0.099 -0.028,-0.19602 -0.064,-0.28803 -0.064,-0.32003 -0.13901,-0.63907 -0.21302,-0.9591 -0.021,-0.064 -0.032,-0.12802 -0.053,-0.19202 -0.077,-0.30004 -0.15901,-0.59807 -0.24502,-0.8951 -0.10801,-0.37604 -0.22503,-0.74908 -0.35204,-1.11912 -0.22402,-0.66007 -0.48005,-1.32114 -0.74608,-1.96021 -0.17702,-0.41705 -0.36504,-0.82909 -0.56506,-1.23613 -0.17902,-0.38705 -0.37104,-0.76709 -0.57506,-1.14113 -0.25603,-0.47905 -0.53306,-0.9481 -0.79909,-1.40615 -0.17702,-0.28403 -0.35804,-0.56406 -0.54406,-0.84209 -0.20102,-0.31403 -0.41404,-0.61906 -0.63907,-0.9161 -0.093,-0.13901 -0.19302,-0.27403 -0.29803,-0.40504 -0.16001,-0.22402 -0.33103,-0.43705 -0.51205,-0.66107 -0.14902,-0.20202 -0.32004,-0.40504 -0.49005,-0.60707 -0.23803,-0.28003 -0.48006,-0.55706 -0.72508,-0.83109 -0.29803,-0.33103 -0.59607,-0.65007 -0.9161,-0.9591 -5.32457,-5.34857 -12.57235,-8.3539 -20.11916,-8.34389 l 28.44205,-28.44306 c 0.55406,0 1.10812,0 1.66218,0.022 0.41605,0 0.83109,0.02 1.25814,0.032 1.12012,0.033 2.23924,0.09301 3.35636,0.180019 0.36204,0.022 0.73508,0.05401 1.09812,0.09701 1.39515,0.106012 2.7913,0.266029 4.16644,0.447048 0.40505,0.05301 0.79909,0.107012 1.20413,0.170019 0.53306,0.07501 1.07612,0.160017 1.60917,0.256027 l 1.11913,0.192021 c 0.085,0.021 0.18101,0.021 0.26602,0.05301 0.49006,0.08601 0.99111,0.182019 1.48116,0.278029 0.61807,0.127014 1.24714,0.266029 1.8652,0.404044 l 0.38304,0.09601 c 0.62907,0.150016 1.26814,0.299032 1.88621,0.459049 0.022,0 0.043,0 0.064,0.02 0.66107,0.171018 1.31114,0.352037 1.96121,0.534057 0.67108,0.191021 1.35315,0.394042 2.01422,0.607065 0.60407,0.18102 1.20413,0.37204 1.80119,0.575062 0.074,0.032 0.15902,0.06401 0.24503,0.08601 0.58606,0.202022 1.18213,0.404044 1.76819,0.628068 0.086,0.022 0.17102,0.06401 0.25603,0.09601 0.61806,0.224024 1.23613,0.448048 1.8442,0.703076 0.65007,0.245026 1.28913,0.512055 1.9282,0.789084 1.31815,0.549059 2.61928,1.139123 3.90042,1.76919 0.58307,0.27903 1.16213,0.567061 1.73719,0.863093 0.61807,0.320034 1.22513,0.628068 1.82219,0.959103 0.60707,0.320034 1.20413,0.660071 1.8012,1.001108 0.59606,0.341036 1.18213,0.693074 1.77919,1.045112 0.54406,0.330035 1.09812,0.660071 1.63017,1.001107 0.054,0.032 0.096,0.06401 0.15002,0.09601 1.14312,0.738079 2.26924,1.502159 3.37736,2.291239 1.11512,0.79209 2.20924,1.61318 3.28236,2.46127 0.49005,0.38404 0.9701,0.76808 1.44915,1.17312 0.086,0.063 0.16002,0.12702 0.24503,0.19102 1.54216,1.27814 3.03932,2.61128 4.48648,3.99643 0.49105,0.48005 0.98111,0.9481 1.47116,1.43916 0.49005,0.49005 0.9591,0.9691 1.43815,1.47015 0.46905,0.49006 0.9271,0.99111 1.39615,1.49216 0.81009,0.8951 1.60918,1.8012 2.37626,2.7283 0.17102,0.19102 0.33103,0.40404 0.49005,0.60706 0.37304,0.44705 0.73608,0.8951 1.09812,1.35315 0.83709,1.05911 1.64718,2.13923 2.42926,3.23935 0.78208,1.10011 0.022,0.022 0.022,0.043 0.40505,0.55406 0.78809,1.11912 1.17213,1.69418 0.38304,0.56506 0.75608,1.14013 1.14012,1.71619 0.36204,0.57506 0.72508,1.14012 1.07612,1.72618 0.064,0.11702 0.13901,0.23403 0.20302,0.34104 0.28703,0.47905 0.57506,0.9591 0.85209,1.44916 0.34104,0.59706 0.68207,1.19312 1.00211,1.80119 0.24502,0.44705 0.49005,0.9061 0.72407,1.36415 0.63207,1.22213 1.23614,2.45926 1.8122,3.70839 0.15902,0.34104 0.31903,0.68208 0.46805,1.03311 0.23502,0.52206 0.45905,1.04512 0.68207,1.57717 0.23503,0.56506 0.46905,1.14013 0.69308,1.70519 0.21302,0.53305 0.42604,1.08711 0.61806,1.63017 0.096,0.24603 0.19202,0.50106 0.27703,0.75708 0.14902,0.39405 0.28803,0.77809 0.41605,1.17213 0.26603,0.77808 0.53206,1.56617 0.76708,2.35525 0.19202,0.57506 0.36204,1.16113 0.52206,1.73719 0.053,0.14902 0.096,0.30903 0.13801,0.45805 0.17102,0.60706 0.33104,1.21513 0.49105,1.82219 0,0.021 0.021,0.043 0.021,0.064 0.14901,0.57506 0.29803,1.16113 0.42604,1.73719 0.20302,0.85209 0.39404,1.72618 0.57606,2.58928 0.10602,0.51205 0.19102,1.02311 0.28703,1.54516 0.10702,0.54406 0.19203,1.08712 0.27703,1.63018 0.064,0.39504 0.12802,0.78908 0.19203,1.19413 0.064,0.47905 0.13901,0.9591 0.19202,1.43815 0.043,0.29903 0.074,0.58606 0.10601,0.88509 0.064,0.50006 0.11801,1.01211 0.17102,1.52317 v 0.022 c 0.075,0.69208 0.13801,1.37415 0.19202,2.06722 0,0.064 0,0.14902 0.021,0.22403 0.053,0.65007 0.085,1.28914 0.11701,1.93921 0,0.085 0,0.18101 0.022,0.27702 0.032,0.62907 0.053,1.25714 0.063,1.88621 v 0.28803 c 0.022,0.68207 0.022,1.36414 0.022,2.04622 z"
   style="fill:#078465;fill-rule:nonzero;stroke-width:1.00011"
   id="path2" />
    </g>
</svg>
