<?xml version="1.0" encoding="UTF-8" standalone="no"?>
<svg
   width="1024.0002"
   height="1355.3036"
   viewBox="0 0 1024.0002 1355.3036"
   version="1.1"
   xml:space="preserve"
   style="clip-rule:evenodd;fill-rule:evenodd;stroke-linejoin:round;stroke-miterlimit:2"
   id="svg1"
   xmlns="http://www.w3.org/2000/svg"
   xmlns:svg="http://www.w3.org/2000/svg"><defs
   id="defs1" />
    <g
   transform="matrix(4.06892,0,0,4.06892,7.7941017,165.65145)"
   id="g1">
        <path
   d="M 249.09077,93.196206 C 254.32669,58.196573 227.67593,39.38116 191.23496,26.830051 l 11.82052,-47.41177 -28.86239,-7.192105 -11.50816,46.162351 C 155.09709,16.497191 147.3041,14.714386 139.56008,12.947463 L 151.1503,-33.519301 122.30512,-40.711405 110.47534,6.6844824 C 104.19515,5.2524145 98.030111,3.8388762 92.045073,2.3512197 L 92.078161,2.204307 52.274086,-7.7341381 44.596244,23.089733 c 0,0 21.414841,4.907678 20.962191,5.210768 11.689485,2.918401 13.801852,10.653156 13.448467,16.785106 L 65.542552,99.09786 c 0.804711,0.205149 1.848983,0.500298 3.00046,0.96089 -0.962211,-0.238238 -1.989277,-0.501622 -3.050754,-0.755741 L 46.618609,174.96569 c -1.430744,3.54973 -5.055914,8.87697 -13.227436,6.8546 0.288531,0.41957 -20.978074,-5.23591 -20.978074,-5.23591 l -14.32862,33.0355 37.559355,9.36139 c 6.988279,1.75104 13.83494,3.58414 20.575718,5.31003 l -11.943605,47.9531 28.8293,7.19342 11.829781,-47.44486 c 7.644754,2.07267 15.312012,4.06194 23.000442,5.96784 l -11.788754,47.2225 28.862384,7.19211 11.94493,-47.8631 c 49.21708,9.31241 86.22584,5.55621 101.80388,-38.95304 12.55243,-35.83876 -0.62471,-56.51109 -26.51972,-69.99133 18.85776,-4.34782 33.06329,-16.75201 36.85258,-42.371734 z M 183.1455,185.65855 c -8.91932,35.83876 -69.26602,16.46481 -88.831883,11.60611 l 15.849363,-63.52982 c 19.56586,4.88253 82.3042,14.54965 72.98252,51.92371 z m 8.92726,-92.981171 c -8.13843,32.600061 -58.36537,16.037311 -74.65944,11.976691 l 14.36965,-57.620215 c 16.29407,4.060614 68.76573,11.639191 60.28979,45.643524 z"
   style="fill:#ef4800;fill-rule:nonzero;stroke-width:1.32354"
   id="path1" />
    </g>
</svg>
