<?xml version="1.0" encoding="UTF-8" standalone="no"?>
<svg
   width="1526.3065"
   height="1525.5531"
   viewBox="0 0 1526.3065 1525.5531"
   version="1.1"
   xml:space="preserve"
   style="clip-rule:evenodd;fill-rule:evenodd;stroke-linejoin:round;stroke-miterlimit:2"
   id="svg2"
   xmlns="http://www.w3.org/2000/svg"
   xmlns:svg="http://www.w3.org/2000/svg"><defs
   id="defs2" />
    <g
   transform="matrix(3.95941,0,0,3.98627,256.89316,252.77557)"
   id="g2">
        <path
   d="m 128.54376,256.01639 c 71.63814,0 129.31298,-57.67485 129.31298,-127.4913 0,-69.816447 -57.67484,-127.489799 -129.31298,-127.489799 -71.636641,0 -129.3114888,57.673352 -129.3114888,127.489799 0,69.81645 57.6748478,127.4913 129.3114888,127.4913 z"
   style="fill:#ef4800;fill-rule:nonzero;stroke-width:1.49564"
   id="path1" />
        <path
   d="m 236.92078,263.63218 c 6.95174,6.5853 6.52847,17.837 -1.44478,23.14203 C 160.47716,336.67473 58.639069,329.35806 -7.9662413,263.32259 -83.85349,188.04257 -83.85349,67.83653 -7.9662413,-7.4434889 58.293576,-73.701811 161.09635,-80.844985 236.2283,-30.388093 c 7.61879,5.118078 8.16619,15.853778 1.67661,22.3448527 -5.53835,5.5368572 -14.30429,5.9795664 -20.84921,1.6796031 C 154.58434,-47.386035 69.47049,-39.952707 15.103997,14.413786 -49.247385,76.943479 -49.247385,178.93562 13.891033,241.46681 68.2665,295.84227 153.40129,303.26962 215.87415,262.22179 c 6.57034,-4.31791 15.33927,-3.99634 21.04663,1.41039 z M 264.93112,236.256 c 6.58979,6.95622 17.84447,6.56885 23.18989,-1.38347 43.49768,-64.70884 43.31372,-150.138266 -0.55339,-214.672115 -5.14051,-7.560458 -15.82386,-8.065984 -22.28951,-1.600335 -5.56976,5.568266 -5.98555,14.394034 -1.61529,20.946431 35.30307,52.938157 35.24923,121.791409 -0.16004,175.613489 -4.33286,6.5853 -3.99335,15.37219 1.42834,21.096 z"
   style="fill:#ef4800;fill-rule:nonzero;stroke-width:1.49564"
   id="path2" />
    </g>
</svg>
