<?xml version="1.0" encoding="UTF-8" standalone="no"?>
<svg
   width="1023.9993"
   height="941.55865"
   viewBox="0 0 1023.9993 941.55865"
   version="1.1"
   xml:space="preserve"
   style="clip-rule:evenodd;fill-rule:evenodd;stroke-linejoin:round;stroke-miterlimit:2"
   id="svg1"
   xmlns="http://www.w3.org/2000/svg"
   xmlns:svg="http://www.w3.org/2000/svg"><defs
   id="defs1" />
    <g
   transform="matrix(4.33898,0,0,4.33898,-34.71184,-112.81348)"
   id="g1">
        <path
   d="m 149.957,142.618 v -0.031 c -1.345,0.093 -8.288,0.499 -23.738,0.499 -12.354,0 -21.017,-0.343 -24.082,-0.499 v 0.031 c -47.506,-2.092 -82.94,-10.335 -82.94,-20.233 0,-9.866 35.465,-18.14 82.94,-20.232 v 32.253 c 3.097,0.219 12.01,0.75 24.301,0.75 14.762,0 22.142,-0.625 23.519,-0.75 v -32.222 c 47.412,2.123 82.753,10.366 82.753,20.233 0,9.866 -35.372,18.109 -82.753,20.232 m 0,-43.806 v -28.85 h 66.146 V 26 H 36.023 v 43.993 h 66.146 v 28.85 C 48.407,101.31 8,111.926 8,124.665 c 0,12.739 40.438,23.355 94.169,25.852 V 243 h 47.819 V 150.517 C 203.655,148.051 244,137.435 244,124.696 244,111.988 203.655,101.341 149.988,98.874"
   style="fill:#26a17b;fill-rule:nonzero"
   id="path1" />
    </g>
</svg>
