<?xml version="1.0" encoding="UTF-8" standalone="no"?>
<svg
   width="1023.9999"
   height="2001.8953"
   viewBox="0 0 1023.9999 2001.8953"
   version="1.1"
   xml:space="preserve"
   style="clip-rule:evenodd;fill-rule:evenodd;stroke-linejoin:round;stroke-miterlimit:2"
   id="svg1"
   xmlns="http://www.w3.org/2000/svg"
   xmlns:svg="http://www.w3.org/2000/svg"><defs
   id="defs1" />
    <g
   transform="matrix(3.12899,0,0,3.12899,-284.3249,-23.735585)"
   id="g1">
        <path
   d="M 265.2748,647.3753 H 206.33243 V 572.59767 H 90.867947 V 95.780298 H 206.33243 V 7.5857019 H 265.2748 V 97.099903 c 31.96377,0.586491 58.79574,5.571667 80.49592,14.955527 h -0.21896 c 16.86163,7.03789 30.42326,19.86641 40.68685,38.48751 4.54531,8.65074 7.99193,17.33863 10.33789,26.06171 2.34596,8.72504 3.51895,17.70617 3.51895,26.94341 0,40.32127 -15.68864,73.23712 -47.06592,98.74948 -3.8122,3.22571 -7.66153,6.19531 -11.54606,8.90685 -3.88648,2.7135 -8.32231,5.60881 -13.30749,8.68789 14.22242,5.1318 27.23666,11.91359 39.03881,20.34343 11.80412,8.43179 22.1029,18.36499 30.90027,29.80157 13.34268,17.59474 20.01499,40.32127 20.01499,68.17961 0,24.19276 -6.15816,46.62605 -18.47447,67.29986 -12.02307,20.38057 -28.73807,36.36246 -50.145,47.94566 -21.55355,11.87645 -49.6328,18.25552 -84.23578,19.13526 z m 0,-356.9542 c 3.37232,-0.87974 6.92842,-2.12506 10.66827,-3.73791 3.73791,-1.61285 7.65958,-3.51894 11.76502,-5.71829 4.69193,-2.49258 9.23724,-6.15815 13.63592,-10.99671 4.39868,-4.83855 8.3575,-10.77775 11.87645,-17.81565 3.51894,-7.18451 6.1953,-14.0015 8.02906,-20.4529 1.83181,-6.4514 2.74869,-12.68385 2.74869,-18.69539 0,-14.8089 -6.08582,-27.34417 -18.25552,-37.60777 -7.03789,-6.89127 -20.52719,-11.80411 -40.46789,-14.73657 z M 206.33243,159.34031 h -38.70842 v 136.14025 h 38.70842 z m 58.94237,350.13526 c 5.1318,-0.29325 10.08178,-0.84259 14.84605,-1.64999 4.76622,-0.80545 9.49333,-1.94129 14.18526,-3.40752 5.1318,-1.61285 9.82373,-3.63038 14.07579,-6.04868 4.25207,-2.42025 8.13855,-5.24127 11.65749,-8.46698 h -0.22091 c 13.19606,-12.75618 19.79408,-28.44482 19.79408,-47.06592 0,-14.22241 -4.10544,-27.786 -12.31631,-40.6888 h 0.22091 c -7.47777,-11.43658 -19.50084,-21.11369 -36.06921,-29.03132 -8.94399,-4.39868 -17.66903,-7.84334 -26.17315,-10.33593 z M 167.62401,358.16083 v 151.53565 h 38.70842 V 358.16083 Z"
   style="fill:#003f20;fill-rule:nonzero;stroke-width:1.95497"
   id="path1" />
    </g>
</svg>
