<?xml version="1.0" encoding="UTF-8" standalone="no"?>
<svg
   width="1024"
   height="1024"
   viewBox="0 0 1024 1024"
   version="1.1"
   xml:space="preserve"
   style="clip-rule:evenodd;fill-rule:evenodd;stroke-linejoin:round;stroke-miterlimit:2"
   id="svg4"
   xmlns="http://www.w3.org/2000/svg"
   xmlns:svg="http://www.w3.org/2000/svg"><defs
   id="defs4" />
    <g
   transform="matrix(4,0,0,4,512,512)"
   id="g4">
        <g
   transform="translate(-128,-128)"
   id="g3">
            <g
   transform="scale(0.128)"
   id="g1">
                <path
   d="m 1574.39,1673.38 c 21.4,21.4 32.13,51.29 29.24,81.41 -2.88,30.12 -19.11,57.42 -44.18,74.35 C 1399.6,1936.9 1207.11,2000 1000,2000 c -207.113,0 -399.604,-63.1 -559.278,-171.11 -25.001,-16.88 -41.176,-44.1 -44.055,-74.13 -2.882,-30.03 7.822,-59.83 29.156,-81.16 -0.208,-0.22 -0.204,-0.22 -0.201,-0.23 44.783,-44.78 114.483,-52.88 168.342,-19.56 117.78,73.75 256.991,116.19 406.036,116.19 149.05,0 288.26,-42.44 406.22,-115.9 53.72,-33.23 123.24,-25.15 167.91,19.52 0.25,-0.24 0.25,-0.24 0.26,-0.24 z m 98.99,-1247.769 c 21.4,-21.397 51.29,-32.133 81.41,-29.244 30.12,2.887 57.42,19.11 74.35,44.186 C 1936.9,600.396 2000,792.887 2000,1000 c 0,207.11 -63.1,399.6 -171.11,559.28 -16.88,25 -44.1,41.17 -74.13,44.05 -30.03,2.89 -59.83,-7.82 -81.16,-29.15 -0.22,0.2 -0.22,0.2 -0.23,0.2 -44.78,-44.78 -52.88,-114.49 -19.56,-168.34 C 1727.56,1288.26 1770,1149.05 1770,1000 c 0,-149.045 -42.44,-288.256 -115.9,-406.219 -33.23,-53.722 -25.15,-123.243 19.52,-167.909 -0.24,-0.253 -0.24,-0.257 -0.24,-0.261 z M 171.105,440.722 c 18.786,-27.81 50.234,-44.517 83.795,-44.517 26.809,0 52.547,10.661 71.504,29.618 0.216,-0.208 0.22,-0.204 0.224,-0.201 44.779,44.783 52.88,114.483 19.565,168.342 C 272.438,711.744 230,850.955 230,1000 c 0,149.05 42.438,288.26 115.898,406.22 33.229,53.72 25.147,123.24 -19.52,167.91 0.246,0.25 0.242,0.25 0.238,0.26 -21.396,21.4 -51.282,32.13 -81.402,29.24 -30.12,-2.89 -57.421,-19.11 -74.359,-44.18 C 63.1,1399.6 0,1207.11 0,1000 0,792.887 63.1,600.396 171.105,440.722 Z M 1000,370 c 347.71,0 630,282.294 630,630 0,347.71 -282.29,630 -630,630 -347.706,0 -630,-282.29 -630,-630 0,-347.706 282.294,-630 630,-630 z M 425.611,326.616 c -19.014,-19.013 -29.708,-44.828 -29.708,-71.718 0,-33.66 16.757,-65.201 44.65,-84.043 C 600.396,63.1 792.887,0 1000,0 c 207.11,0 399.6,63.1 559.28,171.105 25,16.889 41.17,44.108 44.05,74.138 2.88,30.03 -7.82,59.828 -29.15,81.161 0.2,0.216 0.2,0.22 0.2,0.224 -44.78,44.779 -114.49,52.88 -168.34,19.565 C 1288.26,272.438 1149.05,230 1000,230 c -149.045,0 -288.256,42.438 -406.219,115.898 -53.722,33.229 -123.243,25.147 -167.909,-19.52 -0.253,0.246 -0.257,0.242 -0.261,0.238 z"
   style="fill:#208e7a"
   id="path1" />
            </g>
            <g
   transform="matrix(0.49705,0,0,0.49705,-374.924,-322.765)"
   id="g2">
                <path
   d="m 1067.85,899.888 c 2.17,-2.606 4.07,-5.503 5.69,-8.692 3.54,-6.972 5.3,-14.311 5.3,-22.013 v -14.071 c 0,-14.776 -5.77,-26.64 -17.27,-35.611 -10.45,-8.145 -24.03,-12.533 -40.87,-12.81 v -21.938 c 0,-3.994 -3.29,-7.28 -7.28,-7.281 H 994.3 c -3.994,0 -7.281,3.287 -7.281,7.281 v 21.924 h -28.556 c -13.996,0 -25.341,11.346 -25.341,25.341 v 150.535 c 0,7.274 2.397,13.113 6.911,17.627 4.515,4.52 10.354,6.91 17.628,6.91 h 29.358 v 21.93 c 0,4.02 3.26,7.28 7.281,7.28 h 19.12 c 3.99,0 7.28,-3.29 7.28,-7.28 v -21.93 h 11.3 c 17.9,0 32,-5.19 42.46,-15.148 10.61,-10.1 16.07,-23.455 16.07,-40.187 v -12.744 c 0,-10.57 -3.16,-19.806 -9.4,-27.734 -3.7,-4.707 -8.12,-8.508 -13.28,-11.389 z m -11.53,39.123 v 12.744 c 0,6.95 -2.18,12.582 -6.79,16.792 -4.9,4.467 -11.67,6.459 -20.18,6.459 H 967.332 V 921.6 h 67.328 c 6.7,0 12.16,1.552 16.26,5.037 3.65,3.107 5.4,7.256 5.4,12.374 z m -88.988,-48.435 v -51.813 h 51.658 c 7.99,0 14.54,1.602 19.55,5.161 4.01,2.844 6.09,6.543 6.09,11.188 v 14.071 c 0,6.541 -1.72,11.846 -5.52,15.783 -3.71,3.842 -8.69,5.61 -14.81,5.61 z"
   style="fill:#ffffff;fill-rule:nonzero"
   id="path2" />
            </g>
        </g>
    </g>
</svg>
