<?xml version="1.0" encoding="UTF-8" standalone="no"?>
<svg
   width="1024"
   height="421.97952"
   viewBox="0 0 1024 421.97952"
   version="1.1"
   xml:space="preserve"
   style="clip-rule:evenodd;fill-rule:evenodd;stroke-linejoin:round;stroke-miterlimit:2"
   id="svg3"
   xmlns="http://www.w3.org/2000/svg"
   xmlns:svg="http://www.w3.org/2000/svg"><defs
   id="defs3" />
    <g
   transform="matrix(4,0,0,4,511.984,210.492)"
   id="g3">
        <g
   transform="translate(-128,-53)"
   id="g2">
            <clipPath
   id="_clip1">
                <rect
   x="0"
   y="0"
   width="256"
   height="106"
   id="rect1" />
            </clipPath>
            <g
   clip-path="url(#_clip1)"
   id="g1">
                <path
   d="m 65.243,24.033 h 19.278 c 0.902,0 1.63,0.726 1.63,1.625 v 52.923 c 0,0.9 -0.728,1.625 -1.63,1.625 H 65.243 c -0.902,0 -1.63,-0.726 -1.63,-1.625 V 25.658 c 0,-0.899 0.728,-1.625 1.63,-1.625 z m 70.903,-0.939 c 9.514,0 16.779,2.464 21.788,7.394 4.885,4.804 7.324,11.673 7.324,20.595 v 27.49 c 0,0.9 -0.728,1.625 -1.63,1.625 h -19.277 c -0.902,0 -1.63,-0.726 -1.63,-1.625 V 51.456 c 0,-6.43 -4.695,-9.642 -14.084,-9.642 -9.389,0 -14.083,3.218 -14.083,9.642 v 27.117 c 0,0.9 -0.729,1.625 -1.63,1.625 H 93.646 c -0.902,0 -1.63,-0.726 -1.63,-1.625 V 25.651 c 0,-0.9 0.728,-1.626 1.63,-1.626 h 19.278 c 0.901,0 1.63,0.726 1.63,1.626 v 4.647 c 5.004,-4.8 12.203,-7.204 21.592,-7.204 z m 119.858,1.652 c -0.003,-0.88 -0.718,-1.608 -1.598,-1.625 -3.646,-0.098 -11.937,0.623 -17.381,4.312 -1.31,0.888 -2.576,1.793 -3.701,2.87 v 0.011 c -6.427,-4.81 -15.604,-7.22 -27.563,-7.22 -12.269,0 -21.664,2.562 -28.173,7.675 -6.259,4.995 -9.389,12.107 -9.389,21.348 0,9.236 3.13,16.354 9.389,21.348 4.184,3.288 9.563,5.514 16.127,6.69 v 0.005 c 3.814,0.71 8.264,1.073 13.589,1.019 1.504,-0.046 3.006,-0.134 4.504,-0.266 1.179,-0.089 2.354,-0.212 3.526,-0.368 0.702,-0.085 1.403,-0.179 2.103,-0.282 1.585,-0.238 3.085,0.869 3.325,2.454 0.232,1.585 -0.881,3.081 -2.466,3.315 -4.255,0.629 -8.89,1.008 -12.405,1.008 -4.178,0 -8.08,-0.282 -11.698,-0.845 -2.376,-0.362 -4.726,-0.878 -7.036,-1.544 -0.832,-0.239 -1.718,0.224 -1.995,1.045 l -4.759,14.236 c -0.27,0.814 0.147,1.71 0.945,2.026 6.08,2.443 12.915,3.336 19.425,3.694 8.965,0.493 18.626,0.282 27.357,-1.939 2.141,-0.542 4.276,-1.257 6.216,-2.286 1.282,-0.677 2.483,-1.495 3.543,-2.487 2.428,-2.275 3.999,-5.368 4.748,-8.607 1.543,-6.636 0.652,-14.788 -5.803,-18.482 -0.222,-0.125 -0.461,-0.25 -0.706,-0.368 4.787,-4.832 7.183,-11.29 7.183,-19.366 0,-3.597 -0.483,-6.868 -1.429,-9.82 1.614,-0.315 3.45,-0.483 5.521,-0.483 2.531,0 4.721,0.233 6.569,0.705 0.129,0.033 0.262,0.049 0.396,0.049 0.891,0 1.625,-0.734 1.625,-1.625 0,0 0,-10e-4 0,-10e-4 z M 205.761,41.82 c 10.013,0 15.023,3.434 15.023,10.297 0,6.869 -5.01,10.298 -15.023,10.298 -10.02,0 -15.024,-3.435 -15.024,-10.298 0,-6.863 5.004,-10.297 15.024,-10.297 z M 57.75,40.19 V 25.656 c 0,-0.899 -0.727,-1.625 -1.63,-1.625 H 35.218 V 2.011 c 0,-1.11 -1.092,-1.89 -2.146,-1.543 L 13.794,6.887 C 13.131,7.107 12.68,7.731 12.68,8.43 V 24.036 H 1.634 c -0.902,0 -1.63,0.726 -1.63,1.625 V 40.19 c 0,0.899 0.728,1.625 1.63,1.625 H 12.68 v 17.837 c 0,7.8 2.597,13.39 7.792,16.76 4.944,3.18 12.991,4.772 24.135,4.772 4.19,0 8.123,-0.325 11.812,-0.97 0.768,-0.14 1.332,-0.816 1.332,-1.597 V 63.233 c 0,-1.018 -0.93,-1.782 -1.935,-1.593 -2.966,0.553 -5.765,0.824 -8.394,0.824 -4.195,0 -7.2,-0.38 -9.014,-1.127 -2.13,-0.807 -3.19,-2.308 -3.19,-4.49 V 41.814 H 56.12 c 0.903,0 1.63,-0.726 1.63,-1.625 z M 84.521,18.193 H 65.243 c -0.902,0 -1.63,-0.726 -1.63,-1.625 V 2.002 c 0,-0.9 0.728,-1.625 1.63,-1.625 h 19.278 c 0.902,0 1.63,0.726 1.63,1.625 v 14.566 c 0,0.894 -0.733,1.625 -1.63,1.625 z"
   style="fill:#ff9920;fill-rule:nonzero"
   id="path1" />
            </g>
        </g>
    </g>
</svg>
