<?xml version="1.0" encoding="UTF-8" standalone="no"?>
<svg
   width="1023.9999"
   height="1363.3311"
   viewBox="0 0 1023.9999 1363.3311"
   version="1.1"
   xml:space="preserve"
   style="clip-rule:evenodd;fill-rule:evenodd;stroke-linejoin:round;stroke-miterlimit:2"
   id="svg1"
   xmlns="http://www.w3.org/2000/svg"
   xmlns:svg="http://www.w3.org/2000/svg"><defs
   id="defs1" />
    <g
   transform="matrix(4.02784,0,0,4.02784,127.81049,166.14027)"
   id="g1">
        <path
   d="m -31.73177,36.393702 c 0,-12.207309 9.919105,-22.119751 22.1410737,-22.119751 H 95.384166 l 54.351844,-51.855743 c 5.12281,-4.888254 13.29078,-4.888254 18.41358,0 l 54.34918,51.857076 V 218.36124 c 0,12.8843 -10.46817,23.34314 -23.3658,23.34314 H 95.381501 l -54.349179,51.85841 c -5.122806,4.88826 -13.292107,4.88826 -18.414913,0 L -31.73177,241.70305 Z m 163.35006,79.612708 c -2.44946,2.44546 -6.47814,2.44546 -8.9276,0 l -0.004,-0.004 -17.47804,-17.456723 c -5.422656,-5.419992 -14.232975,-5.419992 -19.655632,0 L 68.076309,116.00641 c -2.452123,2.44413 -6.476804,2.44413 -8.928927,0 l -0.004,-0.004 -17.488703,-17.471382 c -5.426655,-5.421325 -14.232976,-5.421325 -19.659631,0 L 2.3354183,118.17068 c -5.4226574,5.41999 -5.4226574,14.21832 0,19.63964 L 21.99505,157.44596 c 5.426655,5.42133 14.232976,5.42133 19.659631,0 l 17.492701,-17.47537 c 2.441462,-2.43613 6.455481,-2.4348 8.894278,0.004 h 0.008 l 17.503362,17.48737 c 5.422657,5.41999 14.232976,5.41999 19.655628,0 l 17.5047,-17.48737 c 2.44546,-2.44013 6.46347,-2.44013 8.90893,0 l 17.49004,17.47137 c 5.42532,5.42133 14.23297,5.42133 19.6583,0 l 19.65963,-19.63564 c 5.42266,-5.42132 5.42266,-14.21965 0,-19.63964 L 168.77062,98.531038 c -5.42533,-5.421325 -14.23298,-5.421325 -19.6583,0 z"
   style="fill:#f1a200;stroke-width:1.33268"
   id="path1" />
    </g>
</svg>
