<?xml version="1.0" encoding="UTF-8" standalone="no"?>
<svg
   width="1024.0006"
   height="1575.6847"
   viewBox="0 0 1024.0006 1575.6847"
   version="1.1"
   xml:space="preserve"
   style="clip-rule:evenodd;fill-rule:evenodd;stroke-linejoin:round;stroke-miterlimit:2"
   id="svg1"
   xmlns="http://www.w3.org/2000/svg"
   xmlns:svg="http://www.w3.org/2000/svg"><defs
   id="defs1" />
    <g
   transform="matrix(4.36557,0,0,4.36557,-904.9917,-1114.9415)"
   id="g1">
        <path
   d="m 314.19615,579.75874 c -30.87046,-1.15406 -55.07043,-8.40313 -72.59682,-21.74719 -17.52793,-13.34253 -28.96087,-33.35863 -34.29726,-60.04676 l 49.33549,-9.52026 c 3.02981,16.5893 9.1602,28.85162 18.39271,36.78543 9.23252,7.93381 22.28884,12.62239 39.16588,14.0642 v -92.18053 c -6.49046,-1.58645 -13.34407,-3.42526 -20.5562,-5.51797 -7.21367,-2.09116 -14.06574,-4.32697 -20.5562,-6.70742 -6.492,-2.38045 -11.82993,-4.79629 -16.0138,-7.24907 -12.83781,-7.35677 -22.46733,-16.44619 -28.88701,-27.26516 -6.41967,-10.81897 -9.62951,-24.23535 -9.62951,-40.24762 0,-23.51368 8.18616,-41.72636 24.56003,-54.63803 16.37387,-12.91168 40.06759,-20.0161 71.08269,-21.31327 v -28.78083 h 24.66928 v 28.78083 c 17.88801,0.86478 33.10627,3.67762 45.65634,8.43852 12.55161,4.7609 22.90126,12.37004 31.05203,22.82894 8.15078,10.4589 14.46274,24.56003 18.93436,42.30339 l -50.63421,8.00613 c -2.45277,-12.83935 -7.21367,-22.792 -14.2827,-29.86103 -7.06749,-7.06903 -17.31097,-11.39601 -30.72582,-12.984 v 82.87723 c 6.49046,1.29871 13.48717,2.95748 20.98859,4.97632 7.50142,2.02039 15.72452,4.61626 24.66775,7.79071 19.6191,7.06749 34.08184,16.91397 43.38667,29.53636 9.30484,12.62239 13.95649,28.59926 13.95649,47.92907 0,25.38943 -8.76319,45.26088 -26.29113,59.6159 -17.52639,14.35349 -43.09739,22.25191 -76.70837,23.69372 v 37.00239 H 314.19615 Z M 268.75524,359.26008 c 0,7.21367 1.37103,13.12864 4.11155,17.74489 3.0298,5.48104 7.60913,9.80955 13.74106,12.98246 6.13039,3.17445 15.32752,6.63664 27.5883,10.38658 v -78.33175 c -30.29343,2.01885 -45.44091,14.42581 -45.44091,37.21782 z m 123.12485,137.62297 c 0,-7.93381 -1.47875,-14.42581 -4.43623,-19.47445 -2.95748,-5.05019 -7.24906,-9.23252 -12.87474,-12.55161 -5.77033,-3.17291 -17.67258,-7.28446 -35.70369,-12.3331 v 86.77027 c 17.45408,-1.15407 30.6535,-5.30101 39.59827,-12.44236 8.94323,-7.13981 13.41639,-17.12939 13.41639,-29.96875 z"
   style="fill:#003f20;fill-rule:nonzero;stroke-width:1.53875"
   id="path1" />
    </g>
</svg>
