<?xml version="1.0" encoding="UTF-8" standalone="no"?>
<svg
   width="1024"
   height="1024"
   viewBox="0 0 1024 1024"
   version="1.1"
   xml:space="preserve"
   style="clip-rule:evenodd;fill-rule:evenodd;stroke-linejoin:round;stroke-miterlimit:2"
   id="svg2"
   xmlns="http://www.w3.org/2000/svg"
   xmlns:svg="http://www.w3.org/2000/svg"><defs
   id="defs2" />
    <g
   transform="scale(0.512)"
   id="g1">
        <path
   d="m 1574.39,1673.38 c 21.4,21.4 32.13,51.29 29.24,81.41 -2.88,30.12 -19.11,57.42 -44.18,74.35 C 1399.6,1936.9 1207.11,2000 1000,2000 c -207.113,0 -399.604,-63.1 -559.278,-171.11 -25.001,-16.88 -41.176,-44.1 -44.055,-74.13 -2.882,-30.03 7.822,-59.83 29.156,-81.16 -0.208,-0.22 -0.204,-0.22 -0.201,-0.23 44.783,-44.78 114.483,-52.88 168.342,-19.56 117.78,73.75 256.991,116.19 406.036,116.19 149.05,0 288.26,-42.44 406.22,-115.9 53.72,-33.23 123.24,-25.15 167.91,19.52 0.25,-0.24 0.25,-0.24 0.26,-0.24 z m 98.99,-1247.769 c 21.4,-21.397 51.29,-32.133 81.41,-29.244 30.12,2.887 57.42,19.11 74.35,44.186 C 1936.9,600.396 2000,792.887 2000,1000 c 0,207.11 -63.1,399.6 -171.11,559.28 -16.88,25 -44.1,41.17 -74.13,44.05 -30.03,2.89 -59.83,-7.82 -81.16,-29.15 -0.22,0.2 -0.22,0.2 -0.23,0.2 -44.78,-44.78 -52.88,-114.49 -19.56,-168.34 C 1727.56,1288.26 1770,1149.05 1770,1000 c 0,-149.045 -42.44,-288.256 -115.9,-406.219 -33.23,-53.722 -25.15,-123.243 19.52,-167.909 -0.24,-0.253 -0.24,-0.257 -0.24,-0.261 z M 171.105,440.722 c 18.786,-27.81 50.234,-44.517 83.795,-44.517 26.809,0 52.547,10.661 71.504,29.618 0.216,-0.208 0.22,-0.204 0.224,-0.201 44.779,44.783 52.88,114.483 19.565,168.342 C 272.438,711.744 230,850.955 230,1000 c 0,149.05 42.438,288.26 115.898,406.22 33.229,53.72 25.147,123.24 -19.52,167.91 0.246,0.25 0.242,0.25 0.238,0.26 -21.396,21.4 -51.282,32.13 -81.402,29.24 -30.12,-2.89 -57.421,-19.11 -74.359,-44.18 C 63.1,1399.6 0,1207.11 0,1000 0,792.887 63.1,600.396 171.105,440.722 Z M 1000,370 c 347.71,0 630,282.294 630,630 0,347.71 -282.29,630 -630,630 -347.706,0 -630,-282.29 -630,-630 0,-347.706 282.294,-630 630,-630 z M 425.611,326.616 c -19.014,-19.013 -29.708,-44.828 -29.708,-71.718 0,-33.66 16.757,-65.201 44.65,-84.043 C 600.396,63.1 792.887,0 1000,0 c 207.11,0 399.6,63.1 559.28,171.105 25,16.889 41.17,44.108 44.05,74.138 2.88,30.03 -7.82,59.828 -29.15,81.161 0.2,0.216 0.2,0.22 0.2,0.224 -44.78,44.779 -114.49,52.88 -168.34,19.565 C 1288.26,272.438 1149.05,230 1000,230 c -149.045,0 -288.256,42.438 -406.219,115.898 -53.722,33.229 -123.243,25.147 -167.909,-19.52 -0.253,0.246 -0.257,0.242 -0.261,0.238 z"
   style="fill:#208e7a"
   id="path1" />
    </g>
    <g
   transform="matrix(0.512,0,0,0.512,2.132,-5.332)"
   id="g2">
        <path
   d="m 1275,1158.33 c 0,-145.83 -87.5,-195.83 -262.5,-216.66 -125,-16.67 -150,-50 -150,-108.34 0,-58.34 41.67,-95.83 125,-95.83 75,0 116.67,25 137.5,87.5 4.17,12.5 16.67,20.83 29.17,20.83 h 66.66 c 16.67,0 29.17,-12.5 29.17,-29.16 V 812.5 C 1233.33,720.83 1158.33,650 1062.5,641.67 v -100 c 0,-16.67 -12.5,-29.17 -33.33,-33.34 h -62.5 c -16.67,0 -29.17,12.5 -33.34,33.34 v 95.83 c -125,16.67 -204.16,100 -204.16,204.17 0,137.5 83.33,191.66 258.33,212.5 116.67,20.83 154.17,45.83 154.17,112.5 0,66.67 -58.34,112.5 -137.5,112.5 -108.34,0 -145.84,-45.84 -158.34,-108.34 -4.16,-16.66 -16.66,-25 -29.16,-25 h -70.84 c -16.66,0 -29.16,12.5 -29.16,29.17 v 4.17 c 16.66,104.16 83.33,179.16 220.83,200 v 100 c 0,16.66 12.5,29.16 33.33,33.33 h 62.5 c 16.67,0 29.17,-12.5 33.34,-33.33 v -100 c 125,-20.84 208.33,-108.34 208.33,-220.84 z"
   style="fill:#ffffff;fill-rule:nonzero"
   id="path2" />
    </g>
</svg>
