<?xml version="1.0" encoding="UTF-8" standalone="no"?>
<svg
   width="1024.0001"
   height="1355.3019"
   viewBox="0 0 1024.0001 1355.3019"
   version="1.1"
   xml:space="preserve"
   style="clip-rule:evenodd;fill-rule:evenodd;stroke-linejoin:round;stroke-miterlimit:2"
   id="svg1"
   xmlns="http://www.w3.org/2000/svg"
   xmlns:svg="http://www.w3.org/2000/svg"><defs
   id="defs1" />
    <g
   transform="matrix(4.06892,0,0,4.06892,7.8586954,165.65058)"
   id="g1">
        <path
   d="M 249.07457,93.196248 C 254.3118,58.19666 227.66108,39.381271 191.21884,26.830179 l 11.8205,-47.411709 -28.86235,-7.192095 -11.50815,46.162291 C 155.08101,16.497333 147.28803,14.71453 139.54402,12.947609 L 151.13555,-33.519095 122.28908,-40.71119 110.46064,6.6846364 C 104.17914,5.2525704 98.014106,3.8390339 92.029076,2.3513793 L 92.062165,2.2044668 52.258141,-7.7339655 44.581632,23.089866 c 0,0 21.414814,4.907672 20.960841,5.210761 11.690794,2.918397 13.803157,10.653142 13.449773,16.785085 L 65.52659,99.097895 c 0.806034,0.205148 1.850304,0.500297 3.000456,0.960885 -0.96221,-0.238234 -1.989274,-0.501618 -3.049427,-0.755737 L 46.603995,174.96563 c -1.432066,3.54972 -5.055908,8.87696 -13.227419,6.85459 0.287207,0.41956 -20.978047,-5.23591 -20.978047,-5.23591 l -14.3299249,33.03546 37.5593069,9.36137 c 6.98827,1.75104 13.836246,3.58414 20.577015,5.31003 l -11.944913,47.95304 28.829262,7.19342 11.829766,-47.4448 c 7.644744,2.07266 15.311989,4.06193 23.000409,5.96782 l -11.787412,47.22245 28.862352,7.19209 11.94359,-47.86303 c 49.21701,9.3124 86.22573,5.5562 101.80375,-38.95299 12.55241,-35.83871 -0.62471,-56.51102 -26.5197,-69.99124 18.85775,-4.34781 33.06326,-16.75199 36.85254,-42.371682 z m -65.94518,92.462232 c -8.91931,35.83871 -69.26594,16.46479 -88.830449,11.60608 l 15.849349,-63.52973 c 19.56451,4.88253 82.30409,14.54964 72.9811,51.92365 z m 8.92725,-92.981058 c -8.13843,32.600018 -58.3653,16.037288 -74.65802,11.976678 l 14.36963,-57.620143 c 16.29273,4.060609 68.76431,11.639176 60.28839,45.643465 z"
   style="fill-rule:nonzero;stroke-width:1.32354"
   id="path1" />
    </g>
</svg>
