<?xml version="1.0" encoding="UTF-8" standalone="no"?>
<svg
   width="1023.9951"
   height="1023.9835"
   viewBox="0 0 1023.9951 1023.9835"
   version="1.1"
   xml:space="preserve"
   style="clip-rule:evenodd;fill-rule:evenodd;stroke-linejoin:round;stroke-miterlimit:2"
   id="svg5"
   xmlns="http://www.w3.org/2000/svg"
   xmlns:svg="http://www.w3.org/2000/svg"><defs
   id="defs5" />
    <g
   transform="matrix(4,0,0,4,512.00007,511.995)"
   id="g5">
        <g
   transform="translate(-128,-128)"
   id="g4">
            <g
   id="g3">
                <clipPath
   id="_clip1">
                    <rect
   x="0"
   y="0"
   width="256"
   height="256"
   id="rect1" />
                </clipPath>
                <g
   clip-path="url(#_clip1)"
   id="g2">
                    <g
   id="g1">
                        <path
   d="m 254.27677,114.59313 c -0.359,-5.27895 -2.79598,-10.2049 -6.77394,-13.69387 -3.97296,-3.484961 -9.17191,-5.251944 -14.44586,-4.908947 h -0.77699 c -5.00395,0.571994 -9.5939,3.06797 -12.79287,6.957927 -3.20197,3.89497 -4.77096,8.88492 -4.37396,13.91187 v 0.78299 c 0.93899,6.92493 0.93899,13.94386 0,20.8688 v 0.78299 c -1.17399,7.80992 -3.29497,15.44785 -6.31694,22.74378 -6.00394,14.23386 -15.62885,26.65074 -27.91673,36.01365 -12.27888,9.3549 -26.79773,15.33085 -42.10459,17.32783 -15.30185,1.99398 -30.86269,-0.061 -45.122555,-5.95795 C 79.381475,203.52126 66.901597,193.98336 57.460689,181.76247 48.013781,169.53259 41.925841,155.04174 39.805861,139.73389 37.685882,124.42303 39.603863,108.82119 45.368807,94.479327 51.126751,80.144467 60.536659,67.56359 72.66054,57.990684 84.776422,48.424777 99.190281,42.200838 114.46113,39.94086 c 10.3779,-1.412986 20.9148,-1.147989 31.2087,0.782992 6.13194,0.892992 11.66588,4.184959 15.37585,9.148911 3.71396,4.966951 5.31195,11.20889 4.44195,17.349831 -1.28198,5.381947 -4.60195,10.063901 -9.25691,13.053872 -4.65095,2.985971 -10.2839,4.05196 -15.70384,2.969971 h -0.78499 c -1.71099,-0.425996 -3.46397,-0.661993 -5.22695,-0.702993 h -0.701 c -2.85097,-0.314997 -5.71894,-0.444996 -8.58691,-0.389996 -8.56992,0.492995 -16.83384,3.376967 -23.84877,8.324918 -7.022931,4.950952 -12.523878,11.767884 -15.878845,19.678804 -3.357967,7.91693 -4.439957,16.61584 -3.123969,25.11376 1.315987,8.49492 4.979951,16.45484 10.575896,22.97977 5.591946,6.52094 12.898878,11.34889 21.090798,13.93487 8.18692,2.58197 16.93583,2.81897 25.25075,0.68299 8.31792,-2.13598 15.87284,-6.55993 21.80679,-12.76687 5.94094,-6.21194 10.0289,-13.96187 11.80188,-22.37279 l 1.08999,-6.72093 c 0.326,-3.71696 0.462,-7.44893 0.396,-11.17889 -0.011,-14.42886 5.18895,-28.387723 14.63685,-39.292616 9.43691,-10.894894 22.50678,-18.014825 36.77864,-20.034805 h 1.16599 c 2.45698,-0.325997 4.93596,-0.456995 7.41393,-0.392996 h 1.87398 C 224.71806,41.743842 208.71721,26.59499 189.7484,16.079093 170.79158,5.5721956 149.47679,0.0402496 127.803,0.00124998 93.622336,0.5622445 61.010654,14.606107 37.116888,39.053869 13.192121,63.52863 -0.14974855,96.471308 0.00124998,130.69597 0.72224294,159.71969 11.24714,187.66242 29.853958,209.9492 c 18.583819,22.26578 44.183569,37.58063 72.590292,43.42558 28.39772,5.83794 57.95243,1.86298 83.79818,-11.26989 25.86575,-13.14788 46.52655,-34.68367 58.59243,-61.07141 l 0.397,-0.70199 c 5.97194,-13.87287 9.6099,-28.63872 10.76689,-43.69757 -0.234,-8.20692 -1.01999,-14.92786 -1.72198,-22.04079 z"
   style="fill:#ef4800;fill-rule:nonzero;stroke-width:0.99999"
   id="path1" />
                    </g>
                </g>
            </g>
        </g>
    </g>
</svg>
