<?xml version="1.0" encoding="UTF-8" standalone="no"?>
<svg
   width="1024.0026"
   height="1023.991"
   viewBox="0 0 1024.0026 1023.991"
   version="1.1"
   xml:space="preserve"
   style="clip-rule:evenodd;fill-rule:evenodd;stroke-linejoin:round;stroke-miterlimit:2"
   id="svg1"
   xmlns="http://www.w3.org/2000/svg"
   xmlns:svg="http://www.w3.org/2000/svg"><defs
   id="defs1" />
    <g
   transform="matrix(3.99999,0,0,3.99999,0.00507155,0)"
   id="g1">
        <path
   d="m 254.278,114.593 c -0.359,-5.279 -2.796,-10.205 -6.774,-13.694 -3.973,-3.485 -9.172,-5.252 -14.446,-4.909 h -0.777 c -5.004,0.572 -9.594,3.068 -12.793,6.958 -3.202,3.895 -4.771,8.885 -4.374,13.912 v 0.783 c 0.939,6.925 0.939,13.944 0,20.869 v 0.783 c -1.174,7.81 -3.295,15.448 -6.317,22.744 -6.004,14.234 -15.629,26.651 -27.917,36.014 -12.279,9.355 -26.798,15.331 -42.105,17.328 -15.302,1.994 -30.863,-0.061 -45.123,-5.958 C 79.381,203.522 66.901,193.984 57.46,181.763 48.013,169.533 41.925,155.042 39.805,139.734 37.685,124.423 39.603,108.821 45.368,94.479 51.126,80.144 60.536,67.563 72.66,57.99 84.776,48.424 99.19,42.2 114.461,39.94 c 10.378,-1.413 20.915,-1.148 31.209,0.783 6.132,0.893 11.666,4.185 15.376,9.149 3.714,4.967 5.312,11.209 4.442,17.35 -1.282,5.382 -4.602,10.064 -9.257,13.054 -4.651,2.986 -10.284,4.052 -15.704,2.97 h -0.785 c -1.711,-0.426 -3.464,-0.662 -5.227,-0.703 h -0.701 c -2.851,-0.315 -5.719,-0.445 -8.587,-0.39 -8.57,0.493 -16.834,3.377 -23.849,8.325 -7.023,4.951 -12.524,11.768 -15.879,19.679 -3.358,7.917 -4.44,16.616 -3.124,25.114 1.316,8.495 4.98,16.455 10.576,22.98 5.592,6.521 12.899,11.349 21.091,13.935 8.187,2.582 16.936,2.819 25.251,0.683 8.318,-2.136 15.873,-6.56 21.807,-12.767 5.941,-6.212 10.029,-13.962 11.802,-22.373 l 1.09,-6.721 c 0.326,-3.717 0.462,-7.449 0.396,-11.179 -0.011,-14.429 5.189,-28.388 14.637,-39.293 9.437,-10.895 22.507,-18.015 36.779,-20.035 h 1.166 c 2.457,-0.326 4.936,-0.457 7.414,-0.393 h 1.874 C 224.719,41.743 208.718,26.594 189.749,16.078 170.792,5.571 149.477,0.039 127.803,0 93.622,0.561 61.01,14.605 37.116,39.053 13.191,63.528 -0.151,96.471 0,130.696 c 0.721,29.024 11.246,56.967 29.853,79.254 18.584,22.266 44.184,37.581 72.591,43.426 28.398,5.838 57.953,1.863 83.799,-11.27 25.866,-13.148 46.527,-34.684 58.593,-61.072 l 0.397,-0.702 c 5.972,-13.873 9.61,-28.639 10.767,-43.698 -0.234,-8.207 -1.02,-14.928 -1.722,-22.041 z"
   style="fill:#46b549;fill-rule:nonzero"
   id="path1" />
    </g>
</svg>
