<svg width="16" height="16" fill="none" xmlns="http://www.w3.org/2000/svg"><g clip-path="url(#a)"><path d="M5.646.353A7.975 7.975 0 0 1 8 0v8H0c0-.82.123-1.61.353-2.355A8.011 8.011 0 0 1 5.646.353Z" fill="#fff"/><path d="M5.646.353A7.975 7.975 0 0 1 8 0v8H0c0-.82.123-1.61.353-2.355A8.011 8.011 0 0 1 5.646.353Z" fill="#A2C4B8"/><path d="M8 12a3.983 3.983 0 0 1-1.171 2.827 3.994 3.994 0 0 1-5.658 0A3.983 3.983 0 0 1 0 12a3.99 3.99 0 0 1 1.171-2.829A3.987 3.987 0 0 1 4 8c0 1.105.448 2.105 1.171 2.827A3.988 3.988 0 0 0 8 12Zm8-4H8V0c.82 0 1.61.123 2.353.353h.001a8.011 8.011 0 0 1 5.293 5.292C15.877 6.39 16 7.18 16 8Z" fill="#099250"/><path d="M16 8v4a3.983 3.983 0 0 1-1.171 2.827A3.988 3.988 0 0 1 12 16a3.991 3.991 0 0 1-2.829-1.173A3.983 3.983 0 0 1 8 12V8h8Z" fill="#099250"/></g><defs><clipPath id="a"><path fill="#fff" d="M0 0h16v16H0z"/></clipPath></defs></svg>