<svg width="16" height="16" fill="none" xmlns="http://www.w3.org/2000/svg"><path d="M14.374 7.078a4.51 4.51 0 0 0 .729-2.487v-.043a4.52 4.52 0 0 0-.756-2.532A4.628 4.628 0 0 0 10.976 0H6.518a.638.638 0 0 0-.64.636V2.66a.638.638 0 0 0 .64.636h4.017c.69 0 1.248.555 1.248 1.239V4.6c0 .685-.559 1.24-1.248 1.24H3.959a.64.64 0 0 1-.64-.636V.636A.64.64 0 0 0 2.678 0H.64A.638.638 0 0 0 0 .636v13.728A.639.639 0 0 0 .64 15h2.038a.64.64 0 0 0 .64-.636V9.796c0-.35.287-.636.64-.636h6.545c.108 0 .214-.005.32-.011h.414c.688 0 1.248.554 1.248 1.239v.064c0 .685-.56 1.24-1.248 1.24H6.54c-.007-.002-.015-.002-.022-.002-.006 0-.015 0-.021.002a.633.633 0 0 0-.431.185.632.632 0 0 0-.188.45v2.037a.639.639 0 0 0 .64.636h5.012a4.622 4.622 0 0 0 3.25-1.672 4.557 4.557 0 0 0 1.023-2.904v-.009c0-1.028-.33-2.036-.974-2.842a4.641 4.641 0 0 0-.456-.495Z" fill="#000030"/></svg>