<svg width="16" height="16" fill="none" xmlns="http://www.w3.org/2000/svg"><path d="M14.188 3.2V0H7.561v3.2h3.313a3.24 3.24 0 0 1-.99 2.281c-.621.6-1.457.93-2.322.919V3.2A6.563 6.563 0 0 0 2.92 5.039a6.486 6.486 0 0 0-1.982 4.56 6.486 6.486 0 0 0 1.982 4.562 6.562 6.562 0 0 0 4.643 1.838 6.557 6.557 0 0 0 4.644-1.837 6.48 6.48 0 0 0 1.98-4.562h-3.312a3.228 3.228 0 0 1-.989 2.283 3.264 3.264 0 0 1-2.323.917 3.279 3.279 0 0 1-2.323-.92 3.24 3.24 0 0 1-.99-2.28 3.24 3.24 0 0 1 .99-2.282c.621-.6 1.457-.93 2.322-.918v3.2a6.562 6.562 0 0 0 4.643-1.84 6.486 6.486 0 0 0 1.982-4.56Z" fill="#EF6100"/></svg>