<svg width="16" height="16" fill="none" xmlns="http://www.w3.org/2000/svg"><path d="M7.975 5.4V3.665l-2.643-.768v1.737l2.643.768Z" fill="#E1E1E1"/><path d="M7.977 5.4V3.665L10.62 2.9v1.733L7.977 5.4Z" fill="#C4C3C3"/><path d="M7.975 8.041V6.304l-2.643-.767v1.736l2.643.768Z" fill="#E1E1E1"/><path d="M7.977 8.042V6.305l2.644-.764v1.732l-2.644.769Z" fill="#C4C3C3"/><path d="M7.975 13.32v-1.736l-2.643-.768v1.736l2.643.769Z" fill="#E1E1E1"/><path d="M7.977 13.32v-1.736l2.644-.764v1.733l-2.644.768Z" fill="#C4C3C3"/><path d="M7.976 10.68V8.943l-5.234-1.52V9.16l5.234 1.521Z" fill="#44B549"/><path d="M7.977 10.68V8.945l5.236-1.512V9.16l-5.236 1.52Z" fill="#409244"/><path d="m4.48 14.982-1.738-.55V2.138l1.737.505v12.338Z" fill="#44B549"/><path d="m11.477 2.644 1.739-.505-.002 12.292-1.737.55V2.645Z" fill="#409244"/><path d="M7.975 15.96v-1.738l-2.643-.767v1.736l2.643.768Z" fill="#E1E1E1"/><path d="M7.977 15.96v-1.737l2.644-.764v1.732l-2.644.769Z" fill="#C4C3C3"/><path d="M7.977 2.797 2.742 1.27 7.977 0l5.237 1.271-5.237 1.526Z" fill="#E1E1E1"/></svg>