<svg xmlns="http://www.w3.org/2000/svg" width="16" height="16" fill="none"><g clip-path="url(#a)"><g clip-path="url(#b)"><path fill="#EF4800" d="M14.318 4.693a5.719 5.719 0 0 0-2.443-2.209c-1.05-.526-2.264-.796-3.628-.796H2.521v5.23H.813v1.954H2.52v5.44h5.726c1.364 0 2.579-.255 3.628-.781 1.05-.526 1.858-1.263 2.443-2.21.585-.946.87-2.059.87-3.321 0-1.263-.285-2.36-.87-3.307Zm-3.208 6.178c-.75.691-1.753 1.052-3.013 1.052H5.444V8.872h3.148V6.918H5.444V4.092h2.653c1.26 0 2.264.346 3.013 1.052.75.707 1.125 1.654 1.125 2.856s-.375 2.164-1.125 2.87Z"/></g></g><defs><clipPath id="a"><path fill="#fff" d="M0 0h16v16H0z"/></clipPath><clipPath id="b"><path fill="#fff" d="M0 0h14.375v12.625H0z" transform="translate(.813 1.688)"/></clipPath></defs></svg>