<svg width="16" height="16" fill="none" xmlns="http://www.w3.org/2000/svg"><g clip-path="url(#a)" fill="#FF9920"><path d="M4.078 6.19h1.205a.1.1 0 0 1 .102.101v3.308a.102.102 0 0 1-.102.101H4.078a.102.102 0 0 1-.101-.101V6.29c0-.056.045-.102.101-.102Zm4.43-.06c.595 0 1.049.155 1.362.463.305.3.458.73.458 1.287v1.718a.102.102 0 0 1-.102.102H9.02a.102.102 0 0 1-.102-.102V7.904c0-.402-.293-.603-.88-.603s-.88.201-.88.603v1.694a.102.102 0 0 1-.102.102H5.852a.102.102 0 0 1-.102-.102V6.291c0-.057.046-.102.102-.102h1.205c.056 0 .102.045.102.102v.29c.312-.3.762-.45 1.35-.45ZM16 6.234c0-.055-.045-.1-.1-.101-.228-.007-.746.038-1.087.269a1.744 1.744 0 0 0-.231.18c-.402-.3-.975-.451-1.723-.451-.767 0-1.354.16-1.76.48-.392.312-.587.756-.587 1.334 0 .577.195 1.022.586 1.334.262.206.598.345 1.008.418a4.406 4.406 0 0 0 1.352.025l.131-.018c.1-.015.193.054.208.153a.183.183 0 0 1-.154.208 5.742 5.742 0 0 1-.776.063c-.26 0-.505-.018-.73-.053a3.49 3.49 0 0 1-.44-.097.102.102 0 0 0-.125.066l-.298.89a.102.102 0 0 0 .06.126c.38.152.807.208 1.214.23.56.032 1.164.018 1.71-.12a1.77 1.77 0 0 0 .388-.143 1.02 1.02 0 0 0 .221-.156 1.06 1.06 0 0 0 .297-.538c.097-.414.04-.924-.363-1.155a.877.877 0 0 0-.044-.023c.3-.302.45-.705.45-1.21 0-.225-.031-.43-.09-.614.1-.02.215-.03.345-.03.158 0 .295.014.41.044A.102.102 0 0 0 16 7.246V6.234Zm-3.14 1.067c.625 0 .938.215.938.644 0 .43-.313.643-.939.643-.626 0-.939-.214-.939-.643 0-.43.313-.644.94-.644Zm-9.25-.102V6.29a.102.102 0 0 0-.103-.101H2.201V4.813a.102.102 0 0 0-.134-.097l-1.205.401a.102.102 0 0 0-.07.097v.975h-.69A.102.102 0 0 0 0 6.291v.908c0 .056.046.101.102.101h.69v1.115c0 .488.163.837.487 1.048.31.198.812.298 1.509.298.262 0 .507-.02.738-.06a.101.101 0 0 0 .083-.1v-.962a.102.102 0 0 0-.12-.1 2.87 2.87 0 0 1-.525.052c-.263 0-.45-.024-.564-.07-.133-.051-.2-.145-.2-.281V7.3h1.307a.102.102 0 0 0 .103-.1Zm1.673-1.375H4.078a.102.102 0 0 1-.101-.101v-.91a.1.1 0 0 1 .101-.102h1.205a.1.1 0 0 1 .102.101v.91a.102.102 0 0 1-.102.102Z"/></g><defs><clipPath id="a"><path fill="#fff" d="M0 0h16v16H0z"/></clipPath></defs></svg>