<svg width="12" height="16" fill="none" xmlns="http://www.w3.org/2000/svg"><g clip-path="url(#a)"><path fill-rule="evenodd" clip-rule="evenodd" d="M0 3.703c0-.573.465-1.038 1.038-1.038h4.924L8.51.233a.626.626 0 0 1 .864 0l2.549 2.432v9.572c0 .604-.491 1.094-1.096 1.094H5.961l-2.549 2.433a.626.626 0 0 1-.863 0L0 13.33V3.703Zm7.66 3.733a.296.296 0 0 1-.418 0l-.82-.818a.652.652 0 0 0-.922 0l-.82.818a.297.297 0 0 1-.418 0l-.82-.819a.653.653 0 0 0-.922 0l-.922.921a.651.651 0 0 0 0 .921l.922.921a.653.653 0 0 0 .922 0l.82-.82a.295.295 0 0 1 .417 0l.821.82a.652.652 0 0 0 .922 0l.821-.82a.296.296 0 0 1 .418 0l.82.82a.653.653 0 0 0 .922 0l.922-.92a.651.651 0 0 0 0-.922l-.922-.921a.653.653 0 0 0-.922 0l-.82.82Z" fill="#F1A200"/></g><defs><clipPath id="a"><path fill="#fff" d="M0 0h11.923v16H0z"/></clipPath></defs></svg>