<?xml version="1.0" encoding="UTF-8" standalone="no"?>
<svg
   width="32"
   height="30.374699"
   viewBox="0 0 32 30.374699"
   version="1.1"
   xml:space="preserve"
   style="clip-rule:evenodd;fill-rule:evenodd;stroke-linejoin:round;stroke-miterlimit:2"
   id="svg1"
   xmlns="http://www.w3.org/2000/svg"
   xmlns:svg="http://www.w3.org/2000/svg"><defs
   id="defs1" />
    <g
   transform="matrix(3.99998,0,0,3.99998,-495.99936,-494.8098)"
   id="g1">
        <path
   d="m 131.27727,127.28657 c 0.0126,-0.0188 0.0246,-0.0379 0.0366,-0.0573 0.22278,-0.3604 0.33228,-0.77881 0.33228,-1.20156 v -0.0223 c 0,-0.45506 -0.1275,-0.90353 -0.38244,-1.2815 -0.37803,-0.56069 -0.99525,-0.94866 -1.70678,-1.02075 h -2.25647 c -0.0858,-2.2e-4 -0.16828,0.0337 -0.22906,0.0943 -0.0608,0.06 -0.0951,0.14203 -0.095,0.2275 v 1.02453 c 0,0.089 0.0363,0.16957 0.095,0.22754 0.0608,0.0606 0.14325,0.0946 0.22906,0.0943 h 2.03338 c 0.34897,0 0.63172,0.28144 0.63172,0.62744 v 0.0332 c 0,0.34662 -0.28275,0.62743 -0.63172,0.62743 h -3.32931 c -0.0858,1.6e-4 -0.16829,-0.0338 -0.2291,-0.0944 -0.0607,-0.0601 -0.095,-0.14206 -0.095,-0.2275 v -2.3126 c 0,-0.089 -0.0362,-0.16956 -0.095,-0.22753 -0.0608,-0.0605 -0.14322,-0.0945 -0.22903,-0.0943 h -1.03187 c -0.17891,0 -0.32407,0.14416 -0.32407,0.32187 v 6.95 c 0,0.0884 0.0363,0.16925 0.095,0.22754 0.0607,0.0606 0.14325,0.0946 0.22907,0.0943 h 1.03156 c 0.0896,0 0.17037,-0.036 0.22906,-0.0943 0.0608,-0.0601 0.095,-0.14207 0.095,-0.22754 v -2.31259 c 0,-0.17769 0.14513,-0.32187 0.32406,-0.32187 h 3.31322 c 0.0549,0 0.10853,-0.002 0.16219,-0.006 h 0.2095 c 0.34838,0 0.63172,0.28081 0.63172,0.62744 v 0.0326 c 0,0.34662 -0.28334,0.62744 -0.63172,0.62744 h -2.37762 c -0.003,-6.3e-4 -0.008,-6.3e-4 -0.011,-6.3e-4 -0.003,0 -0.008,0 -0.0111,6.3e-4 -0.082,0.002 -0.16009,0.0359 -0.21803,0.094 -0.0608,0.0601 -0.0951,0.14228 -0.095,0.22784 v 1.03109 c 0,0.0884 0.0363,0.16925 0.095,0.22754 0.0608,0.0606 0.14325,0.0946 0.22909,0.0943 h 2.53697 c 0.66266,-0.0457 1.24957,-0.36575 1.64588,-0.8465 0.34081,-0.41306 0.51719,-0.93613 0.51719,-1.47019 v -0.004 c 0,-0.52057 -0.16725,-1.03078 -0.49257,-1.43885 -0.0709,-0.0889 -0.14825,-0.17262 -0.23128,-0.2504 h 6.3e-4 z"
   style="fill:#000030;fill-rule:nonzero;stroke-width:0.03125"
   id="path1" />
    </g>
</svg>
