<svg width="32" height="32" fill="none" xmlns="http://www.w3.org/2000/svg"><g clip-path="url(#a)"><path d="M29.085 15.405c.05-.076.1-.153.148-.231.897-1.452 1.338-3.138 1.338-4.841v-.09c0-1.834-.513-3.64-1.54-5.163A9.44 9.44 0 0 0 22.152.967h-9.091a1.302 1.302 0 0 0-1.306 1.297v4.128a1.302 1.302 0 0 0 1.306 1.297h8.193a2.538 2.538 0 0 1 2.545 2.527v.134a2.536 2.536 0 0 1-2.546 2.528H7.84a1.305 1.305 0 0 1-1.306-1.296V2.264A1.304 1.304 0 0 0 5.228.967H1.072c-.72 0-1.305.58-1.305 1.297v28.003a1.302 1.302 0 0 0 1.306 1.297h4.155a1.304 1.304 0 0 0 1.306-1.297v-9.318c0-.716.585-1.297 1.306-1.297h13.35c.22 0 .437-.01.653-.024h.844a2.538 2.538 0 0 1 2.545 2.528v.131a2.538 2.538 0 0 1-2.545 2.528h-9.58c-.014-.002-.03-.002-.044-.002-.014 0-.03 0-.045.002a1.29 1.29 0 0 0-.878.379 1.29 1.29 0 0 0-.383.918v4.155a1.302 1.302 0 0 0 1.306 1.297h10.222a9.427 9.427 0 0 0 6.631-3.411C31.288 26.488 32 24.38 32 22.229v-.018c0-2.097-.674-4.153-1.985-5.797a9.49 9.49 0 0 0-.932-1.009h.003Z" fill="#000030"/></g><defs><clipPath id="a"><path fill="#fff" d="M0 0h32v32H0z"/></clipPath></defs></svg>