<?xml version="1.0" encoding="UTF-8" standalone="no"?>
<svg
   width="31.999825"
   height="42.351559"
   viewBox="0 0 31.999825 42.351559"
   version="1.1"
   xml:space="preserve"
   style="clip-rule:evenodd;fill-rule:evenodd;stroke-linejoin:round;stroke-miterlimit:2"
   id="svg1"
   xmlns="http://www.w3.org/2000/svg"
   xmlns:svg="http://www.w3.org/2000/svg"><defs
   id="defs1" />
    <g
   transform="matrix(4.06892,0,0,4.06892,-488.20619,-490.82373)"
   id="g1">
        <path
   d="m 127.82812,124.81213 c 0.16363,-1.09374 -0.66921,-1.68172 -1.80799,-2.07394 l 0.36939,-1.48162 -0.90195,-0.22475 -0.35963,1.44257 c -0.23712,-0.0591 -0.48065,-0.11482 -0.72265,-0.17003 l 0.36219,-1.45209 -0.90141,-0.22475 -0.36968,1.48112 c -0.19625,-0.0447 -0.38891,-0.0889 -0.57594,-0.13541 l 10e-4,-0.005 -1.24388,-0.31057 -0.23993,0.96324 c 0,0 0.66921,0.15337 0.65507,0.16284 0.36529,0.0912 0.43131,0.33291 0.42026,0.52454 l -0.42076,1.68788 c 0.0251,0.006 0.0578,0.0156 0.0938,0.03 -0.0301,-0.007 -0.0622,-0.0157 -0.0953,-0.0236 l -0.5898,2.36446 c -0.0447,0.11093 -0.158,0.2774 -0.41336,0.2142 0.009,0.0131 -0.65556,-0.16362 -0.65556,-0.16362 l -0.44777,1.03236 1.17373,0.29254 c 0.21838,0.0547 0.43234,0.11201 0.64299,0.16594 l -0.37324,1.49854 0.90092,0.22479 0.36968,-1.48265 c 0.2389,0.0648 0.4785,0.12694 0.71876,0.18649 l -0.3684,1.47571 0.90195,0.22475 0.37328,-1.49572 c 1.53803,0.29101 2.69456,0.17363 3.18137,-1.21728 0.39227,-1.11996 -0.0195,-1.76597 -0.82874,-2.18723 0.58931,-0.13587 1.03323,-0.5235 1.15164,-1.32412 z m -2.06079,2.88945 c -0.27872,1.11996 -2.16456,0.51453 -2.77599,0.36269 l 0.49529,-1.98531 c 0.61143,0.15258 2.57201,0.45468 2.2807,1.62262 z m 0.27898,-2.90566 c -0.25433,1.01875 -1.82392,0.50116 -2.33311,0.37427 l 0.44905,-1.80063 c 0.50919,0.12689 2.14893,0.36372 1.88406,1.42636 z"
   style="fill:#f7931a;fill-rule:nonzero;stroke-width:0.0413606"
   id="path1" />
    </g>
</svg>
