<svg xmlns="http://www.w3.org/2000/svg" xml:space="preserve" style="fill-rule:evenodd;clip-rule:evenodd;stroke-linejoin:round;stroke-miterlimit:2" viewBox="0 0 32 32"><path d="M1557.55 1656.54a122.038 122.038 0 0 1 35.17 98.16 122.021 122.021 0 0 1-53.52 89.48C1382.81 1942.28 1198.1 2000 1000 2000c-198.095 0-382.814-57.72-538.236-157.25a120.321 120.321 0 0 1-52.766-88.23 120.298 120.298 0 0 1 34.662-96.78c-1.175-1.23-1.146-1.26-1.116-1.29 36.635-36.59 94.118-41.95 136.886-12.76C699.914 1723.87 844.613 1770 1000 1770c155.35 0 300.02-46.11 421.08-125.39 42.39-28.92 99.37-23.59 135.66 12.7.79-.78.8-.78.81-.77Zm98.99-1214.085a122 122 0 0 1 187.64 18.348C1942.28 617.186 2000 801.905 2000 1000c0 198.1-57.72 382.81-157.25 538.24a120.302 120.302 0 0 1-88.23 52.76 120.283 120.283 0 0 1-96.78-34.66c-1.23 1.18-1.26 1.15-1.29 1.12-36.59-36.64-41.95-94.12-12.76-136.89C1723.87 1300.09 1770 1155.39 1770 1000c0-155.351-46.11-300.019-125.39-421.077-28.92-42.394-23.59-99.37 12.7-135.66-.78-.795-.78-.801-.77-.808ZM157.254 461.764a120.293 120.293 0 0 1 88.223-52.766 120.294 120.294 0 0 1 96.779 34.662c1.234-1.175 1.263-1.146 1.293-1.116 36.592 36.635 41.95 94.118 12.761 136.886C276.127 699.914 230 844.613 230 1000c0 155.35 46.106 300.02 125.388 421.08 28.925 42.39 23.592 99.37-12.698 135.66.783.79.777.8.77.81a122.037 122.037 0 0 1-98.157 35.17 122.02 122.02 0 0 1-89.484-53.52C57.725 1382.81 0 1198.1 0 1000c0-198.095 57.725-382.814 157.254-538.236ZM1000 370c347.71 0 630 282.294 630 630 0 347.71-282.29 630-630 630-347.706 0-630-282.29-630-630 0-347.706 282.294-630 630-630Zm-557.545-26.54a121.998 121.998 0 0 1 18.348-187.641C617.186 57.725 801.905 0 1000 0c198.1 0 382.81 57.725 538.24 157.254a120.274 120.274 0 0 1 52.76 88.223 120.28 120.28 0 0 1-34.66 96.779c1.18 1.234 1.15 1.263 1.12 1.293-36.64 36.592-94.12 41.95-136.89 12.761C1300.09 276.127 1155.39 230 1000 230c-155.351 0-300.019 46.106-421.077 125.388-42.394 28.925-99.37 23.592-135.66-12.698-.795.783-.801.777-.808.77Z" style="fill:#208e7a" transform="scale(.016)"/><path d="M95.614 150.485a3.254 3.254 0 0 0-3.254 3.255v8.656a3.254 3.254 0 0 0 3.254 3.254h23.758v21.967a3.255 3.255 0 0 0 3.255 3.255h10.447a3.255 3.255 0 0 0 3.255-3.255V165.65h24.057a3.254 3.254 0 0 0 3.254-3.254v-8.656a3.254 3.254 0 0 0-3.254-3.255H95.614Zm64.846-10.763a3.255 3.255 0 0 0 3.255-3.255v-8.507a3.254 3.254 0 0 0-3.255-3.254h-20.388l27.549-48.721a3.257 3.257 0 0 0-.021-3.243 3.257 3.257 0 0 0-2.812-1.614H152.7a3.257 3.257 0 0 0-2.835 1.654l-21.922 38.827-21.651-38.812a3.253 3.253 0 0 0-2.842-1.669H91.212a3.253 3.253 0 0 0-2.837 4.851l27.418 48.727H95.689a3.255 3.255 0 0 0-3.255 3.254v8.507a3.255 3.255 0 0 0 3.255 3.255h64.771Z" style="fill:#fff;fill-rule:nonzero" transform="scale(.125)"/></svg>