<?xml version="1.0" encoding="UTF-8" standalone="no"?>
<svg
   width="55.933441"
   height="43.76268"
   viewBox="0 0 55.933441 43.76268"
   version="1.1"
   xml:space="preserve"
   style="clip-rule:evenodd;fill-rule:evenodd;stroke-linejoin:round;stroke-miterlimit:2"
   id="svg2"
   xmlns="http://www.w3.org/2000/svg"
   xmlns:svg="http://www.w3.org/2000/svg"><defs
   id="defs2" />
    <g
   transform="matrix(4.00296,0,0,4.00296,-484.92254,-382.41682)"
   id="g2">
        <path
   d="m 129.12819,98.266464 -1.16151,2.733006 h -2.72618 c -0.002,0 -0.003,0 -0.005,0 -0.74709,0 -1.3618,0.61471 -1.3618,1.36181 0,0.002 0,0.003 0,0.005 0,0.002 0,0.003 0,0.005 0,0.74709 0.61471,1.3618 1.3618,1.3618 0.002,0 0.003,0 0.005,0 h 1.56467 l -1.14326,2.73301 c -0.27318,-0.002 -0.28477,0 -0.42141,0 -2.26155,0 -4.09951,-1.83796 -4.09951,-4.09951 0,-2.26161 1.83796,-4.099516 4.09951,-4.099516 h 3.89457 z"
   style="fill:#3551f2;fill-rule:nonzero;stroke-width:0.0546361"
   id="path1" />
        <path
   d="m 135.11401,99.632968 c 0,2.261612 -1.83796,4.099512 -4.09951,4.099512 h -4.20884 l 1.16151,-2.73301 h 3.04733 c 0.75158,0 1.3665,-0.61493 1.3665,-1.366447 0,-0.751629 -0.61492,-1.366559 -1.3665,-1.366559 h -1.88582 l 1.1773,-2.732954 c 0.27318,0.0024 0.44889,0 0.70852,0 2.26155,0 4.09951,1.837905 4.09951,4.099458 z"
   style="fill:#3551f2;fill-rule:nonzero;stroke-width:0.0546361"
   id="path2" />
    </g>
</svg>
