<?xml version="1.0" encoding="UTF-8" standalone="no"?>
<svg
   width="32"
   height="38.641464"
   viewBox="0 0 32 38.641464"
   version="1.1"
   xml:space="preserve"
   style="clip-rule:evenodd;fill-rule:evenodd;stroke-linejoin:round;stroke-miterlimit:2"
   id="svg1"
   xmlns="http://www.w3.org/2000/svg"
   xmlns:svg="http://www.w3.org/2000/svg"><defs
   id="defs1" />
    <g
   transform="matrix(4,0,0,4,-408,-492.67868)"
   id="g1">
        <path
   d="m 110,125.1017 v -1.93203 h -4 v 1.93203 h 2 c -0.008,0.52019 -0.22347,1.01619 -0.59789,1.37736 -0.37502,0.36223 -0.87932,0.56166 -1.40211,0.55461 v -1.93197 c -1.04536,-0.0133 -2.05336,0.38589 -2.80313,1.11019 -0.74981,0.7243 -1.18019,1.71457 -1.19687,2.75381 0.0167,1.03921 0.44709,2.02948 1.19687,2.75378 0.74977,0.7243 1.75777,1.12347 2.80313,1.11019 1.04562,0.0142 2.05415,-0.38472 2.80411,-1.10921 0.74997,-0.72449 1.18008,-1.71528 1.19589,-2.75476 h -2 c -0.003,0.25759 -0.058,0.51193 -0.16042,0.74831 -0.1026,0.23671 -0.25098,0.45086 -0.4366,0.63007 -0.18596,0.17959 -0.40547,0.32087 -0.646,0.4157 -0.24087,0.095 -0.49807,0.14192 -0.75698,0.13796 -0.52279,0.007 -1.02702,-0.19245 -1.402,-0.55472 -0.37502,-0.36222 -0.59011,-0.85758 -0.598,-1.37732 0.008,-0.51977 0.22302,-1.01513 0.598,-1.37735 0.37498,-0.36223 0.87917,-0.56178 1.402,-0.55468 v 1.93203 c 1.04536,0.0133 2.05336,-0.386 2.80313,-1.1103 0.74978,-0.72426 1.18019,-1.71449 1.19687,-2.7537 z"
   style="fill:#ef6100;fill-rule:nonzero;stroke-width:0.0377358"
   id="path1" />
    </g>
</svg>
