<svg width="32" height="32" fill="none" xmlns="http://www.w3.org/2000/svg"><path d="M28.375 6.4V0h-13.25v6.4h6.625a6.48 6.48 0 0 1-1.98 4.562 6.558 6.558 0 0 1-4.645 1.838V6.4a13.125 13.125 0 0 0-9.285 3.677A12.972 12.972 0 0 0 1.875 19.2a12.973 12.973 0 0 0 3.965 9.122A13.125 13.125 0 0 0 15.125 32a13.114 13.114 0 0 0 9.289-3.674 12.961 12.961 0 0 0 3.961-9.126H21.75a6.456 6.456 0 0 1-1.978 4.566 6.53 6.53 0 0 1-4.647 1.834 6.557 6.557 0 0 1-4.644-1.837A6.48 6.48 0 0 1 8.5 19.199a6.48 6.48 0 0 1 1.98-4.562 6.557 6.557 0 0 1 4.645-1.838v6.4a13.125 13.125 0 0 0 9.285-3.677c2.484-2.4 3.91-5.68 3.965-9.122Z" fill="#EF6100"/></svg>