<?xml version="1.0" encoding="UTF-8" standalone="no"?>
<svg
   width="31.997669"
   height="38.289021"
   viewBox="0 0 31.997669 38.289021"
   version="1.1"
   xml:space="preserve"
   style="clip-rule:evenodd;fill-rule:evenodd;stroke-linejoin:round;stroke-miterlimit:2"
   id="svg4"
   xmlns="http://www.w3.org/2000/svg"
   xmlns:svg="http://www.w3.org/2000/svg"><defs
   id="defs4" />
    <g
   transform="matrix(0.999959,0,0,0.999959,-424.87855,-492.80779)"
   id="g4">
        <g
   transform="matrix(3.9987,0,0,3.9987,-38.875,0.251891)"
   id="g1">
            <path
   d="m 123.89328,131.09936 c -0.0319,-0.038 -0.0711,-0.0692 -0.1152,-0.0919 -0.0441,-0.0228 -0.0922,-0.0368 -0.14163,-0.0412 -0.0998,-0.009 -0.199,0.0228 -0.2755,0.0874 -0.01,0.008 -0.0197,0.0162 -0.0292,0.0243 -0.007,0.006 -0.0141,0.0116 -0.0212,0.0173 -0.10956,0.0892 -0.22375,0.1726 -0.34209,0.24981 l -0.0155,0.0102 c -0.0261,0.0169 -0.0522,0.0335 -0.0786,0.0493 -0.006,0.004 -0.012,0.007 -0.0179,0.0109 -0.006,0.004 -0.0116,0.007 -0.0173,0.0106 l -0.0102,0.006 -0.0183,0.011 c -0.006,0.004 -0.0116,0.007 -0.0176,0.0102 -0.0699,0.0406 -0.14096,0.0792 -0.21316,0.11554 l -0.0179,0.009 -0.025,0.0127 -0.0328,0.0159 -0.002,10e-4 c -0.0109,0.005 -0.0218,0.0102 -0.0328,0.0155 l -0.025,0.0116 -0.0162,0.007 c -0.008,0.004 -0.0173,0.008 -0.0257,0.0116 -0.0113,0.005 -0.0229,0.0102 -0.0345,0.0152 -0.0232,0.0102 -0.0469,0.0201 -0.0705,0.0296 -0.012,0.005 -0.024,0.01 -0.0359,0.0145 -0.0229,0.009 -0.0461,0.0183 -0.0694,0.0271 h -7.1e-4 c -0.0229,0.009 -0.0462,0.0173 -0.0694,0.0254 l -0.005,0.002 c -0.0109,0.004 -0.0218,0.008 -0.0331,0.0116 -0.0116,0.004 -0.0233,0.008 -0.0345,0.012 l -0.0349,0.0112 c -0.003,10e-4 -0.007,0.002 -0.01,0.003 l -0.0226,0.007 -0.0187,0.006 c -0.019,0.006 -0.0377,0.0116 -0.0567,0.0173 l -0.0127,0.004 c -0.008,0.002 -0.0155,0.005 -0.0233,0.007 l -0.0268,0.007 -0.0215,0.006 -0.0141,0.004 -0.018,0.005 c -0.0201,0.005 -0.0405,0.0105 -0.0609,0.0155 -0.005,0.001 -0.0102,0.002 -0.0151,0.004 -0.007,0.002 -0.0144,0.004 -0.0218,0.005 l -0.018,0.004 c -0.001,3.7e-4 -0.003,7.1e-4 -0.005,0.001 -0.009,0.002 -0.0187,0.004 -0.0278,0.006 -0.0169,0.004 -0.0338,0.007 -0.0511,0.0109 -0.0162,0.004 -0.0324,0.007 -0.0483,0.01 l -0.0395,0.007 -0.0243,0.004 c -0.008,0.001 -0.0144,0.003 -0.0218,0.004 l -0.0314,0.005 -0.0307,0.005 -0.004,7.1e-4 c -0.0127,0.002 -0.025,0.004 -0.0374,0.006 -0.0123,0.002 -0.0243,0.004 -0.0359,0.005 l -0.008,0.001 -0.0296,0.004 h -0.002 c -0.008,0.001 -0.0165,0.002 -0.0246,0.003 l -0.0218,0.002 c -0.0215,0.002 -0.0433,0.005 -0.0652,0.007 h -0.005 c -0.007,0.001 -0.0144,0.002 -0.0215,0.003 l -0.0186,0.002 c -0.007,7.1e-4 -0.0148,10e-4 -0.0222,0.002 l -0.0222,0.002 c -0.0292,0.002 -0.0588,0.004 -0.0881,0.006 l -0.0391,0.002 -0.0222,7.1e-4 c -0.006,4e-5 -0.0113,3e-4 -0.0169,7.1e-4 l -0.0215,6.7e-4 h -0.0219 c -0.007,3.8e-4 -0.0148,0.001 -0.0222,0.001 h -0.008 c -0.0123,0 -0.0247,3.4e-4 -0.0366,3.4e-4 h -0.08 c -0.41687,-0.005 -0.83045,-0.0743 -1.22608,-0.20577 -0.0141,-0.005 -0.0285,-0.009 -0.0426,-0.0144 -0.007,-0.002 -0.0141,-0.005 -0.0208,-0.007 -0.007,-0.002 -0.0141,-0.005 -0.0208,-0.007 -0.0113,-0.004 -0.0226,-0.008 -0.0338,-0.0123 l -0.0141,-0.005 c -0.0127,-0.005 -0.0254,-0.009 -0.0377,-0.0141 l -0.006,-0.002 c -0.005,-0.002 -0.01,-0.004 -0.0144,-0.006 l -0.005,-0.002 -0.004,-0.001 -0.008,-0.003 -0.008,-0.003 h -0.002 l -0.004,-0.002 -0.0159,-0.006 -0.0204,-0.008 c -0.0113,-0.005 -0.0225,-0.009 -0.0338,-0.0141 h -0.002 l -0.0225,-0.01 -0.0264,-0.0116 c -0.7071,-0.31131 -1.3107,-0.8183 -1.73942,-1.46104 -0.003,-0.005 -0.006,-0.009 -0.009,-0.0141 -0.43287,-0.6586 -0.66447,-1.42933 -0.66623,-2.21745 v -0.0599 c 0,-0.0152 7.1e-4,-0.0303 0.001,-0.0454 v -0.004 c 0.0123,-0.45 0.0998,-0.8948 0.25893,-1.31589 0.006,-0.0148 0.0113,-0.0292 0.0169,-0.044 0.005,-0.013 0.0102,-0.0261 0.0155,-0.0391 l 0.0109,-0.0264 c 0.006,-0.0144 0.012,-0.0289 0.0183,-0.0434 0.007,-0.0158 0.0138,-0.0317 0.0208,-0.0475 3.7e-4,-0.001 10e-4,-0.002 10e-4,-0.003 4.8e-4,-0.001 0.001,-0.003 0.002,-0.004 l 0.0148,-0.0327 c 0,0 0,-7.5e-4 3.7e-4,-10e-4 0.005,-0.0102 0.009,-0.0201 0.0137,-0.0299 0.001,-0.003 0.002,-0.006 0.004,-0.009 l 0.002,-0.005 c 0.002,-0.005 0.005,-0.01 0.007,-0.0144 10e-4,-0.003 0.003,-0.006 0.004,-0.009 l 0.004,-0.009 0.001,-0.002 0.003,-0.006 c 0.005,-0.0113 0.0109,-0.0226 0.0166,-0.0338 10e-4,-0.002 0.002,-0.004 0.003,-0.006 0.007,-0.0149 0.0148,-0.0296 0.0222,-0.0441 0.005,-0.0102 0.0106,-0.0208 0.0159,-0.031 l 0.004,-0.006 c 0,0 0,-6.7e-4 3.7e-4,-0.001 0,0 0,-7.1e-4 3.7e-4,-7.1e-4 0.003,-0.006 0.006,-0.012 0.01,-0.0179 0.001,-0.002 0.002,-0.004 0.004,-0.006 l 0.007,-0.013 c 0.002,-0.004 0.005,-0.008 0.007,-0.0127 l 0.001,-0.002 0.003,-0.005 c 0.004,-0.008 0.008,-0.0152 0.012,-0.0225 0.1257,-0.22744 0.27332,-0.4421 0.44076,-0.64087 0.003,-0.004 0.006,-0.007 0.008,-0.0106 0.0606,-0.078 0.0883,-0.17667 0.0772,-0.27482 -0.0233,-0.20307 -0.20733,-0.35233 -0.41085,-0.33326 -0.0984,0.009 -0.18934,0.0568 -0.25328,0.13214 -0.14093,0.16721 -0.27015,0.34388 -0.38684,0.52882 l -0.003,0.004 c -0.0102,0.0162 -0.0201,0.0324 -0.0303,0.0482 -0.005,0.008 -0.0102,0.0169 -0.0155,0.0258 -0.15472,0.2559 -0.28507,0.52578 -0.38931,0.80607 -0.0521,0.13995 -0.0975,0.28233 -0.13599,0.42662 -6.7e-4,0.003 -0.001,0.005 -0.002,0.008 -0.004,0.0127 -0.007,0.0257 -0.0102,0.0388 -10e-4,0.004 -0.002,0.007 -0.003,0.0109 -0.002,0.007 -0.004,0.0137 -0.005,0.0208 l -0.005,0.0208 c -0.004,0.0137 -0.007,0.0275 -0.01,0.0415 0,10e-4 -7.5e-4,0.002 -7.5e-4,0.004 -3.3e-4,0.002 -0.001,0.004 -0.001,0.006 v 0.001 c -0.002,0.009 -0.004,0.0176 -0.006,0.0261 -6.7e-4,0.002 -0.001,0.005 -0.002,0.007 -0.13641,0.6021 -0.15495,1.22499 -0.0546,1.83416 7.2e-4,0.005 0.001,0.01 0.002,0.0144 0.10346,0.61994 0.32844,1.21337 0.662,1.74607 0.006,0.009 0.0113,0.018 0.0169,0.0268 l 0.0159,0.0247 c 0.005,0.008 0.0106,0.0166 0.0159,0.0246 0.008,0.012 0.0155,0.0236 0.0233,0.0356 0.005,0.007 0.009,0.0137 0.0137,0.0204 0.002,0.003 0.004,0.006 0.006,0.008 0.008,0.0116 0.0159,0.0233 0.0239,0.0349 0.002,0.002 0.004,0.005 0.005,0.007 7.1e-4,0.001 0.002,0.002 0.002,0.004 l 0.003,0.004 c 0.0177,0.0257 0.0356,0.0512 0.0539,0.0764 0.01,0.0138 0.0201,0.0279 0.0303,0.0416 0.008,0.0116 0.0169,0.0229 0.0251,0.0342 0.004,0.005 0.008,0.0106 0.012,0.0159 l 0.0201,0.0264 c 0.004,0.005 0.008,0.0109 0.0127,0.0162 0.006,0.008 0.013,0.0166 0.0194,0.025 0.004,0.005 0.007,0.009 0.0106,0.0134 0.007,0.009 0.0144,0.018 0.0215,0.0272 0.005,0.006 0.009,0.0113 0.0134,0.0166 0.006,0.008 0.0127,0.0159 0.0194,0.0236 0.005,0.006 0.009,0.0109 0.0137,0.0162 0.006,0.008 0.0134,0.0159 0.0201,0.024 0.005,0.006 0.01,0.0113 0.0145,0.0169 0.006,0.008 0.013,0.0155 0.0197,0.0233 0.0106,0.0127 0.0215,0.025 0.0324,0.037 0.0109,0.0123 0.0229,0.0257 0.0345,0.0387 0.0116,0.0127 0.0239,0.0268 0.0363,0.0398 0.0123,0.0134 0.0243,0.0264 0.0366,0.0395 0.0123,0.013 0.0247,0.0261 0.0374,0.0391 0.25994,0.27041 0.5511,0.50896 0.86739,0.71061 l 0.007,0.005 0.0254,0.0159 c 0.47543,0.29957 0.99998,0.51296 1.54951,0.63029 l 0.0254,0.005 0.0233,0.005 c 0.0166,0.003 0.0328,0.007 0.0493,0.01 0.008,0.002 0.0166,0.003 0.0247,0.005 l 0.0127,0.002 0.0127,0.002 0.0261,0.005 0.006,0.001 0.009,0.002 c 0.01,0.002 0.019,0.003 0.0289,0.005 l 0.0349,0.006 0.0353,0.005 0.0352,0.005 c 0.0116,0.002 0.0236,0.003 0.0352,0.005 l 0.0352,0.005 0.0222,0.003 0.0229,0.003 c 0.007,7.1e-4 0.0138,0.002 0.0205,0.002 0.0144,0.002 0.0285,0.003 0.043,0.005 l 0.031,0.003 0.0187,0.002 0.0261,0.002 c 0.0625,0.006 0.12511,0.0101 0.18778,0.013 0.0293,0.002 0.0587,0.003 0.0881,0.004 h 0.0116 l 0.0535,0.001 h 0.13741 c 0.0183,0 0.0363,-7.1e-4 0.0546,-0.001 h 0.004 c 0.0187,-3.8e-4 0.037,-10e-4 0.0557,-0.002 l 0.0285,-0.001 0.0285,-0.001 c 0.0173,-6.7e-4 0.0349,-0.002 0.0522,-0.003 0.0257,-0.001 0.0511,-0.003 0.0768,-0.005 0.0568,-0.004 0.11351,-0.01 0.17016,-0.0159 0.0102,-0.001 0.0204,-0.002 0.031,-0.004 0.0106,-0.001 0.0208,-0.002 0.031,-0.004 l 0.012,-10e-4 c 0.01,-0.001 0.0197,-0.002 0.0292,-0.004 0.012,-0.001 0.0243,-0.003 0.0363,-0.005 l 0.007,-0.001 c 0.0137,-0.002 0.0275,-0.004 0.0416,-0.006 l 0.005,-7.2e-4 0.0268,-0.004 0.0254,-0.004 0.0151,-0.002 h 0.002 c 0.0194,-0.004 0.0384,-0.007 0.0578,-0.0102 l 0.004,-7.1e-4 0.0338,-0.006 c 0.56251,-0.10503 1.10153,-0.31064 1.59105,-0.607 0.009,-0.005 0.0173,-0.0106 0.0261,-0.0159 0.0379,-0.0233 0.0755,-0.0471 0.11273,-0.0715 0.16269,-0.10645 0.3188,-0.22255 0.46754,-0.34773 0.0764,-0.0645 0.12406,-0.15686 0.13243,-0.2565 0.008,-0.0996 -0.0228,-0.19855 -0.087,-0.27516 h -0.001 z"
   style="fill:#1066df;fill-rule:nonzero;stroke-width:0.0373907"
   id="path1" />
        </g>
        <g
   transform="matrix(3.9987,0,0,3.9987,-38.875,0.251891)"
   id="g2">
            <path
   d="m 118.55535,124.534 c 0.0666,8e-5 0.13206,-0.0177 0.18953,-0.0515 0.0748,-0.0434 0.15091,-0.0844 0.22831,-0.12294 0.0494,-0.0245 0.0994,-0.048 0.14971,-0.0705 0.008,-0.004 0.0169,-0.007 0.0254,-0.0113 0.006,-0.002 0.0113,-0.005 0.0173,-0.007 0.0113,-0.005 0.0222,-0.01 0.0335,-0.0145 l 0.025,-0.0105 c 0.017,-0.007 0.034,-0.014 0.0511,-0.0208 l 0.0194,-0.008 0.0321,-0.0127 c 0.008,-0.003 0.0155,-0.006 0.0232,-0.009 0.0366,-0.0138 0.0733,-0.0268 0.11064,-0.0395 l 0.0218,-0.007 c 0.0436,-0.0146 0.0874,-0.0285 0.13143,-0.0416 l 0.0218,-0.006 c 0.057,-0.0165 0.1143,-0.0318 0.17192,-0.0458 l 0.019,-0.005 0.0222,-0.005 0.0151,-0.004 0.0162,-0.004 c 0.0106,-0.002 0.0215,-0.005 0.0321,-0.007 0.0162,-0.004 0.0324,-0.007 0.0489,-0.0102 l 0.0272,-0.005 c 0.0366,-0.007 0.0733,-0.0137 0.10993,-0.0201 0.0176,-0.003 0.0356,-0.006 0.0532,-0.008 0.0179,-0.003 0.0359,-0.005 0.0546,-0.008 l 0.004,-6.8e-4 c 0.0261,-0.004 0.0521,-0.007 0.0782,-0.0102 l 0.0549,-0.006 c 0.0183,-0.002 0.0366,-0.004 0.055,-0.005 0.0183,-0.002 0.0366,-0.003 0.0553,-0.005 0.0116,-7.1e-4 0.0233,-0.002 0.0345,-0.002 l 0.0694,-0.004 c 0.0116,-7.1e-4 0.0233,-0.001 0.0345,-0.002 0.007,0 0.0137,-7.5e-4 0.0208,-7.5e-4 l 0.019,-6.7e-4 0.0219,-7.1e-4 0.0218,-7.1e-4 c 0.0148,-3.8e-4 0.0296,-6.8e-4 0.044,-6.8e-4 h 0.0521 c 0.16632,0 0.33259,0.0102 0.49749,0.031 0.0349,0.004 0.0697,0.009 0.10462,0.0144 0.007,0.001 0.0151,0.002 0.0229,0.004 l 0.0384,0.006 0.007,0.001 0.006,10e-4 c 0.01,0.002 0.0194,0.003 0.0289,0.005 l 0.01,0.002 0.0127,0.002 0.0127,0.002 0.0239,0.005 c 0.008,0.001 0.0169,0.003 0.025,0.005 l 0.007,0.001 c 0.019,0.004 0.0384,0.008 0.0574,0.0123 l 0.0176,0.004 c 0.0134,0.003 0.0264,0.006 0.0398,0.009 0.0155,0.004 0.031,0.007 0.0465,0.0113 0.0144,0.004 0.0289,0.007 0.0433,0.0109 l 0.0155,0.004 0.0165,0.004 h 7.1e-4 c 0.0106,0.003 0.0212,0.006 0.0314,0.008 10e-4,0 0.003,7.1e-4 0.004,10e-4 0.005,0.001 0.01,0.003 0.0144,0.004 0.007,0.002 0.0134,0.004 0.0201,0.006 l 0.0166,0.005 c 0.008,0.002 0.0155,0.005 0.0233,0.007 l 0.0183,0.006 0.0166,0.005 0.008,0.002 h 7.1e-4 l 0.01,0.003 0.0201,0.006 0.0127,0.004 0.0166,0.005 c 0.01,0.003 0.0194,0.006 0.0292,0.01 0.0148,0.005 0.0296,0.0102 0.0444,0.0151 0.0652,0.0229 0.12979,0.0473 0.19376,0.0733 l 0.0218,0.009 c 0.0159,0.007 0.0317,0.0131 0.0476,0.0201 0.0542,0.0231 0.10645,0.0505 0.1564,0.0817 0.46436,0.29135 0.66129,0.88713 0.43863,1.40645 -0.11864,0.27606 -0.34216,0.49401 -0.62113,0.60562 -0.27897,0.11161 -0.59122,0.1078 -0.86739,-0.0106 -0.21403,-0.0917 -0.44402,-0.14022 -0.67681,-0.14302 h -6.7e-4 c -0.0675,-7.1e-4 -0.13506,0.002 -0.20225,0.01 -0.0303,0.003 -0.0602,0.007 -0.0906,0.012 -0.0134,0.002 -0.0271,0.005 -0.0405,0.007 l -0.012,0.002 c -0.005,0.001 -0.0102,0.002 -0.0152,0.003 -0.007,0.001 -0.0151,0.003 -0.0225,0.005 h -0.001 c -0.008,0.002 -0.0159,0.004 -0.024,0.006 l -0.019,0.005 -0.0113,0.003 -0.0183,0.005 c -0.006,0.001 -0.0116,0.003 -0.0173,0.005 l -0.012,0.003 c -0.0243,0.007 -0.0487,0.0141 -0.0726,0.0218 -0.01,0.003 -0.0194,0.006 -0.0289,0.01 l -0.0144,0.005 c -0.005,0.002 -0.01,0.003 -0.0145,0.005 l -0.0141,0.005 c -0.0141,0.005 -0.0285,0.0106 -0.0422,0.0162 -0.0705,0.0282 -0.13913,0.061 -0.20543,0.098 -0.004,0.002 -0.009,0.005 -0.013,0.007 -0.009,0.005 -0.0176,0.0102 -0.0264,0.0151 -0.009,0.005 -0.0173,0.0102 -0.0261,0.0159 -0.008,0.005 -0.0163,0.0102 -0.0243,0.0155 l -0.0212,0.0138 c -0.005,0.003 -0.01,0.006 -0.0144,0.009 -0.003,0.002 -0.005,0.004 -0.008,0.006 -0.003,0.002 -0.007,0.005 -0.0102,0.007 -0.004,0.003 -0.008,0.006 -0.012,0.008 -0.008,0.006 -0.0162,0.0113 -0.024,0.0172 -0.008,0.006 -0.0162,0.012 -0.0243,0.0179 -0.004,0.003 -0.008,0.006 -0.012,0.009 -0.0841,0.0647 -0.16201,0.137 -0.23287,0.21597 l -0.002,0.002 c -0.006,0.007 -0.012,0.0134 -0.0179,0.0204 -0.006,0.006 -0.0113,0.0131 -0.0169,0.0197 l -0.006,0.007 c -0.007,0.008 -0.0141,0.0169 -0.0208,0.0254 -0.002,0.003 -0.005,0.006 -0.007,0.008 -0.006,0.007 -0.0116,0.0148 -0.0173,0.0222 -0.004,0.005 -0.008,0.0106 -0.0123,0.0159 -0.0113,0.0148 -0.0222,0.0296 -0.0328,0.0448 v 3.4e-4 c -0.0796,0.11299 -0.14545,0.23503 -0.19623,0.36358 0,7.1e-4 -3.7e-4,0.001 -7.1e-4,0.002 l -0.006,0.0159 -0.006,0.0155 c -10e-4,0.004 -0.003,0.008 -0.005,0.0123 -0.001,0.004 -0.004,0.01 -0.005,0.0151 -0.002,0.006 -0.004,0.0123 -0.006,0.0183 -0.002,0.006 -0.004,0.0131 -0.006,0.0194 -0.0935,0.28077 -0.11401,0.58076 -0.0595,0.87162 0.002,0.0106 0.004,0.0208 0.006,0.0314 0.0437,0.21843 0.12896,0.42644 0.25119,0.61268 l 0.01,0.0152 c 0.12473,0.18807 0.28499,0.34997 0.47172,0.47669 0.006,0.004 0.012,0.008 0.018,0.012 0.23276,0.15574 0.49958,0.25325 0.77792,0.28432 l 0.0201,0.002 0.0179,0.002 0.008,6.7e-4 c 0.11165,0.01 0.22405,0.009 0.33573,-0.003 0.004,-3.4e-4 0.009,-0.001 0.0131,-0.002 h 10e-4 c 0.23264,-0.0261 0.45781,-0.0981 0.66234,-0.21208 0.0432,-0.0242 0.0813,-0.0566 0.11206,-0.0955 0.0307,-0.039 0.0535,-0.0836 0.0669,-0.13143 0.0134,-0.0479 0.0176,-0.0976 0.0116,-0.14691 -0.006,-0.0493 -0.0213,-0.0969 -0.0455,-0.14021 -0.0242,-0.0433 -0.0568,-0.0814 -0.0958,-0.11203 -0.039,-0.0308 -0.0836,-0.0535 -0.13143,-0.0669 -0.0477,-0.0136 -0.0977,-0.0175 -0.1469,-0.0116 -0.0493,0.006 -0.0969,0.0211 -0.14022,0.0454 -0.184,0.10226 -0.39544,0.1444 -0.60457,0.12051 l -0.0109,-10e-4 c -0.006,-7.1e-4 -0.0127,-0.002 -0.019,-0.002 -0.006,-0.001 -0.0134,-0.002 -0.0204,-0.003 -0.008,-10e-4 -0.0167,-0.003 -0.025,-0.005 -0.013,-0.002 -0.0259,-0.005 -0.0387,-0.008 -0.004,-7.1e-4 -0.007,-0.002 -0.0109,-0.002 l -0.0127,-0.003 c -0.004,-0.001 -0.008,-0.002 -0.0127,-0.003 l -0.0127,-0.004 c -0.004,-0.001 -0.007,-0.002 -0.0106,-0.003 l -0.0137,-0.004 c -0.008,-0.002 -0.0162,-0.005 -0.0243,-0.008 -0.004,-0.001 -0.008,-0.003 -0.012,-0.004 -0.008,-0.003 -0.0162,-0.006 -0.0239,-0.009 -0.012,-0.005 -0.0238,-0.009 -0.0356,-0.0144 l -0.009,-0.004 -0.01,-0.004 -0.009,-0.005 -0.0148,-0.007 c -0.15203,-0.0744 -0.28305,-0.18557 -0.3812,-0.32343 l -0.008,-0.0127 c -0.003,-0.004 -0.006,-0.008 -0.008,-0.012 -0.003,-0.004 -0.005,-0.007 -0.007,-0.0109 -0.10212,-0.15842 -0.15824,-0.34212 -0.16205,-0.53057 v -0.0331 c 0,-0.005 0,-0.0105 3.3e-4,-0.0162 3.4e-4,-0.005 3.4e-4,-0.0106 7.1e-4,-0.0162 0,-0.004 0,-0.008 7.1e-4,-0.0116 l 6.8e-4,-0.0116 c 7.1e-4,-0.01 0.001,-0.019 0.002,-0.0282 3.7e-4,-0.004 7.1e-4,-0.008 10e-4,-0.0123 7.1e-4,-0.007 0.002,-0.0148 0.003,-0.0225 6.7e-4,-0.006 0.001,-0.0113 0.002,-0.0169 l 0.002,-0.0127 c 0.001,-0.008 0.002,-0.0155 0.004,-0.0233 10e-4,-0.008 0.003,-0.0148 0.004,-0.0222 0.002,-0.007 0.004,-0.0162 0.005,-0.0243 10e-4,-0.005 0.002,-0.0106 0.004,-0.0162 0.001,-0.004 0.002,-0.008 0.003,-0.0127 l 0.007,-0.0264 c 0.0113,-0.0366 0.0243,-0.073 0.0395,-0.10817 0.0221,-0.0516 0.0485,-0.10118 0.0789,-0.14833 0.004,-0.006 0.009,-0.0138 0.0137,-0.0204 0.003,-0.005 0.006,-0.009 0.009,-0.013 0.005,-0.007 0.01,-0.0138 0.0148,-0.0204 l 0.008,-0.0105 c 0.003,-0.004 0.006,-0.007 0.008,-0.0109 0.004,-0.005 0.007,-0.009 0.011,-0.0138 0.004,-0.005 0.007,-0.009 0.0109,-0.0134 l 0.0113,-0.013 c 0.006,-0.008 0.0134,-0.0151 0.0204,-0.0225 l 0.001,-10e-4 c 0.008,-0.008 0.0155,-0.0166 0.0236,-0.0247 0.006,-0.006 0.0123,-0.0123 0.019,-0.0183 l 0.005,-0.005 c 0.0386,-0.0363 0.0799,-0.0695 0.12368,-0.0994 0.008,-0.006 0.0169,-0.0113 0.025,-0.0165 0.004,-0.003 0.008,-0.006 0.0134,-0.008 0.005,-0.003 0.01,-0.006 0.0148,-0.009 0.005,-0.003 0.01,-0.006 0.0152,-0.009 0.0529,-0.03 0.10828,-0.0553 0.16556,-0.0758 l 0.0247,-0.008 c 0.006,-0.002 0.0109,-0.004 0.0166,-0.005 0.006,-0.002 0.0109,-0.003 0.0165,-0.005 0.006,-10e-4 0.0113,-0.003 0.0169,-0.005 0.006,-0.001 0.0109,-0.003 0.0162,-0.004 0.012,-0.003 0.024,-0.006 0.0359,-0.008 l 0.0155,-0.003 0.0116,-0.002 0.012,-0.002 c 0.008,-10e-4 0.0151,-0.002 0.0229,-0.004 h 6.7e-4 c 0.0478,-0.007 0.0961,-0.0105 0.14448,-0.0105 h 0.0166 c 0.13105,0.002 0.25997,0.0303 0.38048,0.0817 0.78356,0.33611 1.69922,0.10391 2.22699,-0.56479 0.26103,-0.33094 0.40431,-0.7397 0.40693,-1.1612 v -0.004 c 10e-4,-0.37084 -0.10645,-0.73401 -0.31005,-1.04394 -0.20355,-0.30997 -0.49404,-0.55316 -0.83501,-0.69898 -0.0123,-0.005 -0.0243,-0.0105 -0.0366,-0.0155 -0.0125,-0.005 -0.025,-0.0101 -0.0373,-0.0155 -0.0187,-0.008 -0.037,-0.0151 -0.056,-0.0225 -0.0187,-0.007 -0.0373,-0.0148 -0.056,-0.0218 l -0.0306,-0.0116 c -0.0102,-0.004 -0.0204,-0.008 -0.0307,-0.0113 -0.009,-0.003 -0.018,-0.007 -0.0271,-0.01 l -0.0243,-0.009 -0.0377,-0.013 c -0.0261,-0.009 -0.0522,-0.0177 -0.0786,-0.0261 l -0.018,-0.006 -0.0215,-0.007 -0.0324,-0.0102 -0.0218,-0.007 -0.0194,-0.006 -0.0275,-0.008 -0.0553,-0.0159 c -0.0126,-0.004 -0.0253,-0.007 -0.0381,-0.0102 l -0.0359,-0.01 h -0.001 l -0.008,-0.002 c -0.0208,-0.005 -0.0412,-0.0106 -0.062,-0.0155 l -0.0212,-0.005 -0.0246,-0.006 c -0.0127,-0.003 -0.0247,-0.006 -0.037,-0.008 l -0.003,-7.1e-4 -0.037,-0.008 c -0.0257,-0.006 -0.0515,-0.0109 -0.0772,-0.0162 l -0.0226,-0.004 -0.0328,-0.006 c -0.007,-0.001 -0.0148,-0.003 -0.0218,-0.004 l -0.0314,-0.006 -0.0113,-0.002 c -0.0246,-0.004 -0.0493,-0.008 -0.074,-0.0123 -0.0259,-0.004 -0.0519,-0.008 -0.0779,-0.0116 l -0.031,-0.004 -0.0176,-0.002 c -0.002,0 -0.004,-6.7e-4 -0.006,-6.7e-4 l -0.0106,-0.001 -0.0106,-10e-4 -0.0204,-0.002 -0.0141,-0.002 -0.0272,-0.003 -0.008,-0.001 c -0.0109,-10e-4 -0.0218,-0.002 -0.0331,-0.004 l -0.0306,-0.003 -0.0106,-0.001 -0.0303,-0.003 c -0.012,-0.001 -0.024,-0.002 -0.036,-0.003 -0.0543,-0.004 -0.1087,-0.007 -0.1631,-0.01 h -0.0123 l -0.007,-3.8e-4 -0.0264,-0.001 -0.0374,-0.001 c -0.0276,-6.4e-4 -0.0552,-10e-4 -0.0828,-10e-4 h -0.081 c -0.0116,0 -0.0229,0 -0.0345,3.7e-4 -0.0116,3.4e-4 -0.0222,3.4e-4 -0.0331,6.7e-4 -0.011,0 -0.0219,3.8e-4 -0.0331,7.5e-4 -0.0159,3.4e-4 -0.0321,0.001 -0.0479,0.002 l -0.0278,0.001 -0.0127,6.7e-4 -0.0208,0.001 -0.0271,10e-4 -0.0246,0.001 h -0.004 c -0.21738,0.0137 -0.43335,0.0422 -0.64652,0.0856 l -0.008,0.001 c -0.0173,0.004 -0.0345,0.007 -0.0522,0.0109 l -0.003,7.5e-4 c -0.008,0.002 -0.0155,0.003 -0.0233,0.005 -0.0765,0.0169 -0.15218,0.0356 -0.2276,0.056 -0.37903,0.10354 -0.74377,0.25373 -1.08582,0.44712 l -0.037,0.0211 -0.0148,0.008 -0.006,0.004 -0.006,0.004 c -0.0692,0.0438 -0.12227,0.10903 -0.1511,0.18568 -0.0288,0.0766 -0.0322,0.16055 -0.01,0.23922 0.023,0.0785 0.0707,0.14762 0.13599,0.19694 0.0655,0.0492 0.14534,0.0756 0.22726,0.0754 h 3.7e-4 z"
   style="fill:#1066df;fill-rule:nonzero;stroke-width:0.0373907"
   id="path2" />
        </g>
        <g
   transform="matrix(3.9987,0,0,3.9987,-38.875,0.251891)"
   id="g3">
            <path
   d="m 117.97718,126.25438 -0.003,0.005 c -0.17398,0.28346 -0.30346,0.59193 -0.384,0.91461 -3.8e-4,0.002 -0.001,0.004 -0.001,0.005 l -0.005,0.0222 c -7.1e-4,0.004 -0.002,0.007 -0.002,0.0109 -0.002,0.007 -0.003,0.0141 -0.005,0.0211 -0.0936,0.40535 -0.10888,0.82487 -0.0451,1.23595 7.1e-4,0.004 0.001,0.007 0.001,0.0105 0.002,0.0104 0.004,0.0209 0.005,0.0314 l 7.1e-4,0.004 c 0,0 0,0.002 3.7e-4,0.003 0.0756,0.44588 0.24282,0.87131 0.49109,1.24933 l 0.006,0.01 c 0.0239,0.0363 0.0486,0.0719 0.074,0.10712 0.01,0.0134 0.0194,0.0264 0.0289,0.0395 0.51715,0.69621 1.29047,1.15896 2.14843,1.2856 l 0.005,7.1e-4 0.0215,0.003 h 0.003 l 0.0176,0.003 h 0.004 l 0.019,0.003 c 0.2584,0.0326 0.5198,0.0343 0.77862,0.005 l 0.0166,-0.002 c 0.005,-7.1e-4 0.0106,-10e-4 0.0159,-0.002 l 0.0222,-0.003 0.004,-7.1e-4 h 0.003 l 0.005,-0.001 0.0208,-0.003 0.007,-0.001 c 0.0127,-0.002 0.0246,-0.004 0.0366,-0.005 h 3.4e-4 c 0.54317,-0.0838 1.05651,-0.30328 1.49241,-0.63804 0.0398,-0.0299 0.0732,-0.0676 0.0983,-0.11064 0.0251,-0.0431 0.0415,-0.0908 0.0483,-0.14021 0.0137,-0.0998 -0.0132,-0.20102 -0.0747,-0.28081 -0.0305,-0.0395 -0.0684,-0.0727 -0.11168,-0.0976 -0.0433,-0.0249 -0.091,-0.041 -0.14059,-0.0472 -0.0495,-0.006 -0.0998,-0.003 -0.14796,0.0105 -0.048,0.0134 -0.093,0.036 -0.13247,0.0666 -0.26727,0.20513 -0.57301,0.35454 -0.8991,0.43934 -0.004,10e-4 -0.008,0.002 -0.0127,0.003 -0.0825,0.0211 -0.16598,0.0379 -0.25015,0.0504 h -0.004 c -0.01,0.002 -0.0197,0.003 -0.0296,0.005 l -0.0109,0.001 c -0.10806,0.0141 -0.21694,0.0211 -0.3259,0.0211 h -7.1e-4 c -0.23265,0 -0.46421,-0.0321 -0.68807,-0.0955 l -0.002,-7.1e-4 c -0.0174,-0.005 -0.0348,-0.0102 -0.0522,-0.0155 -0.0256,-0.008 -0.0511,-0.0162 -0.0765,-0.025 l -0.0391,-0.0138 -0.0169,-0.006 -0.005,-0.002 c -0.01,-0.004 -0.0197,-0.007 -0.0296,-0.0112 l -0.008,-0.003 -0.0148,-0.006 -0.004,-10e-4 h -7.1e-4 c -0.01,-0.004 -0.0197,-0.008 -0.0296,-0.012 l -0.007,-0.003 -0.008,-0.004 c -0.0148,-0.006 -0.0292,-0.0127 -0.044,-0.019 l -0.012,-0.005 c -0.42442,-0.19304 -0.78741,-0.49961 -1.04881,-0.88574 l -0.006,-0.009 -0.0109,-0.0165 -0.01,-0.0148 c -0.25987,-0.4024 -0.40038,-0.87034 -0.40517,-1.34935 v -0.0324 c 0,-0.0131 0,-0.0261 3.7e-4,-0.0391 v -0.003 c 0.001,-0.0493 0.004,-0.0983 0.007,-0.14691 3.3e-4,-0.005 7.1e-4,-0.0106 10e-4,-0.0155 0,-0.002 3.7e-4,-0.005 7.5e-4,-0.007 0.0236,-0.26439 0.089,-0.52339 0.19372,-0.76733 0.0468,-0.10926 0.10118,-0.21507 0.1628,-0.3167 0.002,-0.004 0.005,-0.009 0.008,-0.0131 0.0449,-0.0724 0.0935,-0.14245 0.14552,-0.20994 0.13397,-0.17462 0.29019,-0.33095 0.46469,-0.46507 0.0515,-0.0397 0.10444,-0.0773 0.15888,-0.11273 0.0465,-0.0301 0.094,-0.0588 0.14234,-0.086 0.2706,-0.15136 0.56659,-0.25201 0.87338,-0.29696 0.11916,-0.0169 0.23937,-0.0254 0.35973,-0.0254 h 7.1e-4 c 0.009,0 0.0183,-3.7e-4 0.0278,-0.001 h 0.002 c 0.32545,0.004 0.64704,0.0712 0.94666,0.19835 0.005,0.002 0.0106,0.004 0.0159,0.007 h 7.1e-4 c 0.092,0.0398 0.19623,0.0412 0.28925,0.004 0.14329,-0.0571 0.23777,-0.19649 0.23777,-0.35073 0,-0.0481 -0.009,-0.0958 -0.0271,-0.1404 -0.0372,-0.093 -0.10989,-0.16751 -0.20187,-0.20715 h -7.1e-4 c -0.55495,-0.23933 -1.16577,-0.31946 -1.76368,-0.23144 l -0.0131,0.002 -0.0208,0.003 -0.004,7.1e-4 -0.0155,0.002 c -0.4503,0.0726 -0.88033,0.23919 -1.26197,0.48896 l -0.003,0.002 c -0.006,0.004 -0.0116,0.007 -0.0173,0.0113 l -0.0176,0.0116 c -0.004,0.003 -0.008,0.005 -0.0117,0.008 -0.35218,0.23773 -0.65422,0.54239 -0.88889,0.89663 -0.005,0.007 -0.01,0.0148 -0.0148,0.0222 l -0.003,0.004 -0.0151,0.0236 -0.009,0.0138 c -0.003,0.005 -0.006,0.01 -0.009,0.0148 -0.002,0.003 -0.004,0.006 -0.005,0.008 l -0.006,0.01 -6.7e-4,0.002 3.7e-4,-7.5e-4 z"
   style="fill:#1066df;fill-rule:nonzero;stroke-width:0.0373907"
   id="path3" />
        </g>
    </g>
</svg>
