<?xml version="1.0" encoding="UTF-8" standalone="no"?>
<svg
   width="47.698009"
   height="47.697826"
   viewBox="0 0 47.698009 47.697826"
   version="1.1"
   xml:space="preserve"
   style="clip-rule:evenodd;fill-rule:evenodd;stroke-linejoin:round;stroke-miterlimit:2"
   id="svg3"
   xmlns="http://www.w3.org/2000/svg"
   xmlns:svg="http://www.w3.org/2000/svg"><defs
   id="defs3" />
    <g
   transform="matrix(1.00373,0,0,1.01105,-487.95462,-493.80808)"
   id="g3">
        <g
   transform="matrix(3.98212,0,0,3.98212,0.583005,2.53258)"
   id="g1">
            <path
   d="m 127.92419,131.90365 c 2.21768,0 4.00305,-1.78537 4.00305,-3.94664 0,-2.16132 -1.78537,-3.94664 -4.00305,-3.94664 -2.21764,0 -4.00301,1.78537 -4.00301,3.94664 0,2.16127 1.78542,3.94664 4.00301,3.94664 z"
   style="fill:#46b549;fill-rule:nonzero;stroke-width:0.0465801"
   id="path1" />
        </g>
        <g
   transform="matrix(3.98212,0,0,3.98212,0.583005,2.53258)"
   id="g2">
            <path
   d="m 131.27735,132.13916 c 0.2152,0.20388 0.20207,0.55216 -0.0447,0.7164 -2.32174,1.54474 -5.47424,1.31822 -7.53611,-0.72599 -2.34922,-2.33041 -2.34922,-6.05156 0,-8.38196 2.05111,-2.05111 5.23356,-2.27223 7.55935,-0.7103 0.23588,0.15837 0.25279,0.49072 0.0519,0.69167 -0.17141,0.17141 -0.44279,0.18511 -0.64541,0.052 -1.93387,-1.26987 -4.56872,-1.03977 -6.25167,0.64317 -1.99213,1.93574 -1.99213,5.09308 -0.0376,7.02881 1.68327,1.68327 4.31878,1.91319 6.25269,0.64248 0.20342,-0.13364 0.47488,-0.12372 0.65156,0.0437 z m 0.86728,-0.84766 c 0.20402,0.21538 0.55239,0.20341 0.71789,-0.0428 1.34654,-2.00318 1.34081,-4.64777 -0.0171,-6.64545 -0.15912,-0.23407 -0.48984,-0.24972 -0.68999,-0.0496 -0.17239,0.17244 -0.1853,0.44563 -0.05,0.64849 1.09287,1.63874 1.09124,3.7702 -0.005,5.43632 -0.1341,0.20388 -0.12362,0.47591 0.0442,0.65306 z"
   style="fill:#46b549;fill-rule:nonzero;stroke-width:0.0465801"
   id="path2" />
        </g>
    </g>
</svg>
