<?xml version="1.0" encoding="UTF-8" standalone="no"?>
<svg
   width="137.17741"
   height="90.732246"
   viewBox="0 0 137.17741 90.732246"
   version="1.1"
   xml:space="preserve"
   style="clip-rule:evenodd;fill-rule:evenodd;stroke-linejoin:round;stroke-miterlimit:2"
   id="svg3"
   xmlns="http://www.w3.org/2000/svg"
   xmlns:svg="http://www.w3.org/2000/svg"><defs
   id="defs3" />
    <g
   transform="matrix(3.98978,0,0,3.98978,-441.52173,-467.05304)"
   id="g3">
        <path
   d="m 115.83111,138.20735 c -0.0194,0.005 -0.0398,0.005 -0.0593,0 -0.0506,-0.0148 -0.0887,-0.057 -0.0983,-0.1088 -0.0545,-0.34558 1.44619,-3.52439 2.13682,-4.75928 0.34612,-0.61349 2.93787,-2.30734 4.68483,-3.13789 0.15589,-0.0736 1.16581,-0.55835 1.19666,-0.50308 0.0309,0.0551 -0.91171,0.7887 -0.96095,0.83055 -1.53661,1.23141 -4.2837,4.45301 -5.71782,6.28584 -0.91333,1.16768 -1.08035,1.37227 -1.18191,1.39266 z"
   style="fill-rule:nonzero;stroke-width:0.134155"
   id="path1" />
        <path
   d="m 131.55905,121.20924 c 2.41546,-0.0755 3.68779,0.61362 4.32073,1.22752 0.5114,0.45572 0.81996,1.09752 0.85645,1.78157 0.0164,0.91427 -0.9733,1.18835 -1.56506,1.35403 -0.0798,0.0204 -0.17628,0.0471 -0.2561,0.0737 0.40864,0.16327 1.34611,0.45613 2.18995,0.718 3.50936,1.09216 4.99459,1.63642 5.12069,2.10905 0.0268,0.10907 -0.008,0.22444 -0.0901,0.30078 -0.18849,0.15749 -0.5448,0.1308 -1.13911,0.0307 l -0.086,-0.0144 c -6.09694,-0.96953 -10.26608,-0.89991 -10.30901,-0.89991 -11.18585,0.16971 -16.90394,8.26757 -18.78439,10.92921 -0.49382,0.70163 -0.69049,0.97906 -0.8716,0.98403 -0.0525,-9.4e-4 -0.1033,-0.0181 -0.14556,-0.0492 -0.0923,-0.0777 -0.14288,-0.19452 -0.13617,-0.31499 -0.0408,-1.26213 2.61482,-8.72639 8.26865,-12.96676 2.35254,-1.76669 6.3513,-3.55538 12.10615,-2.14742 -0.32895,-0.35283 -0.51368,-0.8166 -0.51744,-1.29889 -1.69022,0.22082 -4.71219,-0.0204 -6.86404,-0.30077 -1.85,-0.24752 -4.97635,-0.7506 -5.17704,-1.46256 -0.0431,-0.15562 0.0204,-0.32318 0.4199,-0.55648 1.79768,-1.05553 4.37802,-1.28453 4.37802,-1.28453 7.27522,-0.70217 8.28112,1.78735 8.28112,1.78735 z"
   style="fill-rule:nonzero;stroke-width:0.134155"
   id="path2" />
        <path
   d="m 123.6058,118.82597 c 0,0 -2.1984,-1.29298 -1.84409,-1.63642 0.35443,-0.34344 4.38016,0 7.02744,1.13522 2.64728,1.13509 2.81484,2.40137 2.81484,2.40137 -0.86262,-1.41131 -3.1348,-2.28291 -7.99832,-1.90017 z m 18.78506,8.26194 c -0.39334,0.0122 -0.73946,0.0185 -1.26186,0.0272 -0.12839,-0.002 -0.25543,-0.0264 -0.3751,-0.0731 l -3.36394,-1.06774 c -0.0983,-0.0307 -0.73758,-0.23719 -0.68097,-0.32117 0.0567,-0.0841 0.64529,-0.0797 0.74778,-0.0757 h 0.22739 c 4.12822,0.12074 6.55589,0.40796 7.24532,0.85282 0.0922,0.0514 0.1367,0.16085 0.10651,0.26201 -0.0373,0.15012 -0.0761,0.31982 -2.64513,0.39562 z m -26.31746,1.22765 c -0.10894,0.0208 -0.22163,0.009 -0.32358,-0.0349 -0.16998,-0.0696 -0.25007,-0.20445 -0.40864,-0.40796 -0.4085,-0.49906 -0.57365,-1.06358 -0.44043,-1.4686 0.0875,-0.24993 0.29997,-0.43654 0.55916,-0.49087 0.8052,-0.20445 1.71276,0.1088 2.04855,0.49087 0.27233,0.29917 0.1477,0.39683 -0.20473,0.68942 -0.20592,0.17186 -0.40098,0.35645 -0.58397,0.55246 -0.29917,0.30345 -0.4081,0.55312 -0.64636,0.66956 z"
   style="fill-rule:nonzero;stroke-width:0.134155"
   id="path3" />
    </g>
</svg>
