<?xml version="1.0" encoding="UTF-8" standalone="no"?>
<svg
   width="31.999844"
   height="32.000027"
   viewBox="0 0 31.999844 32.000027"
   version="1.1"
   xml:space="preserve"
   style="clip-rule:evenodd;fill-rule:evenodd;stroke-linejoin:round;stroke-miterlimit:2"
   id="svg1"
   xmlns="http://www.w3.org/2000/svg"
   xmlns:svg="http://www.w3.org/2000/svg"><defs
   id="defs1" />
    <g
   transform="matrix(4.11463,0,0,4.11463,-511.97267,-511.98571)"
   id="g1">
        <path
   d="m 130.61938,125.18687 0.67056,-0.67056 c 0.11431,-0.11431 0.29997,-0.11435 0.41431,-3e-5 l 0.41428,0.41431 c 0.11435,0.11431 0.11432,0.29997 0,0.41431 v -3e-5 l -0.67053,0.67053 c 0.47544,0.6451 0.75647,1.44185 0.75647,2.30375 0,0.86188 -0.28103,1.65866 -0.75631,2.30353 l 0.67059,0.6706 c 0.11431,0.11431 0.11431,0.29993 -3e-5,0.41428 l -0.41431,0.41431 c -0.11431,0.11431 -0.29994,0.11431 -0.41425,0 l -0.6706,-0.67059 c -0.64496,0.47537 -1.44175,0.75637 -2.30362,0.75637 -0.86191,0 -1.65866,-0.281 -2.30359,-0.75634 l -0.67063,0.67062 c -0.11431,0.11435 -0.29994,0.11435 -0.41428,0 l -0.41431,-0.41431 c -0.11432,-0.11431 -0.11432,-0.29994 0,-0.41425 l 0.67062,-0.67062 c -0.47534,-0.64494 -0.75634,-1.44172 -0.75634,-2.3036 0,-0.8619 0.281,-1.65865 0.75637,-2.30365 l -0.67056,-0.67057 c -0.11431,-0.11431 -0.11434,-0.29997 -3e-5,-0.41431 l 0.41431,-0.41428 c 0.11431,-0.11434 0.29997,-0.11431 0.41431,0 h -3e-5 l 0.6706,0.67059 c 0.6449,-0.47531 1.44165,-0.75631 2.30356,-0.75631 0.86187,0 1.65866,0.281 2.30344,0.75625 z m -2.30344,0.41553 c 1.49941,0 2.71672,1.21731 2.71672,2.71675 0,1.49941 -1.21731,2.71672 -2.71672,2.71672 -1.49944,0 -2.71675,-1.21731 -2.71675,-2.71672 0,-1.49944 1.21731,-2.71675 2.71675,-2.71675 z"
   style="fill:#959595;stroke-width:0.03125"
   id="path1" />
    </g>
</svg>
