<svg xmlns="http://www.w3.org/2000/svg" width="32" height="32" fill="none"><g fill="#C82020" clip-path="url(#a)"><path d="M30.5 16.092c0 2.02-.541 3.913-1.484 5.546a11.138 11.138 0 0 1-4.062 4.061l-.174.099a11.037 11.037 0 0 1-5.37 1.386H8.32l2.08-5.546H4.16l2.08-5.546h13.17l-2.079 5.546h2.08a5.546 5.546 0 1 0-.003-11.092H8.318L10.398 5h9.01c2.02 0 3.914.541 5.546 1.484a11.137 11.137 0 0 1 4.062 4.062 11.047 11.047 0 0 1 1.484 5.546ZM6.237 16.09H0l2.08-5.545h6.238l-2.08 5.546Z"/></g><defs><clipPath id="a"><path fill="#fff" d="M0 0h32v32H0z"/></clipPath></defs></svg>