<?xml version="1.0" encoding="UTF-8" standalone="no"?>
<svg
   width="32.000023"
   height="23.273355"
   viewBox="0 0 32.000023 23.273355"
   version="1.1"
   xml:space="preserve"
   style="clip-rule:evenodd;fill-rule:evenodd;stroke-linejoin:round;stroke-miterlimit:2"
   id="svg1"
   xmlns="http://www.w3.org/2000/svg"
   xmlns:svg="http://www.w3.org/2000/svg"><defs
   id="defs1" />
    <g
   transform="matrix(4.3809,0,0,4.3809,-520.11263,-549.1162)"
   id="g1">
        <path
   d="m 126.02722,127.99952 c 0,0.48384 -0.12963,0.93715 -0.35547,1.32812 -0.23356,0.40366 -0.569,0.73909 -0.97266,0.97266 -0.014,0.008 -0.0276,0.0157 -0.0417,0.0235 -0.38107,0.21137 -0.8195,0.3319 -1.28603,0.3319 h -2.65582 l 0.49788,-1.32809 h -1.49406 l 0.49787,-1.32812 h 3.15413 l -0.49788,1.32812 h 0.49788 c 0.61887,0 1.13862,-0.42319 1.28603,-0.99622 0.0278,-0.10844 0.0418,-0.21997 0.0417,-0.3319 0,-0.73322 -0.5945,-1.32813 -1.32812,-1.32813 h -2.65584 l 0.4979,-1.32812 h 2.15794 c 0.48384,0 0.93716,0.12962 1.32812,0.35546 0.40366,0.23357 0.7391,0.569 0.97266,0.97266 0.22584,0.39056 0.35547,0.84425 0.35547,1.32813 z m -5.81078,0 h -1.49366 l 0.49788,-1.32813 h 1.49409 z"
   style="fill:#c82020;fill-rule:nonzero;stroke-width:0.03125"
   id="path1" />
    </g>
</svg>
