<svg width="32" height="32" fill="none" xmlns="http://www.w3.org/2000/svg"><g clip-path="url(#a)" fill-rule="evenodd" clip-rule="evenodd" fill="#959595"><path d="M16.038.486c8.585 0 15.555 6.97 15.555 15.554 0 8.585-6.97 15.555-15.555 15.555-8.584 0-15.554-6.97-15.554-15.555C.484 7.456 7.454.486 16.038.486Zm0 4.687c5.998 0 10.867 4.87 10.867 10.867 0 5.998-4.869 10.867-10.867 10.867-5.997 0-10.866-4.869-10.866-10.867 0-5.997 4.869-10.867 10.866-10.867Z"/><path d="M31.251 4.143a1.17 1.17 0 0 0 0-1.657L29.594.829a1.172 1.172 0 0 0-1.657 0L22.924 5.84a1.172 1.172 0 0 0 0 1.657l1.658 1.657a1.17 1.17 0 0 0 1.657 0l5.012-5.012ZM9.154 26.239c.457-.458.457-1.2 0-1.658l-1.657-1.657a1.173 1.173 0 0 0-1.658 0L.827 27.937a1.172 1.172 0 0 0 0 1.657l1.657 1.657c.457.457 1.2.457 1.657 0l5.013-5.012ZM4.143.829a1.172 1.172 0 0 0-1.657 0L.829 2.486a1.172 1.172 0 0 0 0 1.657L5.84 9.156c.457.457 1.2.457 1.657 0l1.657-1.658a1.17 1.17 0 0 0 0-1.657L4.143.83Zm22.094 22.095a1.172 1.172 0 0 0-1.658 0l-1.657 1.658a1.172 1.172 0 0 0 0 1.657l5.013 5.012a1.17 1.17 0 0 0 1.657 0l1.657-1.657c.457-.457.457-1.2 0-1.657l-5.012-5.013Z"/></g><defs><clipPath id="a"><path fill="#fff" d="M0 0h32v32H0z"/></clipPath></defs></svg>