<?xml version="1.0" encoding="UTF-8" standalone="no"?>
<svg
   width="32.000153"
   height="40.03204"
   viewBox="0 0 32.000153 40.03204"
   version="1.1"
   xml:space="preserve"
   style="clip-rule:evenodd;fill-rule:evenodd;stroke-linejoin:round;stroke-miterlimit:2"
   id="svg1"
   xmlns="http://www.w3.org/2000/svg"
   xmlns:svg="http://www.w3.org/2000/svg"><defs
   id="defs1" />
    <g
   transform="matrix(4.67367,0,0,4.67367,-911.15094,-1786.2476)"
   id="g1">
        <path
   d="m 194.95406,387.90593 0.3966,-0.95294 h 0.41866 c -0.011,-0.16894 -0.0165,-0.33236 -0.0165,-0.49026 0,-0.21301 0.009,-0.41129 0.0275,-0.59492 h -0.82626 l 0.3966,-0.95294 h 0.62246 c 0.58019,-1.81406 1.88751,-2.72109 3.92194,-2.72109 0.66833,0 1.30363,0.0845 1.90588,0.25336 v 1.20084 c -0.56551,-0.24606 -1.16595,-0.36906 -1.80122,-0.36906 -1.21918,0 -2.00321,0.54533 -2.35206,1.63595 h 3.63 l -0.3966,0.95294 h -3.47027 c -0.0184,0.11751 -0.0275,0.27545 -0.0275,0.47373 0,0.2277 0.007,0.4315 0.022,0.61145 h 3.02407 l -0.39107,0.95294 h -2.42367 c 0.26072,0.661 0.57839,1.12094 0.95294,1.37981 0.37458,0.25892 0.90887,0.38834 1.60293,0.38834 0.49574,0 1.03923,-0.11751 1.63047,-0.35253 v 1.1292 c -0.56186,0.20565 -1.23019,0.30847 -2.00502,0.30847 -2.03812,0 -3.32706,-0.9511 -3.86686,-2.85329 z"
   style="fill:#003f20;fill-rule:nonzero;stroke-width:0.0391704"
   id="path1" />
    </g>
</svg>
