<svg xmlns="http://www.w3.org/2000/svg" xml:space="preserve" style="fill-rule:evenodd;clip-rule:evenodd;stroke-linejoin:round;stroke-miterlimit:2" viewBox="0 0 32 32"><path d="M1557.55 1656.54a122.038 122.038 0 0 1 35.17 98.16 122.021 122.021 0 0 1-53.52 89.48C1382.81 1942.28 1198.1 2000 1000 2000c-198.095 0-382.814-57.72-538.236-157.25a120.321 120.321 0 0 1-52.766-88.23 120.298 120.298 0 0 1 34.662-96.78c-1.175-1.23-1.146-1.26-1.116-1.29 36.635-36.59 94.118-41.95 136.886-12.76C699.914 1723.87 844.613 1770 1000 1770c155.35 0 300.02-46.11 421.08-125.39 42.39-28.92 99.37-23.59 135.66 12.7.79-.78.8-.78.81-.77Zm98.99-1214.085a122 122 0 0 1 187.64 18.348C1942.28 617.186 2000 801.905 2000 1000c0 198.1-57.72 382.81-157.25 538.24a120.302 120.302 0 0 1-88.23 52.76 120.283 120.283 0 0 1-96.78-34.66c-1.23 1.18-1.26 1.15-1.29 1.12-36.59-36.64-41.95-94.12-12.76-136.89C1723.87 1300.09 1770 1155.39 1770 1000c0-155.351-46.11-300.019-125.39-421.077-28.92-42.394-23.59-99.37 12.7-135.66-.78-.795-.78-.801-.77-.808ZM157.254 461.764a120.293 120.293 0 0 1 88.223-52.766 120.294 120.294 0 0 1 96.779 34.662c1.234-1.175 1.263-1.146 1.293-1.116 36.592 36.635 41.95 94.118 12.761 136.886C276.127 699.914 230 844.613 230 1000c0 155.35 46.106 300.02 125.388 421.08 28.925 42.39 23.592 99.37-12.698 135.66.783.79.777.8.77.81a122.037 122.037 0 0 1-98.157 35.17 122.02 122.02 0 0 1-89.484-53.52C57.725 1382.81 0 1198.1 0 1000c0-198.095 57.725-382.814 157.254-538.236ZM1000 370c347.71 0 630 282.294 630 630 0 347.71-282.29 630-630 630-347.706 0-630-282.29-630-630 0-347.706 282.294-630 630-630Zm-557.545-26.54a121.998 121.998 0 0 1 18.348-187.641C617.186 57.725 801.905 0 1000 0c198.1 0 382.81 57.725 538.24 157.254a120.274 120.274 0 0 1 52.76 88.223 120.28 120.28 0 0 1-34.66 96.779c1.18 1.234 1.15 1.263 1.12 1.293-36.64 36.592-94.12 41.95-136.89 12.761C1300.09 276.127 1155.39 230 1000 230c-155.351 0-300.019 46.106-421.077 125.388-42.394 28.925-99.37 23.592-135.66-12.698-.795.783-.801.777-.808.77Z" style="fill:#208e7a" transform="scale(.016)"/><path d="M561 1044.09s-38.404-.03-38.404 53.77c0 56.23 34.783 57.82 47.945 57.82h59.226c27.263 97.77 76.619 172.04 148.066 222.8 71.448 50.77 154.647 76.15 249.597 76.15 40.43 0 77.32-3.52 110.7-10.57 33.37-7.06 61.57-16.46 84.61-28.21 23.03-11.75 40.89-25.38 53.58-40.89 12.69-15.51 19.04-32.2 19.04-50.06 0-18.8-4.47-35.37-15.51-47.95-28.85-32.86-78.85-2.86-117.04 11.99-30.44 11.83-67.69 19.04-112.82 19.04-53.583 0-101.058-12.7-142.423-38.08-41.364-25.38-72.858-63.46-94.48-114.22l317.913-1.59s50.26-10 50.14-56.23c-.14-53.77-50.14-56.4-47.95-56.4L561 1044.09Zm0-84.09s-38.404.024-38.404-53.775c0-56.225 34.783-57.816 47.945-57.816h59.226c27.263-97.771 76.619-172.039 148.066-222.805 71.448-50.765 154.647-76.148 249.597-76.148 40.43 0 77.32 3.526 110.7 10.576 33.37 7.051 61.57 16.452 84.61 28.203 23.03 11.752 40.89 25.383 53.58 40.895 12.69 15.511 19.04 32.198 19.04 50.06 0 18.802-4.47 35.366-15.51 47.945C1251 760 1201 730 1162.81 715.149c-30.44-11.832-67.69-19.037-112.82-19.037-53.583 0-101.058 12.691-142.423 38.074-41.364 25.383-72.858 63.457-94.48 114.223L1131 850s50.26 10 50.14 56.225c-.14 53.775-50.14 56.406-47.95 56.406L561 960Z" style="fill:#fff;fill-rule:nonzero" transform="matrix(.016 0 0 .016 -.064 -.033)"/></svg>