<?xml version="1.0" encoding="UTF-8" standalone="no"?>
<svg
   width="32.000229"
   height="32"
   viewBox="0 0 32.000229 32"
   version="1.1"
   xml:space="preserve"
   style="clip-rule:evenodd;fill-rule:evenodd;stroke-linejoin:round;stroke-miterlimit:2"
   id="svg3"
   xmlns="http://www.w3.org/2000/svg"
   xmlns:svg="http://www.w3.org/2000/svg"><defs
   id="defs3" />
    <g
   transform="matrix(4,0,0,4,-495.99977,-496)"
   id="g3">
        <g
   transform="scale(0.128)"
   id="g1">
            <path
   d="m 1017.9497,1021.0431 c 0.6687,0.6688 1.0041,1.6028 0.9137,2.5441 -0.09,0.9412 -0.5971,1.7944 -1.3806,2.3234 -4.9953,3.3675 -11.0106,5.3394 -17.4828,5.3394 -6.47228,0 -12.48762,-1.9719 -17.47744,-5.3472 -0.78128,-0.5275 -1.28675,-1.3781 -1.37672,-2.3166 -0.0901,-0.9384 0.24444,-1.8696 0.91113,-2.5362 -0.006,-0.01 -0.006,-0.01 -0.006,-0.01 1.39947,-1.3994 3.57759,-1.6525 5.26068,-0.6112 3.68063,2.3047 8.03097,3.6309 12.68865,3.6309 4.6578,0 9.0081,-1.3262 12.6944,-3.6219 1.6787,-1.0384 3.8512,-0.7859 5.2472,0.61 0.01,-0.01 0.01,-0.01 0.01,-0.01 z m 3.0934,-38.99276 c 0.6688,-0.66865 1.6028,-1.00415 2.5441,-0.91387 0.9412,0.0902 1.7944,0.59719 2.3234,1.38081 3.3675,4.9951 5.3394,11.01044 5.3394,17.48272 0,6.4722 -1.9719,12.4875 -5.3472,17.4775 -0.5275,0.7812 -1.3781,1.2866 -2.3166,1.3766 -0.9384,0.09 -1.8696,-0.2444 -2.5362,-0.911 -0.01,0.01 -0.01,0.01 -0.01,0.01 -1.3994,-1.3994 -1.6525,-3.5778 -0.6112,-5.2606 2.3047,-3.6807 3.6309,-8.031 3.6309,-12.6888 0,-4.65766 -1.3262,-9.008 -3.6219,-12.69434 -1.0384,-1.67882 -0.7859,-3.85135 0.61,-5.24716 -0.01,-0.008 -0.01,-0.008 -0.01,-0.008 z m -46.94607,0.47222 c 0.58706,-0.86906 1.56981,-1.39115 2.6186,-1.39115 0.83778,0 1.64209,0.33315 2.23449,0.92556 0.007,-0.006 0.007,-0.006 0.007,-0.006 1.39934,1.39947 1.6525,3.57759 0.6114,5.26068 -2.30484,3.68063 -3.63103,8.03097 -3.63103,12.68865 0,4.6578 1.32619,9.0081 3.62181,12.6944 1.03841,1.6787 0.78585,3.8512 -0.61,5.2472 0.008,0.01 0.008,0.01 0.007,0.01 -0.66862,0.6687 -1.60256,1.0041 -2.54381,0.9137 -0.94125,-0.09 -1.79441,-0.5971 -2.32372,-1.3806 -3.36735,-4.9953 -5.33922,-11.0106 -5.33922,-17.4828 0,-6.4723 1.97187,-12.48764 5.34703,-17.47746 z M 1000,980.3125 c 10.8659,0 19.6875,8.82169 19.6875,19.6875 0,10.8659 -8.8216,19.6875 -19.6875,19.6875 -10.86581,0 -19.6875,-8.8216 -19.6875,-19.6875 0,-10.86581 8.82169,-19.6875 19.6875,-19.6875 z m -17.94966,-1.35575 c -0.59418,-0.59416 -0.92837,-1.40087 -0.92837,-2.24119 0,-1.05187 0.52365,-2.03753 1.39531,-2.62634 4.9951,-3.36735 11.01044,-5.33922 17.48272,-5.33922 6.4722,0 12.4875,1.97187 17.4775,5.34703 0.7812,0.52778 1.2866,1.37838 1.3766,2.31681 0.09,0.93844 -0.2444,1.86963 -0.911,2.53628 0.01,0.007 0.01,0.007 0.01,0.007 -1.3994,1.39934 -3.5778,1.6525 -5.2606,0.6114 -3.6807,-2.30484 -8.031,-3.63103 -12.6888,-3.63103 -4.65766,0 -9.008,1.32619 -12.69434,3.62181 -1.67882,1.03841 -3.85135,0.78585 -5.24716,-0.61 -0.008,0.008 -0.008,0.008 -0.008,0.007 z"
   style="fill:#208e7a;stroke-width:0.03125"
   id="path1" />
        </g>
        <g
   transform="matrix(0.128,0,0,0.128,-0.512,-0.262)"
   id="g2">
            <path
   d="m 990.15625,1003.3607 c 0,0 -1.20012,-9e-4 -1.20012,1.6803 0,1.7572 1.08696,1.8069 1.49828,1.8069 h 1.85081 c 0.85197,3.0553 2.39434,5.3763 4.62706,6.9625 2.23275,1.5866 4.83272,2.3797 7.79992,2.3797 1.2634,0 2.4162,-0.11 3.4594,-0.3303 1.0428,-0.2206 1.924,-0.5144 2.644,-0.8816 0.7197,-0.3672 1.2778,-0.7931 1.6744,-1.2778 0.3966,-0.4847 0.595,-1.0062 0.595,-1.5644 0,-0.5875 -0.1397,-1.1053 -0.4847,-1.4984 -0.9016,-1.0269 -2.4641,-0.089 -3.6575,0.3747 -0.9512,0.3697 -2.1153,0.595 -3.5256,0.595 -1.6745,0 -3.1581,-0.3969 -4.4507,-1.19 -1.29266,-0.7931 -2.27684,-1.9831 -2.95253,-3.5694 l 9.93473,-0.05 c 0,0 1.5707,-0.3125 1.5669,-1.7572 0,-1.6803 -1.5669,-1.7625 -1.4984,-1.7625 z m 0,-2.6278 c 0,0 -1.20012,8e-4 -1.20012,-1.68046 0,-1.75703 1.08696,-1.80675 1.49828,-1.80675 h 1.85081 c 0.85197,-3.05534 2.39434,-5.37622 4.62706,-6.96265 2.23275,-1.58641 4.83272,-2.37963 7.79992,-2.37963 1.2634,0 2.4162,0.11019 3.4594,0.3305 1.0428,0.22034 1.924,0.51413 2.644,0.88134 0.7197,0.36725 1.2778,0.79322 1.6744,1.27797 0.3966,0.48472 0.595,1.00619 0.595,1.56438 0,0.58756 -0.1397,1.10519 -0.4847,1.49828 -0.9016,1.02703 -2.4641,0.0895 -3.6575,-0.37456 -0.9512,-0.36975 -2.1153,-0.59491 -3.5256,-0.59491 -1.6745,0 -3.1581,0.39659 -4.4507,1.18981 -1.29266,0.79322 -2.27684,1.98303 -2.95253,3.56947 l 9.93473,0.0497 c 0,0 1.5707,0.3125 1.5669,1.75703 0,1.68048 -1.5669,1.76268 -1.4984,1.76268 z"
   style="fill:#ffffff;fill-rule:nonzero;stroke-width:0.03125"
   id="path2" />
        </g>
    </g>
</svg>
