<svg width="32" height="32" fill="none" xmlns="http://www.w3.org/2000/svg"><g clip-path="url(#a)"><path d="M28.236 7.48h-13.81c-.178 0-.355 0-.532.006-.524.011-1.027.037-1.517.077-.042.004-.089.01-.132.013-2.835.248-5.079 1.013-6.74 2.29-1.98 1.552-2.97 3.763-2.97 6.634 0 2.871.99 5.082 2.97 6.637 2.059 1.587 5.034 2.382 8.92 2.382 3.887 0 6.881-.795 8.922-2.382 1.981-1.555 2.974-3.763 2.974-6.637 0-1.816-.397-3.367-1.195-4.656-.005-.01-.009-.013-.013-.02a.096.096 0 0 0-.017-.026l.017-.008 3.728-2.067c1.093-.609.654-2.243-.605-2.243Zm-6.927 4.58-1.6 8.882a.89.89 0 0 1-.847.702h-2.239c-.397 0-.662-.315-.592-.702l.514-2.85h-4.808l-.514 2.85a.89.89 0 0 1-.846.702H8.138c-.397 0-.662-.315-.591-.702l1.6-8.883a.887.887 0 0 1 .845-.702h2.24c.396 0 .66.313.592.702l-.514 2.85h4.808l.514-2.85a.887.887 0 0 1 .845-.702h2.24c.396 0 .66.313.592.702Z" fill="#2BCCB9"/><path d="M31.87 7.742C31.43 6.1 29.968 5 28.236 5h-13.81c-.199 0-.397 0-.596.004a30.03 30.03 0 0 0-1.702.092l-.111.007C8.705 5.397 5.984 6.34 3.92 7.927 1.318 9.967 0 12.85 0 16.501s1.318 6.532 3.934 8.583C6.44 27.02 9.972 28 14.425 28c4.454 0 8.008-.98 10.507-2.927 2.603-2.043 3.926-4.926 3.926-8.572 0-1.308-.179-2.527-.526-3.644l1.759-.976c1.509-.835 2.223-2.502 1.779-4.139Zm-3.03 1.981-3.727 2.067-.017.008a.097.097 0 0 1 .017.026l.013.02c.798 1.29 1.195 2.84 1.195 4.657 0 2.873-.993 5.081-2.974 6.636-2.041 1.588-5.011 2.382-8.922 2.382-3.91 0-6.862-.794-8.92-2.382-1.98-1.555-2.97-3.763-2.97-6.636 0-2.874.99-5.083 2.97-6.634 1.66-1.278 3.905-2.043 6.74-2.29.043-.004.09-.01.132-.013.49-.041.993-.067 1.517-.078.177-.005.354-.005.531-.005h13.81c1.26 0 1.7 1.634.606 2.242Z" fill="#073744"/><path d="M20.717 11.357h-2.24a.887.887 0 0 0-.845.703l-.514 2.85H12.31l.514-2.85c.069-.389-.196-.703-.592-.703h-2.24a.887.887 0 0 0-.845.703l-1.6 8.882c-.07.388.194.703.591.703h2.24a.89.89 0 0 0 .845-.703l.514-2.849h4.808l-.514 2.85c-.07.387.195.702.592.702h2.24a.89.89 0 0 0 .845-.703l1.6-8.882c.07-.389-.195-.703-.591-.703Z" fill="#073744"/></g><defs><clipPath id="a"><path fill="#fff" transform="translate(0 5)" d="M0 0h32v23H0z"/></clipPath></defs></svg>