<?xml version="1.0" encoding="UTF-8" standalone="no"?>
<svg
   width="32"
   height="31.953297"
   viewBox="0 0 32 31.953297"
   version="1.1"
   xml:space="preserve"
   style="clip-rule:evenodd;fill-rule:evenodd;stroke-linejoin:round;stroke-miterlimit:2"
   id="svg1"
   xmlns="http://www.w3.org/2000/svg"
   xmlns:svg="http://www.w3.org/2000/svg"><defs
   id="defs1" />
    <g
   transform="matrix(74.7882,0,0,74.7882,16.000001,527.22876)"
   id="g1">
        <path
   d="m -0.0439375,-6.85125 -0.07996875,-0.138875 c -0.008219,-0.010781 -0.0171875,-0.020969 -0.0268437,-0.0305 -0.0111875,-0.011188 -0.0239063,-0.016781 -0.0381563,-0.016781 h -0.01525 v -0.012219 h 0.18309375 v 0.012219 h -0.01525 c -0.01425,0 -0.021875,0.00559 -0.02290625,0.016781 -0.0010312,0.010469 8.75e-4,0.021031 0.0055,0.0305 L 0.011,-6.8778125 0.09034375,-6.9913438 c 0.0050625,-0.00934 0.007625,-0.019125 0.007625,-0.029281 0,-0.011188 -0.007125,-0.016781 -0.021375,-0.016781 h -0.01525 V -7.049625 H 0.2139375 v 0.012219 H 0.1986563 c -0.0142187,0 -0.028375,0.00559 -0.0424063,0.016781 -0.0115938,0.00916 -0.0205625,0.018 -0.0268437,0.026531 l -0.003969,0.0055 -0.09584355,0.137344 H 0.2139375 v 0.0305 h -0.17 l 0.0811875,0.1406875 c 0.005906,0.00916 0.014125,0.018719 0.0247188,0.028688 0.0118125,0.011188 0.0248125,0.016781 0.0390625,0.016781 h 0.01525 v 0.012219 H 0.0210625 v -0.012219 h 0.01525 c 0.01425,0 0.021875,-0.00559 0.02290625,-0.016781 C 0.06025,-6.662 0.05825,-6.6726875 0.05340625,-6.6821875 L -0.011,-6.793875 -0.0881875,-6.6834063 c -0.0063125,0.0095 -0.0097187,0.020625 -0.0097812,0.032031 0,0.011188 0.007125,0.016781 0.021375,0.016781 h 0.01525 v 0.012219 h -0.1525938 v -0.012219 h 0.0152812 c 0.0142187,0 0.0279688,-0.00559 0.0411875,-0.016781 0.0124062,-0.010375 0.0226875,-0.020437 0.0308125,-0.030219 L -0.0293125,-6.82075 h -0.184625 v -0.0305 z"
   style="fill-rule:nonzero;stroke-width:0.03125"
   id="path1" />
    </g>
</svg>
