<?xml version="1.0" encoding="UTF-8" standalone="no"?>
<svg
   width="31.999895"
   height="32.059803"
   viewBox="0 0 31.999895 32.059803"
   version="1.1"
   xml:space="preserve"
   style="clip-rule:evenodd;fill-rule:evenodd;stroke-linejoin:round;stroke-miterlimit:2"
   id="svg7"
   xmlns="http://www.w3.org/2000/svg"
   xmlns:svg="http://www.w3.org/2000/svg"><defs
   id="defs7" />
    <g
   transform="matrix(16,0,0,16,16.964389,16.029901)"
   id="g7">
        <g
   transform="translate(-32,-32)"
   id="g6">
            <clipPath
   id="_clip1">
                <rect
   x="0"
   y="0"
   width="64"
   height="64"
   id="rect1" />
            </clipPath>
            <g
   clip-path="url(#_clip1)"
   id="g5">
                <g
   transform="matrix(0.632461,0,0,0.64,-188.632,0)"
   id="g4">
                    <g
   id="g3">
                        <g
   id="g2">
                            <g
   id="g1">
                                <path
   d="m 347.54451,50.939252 h 0.002 l -0.25839,0.626168 h 0.62617 l 0.25839,-0.626168 h -0.002 l 0.25839,-0.626168 h -0.62617 z m 2.78811,-1.56542 c 0,0.518154 -0.4211,0.939252 -0.93925,0.939252 h -0.9643 l 0.26612,-0.626168 h 0.69818 c 0.1722,0 0.31308,-0.140888 0.31308,-0.313084 0,-0.172196 -0.14088,-0.313084 -0.31308,-0.313084 h -0.43206 l 0.25986,-0.626168 h 0.1722 c 0.51815,0 0.93925,0.421098 0.93925,0.939252 z m -2.27768,0.313084 h -0.62617 l -0.25839,0.626168 h 0.62617 z m 0.44229,-1.252336 h -0.62617 l -0.25839,0.626168 h 0.62617 z"
   style="fill:#77bb65;fill-rule:nonzero;stroke-width:0.0313084"
   id="path1" />
                            </g>
                        </g>
                    </g>
                </g>
            </g>
        </g>
    </g>
</svg>
