<?xml version="1.0" encoding="UTF-8" standalone="no"?>
<svg
   width="32.000843"
   height="33.0326"
   viewBox="0 0 32.000843 33.0326"
   version="1.1"
   xml:space="preserve"
   style="clip-rule:evenodd;fill-rule:evenodd;stroke-linejoin:round;stroke-miterlimit:2"
   id="svg1"
   xmlns="http://www.w3.org/2000/svg"
   xmlns:svg="http://www.w3.org/2000/svg"><defs
   id="defs1" />
    <g
   transform="matrix(4,0,0,4,-479.99972,-495.48404)"
   id="g1">
        <path
   d="m 127.98296,126.31787 c -0.0115,-0.1029 -0.0287,-0.20507 -0.0516,-0.30603 -0.0236,-0.10368 -0.0534,-0.20591 -0.0891,-0.30607 -0.0374,-0.10448 -0.0809,-0.20668 -0.13035,-0.30603 -0.0528,-0.10545 -0.11235,-0.20742 -0.17823,-0.30529 -0.0464,-0.0696 -0.0964,-0.13677 -0.14951,-0.20136 -0.0289,-0.0357 -0.0589,-0.0707 -0.0899,-0.1047 -0.068,-0.0764 -0.14052,-0.14849 -0.21726,-0.216 -0.0343,-0.0312 -0.0697,-0.0613 -0.10607,-0.09 -0.0649,-0.0525 -0.13222,-0.10184 -0.2018,-0.1479 -0.0866,-0.0581 -0.17661,-0.1109 -0.26955,-0.15816 -0.0126,-0.007 -0.0253,-0.0131 -0.0383,-0.019 -0.0998,-0.0496 -0.20261,-0.0929 -0.30784,-0.12962 -0.10055,-0.0355 -0.2031,-0.0651 -0.30713,-0.0886 -0.2021,-0.0453 -0.40858,-0.0681 -0.61571,-0.0681 h -4.46171 c -0.16629,-1e-4 -0.32816,0.0539 -0.46109,0.15377 -0.0583,0.0427 -0.10991,0.0937 -0.15323,0.15155 -0.10045,0.1319 -0.15481,0.29322 -0.15465,0.45903 v 5.5059 c 0,0.0513 0.002,0.10252 0.007,0.15304 0.007,0.10287 0.0231,0.205 0.0471,0.30529 0.0502,0.21325 0.13606,0.41651 0.25409,0.60109 0.002,0.004 0.005,0.008 0.007,0.011 0.0701,0.11004 0.15126,0.21258 0.24226,0.30604 0.0184,0.0198 0.0376,0.0388 0.0575,0.0571 l 7.1e-4,7.4e-4 c 0.0939,0.0904 0.19678,0.17081 0.3071,0.24013 0.004,0.003 0.007,0.005 0.0111,0.007 0.0944,0.0596 0.19364,0.11106 0.29677,0.15377 0.0998,0.0413 0.20274,0.0743 0.30787,0.0988 0.10094,0.0238 0.20365,0.0395 0.3071,0.0469 h 7.4e-4 v 0.007 h 2.61532 v -0.003 c 0.0432,-0.008 0.0823,-0.0312 0.11029,-0.0651 0.028,-0.0338 0.0432,-0.0763 0.0429,-0.12016 4.2e-4,-0.043 -0.0145,-0.0848 -0.042,-0.11787 -0.0191,-0.024 -0.0439,-0.0428 -0.0722,-0.0549 -0.0131,-0.007 -0.0261,-0.0145 -0.039,-0.022 -0.0522,-0.0292 -0.10358,-0.0599 -0.15393,-0.0923 -0.053,-0.0329 -0.10384,-0.0688 -0.1539,-0.10542 -0.0142,-0.01 -0.028,-0.0199 -0.0413,-0.0308 -0.0384,-0.0288 -0.0759,-0.0585 -0.11268,-0.0893 -0.0338,-0.028 -0.067,-0.0568 -0.0994,-0.0864 -0.0463,-0.0418 -0.091,-0.0852 -0.13406,-0.13033 -0.017,-0.0168 -0.0335,-0.0341 -0.0493,-0.052 -0.009,-0.009 -0.017,-0.0183 -0.0251,-0.0271 -0.0657,-0.0725 -0.12765,-0.14823 -0.18568,-0.22697 -0.0431,-0.0579 -0.0839,-0.11752 -0.12229,-0.17864 -0.0266,-0.0418 -0.0522,-0.0843 -0.0766,-0.12739 -0.0561,-0.0987 -0.10623,-0.20065 -0.15023,-0.30529 -0.0298,-0.0698 -0.0566,-0.14094 -0.0803,-0.21307 -0.0109,-0.0306 -0.0207,-0.0617 -0.0294,-0.093 -0.0156,-0.0505 -0.0293,-0.10154 -0.0413,-0.15303 -0.0125,-0.0507 -0.0236,-0.10171 -0.0331,-0.15303 -0.0188,-0.10123 -0.0323,-0.20339 -0.0405,-0.30603 -0.003,-0.0373 -0.005,-0.0746 -0.007,-0.112 -0.002,-0.0422 -0.003,-0.0844 -0.003,-0.12668 v -0.98477 h -1.02155 c -0.044,1.6e-4 -0.0867,-0.0151 -0.12074,-0.043 -0.0339,-0.0279 -0.0569,-0.0668 -0.0649,-0.10996 -0.0101,-0.0498 10e-4,-0.10162 0.0309,-0.14278 l 0.007,-0.01 0.0928,-0.13181 0.056,-0.0791 0.067,-0.0952 0.18413,-0.2621 0.0309,-0.0439 0.21581,-0.30607 0.0611,-0.0871 0.15397,-0.21894 0.1539,-0.21816 0.0611,-0.0871 0.0928,-0.13181 0.12309,-0.17419 0.0309,-0.044 0.18487,-0.26209 0.12226,-0.17426 0.0928,-0.13178 0.0604,-0.0857 c 0.0174,-0.0249 0.0406,-0.0452 0.0676,-0.0592 0.0548,-0.0285 0.12016,-0.0285 0.17494,0 0.027,0.014 0.0502,0.0343 0.0676,0.0592 l 0.0604,0.0857 0.0921,0.13107 0.123,0.17497 0.0309,0.0432 0.15391,0.21891 0.0309,0.0439 0.1231,0.17423 0.0928,0.1318 0.0604,0.0864 0.15468,0.2189 0.15319,0.2182 0.0619,0.0879 0.21581,0.30603 0.0302,0.0432 0.18487,0.26288 0.1231,0.17422 0.0928,0.13178 0.007,0.01 c 0.0298,0.0412 0.041,0.093 0.0309,0.14275 -0.007,0.0336 -0.0222,0.0648 -0.0451,0.0903 -0.023,0.0255 -0.0524,0.0445 -0.0852,0.0547 -0.0182,0.005 -0.037,0.008 -0.056,0.008 h -1.0208 v 0.91813 c -1e-4,0.10509 0.0217,0.20909 0.0641,0.30529 0.0234,0.0539 0.0534,0.10484 0.0891,0.15155 0.0803,0.106 0.18629,0.18993 0.30787,0.24383 0.0971,0.0422 0.20197,0.0639 0.30787,0.0637 0.0132,0 0.0265,0 0.0398,-7.4e-4 0.0896,-9e-4 0.17903,-0.006 0.26806,-0.0161 0.10348,-0.0114 0.20626,-0.0285 0.30787,-0.0513 0.10023,-0.0226 0.1991,-0.051 0.29607,-0.0849 h 0.011 v -0.004 c 0.10526,-0.0367 0.20806,-0.08 0.30787,-0.12958 0.104,-0.0511 0.20461,-0.10884 0.30122,-0.17281 h 0.007 v -0.004 c 0.10823,-0.0718 0.21113,-0.15129 0.30787,-0.23794 0.0234,-0.0204 0.0462,-0.0414 0.0685,-0.063 0.085,-0.0805 0.16465,-0.16633 0.23862,-0.257 0.0133,-0.0161 0.0258,-0.0322 0.0383,-0.0491 0.0761,-0.097 0.14522,-0.19929 0.20697,-0.30603 0.022,-0.0372 0.0429,-0.075 0.0626,-0.11348 0.033,-0.063 0.0634,-0.12723 0.0913,-0.19258 0.0208,-0.0505 0.0405,-0.10155 0.0589,-0.153 0.0182,-0.0502 0.0347,-0.10097 0.0493,-0.15229 0.029,-0.10065 0.0524,-0.20284 0.07,-0.30607 0.0173,-0.10126 0.0286,-0.20345 0.0339,-0.30603 h 0.004 v -0.61216 c -9e-5,-0.102 -0.006,-0.20391 -0.017,-0.30526 z"
   style="fill:#3749e7;fill-rule:nonzero;stroke-width:0.0322581"
   id="path1" />
    </g>
</svg>
