<svg width="32" height="32" fill="none" xmlns="http://www.w3.org/2000/svg"><g clip-path="url(#a)"><path d="M31.932 9.482a10.207 10.207 0 0 0-.563-2.372c-.15-.405-.323-.8-.521-1.186-.027-.051-.053-.102-.08-.15a10.645 10.645 0 0 0-1.59-2.219 9.892 9.892 0 0 0-.87-.837 10.494 10.494 0 0 0-1.232-.922 10.45 10.45 0 0 0-1.23-.687c-.4-.192-.81-.36-1.232-.502a11.198 11.198 0 0 0-1.228-.343A11.605 11.605 0 0 0 20.923 0H3.076A3.133 3.133 0 0 0 .619 1.183 2.871 2.871 0 0 0 0 2.962v21.335c0 .199.009.397.027.593a7.418 7.418 0 0 0 1.234 3.555 7.42 7.42 0 0 0 1.199 1.407l.003.003a7.577 7.577 0 0 0 1.273.96 7.938 7.938 0 0 0 2.418.978c.404.092.815.153 1.229.181h.003V32h10.46v-.011a.76.76 0 0 0 .442-.253.71.71 0 0 0 .004-.922.74.74 0 0 0-.29-.213c-.052-.028-.105-.056-.155-.085a11.796 11.796 0 0 1-1.232-.766 2.187 2.187 0 0 1-.165-.119 9.954 9.954 0 0 1-.45-.346 11.055 11.055 0 0 1-.934-.84 4.294 4.294 0 0 1-.198-.201c-.035-.034-.067-.071-.1-.105a11.352 11.352 0 0 1-1.232-1.572 10.967 10.967 0 0 1-1.229-2.502 5.243 5.243 0 0 1-.117-.36 8.402 8.402 0 0 1-.165-.594 11.207 11.207 0 0 1-.333-2.704v-3.815H7.606a.77.77 0 0 1-.483-.167.72.72 0 0 1-.258-.715.696.696 0 0 1 .122-.265l.027-.036.371-.511.224-.306.268-.37.737-1.015.123-.17.863-1.186.245-.338.616-.848.615-.846.245-.337.371-.51.492-.676.124-.17.74-1.016.489-.675.37-.51.242-.333a.747.747 0 0 1 .27-.23.78.78 0 0 1 .97.23l.242.332.369.508.492.678.123.168.616.848.124.17.492.675.371.511.242.335.619.848.612.846.248.34.863 1.186.12.167.74 1.019.493.675.37.51.027.038a.694.694 0 0 1 .124.553.728.728 0 0 1-.18.35.77.77 0 0 1-.565.243h-4.084v3.558a2.853 2.853 0 0 0 .613 1.77c.321.41.745.735 1.232.945a3.162 3.162 0 0 0 1.39.244 11.703 11.703 0 0 0 2.304-.26c.401-.09.796-.199 1.184-.33h.044v-.015c.422-.142.833-.31 1.232-.502.416-.198.819-.422 1.205-.67h.026v-.017a10.708 10.708 0 0 0 1.506-1.166c.34-.312.659-.644.954-.995a4.78 4.78 0 0 0 .153-.19 10.16 10.16 0 0 0 1.079-1.626c.13-.241.253-.491.365-.746.082-.196.162-.392.236-.593a10.567 10.567 0 0 0 .477-1.776c.07-.393.114-.789.135-1.186H32v-2.372c0-.395-.023-.79-.068-1.183Z" fill="#3749E7"/></g><defs><clipPath id="a"><path fill="#fff" d="M0 0h32v32H0z"/></clipPath></defs></svg>