<?xml version="1.0" encoding="UTF-8" standalone="no"?>
<svg
   width="31.999994"
   height="43.32584"
   viewBox="0 0 31.999994 43.32584"
   version="1.1"
   xml:space="preserve"
   style="clip-rule:evenodd;fill-rule:evenodd;stroke-linejoin:round;stroke-miterlimit:2"
   id="svg1"
   xmlns="http://www.w3.org/2000/svg"
   xmlns:svg="http://www.w3.org/2000/svg"><defs
   id="defs1" />
    <g
   transform="matrix(4.91778,0,0,4.91778,-2292.7305,-1638.137)"
   id="g1">
        <path
   d="m 466.2125,339.63635 h 1.0845 v -0.98702 h -1.0845 v -1.04794 h 1.0845 v -4.49641 h 2.36397 c 0.95046,0 1.69783,0.23964 2.24211,0.71894 0.54428,0.47929 0.81642,1.14949 0.81642,2.01059 0,0.34931 -0.0528,0.69253 -0.15841,1.02966 -0.10561,0.33713 -0.27417,0.64177 -0.50569,0.91391 -0.23153,0.27214 -0.53413,0.48945 -0.90781,0.65192 -0.37369,0.16247 -0.82861,0.24371 -1.36477,0.24371 h -1.30384 v 0.96264 h 1.21854 v 1.04795 h -1.21854 v 1.23072 H 467.297 v -1.23072 h -1.0845 z m 3.57032,-2.10807 c 0.34119,0 0.62552,-0.0548 0.85298,-0.1645 0.22746,-0.10967 0.40821,-0.25387 0.54225,-0.43259 0.13404,-0.17872 0.22949,-0.36353 0.28636,-0.55443 0.0569,-0.19091 0.0853,-0.36353 0.0853,-0.51788 0,-0.23559 -0.0548,-0.47929 -0.1645,-0.73113 -0.10967,-0.25183 -0.28839,-0.46304 -0.53616,-0.63364 -0.24777,-0.17059 -0.58287,-0.25589 -1.00529,-0.25589 h -1.36477 v 3.29006 z"
   style="fill:#003f20;fill-rule:nonzero;stroke-width:0.0423104"
   id="path1" />
    </g>
</svg>
