<svg xmlns="http://www.w3.org/2000/svg" xml:space="preserve" style="fill-rule:evenodd;clip-rule:evenodd;stroke-linejoin:round;stroke-miterlimit:2" viewBox="0 0 32 32"><path d="M1557.55 1656.54a122.038 122.038 0 0 1 35.17 98.16 122.021 122.021 0 0 1-53.52 89.48C1382.81 1942.28 1198.1 2000 1000 2000c-198.095 0-382.814-57.72-538.236-157.25a120.321 120.321 0 0 1-52.766-88.23 120.298 120.298 0 0 1 34.662-96.78c-1.175-1.23-1.146-1.26-1.116-1.29 36.635-36.59 94.118-41.95 136.886-12.76C699.914 1723.87 844.613 1770 1000 1770c155.35 0 300.02-46.11 421.08-125.39 42.39-28.92 99.37-23.59 135.66 12.7.79-.78.8-.78.81-.77Zm98.99-1214.085a122 122 0 0 1 187.64 18.348C1942.28 617.186 2000 801.905 2000 1000c0 198.1-57.72 382.81-157.25 538.24a120.302 120.302 0 0 1-88.23 52.76 120.283 120.283 0 0 1-96.78-34.66c-1.23 1.18-1.26 1.15-1.29 1.12-36.59-36.64-41.95-94.12-12.76-136.89C1723.87 1300.09 1770 1155.39 1770 1000c0-155.351-46.11-300.019-125.39-421.077-28.92-42.394-23.59-99.37 12.7-135.66-.78-.795-.78-.801-.77-.808ZM157.254 461.764a120.293 120.293 0 0 1 88.223-52.766 120.294 120.294 0 0 1 96.779 34.662c1.234-1.175 1.263-1.146 1.293-1.116 36.592 36.635 41.95 94.118 12.761 136.886C276.127 699.914 230 844.613 230 1000c0 155.35 46.106 300.02 125.388 421.08 28.925 42.39 23.592 99.37-12.698 135.66.783.79.777.8.77.81a122.037 122.037 0 0 1-98.157 35.17 122.02 122.02 0 0 1-89.484-53.52C57.725 1382.81 0 1198.1 0 1000c0-198.095 57.725-382.814 157.254-538.236ZM1000 370c347.71 0 630 282.294 630 630 0 347.71-282.29 630-630 630-347.706 0-630-282.29-630-630 0-347.706 282.294-630 630-630Zm-557.545-26.54a121.998 121.998 0 0 1 18.348-187.641C617.186 57.725 801.905 0 1000 0c198.1 0 382.81 57.725 538.24 157.254a120.274 120.274 0 0 1 52.76 88.223 120.28 120.28 0 0 1-34.66 96.779c1.18 1.234 1.15 1.263 1.12 1.293-36.64 36.592-94.12 41.95-136.89 12.761C1300.09 276.127 1155.39 230 1000 230c-155.351 0-300.019 46.106-421.077 125.388-42.394 28.925-99.37 23.592-135.66-12.698-.795.783-.801.777-.808.77Z" style="fill:#208e7a" transform="scale(.016)"/><path d="M933.212 926.083c-5.697 0-6.52-7.584-6.52-12.96 0-4.992 1.056-8.496 3.168-10.512s4.704-3.024 7.776-3.024h17.568v-59.616c0-3.456 1.008-6.192 3.024-8.208s4.656-3.504 7.92-4.464c3.072-.96 6.576-1.824 10.512-2.592 3.936-.768 7.968-1.44 12.096-2.016a180.481 180.481 0 0 1 12.384-1.296c4.13-.288 8.02-.432 11.66-.432 23.43 0 41.04 4.8 52.85 14.4 11.81 9.6 17.71 22.656 17.71 39.168 0 15.552-5.42 28.032-16.27 37.44-10.85 9.408-27.02 14.112-48.53 14.112h-85.348Zm58.568 39.456v19.279s-.662 9.072-3.788 12.673c-2.778 3.199-9.652 4.339-12.916 4.339-7.104 0-12.192-1.35-15.264-4.035-3.072-2.688-4.608-7.104-4.608-13.248v-19.008l-20.851.252c-4.093.049-6.221-3.276-6.797-5.292-.576-2.016-.864-4.176-.864-6.48 0-4.416.912-7.536 2.736-9.36 1.824-1.824 4.08-2.736 6.768-2.736 0 0 98.584-.331 120.354.408 6.2.211 8.2 1.883 9.1 4.92a23.343 23.343 0 0 1 1.01 6.768c0 3.84-.96 6.72-2.88 8.64-1.92 1.92-4.22 2.88-6.91 2.88h-65.09Zm22.75-67.392c9.99 0 17.76-1.968 23.33-5.904 5.57-3.936 8.35-9.744 8.35-17.424 0-8.064-2.97-14.112-8.93-18.144-5.95-4.032-14.11-6.048-24.48-6.048-3.45 0-7 .144-10.65.432-3.65.288-7.106.912-10.37 1.872v45.216h22.75Z" style="fill:#fff;fill-rule:nonzero" transform="translate(-62.736 -55.4) scale(.07834)"/></svg>