<?xml version="1.0" encoding="UTF-8" standalone="no"?>
<svg
   width="32.000103"
   height="31.999872"
   viewBox="0 0 32.000103 31.999872"
   version="1.1"
   xml:space="preserve"
   style="clip-rule:evenodd;fill-rule:evenodd;stroke-linejoin:round;stroke-miterlimit:2"
   id="svg3"
   xmlns="http://www.w3.org/2000/svg"
   xmlns:svg="http://www.w3.org/2000/svg"><defs
   id="defs3" />
    <g
   transform="matrix(1.23373,0,0,1.23373,-495.99778,-495.99801)"
   id="g3">
        <g
   transform="scale(0.415)"
   id="g1">
            <path
   d="m 1017.9497,1021.0431 c 0.6687,0.6688 1.0041,1.6028 0.9137,2.5441 -0.09,0.9412 -0.5971,1.7944 -1.3806,2.3234 -4.9953,3.3675 -11.0106,5.3394 -17.4828,5.3394 -6.47228,0 -12.48762,-1.9719 -17.47744,-5.3472 -0.78128,-0.5275 -1.28675,-1.3781 -1.37672,-2.3166 -0.0901,-0.9384 0.24444,-1.8696 0.91113,-2.5362 -0.006,-0.01 -0.006,-0.01 -0.006,-0.01 1.39947,-1.3994 3.57759,-1.6525 5.26068,-0.6112 3.68063,2.3047 8.03097,3.6309 12.68865,3.6309 4.6578,0 9.0081,-1.3262 12.6944,-3.6219 1.6787,-1.0384 3.8512,-0.7859 5.2472,0.61 0.01,-0.01 0.01,-0.01 0.01,-0.01 z m 3.0934,-38.99276 c 0.6688,-0.66865 1.6028,-1.00415 2.5441,-0.91387 0.9412,0.0902 1.7944,0.59719 2.3234,1.38081 3.3675,4.9951 5.3394,11.01044 5.3394,17.48272 0,6.4722 -1.9719,12.4875 -5.3472,17.4775 -0.5275,0.7812 -1.3781,1.2866 -2.3166,1.3766 -0.9384,0.09 -1.8696,-0.2444 -2.5362,-0.911 -0.01,0.01 -0.01,0.01 -0.01,0.01 -1.3994,-1.3994 -1.6525,-3.5778 -0.6112,-5.2606 2.3047,-3.6807 3.6309,-8.031 3.6309,-12.6888 0,-4.65766 -1.3262,-9.008 -3.6219,-12.69434 -1.0384,-1.67882 -0.7859,-3.85135 0.61,-5.24716 -0.01,-0.008 -0.01,-0.008 -0.01,-0.008 z m -46.94607,0.47222 c 0.58706,-0.86906 1.56981,-1.39115 2.6186,-1.39115 0.83778,0 1.64209,0.33315 2.23449,0.92556 0.007,-0.006 0.007,-0.006 0.007,-0.006 1.39934,1.39947 1.6525,3.57759 0.6114,5.26068 -2.30484,3.68063 -3.63103,8.03097 -3.63103,12.68865 0,4.6578 1.32619,9.0081 3.62181,12.6944 1.03841,1.6787 0.78585,3.8512 -0.61,5.2472 0.008,0.01 0.008,0.01 0.007,0.01 -0.66862,0.6687 -1.60256,1.0041 -2.54381,0.9137 -0.94125,-0.09 -1.79441,-0.5971 -2.32372,-1.3806 -3.36735,-4.9953 -5.33922,-11.0106 -5.33922,-17.4828 0,-6.4723 1.97187,-12.48764 5.34703,-17.47746 z M 1000,980.3125 c 10.8659,0 19.6875,8.82169 19.6875,19.6875 0,10.8659 -8.8216,19.6875 -19.6875,19.6875 -10.86581,0 -19.6875,-8.8216 -19.6875,-19.6875 0,-10.86581 8.82169,-19.6875 19.6875,-19.6875 z m -17.94966,-1.35575 c -0.59418,-0.59416 -0.92837,-1.40087 -0.92837,-2.24119 0,-1.05187 0.52365,-2.03753 1.39531,-2.62634 4.9951,-3.36735 11.01044,-5.33922 17.48272,-5.33922 6.4722,0 12.4875,1.97187 17.4775,5.34703 0.7812,0.52778 1.2866,1.37838 1.3766,2.31681 0.09,0.93844 -0.2444,1.86963 -0.911,2.53628 0.01,0.007 0.01,0.007 0.01,0.007 -1.3994,1.39934 -3.5778,1.6525 -5.2606,0.6114 -3.6807,-2.30484 -8.031,-3.63103 -12.6888,-3.63103 -4.65766,0 -9.008,1.32619 -12.69434,3.62181 -1.67882,1.03841 -3.85135,0.78585 -5.24716,-0.61 -0.008,0.008 -0.008,0.008 -0.008,0.007 z"
   style="fill:#208e7a;stroke-width:0.03125"
   id="path1" />
        </g>
        <g
   transform="matrix(2.03201,0,0,2.03201,-1627.21,-1436.95)"
   id="g2">
            <path
   d="m 1002.7757,911.84744 c -0.1781,0 -0.2038,-0.237 -0.2038,-0.405 0,-0.156 0.033,-0.2655 0.099,-0.3285 0.066,-0.063 0.147,-0.0945 0.243,-0.0945 h 0.549 v -1.863 c 0,-0.108 0.032,-0.1935 0.095,-0.2565 0.063,-0.063 0.1455,-0.1095 0.2475,-0.1395 0.096,-0.03 0.2055,-0.057 0.3285,-0.081 0.123,-0.024 0.249,-0.045 0.378,-0.063 0.1285,-0.0179 0.2576,-0.0315 0.387,-0.0405 0.1291,-0.009 0.2506,-0.0135 0.3644,-0.0135 0.7322,0 1.2825,0.15 1.6516,0.45 0.369,0.3 0.5534,0.708 0.5534,1.224 0,0.486 -0.1694,0.876 -0.5084,1.17 -0.3391,0.294 -0.8444,0.441 -1.5166,0.441 z m 1.8302,1.233 v 0.60247 c 0,0 -0.021,0.2835 -0.1184,0.39603 -0.087,0.1 -0.3016,0.1356 -0.4036,0.1356 -0.222,0 -0.381,-0.0422 -0.477,-0.1261 -0.096,-0.084 -0.144,-0.222 -0.144,-0.414 v -0.594 l -0.6516,0.008 c -0.1279,0.002 -0.1944,-0.10238 -0.2124,-0.16538 -0.018,-0.063 -0.027,-0.1305 -0.027,-0.2025 0,-0.138 0.029,-0.2355 0.086,-0.2925 0.057,-0.057 0.1275,-0.0855 0.2115,-0.0855 0,0 3.0808,-0.0103 3.7611,0.0127 0.1937,0.007 0.2562,0.0589 0.2844,0.15375 0.021,0.0686 0.032,0.13985 0.032,0.2115 0,0.12 -0.03,0.21 -0.09,0.27 -0.06,0.06 -0.1319,0.09 -0.2159,0.09 z m 0.711,-2.106 c 0.3121,0 0.555,-0.0615 0.729,-0.1845 0.1741,-0.123 0.261,-0.3045 0.261,-0.5445 0,-0.252 -0.093,-0.441 -0.2791,-0.567 -0.1859,-0.126 -0.4409,-0.189 -0.765,-0.189 -0.1078,0 -0.2188,0.005 -0.3328,0.0135 -0.1141,0.009 -0.2221,0.0285 -0.3241,0.0585 v 1.413 z"
   style="fill:#ffffff;fill-rule:nonzero;stroke-width:0.03125"
   id="path2" />
        </g>
    </g>
</svg>
