<?xml version="1.0" encoding="UTF-8" standalone="no"?>
<svg
   width="32.00584"
   height="31.99984"
   viewBox="0 0 32.00584 31.99984"
   version="1.1"
   xml:space="preserve"
   style="clip-rule:evenodd;fill-rule:evenodd;stroke-linejoin:round;stroke-miterlimit:2"
   id="svg2"
   xmlns="http://www.w3.org/2000/svg"
   xmlns:svg="http://www.w3.org/2000/svg"><defs
   id="defs2" />
    <g
   transform="matrix(3.99977,0,0,3.99977,-495.95648,-495.94264)"
   id="g2">
        <path
   d="m 131.99671,123.99279 -2.66682,2.66682 h -1.77763 c -0.49086,0 -0.88915,0.39795 -0.88915,0.88881 0,0.0999 0.0166,0.19615 0.0469,0.28572 0.0438,0.12895 0.11676,0.24612 0.21315,0.34235 0.16083,0.16117 0.38329,0.26109 0.62872,0.26109 l -0.88884,0.88881 c -0.52715,0 -1.01868,-0.15317 -1.43263,-0.41695 -0.74226,-0.47386 -1.23416,-1.30408 -1.23416,-2.24983 0,-1.47297 1.19388,-2.66682 2.66682,-2.66682 z"
   style="fill:#b2fe92;fill-rule:nonzero;stroke-width:0.0312534"
   id="path1" />
        <path
   d="m 131.99671,129.32642 c 0,1.47294 -1.19388,2.66679 -2.66682,2.66679 h -5.3336 l 2.66682,-2.66679 h 1.77797 c 0.49086,0 0.88881,-0.39794 0.88881,-0.88881 0,-0.0127 0,-0.025 -6.5e-4,-0.0373 0,-0.009 -6.6e-4,-0.0166 -0.001,-0.025 0,-0.002 0,-0.004 -6.5e-4,-0.006 0,-0.005 -6.6e-4,-0.011 -10e-4,-0.0163 0,-0.005 -6.5e-4,-0.009 -0.001,-0.014 -6.6e-4,-0.005 -0.001,-0.01 -0.002,-0.0147 0,-0.003 -6.6e-4,-0.006 -0.001,-0.009 -0.001,-0.008 -0.002,-0.0157 -0.003,-0.0233 0,-6.6e-4 0,-0.001 -6.6e-4,-0.002 -0.002,-0.01 -0.003,-0.0197 -0.006,-0.0296 -1.9e-4,-0.003 -8.7e-4,-0.006 -0.002,-0.009 -0.002,-0.01 -0.004,-0.02 -0.007,-0.03 -6.6e-4,-0.002 -0.001,-0.004 -0.002,-0.006 -0.002,-0.009 -0.005,-0.0187 -0.008,-0.028 -0.003,-0.0117 -0.007,-0.0234 -0.011,-0.035 -0.007,-0.0206 -0.015,-0.0413 -0.0233,-0.0613 -0.006,-0.013 -0.0114,-0.0259 -0.0177,-0.0386 -0.006,-0.0121 -0.0116,-0.024 -0.018,-0.0357 -0.008,-0.015 -0.0167,-0.0296 -0.025,-0.044 -0.006,-0.009 -0.0112,-0.0176 -0.017,-0.0263 -0.006,-0.01 -0.0129,-0.0193 -0.02,-0.0286 -0.003,-0.004 -0.006,-0.009 -0.009,-0.0127 -0.005,-0.007 -0.0103,-0.0137 -0.016,-0.0207 -0.005,-0.006 -0.01,-0.0126 -0.0153,-0.019 -0.007,-0.009 -0.015,-0.0174 -0.0227,-0.026 -0.009,-0.0103 -0.0186,-0.0203 -0.0286,-0.03 -0.1664,-0.16714 -0.39289,-0.26106 -0.62873,-0.26075 l 0.88882,-0.88884 c 0.0173,0 0.0346,0 0.0519,6.8e-4 0.013,0 0.026,6.3e-4 0.0393,0.001 0.035,10e-4 0.07,0.003 0.10488,0.006 0.0113,6.9e-4 0.023,0.002 0.0343,0.003 0.0436,0.003 0.0872,0.008 0.1302,0.014 0.0127,0.002 0.025,0.003 0.0376,0.005 0.0167,0.002 0.0336,0.005 0.0503,0.008 l 0.035,0.006 c 0.003,6.5e-4 0.006,6.5e-4 0.008,0.002 0.0153,0.003 0.031,0.006 0.0463,0.009 0.0193,0.004 0.039,0.008 0.0583,0.0126 l 0.012,0.003 c 0.0197,0.005 0.0396,0.009 0.0589,0.0143 6.9e-4,0 0.001,0 0.002,6.3e-4 0.0207,0.005 0.041,0.011 0.0613,0.0167 0.021,0.006 0.0423,0.0123 0.0629,0.019 0.0189,0.006 0.0376,0.0116 0.0563,0.018 0.002,0.001 0.005,0.002 0.008,0.003 0.0183,0.006 0.0369,0.0126 0.0553,0.0196 0.003,6.9e-4 0.005,0.002 0.008,0.003 0.0193,0.007 0.0386,0.014 0.0576,0.022 0.0203,0.008 0.0403,0.016 0.0603,0.0246 0.0412,0.0172 0.0819,0.0356 0.12189,0.0553 0.0182,0.009 0.0363,0.0177 0.0543,0.027 0.0193,0.01 0.0383,0.0196 0.0569,0.03 0.019,0.01 0.0376,0.0206 0.0563,0.0313 0.0186,0.0107 0.0369,0.0217 0.0556,0.0327 0.017,0.0103 0.0343,0.0206 0.0509,0.0313 0.002,10e-4 0.003,0.002 0.005,0.003 0.0357,0.0231 0.0709,0.0469 0.10554,0.0716 0.0349,0.0247 0.069,0.0504 0.10257,0.0769 0.0153,0.012 0.0303,0.024 0.0453,0.0367 0.003,0.002 0.005,0.004 0.008,0.006 0.0482,0.0399 0.095,0.0816 0.1402,0.12489 0.0154,0.015 0.0307,0.0296 0.046,0.045 0.0153,0.0153 0.03,0.0303 0.045,0.0459 0.0146,0.0153 0.029,0.031 0.0436,0.0466 0.0253,0.028 0.0503,0.0563 0.0743,0.0853 0.005,0.006 0.0103,0.0126 0.0153,0.019 0.0117,0.014 0.023,0.028 0.0343,0.0423 0.0262,0.0331 0.0515,0.0669 0.0759,0.10123 0.0244,0.0344 6.9e-4,6.9e-4 6.9e-4,10e-4 0.0126,0.0173 0.0246,0.035 0.0366,0.053 0.012,0.0177 0.0236,0.0356 0.0356,0.0536 0.0113,0.018 0.0227,0.0356 0.0336,0.0539 0.002,0.004 0.004,0.007 0.006,0.0107 0.009,0.015 0.018,0.03 0.0266,0.0453 0.0107,0.0187 0.0213,0.0373 0.0313,0.0563 0.008,0.014 0.0153,0.0283 0.0226,0.0426 0.0198,0.0382 0.0386,0.0769 0.0566,0.11589 0.005,0.0107 0.01,0.0213 0.0146,0.0323 0.007,0.0163 0.0143,0.0327 0.0213,0.0493 0.007,0.0177 0.0147,0.0356 0.0217,0.0533 0.007,0.0167 0.0133,0.034 0.0193,0.0509 0.003,0.008 0.006,0.0157 0.009,0.0237 0.005,0.0123 0.009,0.0243 0.013,0.0366 0.008,0.0243 0.0166,0.0489 0.024,0.0736 0.006,0.018 0.0113,0.0363 0.0163,0.0543 0.002,0.005 0.003,0.01 0.004,0.0143 0.005,0.019 0.0104,0.038 0.0154,0.0569 0,6.6e-4 6.5e-4,0.001 6.5e-4,0.002 0.005,0.018 0.009,0.0363 0.0133,0.0543 0.006,0.0266 0.0123,0.0539 0.018,0.0809 0.003,0.016 0.006,0.032 0.009,0.0483 0.003,0.017 0.006,0.034 0.009,0.051 0.002,0.0123 0.004,0.0247 0.006,0.0373 0.002,0.015 0.004,0.03 0.006,0.0449 0.001,0.009 0.002,0.0183 0.003,0.0277 0.002,0.0156 0.004,0.0316 0.005,0.0476 v 6.9e-4 c 0.002,0.0216 0.004,0.0429 0.006,0.0646 0,0.002 0,0.005 6.6e-4,0.007 0.002,0.0203 0.003,0.0403 0.004,0.0606 0,0.003 0,0.006 6.8e-4,0.009 0.001,0.0197 0.002,0.0393 0.002,0.0589 v 0.009 c 6.9e-4,0.0213 6.9e-4,0.0426 6.9e-4,0.0639 z"
   style="fill:#078465;fill-rule:nonzero;stroke-width:0.0312534"
   id="path2" />
    </g>
</svg>
