<svg xmlns="http://www.w3.org/2000/svg" width="32" height="32" fill="none"><g clip-path="url(#a)"><g fill="#EF4800" clip-path="url(#b)"><path d="M16.042 26.697c5.987 0 10.807-4.82 10.807-10.655 0-5.835-4.82-10.655-10.807-10.655-5.988 0-10.808 4.82-10.808 10.655 0 5.835 4.82 10.655 10.808 10.655Z"/><path d="M25.099 27.333c.58.55.545 1.49-.121 1.934-6.268 4.17-14.78 3.56-20.346-1.96-6.343-6.291-6.343-16.338 0-22.63C10.169-.86 18.762-1.456 25.04 2.76c.636.428.682 1.325.14 1.867-.463.463-1.196.5-1.743.14C18.218 1.34 11.104 1.962 6.56 6.505a13.264 13.264 0 0 0-.102 18.977c4.545 4.544 11.66 5.165 16.882 1.734.549-.36 1.282-.334 1.759.118Zm2.341-2.287c.552.581 1.492.549 1.94-.116 3.634-5.408 3.619-12.548-.047-17.941-.43-.632-1.323-.675-1.863-.134-.465.465-.5 1.203-.135 1.75 2.95 4.425 2.946 10.18-.013 14.677-.363.55-.334 1.285.119 1.764Z"/></g></g><defs><clipPath id="a"><path fill="#fff" d="M0 0h32v32H0z"/></clipPath><clipPath id="b"><rect width="32" height="32" fill="#fff" rx="16"/></clipPath></defs></svg>