<?xml version="1.0" encoding="UTF-8" standalone="no"?>
<svg
   width="47.697289"
   height="47.673546"
   viewBox="0 0 47.697289 47.673546"
   version="1.1"
   xml:space="preserve"
   style="clip-rule:evenodd;fill-rule:evenodd;stroke-linejoin:round;stroke-miterlimit:2"
   id="svg2"
   xmlns="http://www.w3.org/2000/svg"
   xmlns:svg="http://www.w3.org/2000/svg"><defs
   id="defs2" />
    <g
   transform="matrix(3.95941,0,0,3.98627,-482.41135,-486.16423)"
   id="g2">
        <path
   d="m 127.8838,131.94181 c 2.23869,0 4.04103,-1.80234 4.04103,-3.9841 0,-2.18177 -1.80234,-3.98406 -4.04103,-3.98406 -2.23865,0 -4.04099,1.80229 -4.04099,3.98406 0,2.18176 1.80234,3.9841 4.04099,3.9841 z"
   style="fill:#ef4800;fill-rule:nonzero;stroke-width:0.0467387"
   id="path1" />
        <path
   d="m 131.27058,132.1798 c 0.21724,0.20579 0.20401,0.55741 -0.0452,0.72319 -2.34371,1.55939 -5.52615,1.33075 -7.60757,-0.73286 -2.37148,-2.3525 -2.37148,-6.10894 0,-8.46144 2.07062,-2.07058 5.28321,-2.2938 7.63108,-0.71702 0.23809,0.15994 0.25519,0.49543 0.0524,0.69828 -0.17307,0.17302 -0.44701,0.18686 -0.65154,0.0525 -1.95223,-1.28195 -4.61203,-1.04966 -6.31099,0.6493 -2.01098,1.95405 -2.01098,5.1413 -0.0379,7.0954 1.69923,1.69924 4.35969,1.93134 6.31197,0.6486 0.20532,-0.13494 0.47935,-0.12489 0.65771,0.0441 z m 0.87532,-0.8555 c 0.20593,0.21738 0.55764,0.20527 0.72469,-0.0432 1.3593,-2.02215 1.35355,-4.69182 -0.0173,-6.7085 -0.16064,-0.23626 -0.49449,-0.25206 -0.69654,-0.05 -0.17406,0.17401 -0.18705,0.44981 -0.0505,0.65457 1.10322,1.65432 1.10154,3.80599 -0.005,5.48793 -0.13541,0.20579 -0.1248,0.48038 0.0446,0.65925 z"
   style="fill:#ef4800;fill-rule:nonzero;stroke-width:0.0467387"
   id="path2" />
    </g>
</svg>
