<svg xmlns="http://www.w3.org/2000/svg" width="32" height="32" fill="none"><path fill="#26A17B" d="M18.745 17.827v-.004c-.169.012-1.036.063-2.968.063-1.544 0-2.627-.043-3.01-.063v.004C6.83 17.566 2.4 16.535 2.4 15.298c0-1.233 4.433-2.267 10.367-2.529v4.032c.387.027 1.501.094 3.038.094 1.845 0 2.768-.079 2.94-.094v-4.028c5.926.265 10.344 1.296 10.344 2.53 0 1.232-4.422 2.263-10.344 2.528m0-5.476V8.75h8.268v-5.5H4.503v5.5h8.268v3.605C6.051 12.664 1 13.991 1 15.583c0 1.592 5.055 2.92 11.771 3.232v11.56h5.977v-11.56c6.709-.309 11.752-1.636 11.752-3.228 0-1.588-5.043-2.92-11.752-3.228"/></svg>