<?xml version="1.0" encoding="UTF-8" standalone="no"?>
<svg
   width="31.999977"
   height="29.423708"
   viewBox="0 0 31.999977 29.423708"
   version="1.1"
   xml:space="preserve"
   style="clip-rule:evenodd;fill-rule:evenodd;stroke-linejoin:round;stroke-miterlimit:2"
   id="svg1"
   xmlns="http://www.w3.org/2000/svg"
   xmlns:svg="http://www.w3.org/2000/svg"><defs
   id="defs1" />
    <g
   transform="matrix(4.33898,0,0,4.33898,-530.71149,-568.88098)"
   id="g1">
        <path
   d="m 126.74866,134.75369 v -9.7e-4 c -0.042,0.003 -0.259,0.0156 -0.74182,0.0156 -0.38606,0 -0.65678,-0.0107 -0.75256,-0.0156 v 9.7e-4 c -1.48456,-0.0654 -2.59187,-0.32297 -2.59187,-0.63228 0,-0.30832 1.10828,-0.56688 2.59187,-0.63225 v 1.0079 c 0.0968,0.007 0.37531,0.0234 0.75941,0.0234 0.46131,0 0.69194,-0.0195 0.73497,-0.0234 v -1.00693 c 1.48162,0.0663 2.58603,0.32393 2.58603,0.63228 0,0.30831 -1.10538,0.5659 -2.58603,0.63225 m 0,-1.36894 v -0.90156 h 2.06706 v -1.37478 h -5.6275 v 1.37478 h 2.06706 v 0.90156 c -1.68006,0.0771 -2.94278,0.40884 -2.94278,0.80694 0,0.39809 1.26369,0.72984 2.94278,0.80787 v 2.8901 h 1.49435 v -2.8901 c 1.67709,-0.0771 2.93787,-0.40881 2.93787,-0.8069 0,-0.39713 -1.26078,-0.72985 -2.93787,-0.80694"
   style="fill:#26a17b;fill-rule:nonzero;stroke-width:0.03125"
   id="path1" />
    </g>
</svg>
