<?xml version="1.0" encoding="UTF-8" standalone="no"?>
<svg
   width="31.999493"
   height="62.559212"
   viewBox="0 0 31.999493 62.559212"
   version="1.1"
   xml:space="preserve"
   style="clip-rule:evenodd;fill-rule:evenodd;stroke-linejoin:round;stroke-miterlimit:2"
   id="svg1"
   xmlns="http://www.w3.org/2000/svg"
   xmlns:svg="http://www.w3.org/2000/svg"><defs
   id="defs1" />
    <g
   transform="matrix(3.12899,0,0,3.12899,-780.32483,-993.4036)"
   id="g1">
        <path
   d="m 254.83574,337.47721 h -1.84195 v -2.3368 h -3.60826 v -14.90054 h 3.60826 v -2.75608 h 1.84195 v 2.79732 c 0.99887,0.0183 1.83737,0.17411 2.5155,0.46736 h -0.007 c 0.52692,0.21993 0.95073,0.62082 1.27146,1.20273 0.14204,0.27034 0.24975,0.54183 0.32306,0.81443 0.0733,0.27266 0.10997,0.55332 0.10997,0.84198 0,1.26004 -0.49027,2.28866 -1.47081,3.08592 -0.11913,0.10081 -0.23942,0.19361 -0.36082,0.27834 -0.12145,0.0848 -0.26007,0.17528 -0.41585,0.2715 0.44445,0.16037 0.85114,0.3723 1.21996,0.63573 0.36888,0.26349 0.69071,0.57391 0.96563,0.9313 0.41696,0.54983 0.62547,1.26004 0.62547,2.13061 0,0.75603 -0.19244,1.45707 -0.57733,2.10312 -0.37572,0.6369 -0.89806,1.13633 -1.56703,1.4983 -0.67355,0.37114 -1.55102,0.57049 -2.63237,0.59798 z m 0,-11.15482 c 0.10539,-0.0275 0.21652,-0.0664 0.33339,-0.11681 0.11681,-0.0504 0.23936,-0.10996 0.36765,-0.17869 0.14663,-0.0779 0.28867,-0.19244 0.42613,-0.34365 0.13746,-0.1512 0.26117,-0.3368 0.37114,-0.55674 0.10996,-0.22451 0.1936,-0.43755 0.2509,-0.63915 0.0573,-0.20161 0.0859,-0.39637 0.0859,-0.58423 0,-0.46278 -0.19018,-0.85451 -0.57048,-1.17525 -0.21994,-0.21535 -0.64148,-0.36887 -1.26463,-0.46051 z m -1.84195,-4.09627 h -1.20963 v 4.25438 h 1.20963 z m 1.84195,10.94173 c 0.16037,-0.009 0.31506,-0.0263 0.46394,-0.0516 0.14895,-0.0252 0.29667,-0.0607 0.44329,-0.10648 0.16037,-0.0504 0.30699,-0.11345 0.43987,-0.18902 0.13288,-0.0756 0.25433,-0.16379 0.3643,-0.2646 h -0.007 c 0.41238,-0.39863 0.61857,-0.8889 0.61857,-1.47081 0,-0.44445 -0.1283,-0.86831 -0.38489,-1.27152 h 0.007 c -0.23368,-0.35739 -0.6094,-0.6598 -1.12717,-0.90723 -0.2795,-0.13746 -0.55215,-0.2451 -0.81791,-0.323 z m -3.05158,-4.72859 v 4.73549 h 1.20963 v -4.73549 z"
   style="fill:#003f20;fill-rule:nonzero;stroke-width:0.0610928"
   id="path1" />
    </g>
</svg>
