<svg xmlns="http://www.w3.org/2000/svg" xml:space="preserve" style="fill-rule:evenodd;clip-rule:evenodd;stroke-linejoin:round;stroke-miterlimit:2" viewBox="0 0 32 32"><path d="M1557.55 1656.54a122.038 122.038 0 0 1 35.17 98.16 122.021 122.021 0 0 1-53.52 89.48C1382.81 1942.28 1198.1 2000 1000 2000c-198.095 0-382.814-57.72-538.236-157.25a120.321 120.321 0 0 1-52.766-88.23 120.298 120.298 0 0 1 34.662-96.78c-1.175-1.23-1.146-1.26-1.116-1.29 36.635-36.59 94.118-41.95 136.886-12.76C699.914 1723.87 844.613 1770 1000 1770c155.35 0 300.02-46.11 421.08-125.39 42.39-28.92 99.37-23.59 135.66 12.7.79-.78.8-.78.81-.77Zm98.99-1214.085a122 122 0 0 1 187.64 18.348C1942.28 617.186 2000 801.905 2000 1000c0 198.1-57.72 382.81-157.25 538.24a120.302 120.302 0 0 1-88.23 52.76 120.283 120.283 0 0 1-96.78-34.66c-1.23 1.18-1.26 1.15-1.29 1.12-36.59-36.64-41.95-94.12-12.76-136.89C1723.87 1300.09 1770 1155.39 1770 1000c0-155.351-46.11-300.019-125.39-421.077-28.92-42.394-23.59-99.37 12.7-135.66-.78-.795-.78-.801-.77-.808ZM157.254 461.764a120.293 120.293 0 0 1 88.223-52.766 120.294 120.294 0 0 1 96.779 34.662c1.234-1.175 1.263-1.146 1.293-1.116 36.592 36.635 41.95 94.118 12.761 136.886C276.127 699.914 230 844.613 230 1000c0 155.35 46.106 300.02 125.388 421.08 28.925 42.39 23.592 99.37-12.698 135.66.783.79.777.8.77.81a122.037 122.037 0 0 1-98.157 35.17 122.02 122.02 0 0 1-89.484-53.52C57.725 1382.81 0 1198.1 0 1000c0-198.095 57.725-382.814 157.254-538.236ZM1000 370c347.71 0 630 282.294 630 630 0 347.71-282.29 630-630 630-347.706 0-630-282.29-630-630 0-347.706 282.294-630 630-630Zm-557.545-26.54a121.998 121.998 0 0 1 18.348-187.641C617.186 57.725 801.905 0 1000 0c198.1 0 382.81 57.725 538.24 157.254a120.274 120.274 0 0 1 52.76 88.223 120.28 120.28 0 0 1-34.66 96.779c1.18 1.234 1.15 1.263 1.12 1.293-36.64 36.592-94.12 41.95-136.89 12.761C1300.09 276.127 1155.39 230 1000 230c-155.351 0-300.019 46.106-421.077 125.388-42.394 28.925-99.37 23.592-135.66-12.698-.795.783-.801.777-.808.77Z" style="fill:#208e7a" transform="scale(.016)"/><path d="M1067.85 899.888c2.17-2.606 4.07-5.503 5.69-8.692 3.54-6.972 5.3-14.311 5.3-22.013v-14.071c0-14.776-5.77-26.64-17.27-35.611-10.45-8.145-24.03-12.533-40.87-12.81v-21.938a7.281 7.281 0 0 0-7.28-7.281H994.3a7.281 7.281 0 0 0-7.281 7.281v21.924h-28.556c-13.996 0-25.341 11.346-25.341 25.341v150.535c0 7.274 2.397 13.113 6.911 17.627 4.515 4.52 10.354 6.91 17.628 6.91h29.358v21.93c0 4.02 3.26 7.28 7.281 7.28h19.12a7.28 7.28 0 0 0 7.28-7.28v-21.93h11.3c17.9 0 32-5.19 42.46-15.148 10.61-10.1 16.07-23.455 16.07-40.187v-12.744c0-10.57-3.16-19.806-9.4-27.734-3.7-4.707-8.12-8.508-13.28-11.389Zm-11.53 39.123v12.744c0 6.95-2.18 12.582-6.79 16.792-4.9 4.467-11.67 6.459-20.18 6.459h-62.018V921.6h67.328c6.7 0 12.16 1.552 16.26 5.037 3.65 3.107 5.4 7.256 5.4 12.374Zm-88.988-48.435v-51.813h51.658c7.99 0 14.54 1.602 19.55 5.161 4.01 2.844 6.09 6.543 6.09 11.188v14.071c0 6.541-1.72 11.846-5.52 15.783-3.71 3.842-8.69 5.61-14.81 5.61h-56.968Z" style="fill:#fff;fill-rule:nonzero" transform="translate(-46.866 -40.346) scale(.06213)"/></svg>