<?xml version="1.0" encoding="UTF-8" standalone="no"?>
<svg
   width="32.000229"
   height="32"
   viewBox="0 0 32.000229 32"
   version="1.1"
   xml:space="preserve"
   style="clip-rule:evenodd;fill-rule:evenodd;stroke-linejoin:round;stroke-miterlimit:2"
   id="svg4"
   xmlns="http://www.w3.org/2000/svg"
   xmlns:svg="http://www.w3.org/2000/svg"><defs
   id="defs4" />
    <g
   transform="matrix(4,0,0,4,16.00023,16)"
   id="g4">
        <g
   transform="translate(-128,-128)"
   id="g3">
            <g
   transform="scale(0.128)"
   id="g1">
                <path
   d="m 1017.9497,1021.0431 c 0.6687,0.6688 1.0041,1.6028 0.9137,2.5441 -0.09,0.9412 -0.5971,1.7944 -1.3806,2.3234 -4.9953,3.3675 -11.0106,5.3394 -17.4828,5.3394 -6.47228,0 -12.48762,-1.9719 -17.47744,-5.3472 -0.78128,-0.5275 -1.28675,-1.3781 -1.37672,-2.3166 -0.0901,-0.9384 0.24444,-1.8696 0.91113,-2.5362 -0.006,-0.01 -0.006,-0.01 -0.006,-0.01 1.39947,-1.3994 3.57759,-1.6525 5.26068,-0.6112 3.68063,2.3047 8.03097,3.6309 12.68865,3.6309 4.6578,0 9.0081,-1.3262 12.6944,-3.6219 1.6787,-1.0384 3.8512,-0.7859 5.2472,0.61 0.01,-0.01 0.01,-0.01 0.01,-0.01 z m 3.0934,-38.99276 c 0.6688,-0.66865 1.6028,-1.00415 2.5441,-0.91387 0.9412,0.0902 1.7944,0.59719 2.3234,1.38081 3.3675,4.9951 5.3394,11.01044 5.3394,17.48272 0,6.4722 -1.9719,12.4875 -5.3472,17.4775 -0.5275,0.7812 -1.3781,1.2866 -2.3166,1.3766 -0.9384,0.09 -1.8696,-0.2444 -2.5362,-0.911 -0.01,0.01 -0.01,0.01 -0.01,0.01 -1.3994,-1.3994 -1.6525,-3.5778 -0.6112,-5.2606 2.3047,-3.6807 3.6309,-8.031 3.6309,-12.6888 0,-4.65766 -1.3262,-9.008 -3.6219,-12.69434 -1.0384,-1.67882 -0.7859,-3.85135 0.61,-5.24716 -0.01,-0.008 -0.01,-0.008 -0.01,-0.008 z m -46.94607,0.47222 c 0.58706,-0.86906 1.56981,-1.39115 2.6186,-1.39115 0.83778,0 1.64209,0.33315 2.23449,0.92556 0.007,-0.006 0.007,-0.006 0.007,-0.006 1.39934,1.39947 1.6525,3.57759 0.6114,5.26068 -2.30484,3.68063 -3.63103,8.03097 -3.63103,12.68865 0,4.6578 1.32619,9.0081 3.62181,12.6944 1.03841,1.6787 0.78585,3.8512 -0.61,5.2472 0.008,0.01 0.008,0.01 0.007,0.01 -0.66862,0.6687 -1.60256,1.0041 -2.54381,0.9137 -0.94125,-0.09 -1.79441,-0.5971 -2.32372,-1.3806 -3.36735,-4.9953 -5.33922,-11.0106 -5.33922,-17.4828 0,-6.4723 1.97187,-12.48764 5.34703,-17.47746 z M 1000,980.3125 c 10.8659,0 19.6875,8.82169 19.6875,19.6875 0,10.8659 -8.8216,19.6875 -19.6875,19.6875 -10.86581,0 -19.6875,-8.8216 -19.6875,-19.6875 0,-10.86581 8.82169,-19.6875 19.6875,-19.6875 z m -17.94966,-1.35575 c -0.59418,-0.59416 -0.92837,-1.40087 -0.92837,-2.24119 0,-1.05187 0.52365,-2.03753 1.39531,-2.62634 4.9951,-3.36735 11.01044,-5.33922 17.48272,-5.33922 6.4722,0 12.4875,1.97187 17.4775,5.34703 0.7812,0.52778 1.2866,1.37838 1.3766,2.31681 0.09,0.93844 -0.2444,1.86963 -0.911,2.53628 0.01,0.007 0.01,0.007 0.01,0.007 -1.3994,1.39934 -3.5778,1.6525 -5.2606,0.6114 -3.6807,-2.30484 -8.031,-3.63103 -12.6888,-3.63103 -4.65766,0 -9.008,1.32619 -12.69434,3.62181 -1.67882,1.03841 -3.85135,0.78585 -5.24716,-0.61 -0.008,0.008 -0.008,0.008 -0.008,0.007 z"
   style="fill:#208e7a;stroke-width:0.03125"
   id="path1" />
            </g>
            <g
   transform="matrix(0.49705,0,0,0.49705,-374.924,-322.765)"
   id="g2">
                <path
   d="m 1013.5687,906.66208 c 0.068,-0.0814 0.1272,-0.17197 0.1778,-0.27163 0.1107,-0.21787 0.1657,-0.44722 0.1657,-0.6879 v -0.43972 c 0,-0.46175 -0.1803,-0.8325 -0.5397,-1.11285 -0.3266,-0.25453 -0.751,-0.39165 -1.2772,-0.40031 v -0.68556 c 0,-0.12481 -0.1028,-0.2275 -0.2275,-0.22753 h -0.5975 c -0.1248,0 -0.2275,0.10272 -0.2275,0.22753 v 0.68512 h -0.8924 c -0.4374,0 -0.7919,0.35457 -0.7919,0.79191 v 4.70422 c 0,0.22731 0.075,0.40978 0.216,0.55084 0.141,0.14125 0.3235,0.21594 0.5508,0.21594 h 0.9175 v 0.68531 c 0,0.12563 0.1018,0.2275 0.2275,0.2275 h 0.5975 c 0.1247,0 0.2275,-0.10281 0.2275,-0.2275 v -0.68531 h 0.3531 c 0.5594,0 1,-0.16219 1.3269,-0.47338 0.3316,-0.31562 0.5022,-0.73296 0.5022,-1.25584 v -0.39825 c 0,-0.33031 -0.099,-0.61894 -0.2938,-0.86669 -0.1156,-0.14709 -0.2537,-0.26587 -0.415,-0.3559 z m -0.3603,1.22259 v 0.39825 c 0,0.21719 -0.068,0.39319 -0.2122,0.52475 -0.1531,0.13959 -0.3647,0.20184 -0.6306,0.20184 h -1.9381 v -1.66893 h 2.104 c 0.2094,0 0.38,0.0485 0.5082,0.1574 0.114,0.0971 0.1687,0.22675 0.1687,0.38669 z m -2.7809,-1.51359 v -1.61916 h 1.6144 c 0.2496,0 0.4543,0.0501 0.6109,0.16128 0.1253,0.0889 0.1903,0.20447 0.1903,0.34963 v 0.43972 c 0,0.2044 -0.054,0.37018 -0.1725,0.49321 -0.1159,0.12007 -0.2716,0.17532 -0.4628,0.17532 z"
   style="fill:#ffffff;fill-rule:nonzero;stroke-width:0.03125"
   id="path2" />
            </g>
        </g>
    </g>
</svg>
