<svg width="32" height="32" fill="none" xmlns="http://www.w3.org/2000/svg"><g clip-path="url(#a)" fill="#FF9920"><path d="M8.153 12.379h2.41c.112 0 .204.09.204.203v6.615a.203.203 0 0 1-.204.204h-2.41a.203.203 0 0 1-.204-.204v-6.615c0-.112.091-.203.204-.203Zm8.863-.117c1.19 0 2.098.308 2.724.924.61.6.915 1.46.915 2.574v3.437a.203.203 0 0 1-.203.203h-2.41a.203.203 0 0 1-.204-.203v-3.39c0-.804-.587-1.205-1.76-1.205-1.174 0-1.76.402-1.76 1.205v3.39a.203.203 0 0 1-.204.203h-2.41a.203.203 0 0 1-.204-.203V12.58c0-.112.091-.203.204-.203h2.41c.112 0 .203.09.203.203v.581c.626-.6 1.526-.9 2.7-.9Zm14.983.206c0-.11-.088-.2-.2-.203-.455-.012-1.492.078-2.172.54a3.48 3.48 0 0 0-.463.358v.001c-.803-.601-1.95-.902-3.445-.902-1.534 0-2.708.32-3.522.96-.782.623-1.174 1.513-1.174 2.668 0 1.154.392 2.044 1.174 2.668.523.411 1.195.69 2.016.836v.001a8.81 8.81 0 0 0 1.698.127c.174-.004.366-.016.563-.033a7.81 7.81 0 0 0 .441-.046c.089-.01.177-.022.263-.035a.365.365 0 1 1 .107.721c-.531.079-1.11.126-1.55.126-.522 0-1.01-.035-1.462-.106a6.955 6.955 0 0 1-.88-.193.204.204 0 0 0-.25.131l-.594 1.78a.203.203 0 0 0 .118.253c.76.305 1.614.417 2.428.461 1.12.062 2.328.036 3.42-.242a3.5 3.5 0 0 0 .777-.286c.16-.084.31-.187.443-.31.303-.285.5-.671.593-1.076.193-.83.082-1.849-.725-2.31a1.81 1.81 0 0 0-.088-.047c.598-.604.897-1.41.897-2.42 0-.45-.06-.859-.178-1.228.201-.04.431-.06.69-.06.316 0 .59.029.821.088a.203.203 0 0 0 .253-.197l.001-2.025Zm-6.28 2.134c1.251 0 1.877.43 1.877 1.288 0 .858-.626 1.287-1.877 1.287-1.253 0-1.878-.43-1.878-1.287 0-.858.625-1.288 1.878-1.288ZM7.218 14.4v-1.817a.203.203 0 0 0-.203-.203H4.402V9.627a.204.204 0 0 0-.269-.193l-2.41.803a.203.203 0 0 0-.138.193v1.95H.204a.203.203 0 0 0-.204.203V14.4c0 .113.091.204.204.204h1.38v2.23c0 .974.325 1.673.974 2.094.619.398 1.624.597 3.017.597.524 0 1.016-.04 1.477-.121a.203.203 0 0 0 .166-.2V17.28a.203.203 0 0 0-.241-.2 5.67 5.67 0 0 1-1.05.104c-.524 0-.9-.048-1.127-.141-.266-.101-.398-.289-.398-.561v-1.88h2.613c.112 0 .203-.09.203-.203Zm3.345-2.751h-2.41a.203.203 0 0 1-.204-.203V9.625c0-.112.091-.203.204-.203h2.41c.112 0 .204.09.204.203v1.82a.204.204 0 0 1-.204.204Z"/></g><defs><clipPath id="a"><path fill="#fff" d="M0 0h32v32H0z"/></clipPath></defs></svg>