<?xml version="1.0" encoding="UTF-8" standalone="no"?>
<svg
   width="31.99984"
   height="13.186959"
   viewBox="0 0 31.99984 13.186959"
   version="1.1"
   xml:space="preserve"
   style="clip-rule:evenodd;fill-rule:evenodd;stroke-linejoin:round;stroke-miterlimit:2"
   id="svg3"
   xmlns="http://www.w3.org/2000/svg"
   xmlns:svg="http://www.w3.org/2000/svg"><defs
   id="defs3" />
    <g
   transform="matrix(4,0,0,4,15.98384,6.095636)"
   id="g3">
        <g
   transform="translate(-128,-53)"
   id="g2">
            <clipPath
   id="_clip1">
                <rect
   x="0"
   y="0"
   width="256"
   height="106"
   id="rect1" />
            </clipPath>
            <g
   clip-path="url(#_clip1)"
   id="g1">
                <path
   d="m 126.04272,52.215332 h 0.60244 c 0.0282,0 0.0509,0.02269 0.0509,0.05078 v 1.653844 c 0,0.02813 -0.0228,0.05078 -0.0509,0.05078 h -0.60244 c -0.0282,0 -0.0509,-0.02269 -0.0509,-0.05078 v -1.653844 c 0,-0.02809 0.0227,-0.05078 0.0509,-0.05078 z m 2.21572,-0.02934 c 0.29731,0 0.52434,0.077 0.68087,0.231063 0.15266,0.150125 0.22888,0.364781 0.22888,0.643594 v 0.859062 c 0,0.02812 -0.0228,0.05078 -0.0509,0.05078 h -0.60241 c -0.0282,0 -0.0509,-0.02269 -0.0509,-0.05078 v -0.847406 c 0,-0.200938 -0.14672,-0.301313 -0.44013,-0.301313 -0.2934,0 -0.44009,0.100563 -0.44009,0.301313 v 0.847406 c 0,0.02812 -0.0228,0.05078 -0.0509,0.05078 h -0.60244 c -0.0282,0 -0.0509,-0.02269 -0.0509,-0.05078 v -1.653812 c 0,-0.02813 0.0228,-0.05081 0.0509,-0.05081 h 0.60244 c 0.0282,0 0.0509,0.02269 0.0509,0.05081 v 0.145218 c 0.15637,-0.15 0.38134,-0.225125 0.67475,-0.225125 z m 3.74556,0.05163 c -9e-5,-0.0275 -0.0224,-0.05025 -0.0499,-0.05078 -0.11393,-0.0031 -0.37303,0.01947 -0.54315,0.13475 -0.0409,0.02775 -0.0805,0.05603 -0.11566,0.08969 v 3.43e-4 C 131.09445,52.261313 130.80767,52.186 130.43395,52.186 c -0.38341,0 -0.677,0.08006 -0.88041,0.239844 -0.19559,0.156094 -0.29341,0.378344 -0.29341,0.667125 0,0.288625 0.0978,0.511063 0.29341,0.667125 0.13075,0.10275 0.29884,0.172313 0.50397,0.209063 v 1.56e-4 c 0.11919,0.02219 0.25825,0.03353 0.42466,0.03184 0.047,-0.0014 0.0939,-0.0042 0.14075,-0.0083 0.0368,-0.0028 0.0736,-0.0066 0.11018,-0.0115 0.0219,-0.0027 0.0438,-0.0056 0.0657,-0.0088 0.0495,-0.0074 0.0964,0.02716 0.10391,0.07669 0.007,0.04953 -0.0275,0.09628 -0.0771,0.103594 -0.13297,0.01966 -0.27782,0.0315 -0.38766,0.0315 -0.13056,0 -0.2525,-0.0088 -0.36556,-0.02641 -0.0742,-0.01131 -0.14769,-0.02744 -0.21988,-0.04825 -0.026,-0.0075 -0.0537,0.007 -0.0623,0.03266 l -0.14872,0.444875 c -0.008,0.02544 0.005,0.05344 0.0295,0.06331 0.19,0.07634 0.40359,0.10425 0.60703,0.115438 0.28016,0.01541 0.58206,0.0088 0.85491,-0.06059 0.0669,-0.01694 0.13362,-0.03928 0.19425,-0.07144 0.0401,-0.02116 0.0776,-0.04672 0.11072,-0.07772 0.0759,-0.07109 0.12497,-0.16775 0.14837,-0.268969 0.0482,-0.207375 0.0204,-0.462125 -0.18134,-0.577562 -0.007,-0.0039 -0.0144,-0.0078 -0.0221,-0.0115 0.14959,-0.151 0.22446,-0.352813 0.22446,-0.605188 0,-0.112406 -0.0151,-0.214625 -0.0446,-0.306875 0.0504,-0.0098 0.10781,-0.01509 0.17253,-0.01509 0.0791,0 0.14753,0.0073 0.20528,0.02203 0.004,10e-4 0.008,0.0015 0.0124,0.0015 0.0278,0 0.0508,-0.02294 0.0508,-0.05078 0,0 0,-3.2e-5 0,-3.2e-5 z m -1.57009,0.533563 c 0.3129,0 0.46946,0.107312 0.46946,0.321781 0,0.214656 -0.15656,0.321813 -0.46946,0.321813 -0.31313,0 -0.4695,-0.107344 -0.4695,-0.321813 0,-0.214469 0.15637,-0.321781 0.4695,-0.321781 z m -4.62535,-0.05094 v -0.454187 c 0,-0.02809 -0.0227,-0.05078 -0.0509,-0.05078 h -0.65319 v -0.688125 c 0,-0.03469 -0.0341,-0.05906 -0.0671,-0.04822 l -0.60244,0.200594 c -0.0207,0.0069 -0.0348,0.02638 -0.0348,0.04822 v 0.487688 h -0.34519 c -0.0282,0 -0.0509,0.02269 -0.0509,0.05078 v 0.454031 c 0,0.02809 0.0228,0.05078 0.0509,0.05078 h 0.34519 v 0.557406 c 0,0.24375 0.0811,0.418437 0.2435,0.52375 0.1545,0.09938 0.40596,0.149125 0.75421,0.149125 0.13094,0 0.25385,-0.01016 0.36913,-0.03031 0.024,-0.0044 0.0416,-0.0255 0.0416,-0.04991 v -0.48075 c 0,-0.03181 -0.0291,-0.05569 -0.0605,-0.04978 -0.0927,0.01728 -0.18016,0.02575 -0.26232,0.02575 -0.13109,0 -0.225,-0.01187 -0.28168,-0.03522 -0.0666,-0.02522 -0.0997,-0.07212 -0.0997,-0.140312 v -0.469782 h 0.65319 c 0.0282,0 0.0509,-0.02269 0.0509,-0.05078 z m 0.8366,-0.687406 h -0.60244 c -0.0282,0 -0.0509,-0.02269 -0.0509,-0.05078 v -0.455188 c 0,-0.02812 0.0227,-0.05078 0.0509,-0.05078 h 0.60244 c 0.0282,0 0.0509,0.02269 0.0509,0.05078 v 0.455188 c 0,0.02794 -0.0229,0.05078 -0.0509,0.05078 z"
   style="fill:#ff9920;fill-rule:nonzero;stroke-width:0.03125"
   id="path1" />
            </g>
        </g>
    </g>
</svg>
