<svg width="24" height="32" fill="none" xmlns="http://www.w3.org/2000/svg"><g clip-path="url(#a)"><path fill-rule="evenodd" clip-rule="evenodd" d="M0 7.408c0-1.145.93-2.075 2.077-2.075h9.846L17.021.469a1.251 1.251 0 0 1 1.727 0l5.098 4.864v19.142c0 1.209-.982 2.19-2.192 2.19h-9.731l-5.098 4.864a1.251 1.251 0 0 1-1.727 0L0 26.665V7.408Zm15.322 7.467a.593.593 0 0 1-.838 0l-1.64-1.638a1.305 1.305 0 0 0-1.843 0l-1.64 1.638a.593.593 0 0 1-.837 0l-1.64-1.64a1.305 1.305 0 0 0-1.845 0l-1.844 1.843a1.303 1.303 0 0 0 0 1.842l1.844 1.842a1.305 1.305 0 0 0 1.844 0l1.641-1.64a.59.59 0 0 1 .834.001h.001l1.642 1.64a1.305 1.305 0 0 0 1.844 0l1.641-1.64a.593.593 0 0 1 .836 0l1.64 1.639a1.305 1.305 0 0 0 1.844 0l1.844-1.842a1.303 1.303 0 0 0 0-1.842l-1.844-1.842a1.305 1.305 0 0 0-1.844 0l-1.64 1.639Z" fill="#F1A200"/></g><defs><clipPath id="a"><path fill="#fff" d="M0 0h23.846v32H0z"/></clipPath></defs></svg>