<?xml version="1.0" encoding="UTF-8" standalone="no"?>
<svg
   width="31.999996"
   height="42.604076"
   viewBox="0 0 31.999996 42.604076"
   version="1.1"
   xml:space="preserve"
   style="clip-rule:evenodd;fill-rule:evenodd;stroke-linejoin:round;stroke-miterlimit:2"
   id="svg1"
   xmlns="http://www.w3.org/2000/svg"
   xmlns:svg="http://www.w3.org/2000/svg"><defs
   id="defs1" />
    <g
   transform="matrix(4.02784,0,0,4.02784,-368.18948,-494.22322)"
   id="g1">
        <path
   d="m 91.411148,125.1281 c 0,-0.38148 0.309972,-0.69124 0.691908,-0.69124 h 3.280465 l 1.698495,-1.62049 c 0.160088,-0.15276 0.415337,-0.15276 0.575424,0 l 1.698412,1.62053 v 6.37769 c 0,0.40263 -0.32713,0.72947 -0.730181,0.72947 h -3.242233 l -1.698412,1.62057 c -0.160088,0.15276 -0.415379,0.15276 -0.575466,0 l -1.698412,-1.62061 z m 5.104689,2.4879 c -0.07655,0.0764 -0.202442,0.0764 -0.278987,0 l -1.25e-4,-1.3e-4 -0.546189,-0.54552 c -0.169458,-0.16937 -0.444781,-0.16937 -0.614239,0 L 94.53015,127.616 c -0.07663,0.0764 -0.2024,0.0764 -0.279029,0 l -1.25e-4,-1.3e-4 -0.546522,-0.54598 c -0.169583,-0.16941 -0.44478,-0.16941 -0.614363,0 l -0.614364,0.61374 c -0.169458,0.16938 -0.169458,0.44432 0,0.61374 l 0.614364,0.61361 c 0.169583,0.16942 0.44478,0.16942 0.614363,0 l 0.546647,-0.5461 c 0.0763,-0.0761 0.201734,-0.0761 0.277946,1.2e-4 h 2.5e-4 l 0.54698,0.54648 c 0.169458,0.16938 0.444781,0.16938 0.614239,0 l 0.547022,-0.54648 c 0.07642,-0.0763 0.201983,-0.0763 0.278404,0 l 0.546564,0.54598 c 0.169541,0.16942 0.44478,0.16942 0.614321,0 l 0.614364,-0.61361 c 0.169458,-0.16942 0.169458,-0.44436 0,-0.61374 l -0.614364,-0.61374 c -0.169541,-0.16941 -0.44478,-0.16941 -0.614321,0 z"
   style="fill:#f1a200;stroke-width:0.0416461"
   id="path1" />
    </g>
</svg>
