<?xml version="1.0" encoding="UTF-8" standalone="no"?>
<svg
   width="64"
   height="64.000008"
   viewBox="0 0 64 64.000008"
   version="1.1"
   xml:space="preserve"
   style="clip-rule:evenodd;fill-rule:evenodd;stroke-linejoin:round;stroke-miterlimit:2"
   id="svg2"
   xmlns="http://www.w3.org/2000/svg"
   xmlns:svg="http://www.w3.org/2000/svg"><defs
   id="defs2" />
    <g
   transform="matrix(4,0,0,4,-480,-480.00004)"
   id="g1">
        <path
   d="m 125.64569,120.35314 c 0.744,-0.22969 1.536,-0.35313 2.35431,-0.35313 v 8 h -8 c 0,-0.82056 0.12344,-1.61031 0.35313,-2.35544 0.776,-2.52456 2.768,-4.51656 5.29256,-5.29143 z"
   style="fill:#a2c4b8;fill-rule:nonzero;stroke-width:0.0625"
   id="path1" />
    </g>
    <g
   transform="matrix(4,0,0,4,-480,-480.00004)"
   id="g2">
        <path
   d="m 128,132.00001 c 0,1.10513 -0.448,2.10513 -1.17144,2.82744 -0.34175,0.34262 -0.74294,0.62025 -1.184,0.81944 -0.51687,0.23318 -1.0775,0.35362 -1.64456,0.35312 -1.10512,0 -2.10512,-0.448 -2.82856,-1.17256 C 120.448,134.10514 120,133.10514 120,132.00001 c 0,-0.58631 0.12687,-1.14287 0.35313,-1.64456 0.19874,-0.441 0.47606,-0.84219 0.81831,-1.184 0.72456,-0.72456 1.72456,-1.17144 2.82856,-1.17144 0,1.10513 0.448,2.10513 1.17144,2.82744 0.72456,0.72456 1.72456,1.17256 2.82856,1.17256 z m 8,-4 h -8 v -8 c 0.81944,0 1.60912,0.12344 2.35312,0.35313 h 0.001 c 2.52456,0.77487 4.51656,2.76687 5.29256,5.29143 0.23082,0.74513 0.35313,1.53607 0.35313,2.35544 z m 0,0 v 4 c 0,1.10513 -0.448,2.10513 -1.17144,2.82744 -0.72456,0.72456 -1.72456,1.17256 -2.82856,1.17256 -0.56706,5e-4 -1.12769,-0.11994 -1.64456,-0.35312 -0.44069,-0.19975 -0.84182,-0.47732 -1.184,-0.81944 C 128.448,134.10514 128,133.10514 128,132.00001 v -4 z"
   style="fill:#099250;fill-rule:nonzero;stroke-width:0.0625"
   id="path2" />
    </g>
</svg>
