<?xml version="1.0" encoding="UTF-8" standalone="no"?>
<svg
   width="31.999977"
   height="49.240139"
   viewBox="0 0 31.999977 49.240139"
   version="1.1"
   xml:space="preserve"
   style="clip-rule:evenodd;fill-rule:evenodd;stroke-linejoin:round;stroke-miterlimit:2"
   id="svg1"
   xmlns="http://www.w3.org/2000/svg"
   xmlns:svg="http://www.w3.org/2000/svg"><defs
   id="defs1" />
    <g
   transform="matrix(4.36557,0,0,4.36557,-1400.992,-1878.1638)"
   id="g1">
        <path
   d="m 324.2589,440.35829 c -0.96471,-0.0361 -1.72096,-0.2626 -2.26866,-0.6796 -0.54774,-0.41695 -0.90502,-1.04246 -1.07178,-1.87646 l 1.54173,-0.29751 c 0.0947,0.51842 0.28626,0.90161 0.57477,1.14954 0.28852,0.24794 0.69653,0.39445 1.22394,0.43951 v -2.88064 c -0.20283,-0.0496 -0.41701,-0.10704 -0.64239,-0.17244 -0.22542,-0.0653 -0.43955,-0.13522 -0.64238,-0.2096 -0.20287,-0.0744 -0.36968,-0.14989 -0.50043,-0.22654 -0.40118,-0.2299 -0.7021,-0.51394 -0.90272,-0.85203 -0.20061,-0.3381 -0.30092,-0.75736 -0.30092,-1.25774 0,-0.7348 0.25582,-1.30395 0.7675,-1.70744 0.51168,-0.40349 1.25211,-0.6255 2.22134,-0.66604 v -0.8994 h 0.77091 v 0.8994 c 0.559,0.027 1.03457,0.11493 1.42676,0.2637 0.39224,0.14878 0.71567,0.38657 0.97038,0.71341 0.25471,0.32684 0.45196,0.7675 0.5917,1.32198 l -1.58232,0.25019 c -0.0766,-0.40123 -0.22543,-0.71225 -0.44634,-0.93316 -0.22086,-0.2209 -0.54097,-0.35612 -0.96018,-0.40575 v 2.58992 c 0.20283,0.0406 0.42147,0.0924 0.65589,0.15551 0.23442,0.0631 0.49139,0.14425 0.77087,0.24346 0.6131,0.22086 1.06506,0.52856 1.35583,0.92301 0.29078,0.39445 0.43614,0.89372 0.43614,1.49778 0,0.79342 -0.27385,1.4144 -0.82159,1.863 -0.5477,0.44854 -1.3468,0.69537 -2.39714,0.74043 v 1.15632 h -0.77091 z m -1.42003,-6.89058 c 0,0.22542 0.0428,0.41027 0.12848,0.55452 0.0947,0.17129 0.23779,0.30655 0.42941,0.40571 0.19158,0.0992 0.47899,0.20739 0.86214,0.32458 v -2.44787 c -0.94667,0.0631 -1.42003,0.45081 -1.42003,1.16306 z m 3.84765,4.30071 c 0,-0.24793 -0.0462,-0.4508 -0.13863,-0.60857 -0.0924,-0.15782 -0.22654,-0.28852 -0.40234,-0.39224 -0.18032,-0.0992 -0.55227,-0.22764 -1.11574,-0.38541 v 2.71157 c 0.54544,-0.0361 0.95792,-0.16566 1.23745,-0.38882 0.27947,-0.22312 0.41926,-0.5353 0.41926,-0.93653 z"
   style="fill:#003f20;fill-rule:nonzero;stroke-width:0.048086"
   id="path1" />
    </g>
</svg>
