<?xml version="1.0" encoding="UTF-8" standalone="no"?>
<svg
   width="32.000229"
   height="32"
   viewBox="0 0 32.000229 32"
   version="1.1"
   xml:space="preserve"
   style="clip-rule:evenodd;fill-rule:evenodd;stroke-linejoin:round;stroke-miterlimit:2"
   id="svg2"
   xmlns="http://www.w3.org/2000/svg"
   xmlns:svg="http://www.w3.org/2000/svg"><defs
   id="defs2" />
    <g
   transform="matrix(0.512,0,0,0.512,-495.99977,-496)"
   id="g1">
        <path
   d="m 1017.9497,1021.0431 c 0.6687,0.6688 1.0041,1.6028 0.9137,2.5441 -0.09,0.9412 -0.5971,1.7944 -1.3806,2.3234 -4.9953,3.3675 -11.0106,5.3394 -17.4828,5.3394 -6.47228,0 -12.48762,-1.9719 -17.47744,-5.3472 -0.78128,-0.5275 -1.28675,-1.3781 -1.37672,-2.3166 -0.0901,-0.9384 0.24444,-1.8696 0.91113,-2.5362 -0.006,-0.01 -0.006,-0.01 -0.006,-0.01 1.39947,-1.3994 3.57759,-1.6525 5.26068,-0.6112 3.68063,2.3047 8.03097,3.6309 12.68865,3.6309 4.6578,0 9.0081,-1.3262 12.6944,-3.6219 1.6787,-1.0384 3.8512,-0.7859 5.2472,0.61 0.01,-0.01 0.01,-0.01 0.01,-0.01 z m 3.0934,-38.99276 c 0.6688,-0.66865 1.6028,-1.00415 2.5441,-0.91387 0.9412,0.0902 1.7944,0.59719 2.3234,1.38081 3.3675,4.9951 5.3394,11.01044 5.3394,17.48272 0,6.4722 -1.9719,12.4875 -5.3472,17.4775 -0.5275,0.7812 -1.3781,1.2866 -2.3166,1.3766 -0.9384,0.09 -1.8696,-0.2444 -2.5362,-0.911 -0.01,0.01 -0.01,0.01 -0.01,0.01 -1.3994,-1.3994 -1.6525,-3.5778 -0.6112,-5.2606 2.3047,-3.6807 3.6309,-8.031 3.6309,-12.6888 0,-4.65766 -1.3262,-9.008 -3.6219,-12.69434 -1.0384,-1.67882 -0.7859,-3.85135 0.61,-5.24716 -0.01,-0.008 -0.01,-0.008 -0.01,-0.008 z m -46.94607,0.47222 c 0.58706,-0.86906 1.56981,-1.39115 2.6186,-1.39115 0.83778,0 1.64209,0.33315 2.23449,0.92556 0.007,-0.006 0.007,-0.006 0.007,-0.006 1.39934,1.39947 1.6525,3.57759 0.6114,5.26068 -2.30484,3.68063 -3.63103,8.03097 -3.63103,12.68865 0,4.6578 1.32619,9.0081 3.62181,12.6944 1.03841,1.6787 0.78585,3.8512 -0.61,5.2472 0.008,0.01 0.008,0.01 0.007,0.01 -0.66862,0.6687 -1.60256,1.0041 -2.54381,0.9137 -0.94125,-0.09 -1.79441,-0.5971 -2.32372,-1.3806 -3.36735,-4.9953 -5.33922,-11.0106 -5.33922,-17.4828 0,-6.4723 1.97187,-12.48764 5.34703,-17.47746 z M 1000,980.3125 c 10.8659,0 19.6875,8.82169 19.6875,19.6875 0,10.8659 -8.8216,19.6875 -19.6875,19.6875 -10.86581,0 -19.6875,-8.8216 -19.6875,-19.6875 0,-10.86581 8.82169,-19.6875 19.6875,-19.6875 z m -17.94966,-1.35575 c -0.59418,-0.59416 -0.92837,-1.40087 -0.92837,-2.24119 0,-1.05187 0.52365,-2.03753 1.39531,-2.62634 4.9951,-3.36735 11.01044,-5.33922 17.48272,-5.33922 6.4722,0 12.4875,1.97187 17.4775,5.34703 0.7812,0.52778 1.2866,1.37838 1.3766,2.31681 0.09,0.93844 -0.2444,1.86963 -0.911,2.53628 0.01,0.007 0.01,0.007 0.01,0.007 -1.3994,1.39934 -3.5778,1.6525 -5.2606,0.6114 -3.6807,-2.30484 -8.031,-3.63103 -12.6888,-3.63103 -4.65766,0 -9.008,1.32619 -12.69434,3.62181 -1.67882,1.03841 -3.85135,0.78585 -5.24716,-0.61 -0.008,0.008 -0.008,0.008 -0.008,0.007 z"
   style="fill:#208e7a;stroke-width:0.03125"
   id="path1" />
    </g>
    <g
   transform="matrix(0.512,0,0,0.512,-493.86777,-501.332)"
   id="g2">
        <path
   d="m 1004.5598,1015.0364 c 0,-4.5572 -2.7344,-6.1197 -8.20311,-6.7706 -3.90625,-0.5209 -4.6875,-1.5625 -4.6875,-3.3856 0,-1.8231 1.30219,-2.9947 3.90625,-2.9947 2.34375,0 3.64594,0.7812 4.29687,2.7344 0.13029,0.3906 0.52099,0.6509 0.91159,0.6509 h 2.0831 c 0.5209,0 0.9116,-0.3906 0.9116,-0.9112 v -0.1304 c -0.521,-2.8646 -2.8647,-5.07808 -5.85941,-5.33839 v -3.125 c 0,-0.52094 -0.39063,-0.91156 -1.04156,-1.04187 h -1.95313 c -0.52094,0 -0.91156,0.39062 -1.04187,1.04187 v 2.99469 c -3.90625,0.52094 -6.38,3.125 -6.38,6.3803 0,4.2969 2.60406,5.9894 8.07281,6.6406 3.64594,0.651 4.81786,1.4322 4.81786,3.5157 0,2.0834 -1.82317,3.5156 -4.29692,3.5156 -3.38563,0 -4.5575,-1.4325 -4.94813,-3.3856 -0.13,-0.5207 -0.52062,-0.7813 -0.91125,-0.7813 h -2.21375 c -0.52062,0 -0.91125,0.3906 -0.91125,0.9116 v 0.1303 c 0.52063,3.255 2.60406,5.5987 6.90094,6.25 v 3.125 c 0,0.5206 0.39062,0.9112 1.04156,1.0415 h 1.95313 c 0.52093,0 0.91156,-0.3906 1.04187,-1.0415 v -3.125 c 3.9063,-0.6513 6.5103,-3.3856 6.5103,-6.9013 z"
   style="fill:#ffffff;fill-rule:nonzero;stroke-width:0.03125"
   id="path2" />
    </g>
</svg>
