<svg xmlns="http://www.w3.org/2000/svg" xml:space="preserve" style="fill-rule:evenodd;clip-rule:evenodd;stroke-linejoin:round;stroke-miterlimit:2" viewBox="0 0 32 32"><path d="M1557.55 1656.54a122.038 122.038 0 0 1 35.17 98.16 122.021 122.021 0 0 1-53.52 89.48C1382.81 1942.28 1198.1 2000 1000 2000c-198.095 0-382.814-57.72-538.236-157.25a120.321 120.321 0 0 1-52.766-88.23 120.298 120.298 0 0 1 34.662-96.78c-1.175-1.23-1.146-1.26-1.116-1.29 36.635-36.59 94.118-41.95 136.886-12.76C699.914 1723.87 844.613 1770 1000 1770c155.35 0 300.02-46.11 421.08-125.39 42.39-28.92 99.37-23.59 135.66 12.7.79-.78.8-.78.81-.77Zm98.99-1214.085a122 122 0 0 1 187.64 18.348C1942.28 617.186 2000 801.905 2000 1000c0 198.1-57.72 382.81-157.25 538.24a120.302 120.302 0 0 1-88.23 52.76 120.283 120.283 0 0 1-96.78-34.66c-1.23 1.18-1.26 1.15-1.29 1.12-36.59-36.64-41.95-94.12-12.76-136.89C1723.87 1300.09 1770 1155.39 1770 1000c0-155.351-46.11-300.019-125.39-421.077-28.92-42.394-23.59-99.37 12.7-135.66-.78-.795-.78-.801-.77-.808ZM157.254 461.764a120.293 120.293 0 0 1 88.223-52.766 120.294 120.294 0 0 1 96.779 34.662c1.234-1.175 1.263-1.146 1.293-1.116 36.592 36.635 41.95 94.118 12.761 136.886C276.127 699.914 230 844.613 230 1000c0 155.35 46.106 300.02 125.388 421.08 28.925 42.39 23.592 99.37-12.698 135.66.783.79.777.8.77.81a122.037 122.037 0 0 1-98.157 35.17 122.02 122.02 0 0 1-89.484-53.52C57.725 1382.81 0 1198.1 0 1000c0-198.095 57.725-382.814 157.254-538.236ZM1000 370c347.71 0 630 282.294 630 630 0 347.71-282.29 630-630 630-347.706 0-630-282.29-630-630 0-347.706 282.294-630 630-630Zm-557.545-26.54a121.998 121.998 0 0 1 18.348-187.641C617.186 57.725 801.905 0 1000 0c198.1 0 382.81 57.725 538.24 157.254a120.274 120.274 0 0 1 52.76 88.223 120.28 120.28 0 0 1-34.66 96.779c1.18 1.234 1.15 1.263 1.12 1.293-36.64 36.592-94.12 41.95-136.89 12.761C1300.09 276.127 1155.39 230 1000 230c-155.351 0-300.019 46.106-421.077 125.388-42.394 28.925-99.37 23.592-135.66-12.698-.795.783-.801.777-.808.77Z" style="fill:#208e7a" transform="scale(.016)"/><path d="M1275 1158.33c0-145.83-87.5-195.83-262.5-216.66-125-16.67-150-50-150-108.34s41.67-95.83 125-95.83c75 0 116.67 25 137.5 87.5 4.17 12.5 16.67 20.83 29.17 20.83h66.66c16.67 0 29.17-12.5 29.17-29.16v-4.17c-16.67-91.67-91.67-162.5-187.5-170.83v-100c0-16.67-12.5-29.17-33.33-33.34h-62.5c-16.67 0-29.17 12.5-33.34 33.34v95.83c-125 16.67-204.16 100-204.16 204.17 0 137.5 83.33 191.66 258.33 212.5 116.67 20.83 154.17 45.83 154.17 112.5s-58.34 112.5-137.5 112.5c-108.34 0-145.84-45.84-158.34-108.34-4.16-16.66-16.66-25-29.16-25h-70.84c-16.66 0-29.16 12.5-29.16 29.17v4.17c16.66 104.16 83.33 179.16 220.83 200v100c0 16.66 12.5 29.16 33.33 33.33h62.5c16.67 0 29.17-12.5 33.34-33.33v-100c125-20.84 208.33-108.34 208.33-220.84Z" style="fill:#fff;fill-rule:nonzero" transform="matrix(.016 0 0 .016 .067 -.167)"/></svg>