<svg xmlns="http://www.w3.org/2000/svg" width="32" height="32" fill="none"><path fill="#000" d="M27.308 12.647c.494-3.306-2.023-5.083-5.465-6.268L22.96 1.9l-2.726-.68-1.087 4.36c-.716-.178-1.453-.346-2.184-.513L18.058.679 15.334 0l-1.118 4.476a91.239 91.239 0 0 1-1.74-.409l.003-.014-3.76-.938-.725 2.91s2.023.464 1.98.493c1.104.275 1.304 1.006 1.27 1.585l-1.271 5.101c.076.02.174.047.283.09l-.288-.07-1.783 7.145c-.135.336-.477.839-1.249.648.027.04-1.981-.495-1.981-.495l-1.353 3.12 3.547.884c.66.166 1.306.339 1.943.502l-1.128 4.529 2.723.68 1.117-4.482c.744.202 1.466.388 2.172.564l-1.113 4.46 2.726.679 1.128-4.52c4.648.88 8.143.524 9.615-3.68 1.185-3.384-.06-5.336-2.505-6.61 1.781-.41 3.123-1.582 3.48-4.001Zm-6.229 8.732c-.842 3.385-6.541 1.555-8.39 1.096l1.498-6c1.848.461 7.773 1.374 6.893 4.904Zm.844-8.781c-.769 3.079-5.513 1.514-7.051 1.13l1.357-5.441c1.538.383 6.494 1.1 5.694 4.31Z"/></svg>