<?xml version="1.0" encoding="UTF-8" standalone="no"?>
<svg
   width="32.000015"
   height="42.351437"
   viewBox="0 0 32.000015 42.351437"
   version="1.1"
   xml:space="preserve"
   style="clip-rule:evenodd;fill-rule:evenodd;stroke-linejoin:round;stroke-miterlimit:2"
   id="svg1"
   xmlns="http://www.w3.org/2000/svg"
   xmlns:svg="http://www.w3.org/2000/svg"><defs
   id="defs1" />
    <g
   transform="matrix(4.06892,0,0,4.06892,-488.14137,-490.82377)"
   id="g1">
        <path
   d="m 127.81223,124.81213 c 0.16366,-1.09373 -0.66917,-1.68172 -1.80799,-2.07394 l 0.36939,-1.48161 -0.90195,-0.22476 -0.35963,1.44258 c -0.23712,-0.0591 -0.48065,-0.11482 -0.72265,-0.17004 l 0.36224,-1.45208 -0.90146,-0.22475 -0.36964,1.48111 c -0.19629,-0.0447 -0.38895,-0.0889 -0.57598,-0.13541 l 10e-4,-0.005 -1.24387,-0.31058 -0.23989,0.96325 c 0,0 0.66921,0.15336 0.65502,0.16283 0.36534,0.0912 0.43135,0.33292 0.42031,0.52454 l -0.4208,1.68788 c 0.0252,0.006 0.0578,0.0156 0.0938,0.03 -0.0301,-0.007 -0.0622,-0.0157 -0.0953,-0.0236 l -0.58981,2.36446 c -0.0448,0.11092 -0.15799,0.2774 -0.41335,0.2142 0.009,0.0131 -0.65557,-0.16362 -0.65557,-0.16362 l -0.44781,1.03236 1.17373,0.29254 c 0.21839,0.0547 0.43238,0.11201 0.64303,0.16594 l -0.37328,1.49853 0.90092,0.2248 0.36968,-1.48265 c 0.2389,0.0648 0.4785,0.12693 0.71876,0.18649 l -0.36835,1.4757 0.90194,0.22475 0.37324,-1.49572 c 1.53803,0.29102 2.69456,0.17364 3.18137,-1.21728 0.39226,-1.11996 -0.0195,-1.76597 -0.82874,-2.18722 0.5893,-0.13587 1.03322,-0.5235 1.15164,-1.32412 z m -2.06079,2.88945 c -0.27873,1.11996 -2.16456,0.51452 -2.77595,0.36269 l 0.49529,-1.98531 c 0.61139,0.15258 2.57201,0.45468 2.28066,1.62262 z m 0.27898,-2.90566 c -0.25433,1.01875 -1.82392,0.50116 -2.33306,0.37427 l 0.44905,-1.80063 c 0.50915,0.1269 2.14888,0.36373 1.88401,1.42636 z"
   style="fill-rule:nonzero;stroke-width:0.0413605"
   id="path1" />
    </g>
</svg>
