<svg xmlns="http://www.w3.org/2000/svg" width="32" height="32" fill="none"><g clip-path="url(#a)"><g clip-path="url(#b)"><path fill="#000" d="M29.515 8.929c-1.25-2.058-2.982-3.633-5.226-4.725-2.245-1.125-4.842-1.704-7.76-1.704H4.28v11.186H.625v4.178H4.28V29.5h12.25c2.917 0 5.514-.546 7.759-1.671 2.244-1.125 3.976-2.7 5.226-4.725 1.25-2.025 1.86-4.404 1.86-7.104s-.61-5.046-1.86-7.071Zm-6.862 13.21c-1.603 1.479-3.751 2.25-6.445 2.25h-5.675v-6.525h6.734v-4.178h-6.734V7.643h5.675c2.694 0 4.842.74 6.445 2.25 1.604 1.51 2.405 3.536 2.405 6.107s-.801 4.629-2.405 6.14Z"/></g></g><defs><clipPath id="a"><path fill="#fff" d="M0 0h32v32H0z"/></clipPath><clipPath id="b"><path fill="#fff" d="M0 0h30.75v27H0z" transform="translate(.625 2.5)"/></clipPath></defs></svg>