<?xml version="1.0" encoding="UTF-8" standalone="no"?>
<svg
   width="31.999878"
   height="31.999451"
   viewBox="0 0 31.999878 31.999451"
   version="1.1"
   xml:space="preserve"
   style="clip-rule:evenodd;fill-rule:evenodd;stroke-linejoin:round;stroke-miterlimit:2"
   id="svg5"
   xmlns="http://www.w3.org/2000/svg"
   xmlns:svg="http://www.w3.org/2000/svg"><defs
   id="defs5" />
    <g
   transform="matrix(4,0,0,4,16.002118,16.00304)"
   id="g5">
        <g
   transform="translate(-128,-128)"
   id="g4">
            <g
   id="g3">
                <clipPath
   id="_clip1">
                    <rect
   x="0"
   y="0"
   width="256"
   height="256"
   id="rect1" />
                </clipPath>
                <g
   clip-path="url(#_clip1)"
   id="g2">
                    <g
   id="g1">
                        <path
   d="m 131.94553,127.58025 c -0.0112,-0.16497 -0.0874,-0.3189 -0.21168,-0.42793 -0.12416,-0.10891 -0.28662,-0.16413 -0.45143,-0.15341 h -0.0243 c -0.15638,0.0179 -0.29981,0.0959 -0.39978,0.21744 -0.10006,0.12172 -0.14909,0.27765 -0.13669,0.43474 v 0.0245 c 0.0294,0.21641 0.0294,0.43575 0,0.65215 v 0.0245 c -0.0367,0.24406 -0.10297,0.48275 -0.1974,0.71074 -0.18763,0.44481 -0.4884,0.83284 -0.8724,1.12543 -0.38372,0.29234 -0.83743,0.47909 -1.31577,0.5415 -0.47818,0.0623 -0.96446,-0.002 -1.41008,-0.18619 -0.44596,-0.1844 -0.83596,-0.48246 -1.13099,-0.86437 -0.29521,-0.38218 -0.48546,-0.83502 -0.55171,-1.31339 -0.0662,-0.47846 -0.006,-0.96602 0.17384,-1.4142 0.17994,-0.44797 0.474,-0.84112 0.85287,-1.14028 0.37862,-0.29893 0.82905,-0.49343 1.30627,-0.56405 0.32431,-0.0442 0.65358,-0.0359 0.97527,0.0245 0.19162,0.0279 0.36456,0.13078 0.48049,0.2859 0.11606,0.15522 0.166,0.35028 0.13881,0.54218 -0.0401,0.16819 -0.14381,0.3145 -0.28927,0.40794 -0.14535,0.0933 -0.32138,0.12662 -0.49075,0.0928 h -0.0245 c -0.0535,-0.0133 -0.10825,-0.0207 -0.16334,-0.022 h -0.0219 c -0.0891,-0.01 -0.17872,-0.0139 -0.26834,-0.0122 -0.26781,0.0154 -0.52606,0.10553 -0.74527,0.26016 -0.21947,0.15471 -0.39137,0.36774 -0.49622,0.61496 -0.10493,0.2474 -0.13875,0.51924 -0.0976,0.7848 0.0411,0.26547 0.15562,0.51422 0.3305,0.71812 0.17474,0.20378 0.40309,0.35465 0.65908,0.43547 0.25584,0.0807 0.52925,0.0881 0.78909,0.0213 0.25993,-0.0668 0.49603,-0.205 0.68146,-0.39897 0.18566,-0.19412 0.3134,-0.4363 0.36881,-0.69915 l 0.0341,-0.21002 c 0.0102,-0.11616 0.0144,-0.23278 0.0124,-0.34935 -3.5e-4,-0.4509 0.16215,-0.88711 0.4574,-1.22789 0.2949,-0.34046 0.70334,-0.56296 1.14933,-0.62609 h 0.0364 c 0.0768,-0.0102 0.15425,-0.0143 0.23168,-0.0123 h 0.0586 c -0.36059,-0.5739 -0.86062,-1.0473 -1.4534,-1.37592 -0.5924,-0.32834 -1.25848,-0.50122 -1.93579,-0.50243 -1.06815,0.0175 -2.08726,0.4564 -2.83394,1.22039 -0.74765,0.76484 -1.16458,1.79429 -1.15987,2.86382 0.0225,0.90699 0.35144,1.7802 0.9329,2.47666 0.58075,0.6958 1.38074,1.17439 2.26845,1.35705 0.88743,0.18243 1.81101,0.0582 2.61869,-0.35219 0.80831,-0.41087 1.45396,-1.08386 1.83102,-1.90848 l 0.0124,-0.0219 c 0.18662,-0.43353 0.30031,-0.89496 0.33647,-1.36555 -0.007,-0.25647 -0.0319,-0.4665 -0.0538,-0.68878 z"
   style="fill:#ef4800;fill-rule:nonzero;stroke-width:0.0312497"
   id="path1" />
                    </g>
                </g>
            </g>
        </g>
    </g>
</svg>
