<svg xmlns="http://www.w3.org/2000/svg" width="32" height="32" fill="none"><g clip-path="url(#a)"><g clip-path="url(#b)"><path fill="#EF4800" d="M31.785 14.324a2.502 2.502 0 0 0-.847-1.712A2.493 2.493 0 0 0 29.132 12h-.097a2.428 2.428 0 0 0-2.146 2.608v.098a9.705 9.705 0 0 1 0 2.609v.098a12.145 12.145 0 0 1-.79 2.843 11.068 11.068 0 0 1-3.489 4.502 11.04 11.04 0 0 1-10.903 1.42 11.056 11.056 0 0 1-4.525-3.457 11.081 11.081 0 0 1 1.9-15.471 11.04 11.04 0 0 1 5.226-2.256 12.218 12.218 0 0 1 3.9.098 2.926 2.926 0 0 1 1.923 1.143c.464.621.664 1.4.555 2.169a2.676 2.676 0 0 1-1.157 1.632 2.667 2.667 0 0 1-1.963.37h-.098a2.995 2.995 0 0 0-.654-.087h-.087a8.33 8.33 0 0 0-1.074-.049 5.762 5.762 0 0 0-5.356 6.64 5.768 5.768 0 0 0 3.958 4.614 5.744 5.744 0 0 0 5.882-1.51 5.768 5.768 0 0 0 1.476-2.797l.136-.84c.04-.465.058-.931.05-1.397a7.492 7.492 0 0 1 1.83-4.912 7.466 7.466 0 0 1 4.596-2.504h.146c.307-.04.617-.057.927-.05h.234A16.066 16.066 0 0 0 23.72 2.01 16.032 16.032 0 0 0 15.975 0 16.223 16.223 0 0 0 4.64 4.882 16.285 16.285 0 0 0 0 16.337a16.081 16.081 0 0 0 3.732 9.907 16.027 16.027 0 0 0 9.074 5.428c3.55.73 7.242.233 10.475-1.409a16.05 16.05 0 0 0 7.324-7.634l.05-.088A17.135 17.135 0 0 0 32 17.08c-.03-1.026-.128-1.866-.215-2.755Z"/></g></g><defs><clipPath id="a"><path fill="#fff" d="M0 0h32v32H0z"/></clipPath><clipPath id="b"><rect width="32" height="32" fill="#fff" rx="16"/></clipPath></defs></svg>