<?xml version="1.0" encoding="UTF-8" standalone="no"?>
<svg
   width="32.000038"
   height="31.999689"
   viewBox="0 0 32.000038 31.999689"
   version="1.1"
   xml:space="preserve"
   style="clip-rule:evenodd;fill-rule:evenodd;stroke-linejoin:round;stroke-miterlimit:2"
   id="svg1"
   xmlns="http://www.w3.org/2000/svg"
   xmlns:svg="http://www.w3.org/2000/svg"><defs
   id="defs1" />
    <g
   transform="matrix(3.99999,0,0,3.99999,-495.9966,-495.99556)"
   id="g1">
        <path
   d="m 131.94557,127.58025 c -0.0112,-0.16497 -0.0874,-0.31891 -0.21168,-0.42794 -0.12416,-0.10891 -0.28663,-0.16413 -0.45144,-0.15341 h -0.0243 c -0.15638,0.0179 -0.29982,0.0959 -0.39978,0.21744 -0.10007,0.12172 -0.1491,0.27766 -0.13669,0.43475 v 0.0245 c 0.0293,0.21641 0.0293,0.43575 0,0.65216 v 0.0245 c -0.0367,0.24407 -0.10297,0.48275 -0.19741,0.71075 -0.18762,0.44482 -0.4884,0.83285 -0.8724,1.12544 -0.38372,0.29235 -0.83744,0.4791 -1.31579,0.5415 -0.47818,0.0623 -0.96446,-0.002 -1.41009,-0.18619 -0.44597,-0.1844 -0.83597,-0.48246 -1.131,-0.86437 -0.29522,-0.38219 -0.48547,-0.83503 -0.55172,-1.31341 -0.0662,-0.47847 -0.006,-0.96603 0.17385,-1.41422 0.17993,-0.44796 0.474,-0.84112 0.85287,-1.14028 0.37863,-0.29893 0.82906,-0.49343 1.30628,-0.56406 0.32431,-0.0442 0.6536,-0.0359 0.97528,0.0245 0.19163,0.0279 0.36457,0.13078 0.4805,0.28591 0.11607,0.15521 0.166,0.35028 0.13882,0.54218 -0.0401,0.16819 -0.14382,0.3145 -0.28929,0.40794 -0.14534,0.0933 -0.32137,0.12663 -0.49075,0.0928 h -0.0245 c -0.0535,-0.0133 -0.10825,-0.0207 -0.16334,-0.022 h -0.0219 c -0.0891,-0.01 -0.17872,-0.0139 -0.26834,-0.0122 -0.26781,0.0154 -0.52606,0.10553 -0.74528,0.26015 -0.21947,0.15472 -0.39138,0.36775 -0.49622,0.61497 -0.10494,0.24741 -0.13875,0.51925 -0.0976,0.78481 0.0411,0.26547 0.15563,0.51422 0.3305,0.71813 0.17475,0.20378 0.4031,0.35466 0.6591,0.43547 0.25584,0.0807 0.52925,0.0881 0.78909,0.0213 0.25994,-0.0667 0.49603,-0.205 0.68147,-0.39897 0.18566,-0.19412 0.31341,-0.43631 0.36881,-0.69915 l 0.0341,-0.21003 c 0.0102,-0.11616 0.0144,-0.23279 0.0124,-0.34935 -3.4e-4,-0.4509 0.16216,-0.88712 0.45741,-1.2279 0.2949,-0.34047 0.70334,-0.56297 1.14934,-0.6261 h 0.0364 c 0.0768,-0.0102 0.15425,-0.0143 0.23169,-0.0123 h 0.0586 c -0.3606,-0.57391 -0.86063,-1.04731 -1.45341,-1.37594 -0.5924,-0.32834 -1.2585,-0.50122 -1.93581,-0.50243 -1.06816,0.0175 -2.08728,0.4564 -2.83397,1.2204 -0.74766,0.76485 -1.16459,1.79431 -1.15987,2.86385 0.0225,0.907 0.35143,1.78021 0.9329,2.47668 0.58075,0.69582 1.38075,1.17441 2.26847,1.35707 0.88744,0.18243 1.81103,0.0582 2.61872,-0.35219 0.80831,-0.41088 1.45397,-1.08388 1.83103,-1.9085 l 0.0124,-0.0219 c 0.18662,-0.43353 0.30031,-0.89497 0.33647,-1.36556 -0.007,-0.25647 -0.0319,-0.4665 -0.0538,-0.68878 z"
   style="fill:#46b549;fill-rule:nonzero;stroke-width:0.03125"
   id="path1" />
    </g>
</svg>
