<svg width="251" height="256" fill="none" xmlns="http://www.w3.org/2000/svg"><g clip-path="url(#a)" fill="#1066DF"><path d="M224.599 211.715a9.987 9.987 0 0 0-3.081-2.459 10.272 10.272 0 0 0-3.788-1.103 10.064 10.064 0 0 0-7.368 2.337c-.264.217-.528.434-.782.65-.189.161-.377.311-.566.462a107.668 107.668 0 0 1-9.149 6.681l-.414.273c-.698.452-1.395.895-2.102 1.319-.169.104-.32.198-.48.292-.16.094-.311.189-.462.283l-.273.169-.49.293c-.16.094-.311.188-.471.273a107.188 107.188 0 0 1-5.701 3.09l-.48.245-.669.34-.877.424-.066.037c-.292.142-.584.274-.876.415l-.669.311-.433.198c-.226.103-.462.207-.688.311-.302.132-.613.273-.924.405-.621.273-1.253.537-1.884.791-.32.132-.641.264-.961.387-.613.245-1.234.49-1.856.725h-.019c-.613.236-1.235.462-1.856.679l-.123.047c-.292.103-.584.207-.886.311-.311.103-.622.207-.923.32l-.933.301a6.38 6.38 0 0 1-.264.085l-.603.189-.499.16c-.509.16-1.008.311-1.517.462l-.339.103c-.208.057-.415.123-.622.179l-.716.198-.575.16-.377.104-.481.123c-.537.141-1.083.282-1.63.414-.132.038-.273.066-.405.104-.188.047-.386.094-.584.141l-.481.113c-.037.01-.084.019-.122.028-.245.057-.5.113-.744.17-.453.104-.905.198-1.367.292-.433.094-.867.179-1.291.264l-1.055.198-.65.113c-.217.038-.386.075-.584.104l-.839.141-.82.132-.103.019c-.34.047-.669.103-.999.15-.33.047-.65.095-.961.132l-.207.029-.792.103h-.057c-.226.028-.442.057-.659.085l-.584.066c-.575.066-1.159.132-1.743.188h-.142c-.188.038-.386.057-.575.076l-.499.047c-.198.019-.396.038-.594.047l-.593.047c-.782.057-1.574.113-2.356.16l-1.046.057-.593.019a6.86 6.86 0 0 0-.453.019l-.574.018h-.585c-.197.01-.395.029-.593.029h-.207c-.33 0-.66.009-.98.009h-2.139a108.085 108.085 0 0 1-32.791-5.503c-.377-.132-.763-.254-1.14-.386-.188-.066-.377-.132-.556-.198-.179-.066-.377-.132-.556-.198a29.877 29.877 0 0 1-.904-.33l-.377-.141c-.339-.122-.679-.254-1.008-.377l-.17-.066c-.132-.047-.264-.103-.386-.15l-.132-.057-.104-.038-.226-.084-.207-.085h-.047l-.095-.047-.424-.17-.546-.226c-.302-.123-.603-.245-.905-.377h-.047l-.603-.264-.706-.311a108.439 108.439 0 0 1-46.52-39.075 5.057 5.057 0 0 1-.244-.377 108.416 108.416 0 0 1-17.818-59.305v-1.602c0-.405.019-.81.028-1.215v-.095a107.841 107.841 0 0 1 6.925-35.193c.151-.395.302-.782.453-1.178.132-.348.273-.697.414-1.045l.292-.707c.16-.386.32-.773.49-1.16.18-.423.368-.847.556-1.271.01-.028.029-.057.038-.085a.986.986 0 0 1 .047-.113l.396-.876s0-.02.01-.028c.122-.274.244-.538.367-.801.038-.076.066-.16.103-.236l.057-.132c.056-.132.122-.264.188-.386.038-.085.076-.17.114-.245l.113-.245.028-.057.075-.15c.142-.302.292-.603.443-.905.028-.047.047-.104.075-.15.198-.397.396-.792.594-1.179.141-.273.283-.556.424-.829l.094-.17s0-.018.01-.028c0 0 0-.019.01-.019.084-.17.169-.32.254-.48.028-.057.066-.113.094-.17l.188-.348c.057-.113.123-.227.18-.34l.037-.066.075-.131c.104-.208.217-.406.32-.603a106.78 106.78 0 0 1 11.788-17.14c.076-.094.16-.188.226-.283a10.107 10.107 0 0 0 2.064-7.35A10.111 10.111 0 0 0 49.82 42.11a10.137 10.137 0 0 0-6.774 3.534A127.63 127.63 0 0 0 32.7 59.787l-.076.113c-.273.433-.537.867-.81 1.29-.142.227-.273.453-.415.689a127.645 127.645 0 0 0-10.412 21.558 125.391 125.391 0 0 0-3.637 11.41c-.018.067-.037.133-.056.208-.094.34-.18.688-.273 1.037-.029.094-.048.188-.076.292-.047.179-.094.367-.141.556l-.142.556c-.094.367-.178.735-.263 1.111 0 .029-.02.066-.02.095-.009.056-.027.103-.037.16v.038c-.056.235-.113.47-.17.697-.018.066-.028.132-.047.188a127.918 127.918 0 0 0-1.46 49.054c.019.122.038.254.066.386a127.55 127.55 0 0 0 17.705 46.698c.15.236.301.481.452.716l.424.66c.141.226.283.443.424.659.207.321.415.632.622.952.122.188.245.367.367.546.047.076.104.151.151.227.207.311.424.622.64.932.048.066.095.132.133.198.019.038.047.066.066.104l.075.104a97.334 97.334 0 0 0 1.442 2.044c.264.368.537.745.81 1.112.226.311.452.613.67.914.103.141.206.283.32.424l.537.707c.113.141.216.292.339.433.17.226.348.443.518.669.094.123.188.245.283.358.188.245.386.481.575.726.122.151.235.301.358.443.17.207.339.424.518.631.122.151.245.292.367.433.17.217.358.424.537.641.123.151.255.302.387.452.17.208.348.415.527.622.283.34.575.669.867.99.292.33.613.688.924 1.036.31.339.64.716.97 1.065.33.358.65.707.98 1.055.33.349.66.698.999 1.046a126.557 126.557 0 0 0 23.198 19.005l.198.123.678.424a127.791 127.791 0 0 0 41.441 16.857l.678.141.622.123c.443.084.876.179 1.319.263.217.047.443.085.66.123l.339.056.339.057.697.122.17.029.245.047c.254.047.509.085.772.132l.933.15.943.142.942.141c.311.047.631.085.942.132l.942.123.594.075.612.075c.179.019.368.047.547.066.386.047.763.085 1.149.123l.83.085.499.047.697.066a113.214 113.214 0 0 0 5.022.348 97.83 97.83 0 0 0 2.356.095h.311l1.432.028h3.675c.49 0 .971-.019 1.461-.028h.103c.5-.01.99-.029 1.489-.048l.763-.028.763-.038c.462-.018.933-.047 1.395-.075.688-.038 1.366-.085 2.054-.132a153.438 153.438 0 0 0 4.551-.424c.273-.028.547-.066.829-.094.283-.028.556-.066.829-.104l.321-.037c.264-.029.527-.066.782-.104.32-.038.65-.085.97-.132l.189-.028c.367-.057.735-.104 1.112-.17l.132-.019.716-.113.678-.113.405-.066h.066c.519-.094 1.027-.179 1.546-.273l.094-.019.904-.17a127.28 127.28 0 0 0 42.552-16.234c.236-.142.462-.283.698-.425a119.645 119.645 0 0 0 3.015-1.912 129.675 129.675 0 0 0 12.504-9.3 10.087 10.087 0 0 0 3.542-6.86 10.126 10.126 0 0 0-2.327-7.359h-.038Z"/><path d="M81.838 36.127a9.99 9.99 0 0 0 5.069-1.376 108.706 108.706 0 0 1 6.106-3.288 107.656 107.656 0 0 1 4.004-1.885c.227-.104.453-.198.679-.302.15-.065.301-.131.462-.197.301-.132.593-.255.895-.387l.669-.282a78.28 78.28 0 0 1 1.366-.556l.518-.208.858-.339c.207-.085.414-.16.621-.235.98-.368 1.96-.716 2.959-1.056l.584-.197a105.58 105.58 0 0 1 3.515-1.112l.584-.17a110.34 110.34 0 0 1 4.598-1.225l.509-.122.594-.142.405-.094.433-.104c.283-.066.575-.132.858-.188.433-.094.867-.188 1.309-.273l.726-.142c.98-.188 1.96-.367 2.94-.537.471-.075.951-.16 1.423-.226.48-.075.961-.141 1.46-.217l.104-.018a147.72 147.72 0 0 1 2.092-.274l1.469-.17c.49-.056.98-.103 1.47-.14.49-.048.98-.085 1.48-.123.311-.019.622-.047.923-.066l1.856-.113c.311-.019.622-.028.924-.047.188 0 .367-.02.556-.02l.508-.018.585-.019.584-.019c.396-.01.791-.018 1.178-.018h1.394c4.448 0 8.895.273 13.305.829.933.113 1.865.245 2.798.386.198.028.405.066.613.094l1.027.17.198.037.169.029c.255.047.519.085.773.132l.254.047.34.066.339.066.64.122c.227.038.453.085.669.132l.18.038c.508.104 1.027.217 1.535.33l.471.103c.359.076.707.16 1.065.245.415.095.829.198 1.244.302.386.094.773.198 1.159.292l.415.113.442.113h.019c.283.075.566.15.839.226.038 0 .075.019.113.028.132.038.264.076.386.113.179.048.358.104.537.151l.443.123c.207.056.415.122.622.179l.49.15.443.133.207.065h.019l.254.076.538.17.339.103.443.141c.263.085.518.17.782.255.395.132.791.273 1.187.405a114.69 114.69 0 0 1 5.182 1.96l.584.245c.425.179.849.349 1.273.537a30.429 30.429 0 0 1 4.183 2.186c12.419 7.792 17.686 23.726 11.731 37.615a30.357 30.357 0 0 1-16.612 16.197 30.31 30.31 0 0 1-23.198-.283 47.434 47.434 0 0 0-18.101-3.825h-.018a47.156 47.156 0 0 0-5.409.254c-.81.085-1.611.198-2.422.32-.358.057-.725.123-1.083.189l-.32.056c-.132.029-.274.047-.406.076-.198.038-.405.075-.603.122h-.037c-.217.057-.424.104-.641.151l-.509.123-.301.075-.49.122c-.151.038-.311.085-.462.123l-.32.085c-.651.179-1.301.377-1.941.584-.255.085-.519.17-.773.254l-.386.132c-.132.047-.255.085-.387.142l-.377.14c-.377.142-.763.283-1.13.434a47.308 47.308 0 0 0-5.494 2.62c-.113.066-.235.132-.348.198-.236.132-.471.273-.707.405-.236.141-.462.273-.697.424a36.85 36.85 0 0 0-.65.414l-.566.368c-.132.085-.254.17-.386.254a3.014 3.014 0 0 0-.217.151c-.075.057-.179.122-.273.188-.094.067-.217.151-.32.227-.217.15-.434.301-.641.461-.207.151-.434.32-.65.48-.104.076-.208.161-.321.236a46.373 46.373 0 0 0-6.228 5.776l-.057.057c-.16.179-.32.358-.48.546-.151.17-.302.35-.452.528l-.17.198c-.188.226-.377.452-.556.678-.066.076-.122.151-.179.227-.16.198-.311.395-.462.593-.113.142-.216.283-.329.424-.302.396-.594.792-.877 1.197v.009a46.615 46.615 0 0 0-5.248 9.724c0 .019-.01.029-.019.047l-.17.424-.16.415c-.037.104-.085.217-.122.33-.038.103-.094.264-.142.405-.056.16-.112.33-.17.49-.056.17-.112.349-.169.518a46.618 46.618 0 0 0-1.592 23.311c.047.283.104.556.17.839a46.49 46.49 0 0 0 6.718 16.386l.264.405a46.405 46.405 0 0 0 12.616 12.749c.16.103.321.216.481.32a46.729 46.729 0 0 0 20.805 7.604l.537.056.48.048.227.018c2.986.264 5.992.245 8.979-.075.113-.009.236-.028.349-.047h.028a47.208 47.208 0 0 0 17.714-5.672 10.158 10.158 0 0 0 2.997-2.554 10.112 10.112 0 0 0 1.79-3.515c.358-1.281.471-2.61.311-3.929a10.128 10.128 0 0 0-1.216-3.75 10.049 10.049 0 0 0-2.562-2.996 10.026 10.026 0 0 0-3.515-1.79 10.016 10.016 0 0 0-3.929-.311c-1.319.16-2.591.565-3.75 1.215a26.981 26.981 0 0 1-16.169 3.223l-.293-.038c-.169-.019-.339-.047-.508-.066-.17-.028-.358-.047-.547-.085a17.412 17.412 0 0 1-.669-.122 19.219 19.219 0 0 1-1.036-.226c-.104-.019-.198-.048-.292-.066l-.34-.085c-.113-.029-.216-.057-.339-.085l-.339-.094a23.37 23.37 0 0 0-.283-.085l-.367-.113c-.217-.066-.434-.141-.65-.207-.104-.038-.217-.076-.321-.114-.216-.075-.433-.16-.64-.235a29.078 29.078 0 0 1-.952-.386l-.245-.104-.255-.113-.254-.123-.396-.188a27.17 27.17 0 0 1-10.195-8.65l-.226-.339c-.075-.113-.151-.217-.217-.321-.075-.113-.132-.197-.188-.292a27.206 27.206 0 0 1-4.334-14.19v-.886c0-.132 0-.282.009-.433.009-.141.009-.283.019-.433 0-.104 0-.208.019-.311l.018-.311c.019-.255.038-.509.066-.754.01-.113.019-.217.038-.33.019-.198.047-.396.076-.603.018-.151.037-.302.065-.452l.057-.339c.038-.208.066-.415.113-.622.038-.208.075-.396.113-.594.047-.198.094-.433.141-.65.038-.141.066-.283.104-.434.028-.113.057-.216.085-.339l.198-.706c.301-.98.65-1.951 1.055-2.893a26.753 26.753 0 0 1 2.111-3.967c.103-.17.235-.368.367-.547.076-.122.17-.235.245-.348.132-.189.264-.368.396-.547l.207-.282c.076-.104.151-.198.226-.292.095-.123.189-.245.293-.368.094-.122.197-.245.292-.358l.301-.349c.17-.207.358-.405.547-.603l.037-.037c.208-.227.415-.443.632-.66.16-.17.329-.33.508-.49l.132-.122a27.146 27.146 0 0 1 3.308-2.658c.226-.15.452-.301.669-.442.113-.076.226-.151.358-.227.132-.084.264-.169.395-.245.132-.075.264-.16.406-.235a28.066 28.066 0 0 1 4.428-2.026l.66-.226c.151-.047.292-.094.443-.141.15-.048.292-.085.442-.132.151-.038.302-.085.453-.123.151-.037.292-.075.433-.113.321-.075.641-.151.961-.217l.415-.084.311-.057.32-.056c.207-.038.405-.066.613-.095h.018a26.627 26.627 0 0 1 3.864-.282h.443c3.505.066 6.953.81 10.176 2.186 20.956 8.989 45.445 2.779 59.56-15.105a50.657 50.657 0 0 0 10.883-31.056v-.094a50.501 50.501 0 0 0-8.292-27.92 50.451 50.451 0 0 0-22.332-18.694c-.329-.14-.65-.282-.98-.414a32.038 32.038 0 0 1-.998-.415c-.5-.207-.99-.405-1.499-.603-.499-.198-.998-.396-1.498-.584l-.819-.31a25.515 25.515 0 0 0-.82-.302c-.245-.085-.481-.18-.726-.264l-.65-.236-1.008-.348c-.697-.236-1.395-.472-2.101-.698l-.481-.16-.575-.188-.867-.274-.584-.179-.518-.15-.735-.217-1.479-.424a40.707 40.707 0 0 0-1.018-.273l-.961-.255h-.038l-.207-.056c-.556-.142-1.102-.283-1.658-.415l-.566-.132-.659-.16c-.339-.075-.66-.15-.99-.226l-.075-.019-.989-.217c-.688-.15-1.376-.292-2.064-.433l-.603-.113-.876-.17c-.198-.038-.396-.075-.584-.113l-.839-.15-.302-.057c-.659-.113-1.319-.217-1.978-.33a79.309 79.309 0 0 0-2.083-.31l-.829-.114-.471-.057c-.056 0-.113-.018-.17-.018l-.282-.038-.283-.038-.546-.066-.377-.047-.726-.085-.226-.028c-.292-.028-.584-.066-.886-.094l-.819-.075-.283-.029-.81-.075c-.321-.028-.641-.057-.962-.076a133.823 133.823 0 0 0-4.362-.263h-.33l-.188-.01-.707-.028-.999-.028a176.35 176.35 0 0 0-2.214-.038h-2.167c-.311 0-.613 0-.924.01-.311.009-.593.009-.885.018-.293 0-.585.01-.886.02-.424.009-.858.027-1.282.046l-.744.029-.339.018-.556.029-.726.037-.659.038h-.094c-5.814.367-11.59 1.13-17.291 2.29l-.207.037c-.462.095-.923.198-1.395.292l-.075.02c-.207.046-.415.084-.622.131-2.045.453-4.07.952-6.087 1.498a127.01 127.01 0 0 0-29.04 11.958l-.99.565-.395.226-.17.104-.17.103a10.077 10.077 0 0 0-4.041 4.966 10.183 10.183 0 0 0-.255 6.398 10.191 10.191 0 0 0 3.637 5.267 10.083 10.083 0 0 0 6.078 2.017h.01l-.01.094Z"/><path d="m66.375 82.138-.085.141a87.064 87.064 0 0 0-10.27 24.461c-.01.047-.028.094-.038.141l-.141.594c-.019.094-.047.198-.066.292-.047.188-.085.377-.132.565a87.373 87.373 0 0 0-1.206 33.055c.019.094.028.188.038.282a60.533 60.533 0 0 1 .141.839l.019.094s0 .047.01.075a87.518 87.518 0 0 0 13.134 33.413l.17.263c.64.971 1.3 1.923 1.978 2.865.255.358.519.707.773 1.055a87.49 87.49 0 0 0 57.459 34.383l.122.019.575.085h.085l.471.075h.103l.509.075a87.439 87.439 0 0 0 20.824.132l.443-.056c.141-.019.283-.038.424-.047l.594-.076.113-.019h.075l.132-.028.556-.075.198-.029c.339-.047.659-.094.98-.141h.009a87.426 87.426 0 0 0 39.914-17.064 10.007 10.007 0 0 0 2.629-2.959 10.162 10.162 0 0 0 1.291-3.75 10.056 10.056 0 0 0-1.998-7.51 10.178 10.178 0 0 0-2.987-2.61 10.028 10.028 0 0 0-3.76-1.262 10.022 10.022 0 0 0-3.957.282 10.306 10.306 0 0 0-3.543 1.781 67.33 67.33 0 0 1-24.046 11.75c-.113.028-.226.047-.339.075a67.013 67.013 0 0 1-6.69 1.348h-.095c-.263.056-.527.085-.791.122l-.292.038a67.444 67.444 0 0 1-8.716.565h-.019a67.564 67.564 0 0 1-18.402-2.553l-.056-.019a81.805 81.805 0 0 1-1.395-.414 54.229 54.229 0 0 1-2.045-.669l-1.046-.368-.452-.17-.132-.047c-.264-.094-.527-.198-.791-.301l-.226-.085-.396-.16-.104-.038h-.019c-.263-.104-.527-.207-.791-.32l-.198-.085-.217-.094c-.395-.17-.782-.339-1.178-.509l-.32-.141a67.744 67.744 0 0 1-28.05-23.689l-.17-.245-.292-.442-.255-.396a67.766 67.766 0 0 1-10.836-36.088v-.867c0-.349 0-.698.01-1.046v-.085c.028-1.319.094-2.629.198-3.929.009-.141.019-.283.037-.415 0-.066.01-.132.02-.198a67.176 67.176 0 0 1 5.181-20.522 67.895 67.895 0 0 1 4.354-8.47c.066-.114.141-.236.207-.35a67.898 67.898 0 0 1 3.892-5.615 67.541 67.541 0 0 1 12.428-12.438 65.646 65.646 0 0 1 4.249-3.015 73.261 73.261 0 0 1 3.807-2.3 68.052 68.052 0 0 1 23.358-7.942 68.407 68.407 0 0 1 9.621-.679h.019c.245 0 .49-.01.744-.028h.047a66.8 66.8 0 0 1 25.318 5.305c.142.056.283.113.424.179h.019a10.055 10.055 0 0 0 7.736.104 10.097 10.097 0 0 0 5.635-13.135 10.138 10.138 0 0 0-5.399-5.54h-.019a87.086 87.086 0 0 0-47.169-6.19l-.349.055-.556.085-.103.019-.415.066A86.869 86.869 0 0 0 93.145 54.67l-.076.047c-.15.104-.31.198-.462.302l-.47.31c-.104.076-.208.142-.312.218a86.713 86.713 0 0 0-23.773 23.98c-.122.188-.263.395-.395.593l-.076.114-.405.63-.235.368c-.085.132-.17.264-.245.396-.047.075-.095.15-.142.217l-.17.263-.018.048.01-.02Z"/></g><defs><clipPath id="a"><path fill="#fff" transform="translate(-5)" d="M0 0h256v256H0z"/></clipPath></defs></svg>