<svg width="256" height="256" fill="none" xmlns="http://www.w3.org/2000/svg"><path d="M127.607 86.426V58.634l-42.29-12.277v27.778l42.29 12.29Z" fill="#E1E1E1"/><path d="M127.605 86.425V58.634l42.305-12.216v27.717l-42.305 12.29Z" fill="#C4C3C3"/><path d="M127.607 128.658v-27.792L85.317 88.59v27.778l42.29 12.29Z" fill="#E1E1E1"/><path d="M127.605 128.657v-27.792l42.305-12.218v27.719l-42.305 12.291Z" fill="#C4C3C3"/><path d="M127.607 213.117v-27.792l-42.29-12.276v27.778l42.29 12.29Z" fill="#E1E1E1"/><path d="M127.605 213.119v-27.792l42.305-12.216v27.717l-42.305 12.291Z" fill="#C4C3C3"/><path d="M127.608 170.888v-27.792l-83.745-24.309v27.764l83.745 24.337Z" fill="#44B549"/><path d="M127.605 170.887v-27.792l83.784-24.195-.005 27.648-83.779 24.339Z" fill="#409244"/><path d="m71.655 239.713-27.792-8.81V34.225l27.792 8.082v197.406Z" fill="#44B549"/><path d="m183.578 42.307 27.831-8.082-.039 196.678-27.792 8.81V42.307Z" fill="#409244"/><path d="M127.607 255.35v-27.792l-42.29-12.277v27.778l42.29 12.291Z" fill="#E1E1E1"/><path d="M127.605 255.352V227.56l42.305-12.218v27.719l-42.305 12.291Z" fill="#C4C3C3"/><path d="M127.605 44.751 43.852 20.34 127.605 0l83.797 20.34-83.797 24.411Z" fill="#E1E1E1"/></svg>