<svg xmlns="http://www.w3.org/2000/svg" width="256" height="256" fill="none"><path fill="#C82020" d="M239.246 128c0 15.483-4.148 29.989-11.375 42.5a85.346 85.346 0 0 1-31.125 31.125c-.449.251-.885.502-1.334.753-12.194 6.764-26.224 10.621-41.153 10.621H69.273L85.205 170.5h-47.81L53.327 128h100.932l-15.932 42.5h15.932c19.804 0 36.436-13.542 41.153-31.879A42.615 42.615 0 0 0 196.746 128c0-23.463-19.024-42.5-42.5-42.5H69.259L85.192 43h69.054c15.483 0 29.989 4.148 42.5 11.375A85.346 85.346 0 0 1 227.871 85.5c7.227 12.498 11.375 27.016 11.375 42.5Zm-185.945 0H5.504l15.932-42.5h47.811L53.301 128Z"/></svg>