<svg xmlns="http://www.w3.org/2000/svg" width="256" height="256" fill="none"><g clip-path="url(#a)"><g fill="#EF4800" clip-path="url(#b)"><path d="M128.318 213.573c47.898 0 86.46-38.562 86.46-85.242 0-46.68-38.562-85.241-86.46-85.241-47.897 0-86.459 38.561-86.459 85.241s38.562 85.242 86.459 85.242Z"/><path d="M200.78 218.665c4.648 4.403 4.365 11.926-.966 15.473-50.145 33.364-118.235 28.472-162.768-15.68-50.739-50.333-50.739-130.704 0-181.037C81.348-6.88 150.083-11.656 200.317 22.08c5.094 3.422 5.46 10.6 1.121 14.94-3.703 3.702-9.564 3.998-13.94 1.123-41.769-27.428-98.677-22.458-135.027 13.892-43.026 41.808-43.026 110.001-.811 151.81 36.356 36.356 93.278 41.322 135.048 13.877 4.393-2.887 10.256-2.672 14.072.943Zm18.728-18.304c4.406 4.651 11.931 4.392 15.505-.925 29.083-43.265 28.96-100.384-.37-143.532-3.437-5.055-10.58-5.393-14.903-1.07-3.724 3.723-4.002 9.624-1.08 14.005 23.604 35.395 23.568 81.431-.107 117.417-2.897 4.403-2.67 10.278.955 14.105Z"/></g></g><defs><clipPath id="a"><path fill="#fff" d="M0 0h256v256H0z"/></clipPath><clipPath id="b"><rect width="256" height="256" fill="#fff" rx="64"/></clipPath></defs></svg>