<?xml version="1.0" encoding="UTF-8" standalone="no"?>
<svg
   width="288"
   height="288.00003"
   viewBox="0 0 288 288.00003"
   version="1.1"
   xml:space="preserve"
   style="clip-rule:evenodd;fill-rule:evenodd;stroke-linejoin:round;stroke-miterlimit:2"
   id="svg2"
   xmlns="http://www.w3.org/2000/svg"
   xmlns:svg="http://www.w3.org/2000/svg"><defs
   id="defs2" />
    <g
   transform="matrix(4,0,0,4,-368,-368.00004)"
   id="g1">
        <path
   d="m 117.40559,93.589071 c 3.348,-1.033593 6.912,-1.589062 10.59441,-1.589062 V 128.00001 H 92 c 0,-3.69253 0.555469,-7.24641 1.589062,-10.59947 3.492001,-11.36053 12.455998,-20.324531 23.816528,-23.811469 z"
   style="fill:#a2c4b8;fill-rule:nonzero;stroke-width:0.28125"
   id="path1" />
    </g>
    <g
   transform="matrix(4,0,0,4,-368,-368.00004)"
   id="g2">
        <path
   d="m 128,146.00001 c 0,4.97306 -2.016,9.47306 -5.27147,12.72347 -1.53787,1.54181 -3.34322,2.79112 -5.328,3.68747 -2.32594,1.04934 -4.84875,1.59131 -7.40053,1.58906 -4.97306,0 -9.47306,-2.016 -12.728531,-5.27653 C 94.016,155.47307 92,150.97307 92,146.00001 c 0,-2.63841 0.570937,-5.14294 1.589062,-7.40053 0.894375,-1.9845 2.142282,-3.78985 3.682407,-5.328 C 100.532,130.01095 105.032,128.00001 110,128.00001 c 0,4.97306 2.016,9.47306 5.27147,12.72347 3.26053,3.26053 7.76053,5.27653 12.72853,5.27653 z m 36,-18 H 128 V 92.000009 c 3.68747,0 7.24106,0.555469 10.58906,1.589062 h 0.005 c 11.36053,3.486938 20.32453,12.450939 23.81653,23.811469 1.03865,3.35306 1.58906,6.91228 1.58906,10.59947 z m 0,0 v 18 c 0,4.97306 -2.016,9.47306 -5.27147,12.72347 -3.26053,3.26053 -7.76053,5.27653 -12.72853,5.27653 -2.55178,0.002 -5.07459,-0.53972 -7.40053,-1.58906 -1.9831,-0.89888 -3.78816,-2.14791 -5.328,-3.68747 C 130.016,155.47307 128,150.97307 128,146.00001 v -18 z"
   style="fill:#099250;fill-rule:nonzero;stroke-width:0.28125"
   id="path2" />
    </g>
</svg>
