<?xml version="1.0" encoding="UTF-8" standalone="no"?>
<svg
   width="143.99992"
   height="136.68692"
   viewBox="0 0 143.99992 136.68692"
   version="1.1"
   xml:space="preserve"
   style="clip-rule:evenodd;fill-rule:evenodd;stroke-linejoin:round;stroke-miterlimit:2"
   id="svg1"
   xmlns="http://www.w3.org/2000/svg"
   xmlns:svg="http://www.w3.org/2000/svg"><defs
   id="defs1" />
    <g
   transform="matrix(3.99998,0,0,3.99998,-439.99952,-441.65405)"
   id="g1">
        <path
   d="m 142.74595,126.53954 c 0.0568,-0.0845 0.11067,-0.17058 0.16467,-0.25805 1.00251,-1.62183 1.49526,-3.50466 1.49526,-5.40703 v -0.10027 c 0,-2.04778 -0.57375,-4.06589 -1.72097,-5.76675 -1.70114,-2.52309 -4.47862,-4.26895 -7.68051,-4.59337 h -10.15411 c -0.38616,-9.9e-4 -0.75727,0.15187 -1.03078,0.42454 -0.27366,0.27014 -0.42778,0.63914 -0.4275,1.02375 v 4.61039 c 0,0.4005 0.16326,0.76304 0.4275,1.0239 0.27351,0.27267 0.64462,0.42553 1.03078,0.42454 h 9.15019 c 1.57036,0 2.84273,1.26647 2.84273,2.82347 v 0.14949 c 0,1.55981 -1.27237,2.82346 -2.84273,2.82346 h -14.98191 c -0.38616,7.1e-4 -0.75727,-0.15215 -1.03092,-0.42468 -0.27338,-0.27028 -0.4275,-0.63928 -0.4275,-1.02375 V 111.8625 c 0,-0.40064 -0.16313,-0.76303 -0.42736,-1.02389 -0.27352,-0.27239 -0.64449,-0.42525 -1.03064,-0.42454 h -4.64344 c -0.80508,0 -1.45828,0.6487 -1.45828,1.44843 v 31.275 c 0,0.39769 0.16327,0.76163 0.4275,1.0239 0.27337,0.27267 0.64462,0.42553 1.03078,0.42454 h 4.64203 c 0.40317,0 0.76669,-0.16214 1.03078,-0.42454 0.27352,-0.27029 0.4275,-0.63929 0.4275,-1.0239 v -10.40667 c 0,-0.79959 0.65307,-1.44843 1.45828,-1.44843 h 14.90949 c 0.24708,0 0.48839,-0.0112 0.72984,-0.0267 h 0.94275 c 1.56769,0 2.84274,1.26365 2.84274,2.82347 v 0.14667 c 0,1.55981 -1.27505,2.82347 -2.84274,2.82347 h -10.69931 c -0.0156,-0.003 -0.034,-0.003 -0.0496,-0.003 -0.0156,0 -0.034,0 -0.0498,0.003 -0.369,0.01 -0.72042,0.16157 -0.98114,0.423 -0.2738,0.2707 -0.42778,0.64026 -0.4275,1.02529 v 4.63992 c 0,0.39769 0.1634,0.76163 0.4275,1.0239 0.27351,0.27281 0.64462,0.42567 1.03092,0.42454 h 11.41636 c 2.98195,-0.20587 5.62303,-1.64587 7.40644,-3.80925 1.53365,-1.85878 2.32734,-4.21256 2.32734,-6.61584 v -0.0197 c 0,-2.34253 -0.75262,-4.63851 -2.21653,-6.4748 -0.31922,-0.40021 -0.66713,-0.77681 -1.04077,-1.12682 h 0.003 z"
   style="fill:#000030;fill-rule:nonzero;stroke-width:0.140625"
   id="path1" />
    </g>
</svg>
