<?xml version="1.0" encoding="UTF-8" standalone="no"?>
<svg
   width="144"
   height="144"
   viewBox="0 0 144 144"
   version="1.1"
   xml:space="preserve"
   style="clip-rule:evenodd;fill-rule:evenodd;stroke-linejoin:round;stroke-miterlimit:2"
   id="svg2"
   xmlns="http://www.w3.org/2000/svg"
   xmlns:svg="http://www.w3.org/2000/svg"><defs
   id="defs2" />
    <g
   transform="matrix(0.512,0,0,0.512,-440,-440)"
   id="g1">
        <path
   d="m 1080.7736,1094.6941 c 3.0094,3.0093 4.5183,7.2126 4.1119,11.4482 -0.405,4.2357 -2.6874,8.0747 -6.2128,10.4555 -22.4789,15.1538 -49.5479,24.0272 -78.6727,24.0272 -29.12527,0 -56.19431,-8.8734 -78.64847,-24.0623 -3.51576,-2.3738 -5.79037,-6.2016 -6.19523,-10.4246 -0.40528,-4.2229 1.09997,-8.4136 4.10006,-11.4131 -0.0292,-0.031 -0.0287,-0.031 -0.0283,-0.032 6.29761,-6.2972 16.09918,-7.4363 23.6731,-2.7507 16.56281,10.3711 36.13936,16.3393 57.09881,16.3393 20.96023,0 40.53663,-5.9682 57.12473,-16.2985 7.5544,-4.673 17.3306,-3.5367 23.6123,2.745 0.035,-0.034 0.035,-0.034 0.037,-0.034 z m 13.9205,-175.46755 c 3.0093,-3.00896 7.2126,-4.51871 11.4482,-4.11244 4.2357,0.40598 8.0747,2.68734 10.4555,6.21366 15.1538,22.47792 24.0272,49.54696 24.0272,78.67223 0,29.1248 -8.8734,56.1938 -24.0623,78.6488 -2.3738,3.5156 -6.2016,5.7895 -10.4246,6.1945 -4.2229,0.4064 -8.4136,-1.0997 -11.4131,-4.0992 -0.031,0.028 -0.031,0.028 -0.032,0.028 -6.2972,-6.2972 -7.4363,-16.1002 -2.7507,-23.6728 10.3711,-16.5628 16.3393,-36.1392 16.3393,-57.0994 0,-20.95945 -5.9682,-40.536 -16.2985,-57.12455 -4.673,-7.55465 -3.5367,-17.33104 2.745,-23.6122 -0.034,-0.0356 -0.034,-0.0361 -0.034,-0.0367 z m -211.25746,2.12498 c 2.64178,-3.91078 7.06416,-6.2602 11.78367,-6.2602 3.77002,0 7.38942,1.4992 10.05525,4.16503 0.0304,-0.0292 0.0309,-0.0287 0.0315,-0.0283 6.29705,6.29761 7.43625,16.09918 2.75133,23.6731 -10.3718,16.56281 -16.33964,36.13936 -16.33964,57.09881 0,20.96023 5.96784,40.53663 16.29816,57.12473 4.67282,7.5544 3.53629,17.3306 -2.745,23.6123 0.0346,0.035 0.034,0.035 0.0335,0.037 -3.00882,3.0094 -7.21154,4.5183 -11.44716,4.1119 -4.23563,-0.4064 -8.07483,-2.6874 -10.45674,-6.2128 C 868.24844,1056.1938 859.375,1029.1248 859.375,1000 c 0,-29.12527 8.87344,-56.19431 24.06164,-78.64847 z M 1000,911.40625 c 48.8967,0 88.5938,39.69759 88.5938,88.59375 0,48.8967 -39.6971,88.5938 -88.5938,88.5938 -48.89616,0 -88.59375,-39.6971 -88.59375,-88.5938 0,-48.89616 39.69759,-88.59375 88.59375,-88.59375 z m -80.77345,-6.10087 c -2.67385,-2.67371 -4.17769,-6.30394 -4.17769,-10.08535 0,-4.73344 2.35645,-9.16889 6.27891,-11.81855 C 943.80569,868.24844 970.87473,859.375 1000,859.375 c 29.1248,0 56.1938,8.87344 78.6488,24.06164 3.5156,2.37502 5.7895,6.20269 6.1945,10.42566 0.405,4.22297 -1.0997,8.41331 -4.0992,11.41326 0.028,0.0304 0.028,0.0309 0.028,0.0315 -6.2972,6.29705 -16.1002,7.43625 -23.6728,2.75133 -16.5628,-10.3718 -36.1392,-16.33964 -57.0994,-16.33964 -20.95945,0 -40.536,5.96784 -57.12455,16.29816 -7.55465,4.67282 -17.33104,3.53629 -23.6122,-2.745 -0.0356,0.0346 -0.0361,0.034 -0.0367,0.0335 z"
   style="fill:#208e7a;stroke-width:0.140625"
   id="path1" />
    </g>
    <g
   transform="matrix(4,0,0,4,-440,-440)"
   id="g2">
        <path
   d="m 123.44572,131.16195 c -0.25102,0 -0.4576,0.20658 -0.4576,0.4576 v 1.21739 c 0,0.25101 0.20658,0.45759 0.4576,0.45759 h 3.34097 v 3.08911 c 0,0.25116 0.20658,0.45773 0.45773,0.45773 h 1.46911 c 0.25116,0 0.45774,-0.20657 0.45774,-0.45773 v -3.08911 h 3.38301 c 0.25102,0 0.45759,-0.20658 0.45759,-0.45759 v -1.21739 c 0,-0.25102 -0.20657,-0.4576 -0.45759,-0.4576 z m 9.11897,-1.51354 c 0.25115,0 0.45773,-0.20658 0.45773,-0.45774 v -1.1963 c 0,-0.25101 -0.20658,-0.45759 -0.45759,-0.45759 0,0 -1.4e-4,0 -1.4e-4,0 h -2.86706 l 3.87407,-6.85139 c 0.08,-0.14161 0.0789,-0.31556 -0.003,-0.45605 -0.082,-0.14034 -0.23288,-0.22696 -0.39544,-0.22696 h -1.69987 c -0.16496,0 -0.31753,0.089 -0.39867,0.23259 l -3.08279,5.46005 -3.04467,-5.45794 c -0.0807,-0.1447 -0.234,-0.2347 -0.39965,-0.2347 h -1.72097 c -1.4e-4,0 -2.8e-4,0 -5.6e-4,0 -0.25088,0 -0.45746,0.20643 -0.45746,0.45745 0,0.0787 0.0204,0.15609 0.0591,0.22472 l 3.85566,6.85223 h -2.82712 c -0.25102,0 -0.4576,0.20658 -0.45774,0.45759 v 1.1963 c 0,0.25116 0.20658,0.45774 0.45774,0.45774 z"
   style="fill:#ffffff;fill-rule:nonzero;stroke-width:0.140625"
   id="path2" />
    </g>
</svg>
