<?xml version="1.0" encoding="UTF-8" standalone="no"?>
<svg
   width="144"
   height="173.88658"
   viewBox="0 0 144 173.88658"
   version="1.1"
   xml:space="preserve"
   style="clip-rule:evenodd;fill-rule:evenodd;stroke-linejoin:round;stroke-miterlimit:2"
   id="svg1"
   xmlns="http://www.w3.org/2000/svg"
   xmlns:svg="http://www.w3.org/2000/svg"><defs
   id="defs1" />
    <g
   transform="matrix(4,0,0,4,-352,-425.05612)"
   id="g1">
        <path
   d="m 124,114.9582 v -8.69417 h -18 v 8.69417 h 9 c -0.0367,2.34084 -1.00562,4.57284 -2.69049,6.19811 -1.68759,1.63002 -3.95694,2.52747 -6.30951,2.49572 v -8.69383 c -4.70411,-0.0598 -9.240113,1.73649 -12.614094,4.99584 -3.374151,3.25936 -5.310849,7.71555 -5.385906,12.39216 0.07506,4.67643 2.011925,9.13262 5.385906,12.39198 3.373981,3.25935 7.909984,5.05562 12.614094,4.99585 4.7053,0.0638 9.24368,-1.73123 12.61851,-4.99144 3.37483,-3.26021 5.31034,-7.71877 5.38149,-12.39639 h -9 c -0.0156,1.15913 -0.261,2.30366 -0.72187,3.36735 -0.46171,1.06523 -1.12941,2.02891 -1.96471,2.83534 -0.83684,0.80814 -1.82463,1.44391 -2.907,1.87064 -1.08391,0.42759 -2.24134,0.63867 -3.40642,0.62084 -2.35257,0.0318 -4.62158,-0.86604 -6.309,-2.49623 -1.687585,-1.63002 -2.655509,-3.85913 -2.691,-6.19794 0.03566,-2.33899 1.003585,-4.5681 2.691,-6.19812 1.68742,-1.63002 3.95626,-2.52798 6.309,-2.49605 v 8.69417 c 4.70411,0.0598 9.24011,-1.737 12.61409,-4.99636 3.37399,-3.25919 5.31085,-7.71521 5.38591,-12.39164 z"
   style="fill:#ef6100;fill-rule:nonzero;stroke-width:0.169811"
   id="path1" />
    </g>
</svg>
