<?xml version="1.0" encoding="UTF-8" standalone="no"?>
<svg
   width="143.99947"
   height="172.295"
   viewBox="0 0 143.99947 172.295"
   version="1.1"
   xml:space="preserve"
   style="clip-rule:evenodd;fill-rule:evenodd;stroke-linejoin:round;stroke-miterlimit:2"
   id="svg4"
   xmlns="http://www.w3.org/2000/svg"
   xmlns:svg="http://www.w3.org/2000/svg"><defs
   id="defs4" />
    <g
   transform="matrix(0.999959,0,0,0.999959,-368.88326,-425.79116)"
   id="g4">
        <g
   transform="matrix(3.9987,0,0,3.9987,-38.875,0.251891)"
   id="g1">
            <path
   d="m 137.5843,142.05911 c -0.14353,-0.17095 -0.31986,-0.31161 -0.51841,-0.41374 -0.19854,-0.10247 -0.41492,-0.16557 -0.63736,-0.18559 -0.44891,-0.0392 -0.89547,0.10247 -1.23972,0.39322 -0.0444,0.0365 -0.0888,0.073 -0.13158,0.10936 -0.0318,0.0271 -0.0634,0.0523 -0.0952,0.0777 -0.49299,0.40146 -1.00685,0.77668 -1.53939,1.12413 l -0.0697,0.0459 c -0.11744,0.076 -0.23472,0.15059 -0.35368,0.22193 -0.0284,0.0175 -0.0538,0.0333 -0.0808,0.0491 -0.0269,0.0158 -0.0523,0.0318 -0.0777,0.0476 l -0.0459,0.0284 -0.0824,0.0493 c -0.0269,0.0158 -0.0523,0.0316 -0.0793,0.0459 -0.31447,0.18289 -0.63433,0.35637 -0.95924,0.51991 l -0.0808,0.0412 -0.11257,0.0572 -0.14756,0.0713 -0.0111,0.006 c -0.0491,0.0239 -0.0983,0.0461 -0.1474,0.0698 l -0.11256,0.0523 -0.0729,0.0333 c -0.038,0.0173 -0.0777,0.0348 -0.11576,0.0523 -0.0508,0.0222 -0.10314,0.0459 -0.15547,0.0681 -0.10449,0.0459 -0.21083,0.0904 -0.317,0.1331 -0.0538,0.0222 -0.10785,0.0444 -0.16169,0.0651 -0.10315,0.0412 -0.20763,0.0825 -0.31229,0.12199 h -0.003 c -0.10314,0.0397 -0.2078,0.0777 -0.31228,0.11425 l -0.0207,0.008 c -0.0491,0.0173 -0.0983,0.0348 -0.14908,0.0523 -0.0523,0.0173 -0.10465,0.0348 -0.1553,0.0539 l -0.15698,0.0506 c -0.0146,0.005 -0.0294,0.01 -0.0444,0.0143 l -0.10146,0.0318 -0.084,0.0269 c -0.0856,0.0269 -0.16961,0.0523 -0.25525,0.0777 l -0.057,0.0173 c -0.035,0.01 -0.0698,0.0207 -0.10466,0.0301 l -0.12047,0.0333 -0.0967,0.0269 -0.0634,0.0175 -0.0809,0.0207 c -0.0904,0.0237 -0.18223,0.0474 -0.27427,0.0697 -0.0222,0.006 -0.0459,0.0111 -0.0681,0.0175 -0.0316,0.008 -0.0649,0.0158 -0.0983,0.0237 l -0.0809,0.019 c -0.006,0.002 -0.0141,0.003 -0.0205,0.005 -0.0412,0.01 -0.0841,0.019 -0.12519,0.0286 -0.0762,0.0175 -0.15227,0.0333 -0.23001,0.0491 -0.0729,0.0158 -0.14588,0.0301 -0.21722,0.0444 l -0.17751,0.0333 -0.10937,0.019 c -0.0365,0.006 -0.0649,0.0126 -0.0983,0.0175 l -0.14117,0.0237 -0.13797,0.0222 -0.0173,0.003 c -0.0572,0.008 -0.11256,0.0173 -0.16809,0.0252 -0.0555,0.008 -0.10937,0.016 -0.1617,0.0222 l -0.0348,0.005 -0.13326,0.0173 h -0.01 c -0.038,0.005 -0.0744,0.01 -0.11088,0.0143 l -0.0983,0.0111 c -0.0968,0.0111 -0.19501,0.0222 -0.29328,0.0316 h -0.0239 c -0.0316,0.006 -0.0649,0.01 -0.0968,0.0128 l -0.084,0.008 c -0.0333,0.003 -0.0666,0.006 -0.0999,0.008 l -0.0998,0.008 c -0.13158,0.01 -0.26484,0.019 -0.39642,0.0269 l -0.17599,0.01 -0.0998,0.003 c -0.0254,1.7e-4 -0.0508,0.001 -0.0762,0.003 l -0.0966,0.003 h -0.0984 c -0.0331,0.002 -0.0665,0.005 -0.0998,0.005 h -0.0348 c -0.0555,0 -0.11105,0.002 -0.16489,0.002 h -0.35991 c -1.87591,-0.0222 -3.73701,-0.3345 -5.51735,-0.92592 -0.0634,-0.0222 -0.12838,-0.0427 -0.19181,-0.065 -0.0316,-0.0111 -0.0634,-0.0222 -0.0936,-0.0333 -0.0301,-0.0111 -0.0634,-0.0222 -0.0936,-0.0333 -0.051,-0.0177 -0.10162,-0.0362 -0.1521,-0.0555 l -0.0634,-0.0237 c -0.057,-0.0205 -0.11425,-0.0427 -0.16961,-0.0634 l -0.0286,-0.0111 c -0.0222,-0.008 -0.0444,-0.0173 -0.0649,-0.0252 l -0.0222,-0.01 -0.0175,-0.006 -0.038,-0.0141 -0.0348,-0.0143 h -0.008 l -0.016,-0.008 -0.0713,-0.0286 -0.0919,-0.038 c -0.0508,-0.0207 -0.10146,-0.0412 -0.15227,-0.0634 h -0.008 l -0.10146,-0.0444 -0.11879,-0.0523 c -3.18193,-1.40092 -5.89812,-3.68233 -7.82737,-6.57468 -0.0146,-0.0205 -0.0283,-0.0417 -0.041,-0.0634 -1.94793,-2.9637 -2.99012,-6.432 -2.99802,-9.97854 v -0.26955 c 0,-0.0682 0.003,-0.13629 0.005,-0.20444 v -0.016 c 0.0552,-2.02499 0.44891,-4.02659 1.16518,-5.92151 0.0254,-0.0665 0.0508,-0.13158 0.0762,-0.19821 0.0222,-0.0586 0.0459,-0.11727 0.0696,-0.17583 l 0.0491,-0.11896 c 0.0269,-0.0649 0.0538,-0.13006 0.0824,-0.19518 0.0303,-0.0712 0.0619,-0.14251 0.0936,-0.21385 0.002,-0.005 0.005,-0.01 0.006,-0.0143 0.002,-0.007 0.005,-0.0128 0.008,-0.019 l 0.0666,-0.14739 c 0,0 0,-0.003 0.002,-0.005 0.0205,-0.0461 0.041,-0.0905 0.0617,-0.13478 0.006,-0.0128 0.0111,-0.0269 0.0173,-0.0397 l 0.01,-0.0222 c 0.009,-0.0222 0.0205,-0.0444 0.0316,-0.0649 0.006,-0.0143 0.0128,-0.0286 0.0192,-0.0412 l 0.019,-0.0412 0.005,-0.01 0.0126,-0.0252 c 0.0239,-0.0508 0.0491,-0.10146 0.0745,-0.15227 0.005,-0.008 0.008,-0.0175 0.0126,-0.0252 0.0333,-0.0668 0.0666,-0.13326 0.0999,-0.19838 0.0237,-0.0459 0.0476,-0.0935 0.0713,-0.13948 l 0.0158,-0.0286 c 0,0 0,-0.003 0.002,-0.005 0,0 0,-0.003 0.002,-0.003 0.0141,-0.0286 0.0284,-0.0538 0.0427,-0.0808 0.005,-0.01 0.0111,-0.019 0.0158,-0.0286 l 0.0316,-0.0586 c 0.01,-0.019 0.0207,-0.0382 0.0303,-0.0572 l 0.006,-0.0111 0.0126,-0.022 c 0.0175,-0.035 0.0365,-0.0683 0.0538,-0.10146 0.56569,-1.02352 1.22997,-1.98949 1.98343,-2.88395 0.0128,-0.0158 0.0269,-0.0316 0.038,-0.0476 0.27291,-0.35082 0.39759,-0.79502 0.34728,-1.2367 -0.10499,-0.91381 -0.93299,-1.5855 -1.84882,-1.49968 -0.44285,0.0419 -0.85206,0.25541 -1.13978,0.59462 -0.63416,0.75245 -1.21566,1.54747 -1.7408,2.37967 l -0.0128,0.019 c -0.0459,0.0729 -0.0904,0.14588 -0.13629,0.21705 -0.0239,0.0382 -0.0459,0.0762 -0.0698,0.11593 -0.69625,1.15156 -1.2828,2.36605 -1.7519,3.62731 -0.23439,0.62979 -0.43865,1.27052 -0.61196,1.91982 -0.003,0.0113 -0.006,0.0224 -0.009,0.035 -0.0158,0.0572 -0.0303,0.11576 -0.0459,0.17448 -0.005,0.0158 -0.008,0.0316 -0.0128,0.0491 -0.008,0.0301 -0.0158,0.0618 -0.0237,0.0936 l -0.0239,0.0935 c -0.0158,0.0618 -0.0299,0.12367 -0.0443,0.18693 0,0.005 -0.003,0.0111 -0.003,0.016 -0.002,0.009 -0.005,0.0173 -0.006,0.0269 v 0.006 c -0.009,0.0395 -0.019,0.0791 -0.0286,0.11728 -0.003,0.0111 -0.005,0.0222 -0.008,0.0316 -0.6138,2.70946 -0.69726,5.51247 -0.24565,8.25373 0.003,0.0205 0.006,0.0427 0.0111,0.0649 0.46557,2.78972 1.47798,5.46015 2.97901,7.85732 0.0252,0.0397 0.0506,0.0809 0.0761,0.12047 l 0.0713,0.11105 c 0.0237,0.038 0.0476,0.0745 0.0713,0.11088 0.0348,0.054 0.0698,0.10634 0.10466,0.16019 0.0205,0.0316 0.0412,0.0617 0.0618,0.0919 0.008,0.0128 0.0175,0.0254 0.0254,0.0382 0.0348,0.0523 0.0713,0.10466 0.10769,0.15682 0.008,0.0111 0.016,0.0222 0.0224,0.0333 0.003,0.006 0.008,0.0111 0.0111,0.0175 l 0.0126,0.0175 c 0.0794,0.11559 0.16035,0.23034 0.24263,0.34392 0.0444,0.0619 0.0904,0.12535 0.13629,0.1871 0.038,0.0523 0.076,0.10314 0.11273,0.15379 0.0173,0.0237 0.0347,0.0476 0.0538,0.0713 l 0.0904,0.11896 c 0.019,0.0237 0.0363,0.0491 0.057,0.0729 0.0286,0.038 0.0585,0.0745 0.0872,0.11256 0.0158,0.0207 0.0316,0.0412 0.0476,0.0602 0.0316,0.0412 0.0649,0.0809 0.0968,0.12215 0.0205,0.0254 0.0395,0.0506 0.0602,0.0745 0.0286,0.0348 0.057,0.0713 0.0872,0.10617 0.0205,0.0254 0.0412,0.0491 0.0618,0.0729 0.0286,0.0365 0.0602,0.0713 0.0904,0.10785 0.0207,0.0254 0.0429,0.0508 0.0651,0.076 0.0286,0.035 0.0585,0.0698 0.0887,0.10466 0.0476,0.0572 0.0968,0.11256 0.14588,0.16658 0.0491,0.0555 0.10314,0.11576 0.15547,0.17431 0.0522,0.057 0.10768,0.12047 0.16321,0.1792 0.0555,0.0602 0.10937,0.11895 0.16489,0.17751 0.0555,0.0587 0.11105,0.11744 0.16809,0.176 1.16973,1.21684 2.47996,2.29033 3.90325,3.19774 l 0.0333,0.0207 0.11408,0.0713 c 2.1394,1.34808 4.49989,2.30833 6.97278,2.83633 l 0.11408,0.0237 0.10466,0.0207 c 0.0745,0.0141 0.14739,0.0301 0.22193,0.0443 0.0365,0.008 0.0745,0.0143 0.11105,0.0207 l 0.057,0.009 0.057,0.01 0.11727,0.0205 0.0286,0.005 0.0412,0.008 c 0.0427,0.008 0.0857,0.0143 0.1299,0.0222 l 0.15698,0.0252 0.15867,0.0239 0.1585,0.0237 c 0.0523,0.008 0.10617,0.0143 0.1585,0.0222 l 0.1585,0.0207 0.0999,0.0126 0.10298,0.0126 c 0.0301,0.003 0.0619,0.008 0.092,0.0111 0.0649,0.008 0.12838,0.0143 0.19333,0.0207 l 0.13966,0.0143 0.084,0.008 0.11727,0.0111 c 0.28116,0.0257 0.56299,0.0453 0.84499,0.0585 0.13209,0.007 0.26417,0.0123 0.39642,0.016 h 0.0523 l 0.24094,0.005 h 0.61835 c 0.0824,0 0.16338,-0.003 0.24583,-0.005 h 0.0173 c 0.0841,-0.002 0.16657,-0.005 0.25054,-0.008 l 0.12838,-0.005 0.12838,-0.006 c 0.0777,-0.003 0.15698,-0.008 0.23472,-0.0126 0.11576,-0.006 0.22984,-0.0143 0.3456,-0.0222 0.25558,-0.02 0.51083,-0.0438 0.76574,-0.0713 0.0459,-0.005 0.092,-0.0111 0.13949,-0.0158 0.0476,-0.005 0.0935,-0.0111 0.13948,-0.0175 l 0.054,-0.006 c 0.0444,-0.005 0.0887,-0.0111 0.13158,-0.0175 0.0538,-0.006 0.10937,-0.0143 0.16321,-0.0222 l 0.0318,-0.005 c 0.0618,-0.01 0.12367,-0.0175 0.18711,-0.0286 l 0.0222,-0.003 0.12047,-0.019 0.11408,-0.019 0.0681,-0.0111 h 0.0111 c 0.0873,-0.0158 0.1728,-0.0301 0.26013,-0.0459 l 0.0158,-0.003 0.15211,-0.0286 c 2.53127,-0.47264 4.95688,-1.39789 7.15972,-2.73151 0.0397,-0.0239 0.0777,-0.0476 0.11744,-0.0715 0.17061,-0.10465 0.33988,-0.212 0.5073,-0.32171 0.73209,-0.47903 1.43457,-1.00147 2.1039,-1.5648 0.34375,-0.29041 0.55828,-0.70584 0.59597,-1.15425 0.038,-0.44807 -0.10281,-0.89345 -0.39154,-1.23821 h -0.006 z"
   style="fill:#1066df;fill-rule:nonzero;stroke-width:0.168258"
   id="path1" />
        </g>
        <g
   transform="matrix(3.9987,0,0,3.9987,-38.875,0.251891)"
   id="g2">
            <path
   d="m 113.5636,112.51501 c 0.29984,3.3e-4 0.59429,-0.0796 0.8529,-0.23153 0.33652,-0.19534 0.67909,-0.37975 1.02738,-0.55323 0.22244,-0.11038 0.44707,-0.21604 0.67371,-0.31717 0.0382,-0.0175 0.0762,-0.0333 0.11425,-0.0508 0.0252,-0.0109 0.0506,-0.022 0.0777,-0.0331 0.0507,-0.0222 0.0998,-0.0429 0.15059,-0.0651 l 0.11257,-0.0474 c 0.0764,-0.032 0.15294,-0.0631 0.22984,-0.0936 l 0.0872,-0.035 0.14436,-0.057 c 0.0348,-0.0143 0.0697,-0.0269 0.10449,-0.0395 0.16489,-0.0619 0.32979,-0.12047 0.49788,-0.17768 l 0.0983,-0.0331 c 0.19602,-0.0658 0.39322,-0.12821 0.59143,-0.1871 l 0.0983,-0.0286 c 0.25642,-0.0742 0.51436,-0.14302 0.77365,-0.20612 l 0.0856,-0.0205 0.1,-0.0239 0.0681,-0.0158 0.0729,-0.0175 c 0.0476,-0.0111 0.0968,-0.0222 0.14436,-0.0316 0.0729,-0.0158 0.14588,-0.0316 0.22025,-0.0459 l 0.12216,-0.0239 c 0.16489,-0.0316 0.32978,-0.0618 0.49468,-0.0904 0.0793,-0.0126 0.16001,-0.0269 0.23943,-0.038 0.0808,-0.0126 0.1617,-0.0237 0.24566,-0.0365 l 0.0175,-0.003 c 0.11728,-0.0162 0.23456,-0.0316 0.352,-0.0461 l 0.24717,-0.0286 c 0.0824,-0.009 0.16489,-0.0173 0.24734,-0.0236 0.0825,-0.008 0.16489,-0.0143 0.24902,-0.0207 0.0523,-0.003 0.10466,-0.008 0.15531,-0.0111 l 0.31228,-0.019 c 0.0523,-0.003 0.10466,-0.005 0.15547,-0.008 0.0316,0 0.0617,-0.003 0.0935,-0.003 l 0.0855,-0.003 0.0984,-0.003 0.0983,-0.003 c 0.0666,-0.002 0.1331,-0.003 0.19821,-0.003 h 0.23455 c 0.74842,0 1.49666,0.0459 2.23868,0.13949 0.15698,0.019 0.3138,0.0412 0.47078,0.0649 0.0333,0.005 0.0682,0.0111 0.10315,0.0158 l 0.1728,0.0286 0.0333,0.006 0.0284,0.005 c 0.0429,0.008 0.0873,0.0143 0.13006,0.0222 l 0.0427,0.008 0.0572,0.0111 0.057,0.0111 0.10768,0.0205 c 0.0382,0.006 0.0762,0.0143 0.11257,0.0222 l 0.0303,0.006 c 0.0855,0.0175 0.1728,0.0365 0.25828,0.0555 l 0.0793,0.0173 c 0.0604,0.0128 0.11896,0.0269 0.17919,0.0412 0.0698,0.016 0.13949,0.0333 0.20932,0.0508 0.0649,0.0158 0.13006,0.0333 0.19501,0.0491 l 0.0698,0.019 0.0744,0.019 h 0.003 c 0.0476,0.0126 0.0952,0.0252 0.14117,0.038 0.006,0 0.0126,0.003 0.019,0.005 0.0222,0.006 0.0444,0.0128 0.065,0.019 0.0301,0.008 0.0602,0.0175 0.0904,0.0254 l 0.0745,0.0207 c 0.0348,0.009 0.0698,0.0205 0.10466,0.0301 l 0.0825,0.0252 0.0745,0.0224 0.0348,0.0109 h 0.003 l 0.0427,0.0128 0.0905,0.0286 0.057,0.0173 0.0745,0.0237 c 0.0443,0.0143 0.0872,0.0286 0.13158,0.0429 0.0665,0.0222 0.13309,0.0459 0.19972,0.0681 0.29327,0.10298 0.58402,0.21285 0.87191,0.32979 l 0.0983,0.0412 c 0.0715,0.0301 0.14285,0.0587 0.21419,0.0904 0.2438,0.10415 0.47903,0.22715 0.70382,0.36781 2.0896,1.31107 2.97582,3.99209 1.97384,6.32903 -0.53388,1.24225 -1.53973,2.22302 -2.79511,2.72527 -1.25537,0.50225 -2.66049,0.48509 -3.90325,-0.0476 -0.96311,-0.4124 -1.99806,-0.63097 -3.04564,-0.64359 h -0.003 c -0.30387,-0.003 -0.60774,0.0111 -0.9101,0.0427 -0.13629,0.0143 -0.27107,0.0333 -0.40753,0.0538 -0.0602,0.01 -0.12198,0.0207 -0.18222,0.0318 l -0.0538,0.009 c -0.0222,0.005 -0.0461,0.008 -0.0683,0.0128 -0.0333,0.006 -0.0682,0.0126 -0.10146,0.0205 h -0.006 c -0.0365,0.01 -0.0713,0.0175 -0.10785,0.0254 l -0.0857,0.0207 -0.0506,0.0126 -0.0825,0.0205 c -0.0254,0.006 -0.0523,0.0143 -0.0777,0.0207 l -0.0538,0.0143 c -0.10953,0.0301 -0.2189,0.0634 -0.32658,0.0983 -0.0429,0.0143 -0.0873,0.0286 -0.13007,0.0427 l -0.0649,0.0222 c -0.0222,0.008 -0.0429,0.0143 -0.0651,0.0239 l -0.0634,0.0236 c -0.0634,0.0239 -0.12838,0.0476 -0.19013,0.073 -0.31733,0.12687 -0.62609,0.27426 -0.92441,0.44084 -0.019,0.0111 -0.0395,0.0222 -0.0585,0.0333 -0.0397,0.0222 -0.0793,0.0459 -0.11896,0.0681 -0.0397,0.0237 -0.0777,0.0459 -0.11728,0.0713 -0.0367,0.0229 -0.0732,0.0461 -0.10936,0.0697 l -0.0952,0.0619 c -0.0222,0.0143 -0.0427,0.0286 -0.0649,0.0427 -0.0126,0.008 -0.0247,0.0165 -0.0365,0.0254 -0.0126,0.01 -0.0301,0.0205 -0.0459,0.0316 -0.0158,0.0113 -0.0365,0.0254 -0.0538,0.0382 -0.0365,0.0252 -0.073,0.0506 -0.10786,0.0776 -0.0348,0.0254 -0.073,0.0538 -0.10937,0.0808 -0.0175,0.0128 -0.035,0.0271 -0.054,0.0397 -0.37824,0.29125 -0.72906,0.61649 -1.04791,0.97185 l -0.01,0.01 c -0.0269,0.0301 -0.0538,0.0602 -0.0808,0.0919 -0.0254,0.0286 -0.0508,0.0589 -0.076,0.0888 l -0.0286,0.0333 c -0.0316,0.038 -0.0634,0.076 -0.0936,0.11408 -0.0111,0.0128 -0.0205,0.0254 -0.0301,0.0382 -0.0269,0.0333 -0.0523,0.0665 -0.0777,0.0998 -0.019,0.0239 -0.0363,0.0476 -0.0554,0.0713 -0.0508,0.0666 -0.1,0.13326 -0.14756,0.20141 v 0.002 c -0.35822,0.50848 -0.65453,1.05767 -0.88302,1.63614 0,0.003 -0.002,0.005 -0.003,0.008 l -0.0286,0.0713 -0.0269,0.0698 c -0.006,0.0175 -0.0143,0.0365 -0.0205,0.0555 -0.006,0.0173 -0.0158,0.0444 -0.0239,0.0682 -0.009,0.0269 -0.0189,0.0555 -0.0286,0.0825 -0.009,0.0286 -0.0188,0.0587 -0.0284,0.0871 -0.42082,1.26345 -0.51302,2.61339 -0.26787,3.92227 0.008,0.0476 0.0175,0.0935 0.0286,0.14117 0.1967,0.98296 0.58033,1.91898 1.13036,2.75707 l 0.0444,0.0682 c 0.56131,0.84634 1.28247,1.57489 2.12275,2.14512 0.0269,0.0173 0.054,0.0363 0.0809,0.0538 1.04741,0.7008 2.2481,1.13962 3.50061,1.27944 l 0.0904,0.009 0.0808,0.008 0.0382,0.003 c 0.50242,0.0444 1.0082,0.0412 1.51079,-0.0126 0.019,-0.002 0.0397,-0.005 0.0587,-0.008 h 0.005 c 1.04691,-0.11728 2.06016,-0.44168 2.98053,-0.95436 0.1945,-0.10903 0.36579,-0.25491 0.50427,-0.42973 0.13831,-0.1755 0.24061,-0.3764 0.30118,-0.59143 0.0602,-0.21554 0.0793,-0.43915 0.0523,-0.66109 -0.0263,-0.22176 -0.0957,-0.43612 -0.2046,-0.63096 -0.10903,-0.19485 -0.25559,-0.36613 -0.43108,-0.50411 -0.17533,-0.13864 -0.37623,-0.24094 -0.59143,-0.30118 -0.2147,-0.0611 -0.43949,-0.0789 -0.66108,-0.0523 -0.22194,0.0269 -0.43596,0.0951 -0.63097,0.20444 -0.828,0.46018 -1.7795,0.64981 -2.72057,0.54229 l -0.0493,-0.006 c -0.0284,-0.003 -0.057,-0.008 -0.0855,-0.0111 -0.0286,-0.005 -0.0602,-0.008 -0.092,-0.0143 -0.0377,-0.006 -0.0752,-0.0129 -0.11256,-0.0205 -0.0584,-0.0111 -0.11661,-0.0237 -0.17432,-0.038 -0.0175,-0.003 -0.0333,-0.008 -0.0491,-0.0111 l -0.0572,-0.0143 c -0.019,-0.005 -0.0363,-0.01 -0.057,-0.0143 l -0.057,-0.0158 c -0.0158,-0.005 -0.0316,-0.01 -0.0476,-0.0143 l -0.0618,-0.019 c -0.0365,-0.0111 -0.073,-0.0237 -0.10936,-0.0348 -0.0175,-0.006 -0.0365,-0.0128 -0.054,-0.0192 -0.0363,-0.0126 -0.0729,-0.0269 -0.10769,-0.0395 -0.0538,-0.0207 -0.10718,-0.0424 -0.16018,-0.065 l -0.0412,-0.0175 -0.0429,-0.019 -0.0427,-0.0207 -0.0666,-0.0316 c -0.68414,-0.33467 -1.27371,-0.83507 -1.71539,-1.45543 l -0.038,-0.057 c -0.0126,-0.019 -0.0254,-0.0365 -0.0365,-0.054 -0.0126,-0.019 -0.0222,-0.0332 -0.0316,-0.0491 -0.45951,-0.71291 -0.71207,-1.53957 -0.72923,-2.38759 v -0.14907 c 0,-0.0222 0,-0.0474 0.002,-0.0729 0.002,-0.0237 0.002,-0.0476 0.003,-0.0729 0,-0.0175 0,-0.035 0.003,-0.0523 l 0.003,-0.0523 c 0.003,-0.0429 0.006,-0.0857 0.0111,-0.12687 0.002,-0.019 0.003,-0.0365 0.006,-0.0555 0.003,-0.0333 0.008,-0.0666 0.0128,-0.10146 0.003,-0.0254 0.006,-0.0508 0.0109,-0.0761 l 0.01,-0.057 c 0.006,-0.035 0.0111,-0.0698 0.019,-0.10465 0.006,-0.035 0.0126,-0.0666 0.019,-0.0999 0.008,-0.0333 0.0158,-0.0729 0.0237,-0.10937 0.006,-0.0237 0.0111,-0.0476 0.0175,-0.073 0.005,-0.019 0.01,-0.0363 0.0143,-0.057 l 0.0333,-0.11879 c 0.0506,-0.16489 0.10936,-0.32827 0.17751,-0.48677 0.0994,-0.23203 0.21823,-0.45531 0.35519,-0.66748 0.0173,-0.0286 0.0395,-0.0619 0.0618,-0.092 0.0128,-0.0205 0.0286,-0.0395 0.0412,-0.0585 0.0222,-0.0318 0.0444,-0.0619 0.0666,-0.092 l 0.0348,-0.0474 c 0.0128,-0.0175 0.0254,-0.0333 0.038,-0.0491 0.016,-0.0207 0.0318,-0.0412 0.0493,-0.0619 0.0158,-0.0205 0.0332,-0.0412 0.0491,-0.0602 l 0.0507,-0.0587 c 0.0286,-0.0348 0.0602,-0.0681 0.092,-0.10146 l 0.006,-0.006 c 0.035,-0.0382 0.0698,-0.0745 0.10634,-0.11105 0.0269,-0.0286 0.0554,-0.0555 0.0855,-0.0825 l 0.0222,-0.0205 c 0.17364,-0.16338 0.35973,-0.31297 0.55659,-0.44724 0.038,-0.0252 0.0761,-0.0506 0.11257,-0.0744 0.019,-0.0128 0.038,-0.0254 0.0602,-0.0382 0.0222,-0.0141 0.0444,-0.0284 0.0665,-0.0412 0.0222,-0.0126 0.0444,-0.0269 0.0683,-0.0395 0.23808,-0.13495 0.48727,-0.24903 0.74505,-0.34089 l 0.11105,-0.038 c 0.0254,-0.008 0.0491,-0.0158 0.0745,-0.0237 0.0252,-0.008 0.0491,-0.0143 0.0744,-0.0222 0.0254,-0.006 0.0508,-0.0143 0.0762,-0.0207 0.0254,-0.006 0.0491,-0.0126 0.0729,-0.019 0.054,-0.0126 0.10786,-0.0254 0.1617,-0.0365 l 0.0698,-0.0141 0.0523,-0.01 0.0538,-0.009 c 0.0348,-0.006 0.0681,-0.0111 0.10314,-0.016 h 0.003 c 0.2152,-0.0316 0.43259,-0.0474 0.65015,-0.0474 h 0.0745 c 0.58975,0.0111 1.1699,0.13629 1.7122,0.36782 3.52602,1.51247 7.64649,0.46759 10.02145,-2.54154 1.17461,-1.48926 1.81938,-3.32865 1.83115,-5.22543 v -0.0158 c 0.006,-1.66879 -0.47903,-3.30308 -1.39519,-4.69777 -0.916,-1.39486 -2.2232,-2.48921 -3.75754,-3.14542 -0.0554,-0.0236 -0.10937,-0.0475 -0.16489,-0.0697 -0.0564,-0.0224 -0.1124,-0.0456 -0.16793,-0.0698 -0.0841,-0.0348 -0.16657,-0.0682 -0.25222,-0.10146 -0.084,-0.0333 -0.16792,-0.0666 -0.25205,-0.0983 l -0.1378,-0.0522 c -0.0458,-0.0177 -0.0917,-0.0347 -0.13797,-0.0508 -0.0412,-0.0143 -0.0809,-0.0303 -0.12216,-0.0444 l -0.10936,-0.0397 -0.16961,-0.0585 c -0.11727,-0.0397 -0.23472,-0.0794 -0.35351,-0.11745 l -0.0809,-0.0269 -0.0968,-0.0316 -0.14588,-0.0461 -0.0983,-0.0301 -0.0872,-0.0252 -0.12367,-0.0365 -0.24885,-0.0713 c -0.0569,-0.016 -0.11408,-0.0313 -0.17129,-0.0459 l -0.1617,-0.0429 h -0.006 l -0.0348,-0.009 c -0.0936,-0.0239 -0.18542,-0.0476 -0.27897,-0.0698 l -0.0952,-0.0222 -0.11089,-0.0269 c -0.057,-0.0126 -0.11105,-0.0252 -0.16657,-0.038 l -0.0126,-0.003 -0.16641,-0.0365 c -0.11576,-0.0252 -0.23152,-0.0491 -0.34728,-0.0729 l -0.10146,-0.019 -0.1474,-0.0286 c -0.0333,-0.006 -0.0666,-0.0126 -0.0983,-0.019 l -0.14117,-0.0252 -0.0508,-0.01 c -0.11088,-0.019 -0.22194,-0.0365 -0.33282,-0.0555 -0.1166,-0.019 -0.23337,-0.0363 -0.35048,-0.0522 l -0.13948,-0.0192 -0.0793,-0.01 c -0.009,0 -0.019,-0.003 -0.0286,-0.003 l -0.0474,-0.006 -0.0476,-0.006 -0.0919,-0.0111 -0.0634,-0.008 -0.12215,-0.0143 -0.038,-0.005 c -0.0491,-0.005 -0.0983,-0.0111 -0.14907,-0.0158 l -0.13781,-0.0126 -0.0476,-0.005 -0.13628,-0.0126 c -0.054,-0.005 -0.10786,-0.01 -0.16187,-0.0128 -0.24431,-0.0187 -0.48912,-0.0335 -0.73394,-0.0442 h -0.0555 l -0.0316,-0.002 -0.11896,-0.005 -0.16809,-0.005 c -0.12417,-0.003 -0.24835,-0.005 -0.37252,-0.006 h -0.36462 c -0.0523,0 -0.10314,0 -0.15547,0.002 -0.0523,0.002 -0.0998,0.002 -0.1489,0.003 -0.0493,0 -0.0984,0.002 -0.14908,0.003 -0.0713,0.002 -0.14437,0.005 -0.21571,0.008 l -0.12518,0.005 -0.057,0.003 -0.0935,0.005 -0.12216,0.006 -0.11088,0.006 h -0.0158 c -0.97825,0.0617 -1.95011,0.19013 -2.90935,0.38531 l -0.0348,0.006 c -0.0777,0.016 -0.1553,0.0333 -0.23472,0.0491 l -0.0126,0.003 c -0.0348,0.008 -0.0698,0.0141 -0.10465,0.022 -0.34409,0.0762 -0.68481,0.16018 -1.02419,0.25205 -1.70563,0.46591 -3.34699,1.1418 -4.88622,2.01203 l -0.16657,0.0951 -0.0665,0.038 -0.0286,0.0175 -0.0286,0.0173 c -0.31145,0.1972 -0.5502,0.49064 -0.67993,0.83557 -0.12973,0.34476 -0.1447,0.7225 -0.0429,1.07652 0.10348,0.35334 0.31818,0.66428 0.61196,0.88621 0.29495,0.22126 0.65402,0.34039 1.02267,0.33938 h 0.002 z"
   style="fill:#1066df;fill-rule:nonzero;stroke-width:0.168258"
   id="path2" />
        </g>
        <g
   transform="matrix(3.9987,0,0,3.9987,-38.875,0.251891)"
   id="g3">
            <path
   d="m 110.96182,120.25673 -0.0143,0.0237 c -0.7829,1.27556 -1.36558,2.66369 -1.72801,4.11576 -0.002,0.008 -0.005,0.0158 -0.006,0.0237 l -0.0237,0.1 c -0.003,0.0158 -0.008,0.0333 -0.0111,0.0491 -0.008,0.0316 -0.0143,0.0634 -0.0222,0.0951 -0.42115,1.82409 -0.48997,3.71195 -0.20292,5.56178 0.003,0.0158 0.005,0.0316 0.006,0.0474 0.008,0.0469 0.0162,0.0941 0.0237,0.14117 l 0.003,0.0158 c 0,0 0,0.008 0.002,0.0126 0.34022,2.00648 1.09267,3.92092 2.2099,5.62201 l 0.0286,0.0443 c 0.10769,0.16338 0.21874,0.32356 0.33282,0.48206 0.0429,0.0602 0.0873,0.11896 0.13006,0.17751 2.32718,3.13297 5.80709,5.21533 9.66794,5.78522 l 0.0205,0.003 0.0968,0.0143 h 0.0143 l 0.0793,0.0126 h 0.0173 l 0.0857,0.0126 c 1.16283,0.14689 2.33912,0.15446 3.5038,0.0222 l 0.0745,-0.009 c 0.0237,-0.003 0.0476,-0.006 0.0713,-0.008 l 0.0999,-0.0128 0.019,-0.003 h 0.0126 l 0.0222,-0.005 0.0935,-0.0126 0.0333,-0.005 c 0.057,-0.008 0.11088,-0.0158 0.16489,-0.0237 h 0.002 c 2.44429,-0.37724 4.7543,-1.36474 6.71586,-2.87116 0.17919,-0.13477 0.32945,-0.30404 0.44235,-0.49788 0.11307,-0.194 0.18693,-0.40836 0.21722,-0.63096 0.0617,-0.44908 -0.0594,-0.90456 -0.33618,-1.26362 -0.13713,-0.17785 -0.30791,-0.3271 -0.50259,-0.43916 -0.19467,-0.11222 -0.40971,-0.18441 -0.63265,-0.21234 -0.22294,-0.0288 -0.44925,-0.0126 -0.66579,0.0474 -0.21622,0.0604 -0.41863,0.1622 -0.59614,0.29967 -1.20271,0.92306 -2.57856,1.59542 -4.04594,1.97703 -0.019,0.005 -0.038,0.008 -0.057,0.0126 -0.37117,0.0947 -0.7469,0.17045 -1.12564,0.22681 h -0.016 c -0.0442,0.009 -0.0887,0.0143 -0.13309,0.0205 l -0.0491,0.006 c -0.48627,0.0633 -0.97624,0.0951 -1.46654,0.0951 h -0.003 c -1.0469,0 -2.08892,-0.14453 -3.09628,-0.42956 l -0.009,-0.003 c -0.0784,-0.0225 -0.15665,-0.0458 -0.23472,-0.0697 -0.11543,-0.0352 -0.23018,-0.0727 -0.34409,-0.11256 l -0.176,-0.0619 -0.076,-0.0286 -0.0222,-0.008 c -0.0444,-0.0158 -0.0887,-0.0333 -0.1331,-0.0506 l -0.038,-0.0143 -0.0666,-0.0269 -0.0175,-0.006 h -0.003 c -0.0442,-0.0175 -0.0887,-0.0348 -0.13309,-0.0538 l -0.0333,-0.0143 -0.0365,-0.0158 c -0.0665,-0.0286 -0.13158,-0.057 -0.19821,-0.0856 l -0.0538,-0.0237 c -1.9099,-0.86872 -3.54335,-2.24827 -4.71964,-3.98587 l -0.0286,-0.0412 -0.0491,-0.0744 -0.0429,-0.0666 c -1.16939,-1.8108 -1.80171,-3.91655 -1.82324,-6.0721 v -0.14588 c 0,-0.0587 0,-0.11745 0.002,-0.176 v -0.0143 c 0.005,-0.22194 0.0158,-0.44235 0.0333,-0.66109 0.002,-0.0237 0.003,-0.0476 0.006,-0.0698 0,-0.0111 0.002,-0.0222 0.003,-0.0333 0.10634,-1.18975 0.40046,-2.35528 0.87175,-3.45299 0.21049,-0.49165 0.45531,-0.96782 0.7326,-1.42515 0.0111,-0.0192 0.0237,-0.0397 0.0348,-0.0589 0.20224,-0.32575 0.42081,-0.64106 0.65486,-0.94477 0.60286,-0.78577 1.30585,-1.48925 2.09111,-2.09279 0.23152,-0.17853 0.46994,-0.34779 0.71493,-0.5073 0.20948,-0.13545 0.42317,-0.2645 0.64055,-0.387 1.21769,-0.68111 2.54962,-1.13406 3.93018,-1.3363 0.53624,-0.0761 1.07719,-0.11425 1.61881,-0.11425 h 0.003 c 0.0412,0 0.0824,-0.002 0.12518,-0.005 h 0.008 c 1.46452,0.0172 2.9117,0.32036 4.25996,0.89261 0.0239,0.009 0.0476,0.019 0.0713,0.0301 h 0.003 c 0.41408,0.17919 0.88301,0.18542 1.30164,0.0175 0.64476,-0.25693 1.06995,-0.8842 1.06995,-1.57827 0,-0.21638 -0.0414,-0.4309 -0.12182,-0.6318 -0.16758,-0.41846 -0.49451,-0.7538 -0.90842,-0.93215 h -0.003 c -2.49728,-1.07702 -5.24595,-1.4376 -7.93656,-1.04152 l -0.0587,0.009 -0.0936,0.0143 -0.0173,0.003 -0.0698,0.0111 c -2.02633,0.32658 -3.96147,1.07634 -5.67888,2.20031 l -0.0128,0.008 c -0.0252,0.0175 -0.0522,0.0333 -0.0777,0.0508 l -0.0791,0.0522 c -0.0175,0.0128 -0.035,0.0239 -0.0525,0.0367 -1.58482,1.06978 -2.94401,2.44075 -4,4.03483 -0.0205,0.0316 -0.0442,0.0665 -0.0665,0.0998 l -0.0128,0.0192 -0.0681,0.106 -0.0395,0.0619 c -0.0143,0.0222 -0.0286,0.0444 -0.0412,0.0666 -0.008,0.0126 -0.016,0.0252 -0.0239,0.0365 l -0.0286,0.0442 -0.003,0.008 0.002,-0.003 z"
   style="fill:#1066df;fill-rule:nonzero;stroke-width:0.168258"
   id="path3" />
        </g>
    </g>
</svg>
