<?xml version="1.0" encoding="UTF-8" standalone="no"?>
<svg
   width="251.70061"
   height="196.92126"
   viewBox="0 0 251.70061 196.92126"
   version="1.1"
   xml:space="preserve"
   style="clip-rule:evenodd;fill-rule:evenodd;stroke-linejoin:round;stroke-miterlimit:2"
   id="svg2"
   xmlns="http://www.w3.org/2000/svg"
   xmlns:svg="http://www.w3.org/2000/svg"><defs
   id="defs2" />
    <g
   transform="matrix(4.00296,0,0,4.00296,-387.03896,-305.83634)"
   id="g2">
        <path
   d="m 132.6306,88.700838 -5.2268,12.298542 H 115.136 c -0.007,0 -0.014,0 -0.0211,0 -3.36192,0 -6.12812,2.7662 -6.12812,6.12812 0,0.007 0,0.014 0,0.0212 0,0.007 0,0.014 0,0.0211 0,3.36193 2.7662,6.12813 6.12812,6.12813 0.007,0 0.014,0 0.0211,0 h 7.04101 l -5.14467,12.29853 c -1.22932,-0.0106 -1.28144,0 -1.89634,0 -10.17699,0 -18.44781,-8.27081 -18.44781,-18.4478 0,-10.17724 8.27082,-18.447812 18.44781,-18.447812 h 17.52558 z"
   style="fill:#3551f2;fill-rule:nonzero;stroke-width:0.245863"
   id="path1" />
        <path
   d="m 159.56681,94.850108 c 0,10.177232 -8.27082,18.447812 -18.44781,18.447812 h -18.93978 l 5.2268,-12.29854 H 141.119 c 3.38209,0 6.14927,-2.767186 6.14927,-6.149026 0,-3.382332 -2.76718,-6.149516 -6.14927,-6.149516 h -8.48619 l 5.29785,-12.298292 c 1.22931,0.01082 2.02,0 3.18834,0 10.17699,0 18.44781,8.270571 18.44781,18.447562 z"
   style="fill:#3551f2;fill-rule:nonzero;stroke-width:0.245863"
   id="path2" />
    </g>
</svg>
