<?xml version="1.0" encoding="UTF-8" standalone="no"?>
<svg
   width="214.64125"
   height="214.64026"
   viewBox="0 0 214.64125 214.64026"
   version="1.1"
   xml:space="preserve"
   style="clip-rule:evenodd;fill-rule:evenodd;stroke-linejoin:round;stroke-miterlimit:2"
   id="svg3"
   xmlns="http://www.w3.org/2000/svg"
   xmlns:svg="http://www.w3.org/2000/svg"><defs
   id="defs3" />
    <g
   transform="matrix(1.00373,0,0,1.01105,-404.48298,-410.33688)"
   id="g3">
        <g
   transform="matrix(3.98212,0,0,3.98212,0.583005,2.53258)"
   id="g1">
            <path
   d="m 128.00401,145.78136 c 9.97956,0 18.01373,-8.03416 18.01373,-17.75989 0,-9.72593 -8.03417,-17.75989 -18.01373,-17.75989 -9.97935,0 -18.01352,8.03417 -18.01352,17.75989 0,9.72573 8.03438,17.75989 18.01352,17.75989 z"
   style="fill:#46b549;fill-rule:nonzero;stroke-width:0.209611"
   id="path1" />
        </g>
        <g
   transform="matrix(3.98212,0,0,3.98212,0.583005,2.53258)"
   id="g2">
            <path
   d="m 143.09325,146.84116 c 0.9684,0.91746 0.90929,2.48472 -0.20122,3.22381 -10.44784,6.95132 -24.63408,5.93198 -33.91249,-3.26699 -10.571504,-10.48683 -10.571504,-27.23199 0,-37.71881 9.22999,-9.229997 23.55101,-10.225019 34.01708,-3.19635 1.06147,0.71267 1.13756,2.20824 0.23351,3.1125 -0.77137,0.77137 -1.99256,0.833 -2.90437,0.23414 -8.7024,-5.71441 -20.55924,-4.67893 -28.13247,2.8943 -8.96463,8.71079 -8.96463,22.91883 -0.16916,31.62962 7.5747,7.5747 19.43447,8.60934 28.13709,2.89116 0.91537,-0.60137 2.13698,-0.55673 2.93203,0.19662 z m 3.90274,-3.8145 c 0.9181,0.96924 2.48578,0.91537 3.23052,-0.19263 6.05943,-9.01431 6.03365,-20.91495 -0.0771,-29.90452 -0.71603,-1.0533 -2.20427,-1.12373 -3.10497,-0.22324 -0.77577,0.77598 -0.83383,2.00535 -0.22512,2.9182 4.91789,7.37431 4.91055,16.96589 -0.0222,24.46345 -0.60347,0.91747 -0.5563,2.14159 0.19892,2.93874 z"
   style="fill:#46b549;fill-rule:nonzero;stroke-width:0.209611"
   id="path2" />
        </g>
    </g>
</svg>
