<?xml version="1.0" encoding="UTF-8" standalone="no"?>
<svg
   width="617.29901"
   height="408.29523"
   viewBox="0 0 617.29901 408.29523"
   version="1.1"
   xml:space="preserve"
   style="clip-rule:evenodd;fill-rule:evenodd;stroke-linejoin:round;stroke-miterlimit:2"
   id="svg3"
   xmlns="http://www.w3.org/2000/svg"
   xmlns:svg="http://www.w3.org/2000/svg"><defs
   id="defs3" />
    <g
   transform="matrix(3.98978,0,0,3.98978,-201.46084,-308.27156)"
   id="g3">
        <path
   d="m 73.750115,172.41778 c -0.08754,0.0217 -0.179298,0.0217 -0.266834,0 -0.227594,-0.0664 -0.399044,-0.25657 -0.442511,-0.4896 -0.245101,-1.55512 6.507861,-15.85974 9.615697,-21.41677 1.557539,-2.76071 13.220374,-10.383 21.081723,-14.12049 0.7015,-0.33143 5.24613,-2.51259 5.38499,-2.26387 0.13885,0.24812 -4.10273,3.54914 -4.32429,3.73749 -6.914754,5.54135 -19.276671,20.03854 -25.730199,28.28626 -4.109973,5.25458 -4.861577,6.17522 -5.318576,6.26698 z"
   style="fill-rule:nonzero;stroke-width:0.603698"
   id="path1" />
        <path
   d="m 144.52582,95.926273 c 10.86957,-0.339882 16.59504,2.761313 19.44329,5.523837 2.30129,2.05076 3.6898,4.93885 3.854,8.0171 0.0736,4.1142 -4.37982,5.34755 -7.04273,6.09312 -0.3592,0.0918 -0.79326,0.2119 -1.15246,0.33143 1.83886,0.7347 6.0575,2.05257 9.85476,3.23099 15.79212,4.9147 22.47566,7.36391 23.04314,9.49073 0.12074,0.49081 -0.035,1.00999 -0.40569,1.35349 -0.84819,0.70874 -2.45161,0.58861 -5.126,0.13825 l -0.38697,-0.0646 c -27.43624,-4.36292 -46.19735,-4.0496 -46.39054,-4.0496 -50.336307,0.76368 -76.067712,37.20407 -84.529742,49.18144 -2.222211,3.15733 -3.107232,4.40578 -3.922224,4.42812 -0.236046,-0.004 -0.464847,-0.0815 -0.655012,-0.22156 -0.415344,-0.34954 -0.642938,-0.87536 -0.612753,-1.41748 -0.183524,-5.67959 11.766671,-39.26872 37.208905,-58.3504 10.586442,-7.95009 28.580856,-15.99919 54.477676,-9.66339 -1.48027,-1.58772 -2.31156,-3.6747 -2.32846,-5.845 -7.60599,0.99369 -21.20488,-0.0918 -30.88819,-1.35349 -8.32499,-1.11382 -22.393563,-3.377685 -23.296695,-6.581508 -0.193787,-0.700289 0.09176,-1.454308 1.889574,-2.504138 8.089548,-4.749893 19.701071,-5.780405 19.701071,-5.780405 32.73852,-3.159753 37.26505,8.043064 37.26505,8.043064 z"
   style="fill-rule:nonzero;stroke-width:0.603698"
   id="path2" />
        <path
   d="m 108.7362,85.201584 c 0,0 -9.892788,-5.818438 -8.29842,-7.363904 1.59497,-1.545466 19.71073,0 31.62349,5.10849 11.91277,5.107886 12.66679,10.806188 12.66679,10.806188 -3.88178,-6.3509 -14.10661,-10.273123 -35.99246,-8.550774 z m 84.53277,37.178716 c -1.77004,0.0549 -3.32758,0.0833 -5.67838,0.12255 -0.57774,-0.007 -1.14944,-0.11892 -1.68794,-0.32901 l -15.13772,-4.80483 c -0.44251,-0.13825 -3.31913,-1.06734 -3.06437,-1.44525 0.25537,-0.37852 2.90379,-0.3586 3.36501,-0.34049 h 1.02327 c 18.57698,0.54333 29.5015,1.83585 32.6039,3.83771 0.41474,0.23121 0.61517,0.72383 0.47933,1.17902 -0.16782,0.67554 -0.34229,1.43921 -11.9031,1.7803 z m -118.428577,5.52444 c -0.490202,0.0936 -0.997308,0.0392 -1.456119,-0.15696 -0.764885,-0.31332 -1.125292,-0.92004 -1.838863,-1.83584 -1.838259,-2.24576 -2.581411,-4.78612 -1.981939,-6.60868 0.393611,-1.12469 1.349868,-1.96444 2.516212,-2.20893 3.623393,-0.92004 7.707408,0.4896 9.218463,2.20893 1.225506,1.34624 0.664671,1.78573 -0.921243,3.1024 -0.926676,0.77334 -1.804452,1.60402 -2.627896,2.48603 -1.346245,1.36556 -1.836448,2.48904 -2.908615,3.01305 z"
   style="fill-rule:nonzero;stroke-width:0.603698"
   id="path3" />
    </g>
</svg>
