<?xml version="1.0" encoding="UTF-8" standalone="no"?>
<svg
   width="143.99933"
   height="144.00012"
   viewBox="0 0 143.99933 144.00012"
   version="1.1"
   xml:space="preserve"
   style="clip-rule:evenodd;fill-rule:evenodd;stroke-linejoin:round;stroke-miterlimit:2"
   id="svg1"
   xmlns="http://www.w3.org/2000/svg"
   xmlns:svg="http://www.w3.org/2000/svg"><defs
   id="defs1" />
    <g
   transform="matrix(4.11463,0,0,4.11463,-455.97294,-455.98565)"
   id="g1">
        <path
   d="m 138.68142,114.22398 3.01753,-3.01753 c 0.5144,-0.51441 1.34986,-0.51455 1.8644,-1.4e-4 l 1.86427,1.86441 c 0.51455,0.5144 0.5144,1.34986 0,1.8644 v -1.4e-4 l -3.01739,3.01739 c 2.13947,2.90292 3.40411,6.4883 3.40411,10.36688 0,3.87844 -1.26464,7.46395 -3.40341,10.36589 l 3.01767,3.01767 c 0.51441,0.51441 0.51441,1.34972 -1.4e-4,1.86427 l -1.8644,1.8644 c -0.51441,0.51441 -1.34972,0.51441 -1.86413,0 l -3.01767,-3.01767 c -2.90236,2.13919 -6.48788,3.40369 -10.36631,3.40369 -3.87858,0 -7.46396,-1.2645 -10.36618,-3.40355 l -3.01781,3.01781 c -0.5144,0.51455 -1.34972,0.51455 -1.86426,0 l -1.86441,-1.8644 c -0.51441,-0.51441 -0.51441,-1.34972 0,-1.86413 l 3.01781,-3.01781 c -2.13904,-2.90222 -3.40354,-6.48773 -3.40354,-10.36617 0,-3.87858 1.2645,-7.46396 3.40368,-10.36646 l -3.01753,-3.01753 c -0.5144,-0.5144 -0.51454,-1.34986 -1.4e-4,-1.8644 l 1.86441,-1.86427 c 0.5144,-0.51455 1.34986,-0.5144 1.8644,0 h -1.4e-4 l 3.01768,3.01767 c 2.90207,-2.1389 6.48745,-3.4034 10.36603,-3.4034 3.87843,0 7.46395,1.2645 10.36547,3.40312 z m -10.36547,1.86989 c 6.74732,0 12.22523,5.47791 12.22523,12.22538 0,6.74733 -5.47791,12.22523 -12.22523,12.22523 -6.74747,0 -12.22538,-5.4779 -12.22538,-12.22523 0,-6.74747 5.47791,-12.22538 12.22538,-12.22538 z"
   style="fill:#959595;stroke-width:0.140625"
   id="path1" />
    </g>
</svg>
