<?xml version="1.0" encoding="UTF-8" standalone="no"?>
<svg
   width="144.00002"
   height="104.73023"
   viewBox="0 0 144.00002 104.73023"
   version="1.1"
   xml:space="preserve"
   style="clip-rule:evenodd;fill-rule:evenodd;stroke-linejoin:round;stroke-miterlimit:2"
   id="svg1"
   xmlns="http://www.w3.org/2000/svg"
   xmlns:svg="http://www.w3.org/2000/svg"><defs
   id="defs1" />
    <g
   transform="matrix(4.3809,0,0,4.3809,-464.11263,-508.38789)"
   id="g1">
        <path
   d="m 138.80998,127.99957 c 0,2.1773 -0.58331,4.2172 -1.59961,5.97656 -1.05103,1.81646 -2.5605,3.32592 -4.37695,4.37696 -0.0631,0.0353 -0.12445,0.0706 -0.18759,0.10589 -1.71478,0.95118 -3.68775,1.49357 -5.78714,1.49357 h -11.95116 l 2.24044,-5.97642 h -6.72328 l 2.24043,-5.97656 h 14.19357 l -2.24044,5.97656 h 2.24044 c 2.78493,0 5.12381,-1.90434 5.78714,-4.48298 0.12501,-0.48797 0.18815,-0.98986 0.18759,-1.49358 0,-3.29948 -2.67525,-5.97656 -5.97656,-5.97656 h -11.9513 l 2.24058,-5.97656 h 9.71072 c 2.1773,0 4.2172,0.58331 5.97656,1.5996 1.81645,1.05104 3.32592,2.5605 4.37695,4.37696 1.0163,1.75753 1.59961,3.79912 1.59961,5.97656 z m -26.14851,0 h -6.72145 l 2.24043,-5.97656 h 6.72342 z"
   style="fill:#c82020;fill-rule:nonzero;stroke-width:0.140625"
   id="path1" />
    </g>
</svg>
