<?xml version="1.0" encoding="UTF-8" standalone="no"?>
<svg
   width="144.00026"
   height="180.14409"
   viewBox="0 0 144.00026 180.14409"
   version="1.1"
   xml:space="preserve"
   style="clip-rule:evenodd;fill-rule:evenodd;stroke-linejoin:round;stroke-miterlimit:2"
   id="svg1"
   xmlns="http://www.w3.org/2000/svg"
   xmlns:svg="http://www.w3.org/2000/svg"><defs
   id="defs1" />
    <g
   transform="matrix(4.67367,0,0,4.67367,-855.15084,-1716.1916)"
   id="g1">
        <path
   d="m 182.97204,392.90892 1.7847,-4.28822 h 1.88394 c -0.0497,-0.76024 -0.0744,-1.49563 -0.0744,-2.20616 0,-0.95854 0.0412,-1.8508 0.12391,-2.67714 h -3.71817 l 1.7847,-4.28822 h 2.80106 c 2.61086,-8.16327 8.49377,-12.24491 17.64872,-12.24491 3.00747,0 5.86634,0.38003 8.57644,1.1401 v 5.40381 c -2.54476,-1.10731 -5.24676,-1.66079 -8.10545,-1.66079 -5.48631,0 -9.01447,2.45399 -10.5843,7.36179 h 16.335 l -1.7847,4.28822 H 194.0273 c -0.0827,0.5288 -0.12391,1.23951 -0.12391,2.13177 0,1.02464 0.033,1.94176 0.0991,2.75153 h 13.60833 l -1.75985,4.28822 h -10.90651 c 1.17323,2.9745 2.60275,5.04423 4.28822,6.20918 1.68564,1.16512 4.08992,1.74751 7.21319,1.74751 2.23084,0 4.67654,-0.5288 7.33711,-1.58641 v 5.08143 c -2.52837,0.9254 -5.53584,1.3881 -9.02257,1.3881 -9.17152,0 -14.97176,-4.27994 -17.40089,-12.83981 z"
   style="fill:#003f20;fill-rule:nonzero;stroke-width:0.176267"
   id="path1" />
    </g>
</svg>
