<?xml version="1.0" encoding="UTF-8" standalone="no"?>
<svg
   width="144"
   height="144"
   viewBox="0 0 144 144"
   version="1.1"
   xml:space="preserve"
   style="clip-rule:evenodd;fill-rule:evenodd;stroke-linejoin:round;stroke-miterlimit:2"
   id="svg3"
   xmlns="http://www.w3.org/2000/svg"
   xmlns:svg="http://www.w3.org/2000/svg"><defs
   id="defs3" />
    <g
   transform="matrix(4,0,0,4,-440,-440)"
   id="g3">
        <g
   transform="scale(0.128)"
   id="g1">
            <path
   d="m 1080.7736,1094.6941 c 3.0094,3.0093 4.5183,7.2126 4.1119,11.4482 -0.405,4.2357 -2.6874,8.0747 -6.2128,10.4555 -22.4789,15.1538 -49.5479,24.0272 -78.6727,24.0272 -29.12527,0 -56.19431,-8.8734 -78.64847,-24.0623 -3.51576,-2.3738 -5.79037,-6.2016 -6.19523,-10.4246 -0.40528,-4.2229 1.09997,-8.4136 4.10006,-11.4131 -0.0292,-0.031 -0.0287,-0.031 -0.0283,-0.032 6.29761,-6.2972 16.09918,-7.4363 23.6731,-2.7507 16.56281,10.3711 36.13936,16.3393 57.09881,16.3393 20.96023,0 40.53663,-5.9682 57.12473,-16.2985 7.5544,-4.673 17.3306,-3.5367 23.6123,2.745 0.035,-0.034 0.035,-0.034 0.037,-0.034 z m 13.9205,-175.46755 c 3.0093,-3.00896 7.2126,-4.51871 11.4482,-4.11244 4.2357,0.40598 8.0747,2.68734 10.4555,6.21366 15.1538,22.47792 24.0272,49.54696 24.0272,78.67223 0,29.1248 -8.8734,56.1938 -24.0623,78.6488 -2.3738,3.5156 -6.2016,5.7895 -10.4246,6.1945 -4.2229,0.4064 -8.4136,-1.0997 -11.4131,-4.0992 -0.031,0.028 -0.031,0.028 -0.032,0.028 -6.2972,-6.2972 -7.4363,-16.1002 -2.7507,-23.6728 10.3711,-16.5628 16.3393,-36.1392 16.3393,-57.0994 0,-20.95945 -5.9682,-40.536 -16.2985,-57.12455 -4.673,-7.55465 -3.5367,-17.33104 2.745,-23.6122 -0.034,-0.0356 -0.034,-0.0361 -0.034,-0.0367 z m -211.25746,2.12498 c 2.64178,-3.91078 7.06416,-6.2602 11.78367,-6.2602 3.77002,0 7.38942,1.4992 10.05525,4.16503 0.0304,-0.0292 0.0309,-0.0287 0.0315,-0.0283 6.29705,6.29761 7.43625,16.09918 2.75133,23.6731 -10.3718,16.56281 -16.33964,36.13936 -16.33964,57.09881 0,20.96023 5.96784,40.53663 16.29816,57.12473 4.67282,7.5544 3.53629,17.3306 -2.745,23.6123 0.0346,0.035 0.034,0.035 0.0335,0.037 -3.00882,3.0094 -7.21154,4.5183 -11.44716,4.1119 -4.23563,-0.4064 -8.07483,-2.6874 -10.45674,-6.2128 C 868.24844,1056.1938 859.375,1029.1248 859.375,1000 c 0,-29.12527 8.87344,-56.19431 24.06164,-78.64847 z M 1000,911.40625 c 48.8967,0 88.5938,39.69759 88.5938,88.59375 0,48.8967 -39.6971,88.5938 -88.5938,88.5938 -48.89616,0 -88.59375,-39.6971 -88.59375,-88.5938 0,-48.89616 39.69759,-88.59375 88.59375,-88.59375 z m -80.77345,-6.10087 c -2.67385,-2.67371 -4.17769,-6.30394 -4.17769,-10.08535 0,-4.73344 2.35645,-9.16889 6.27891,-11.81855 C 943.80569,868.24844 970.87473,859.375 1000,859.375 c 29.1248,0 56.1938,8.87344 78.6488,24.06164 3.5156,2.37502 5.7895,6.20269 6.1945,10.42566 0.405,4.22297 -1.0997,8.41331 -4.0992,11.41326 0.028,0.0304 0.028,0.0309 0.028,0.0315 -6.2972,6.29705 -16.1002,7.43625 -23.6728,2.75133 -16.5628,-10.3718 -36.1392,-16.33964 -57.0994,-16.33964 -20.95945,0 -40.536,5.96784 -57.12455,16.29816 -7.55465,4.67282 -17.33104,3.53629 -23.6122,-2.745 -0.0356,0.0346 -0.0361,0.034 -0.0367,0.0335 z"
   style="fill:#208e7a;stroke-width:0.140625"
   id="path1" />
        </g>
        <g
   transform="matrix(0.128,0,0,0.128,-0.512,-0.262)"
   id="g2">
            <path
   d="m 941.70312,1007.9592 c 0,0 -5.40056,0 -5.40056,7.5614 0,7.9073 4.89136,8.1309 6.74227,8.1309 h 8.32865 c 3.83386,13.7489 10.77455,24.1932 20.82179,31.3313 10.04737,7.1395 21.74723,10.7086 35.09953,10.7086 5.6855,0 10.8732,-0.495 15.5672,-1.4864 4.6927,-0.9928 8.6583,-2.3147 11.8983,-3.9671 3.2386,-1.6523 5.7502,-3.569 7.5347,-5.7501 1.7845,-2.1811 2.6775,-4.5281 2.6775,-7.0397 0,-2.6438 -0.6286,-4.9739 -2.1811,-6.743 -4.057,-4.6209 -11.0883,-0.4022 -16.4587,1.6861 -4.2807,1.6636 -9.5189,2.6775 -15.8654,2.6775 -7.5351,0 -14.21124,-1.7859 -20.02819,-5.355 -5.81681,-3.569 -10.24566,-8.924 -13.28625,-16.0622 l 44.70654,-0.2236 c 0,0 7.0678,-1.4062 7.0509,-7.9073 -0.02,-7.5614 -7.0509,-7.9313 -6.743,-7.9313 z m 0,-11.82517 c 0,0 -5.40056,0.003 -5.40056,-7.56211 0,-7.90664 4.89136,-8.13037 6.74227,-8.13037 h 8.32865 c 3.83386,-13.74905 10.77455,-24.19299 20.82179,-31.33195 10.04737,-7.13883 21.74723,-10.70832 35.09953,-10.70832 5.6855,0 10.8732,0.49585 15.5672,1.48725 4.6927,0.99155 8.6583,2.31357 11.8983,3.96605 3.2386,1.65263 5.7502,3.56948 7.5347,5.75086 1.7845,2.18123 2.6775,4.52784 2.6775,7.03969 0,2.64403 -0.6286,4.97334 -2.1811,6.74226 -4.057,4.62164 -11.0883,0.40289 -16.4587,-1.68553 -4.2807,-1.66387 -9.5189,-2.67708 -15.8654,-2.67708 -7.5351,0 -14.21124,1.78468 -20.02819,5.35416 -5.81681,3.56948 -10.24566,8.92364 -13.28625,16.06261 l 44.70654,0.22373 c 0,0 7.0678,1.40625 7.0509,7.90664 -0.02,7.56211 -7.0509,7.9321 -6.743,7.9321 z"
   style="fill:#ffffff;fill-rule:nonzero;stroke-width:0.140625"
   id="path2" />
        </g>
    </g>
</svg>
