<?xml version="1.0" encoding="UTF-8" standalone="no"?>
<svg
   width="144"
   height="143.78966"
   viewBox="0 0 144 143.78966"
   version="1.1"
   xml:space="preserve"
   style="clip-rule:evenodd;fill-rule:evenodd;stroke-linejoin:round;stroke-miterlimit:2"
   id="svg1"
   xmlns="http://www.w3.org/2000/svg"
   xmlns:svg="http://www.w3.org/2000/svg"><defs
   id="defs1" />
    <g
   transform="matrix(74.7882,0,0,74.7882,72.000002,583.14697)"
   id="g1">
        <path
   d="m -0.19771875,-6.904625 -0.35985938,-0.6249375 c -0.0369844,-0.048516 -0.0773437,-0.094359 -0.12079687,-0.13725 -0.0503438,-0.050344 -0.10757813,-0.075516 -0.17170312,-0.075516 h -0.068625 v -0.054984 h 0.82392188 v 0.054984 h -0.068625 c -0.064125,0 -0.0984375,0.025172 -0.10307813,0.075516 -0.004641,0.047109 0.003938,0.094641 0.02475,0.13725 L 0.0495,-7.0241563 0.40654687,-7.5350469 c 0.0227813,-0.042047 0.0343125,-0.086062 0.0343125,-0.1317656 0,-0.050344 -0.0320625,-0.075516 -0.0961875,-0.075516 h -0.068625 v -0.054984 h 0.68667187 v 0.054984 h -0.0687656 c -0.0639844,0 -0.12768751,0.025172 -0.19082813,0.075516 -0.0521719,0.041203 -0.0925312,0.081 -0.12079688,0.1193906 l -0.0178594,0.02475 -0.43129688,0.6180469 h 0.82954688 v 0.13725 h -0.765 l 0.36534375,0.6330937 c 0.0265781,0.041203 0.0635625,0.084234 0.11123437,0.1290938 0.0531562,0.050344 0.11165626,0.075516 0.17578125,0.075516 h 0.068625 v 0.054984 H 0.09478125 v -0.054984 h 0.068625 c 0.064125,0 0.0984375,-0.025172 0.10307813,-0.075516 C 0.271125,-6.053 0.262125,-6.1010938 0.24032813,-6.1438438 L -0.0495,-6.6464375 -0.39684375,-6.1493281 c -0.0284063,0.04275 -0.0437344,0.092812 -0.0440156,0.1441406 0,0.050344 0.0320625,0.075516 0.0961875,0.075516 h 0.068625 v 0.054984 h -0.68667187 v -0.054984 h 0.0687656 c 0.0639844,0 0.12585938,-0.025172 0.18534376,-0.075516 0.0558281,-0.046687 0.10209375,-0.091969 0.13865625,-0.1359844 l 0.43804687,-0.6262031 h -0.8308125 v -0.13725 z"
   style="fill-rule:nonzero;stroke-width:0.140625"
   id="path1" />
    </g>
</svg>
