<?xml version="1.0" encoding="UTF-8" standalone="no"?>
<svg
   width="143.99953"
   height="144.26909"
   viewBox="0 0 143.99953 144.26909"
   version="1.1"
   xml:space="preserve"
   style="clip-rule:evenodd;fill-rule:evenodd;stroke-linejoin:round;stroke-miterlimit:2"
   id="svg7"
   xmlns="http://www.w3.org/2000/svg"
   xmlns:svg="http://www.w3.org/2000/svg"><defs
   id="defs7" />
    <g
   transform="matrix(16,0,0,16,72.964206,72.134543)"
   id="g7">
        <g
   transform="translate(-32,-32)"
   id="g6">
            <clipPath
   id="_clip1">
                <rect
   x="0"
   y="0"
   width="64"
   height="64"
   id="rect1" />
            </clipPath>
            <g
   clip-path="url(#_clip1)"
   id="g5">
                <g
   transform="matrix(0.632461,0,0,0.64,-188.632,0)"
   id="g4">
                    <g
   id="g3">
                        <g
   id="g2">
                            <g
   id="g1">
                                <path
   d="m 343.32006,54.226634 h 0.007 l -1.16275,2.817755 h 2.81776 l 1.16274,-2.817755 h -0.007 l 1.16275,-2.817756 h -2.81776 z m 12.54648,-7.04439 c 0,2.331693 -1.89494,4.226634 -4.22663,4.226634 h -4.33934 l 1.19754,-2.817756 h 3.1418 c 0.77488,0 1.40888,-0.633995 1.40888,-1.408878 0,-0.774883 -0.634,-1.408878 -1.40888,-1.408878 h -1.94425 l 1.16937,-2.817755 h 0.77488 c 2.33169,0 4.22663,1.89494 4.22663,4.226633 z m -10.24958,1.408878 h -2.81776 l -1.16274,2.817756 h 2.81775 z m 1.99032,-5.635511 h -2.81776 l -1.16274,2.817755 h 2.81775 z"
   style="fill:#77bb65;fill-rule:nonzero;stroke-width:0.140888"
   id="path1" />
                            </g>
                        </g>
                    </g>
                </g>
            </g>
        </g>
    </g>
</svg>
