<?xml version="1.0" encoding="UTF-8" standalone="no"?>
<svg
   width="144"
   height="148.64355"
   viewBox="0 0 144 148.64355"
   version="1.1"
   xml:space="preserve"
   style="clip-rule:evenodd;fill-rule:evenodd;stroke-linejoin:round;stroke-miterlimit:2"
   id="svg1"
   xmlns="http://www.w3.org/2000/svg"
   xmlns:svg="http://www.w3.org/2000/svg"><defs
   id="defs1" />
    <g
   transform="matrix(4,0,0,4,-423.99999,-437.67756)"
   id="g1">
        <path
   d="m 141.92335,120.43042 c -0.0517,-0.46307 -0.12919,-0.92279 -0.23197,-1.37715 -0.1064,-0.46655 -0.24024,-0.92656 -0.40108,-1.37729 -0.1681,-0.47018 -0.36406,-0.93005 -0.5866,-1.37714 -0.23777,-0.47454 -0.50559,-0.93339 -0.80201,-1.37381 -0.20903,-0.31311 -0.4336,-0.61548 -0.67282,-0.9061 -0.13021,-0.16083 -0.26521,-0.31804 -0.40442,-0.47119 -0.30586,-0.3436 -0.63233,-0.66818 -0.97766,-0.972 -0.15446,-0.14052 -0.31355,-0.27566 -0.47729,-0.40514 -0.29192,-0.23618 -0.59502,-0.45828 -0.90813,-0.66557 -0.38962,-0.26143 -0.79476,-0.49906 -1.21297,-0.71173 -0.0565,-0.0305 -0.11395,-0.0591 -0.17231,-0.0856 -0.44898,-0.2234 -0.91176,-0.41821 -1.38527,-0.58326 -0.45247,-0.15968 -0.91394,-0.29279 -1.38208,-0.39861 -0.90944,-0.20381 -1.83862,-0.30658 -2.7707,-0.30644 h -20.07769 c -0.74831,-4.3e-4 -1.47673,0.24242 -2.07494,0.69199 -0.2623,0.19205 -0.49456,0.42184 -0.68951,0.68196 -0.45203,0.59357 -0.69663,1.31952 -0.6959,2.06565 v 24.77656 c 0,0.23067 0.01,0.46133 0.0299,0.68865 0.0329,0.46292 0.10379,0.9225 0.21193,1.37381 0.22573,0.95966 0.61229,1.87432 1.14344,2.70493 0.01,0.0173 0.021,0.0338 0.0334,0.0495 0.31529,0.49515 0.68066,0.95661 1.09016,1.37715 0.0829,0.089 0.16911,0.17463 0.25868,0.25693 l 0.003,0.003 c 0.42242,0.4066 0.88548,0.76863 1.38193,1.08058 0.016,0.0122 0.0325,0.0232 0.0499,0.0329 0.4246,0.26826 0.8714,0.49979 1.33548,0.69199 0.44899,0.18566 0.91234,0.33445 1.38542,0.44477 0.45421,0.10728 0.91641,0.17782 1.38194,0.21092 h 0.003 v 0.0296 h 11.76895 v -0.0132 c 0.19451,-0.0367 0.37016,-0.14037 0.49631,-0.29279 0.12585,-0.15198 0.19422,-0.34345 0.19306,-0.54072 0.002,-0.1935 -0.0652,-0.38163 -0.189,-0.53042 -0.0861,-0.108 -0.19771,-0.19278 -0.32473,-0.24707 -0.0589,-0.0322 -0.11743,-0.0652 -0.17564,-0.0988 -0.23502,-0.13137 -0.46611,-0.26971 -0.69271,-0.41516 -0.2385,-0.14821 -0.46728,-0.30963 -0.69257,-0.47439 -0.064,-0.0433 -0.126,-0.0894 -0.18566,-0.13848 -0.17274,-0.12934 -0.34171,-0.26333 -0.50705,-0.40195 -0.15212,-0.12615 -0.30135,-0.25563 -0.44738,-0.38875 -0.20831,-0.18798 -0.4095,-0.38351 -0.60329,-0.58645 -0.0765,-0.0755 -0.15053,-0.15343 -0.22195,-0.23385 -0.0399,-0.0396 -0.0764,-0.0823 -0.11279,-0.12194 -0.29555,-0.32618 -0.57441,-0.66701 -0.83555,-1.02135 -0.19394,-0.26057 -0.37757,-0.52883 -0.55031,-0.80391 -0.1199,-0.18798 -0.23487,-0.37916 -0.34461,-0.57324 -0.25229,-0.44419 -0.47802,-0.9029 -0.67602,-1.37381 -0.13413,-0.31427 -0.25476,-0.6342 -0.3613,-0.95879 -0.0491,-0.1379 -0.0933,-0.27754 -0.13254,-0.4185 -0.07,-0.22732 -0.13195,-0.45696 -0.18566,-0.68864 -0.0563,-0.22805 -0.10611,-0.45769 -0.14908,-0.68865 -0.0846,-0.45551 -0.14545,-0.91524 -0.18232,-1.37714 -0.0134,-0.16781 -0.0232,-0.33576 -0.0298,-0.504 -0.009,-0.18987 -0.0138,-0.37989 -0.0132,-0.57005 v -4.43148 h -4.59697 c -0.19814,7.2e-4 -0.39034,-0.0678 -0.54334,-0.19365 -0.15256,-0.12542 -0.25606,-0.30077 -0.29221,-0.49485 -0.0454,-0.22413 0.005,-0.45726 0.13921,-0.64249 l 0.0299,-0.0428 0.41763,-0.59313 0.25185,-0.35579 0.30165,-0.42837 0.82858,-1.17944 0.13906,-0.19771 0.97113,-1.37729 0.27508,-0.39193 0.69286,-0.98521 0.69256,-0.98173 0.27508,-0.39208 0.41763,-0.59313 0.55394,-0.78387 0.13906,-0.19785 0.83192,-1.17944 0.55016,-0.78416 0.41763,-0.59298 0.27174,-0.38555 c 0.0784,-0.11207 0.18276,-0.20337 0.30411,-0.26637 0.24649,-0.12803 0.54073,-0.12803 0.78721,0 0.12136,0.063 0.22573,0.15445 0.30412,0.26637 l 0.27174,0.38555 0.41429,0.58979 0.5535,0.78735 0.13921,0.19452 0.69256,0.98506 0.13921,0.19771 0.55394,0.78402 0.41763,0.59313 0.27174,0.38874 0.69605,0.98506 0.68937,0.98188 0.27842,0.39541 0.97113,1.37715 0.13572,0.19437 0.83192,1.18292 0.55394,0.78402 0.41763,0.59298 0.0298,0.043 c 0.13412,0.18522 0.18464,0.41835 0.13921,0.64234 -0.0298,0.15125 -0.0999,0.29177 -0.20309,0.4063 -0.10335,0.11497 -0.23588,0.20004 -0.38351,0.24605 -0.0817,0.0242 -0.16665,0.0364 -0.25186,0.0363 h -4.59363 v 4.13158 c -4.3e-4,0.47294 0.0978,0.94094 0.28844,1.37381 0.10553,0.24271 0.2401,0.47177 0.40094,0.68197 0.36145,0.477 0.8383,0.85471 1.38541,1.09727 0.43709,0.18987 0.90886,0.28757 1.38542,0.28669 0.0595,0 0.11933,0 0.17899,-0.003 0.40311,-0.004 0.80564,-0.0283 1.20629,-0.0724 0.46568,-0.0514 0.92816,-0.12847 1.38542,-0.23066 0.45101,-0.10176 0.89593,-0.22936 1.33229,-0.38221 h 0.0496 v -0.0164 c 0.47366,-0.16505 0.93629,-0.35986 1.38542,-0.58312 0.468,-0.23008 0.92076,-0.48977 1.35552,-0.77763 h 0.0299 v -0.0199 c 0.48702,-0.32299 0.95008,-0.68081 1.38542,-1.07071 0.1051,-0.0917 0.20787,-0.18624 0.30818,-0.28336 0.38235,-0.36217 0.7409,-0.74845 1.07376,-1.1565 0.0597,-0.0726 0.11598,-0.14501 0.1723,-0.22079 0.34229,-0.43664 0.65352,-0.8968 0.93136,-1.37714 0.099,-0.16737 0.19292,-0.33765 0.28161,-0.51068 0.14836,-0.28336 0.28539,-0.57252 0.41095,-0.86661 0.0938,-0.22733 0.18218,-0.45697 0.26521,-0.6885 0.082,-0.22573 0.15605,-0.45436 0.22195,-0.68531 0.13065,-0.4529 0.23575,-0.91277 0.31486,-1.37729 0.0778,-0.45566 0.12876,-0.91553 0.15242,-1.37715 H 142 v -2.75472 c -4.4e-4,-0.459 -0.026,-0.91757 -0.0767,-1.37366 z"
   style="fill:#3749e7;fill-rule:nonzero;stroke-width:0.145161"
   id="path1" />
    </g>
</svg>
