<?xml version="1.0" encoding="UTF-8" standalone="no"?>
<svg
   width="144.00008"
   height="194.96637"
   viewBox="0 0 144.00008 194.96637"
   version="1.1"
   xml:space="preserve"
   style="clip-rule:evenodd;fill-rule:evenodd;stroke-linejoin:round;stroke-miterlimit:2"
   id="svg1"
   xmlns="http://www.w3.org/2000/svg"
   xmlns:svg="http://www.w3.org/2000/svg"><defs
   id="defs1" />
    <g
   transform="matrix(4.91778,0,0,4.91778,-2236.7305,-1562.3167)"
   id="g1">
        <path
   d="m 454.82524,347.07858 h 4.88026 v -4.44157 h -4.88026 v -4.71575 h 4.88026 V 317.6874 h 10.63785 c 4.27707,0 7.64024,1.07841 10.08951,3.23523 2.44926,2.15681 3.6739,5.1727 3.6739,9.04765 0,1.57192 -0.23762,3.11642 -0.71285,4.6335 -0.47523,1.51708 -1.23377,2.88794 -2.27562,4.11257 -1.04185,1.22464 -2.40357,2.20252 -4.08516,2.93364 -1.68158,0.73112 -3.72873,1.09669 -6.14144,1.09669 h -5.86727 v 4.3319 h 5.48343 v 4.71575 h -5.48343 v 5.53827 h -5.31892 v -5.53827 h -4.88026 z m 16.06645,-9.48633 c 1.53536,0 2.81483,-0.24675 3.8384,-0.74026 1.02358,-0.49351 1.83695,-1.14238 2.44013,-1.94662 0.60318,-0.80424 1.03271,-1.63589 1.2886,-2.49496 0.2559,-0.85907 0.38384,-1.63589 0.38384,-2.33046 0,-1.06013 -0.24675,-2.15681 -0.74026,-3.29005 -0.49351,-1.13325 -1.29774,-2.08371 -2.41271,-2.85139 -1.11496,-0.76768 -2.6229,-1.15152 -4.52383,-1.15152 h -6.14144 v 14.80526 z"
   style="fill:#003f20;fill-rule:nonzero;stroke-width:0.190397"
   id="path1" />
    </g>
</svg>
