<?xml version="1.0" encoding="UTF-8" standalone="no"?>
<svg
   width="143.99942"
   height="143.99942"
   viewBox="0 0 143.99942 143.99942"
   version="1.1"
   xml:space="preserve"
   style="clip-rule:evenodd;fill-rule:evenodd;stroke-linejoin:round;stroke-miterlimit:2"
   id="svg3"
   xmlns="http://www.w3.org/2000/svg"
   xmlns:svg="http://www.w3.org/2000/svg"><defs
   id="defs3" />
    <g
   transform="matrix(1.23373,0,0,1.23373,-439.99824,-439.99824)"
   id="g3">
        <g
   transform="scale(0.415)"
   id="g1">
            <path
   d="m 1080.7736,1094.6941 c 3.0094,3.0093 4.5183,7.2126 4.1119,11.4482 -0.405,4.2357 -2.6874,8.0747 -6.2128,10.4555 -22.4789,15.1538 -49.5479,24.0272 -78.6727,24.0272 -29.12527,0 -56.19431,-8.8734 -78.64847,-24.0623 -3.51576,-2.3738 -5.79037,-6.2016 -6.19523,-10.4246 -0.40528,-4.2229 1.09997,-8.4136 4.10006,-11.4131 -0.0292,-0.031 -0.0287,-0.031 -0.0283,-0.032 6.29761,-6.2972 16.09918,-7.4363 23.6731,-2.7507 16.56281,10.3711 36.13936,16.3393 57.09881,16.3393 20.96023,0 40.53663,-5.9682 57.12473,-16.2985 7.5544,-4.673 17.3306,-3.5367 23.6123,2.745 0.035,-0.034 0.035,-0.034 0.037,-0.034 z m 13.9205,-175.46755 c 3.0093,-3.00896 7.2126,-4.51871 11.4482,-4.11244 4.2357,0.40598 8.0747,2.68734 10.4555,6.21366 15.1538,22.47792 24.0272,49.54696 24.0272,78.67223 0,29.1248 -8.8734,56.1938 -24.0623,78.6488 -2.3738,3.5156 -6.2016,5.7895 -10.4246,6.1945 -4.2229,0.4064 -8.4136,-1.0997 -11.4131,-4.0992 -0.031,0.028 -0.031,0.028 -0.032,0.028 -6.2972,-6.2972 -7.4363,-16.1002 -2.7507,-23.6728 10.3711,-16.5628 16.3393,-36.1392 16.3393,-57.0994 0,-20.95945 -5.9682,-40.536 -16.2985,-57.12455 -4.673,-7.55465 -3.5367,-17.33104 2.745,-23.6122 -0.034,-0.0356 -0.034,-0.0361 -0.034,-0.0367 z m -211.25746,2.12498 c 2.64178,-3.91078 7.06416,-6.2602 11.78367,-6.2602 3.77002,0 7.38942,1.4992 10.05525,4.16503 0.0304,-0.0292 0.0309,-0.0287 0.0315,-0.0283 6.29705,6.29761 7.43625,16.09918 2.75133,23.6731 -10.3718,16.56281 -16.33964,36.13936 -16.33964,57.09881 0,20.96023 5.96784,40.53663 16.29816,57.12473 4.67282,7.5544 3.53629,17.3306 -2.745,23.6123 0.0346,0.035 0.034,0.035 0.0335,0.037 -3.00882,3.0094 -7.21154,4.5183 -11.44716,4.1119 -4.23563,-0.4064 -8.07483,-2.6874 -10.45674,-6.2128 C 868.24844,1056.1938 859.375,1029.1248 859.375,1000 c 0,-29.12527 8.87344,-56.19431 24.06164,-78.64847 z M 1000,911.40625 c 48.8967,0 88.5938,39.69759 88.5938,88.59375 0,48.8967 -39.6971,88.5938 -88.5938,88.5938 -48.89616,0 -88.59375,-39.6971 -88.59375,-88.5938 0,-48.89616 39.69759,-88.59375 88.59375,-88.59375 z m -80.77345,-6.10087 c -2.67385,-2.67371 -4.17769,-6.30394 -4.17769,-10.08535 0,-4.73344 2.35645,-9.16889 6.27891,-11.81855 C 943.80569,868.24844 970.87473,859.375 1000,859.375 c 29.1248,0 56.1938,8.87344 78.6488,24.06164 3.5156,2.37502 5.7895,6.20269 6.1945,10.42566 0.405,4.22297 -1.0997,8.41331 -4.0992,11.41326 0.028,0.0304 0.028,0.0309 0.028,0.0315 -6.2972,6.29705 -16.1002,7.43625 -23.6728,2.75133 -16.5628,-10.3718 -36.1392,-16.33964 -57.0994,-16.33964 -20.95945,0 -40.536,5.96784 -57.12455,16.29816 -7.55465,4.67282 -17.33104,3.53629 -23.6122,-2.745 -0.0356,0.0346 -0.0361,0.034 -0.0367,0.0335 z"
   style="fill:#208e7a;stroke-width:0.140625"
   id="path1" />
        </g>
        <g
   transform="matrix(2.03201,0,0,2.03201,-1627.21,-1436.95)"
   id="g2">
            <path
   d="m 994.92171,913.45468 c -0.80114,0 -0.91688,-1.0665 -0.91688,-1.8225 0,-0.702 0.1485,-1.19475 0.4455,-1.47825 0.297,-0.2835 0.6615,-0.42525 1.0935,-0.42525 h 2.4705 v -8.3835 c 0,-0.486 0.14175,-0.87075 0.42525,-1.15425 0.2835,-0.2835 0.65475,-0.49275 1.11375,-0.62775 0.432,-0.135 0.92477,-0.2565 1.47827,-0.3645 0.5535,-0.108 1.1205,-0.2025 1.701,-0.2835 0.5782,-0.0807 1.159,-0.14161 1.7415,-0.18225 0.5808,-0.0405 1.1278,-0.0607 1.6397,-0.0607 3.2948,0 5.7712,0.675 7.432,2.025 1.6608,1.35 2.4905,3.186 2.4905,5.508 0,2.187 -0.7622,3.942 -2.288,5.265 -1.5258,1.323 -3.7997,1.9845 -6.8245,1.9845 z m 8.23609,5.5485 v 2.71111 c 0,0 -0.093,1.27575 -0.5327,1.78214 -0.3906,0.44986 -1.3573,0.61018 -1.8163,0.61018 -0.99897,0 -1.71447,-0.18985 -2.14647,-0.56743 -0.432,-0.378 -0.648,-0.999 -0.648,-1.863 v -2.673 l -2.93217,0.0354 c -0.57558,0.007 -0.87483,-0.46069 -0.95583,-0.74419 -0.081,-0.2835 -0.1215,-0.58725 -0.1215,-0.91125 0,-0.621 0.12825,-1.05975 0.38475,-1.31625 0.2565,-0.2565 0.57375,-0.38475 0.95175,-0.38475 0,0 13.86337,-0.0465 16.92477,0.0574 0.8719,0.0297 1.1531,0.2648 1.2797,0.69187 0.094,0.30853 0.142,0.6293 0.142,0.95175 0,0.54 -0.135,0.945 -0.405,1.215 -0.27,0.27 -0.5934,0.405 -0.9717,0.405 z m 3.1993,-9.477 c 1.4048,0 2.4975,-0.27675 3.2807,-0.83025 0.7833,-0.5535 1.1743,-1.37025 1.1743,-2.45025 0,-1.134 -0.4177,-1.9845 -1.2558,-2.5515 -0.8367,-0.567 -1.9842,-0.8505 -3.4425,-0.8505 -0.4852,0 -0.9844,0.0203 -1.4977,0.0608 -0.5133,0.0405 -0.9993,0.12825 -1.4583,0.26325 v 6.3585 z"
   style="fill:#ffffff;fill-rule:nonzero;stroke-width:0.140625"
   id="path2" />
        </g>
    </g>
</svg>
