<?xml version="1.0" encoding="UTF-8" standalone="no"?>
<svg
   width="144.01544"
   height="143.99931"
   viewBox="0 0 144.01544 143.99931"
   version="1.1"
   xml:space="preserve"
   style="clip-rule:evenodd;fill-rule:evenodd;stroke-linejoin:round;stroke-miterlimit:2"
   id="svg2"
   xmlns="http://www.w3.org/2000/svg"
   xmlns:svg="http://www.w3.org/2000/svg"><defs
   id="defs2" />
    <g
   transform="matrix(3.99977,0,0,3.99977,-439.9499,-439.9429)"
   id="g2">
        <path
   d="m 145.9957,109.99205 -12.00068,12.00068 h -7.99933 c -2.20889,0 -4.00121,1.79077 -4.00121,3.99966 0,0.44949 0.075,0.88266 0.21124,1.28574 0.19718,0.58028 0.52543,1.10754 0.95917,1.54057 0.72373,0.72528 1.72481,1.17491 2.82925,1.17491 l -3.9998,3.99966 c -2.37218,0 -4.58402,-0.68928 -6.4468,-1.87628 -3.3402,-2.13239 -5.55374,-5.86835 -5.55374,-10.12426 0,-6.62837 5.37245,-12.00068 12.00068,-12.00068 z"
   style="fill:#b2fe92;fill-rule:nonzero;stroke-width:0.14064"
   id="path1" />
        <path
   d="m 145.9957,133.99341 c 0,6.62823 -5.37245,12.00054 -12.00068,12.00054 H 109.9938 l 12.00068,-12.00054 h 8.00088 c 2.20889,0 3.99966,-1.79077 3.99966,-3.99966 0,-0.057 0,-0.11252 -0.003,-0.16793 0,-0.039 -0.003,-0.075 -0.006,-0.11237 0,-0.009 0,-0.0164 -0.003,-0.027 0,-0.0239 -0.003,-0.0494 -0.006,-0.0734 0,-0.0209 -0.003,-0.0419 -0.006,-0.0629 -0.003,-0.0211 -0.005,-0.045 -0.009,-0.066 0,-0.0135 -0.003,-0.027 -0.005,-0.039 -0.004,-0.036 -0.0105,-0.0705 -0.0151,-0.10492 0,-0.003 0,-0.006 -0.003,-0.009 -0.007,-0.045 -0.0149,-0.0885 -0.0255,-0.13333 -8.4e-4,-0.0139 -0.004,-0.0276 -0.009,-0.0405 -0.009,-0.045 -0.0195,-0.0899 -0.03,-0.13487 -0.003,-0.009 -0.005,-0.018 -0.007,-0.027 -0.0108,-0.0422 -0.0224,-0.0841 -0.0345,-0.12587 -0.0152,-0.0529 -0.0316,-0.10534 -0.0495,-0.15738 -0.0315,-0.0928 -0.0675,-0.18578 -0.10492,-0.27565 -0.0249,-0.0587 -0.0513,-0.11659 -0.0795,-0.17383 -0.0252,-0.0544 -0.0522,-0.10787 -0.0809,-0.16047 -0.036,-0.0674 -0.075,-0.13333 -0.11237,-0.19774 -0.0249,-0.0399 -0.0504,-0.0793 -0.0765,-0.11842 -0.0283,-0.0442 -0.0582,-0.0871 -0.0899,-0.12883 -0.0131,-0.0196 -0.0271,-0.0385 -0.0419,-0.057 -0.0225,-0.0315 -0.0465,-0.0615 -0.072,-0.093 -0.0209,-0.0284 -0.045,-0.057 -0.0689,-0.0854 -0.0335,-0.0394 -0.0675,-0.0783 -0.10196,-0.11687 -0.0419,-0.0465 -0.0838,-0.0914 -0.12883,-0.13487 -0.74877,-0.75215 -1.76799,-1.17477 -2.82926,-1.17336 l 3.99967,-3.99981 c 0.0779,0 0.15583,0 0.23374,0.003 0.0585,0 0.11687,0.003 0.17693,0.004 0.15751,0.005 0.31489,0.0131 0.47198,0.0253 0.0509,0.003 0.10337,0.008 0.15443,0.0136 0.19619,0.0149 0.39252,0.0374 0.5859,0.0629 0.057,0.007 0.11237,0.0151 0.16933,0.0239 0.075,0.0105 0.15133,0.0225 0.22629,0.036 l 0.15738,0.027 c 0.012,0.003 0.0255,0.003 0.0374,0.007 0.0689,0.0121 0.13937,0.0256 0.20829,0.0391 0.0869,0.0179 0.17538,0.0374 0.26229,0.0568 l 0.0539,0.0135 c 0.0885,0.0211 0.17833,0.0421 0.26524,0.0645 0.003,0 0.006,0 0.009,0.003 0.093,0.0241 0.18437,0.0495 0.27579,0.0751 0.0944,0.0269 0.19029,0.0554 0.28325,0.0854 0.0849,0.0255 0.16933,0.0523 0.25329,0.0809 0.0104,0.004 0.0224,0.009 0.0345,0.0121 0.0824,0.0284 0.16624,0.0568 0.24865,0.0883 0.0121,0.003 0.0241,0.009 0.036,0.0135 0.0869,0.0315 0.17383,0.063 0.25934,0.0989 0.0914,0.0345 0.18128,0.072 0.27115,0.11097 0.18536,0.0772 0.36834,0.16018 0.5485,0.24879 0.082,0.0392 0.16342,0.0797 0.24429,0.12137 0.0869,0.045 0.17228,0.0883 0.25624,0.13487 0.0854,0.045 0.16933,0.0928 0.2533,0.14078 0.0838,0.048 0.16623,0.0975 0.2502,0.14697 0.0765,0.0464 0.15442,0.0928 0.22924,0.14078 0.008,0.005 0.0135,0.009 0.0211,0.0135 0.16075,0.10379 0.31911,0.21124 0.47494,0.3222 0.15681,0.11139 0.31067,0.22685 0.46158,0.34612 0.0689,0.054 0.13642,0.10801 0.20379,0.16497 0.0121,0.009 0.0225,0.0179 0.0345,0.0269 0.21687,0.17974 0.42741,0.36721 0.63091,0.562 0.0691,0.0675 0.13797,0.13333 0.20689,0.20238 0.0689,0.0689 0.13487,0.13628 0.20224,0.20674 0.066,0.0689 0.13037,0.13937 0.19633,0.20984 0.11392,0.12587 0.22629,0.25329 0.33416,0.38366 0.024,0.0269 0.0465,0.0568 0.0689,0.0854 0.0525,0.0629 0.10351,0.12587 0.15443,0.19029 0.11771,0.14893 0.23163,0.30083 0.34161,0.45553 0.10998,0.1547 0.003,0.003 0.003,0.006 0.057,0.0779 0.11082,0.15737 0.16483,0.23824 0.0539,0.0795 0.10632,0.16033 0.16033,0.24134 0.0509,0.0809 0.10196,0.16033 0.15132,0.24274 0.009,0.0165 0.0195,0.0329 0.0285,0.048 0.0404,0.0674 0.0809,0.13488 0.11983,0.20379 0.048,0.084 0.0959,0.16778 0.14092,0.25329 0.0345,0.0629 0.0689,0.12742 0.10182,0.19184 0.0889,0.17186 0.17384,0.34583 0.25484,0.52149 0.0224,0.048 0.0449,0.0959 0.0658,0.14528 0.0331,0.0734 0.0646,0.14697 0.0959,0.22179 0.0331,0.0795 0.066,0.16033 0.0975,0.23979 0.03,0.075 0.0599,0.15288 0.0869,0.22925 0.0135,0.0346 0.027,0.0705 0.039,0.10646 0.0209,0.0554 0.0405,0.10942 0.0585,0.16483 0.0374,0.10942 0.0748,0.22024 0.10787,0.33121 0.027,0.0809 0.0509,0.16328 0.0734,0.24429 0.007,0.0209 0.0135,0.0435 0.0194,0.0644 0.0241,0.0854 0.0465,0.17088 0.0691,0.25625 0,0.003 0.003,0.006 0.003,0.009 0.021,0.0809 0.0419,0.16328 0.0599,0.24429 0.0285,0.11983 0.0554,0.24275 0.081,0.36412 0.0149,0.072 0.0269,0.14387 0.0404,0.21729 0.0151,0.0765 0.027,0.15287 0.039,0.22924 0.009,0.0556 0.018,0.11097 0.027,0.16793 0.009,0.0674 0.0195,0.13487 0.027,0.20224 0.006,0.042 0.0104,0.0824 0.0149,0.12446 0.009,0.0703 0.0166,0.14233 0.024,0.2142 v 0.003 c 0.0105,0.0973 0.0194,0.19324 0.027,0.2907 0,0.009 0,0.021 0.003,0.0315 0.007,0.0914 0.0119,0.18128 0.0164,0.2727 0,0.012 0,0.0255 0.003,0.039 0.005,0.0885 0.007,0.17678 0.009,0.26524 v 0.0405 c 0.003,0.0959 0.003,0.19183 0.003,0.28775 z"
   style="fill:#078465;fill-rule:nonzero;stroke-width:0.14064"
   id="path2" />
    </g>
</svg>
