<?xml version="1.0" encoding="UTF-8" standalone="no"?>
<svg
   width="143.99861"
   height="190.58943"
   viewBox="0 0 143.99861 190.58943"
   version="1.1"
   xml:space="preserve"
   style="clip-rule:evenodd;fill-rule:evenodd;stroke-linejoin:round;stroke-miterlimit:2"
   id="svg1"
   xmlns="http://www.w3.org/2000/svg"
   xmlns:svg="http://www.w3.org/2000/svg"><defs
   id="defs1" />
    <g
   transform="matrix(4.06892,0,0,4.06892,-432.20744,-416.70554)"
   id="g1">
        <path
   d="m 141.51907,121.24259 c 0.7363,-4.92182 -3.01146,-7.56774 -8.13598,-9.33274 l 1.66226,-6.66728 -4.05877,-1.01139 -1.61833,6.49158 c -1.06704,-0.26597 -2.16293,-0.51667 -3.25194,-0.76515 l 1.62988,-6.53439 -4.05635,-1.01139 -1.66357,6.66505 c -0.88315,-0.20138 -1.75011,-0.40016 -2.59175,-0.60936 l 0.005,-0.0207 -5.59745,-1.3976 -1.0797,4.33461 c 0,0 3.01147,0.69014 2.94781,0.73276 1.64384,0.4104 1.94089,1.4981 1.89119,2.36041 l -1.89342,7.59547 c 0.11316,0.0289 0.26001,0.0704 0.42194,0.13513 -0.13531,-0.0335 -0.27974,-0.0705 -0.42901,-0.10628 l -2.65411,10.64007 c -0.2012,0.49918 -0.71099,1.24832 -1.86011,0.96392 0.0406,0.059 -2.95004,-0.7363 -2.95004,-0.7363 l -2.01496,4.64562 5.28178,1.31645 c 0.98273,0.24624 1.94554,0.50402 2.89346,0.74672 l -1.67957,6.7434 4.05412,1.01158 1.66357,-6.67193 c 1.07504,0.29146 2.15325,0.57121 3.23443,0.83922 l -1.65779,6.64067 4.05877,1.01139 1.67976,-6.73075 c 6.92115,1.30956 12.12551,0.78134 14.31617,-5.47777 1.76519,-5.03983 -0.0879,-7.94688 -3.72934,-9.84253 2.65188,-0.61142 4.64953,-2.35576 5.1824,-5.95853 z m -9.27356,13.00252 c -1.25428,5.03982 -9.74053,2.31536 -12.49198,1.63211 l 2.22882,-8.93388 c 2.75145,0.6866 11.57402,2.04604 10.26316,7.30177 z m 1.2554,-13.07548 c -1.14447,4.58438 -8.20763,2.25525 -10.49898,1.68422 l 2.02073,-8.10284 c 2.29135,0.57102 9.67018,1.63676 8.47825,6.41862 z"
   style="fill:#ef4800;fill-rule:nonzero;stroke-width:0.186123"
   id="path1" />
    </g>
</svg>
