<?xml version="1.0" encoding="UTF-8" standalone="no"?>
<svg
   width="214.63686"
   height="214.53091"
   viewBox="0 0 214.63686 214.53091"
   version="1.1"
   xml:space="preserve"
   style="clip-rule:evenodd;fill-rule:evenodd;stroke-linejoin:round;stroke-miterlimit:2"
   id="svg2"
   xmlns="http://www.w3.org/2000/svg"
   xmlns:svg="http://www.w3.org/2000/svg"><defs
   id="defs2" />
    <g
   transform="matrix(3.95941,0,0,3.98627,-398.94166,-402.73555)"
   id="g2">
        <path
   d="m 127.95831,145.95023 c 10.07411,0 18.18464,-8.11053 18.18464,-17.92846 0,-9.81794 -8.11053,-17.92826 -18.18464,-17.92826 -10.0739,0 -18.18443,8.11032 -18.18443,17.92826 0,9.81793 8.11053,17.92846 18.18443,17.92846 z"
   style="fill:#ef4800;fill-rule:nonzero;stroke-width:0.210324"
   id="path1" />
        <path
   d="m 143.19883,147.0212 c 0.97758,0.92606 0.91806,2.50833 -0.20318,3.25435 -10.54671,7.01726 -24.86769,5.98835 -34.23406,-3.29789 -10.671645,-10.58625 -10.671645,-27.49022 0,-38.07648 9.31779,-9.317573 23.77443,-10.322082 34.33986,-3.22658 1.07139,0.71973 1.14837,2.22944 0.23577,3.14224 -0.77883,0.77862 -2.01154,0.84088 -2.93192,0.2362 -8.78504,-5.76878 -20.75417,-4.72347 -28.39946,2.92182 -9.04941,8.79324 -9.04941,23.13589 -0.17057,31.92933 7.64655,7.64655 19.61863,8.69102 28.40387,2.91867 0.92396,-0.6072 2.15709,-0.56198 2.95969,0.19834 z m 3.93895,-3.84978 c 0.92669,0.97822 2.50938,0.92375 3.26108,-0.19455 6.11686,-9.09968 6.09099,-21.11319 -0.0778,-30.18826 -0.72289,-1.06319 -2.22523,-1.13428 -3.13446,-0.22505 -0.78325,0.78304 -0.84172,2.02416 -0.22715,2.94559 4.96449,7.44443 4.95692,17.12692 -0.0225,24.69565 -0.60931,0.92606 -0.56156,2.16171 0.20086,2.96662 z"
   style="fill:#ef4800;fill-rule:nonzero;stroke-width:0.210324"
   id="path2" />
    </g>
</svg>
