<?xml version="1.0" encoding="UTF-8" standalone="no"?>
<svg
   width="143.99989"
   height="132.40666"
   viewBox="0 0 143.99989 132.40666"
   version="1.1"
   xml:space="preserve"
   style="clip-rule:evenodd;fill-rule:evenodd;stroke-linejoin:round;stroke-miterlimit:2"
   id="svg1"
   xmlns="http://www.w3.org/2000/svg"
   xmlns:svg="http://www.w3.org/2000/svg"><defs
   id="defs1" />
    <g
   transform="matrix(4.33898,0,0,4.33898,-474.71153,-517.38948)"
   id="g1">
        <path
   d="m 129.36895,135.64159 v -0.004 c -0.18914,0.0131 -1.1655,0.0702 -3.33815,0.0702 -1.73728,0 -2.95552,-0.0482 -3.38653,-0.0702 v 0.004 c -6.68054,-0.29418 -11.66344,-1.45336 -11.66344,-2.84526 0,-1.38741 4.98726,-2.55094 11.66344,-2.84513 v 4.53558 c 0.43551,0.0308 1.6889,0.10547 3.41732,0.10547 2.07591,0 3.11372,-0.0879 3.30736,-0.10547 v -4.53122 c 6.66732,0.29855 11.63714,1.45772 11.63714,2.84527 0,1.3874 -4.97418,2.54658 -11.63714,2.84512 m 0,-6.16022 v -4.05703 h 9.30178 v -6.18651 h -25.32375 v 6.18651 h 9.30179 v 4.05703 c -7.56029,0.34693 -13.24252,1.8398 -13.24252,3.63122 0,1.79142 5.68659,3.2843 13.24252,3.63544 v 13.00542 h 6.72454 v -13.00542 c 7.54692,-0.34678 13.22044,-1.83966 13.22044,-3.63108 0,-1.78706 -5.67352,-3.28429 -13.22044,-3.63122"
   style="fill:#26a17b;fill-rule:nonzero;stroke-width:0.140625"
   id="path1" />
    </g>
</svg>
