<?xml version="1.0" encoding="UTF-8" standalone="no"?>
<svg
   width="144"
   height="281.51654"
   viewBox="0 0 144 281.51654"
   version="1.1"
   xml:space="preserve"
   style="clip-rule:evenodd;fill-rule:evenodd;stroke-linejoin:round;stroke-miterlimit:2"
   id="svg1"
   xmlns="http://www.w3.org/2000/svg"
   xmlns:svg="http://www.w3.org/2000/svg"><defs
   id="defs1" />
    <g
   transform="matrix(3.12899,0,0,3.12899,-724.32483,-883.92494)"
   id="g1">
        <path
   d="m 256.01435,372.46571 h -8.28877 V 361.9501 h -16.2372 v -67.05244 h 16.2372 v -12.40237 h 8.28877 v 12.58794 c 4.4949,0.0825 8.26815,0.78351 11.31974,2.10312 h -0.0308 c 2.37117,0.9897 4.27828,2.79371 5.72159,5.41231 0.63919,1.21651 1.12387,2.43824 1.45377,3.66492 0.3299,1.22696 0.49485,2.48993 0.49485,3.78892 0,5.67018 -2.20621,10.29897 -6.61864,13.88665 -0.53609,0.45361 -1.07741,0.87121 -1.62367,1.25252 -0.54654,0.38159 -1.17032,0.78874 -1.87136,1.22174 2.00002,0.72166 3.83015,1.67535 5.48983,2.86079 1.65995,1.18572 3.10822,2.58258 4.34535,4.19085 1.87631,2.47426 2.81461,5.67018 2.81461,9.58775 0,3.40211 -0.86599,6.55679 -2.59798,9.46405 -1.69074,2.86602 -4.04129,5.11347 -7.05164,6.74236 -3.03097,1.67012 -6.97961,2.56718 -11.84565,2.69089 z m 0,-50.19669 c 0.47423,-0.12371 0.97431,-0.29883 1.50022,-0.52564 0.52565,-0.22681 1.07713,-0.49485 1.65446,-0.80414 0.6598,-0.35052 1.29898,-0.86599 1.91755,-1.54641 0.61856,-0.68042 1.17527,-1.51562 1.67012,-2.50532 0.49486,-1.01033 0.87122,-1.96896 1.12909,-2.87619 0.2576,-0.90723 0.38654,-1.78367 0.38654,-2.62904 0,-2.0825 -0.85582,-3.84528 -2.56719,-5.2886 -0.9897,-0.96908 -2.88663,-1.65995 -5.69079,-2.07233 z m -8.28877,-18.43323 h -5.44338 v 19.14472 h 5.44338 z m 8.28877,49.23777 c 0.72166,-0.0412 1.41775,-0.11849 2.08772,-0.23203 0.67025,-0.11327 1.335,-0.273 1.99481,-0.47919 0.72165,-0.2268 1.38146,-0.51052 1.9794,-0.85059 0.59795,-0.34035 1.14449,-0.73706 1.63934,-1.19067 h -0.0311 c 1.8557,-1.79384 2.78354,-4.00005 2.78354,-6.61864 0,-2.00003 -0.57732,-3.90741 -1.73198,-5.72187 h 0.0311 c -1.05156,-1.60827 -2.74231,-2.96911 -5.07223,-4.08253 -1.25775,-0.61856 -2.48471,-1.10297 -3.6806,-1.45349 z M 242.2822,331.79492 v 21.3097 h 5.44338 v -21.3097 z"
   style="fill:#003f20;fill-rule:nonzero;stroke-width:0.274918"
   id="path1" />
    </g>
</svg>
