<?xml version="1.0" encoding="UTF-8" standalone="no"?>
<svg
   width="144"
   height="144"
   viewBox="0 0 144 144"
   version="1.1"
   xml:space="preserve"
   style="clip-rule:evenodd;fill-rule:evenodd;stroke-linejoin:round;stroke-miterlimit:2"
   id="svg4"
   xmlns="http://www.w3.org/2000/svg"
   xmlns:svg="http://www.w3.org/2000/svg"><defs
   id="defs4" />
    <g
   transform="matrix(4,0,0,4,72,72)"
   id="g4">
        <g
   transform="translate(-128,-128)"
   id="g3">
            <g
   transform="scale(0.128)"
   id="g1">
                <path
   d="m 1080.7736,1094.6941 c 3.0094,3.0093 4.5183,7.2126 4.1119,11.4482 -0.405,4.2357 -2.6874,8.0747 -6.2128,10.4555 -22.4789,15.1538 -49.5479,24.0272 -78.6727,24.0272 -29.12527,0 -56.19431,-8.8734 -78.64847,-24.0623 -3.51576,-2.3738 -5.79037,-6.2016 -6.19523,-10.4246 -0.40528,-4.2229 1.09997,-8.4136 4.10006,-11.4131 -0.0292,-0.031 -0.0287,-0.031 -0.0283,-0.032 6.29761,-6.2972 16.09918,-7.4363 23.6731,-2.7507 16.56281,10.3711 36.13936,16.3393 57.09881,16.3393 20.96023,0 40.53663,-5.9682 57.12473,-16.2985 7.5544,-4.673 17.3306,-3.5367 23.6123,2.745 0.035,-0.034 0.035,-0.034 0.037,-0.034 z m 13.9205,-175.46755 c 3.0093,-3.00896 7.2126,-4.51871 11.4482,-4.11244 4.2357,0.40598 8.0747,2.68734 10.4555,6.21366 15.1538,22.47792 24.0272,49.54696 24.0272,78.67223 0,29.1248 -8.8734,56.1938 -24.0623,78.6488 -2.3738,3.5156 -6.2016,5.7895 -10.4246,6.1945 -4.2229,0.4064 -8.4136,-1.0997 -11.4131,-4.0992 -0.031,0.028 -0.031,0.028 -0.032,0.028 -6.2972,-6.2972 -7.4363,-16.1002 -2.7507,-23.6728 10.3711,-16.5628 16.3393,-36.1392 16.3393,-57.0994 0,-20.95945 -5.9682,-40.536 -16.2985,-57.12455 -4.673,-7.55465 -3.5367,-17.33104 2.745,-23.6122 -0.034,-0.0356 -0.034,-0.0361 -0.034,-0.0367 z m -211.25746,2.12498 c 2.64178,-3.91078 7.06416,-6.2602 11.78367,-6.2602 3.77002,0 7.38942,1.4992 10.05525,4.16503 0.0304,-0.0292 0.0309,-0.0287 0.0315,-0.0283 6.29705,6.29761 7.43625,16.09918 2.75133,23.6731 -10.3718,16.56281 -16.33964,36.13936 -16.33964,57.09881 0,20.96023 5.96784,40.53663 16.29816,57.12473 4.67282,7.5544 3.53629,17.3306 -2.745,23.6123 0.0346,0.035 0.034,0.035 0.0335,0.037 -3.00882,3.0094 -7.21154,4.5183 -11.44716,4.1119 -4.23563,-0.4064 -8.07483,-2.6874 -10.45674,-6.2128 C 868.24844,1056.1938 859.375,1029.1248 859.375,1000 c 0,-29.12527 8.87344,-56.19431 24.06164,-78.64847 z M 1000,911.40625 c 48.8967,0 88.5938,39.69759 88.5938,88.59375 0,48.8967 -39.6971,88.5938 -88.5938,88.5938 -48.89616,0 -88.59375,-39.6971 -88.59375,-88.5938 0,-48.89616 39.69759,-88.59375 88.59375,-88.59375 z m -80.77345,-6.10087 c -2.67385,-2.67371 -4.17769,-6.30394 -4.17769,-10.08535 0,-4.73344 2.35645,-9.16889 6.27891,-11.81855 C 943.80569,868.24844 970.87473,859.375 1000,859.375 c 29.1248,0 56.1938,8.87344 78.6488,24.06164 3.5156,2.37502 5.7895,6.20269 6.1945,10.42566 0.405,4.22297 -1.0997,8.41331 -4.0992,11.41326 0.028,0.0304 0.028,0.0309 0.028,0.0315 -6.2972,6.29705 -16.1002,7.43625 -23.6728,2.75133 -16.5628,-10.3718 -36.1392,-16.33964 -57.0994,-16.33964 -20.95945,0 -40.536,5.96784 -57.12455,16.29816 -7.55465,4.67282 -17.33104,3.53629 -23.6122,-2.745 -0.0356,0.0346 -0.0361,0.034 -0.0367,0.0335 z"
   style="fill:#208e7a;stroke-width:0.140625"
   id="path1" />
            </g>
            <g
   transform="matrix(0.49705,0,0,0.49705,-374.924,-322.765)"
   id="g2">
                <path
   d="m 1019.6973,905.89726 c 0.3051,-0.36647 0.5723,-0.77386 0.8001,-1.22231 0.4978,-0.98044 0.7453,-2.01249 0.7453,-3.09558 v -1.97873 c 0,-2.07788 -0.8114,-3.74625 -2.4286,-5.0078 -1.4695,-1.14539 -3.3792,-1.76245 -5.7473,-1.80141 v -3.08503 c 0,-0.56165 -0.4627,-1.02375 -1.0238,-1.02389 h -2.6887 c -0.5617,0 -1.0239,0.46224 -1.0239,1.02389 v 3.08306 h -4.0157 c -1.9682,0 -3.5636,1.59554 -3.5636,3.56358 v 21.16899 c 0,1.0229 0.3371,1.84401 0.9719,2.47879 0.6349,0.63563 1.456,0.97172 2.4789,0.97172 h 4.1285 v 3.08391 c 0,0.56531 0.4584,1.02375 1.0239,1.02375 h 2.6887 c 0.5611,0 1.0238,-0.46266 1.0238,-1.02375 v -3.08391 h 1.5891 c 2.5171,0 4.5,-0.72984 5.9709,-2.13018 1.492,-1.42032 2.2598,-3.29836 2.2598,-5.6513 v -1.79213 c 0,-1.4864 -0.4443,-2.78522 -1.3218,-3.90009 -0.5203,-0.66192 -1.1419,-1.19644 -1.8675,-1.60158 z m -1.6214,5.50167 v 1.79213 c 0,0.97734 -0.3066,1.76934 -0.9549,2.36137 -0.689,0.62818 -1.6411,0.9083 -2.8378,0.9083 h -8.7213 v -7.51022 h 9.468 c 0.9422,0 1.71,0.21825 2.2866,0.70833 0.5133,0.43692 0.7594,1.02037 0.7594,1.74009 z m -12.514,-6.81117 v -7.2862 h 7.2644 c 1.1236,0 2.0447,0.22528 2.7492,0.72576 0.564,0.39994 0.8565,0.92011 0.8565,1.57332 v 1.97873 c 0,0.91983 -0.2419,1.66584 -0.7763,2.21949 -0.5217,0.54028 -1.222,0.7889 -2.0827,0.7889 z"
   style="fill:#ffffff;fill-rule:nonzero;stroke-width:0.140625"
   id="path2" />
            </g>
        </g>
    </g>
</svg>
