<?xml version="1.0" encoding="UTF-8" standalone="no"?>
<svg
   width="144"
   height="59.340656"
   viewBox="0 0 144 59.340656"
   version="1.1"
   xml:space="preserve"
   style="clip-rule:evenodd;fill-rule:evenodd;stroke-linejoin:round;stroke-miterlimit:2"
   id="svg3"
   xmlns="http://www.w3.org/2000/svg"
   xmlns:svg="http://www.w3.org/2000/svg"><defs
   id="defs3" />
    <g
   transform="matrix(4,0,0,4,71.984,29.172676)"
   id="g3">
        <g
   transform="translate(-128,-53)"
   id="g2">
            <clipPath
   id="_clip1">
                <rect
   x="0"
   y="0"
   width="256"
   height="106"
   id="rect1" />
            </clipPath>
            <g
   clip-path="url(#_clip1)"
   id="g1">
                <path
   d="m 119.17823,49.033456 h 2.71097 c 0.12685,0 0.22922,0.102094 0.22922,0.228516 v 7.442296 c 0,0.126563 -0.10237,0.228516 -0.22922,0.228516 h -2.71097 c -0.12684,0 -0.22921,-0.102094 -0.22921,-0.228516 v -7.442296 c 0,-0.126422 0.10237,-0.228516 0.22921,-0.228516 z m 9.97074,-0.132047 c 1.33791,0 2.35955,0.3465 3.06394,1.039781 0.68695,0.675563 1.02993,1.641516 1.02993,2.896172 v 3.865781 c 0,0.126563 -0.10237,0.228516 -0.22921,0.228516 h -2.71083 c -0.12685,0 -0.22922,-0.102094 -0.22922,-0.228516 v -3.813328 c 0,-0.904218 -0.66024,-1.355906 -1.98056,-1.355906 -1.32033,0 -1.98043,0.452531 -1.98043,1.355906 v 3.813328 c 0,0.126563 -0.10251,0.228516 -0.22921,0.228516 h -2.71097 c -0.12685,0 -0.22922,-0.102094 -0.22922,-0.228516 v -7.442156 c 0,-0.126562 0.10237,-0.228656 0.22922,-0.228656 h 2.71097 c 0.1267,0 0.22921,0.102094 0.22921,0.228656 v 0.653485 c 0.70369,-0.675 1.71605,-1.013063 3.03638,-1.013063 z m 16.85503,0.232313 c -4.2e-4,-0.12375 -0.10097,-0.226125 -0.22472,-0.228516 -0.51272,-0.01378 -1.67864,0.08761 -2.4442,0.606375 -0.18422,0.124875 -0.36225,0.252141 -0.52045,0.403594 v 0.0015 c -0.9038,-0.676407 -2.19432,-1.015313 -3.87605,-1.015313 -1.72533,0 -3.0465,0.360281 -3.96183,1.079297 -0.88017,0.702422 -1.32033,1.702547 -1.32033,3.002062 0,1.298813 0.44016,2.299782 1.32033,3.002063 0.58838,0.462375 1.3448,0.775406 2.26786,0.940781 v 7.03e-4 c 0.53634,0.09984 1.16212,0.150891 1.91095,0.143297 0.2115,-0.0065 0.42272,-0.01884 0.63338,-0.03741 0.16579,-0.01252 0.33103,-0.02981 0.49584,-0.05175 0.0987,-0.01195 0.1973,-0.02517 0.29574,-0.03966 0.22289,-0.03347 0.43382,0.122203 0.46757,0.345093 0.0326,0.222891 -0.12389,0.433266 -0.34678,0.466172 -0.59836,0.08845 -1.25015,0.14175 -1.74445,0.14175 -0.58753,0 -1.13625,-0.03966 -1.64503,-0.118828 -0.33413,-0.05091 -0.6646,-0.123469 -0.98944,-0.217125 -0.117,-0.03361 -0.24159,0.0315 -0.28055,0.146953 l -0.66923,2.001938 c -0.038,0.114469 0.0207,0.240469 0.13289,0.284906 0.855,0.343547 1.81617,0.469125 2.73164,0.519469 1.2607,0.06933 2.61928,0.03966 3.84708,-0.272672 0.30108,-0.07622 0.60131,-0.176766 0.87412,-0.321469 0.18029,-0.0952 0.34918,-0.210234 0.49824,-0.349734 0.34144,-0.319922 0.56236,-0.754875 0.66769,-1.21036 0.21698,-0.933187 0.0917,-2.079562 -0.81605,-2.599031 -0.0312,-0.01758 -0.0648,-0.03516 -0.0993,-0.05175 0.67317,-0.6795 1.01011,-1.587656 1.01011,-2.723344 0,-0.505828 -0.0679,-0.965812 -0.20096,-1.380937 0.22697,-0.0443 0.48516,-0.06792 0.77639,-0.06792 0.35593,0 0.6639,0.03277 0.92377,0.09914 0.0181,0.0046 0.0368,0.0069 0.0557,0.0069 0.12529,0 0.22851,-0.103218 0.22851,-0.228515 0,0 0,-1.41e-4 0,-1.41e-4 z m -7.06542,2.401031 c 1.40808,0 2.11261,0.482906 2.11261,1.448015 0,0.965954 -0.70453,1.448157 -2.11261,1.448157 -1.40906,0 -2.11275,-0.483047 -2.11275,-1.448157 0,-0.965109 0.70369,-1.448015 2.11275,-1.448015 z M 118.12453,51.305534 V 49.26169 c 0,-0.126422 -0.10223,-0.228515 -0.22922,-0.228515 h -2.93934 v -3.096563 c 0,-0.156094 -0.15356,-0.265781 -0.30178,-0.216984 l -2.71097,0.902672 c -0.0932,0.03094 -0.15666,0.118687 -0.15666,0.216984 v 2.194594 h -1.55334 c -0.12684,0 -0.22922,0.102094 -0.22922,0.228515 v 2.043141 c 0,0.126422 0.10238,0.228516 0.22922,0.228516 h 1.55334 v 2.508328 c 0,1.096875 0.36521,1.882969 1.09575,2.356875 0.69525,0.447187 1.82686,0.671062 3.39399,0.671062 0.58922,0 1.14229,-0.0457 1.66106,-0.136406 0.108,-0.01969 0.18731,-0.11475 0.18731,-0.224578 v -2.163375 c 0,-0.143156 -0.13078,-0.250594 -0.27211,-0.224016 -0.41709,0.07777 -0.8107,0.115875 -1.1804,0.115875 -0.58993,0 -1.0125,-0.05344 -1.2676,-0.158484 -0.29953,-0.113484 -0.44859,-0.324563 -0.44859,-0.631406 v -2.114016 h 2.93934 c 0.12699,0 0.22922,-0.102094 0.22922,-0.228516 z m 3.76467,-3.093328 h -2.71097 c -0.12684,0 -0.22921,-0.102094 -0.22921,-0.228516 v -2.048343 c 0,-0.126563 0.10237,-0.228516 0.22921,-0.228516 h 2.71097 c 0.12685,0 0.22922,0.102094 0.22922,0.228516 v 2.048343 c 0,0.125719 -0.10308,0.228516 -0.22922,0.228516 z"
   style="fill:#ff9920;fill-rule:nonzero;stroke-width:0.140625"
   id="path1" />
            </g>
        </g>
    </g>
</svg>
