<?xml version="1.0" encoding="UTF-8" standalone="no"?>
<svg
   width="143.99997"
   height="191.7184"
   viewBox="0 0 143.99997 191.7184"
   version="1.1"
   xml:space="preserve"
   style="clip-rule:evenodd;fill-rule:evenodd;stroke-linejoin:round;stroke-miterlimit:2"
   id="svg1"
   xmlns="http://www.w3.org/2000/svg"
   xmlns:svg="http://www.w3.org/2000/svg"><defs
   id="defs1" />
    <g
   transform="matrix(4.02784,0,0,4.02784,-312.18948,-419.66606)"
   id="g1">
        <path
   d="m 77.507915,115.1097 c 0,-1.71665 1.394874,-3.11059 3.113589,-3.11059 h 14.76209 l 7.643226,-7.29221 c 0.7204,-0.68741 1.86902,-0.68741 2.58941,0 l 7.64285,7.2924 v 28.69958 c 0,1.81186 -1.47208,3.28263 -3.28581,3.28263 H 95.383219 l -7.642853,7.29259 c -0.720395,0.68741 -1.869203,0.68741 -2.589598,0 l -7.642853,-7.29277 z m 22.971105,11.19554 c -0.34446,0.34389 -0.910991,0.34389 -1.255446,0 l -5.63e-4,-5.6e-4 -2.457849,-2.45486 c -0.762561,-0.76218 -2.001512,-0.76218 -2.764074,0 l -2.457662,2.45542 c -0.34483,0.3437 -0.9108,0.3437 -1.25563,0 l -5.62e-4,-5.6e-4 -2.459349,-2.45692 c -0.763124,-0.76237 -2.001512,-0.76237 -2.764636,0 l -2.764635,2.76183 c -0.762562,0.76218 -0.762562,1.99945 0,2.76182 l 2.764635,2.76126 c 0.763124,0.76238 2.001512,0.76238 2.764636,0 l 2.459911,-2.45747 c 0.34333,-0.34258 0.907802,-0.34239 1.250758,5.6e-4 h 0.0011 l 2.46141,2.45916 c 0.762562,0.76219 2.001513,0.76219 2.764074,0 l 2.461598,-2.45916 c 0.343892,-0.34314 0.908934,-0.34314 1.252824,0 l 2.45954,2.45691 c 0.76293,0.76238 2.00151,0.76238 2.76444,0 l 2.76464,-2.76126 c 0.76256,-0.76237 0.76256,-1.99964 0,-2.76182 l -2.76464,-2.76183 c -0.76293,-0.76237 -2.00151,-0.76237 -2.76444,0 z"
   style="fill:#f1a200;stroke-width:0.187408"
   id="path1" />
    </g>
</svg>
