<?xml version="1.0" encoding="UTF-8" standalone="no"?>
<svg
   width="144.00008"
   height="221.5807"
   viewBox="0 0 144.00008 221.5807"
   version="1.1"
   xml:space="preserve"
   style="clip-rule:evenodd;fill-rule:evenodd;stroke-linejoin:round;stroke-miterlimit:2"
   id="svg1"
   xmlns="http://www.w3.org/2000/svg"
   xmlns:svg="http://www.w3.org/2000/svg"><defs
   id="defs1" />
    <g
   transform="matrix(4.36557,0,0,4.36557,-1344.992,-1791.9935)"
   id="g1">
        <path
   d="m 323.12278,456.09705 c -4.34116,-0.16229 -7.74428,-1.18169 -10.20893,-3.0582 -2.46486,-1.87629 -4.07262,-4.69106 -4.82305,-8.44407 l 6.9378,-1.33879 c 0.42607,2.33287 1.28815,4.05726 2.58648,5.17295 1.29832,1.11569 3.13436,1.77502 5.5077,1.97778 v -12.96289 c -0.91272,-0.22309 -1.87651,-0.48168 -2.89072,-0.77596 -1.01442,-0.29407 -1.97799,-0.60848 -2.89071,-0.94323 -0.91294,-0.33476 -1.66359,-0.67448 -2.25194,-1.0194 -1.80532,-1.03455 -3.15947,-2.31275 -4.06224,-3.83417 -0.90277,-1.52142 -1.35415,-3.40809 -1.35415,-5.65982 0,-3.30661 1.15118,-5.86777 3.45376,-7.68347 2.30257,-1.81571 5.6345,-2.81477 9.996,-2.99718 v -4.04731 h 3.46912 v 4.04731 c 2.5155,0.12161 4.65557,0.51716 6.42042,1.18667 1.76507,0.6695 3.22049,1.73953 4.36669,3.21032 1.1462,1.47078 2.03382,3.45375 2.66264,5.94891 l -7.12043,1.12586 c -0.34492,-1.80553 -1.01442,-3.20512 -2.00851,-4.19921 -0.99386,-0.99408 -2.43435,-1.60256 -4.32081,-1.82587 v 11.65461 c 0.91272,0.18263 1.89663,0.4159 2.95152,0.6998 1.05488,0.28411 2.21126,0.64916 3.4689,1.09556 2.75893,0.99387 4.79276,2.37853 6.10125,4.15355 1.30849,1.77503 1.96263,4.02177 1.96263,6.74003 0,3.57039 -1.23232,6.36481 -3.69719,8.38349 -2.46465,2.01845 -6.06057,3.12917 -10.78711,3.33192 v 5.20347 h -3.46912 z m -6.39013,-31.00763 c 0,1.01443 0.1928,1.84622 0.57819,2.49538 0.42606,0.77077 1.07003,1.37947 1.93233,1.82566 0.86209,0.44641 2.15544,0.93328 3.87961,1.46061 v -11.0154 c -4.26001,0.2839 -6.39013,2.02863 -6.39013,5.23375 z m 17.31443,19.35324 c 0,-1.1157 -0.20795,-2.02863 -0.62384,-2.7386 -0.4159,-0.71018 -1.0194,-1.29832 -1.81051,-1.76507 -0.81145,-0.44619 -2.48521,-1.02438 -5.02083,-1.73434 v 12.20207 c 2.45448,-0.16229 4.31064,-0.74546 5.5685,-1.74971 1.25765,-1.00404 1.88668,-2.40882 1.88668,-4.21435 z"
   style="fill:#003f20;fill-rule:nonzero;stroke-width:0.216387"
   id="path1" />
    </g>
</svg>
