<?xml version="1.0" encoding="UTF-8" standalone="no"?>
<svg
   width="143.99858"
   height="190.58919"
   viewBox="0 0 143.99858 190.58919"
   version="1.1"
   xml:space="preserve"
   style="clip-rule:evenodd;fill-rule:evenodd;stroke-linejoin:round;stroke-miterlimit:2"
   id="svg1"
   xmlns="http://www.w3.org/2000/svg"
   xmlns:svg="http://www.w3.org/2000/svg"><defs
   id="defs1" />
    <g
   transform="matrix(4.06892,0,0,4.06892,-432.14282,-416.70567)"
   id="g1">
        <path
   d="m 141.50314,121.2426 c 0.73649,-4.92182 -3.01127,-7.56773 -8.13596,-9.33273 l 1.66226,-6.66727 -4.05877,-1.01139 -1.61834,6.49157 c -1.06703,-0.26597 -2.16292,-0.51667 -3.25192,-0.76515 l 1.63005,-6.53438 -4.05653,-1.01139 -1.66337,6.66504 c -0.88334,-0.20138 -1.7503,-0.40016 -2.59194,-0.60936 l 0.005,-0.0207 -5.59744,-1.39759 -1.07951,4.3346 c 0,0 3.01146,0.69014 2.94762,0.73276 1.64402,0.4104 1.94107,1.4981 1.89137,2.3604 l -1.89361,7.59547 c 0.11335,0.0289 0.2602,0.0704 0.42194,0.13512 -0.13531,-0.0335 -0.27974,-0.0705 -0.42882,-0.10627 l -2.65411,10.64005 c -0.20138,0.49918 -0.71098,1.24832 -1.8601,0.96392 0.0404,0.059 -2.95004,-0.7363 -2.95004,-0.7363 l -2.01514,4.64562 5.28177,1.31644 c 0.98273,0.24624 1.94572,0.50402 2.89365,0.74672 l -1.67976,6.7434 4.05412,1.01157 1.66356,-6.67192 c 1.07504,0.29146 2.15325,0.57121 3.23443,0.83922 l -1.6576,6.64066 4.05876,1.01139 1.67957,-6.73074 c 6.92114,1.30955 12.12549,0.78134 14.31615,-5.47777 1.76519,-5.03982 -0.0879,-7.94686 -3.72933,-9.84251 2.65187,-0.61142 4.64952,-2.35575 5.18239,-5.95852 z m -9.27354,13.0025 c -1.25428,5.03982 -9.74052,2.31536 -12.49178,1.6321 l 2.22881,-8.93386 c 2.75126,0.6866 11.57401,2.04604 10.26297,7.30176 z m 1.25539,-13.07546 c -1.14446,4.58437 -8.20762,2.25524 -10.49878,1.68422 l 2.02073,-8.10283 c 2.29116,0.57102 9.66998,1.63675 8.47805,6.41861 z"
   style="fill-rule:nonzero;stroke-width:0.186122"
   id="path1" />
    </g>
</svg>
