<?xml version="1.0" encoding="UTF-8" standalone="no"?>
<svg
   width="143.99924"
   height="143.99767"
   viewBox="0 0 143.99924 143.99767"
   version="1.1"
   xml:space="preserve"
   style="clip-rule:evenodd;fill-rule:evenodd;stroke-linejoin:round;stroke-miterlimit:2"
   id="svg5"
   xmlns="http://www.w3.org/2000/svg"
   xmlns:svg="http://www.w3.org/2000/svg"><defs
   id="defs5" />
    <g
   transform="matrix(4,0,0,4,72.002193,72.00204)"
   id="g5">
        <g
   transform="translate(-128,-128)"
   id="g4">
            <g
   id="g3">
                <clipPath
   id="_clip1">
                    <rect
   x="0"
   y="0"
   width="256"
   height="256"
   id="rect1" />
                </clipPath>
                <g
   clip-path="url(#_clip1)"
   id="g2">
                    <g
   id="g1">
                        <path
   d="m 145.75713,126.11396 c -0.0505,-0.74235 -0.39319,-1.43506 -0.95259,-1.9257 -0.5587,-0.49007 -1.2898,-0.73855 -2.03145,-0.69032 h -0.10926 c -0.70368,0.0804 -1.34915,0.43144 -1.799,0.97846 -0.45028,0.54773 -0.67092,1.24944 -0.61509,1.95636 v 0.11011 c 0.13205,0.97381 0.13205,1.96085 0,2.93467 v 0.11011 c -0.16509,1.09827 -0.46335,2.17235 -0.88832,3.19834 -0.8443,2.00164 -2.1978,3.74776 -3.92579,5.06442 -1.72671,1.31554 -3.76843,2.1559 -5.92096,2.43673 -2.15182,0.2804 -4.34006,-0.009 -6.34536,-0.83784 -2.00683,-0.82982 -3.76182,-2.17109 -5.08945,-3.88965 -1.32847,-1.71982 -2.18458,-3.7576 -2.48271,-5.91027 -0.29812,-2.15309 -0.0284,-4.3471 0.78229,-6.36392 0.80971,-2.01584 2.13298,-3.78503 3.8379,-5.13122 1.7038,-1.3452 3.73075,-2.22044 5.87821,-2.53825 1.45939,-0.1987 2.94115,-0.16144 4.38872,0.11011 0.86231,0.12557 1.64052,0.58851 2.16223,1.28656 0.52228,0.69848 0.747,1.57625 0.62465,2.43982 -0.18028,0.75684 -0.64715,1.41524 -1.30175,1.8357 -0.65404,0.4199 -1.44617,0.56981 -2.20835,0.41765 h -0.11039 c -0.24061,-0.0599 -0.48712,-0.0931 -0.73504,-0.0989 h -0.0986 c -0.40092,-0.0443 -0.80423,-0.0626 -1.20753,-0.0548 -1.20515,0.0693 -2.36726,0.47489 -3.35374,1.17069 -0.9876,0.69623 -1.76117,1.65486 -2.23296,2.76734 -0.47221,1.11331 -0.62437,2.3366 -0.43931,3.53162 0.18506,1.1946 0.70031,2.31396 1.48724,3.23153 0.78637,0.91701 1.8139,1.59594 2.96589,1.95959 1.15129,0.36309 2.3816,0.39642 3.55089,0.0961 1.16971,-0.30038 2.23212,-0.92249 3.06658,-1.79535 0.83544,-0.87355 1.41031,-1.96338 1.65964,-3.14617 l 0.15328,-0.94513 c 0.0458,-0.5227 0.065,-1.0475 0.0557,-1.57203 -0.002,-2.02906 0.7297,-3.99202 2.05831,-5.52553 1.32707,-1.53209 3.16502,-2.53333 5.172,-2.81739 h 0.16397 c 0.34551,-0.0458 0.69411,-0.0643 1.04258,-0.0553 h 0.26353 c -1.62266,-2.58256 -3.87278,-4.71286 -6.54027,-6.19166 -2.6658,-1.47754 -5.66319,-2.25547 -8.71107,-2.26095 -4.80665,0.0789 -9.39267,2.05381 -12.75273,5.49177 -3.36442,3.44177 -5.24062,8.07433 -5.21939,12.88718 0.10139,4.08146 1.58145,8.0109 4.19804,11.14498 2.61335,3.13113 6.21331,5.28478 10.20801,6.10672 3.99343,0.82096 8.14956,0.26198 11.78412,-1.58483 3.63737,-1.84892 6.54279,-4.87739 8.23956,-8.58816 l 0.0558,-0.0987 c 0.83981,-1.95087 1.3514,-4.02732 1.5141,-6.14497 -0.0329,-1.1541 -0.14344,-2.09923 -0.24215,-3.09949 z"
   style="fill:#ef4800;fill-rule:nonzero;stroke-width:0.140624"
   id="path1" />
                    </g>
                </g>
            </g>
        </g>
    </g>
</svg>
