<?xml version="1.0" encoding="UTF-8" standalone="no"?>
<svg
   width="144.00023"
   height="143.99873"
   viewBox="0 0 144.00023 143.99873"
   version="1.1"
   xml:space="preserve"
   style="clip-rule:evenodd;fill-rule:evenodd;stroke-linejoin:round;stroke-miterlimit:2"
   id="svg1"
   xmlns="http://www.w3.org/2000/svg"
   xmlns:svg="http://www.w3.org/2000/svg"><defs
   id="defs1" />
    <g
   transform="matrix(3.99999,0,0,3.99999,-439.99599,-439.99578)"
   id="g1">
        <path
   d="m 145.7573,126.11395 c -0.0505,-0.74236 -0.39319,-1.43508 -0.95259,-1.92572 -0.55871,-0.49008 -1.28982,-0.73857 -2.03147,-0.69033 h -0.10927 c -0.70369,0.0804 -1.34916,0.43144 -1.79901,0.97847 -0.45029,0.54773 -0.67093,1.24945 -0.6151,1.95637 v 0.11011 c 0.13205,0.97383 0.13205,1.96088 0,2.9347 v 0.11011 c -0.16509,1.09829 -0.46336,2.17238 -0.88833,3.19838 -0.84431,2.00166 -2.19782,3.7478 -3.92582,5.06447 -1.72674,1.31554 -3.76847,2.15592 -5.92102,2.43675 -2.15184,0.2804 -4.34011,-0.009 -6.34542,-0.83785 -2.00686,-0.82982 -3.76186,-2.17111 -5.0895,-3.88968 -1.32849,-1.71985 -2.18461,-3.75764 -2.48274,-5.91033 -0.29812,-2.15311 -0.0284,-4.34714 0.7823,-6.36399 0.80972,-2.01586 2.133,-3.78506 3.83794,-5.13126 1.70381,-1.34522 3.73078,-2.22047 5.87826,-2.53828 1.45941,-0.19871 2.94118,-0.16144 4.38877,0.11011 0.86231,0.12557 1.64053,0.58851 2.16225,1.28657 0.52228,0.69849 0.747,1.57627 0.62466,2.43985 -0.18029,0.75684 -0.64716,1.41525 -1.30177,1.83572 -0.65405,0.4199 -1.44619,0.56981 -2.20838,0.41765 h -0.11039 c -0.24061,-0.0599 -0.48712,-0.0931 -0.73504,-0.0989 h -0.0986 c -0.40092,-0.0443 -0.80424,-0.0626 -1.20755,-0.0548 -1.20515,0.0693 -2.36728,0.47489 -3.35376,1.1707 -0.98761,0.69624 -1.76119,1.65488 -2.23299,2.76736 -0.47222,1.11333 -0.62437,2.33663 -0.43931,3.53166 0.18506,1.19461 0.70031,2.31398 1.48725,3.23156 0.78637,0.91702 1.81392,1.59595 2.96592,1.95961 1.1513,0.36309 2.38163,0.39642 3.55092,0.096 1.16972,-0.30038 2.23214,-0.9225 3.06661,-1.79536 0.83546,-0.87356 1.41033,-1.96341 1.65966,-3.1462 l 0.15328,-0.94515 c 0.0458,-0.5227 0.065,-1.04751 0.0557,-1.57204 -0.002,-2.02908 0.7297,-3.99206 2.05833,-5.52558 1.32707,-1.53211 3.16504,-2.53336 5.17204,-2.81742 h 0.16397 c 0.34552,-0.0459 0.69413,-0.0643 1.0426,-0.0553 h 0.26353 c -1.62268,-2.58258 -3.87282,-4.7129 -6.54033,-6.19172 -2.66583,-1.47754 -5.66325,-2.25548 -8.71116,-2.26097 -4.8067,0.0789 -9.39276,2.05383 -12.75286,5.49183 -3.36445,3.4418 -5.24067,8.07441 -5.21943,12.8873 0.10139,4.0815 1.58146,8.01098 4.19807,11.14509 2.61338,3.13116 6.21338,5.28483 10.20811,6.10678 3.99347,0.82097 8.14964,0.26199 11.78424,-1.58484 3.6374,-1.84894 6.54286,-4.87744 8.23964,-8.58825 l 0.0558,-0.0987 c 0.83981,-1.95089 1.3514,-4.02736 1.51411,-6.14503 -0.0329,-1.15411 -0.14344,-2.09925 -0.24216,-3.09951 z"
   style="fill:#46b549;fill-rule:nonzero;stroke-width:0.140625"
   id="path1" />
    </g>
</svg>
