<svg width="48" height="48" fill="none" xmlns="http://www.w3.org/2000/svg"><path d="M43.66 22.707c.076-.114.148-.23.22-.347 1.337-2.183 1.994-4.718 1.994-7.279v-.135c0-2.756-.765-5.473-2.295-7.763A14.036 14.036 0 0 0 33.34 1h-13.54a1.93 1.93 0 0 0-1.374.571c-.352.354-.57.84-.57 1.379v6.206c0 .539.218 1.027.57 1.378.35.353.837.572 1.375.572H32a3.797 3.797 0 0 1 3.79 3.8v.202c0 2.1-1.696 3.8-3.79 3.8H12.024a1.947 1.947 0 0 1-1.944-1.95V2.95a1.94 1.94 0 0 0-.57-1.379A1.933 1.933 0 0 0 8.135 1h-6.19A1.948 1.948 0 0 0 0 2.95v42.1A1.95 1.95 0 0 0 1.944 47h6.19a1.947 1.947 0 0 0 1.944-1.95V31.041c0-1.076.87-1.95 1.944-1.95h19.88c.329 0 .65-.015.973-.035h1.257c2.09 0 3.79 1.7 3.79 3.8v.198c0 2.1-1.7 3.8-3.79 3.8H19.866c-.02-.003-.045-.003-.066-.003-.021 0-.046 0-.067.004-.51.015-.973.23-1.308.57-.352.352-.57.84-.57 1.38v6.245A1.95 1.95 0 0 0 19.8 47h15.222a13.996 13.996 0 0 0 9.875-5.128C46.942 39.37 48 36.202 48 32.967v-.027c0-3.153-1.003-6.244-2.955-8.716-.426-.54-.89-1.046-1.388-1.517h.004Z" fill="#000030"/></svg>