<svg width="48" height="48" fill="none" xmlns="http://www.w3.org/2000/svg"><g clip-path="url(#a)" fill="#46B549"><path d="M24.074 39.949c8.927 0 16.114-7.187 16.114-15.887S33 8.176 24.074 8.176c-8.926 0-16.113 7.187-16.113 15.886 0 8.7 7.187 15.887 16.113 15.887Z"/><path d="M37.572 40.897c.866.821.814 2.223-.18 2.884C28.047 50 15.357 49.087 7.057 40.86c-9.456-9.38-9.456-24.36 0-33.74 8.256-8.257 21.067-9.147 30.429-2.86.95.638 1.018 1.976.209 2.785-.69.69-1.782.745-2.598.21-7.785-5.113-18.39-4.186-25.165 2.588a19.776 19.776 0 0 0-.151 28.293c6.775 6.776 17.384 7.702 25.169 2.587.818-.538 1.911-.498 2.622.175Zm3.49-3.411c.822.867 2.224.819 2.89-.173 5.42-8.063 5.397-18.708-.069-26.75-.64-.942-1.972-1.005-2.777-.2-.694.695-.746 1.794-.202 2.611 4.4 6.596 4.393 15.176-.02 21.883-.54.82-.497 1.916.178 2.629Z"/></g><defs><clipPath id="a"><path fill="#fff" d="M0 0h48v48H0z"/></clipPath></defs></svg>