<svg width="48" height="48" fill="none" xmlns="http://www.w3.org/2000/svg"><g clip-path="url(#a)"><g clip-path="url(#b)" fill="#1066DF"><path d="M42.111 39.696a1.873 1.873 0 0 0-.578-.461 1.926 1.926 0 0 0-.71-.207 1.888 1.888 0 0 0-1.382.438l-.146.122-.106.087c-.55.447-1.122.865-1.715 1.252l-.078.051c-.131.085-.262.168-.394.248l-.09.055c-.03.017-.059.035-.087.053l-.051.031-.092.055c-.03.018-.058.035-.088.051-.35.204-.707.398-1.07.58l-.09.046-.125.063-.164.08-.012.007-.165.078-.125.058-.081.037-.13.058c-.056.025-.114.052-.172.076a12.48 12.48 0 0 1-.534.221c-.115.046-.232.092-.348.136h-.004a9.559 9.559 0 0 1-.348.127l-.023.01-.166.058c-.058.02-.116.038-.173.06l-.175.056-.05.016-.112.035-.094.03c-.095.03-.189.059-.284.087l-.064.02-.117.033-.134.037-.108.03-.07.02-.09.023c-.101.026-.204.053-.306.077l-.076.02-.11.026-.09.021-.023.006-.14.032a9.552 9.552 0 0 1-.255.054c-.082.018-.163.034-.242.05l-.198.037-.122.021-.11.02-.157.026-.154.025-.02.003-.186.029-.18.024-.04.006-.148.02H29c-.043.004-.083.01-.124.015l-.11.012a18.27 18.27 0 0 1-.326.036h-.027c-.035.007-.072.01-.108.014l-.093.009a2.316 2.316 0 0 1-.112.008l-.111.01a36.243 36.243 0 0 1-.638.04l-.111.003c-.028 0-.057.002-.085.004l-.108.004h-.11c-.036.001-.073.005-.11.005h-.04l-.183.002h-.401a20.265 20.265 0 0 1-6.148-1.032l-.214-.073-.104-.037-.105-.037a6.422 6.422 0 0 1-.17-.062l-.07-.026-.189-.07-.032-.013-.072-.028-.025-.011-.02-.007-.042-.016-.039-.016h-.008l-.018-.009-.08-.032-.102-.042a6.776 6.776 0 0 1-.17-.07h-.009l-.113-.05-.132-.058a20.332 20.332 0 0 1-8.768-7.398 20.328 20.328 0 0 1-3.341-11.12v-.299c0-.076.003-.152.005-.228v-.017a20.22 20.22 0 0 1 1.299-6.599l.084-.22c.025-.066.052-.132.078-.197l.055-.132c.03-.073.06-.145.092-.218.033-.08.069-.159.104-.238l.007-.016a.186.186 0 0 1 .009-.021l.074-.165s0-.003.002-.005l.069-.15c.007-.014.012-.03.02-.044l.01-.025a.912.912 0 0 1 .035-.072l.021-.046.022-.046.005-.01.014-.03.083-.169.014-.028c.037-.074.074-.149.112-.22l.08-.156.017-.032.001-.005s0-.004.002-.004l.048-.09.018-.032.035-.065c.01-.022.023-.043.034-.064l.007-.012.014-.025.06-.113a20.02 20.02 0 0 1 2.21-3.214c.014-.017.03-.035.042-.053A1.896 1.896 0 0 0 8.07 8.557a23.934 23.934 0 0 0-1.94 2.652l-.014.021c-.051.082-.1.163-.152.242l-.078.13a23.931 23.931 0 0 0-2.644 6.22l-.052.194-.014.055a8.521 8.521 0 0 0-.026.104l-.027.105a7.193 7.193 0 0 0-.05.208l-.003.018-.007.03v.007l-.032.13c-.003.013-.005.025-.009.036a23.984 23.984 0 0 0-.273 9.198l.012.072a23.915 23.915 0 0 0 3.32 8.756l.084.134.08.124c.026.042.053.083.08.123l.116.179.069.102.028.043.12.175a.434.434 0 0 1 .025.037c.004.007.009.012.012.02l.015.019c.038.058.08.116.12.173a16.19 16.19 0 0 0 .302.419l.125.17.06.08.101.133c.021.026.04.055.064.081.031.042.065.083.097.126.018.023.035.046.053.067.035.046.072.09.108.136l.067.083c.032.039.063.08.097.118l.069.081c.032.041.067.08.1.12l.073.085c.032.04.065.078.099.117.053.064.108.125.162.185l.174.195c.058.063.12.134.182.2.061.067.121.132.183.197a23.734 23.734 0 0 0 4.537 3.76l.037.023.128.08a23.96 23.96 0 0 0 7.77 3.16l.127.027.116.023c.083.015.165.033.248.049.04.009.083.016.123.023l.064.01.064.011.13.023.032.005.046.01.145.024.175.028.177.027.176.026c.058.01.119.016.177.025l.177.023.11.014.116.014.102.013.216.023.155.015.094.01.13.012a21.575 21.575 0 0 0 1.384.083h.058l.269.005h.689c.092 0 .182-.004.274-.005h.019a14.448 14.448 0 0 0 .422-.014l.143-.008a7.66 7.66 0 0 0 .262-.014c.129-.007.256-.016.385-.024a26.712 26.712 0 0 0 .853-.08l.156-.018a4.07 4.07 0 0 0 .155-.019l.06-.007c.05-.005.1-.012.147-.02.06-.007.122-.015.182-.024l.035-.006c.07-.01.138-.019.209-.031l.024-.004.135-.021.127-.021.076-.013h.012l.29-.05.018-.004.17-.032a23.868 23.868 0 0 0 7.978-3.044l.13-.08a23.079 23.079 0 0 0 .566-.358 24.282 24.282 0 0 0 2.344-1.744 1.898 1.898 0 0 0 .228-2.666h-.007Z"/><path d="M15.345 6.774c.334 0 .663-.088.95-.258a20.417 20.417 0 0 1 1.77-.913l.126-.057c.043-.02.085-.037.127-.057l.087-.037.168-.072.125-.053.256-.104.098-.04.16-.063.117-.044c.184-.069.367-.134.555-.198l.11-.037c.217-.072.437-.143.658-.208l.11-.032c.286-.083.572-.16.862-.23l.095-.023.112-.026.076-.018.08-.02.162-.035c.081-.017.162-.035.245-.051l.136-.027c.184-.035.368-.068.551-.1.089-.014.179-.03.267-.043l.274-.04.02-.004c.13-.017.261-.035.392-.051l.275-.032c.092-.01.184-.02.276-.026.092-.01.184-.016.277-.023.059-.004.117-.01.174-.013l.348-.02.173-.01c.035 0 .069-.003.104-.003l.095-.004.11-.003.11-.004.22-.003h.262a19.95 19.95 0 0 1 3.019.228l.115.017.193.032.037.007.031.005c.048.01.098.016.145.025l.048.009.064.012.063.013.12.023c.043.007.085.016.126.024l.033.007.288.062.089.02c.067.014.132.03.2.046.077.017.155.037.232.056l.218.055.078.021.083.021h.003l.157.043c.007 0 .014.003.021.005l.073.021.1.029.084.023.116.033.092.028.083.025.039.012h.004l.047.015.101.031.064.02.083.026.146.048.223.076c.327.115.65.237.971.367l.11.046c.08.034.16.066.239.101.272.117.533.253.784.41a5.693 5.693 0 0 1 2.2 7.053 5.683 5.683 0 0 1-7.464 2.984 8.897 8.897 0 0 0-3.395-.718h-.003a8.852 8.852 0 0 0-1.672.143l-.06.011-.076.014c-.037.007-.076.014-.113.023h-.007l-.12.029-.095.023-.057.014-.092.023-.086.023-.06.015a8.985 8.985 0 0 0-.364.11l-.145.048-.073.024c-.024.01-.047.016-.072.027l-.07.026c-.071.027-.144.053-.213.082a8.855 8.855 0 0 0-1.03.49c-.02.013-.044.026-.065.038l-.132.076a7.623 7.623 0 0 0-.359.226l-.073.048a.586.586 0 0 0-.04.028l-.052.035-.06.043a3.01 3.01 0 0 0-.12.086l-.122.09c-.019.014-.038.03-.06.045a8.688 8.688 0 0 0-1.353 1.295l-.032.037-.104.127-.034.042a4.66 4.66 0 0 0-.086.112l-.062.08a6.633 6.633 0 0 0-.164.224v.001c-.4.567-.73 1.179-.984 1.823 0 .004-.002.006-.004.01l-.032.079-.03.078-.023.061-.026.076-.032.092-.032.097a8.742 8.742 0 0 0-.267 4.529 8.716 8.716 0 0 0 1.26 3.072l.05.076a8.705 8.705 0 0 0 2.365 2.39l.09.06a8.763 8.763 0 0 0 3.901 1.426l.101.01.09.01.043.003a8.65 8.65 0 0 0 1.748-.023h.006a8.851 8.851 0 0 0 3.321-1.064 1.9 1.9 0 0 0 .898-1.137 1.885 1.885 0 0 0-.17-1.44 1.882 1.882 0 0 0-1.14-.898 1.884 1.884 0 0 0-1.44.17 5.059 5.059 0 0 1-3.031.604l-.055-.007c-.032-.003-.063-.009-.095-.012-.032-.006-.067-.01-.103-.016a3.47 3.47 0 0 1-.32-.065c-.019-.004-.037-.01-.054-.013l-.064-.016-.063-.016-.064-.017-.053-.016-.069-.021-.122-.04-.06-.02-.12-.045a5.356 5.356 0 0 1-.178-.072l-.046-.02-.048-.02-.048-.024-.074-.035a5.095 5.095 0 0 1-1.954-1.686 1.042 1.042 0 0 1-.04-.06c-.015-.02-.025-.037-.036-.054a5.103 5.103 0 0 1-.813-2.661v-.166c0-.025 0-.053.002-.081l.004-.082c0-.02 0-.039.003-.058l.004-.058c.003-.048.007-.096.012-.142a.764.764 0 0 1 .007-.062l.014-.113c.004-.028.007-.056.013-.084l.01-.064.021-.117.022-.11.026-.123.02-.081.015-.064.038-.132a5.005 5.005 0 0 1 .663-1.389c.013-.023.031-.044.045-.065l.074-.103.04-.053a1.83 1.83 0 0 1 .097-.124l.054-.066.057-.066c.031-.039.067-.076.102-.113l.007-.007a3.838 3.838 0 0 1 .214-.216l.025-.023c.192-.181.4-.348.62-.498l.125-.083.067-.042c.025-.016.05-.032.075-.046.024-.014.049-.03.076-.044a5.23 5.23 0 0 1 .83-.38l.124-.043.083-.026.083-.025.084-.023.082-.02c.06-.015.12-.03.18-.041l.078-.016.058-.011.06-.01c.039-.008.076-.013.115-.018h.003c.24-.036.483-.053.725-.053h.083a5.102 5.102 0 0 1 1.908.41 9.484 9.484 0 0 0 11.167-2.832 9.498 9.498 0 0 0 2.04-5.823v-.018a9.467 9.467 0 0 0-5.741-8.74 7.23 7.23 0 0 0-.184-.078 13.208 13.208 0 0 0-.468-.19 12.432 12.432 0 0 0-.28-.11l-.154-.059-.154-.056-.136-.05-.122-.044-.19-.065c-.13-.044-.26-.088-.393-.13l-.09-.03-.108-.036-.163-.051-.11-.034-.096-.028-.138-.04-.278-.08a6.706 6.706 0 0 0-.19-.052l-.18-.047h-.008l-.038-.01a11.9 11.9 0 0 0-.312-.08l-.106-.024-.124-.03-.186-.043-.014-.003-.185-.041a30.145 30.145 0 0 0-.387-.081l-.113-.021L30.82.39a12.083 12.083 0 0 1-.109-.021L30.555.34l-.057-.01c-.123-.022-.247-.041-.37-.062-.131-.021-.26-.04-.391-.058L29.58.189l-.088-.01c-.01 0-.021-.004-.032-.004l-.053-.007-.053-.007-.102-.012-.071-.01-.136-.015-.042-.005c-.055-.006-.11-.013-.167-.018l-.153-.014-.053-.005-.152-.015-.18-.014a25.063 25.063 0 0 0-.818-.05h-.062l-.035-.001-.133-.005-.187-.006-.416-.007h-.406c-.058 0-.115 0-.173.002l-.166.004-.166.003-.24.009-.14.005-.064.004-.104.005-.136.007-.123.007h-.018a23.81 23.81 0 0 0-3.242.43l-.039.007c-.087.017-.173.037-.261.054l-.015.004-.116.025a23.815 23.815 0 0 0-6.586 2.523l-.186.106-.074.042-.032.02-.032.019a1.894 1.894 0 0 0-.805 2.13 1.89 1.89 0 0 0 1.822 1.366v.018Z"/><path d="m12.444 15.4-.016.027a16.325 16.325 0 0 0-1.926 4.587c-.001.009-.005.017-.007.026l-.026.111-.012.055c-.01.036-.016.071-.025.106a16.383 16.383 0 0 0-.248 6.06l.022.138a.562.562 0 0 1 .007.053l.01.06.016.097.004.018s0 .009.002.014a16.406 16.406 0 0 0 2.462 6.265l.032.05c.12.181.244.36.371.536l.145.198.01.014a16.404 16.404 0 0 0 10.764 6.433l.023.004.107.015h.016l.088.014h.02l.095.015c1.295.164 2.606.171 3.905.024l.083-.01a1.03 1.03 0 0 1 .08-.009l.11-.014.022-.004h.014l.025-.005.104-.014.037-.005.184-.027h.002a16.393 16.393 0 0 0 7.483-3.2 1.904 1.904 0 0 0 .689-2 1.908 1.908 0 0 0-1.594-1.392 1.881 1.881 0 0 0-1.405.387 12.625 12.625 0 0 1-4.51 2.203c-.02.006-.042.01-.063.015-.413.106-.832.189-1.254.252h-.018c-.05.01-.099.016-.148.023l-.055.007a12.76 12.76 0 0 1-1.634.106h-.004a12.63 12.63 0 0 1-3.45-.479l-.01-.003a15.228 15.228 0 0 1-.646-.203l-.196-.07-.085-.03-.024-.01c-.05-.017-.1-.037-.149-.056l-.042-.016-.074-.03-.02-.007h-.003a5.01 5.01 0 0 1-.149-.06l-.037-.016-.04-.018-.221-.095-.06-.027a12.7 12.7 0 0 1-5.26-4.441l-.032-.046-.054-.083-.048-.075a12.706 12.706 0 0 1-2.032-6.766v-.163c0-.065 0-.13.002-.196v-.016a12.63 12.63 0 0 1 .044-.814 12.596 12.596 0 0 1 .975-3.885c.23-.535.495-1.055.795-1.553.008-.012.014-.025.022-.035l.038-.066c.225-.36.467-.712.73-1.053a12.664 12.664 0 0 1 3.841-3.328 12.758 12.758 0 0 1 4.38-1.49c.597-.084 1.2-.127 1.803-.127h.004c.046 0 .092-.002.14-.005h.008c1.633.02 3.246.357 4.748.995.026.01.053.02.08.033h.003a1.894 1.894 0 1 0 1.495-3.482h-.004a16.329 16.329 0 0 0-8.844-1.16l-.066.01-.104.016-.02.003-.077.013a16.287 16.287 0 0 0-6.329 2.452l-.014.009c-.028.02-.058.037-.086.056l-.089.058-.058.041a16.258 16.258 0 0 0-4.457 4.497l-.075.11-.014.022-.076.118-.044.07-.046.073a.8.8 0 0 1-.026.041l-.032.05-.004.008.002-.003Z"/></g></g><defs><clipPath id="a"><path fill="#fff" d="M0 0h48v48H0z"/></clipPath><clipPath id="b"><path fill="#fff" transform="translate(-.938)" d="M0 0h48v48H0z"/></clipPath></defs></svg>