<svg width="48" height="48" fill="none" xmlns="http://www.w3.org/2000/svg"><path d="M23.925 16.204v-5.21L15.996 8.69v5.21l7.93 2.304Z" fill="#E1E1E1"/><path d="M23.926 16.204v-5.21l7.932-2.29V13.9l-7.932 2.304Z" fill="#C4C3C3"/><path d="M23.925 24.124v-5.21l-7.929-2.303v5.209l7.93 2.304Z" fill="#E1E1E1"/><path d="M23.926 24.123v-5.211l7.932-2.29v5.197l-7.932 2.304Z" fill="#C4C3C3"/><path d="M23.925 39.96v-5.21l-7.929-2.303v5.209l7.93 2.304Z" fill="#E1E1E1"/><path d="M23.926 39.96v-5.21l7.932-2.291v5.197l-7.932 2.304Z" fill="#C4C3C3"/><path d="M23.929 32.042v-5.21l-15.702-4.56v5.206l15.702 4.563Z" fill="#44B549"/><path d="M23.926 32.04v-5.21l15.71-4.537-.002 5.184-15.708 4.564Z" fill="#409244"/><path d="m13.438 44.947-5.211-1.652V6.418l5.21 1.515v37.014Z" fill="#44B549"/><path d="m34.422 7.933 5.218-1.515-.007 36.877-5.211 1.652V7.933Z" fill="#409244"/><path d="M23.925 47.878v-5.21l-7.929-2.303v5.209l7.93 2.304Z" fill="#E1E1E1"/><path d="M23.926 47.879v-5.211l7.932-2.291v5.197l-7.932 2.305Z" fill="#C4C3C3"/><path d="M23.926 8.39 8.223 3.815 23.926 0l15.712 3.814L23.926 8.39Z" fill="#E1E1E1"/></svg>