<svg width="48" height="48" fill="none" xmlns="http://www.w3.org/2000/svg"><g clip-path="url(#a)"><g clip-path="url(#b)" fill="#000"><path d="M7.168 37.744a.169.169 0 0 1-.083 0 .195.195 0 0 1-.138-.152c-.076-.483 2.022-4.925 2.987-6.651.484-.858 4.106-3.225 6.548-4.386.217-.103 1.629-.78 1.672-.703.043.077-1.274 1.102-1.343 1.16-2.147 1.722-5.987 6.224-7.991 8.786-1.277 1.632-1.51 1.918-1.652 1.946Z"/><path d="M29.15 13.989c3.376-.106 5.154.857 6.039 1.715a3.594 3.594 0 0 1 1.197 2.49c.023 1.278-1.36 1.661-2.188 1.893a5.469 5.469 0 0 0-.357.103c.57.228 1.881.637 3.06 1.003 4.905 1.527 6.981 2.287 7.157 2.948a.432.432 0 0 1-.126.42c-.263.22-.761.183-1.592.043l-.12-.02c-8.521-1.355-14.348-1.258-14.408-1.258-15.634.238-23.626 11.556-26.254 15.276-.69.98-.965 1.368-1.218 1.375a.354.354 0 0 1-.204-.069.538.538 0 0 1-.19-.44c-.057-1.764 3.655-12.196 11.557-18.123 3.288-2.47 8.877-4.97 16.92-3.001a2.693 2.693 0 0 1-.724-1.816c-2.362.309-6.586-.028-9.593-.42-2.586-.346-6.955-1.05-7.236-2.044-.06-.218.029-.452.587-.778 2.513-1.475 6.12-1.795 6.12-1.795 10.167-.982 11.573 2.498 11.573 2.498Z"/><path d="M18.038 10.656S14.965 8.85 15.46 8.37c.496-.48 6.122 0 9.822 1.587 3.7 1.586 3.934 3.356 3.934 3.356-1.206-1.972-4.381-3.19-11.178-2.656ZM44.286 22.203c-.55.018-1.034.026-1.764.038a1.49 1.49 0 0 1-.524-.102l-4.701-1.492c-.138-.043-1.031-.331-.952-.449.079-.117.902-.111 1.045-.106h.318c5.77.17 9.162.57 10.126 1.192a.316.316 0 0 1 .149.366c-.052.21-.106.447-3.697.553ZM7.507 23.918a.777.777 0 0 1-.452-.048c-.238-.098-.35-.286-.572-.57-.57-.698-.801-1.487-.615-2.053a1.056 1.056 0 0 1 .781-.686c1.126-.286 2.394.152 2.864.686.38.418.206.555-.287.964-.287.24-.56.498-.816.772-.418.424-.57.773-.903.935Z"/></g></g><defs><clipPath id="a"><path fill="#fff" d="M0 0h48v48H0z"/></clipPath><clipPath id="b"><rect width="48" height="48" rx="12" fill="#fff"/></clipPath></defs></svg>