<svg width="48" height="48" fill="none" xmlns="http://www.w3.org/2000/svg"><g clip-path="url(#a)" fill-rule="evenodd" clip-rule="evenodd" fill="#959595"><path d="M24.062.729c12.876 0 23.33 10.454 23.33 23.33 0 12.878-10.454 23.332-23.33 23.332C11.185 47.39.73 36.937.73 24.06.73 11.183 11.185.729 24.062.729Zm0 7.03c8.996 0 16.3 7.304 16.3 16.3 0 8.997-7.304 16.301-16.3 16.301-8.997 0-16.3-7.304-16.3-16.3 0-8.997 7.303-16.3 16.3-16.3Z"/><path d="M46.877 6.214c.686-.685.686-1.8 0-2.485l-2.486-2.486a1.759 1.759 0 0 0-2.485 0l-7.52 7.519a1.758 1.758 0 0 0 0 2.485l2.486 2.486c.687.686 1.8.686 2.486 0l7.519-7.519ZM13.732 39.357c.686-.686.687-1.8 0-2.486l-2.485-2.486a1.759 1.759 0 0 0-2.486 0l-7.519 7.52a1.758 1.758 0 0 0 0 2.485l2.486 2.486c.686.686 1.8.686 2.486 0l7.518-7.519ZM6.214 1.242a1.759 1.759 0 0 0-2.485 0L1.243 3.728a1.759 1.759 0 0 0 0 2.486l7.519 7.518c.686.686 1.8.686 2.485 0l2.486-2.485c.686-.686.686-1.8 0-2.486L6.214 1.242Zm33.145 33.145a1.759 1.759 0 0 0-2.486 0l-2.486 2.485a1.759 1.759 0 0 0 0 2.486l7.52 7.519a1.758 1.758 0 0 0 2.485 0l2.486-2.486c.686-.686.686-1.8 0-2.485l-7.519-7.52Z"/></g><defs><clipPath id="a"><path fill="#fff" d="M0 0h48v48H0z"/></clipPath></defs></svg>