<svg width="48" height="48" fill="none" xmlns="http://www.w3.org/2000/svg"><g clip-path="url(#a)"><mask id="b" style="mask-type:luminance" maskUnits="userSpaceOnUse" x="-1" y="0" width="49" height="48"><path d="M47.85 0H-.005v47.828H47.85V0Z" fill="#fff"/></mask><g mask="url(#b)" fill="#281149"><path d="M35.867 48.045c6.604 0 11.957-5.354 11.957-11.957 0-6.604-5.353-11.957-11.957-11.957-6.604 0-11.957 5.353-11.957 11.957 0 6.603 5.353 11.957 11.957 11.957ZM11.953 24.13c6.604 0 11.957-5.353 11.957-11.956C23.91 5.57 18.557.217 11.953.217 5.349.217-.004 5.57-.004 12.174c0 6.603 5.353 11.957 11.957 11.957Zm-2.39 23.784a9.566 9.566 0 1 0-9.567-9.566 9.566 9.566 0 0 0 9.567 9.566ZM38.281.217c-5.248 0-9.566 4.318-9.566 9.566 0 5.248 4.318 9.567 9.566 9.567 5.248 0 9.567-4.319 9.567-9.567S43.529.217 38.28.217Zm-.042 14.347c-2.624 0-4.783-2.16-4.783-4.783 0-2.624 2.159-4.783 4.783-4.783 2.624 0 4.783 2.159 4.783 4.783v.002c0 2.623-2.158 4.781-4.78 4.781h-.003Z"/></g></g><defs><clipPath id="a"><path fill="#fff" d="M0 0h48v48H0z"/></clipPath></defs></svg>