<svg width="36" height="48" fill="none" xmlns="http://www.w3.org/2000/svg"><g clip-path="url(#a)"><path fill-rule="evenodd" clip-rule="evenodd" d="M0 11.11a3.115 3.115 0 0 1 3.115-3.112h14.77s5.168-4.93 7.646-7.296a1.877 1.877 0 0 1 2.591 0l7.647 7.296v28.714a3.287 3.287 0 0 1-3.288 3.284H17.884l-7.646 7.297a1.877 1.877 0 0 1-2.591 0L0 39.996V11.11Zm22.983 11.201a.89.89 0 0 1-1.257 0l-2.46-2.456a1.957 1.957 0 0 0-2.765 0l-2.459 2.456a.89.89 0 0 1-1.256 0l-2.461-2.458a1.958 1.958 0 0 0-2.766 0l-2.766 2.763c-.763.763-.763 2 0 2.763l2.766 2.763a1.958 1.958 0 0 0 2.766 0l2.461-2.459a.885.885 0 0 1 1.252 0l2.463 2.461a1.957 1.957 0 0 0 2.766 0l2.463-2.46a.887.887 0 0 1 1.253 0l2.46 2.458a1.958 1.958 0 0 0 2.767 0l2.766-2.763c.762-.763.762-2 0-2.763l-2.766-2.763a1.958 1.958 0 0 0-2.766 0l-2.461 2.458Z" fill="#F1A200"/></g><defs><clipPath id="a"><path fill="#fff" d="M0 0h35.769v48H0z"/></clipPath></defs></svg>