<svg viewBox="0 0 48 48" xmlns="http://www.w3.org/2000/svg" xml:space="preserve" style="fill-rule:evenodd;clip-rule:evenodd;stroke-linejoin:round;stroke-miterlimit:2"><path d="M34.202 16.245C36.519 11.372 41.49 8 47.242 8c5.752 0 10.722 3.372 13.04 8.245a14.35 14.35 0 0 1 6.654-1.624c7.965 0 14.432 6.467 14.432 14.432 0 2.161-.475 4.211-1.328 6.052 4.714 2.377 7.949 7.261 7.949 12.895 0 5.88-3.524 10.944-8.573 13.192a14.358 14.358 0 0 1 1.952 7.249c0 7.965-6.467 14.432-14.432 14.432-2.4 0-4.663-.586-6.654-1.624-2.318 4.873-7.288 8.245-13.04 8.245-5.752 0-10.723-3.372-13.04-8.245a14.353 14.353 0 0 1-6.654 1.624c-7.965 0-14.432-6.467-14.432-14.432 0-2.642.711-5.118 1.952-7.249C10.019 58.944 6.495 53.88 6.495 48c0-5.634 3.235-10.518 7.949-12.895a14.356 14.356 0 0 1-1.328-6.052c0-7.965 6.467-14.432 14.432-14.432 2.399 0 4.663.586 6.654 1.624Zm8.281 45.327a2.046 2.046 0 0 0 2.891.002l20.257-20.176a2.035 2.035 0 0 0 .003-2.881l-2.619-2.619a1.965 1.965 0 0 0-2.778 0L45.363 50.772a1.966 1.966 0 0 1-2.78 0l-6.752-6.752a2.044 2.044 0 0 0-2.892 0l-2.578 2.577a2.017 2.017 0 0 0 0 2.853l12.122 12.122Z" style="fill:#46b549" transform="matrix(.589 0 0 .589 -3.826 -4.712)"/></svg>