<svg xmlns="http://www.w3.org/2000/svg" width="48" height="48" fill="none"><g clip-path="url(#a)"><g fill="#000" clip-path="url(#b)"><path d="M24.063 40.046c8.98 0 16.21-7.23 16.21-15.983S33.044 8.08 24.064 8.08c-8.981 0-16.211 7.23-16.211 15.983 0 8.752 7.23 15.983 16.21 15.983Z"/><path d="M37.648 41c.871.825.818 2.236-.181 2.9-9.403 6.257-22.17 5.34-30.52-2.94-9.513-9.437-9.513-24.506 0-33.944C15.255-1.29 28.143-2.186 37.562 4.14c.955.641 1.024 1.987.21 2.8-.694.695-1.793.75-2.614.212C27.326 2.009 16.655 2.94 9.84 9.756a19.895 19.895 0 0 0-.152 28.465c6.816 6.817 17.49 7.748 25.321 2.602.824-.541 1.923-.501 2.639.177Zm3.512-3.433c.826.873 2.237.824 2.907-.173 5.453-8.112 5.43-18.822-.07-26.912-.644-.948-1.983-1.011-2.794-.201-.698.698-.75 1.805-.203 2.626 4.426 6.637 4.42 15.268-.02 22.016-.543.825-.5 1.927.18 2.644Z"/></g></g><defs><clipPath id="a"><path fill="#fff" d="M0 0h48v48H0z"/></clipPath><clipPath id="b"><rect width="48" height="48" fill="#fff" rx="24"/></clipPath></defs></svg>