<?xml version="1.0" encoding="UTF-8" standalone="no"?>
<svg
   width="96.000877"
   height="96.000008"
   viewBox="0 0 96.000877 96.000008"
   version="1.1"
   xml:space="preserve"
   style="clip-rule:evenodd;fill-rule:evenodd;stroke-linejoin:round;stroke-miterlimit:2"
   id="svg2"
   xmlns="http://www.w3.org/2000/svg"
   xmlns:svg="http://www.w3.org/2000/svg"><defs
   id="defs2" />
    <g
   transform="matrix(4,0,0,4,-464,-464.00004)"
   id="g1">
        <path
   d="m 124.46853,116.5297 c 1.116,-0.34453 2.304,-0.52969 3.53147,-0.52969 v 12 h -12 c 0,-1.23084 0.18516,-2.41547 0.52969,-3.53316 1.164,-3.78684 4.152,-6.77484 7.93884,-7.93715 z"
   style="fill:#a2c4b8;fill-rule:nonzero;stroke-width:0.09375"
   id="path1" />
    </g>
    <g
   transform="matrix(4,0,0,4,-464,-464.00004)"
   id="g2">
        <path
   d="m 128,134.00001 c 0,1.65769 -0.672,3.15769 -1.75716,4.24116 -0.51262,0.51393 -1.1144,0.93037 -1.776,1.22915 -0.77531,0.34978 -1.61625,0.53044 -2.46684,0.52969 -1.65769,0 -3.15769,-0.672 -4.24284,-1.75884 C 116.672,137.1577 116,135.6577 116,134.00001 c 0,-0.87947 0.19031,-1.71431 0.52969,-2.46684 0.29812,-0.6615 0.71409,-1.26328 1.22747,-1.776 1.08684,-1.08685 2.58684,-1.75716 4.24284,-1.75716 0,1.65769 0.672,3.15769 1.75716,4.24116 1.08684,1.08684 2.58684,1.75884 4.24284,1.75884 z m 12,-6 h -12 v -12 c 1.22916,0 2.41369,0.18516 3.52969,0.52969 h 0.002 c 3.78684,1.16231 6.77484,4.15031 7.93884,7.93715 0.34622,1.11769 0.52969,2.3041 0.52969,3.53316 z m 0,0 v 6 c 0,1.65769 -0.672,3.15769 -1.75716,4.24116 -1.08684,1.08684 -2.58684,1.75884 -4.24284,1.75884 -0.85059,7.5e-4 -1.69153,-0.17991 -2.46684,-0.52969 -0.66104,-0.29962 -1.26272,-0.71597 -1.776,-1.22915 C 128.672,137.1577 128,135.6577 128,134.00001 v -6 z"
   style="fill:#099250;fill-rule:nonzero;stroke-width:0.09375"
   id="path2" />
    </g>
</svg>
