<svg width="48" height="48" fill="none" xmlns="http://www.w3.org/2000/svg"><g clip-path="url(#a)"><path d="M16.937 1.06A23.924 23.924 0 0 1 24 0v24H0c0-2.462.37-4.83 1.06-7.066A24.034 24.034 0 0 1 16.936 1.059Z" fill="#fff"/><path d="M16.937 1.06A23.924 23.924 0 0 1 24 0v24H0c0-2.462.37-4.83 1.06-7.066A24.034 24.034 0 0 1 16.936 1.059Z" fill="#A2C4B8"/><path d="M24 36a11.95 11.95 0 0 1-3.514 8.482A11.983 11.983 0 0 1 12 48a11.952 11.952 0 0 1-8.486-3.518A11.95 11.95 0 0 1 0 36a11.97 11.97 0 0 1 3.514-8.486A11.961 11.961 0 0 1 12 24a11.95 11.95 0 0 0 3.514 8.482A11.964 11.964 0 0 0 24 36Zm24-12H24V0c2.458 0 4.827.37 7.06 1.06h.003A24.034 24.034 0 0 1 46.94 16.933 23.837 23.837 0 0 1 48 24Z" fill="#099250"/><path d="M48 24v12a11.95 11.95 0 0 1-3.514 8.482A11.964 11.964 0 0 1 36 48a11.97 11.97 0 0 1-8.486-3.518A11.95 11.95 0 0 1 24 36V24h24Z" fill="#099250"/></g><defs><clipPath id="a"><path fill="#fff" d="M0 0h48v48H0z"/></clipPath></defs></svg>