<?xml version="1.0" encoding="UTF-8" standalone="no"?>
<svg
   width="48.00008"
   height="45.562302"
   viewBox="0 0 48.00008 45.562302"
   version="1.1"
   xml:space="preserve"
   style="clip-rule:evenodd;fill-rule:evenodd;stroke-linejoin:round;stroke-miterlimit:2"
   id="svg1"
   xmlns="http://www.w3.org/2000/svg"
   xmlns:svg="http://www.w3.org/2000/svg"><defs
   id="defs1" />
    <g
   transform="matrix(3.99998,0,0,3.99998,-487.99952,-487.21636)"
   id="g1">
        <path
   d="m 132.91565,127.17985 c 0.0189,-0.0282 0.0369,-0.0569 0.0549,-0.086 0.33417,-0.54061 0.49842,-1.16822 0.49842,-1.80234 v -0.0334 c 0,-0.6826 -0.19125,-1.3553 -0.57366,-1.92225 -0.56704,-0.84103 -1.49287,-1.42299 -2.56017,-1.53113 h -3.3847 c -0.12872,-3.3e-4 -0.25242,0.0506 -0.34359,0.14152 -0.0912,0.09 -0.1426,0.21304 -0.1425,0.34125 v 1.53679 c 0,0.1335 0.0544,0.25435 0.1425,0.3413 0.0912,0.0909 0.21487,0.14185 0.34359,0.14152 h 3.05006 c 0.52346,0 0.94758,0.42215 0.94758,0.94115 v 0.0498 c 0,0.51994 -0.42412,0.94116 -0.94758,0.94116 h -4.99397 c -0.12872,2.3e-4 -0.25242,-0.0507 -0.34364,-0.14156 -0.0911,-0.0901 -0.1425,-0.2131 -0.1425,-0.34125 v -3.4689 c 0,-0.13354 -0.0544,-0.25434 -0.14245,-0.34129 -0.0912,-0.0908 -0.21483,-0.14175 -0.34355,-0.14152 h -1.54781 c -0.26836,0 -0.48609,0.21624 -0.48609,0.48281 v 10.425 c 0,0.13257 0.0544,0.25388 0.1425,0.3413 0.0911,0.0909 0.21487,0.14185 0.34359,0.14152 h 1.54734 c 0.13439,0 0.25557,-0.0541 0.3436,-0.14152 0.0912,-0.0901 0.1425,-0.21309 0.1425,-0.3413 v -3.46889 c 0,-0.26653 0.21769,-0.48281 0.48609,-0.48281 h 4.96983 c 0.0824,0 0.1628,-0.004 0.24328,-0.009 h 0.31425 c 0.52256,0 0.94758,0.42121 0.94758,0.94115 v 0.0489 c 0,0.51994 -0.42502,0.94116 -0.94758,0.94116 h -3.56644 c -0.005,-9.4e-4 -0.0113,-9.4e-4 -0.0165,-9.4e-4 -0.005,0 -0.0113,0 -0.0166,9.4e-4 -0.123,0.003 -0.24014,0.0539 -0.32704,0.141 -0.0913,0.0902 -0.1426,0.21342 -0.1425,0.34176 v 1.54664 c 0,0.13257 0.0545,0.25388 0.1425,0.3413 0.0912,0.0909 0.21487,0.14189 0.34364,0.14152 h 3.80545 c 0.99398,-0.0686 1.87434,-0.54863 2.46881,-1.26975 0.51122,-0.6196 0.77578,-1.40419 0.77578,-2.20528 v -0.007 c 0,-0.78084 -0.25087,-1.54617 -0.73884,-2.15826 -0.10641,-0.13341 -0.22238,-0.25894 -0.34692,-0.37561 h 9.4e-4 z"
   style="fill:#000030;fill-rule:nonzero;stroke-width:0.046875"
   id="path1" />
    </g>
</svg>
