<?xml version="1.0" encoding="UTF-8" standalone="no"?>
<svg
   width="47.998188"
   height="63.52935"
   viewBox="0 0 47.998188 63.52935"
   version="1.1"
   xml:space="preserve"
   style="clip-rule:evenodd;fill-rule:evenodd;stroke-linejoin:round;stroke-miterlimit:2"
   id="svg1"
   xmlns="http://www.w3.org/2000/svg"
   xmlns:svg="http://www.w3.org/2000/svg"><defs
   id="defs1" />
    <g
   transform="matrix(4.06892,0,0,4.06892,-480.20784,-480.23542)"
   id="g1">
        <path
   d="m 129.78397,124.3022 c 0.24544,-1.64061 -1.00382,-2.52258 -2.71199,-3.11092 l 0.55409,-2.22242 -1.35293,-0.33713 -0.53944,2.16386 c -0.35568,-0.0887 -0.72098,-0.17223 -1.08398,-0.25505 l 0.54329,-2.17813 -1.35211,-0.33713 -0.55453,2.22168 c -0.29438,-0.0671 -0.58337,-0.13339 -0.86391,-0.20312 l 0.002,-0.007 -1.86582,-0.46586 -0.3599,1.44487 c 0,0 1.00382,0.23004 0.9826,0.24425 0.54795,0.1368 0.64697,0.49937 0.6304,0.7868 l -0.63114,2.53183 c 0.0377,0.01 0.0867,0.0234 0.14065,0.045 -0.0451,-0.0112 -0.0933,-0.0235 -0.14301,-0.0354 l -0.8847,3.54669 c -0.0671,0.1664 -0.237,0.41611 -0.62004,0.32131 0.0135,0.0197 -0.98334,-0.24543 -0.98334,-0.24543 l -0.67166,1.54854 1.7606,0.43881 c 0.32757,0.0821 0.64851,0.16801 0.96448,0.24891 l -0.55985,2.2478 1.35137,0.33719 0.55452,-2.22397 c 0.35835,0.0971 0.71775,0.1904 1.07815,0.27974 l -0.5526,2.21355 1.35292,0.33713 0.55992,-2.24358 c 2.30705,0.43652 4.04184,0.26045 4.77206,-1.82592 0.5884,-1.67995 -0.0293,-2.64896 -1.24311,-3.28085 0.88396,-0.2038 1.54984,-0.78525 1.72746,-1.98617 z m -3.09118,4.33417 c -0.41809,1.67994 -3.24685,0.77179 -4.164,0.54404 l 0.74294,-2.97796 c 0.91715,0.22886 3.85801,0.68201 3.42106,2.43392 z m 0.41846,-4.35849 c -0.38149,1.52812 -2.73587,0.75175 -3.49966,0.5614 l 0.67358,-2.70094 c 0.76378,0.19034 3.22339,0.54558 2.82608,2.13954 z"
   style="fill:#f7931a;fill-rule:nonzero;stroke-width:0.0620408"
   id="path1" />
    </g>
</svg>
