<?xml version="1.0" encoding="UTF-8" standalone="no"?>
<svg
   width="48.000027"
   height="48"
   viewBox="0 0 48.000027 48"
   version="1.1"
   xml:space="preserve"
   style="clip-rule:evenodd;fill-rule:evenodd;stroke-linejoin:round;stroke-miterlimit:2"
   id="svg2"
   xmlns="http://www.w3.org/2000/svg"
   xmlns:svg="http://www.w3.org/2000/svg"><defs
   id="defs2" />
    <g
   transform="matrix(0.512,0,0,0.512,-487.99997,-488)"
   id="g1">
        <path
   d="m 1026.9245,1031.5647 c 1.0032,1.0031 1.5061,2.4042 1.3707,3.8161 -0.135,1.4119 -0.8958,2.6915 -2.071,3.4851 -7.4929,5.0513 -16.5159,8.0091 -26.2242,8.0091 -9.70842,0 -18.73144,-2.9578 -26.21616,-8.0208 -1.17192,-0.7912 -1.93012,-2.0672 -2.06507,-3.4748 -0.1351,-1.4077 0.36665,-2.8046 1.36668,-3.8044 -0.01,-0.01 -0.01,-0.01 -0.009,-0.011 2.0992,-2.099 5.36639,-2.4787 7.89103,-0.9169 5.52094,3.4571 12.04646,5.4465 19.03292,5.4465 6.9867,0 13.5122,-1.9894 19.0416,-5.4329 2.5181,-1.5576 5.7768,-1.1789 7.8707,0.915 0.012,-0.011 0.012,-0.011 0.012,-0.011 z m 4.6402,-58.48918 c 1.0031,-1.00299 2.4042,-1.50624 3.8161,-1.37082 1.4119,0.13533 2.6915,0.89578 3.4851,2.07122 5.0513,7.49264 8.0091,16.51566 8.0091,26.22408 0,9.7083 -2.9578,18.7313 -8.0208,26.2163 -0.7912,1.1718 -2.0672,1.9298 -3.4748,2.0648 -1.4077,0.1355 -2.8046,-0.3666 -3.8044,-1.3664 -0.01,0.01 -0.01,0.01 -0.011,0.01 -2.099,-2.0991 -2.4787,-5.3668 -0.9169,-7.891 3.4571,-5.5209 5.4465,-12.0464 5.4465,-19.0331 0,-6.98648 -1.9894,-13.512 -5.4329,-19.04152 -1.5576,-2.51821 -1.1789,-5.77701 0.915,-7.87073 -0.011,-0.0119 -0.011,-0.0121 -0.011,-0.0122 z m -70.41915,0.70832 c 0.88059,-1.30359 2.35472,-2.08673 3.92789,-2.08673 1.25667,0 2.46314,0.49973 3.35175,1.38834 0.0101,-0.01 0.0103,-0.01 0.0105,-0.009 2.09901,2.0992 2.47875,5.36639 0.91711,7.89103 -3.45727,5.52094 -5.44655,12.04646 -5.44655,19.03292 0,6.9867 1.98928,13.5122 5.43272,19.0416 1.55761,2.5181 1.17876,5.7768 -0.915,7.8707 0.0115,0.012 0.0113,0.012 0.0111,0.012 -1.00293,1.0032 -2.40384,1.5061 -3.81571,1.3707 -1.41188,-0.1355 -2.69161,-0.8958 -3.48558,-2.071 -5.05102,-7.4929 -8.00883,-16.5159 -8.00883,-26.2242 0,-9.7084 2.95781,-18.73142 8.02055,-26.21614 z M 1000,970.46875 c 16.2989,0 29.5313,13.23253 29.5313,29.53125 0,16.2989 -13.2324,29.5313 -29.5313,29.5313 -16.29872,0 -29.53125,-13.2324 -29.53125,-29.5313 0,-16.29872 13.23253,-29.53125 29.53125,-29.53125 z m -26.92448,-2.03363 c -0.89129,-0.89123 -1.39257,-2.10131 -1.39257,-3.36178 0,-1.57781 0.78549,-3.05629 2.09297,-3.93951 7.49264,-5.05102 16.51566,-8.00883 26.22408,-8.00883 9.7083,0 18.7313,2.95781 26.2163,8.02055 1.1718,0.79167 1.9298,2.06756 2.0648,3.47522 0.135,1.40765 -0.3666,2.80443 -1.3664,3.80442 0.01,0.0101 0.01,0.0103 0.01,0.0105 -2.0991,2.09901 -5.3668,2.47875 -7.891,0.91711 -5.5209,-3.45727 -12.0464,-5.44655 -19.0331,-5.44655 -6.98648,0 -13.512,1.98928 -19.04152,5.43272 -2.51821,1.55761 -5.77701,1.17876 -7.87073,-0.915 -0.0119,0.0115 -0.0121,0.0113 -0.0122,0.0111 z"
   style="fill:#208e7a;stroke-width:0.046875"
   id="path1" />
    </g>
    <g
   transform="matrix(4,0,0,4,-487.99997,-488)"
   id="g2">
        <path
   d="m 126.48191,129.05398 c -0.0837,0 -0.15253,0.0689 -0.15253,0.15254 v 0.40579 c 0,0.0837 0.0688,0.15253 0.15253,0.15253 h 1.11365 v 1.02971 c 0,0.0837 0.0689,0.15257 0.15258,0.15257 h 0.4897 c 0.0837,0 0.15258,-0.0689 0.15258,-0.15257 v -1.02971 h 1.12767 c 0.0837,0 0.15253,-0.0689 0.15253,-0.15253 v -0.40579 c 0,-0.0837 -0.0689,-0.15254 -0.15253,-0.15254 z m 3.03965,-0.50451 c 0.0837,0 0.15258,-0.0689 0.15258,-0.15258 v -0.39876 c 0,-0.0837 -0.0689,-0.15254 -0.15253,-0.15254 0,0 -5e-5,0 -5e-5,0 h -0.95569 l 1.29136,-2.28379 c 0.0267,-0.0472 0.0263,-0.10519 -9.8e-4,-0.15202 -0.0273,-0.0468 -0.0776,-0.0756 -0.13181,-0.0756 h -0.56663 c -0.055,0 -0.10584,0.0297 -0.13289,0.0775 l -1.02759,1.82001 -1.01489,-1.81931 c -0.0269,-0.0482 -0.078,-0.0782 -0.13322,-0.0782 h -0.57366 c -4e-5,0 -9e-5,0 -1.9e-4,0 -0.0836,0 -0.15248,0.0688 -0.15248,0.15248 0,0.0263 0.007,0.052 0.0197,0.0749 l 1.28522,2.28407 h -0.94238 c -0.0837,0 -0.15253,0.0689 -0.15258,0.15254 v 0.39876 c 0,0.0837 0.0689,0.15258 0.15258,0.15258 z"
   style="fill:#ffffff;fill-rule:nonzero;stroke-width:0.046875"
   id="path2" />
    </g>
</svg>
