<svg width="48" height="48" fill="none" xmlns="http://www.w3.org/2000/svg"><path d="M42.563 9.6V0H22.686v9.6h9.938a9.72 9.72 0 0 1-2.97 6.844 9.836 9.836 0 0 1-6.968 2.755V9.6A19.687 19.687 0 0 0 8.76 15.117 19.459 19.459 0 0 0 2.812 28.8 19.459 19.459 0 0 0 8.76 42.482a19.688 19.688 0 0 0 13.928 5.516 19.671 19.671 0 0 0 13.933-5.511 19.442 19.442 0 0 0 5.943-13.688h-9.938a9.684 9.684 0 0 1-.797 3.718 9.73 9.73 0 0 1-2.17 3.13 9.794 9.794 0 0 1-3.21 2.066 9.84 9.84 0 0 1-3.76.686 9.836 9.836 0 0 1-6.967-2.756 9.721 9.721 0 0 1-2.971-6.844 9.721 9.721 0 0 1 2.971-6.844 9.835 9.835 0 0 1 6.966-2.756v9.6a19.688 19.688 0 0 0 13.929-5.517A19.458 19.458 0 0 0 42.563 9.6Z" fill="#EF6100"/></svg>