<?xml version="1.0" encoding="UTF-8" standalone="no"?>
<svg
   width="48"
   height="57.9622"
   viewBox="0 0 48 57.9622"
   version="1.1"
   xml:space="preserve"
   style="clip-rule:evenodd;fill-rule:evenodd;stroke-linejoin:round;stroke-miterlimit:2"
   id="svg1"
   xmlns="http://www.w3.org/2000/svg"
   xmlns:svg="http://www.w3.org/2000/svg"><defs
   id="defs1" />
    <g
   transform="matrix(4,0,0,4,-400,-483.01828)"
   id="g1">
        <path
   d="m 112,123.65263 v -2.89806 h -6 v 2.89806 h 3 c -0.0122,0.78028 -0.33521,1.52428 -0.89683,2.06604 -0.56253,0.54334 -1.31898,0.84249 -2.10317,0.8319 v -2.89794 c -1.56804,-0.0199 -3.08004,0.57883 -4.2047,1.66528 -1.12472,1.08646 -1.77028,2.57185 -1.7953,4.13072 0.025,1.55881 0.67064,3.04421 1.7953,4.13066 1.12466,1.08645 2.63666,1.68521 4.2047,1.66528 1.56843,0.0213 3.08123,-0.57707 4.20617,-1.66381 1.12494,-1.08673 1.77011,-2.57292 1.79383,-4.13213 h -3 c -0.005,0.38638 -0.087,0.76789 -0.24062,1.12245 -0.15391,0.35508 -0.37647,0.67631 -0.65491,0.94512 -0.27894,0.26937 -0.60821,0.4813 -0.969,0.62354 -0.3613,0.14253 -0.74711,0.21289 -1.13547,0.20695 -0.78419,0.0106 -1.54053,-0.28868 -2.103,-0.83208 -0.56253,-0.54334 -0.88517,-1.28638 -0.897,-2.06598 0.0119,-0.77966 0.33453,-1.5227 0.897,-2.06604 0.56247,-0.54334 1.31875,-0.84266 2.103,-0.83202 v 2.89806 c 1.56804,0.0199 3.08004,-0.579 4.2047,-1.66545 1.12466,-1.0864 1.77028,-2.57174 1.7953,-4.13055 z"
   style="fill:#ef6100;fill-rule:nonzero;stroke-width:0.0566038"
   id="path1" />
    </g>
</svg>
