<?xml version="1.0" encoding="UTF-8" standalone="no"?>
<svg
   width="47.997932"
   height="57.447006"
   viewBox="0 0 47.997932 57.447006"
   version="1.1"
   xml:space="preserve"
   style="clip-rule:evenodd;fill-rule:evenodd;stroke-linejoin:round;stroke-miterlimit:2"
   id="svg4"
   xmlns="http://www.w3.org/2000/svg"
   xmlns:svg="http://www.w3.org/2000/svg"><defs
   id="defs4" />
    <g
   transform="matrix(0.999959,0,0,0.999959,-416.86863,-483.2161)"
   id="g4">
        <g
   transform="matrix(3.9987,0,0,3.9987,-38.875,0.251891)"
   id="g1">
            <path
   d="m 125.84914,132.66504 c -0.0478,-0.057 -0.10662,-0.10387 -0.1728,-0.13792 -0.0662,-0.0341 -0.13831,-0.0552 -0.21245,-0.0619 -0.14964,-0.0131 -0.29849,0.0342 -0.41325,0.13107 -0.0148,0.0122 -0.0296,0.0243 -0.0439,0.0365 -0.0106,0.009 -0.0211,0.0174 -0.0317,0.0259 -0.16433,0.13382 -0.33562,0.25889 -0.51313,0.37471 l -0.0232,0.0153 c -0.0391,0.0254 -0.0782,0.0502 -0.11789,0.074 -0.009,0.006 -0.0179,0.0111 -0.0269,0.0164 -0.009,0.005 -0.0174,0.0106 -0.0259,0.0159 l -0.0153,0.009 -0.0275,0.0164 c -0.009,0.005 -0.0174,0.0105 -0.0264,0.0153 -0.10482,0.061 -0.21144,0.11879 -0.31974,0.17331 l -0.0269,0.0137 -0.0375,0.0191 -0.0492,0.0238 -0.004,0.002 c -0.0164,0.008 -0.0328,0.0154 -0.0491,0.0233 l -0.0375,0.0174 -0.0243,0.0111 c -0.0127,0.006 -0.0259,0.0116 -0.0386,0.0174 -0.0169,0.007 -0.0344,0.0153 -0.0518,0.0227 -0.0348,0.0153 -0.0703,0.0301 -0.10567,0.0444 -0.0179,0.007 -0.0359,0.0148 -0.0539,0.0217 -0.0344,0.0138 -0.0692,0.0275 -0.10409,0.0407 h -0.001 c -0.0344,0.0132 -0.0693,0.0259 -0.1041,0.0381 l -0.007,0.003 c -0.0164,0.006 -0.0328,0.0116 -0.0497,0.0174 -0.0174,0.006 -0.0349,0.0116 -0.0518,0.0179 l -0.0523,0.0169 c -0.005,0.002 -0.01,0.003 -0.0148,0.005 l -0.0338,0.0106 -0.028,0.009 c -0.0285,0.009 -0.0565,0.0174 -0.0851,0.0259 l -0.019,0.006 c -0.0117,0.003 -0.0233,0.007 -0.0349,0.01 l -0.0401,0.0111 -0.0323,0.009 -0.0211,0.006 -0.027,0.007 c -0.0301,0.008 -0.0607,0.0158 -0.0914,0.0232 -0.007,0.002 -0.0153,0.004 -0.0227,0.006 -0.0105,0.003 -0.0217,0.005 -0.0328,0.008 l -0.027,0.006 c -0.002,5.6e-4 -0.005,10e-4 -0.007,0.002 -0.0138,0.003 -0.0281,0.006 -0.0417,0.01 -0.0254,0.006 -0.0508,0.0111 -0.0767,0.0164 -0.0243,0.005 -0.0486,0.01 -0.0724,0.0148 l -0.0592,0.0111 -0.0365,0.006 c -0.0122,0.002 -0.0216,0.004 -0.0327,0.006 l -0.0471,0.008 -0.046,0.007 -0.006,10e-4 c -0.0191,0.003 -0.0375,0.006 -0.056,0.008 -0.0185,0.003 -0.0365,0.005 -0.0539,0.007 l -0.0116,0.002 -0.0444,0.006 h -0.003 c -0.0127,0.002 -0.0248,0.003 -0.037,0.005 l -0.0327,0.004 c -0.0323,0.004 -0.065,0.007 -0.0978,0.0105 h -0.008 c -0.0105,0.002 -0.0216,0.003 -0.0322,0.004 l -0.028,0.003 c -0.0111,10e-4 -0.0222,0.002 -0.0333,0.003 l -0.0333,0.003 c -0.0439,0.003 -0.0883,0.006 -0.13214,0.009 l -0.0587,0.003 -0.0333,10e-4 c -0.008,5e-5 -0.0169,4.5e-4 -0.0254,0.001 l -0.0322,0.001 h -0.0328 c -0.0111,5.6e-4 -0.0222,0.002 -0.0333,0.002 h -0.0116 c -0.0185,0 -0.037,5e-4 -0.055,5e-4 h -0.11997 c -0.62531,-0.007 -1.24567,-0.1115 -1.83912,-0.30864 -0.0211,-0.007 -0.0428,-0.0142 -0.0639,-0.0216 -0.0105,-0.004 -0.0211,-0.007 -0.0312,-0.0111 -0.01,-0.004 -0.0211,-0.007 -0.0312,-0.0111 -0.017,-0.006 -0.0339,-0.0121 -0.0507,-0.0185 l -0.0211,-0.008 c -0.019,-0.007 -0.0381,-0.0143 -0.0565,-0.0212 l -0.01,-0.004 c -0.007,-0.003 -0.0148,-0.006 -0.0216,-0.008 l -0.007,-0.003 -0.006,-0.002 -0.0127,-0.005 -0.0116,-0.005 h -0.003 l -0.005,-0.003 -0.0238,-0.01 -0.0306,-0.0127 c -0.0169,-0.007 -0.0338,-0.0137 -0.0508,-0.0211 h -0.003 l -0.0338,-0.0148 -0.0396,-0.0174 c -1.06064,-0.46697 -1.96604,-1.22744 -2.60912,-2.19156 -0.005,-0.007 -0.009,-0.0139 -0.0137,-0.0212 -0.64931,-0.9879 -0.9967,-2.144 -0.99934,-3.32618 v -0.0898 c 0,-0.0227 0.001,-0.0454 0.002,-0.0681 v -0.005 c 0.0184,-0.675 0.14964,-1.3422 0.3884,-1.97384 0.008,-0.0222 0.0169,-0.0439 0.0254,-0.0661 0.007,-0.0195 0.0153,-0.0391 0.0232,-0.0586 l 0.0164,-0.0397 c 0.009,-0.0216 0.0179,-0.0434 0.0275,-0.0651 0.0101,-0.0237 0.0206,-0.0475 0.0312,-0.0713 5.6e-4,-0.002 0.002,-0.003 0.002,-0.005 7.3e-4,-0.002 0.002,-0.004 0.003,-0.006 l 0.0222,-0.0491 c 0,0 0,-0.001 5.7e-4,-0.002 0.007,-0.0154 0.0137,-0.0302 0.0206,-0.0449 0.002,-0.004 0.004,-0.009 0.006,-0.0132 l 0.003,-0.007 c 0.003,-0.007 0.007,-0.0148 0.0105,-0.0216 0.002,-0.005 0.004,-0.01 0.006,-0.0138 l 0.006,-0.0137 0.002,-0.003 0.004,-0.008 c 0.008,-0.0169 0.0164,-0.0338 0.0248,-0.0507 0.002,-0.003 0.003,-0.006 0.004,-0.008 0.0111,-0.0223 0.0222,-0.0444 0.0333,-0.0661 0.008,-0.0153 0.0159,-0.0312 0.0238,-0.0465 l 0.005,-0.01 c 0,0 0,-10e-4 5.6e-4,-0.002 0,0 0,-0.001 5.6e-4,-0.001 0.005,-0.01 0.009,-0.0179 0.0142,-0.0269 0.002,-0.003 0.004,-0.006 0.005,-0.01 l 0.0105,-0.0195 c 0.003,-0.006 0.007,-0.0127 0.0101,-0.0191 l 0.002,-0.004 0.004,-0.007 c 0.006,-0.0117 0.0122,-0.0228 0.0179,-0.0338 0.18857,-0.34117 0.40999,-0.66316 0.66115,-0.96132 0.004,-0.005 0.009,-0.0105 0.0127,-0.0159 0.091,-0.11694 0.13253,-0.265 0.11576,-0.41223 -0.035,-0.3046 -0.31099,-0.5285 -0.61627,-0.49989 -0.14762,0.014 -0.28402,0.0851 -0.37993,0.1982 -0.21139,0.25082 -0.40522,0.51583 -0.58026,0.79323 l -0.004,0.006 c -0.0153,0.0243 -0.0301,0.0486 -0.0454,0.0724 -0.008,0.0127 -0.0153,0.0254 -0.0233,0.0386 -0.23208,0.38385 -0.4276,0.78868 -0.58397,1.2091 -0.0781,0.20993 -0.14622,0.42351 -0.20398,0.63994 -10e-4,0.004 -0.002,0.007 -0.003,0.0117 -0.005,0.0191 -0.0101,0.0386 -0.0153,0.0582 -0.002,0.005 -0.003,0.0105 -0.004,0.0164 -0.003,0.01 -0.005,0.0206 -0.008,0.0312 l -0.008,0.0312 c -0.005,0.0206 -0.01,0.0412 -0.0147,0.0623 0,0.002 -10e-4,0.004 -10e-4,0.005 -5.1e-4,0.003 -0.002,0.006 -0.002,0.009 v 0.002 c -0.003,0.0132 -0.006,0.0264 -0.01,0.0391 -0.001,0.004 -0.002,0.007 -0.003,0.0106 -0.2046,0.90315 -0.23242,1.83749 -0.0819,2.75124 0.001,0.007 0.002,0.0143 0.004,0.0217 0.15519,0.92991 0.49266,1.82005 0.993,2.61911 0.008,0.0132 0.0169,0.027 0.0254,0.0402 l 0.0238,0.037 c 0.008,0.0127 0.0159,0.0248 0.0238,0.037 0.0116,0.018 0.0233,0.0354 0.0349,0.0534 0.007,0.0105 0.0137,0.0206 0.0206,0.0306 0.003,0.004 0.006,0.008 0.008,0.0127 0.0116,0.0174 0.0238,0.0349 0.0359,0.0523 0.003,0.004 0.005,0.007 0.007,0.0111 0.001,0.002 0.003,0.004 0.004,0.006 l 0.004,0.006 c 0.0265,0.0385 0.0534,0.0768 0.0809,0.11464 0.0148,0.0206 0.0301,0.0418 0.0454,0.0624 0.0127,0.0174 0.0253,0.0344 0.0376,0.0513 0.006,0.008 0.0115,0.0159 0.0179,0.0238 l 0.0301,0.0397 c 0.006,0.008 0.0121,0.0164 0.019,0.0243 0.01,0.0127 0.0195,0.0249 0.029,0.0375 0.005,0.007 0.0105,0.0137 0.0159,0.0201 0.0105,0.0137 0.0216,0.027 0.0322,0.0407 0.007,0.008 0.0132,0.0169 0.0201,0.0249 0.01,0.0116 0.019,0.0238 0.029,0.0354 0.007,0.008 0.0137,0.0164 0.0206,0.0243 0.01,0.0122 0.0201,0.0238 0.0301,0.036 0.007,0.008 0.0143,0.0169 0.0217,0.0254 0.01,0.0117 0.0195,0.0233 0.0296,0.0349 0.0159,0.0191 0.0322,0.0375 0.0486,0.0555 0.0164,0.0185 0.0344,0.0386 0.0518,0.0581 0.0174,0.019 0.0359,0.0402 0.0544,0.0597 0.0185,0.0201 0.0365,0.0396 0.055,0.0592 0.0185,0.0196 0.037,0.0392 0.056,0.0587 0.38991,0.40561 0.82666,0.76344 1.30109,1.06591 l 0.0111,0.007 0.038,0.0238 c 0.71313,0.44936 1.49996,0.76945 2.32426,0.94545 l 0.038,0.008 0.0349,0.007 c 0.0249,0.005 0.0491,0.01 0.074,0.0147 0.0122,0.003 0.0249,0.005 0.037,0.007 l 0.019,0.003 0.019,0.003 0.0391,0.007 0.01,0.002 0.0137,0.003 c 0.0143,0.003 0.0285,0.005 0.0433,0.007 l 0.0523,0.008 0.0529,0.008 0.0528,0.008 c 0.0174,0.003 0.0354,0.005 0.0528,0.007 l 0.0528,0.007 0.0333,0.004 0.0343,0.004 c 0.01,0.001 0.0206,0.003 0.0307,0.004 0.0216,0.003 0.0428,0.005 0.0644,0.007 l 0.0465,0.005 0.028,0.003 0.0391,0.004 c 0.0937,0.009 0.18766,0.0151 0.28166,0.0195 0.044,0.002 0.0881,0.004 0.13214,0.005 h 0.0174 l 0.0803,0.002 h 0.20611 c 0.0275,0 0.0545,-10e-4 0.082,-0.002 h 0.006 c 0.028,-5.6e-4 0.0555,-0.002 0.0835,-0.003 l 0.0428,-0.002 0.0428,-0.002 c 0.0259,-0.001 0.0523,-0.003 0.0782,-0.004 0.0386,-0.002 0.0766,-0.005 0.1152,-0.007 0.0852,-0.007 0.17028,-0.0146 0.25525,-0.0238 0.0153,-0.002 0.0307,-0.004 0.0465,-0.005 0.0159,-0.002 0.0312,-0.004 0.0465,-0.006 l 0.018,-0.002 c 0.0148,-0.002 0.0296,-0.004 0.0439,-0.006 0.0179,-0.002 0.0365,-0.005 0.0544,-0.007 l 0.0106,-0.002 c 0.0206,-0.003 0.0412,-0.006 0.0624,-0.01 l 0.007,-0.001 0.0402,-0.006 0.038,-0.006 0.0227,-0.004 h 0.004 c 0.0291,-0.005 0.0576,-0.01 0.0867,-0.0153 l 0.005,-0.001 0.0507,-0.01 c 0.84376,-0.15755 1.6523,-0.46596 2.38657,-0.9105 0.0132,-0.008 0.0259,-0.0159 0.0392,-0.0238 0.0569,-0.0349 0.1133,-0.0707 0.1691,-0.10724 0.24403,-0.15967 0.47819,-0.33382 0.7013,-0.5216 0.11459,-0.0968 0.1861,-0.23528 0.19866,-0.38475 0.0127,-0.14935 -0.0343,-0.29781 -0.13051,-0.41273 h -0.002 z"
   style="fill:#1066df;fill-rule:nonzero;stroke-width:0.056086"
   id="path1" />
        </g>
        <g
   transform="matrix(3.9987,0,0,3.9987,-38.875,0.251891)"
   id="g2">
            <path
   d="m 117.84224,122.817 c 0.0999,1.1e-4 0.1981,-0.0265 0.2843,-0.0772 0.11217,-0.0651 0.22637,-0.12659 0.34246,-0.18441 0.0742,-0.0368 0.14902,-0.072 0.22457,-0.10573 0.0127,-0.006 0.0254,-0.0111 0.0381,-0.0169 0.008,-0.004 0.0169,-0.007 0.0259,-0.011 0.0169,-0.007 0.0333,-0.0143 0.0502,-0.0217 l 0.0375,-0.0158 c 0.0255,-0.0107 0.051,-0.021 0.0766,-0.0312 l 0.0291,-0.0117 0.0481,-0.019 c 0.0116,-0.005 0.0232,-0.009 0.0348,-0.0132 0.055,-0.0206 0.10993,-0.0401 0.16596,-0.0592 l 0.0328,-0.011 c 0.0653,-0.0219 0.13107,-0.0427 0.19714,-0.0624 l 0.0327,-0.01 c 0.0855,-0.0247 0.17146,-0.0477 0.25789,-0.0687 l 0.0285,-0.007 0.0333,-0.008 0.0227,-0.005 0.0243,-0.006 c 0.0159,-0.004 0.0322,-0.007 0.0481,-0.0105 0.0243,-0.005 0.0486,-0.0105 0.0734,-0.0153 l 0.0407,-0.008 c 0.055,-0.0105 0.10992,-0.0206 0.16489,-0.0301 0.0264,-0.004 0.0533,-0.009 0.0798,-0.0127 0.0269,-0.004 0.0539,-0.008 0.0819,-0.0122 l 0.006,-10e-4 c 0.0391,-0.005 0.0782,-0.0105 0.11733,-0.0154 l 0.0824,-0.01 c 0.0275,-0.003 0.055,-0.006 0.0824,-0.008 0.0275,-0.003 0.055,-0.005 0.083,-0.007 0.0174,-0.001 0.0349,-0.003 0.0518,-0.004 l 0.1041,-0.006 c 0.0174,-10e-4 0.0349,-0.002 0.0518,-0.003 0.0105,0 0.0206,-10e-4 0.0312,-10e-4 l 0.0285,-0.001 0.0328,-0.001 0.0328,-10e-4 c 0.0222,-5.6e-4 0.0444,-0.001 0.0661,-0.001 h 0.0782 c 0.24947,0 0.49889,0.0153 0.74623,0.0465 0.0523,0.006 0.1046,0.0137 0.15693,0.0216 0.0111,0.002 0.0227,0.004 0.0344,0.005 l 0.0576,0.01 0.0111,0.002 0.009,0.002 c 0.0143,0.003 0.0291,0.005 0.0434,0.007 l 0.0142,0.003 0.0191,0.004 0.019,0.004 0.0359,0.007 c 0.0127,0.002 0.0254,0.005 0.0375,0.007 l 0.0101,0.002 c 0.0285,0.006 0.0576,0.0122 0.0861,0.0185 l 0.0264,0.006 c 0.0201,0.004 0.0396,0.009 0.0597,0.0137 0.0233,0.005 0.0465,0.0111 0.0698,0.0169 0.0217,0.005 0.0434,0.0111 0.065,0.0164 l 0.0233,0.006 0.0248,0.006 h 10e-4 c 0.0159,0.004 0.0318,0.008 0.0471,0.0127 0.002,0 0.004,10e-4 0.006,0.002 0.007,0.002 0.0148,0.004 0.0216,0.006 0.01,0.003 0.0201,0.006 0.0301,0.008 l 0.0249,0.007 c 0.0116,0.003 0.0233,0.007 0.0349,0.01 l 0.0275,0.008 0.0248,0.007 0.0116,0.004 h 10e-4 l 0.0143,0.004 0.0302,0.01 0.019,0.006 0.0249,0.008 c 0.0148,0.005 0.0291,0.01 0.0439,0.0143 0.0221,0.007 0.0444,0.0153 0.0666,0.0227 0.0978,0.0343 0.19468,0.0709 0.29064,0.10993 l 0.0328,0.0137 c 0.0238,0.01 0.0476,0.0196 0.0714,0.0301 0.0813,0.0347 0.15968,0.0757 0.23461,0.1226 0.69653,0.43703 0.99194,1.3307 0.65795,2.10968 -0.17797,0.41408 -0.51325,0.74101 -0.93171,0.90842 -0.41845,0.16742 -0.88683,0.1617 -1.30108,-0.0159 -0.32104,-0.13746 -0.66602,-0.21032 -1.01521,-0.21453 h -0.001 c -0.10129,-0.001 -0.20259,0.004 -0.30337,0.0143 -0.0454,0.005 -0.0904,0.0111 -0.13584,0.0179 -0.0201,0.003 -0.0407,0.007 -0.0607,0.0106 l -0.0179,0.003 c -0.007,0.002 -0.0154,0.003 -0.0228,0.004 -0.0111,0.002 -0.0227,0.004 -0.0338,0.007 h -0.002 c -0.0122,0.003 -0.0238,0.006 -0.0359,0.008 l -0.0286,0.007 -0.0169,0.004 -0.0275,0.007 c -0.008,0.002 -0.0174,0.005 -0.0259,0.007 l -0.0179,0.005 c -0.0365,0.01 -0.073,0.0211 -0.10886,0.0327 -0.0143,0.005 -0.0291,0.01 -0.0434,0.0143 l -0.0217,0.007 c -0.007,0.003 -0.0143,0.005 -0.0217,0.008 l -0.0211,0.008 c -0.0211,0.008 -0.0428,0.0159 -0.0634,0.0243 -0.10578,0.0423 -0.2087,0.0914 -0.30814,0.14694 -0.006,0.004 -0.0132,0.007 -0.0195,0.0111 -0.0132,0.007 -0.0264,0.0153 -0.0397,0.0227 -0.0132,0.008 -0.0259,0.0153 -0.0391,0.0238 -0.0122,0.008 -0.0244,0.0154 -0.0365,0.0232 l -0.0317,0.0206 c -0.007,0.005 -0.0143,0.01 -0.0217,0.0143 -0.004,0.003 -0.008,0.005 -0.0122,0.008 -0.004,0.003 -0.01,0.007 -0.0153,0.0105 -0.005,0.004 -0.0122,0.008 -0.0179,0.0127 -0.0122,0.008 -0.0243,0.0169 -0.0359,0.0259 -0.0116,0.008 -0.0243,0.0179 -0.0365,0.0269 -0.006,0.004 -0.0117,0.009 -0.018,0.0132 -0.12608,0.0971 -0.24302,0.20549 -0.34931,0.32395 l -0.003,0.003 c -0.009,0.01 -0.0179,0.0201 -0.0269,0.0306 -0.008,0.01 -0.0169,0.0196 -0.0254,0.0296 l -0.01,0.0111 c -0.0105,0.0127 -0.0211,0.0253 -0.0312,0.038 -0.004,0.004 -0.007,0.008 -0.01,0.0127 -0.009,0.0111 -0.0174,0.0222 -0.0259,0.0333 -0.006,0.008 -0.0121,0.0159 -0.0185,0.0238 -0.0169,0.0222 -0.0333,0.0444 -0.0492,0.0671 v 5e-4 c -0.11941,0.1695 -0.21818,0.35256 -0.29434,0.54538 0,0.001 -5.7e-4,0.002 -0.001,0.003 l -0.01,0.0238 -0.009,0.0233 c -0.002,0.006 -0.005,0.0122 -0.007,0.0185 -0.002,0.006 -0.005,0.0148 -0.008,0.0227 -0.003,0.009 -0.006,0.0185 -0.01,0.0275 -0.003,0.01 -0.006,0.0196 -0.009,0.029 -0.14027,0.42115 -0.171,0.87113 -0.0893,1.30743 0.003,0.0159 0.006,0.0312 0.01,0.047 0.0656,0.32766 0.19344,0.63966 0.37678,0.91903 l 0.0148,0.0227 c 0.1871,0.28212 0.42749,0.52497 0.70758,0.71504 0.009,0.006 0.018,0.0121 0.027,0.018 0.34913,0.2336 0.74936,0.37987 1.16687,0.42648 l 0.0301,0.003 0.0269,0.003 0.0127,0.001 c 0.16747,0.0148 0.33607,0.0137 0.5036,-0.004 0.006,-5.1e-4 0.0132,-0.002 0.0196,-0.003 h 0.002 c 0.34897,-0.0391 0.68672,-0.14723 0.99351,-0.31812 0.0648,-0.0363 0.12193,-0.085 0.16809,-0.14324 0.0461,-0.0585 0.0802,-0.12547 0.10039,-0.19715 0.0201,-0.0718 0.0264,-0.14638 0.0175,-0.22036 -0.009,-0.0739 -0.0319,-0.14537 -0.0682,-0.21032 -0.0363,-0.065 -0.0852,-0.12204 -0.14369,-0.16804 -0.0584,-0.0462 -0.12541,-0.0803 -0.19714,-0.10039 -0.0716,-0.0204 -0.1465,-0.0263 -0.22036,-0.0174 -0.074,0.009 -0.14532,0.0317 -0.21032,0.0681 -0.276,0.1534 -0.59317,0.21661 -0.90686,0.18077 l -0.0164,-0.002 c -0.009,-0.001 -0.019,-0.003 -0.0285,-0.004 -0.01,-0.002 -0.0201,-0.003 -0.0307,-0.005 -0.0126,-0.002 -0.0251,-0.004 -0.0375,-0.007 -0.0195,-0.004 -0.0389,-0.008 -0.0581,-0.0127 -0.006,-10e-4 -0.0111,-0.003 -0.0164,-0.004 l -0.0191,-0.005 c -0.006,-0.002 -0.0121,-0.003 -0.019,-0.005 l -0.019,-0.005 c -0.005,-0.002 -0.0106,-0.003 -0.0159,-0.005 l -0.0206,-0.006 c -0.0122,-0.004 -0.0243,-0.008 -0.0365,-0.0116 -0.006,-0.002 -0.0122,-0.004 -0.018,-0.006 -0.0121,-0.004 -0.0243,-0.009 -0.0359,-0.0132 -0.0179,-0.007 -0.0357,-0.0141 -0.0534,-0.0216 l -0.0137,-0.006 -0.0143,-0.006 -0.0142,-0.007 -0.0222,-0.0105 c -0.22804,-0.11156 -0.42457,-0.27836 -0.57179,-0.48514 l -0.0127,-0.019 c -0.004,-0.006 -0.008,-0.0122 -0.0122,-0.018 -0.004,-0.006 -0.007,-0.011 -0.0105,-0.0164 -0.15317,-0.23763 -0.23736,-0.51319 -0.24308,-0.79586 v -0.0497 c 0,-0.007 0,-0.0158 5e-4,-0.0243 5.1e-4,-0.008 5.1e-4,-0.0159 10e-4,-0.0243 0,-0.006 0,-0.0117 0.001,-0.0174 l 10e-4,-0.0174 c 0.001,-0.0143 0.002,-0.0286 0.004,-0.0423 5.6e-4,-0.006 0.001,-0.0122 0.002,-0.0185 0.001,-0.0111 0.003,-0.0222 0.004,-0.0338 0.001,-0.008 0.002,-0.0169 0.004,-0.0254 l 0.003,-0.019 c 0.002,-0.0117 0.004,-0.0233 0.006,-0.0349 0.002,-0.0117 0.004,-0.0222 0.006,-0.0333 0.003,-0.0111 0.005,-0.0243 0.008,-0.0365 0.002,-0.008 0.004,-0.0159 0.006,-0.0243 0.002,-0.006 0.003,-0.0121 0.005,-0.019 l 0.0111,-0.0396 c 0.0169,-0.055 0.0365,-0.10942 0.0592,-0.16225 0.0332,-0.0773 0.0727,-0.15177 0.1184,-0.2225 0.006,-0.01 0.0132,-0.0206 0.0206,-0.0307 0.004,-0.007 0.01,-0.0132 0.0137,-0.0195 0.007,-0.0106 0.0148,-0.0206 0.0222,-0.0307 l 0.0116,-0.0158 c 0.004,-0.006 0.008,-0.0111 0.0127,-0.0164 0.005,-0.007 0.0106,-0.0137 0.0164,-0.0206 0.005,-0.007 0.0111,-0.0137 0.0164,-0.0201 l 0.0169,-0.0196 c 0.01,-0.0116 0.0201,-0.0227 0.0307,-0.0338 l 0.002,-0.002 c 0.0117,-0.0127 0.0233,-0.0249 0.0354,-0.037 0.009,-0.01 0.0185,-0.0185 0.0285,-0.0275 l 0.007,-0.007 c 0.0579,-0.0545 0.11991,-0.10433 0.18553,-0.14908 0.0127,-0.008 0.0254,-0.0169 0.0375,-0.0248 0.006,-0.004 0.0127,-0.008 0.0201,-0.0127 0.007,-0.005 0.0148,-0.009 0.0221,-0.0137 0.007,-0.004 0.0148,-0.009 0.0228,-0.0132 0.0794,-0.045 0.16242,-0.083 0.24834,-0.11363 l 0.037,-0.0127 c 0.008,-0.003 0.0164,-0.005 0.0249,-0.008 0.008,-0.003 0.0164,-0.005 0.0248,-0.007 0.008,-0.002 0.0169,-0.005 0.0254,-0.007 0.008,-0.002 0.0164,-0.004 0.0243,-0.006 0.018,-0.004 0.0359,-0.008 0.0539,-0.0122 l 0.0233,-0.005 0.0174,-0.003 0.0179,-0.003 c 0.0116,-0.002 0.0227,-0.004 0.0344,-0.005 h 10e-4 c 0.0717,-0.0105 0.1442,-0.0158 0.21672,-0.0158 h 0.0248 c 0.19658,0.004 0.38996,0.0454 0.57073,0.1226 1.17534,0.50416 2.54883,0.15587 3.34048,-0.84718 0.39154,-0.49642 0.60646,-1.10955 0.61039,-1.74181 v -0.005 c 0.002,-0.55626 -0.15968,-1.10102 -0.46507,-1.56592 -0.30533,-0.46495 -0.74106,-0.82974 -1.25251,-1.04847 -0.0185,-0.008 -0.0365,-0.0158 -0.055,-0.0232 -0.0188,-0.007 -0.0375,-0.0152 -0.056,-0.0233 -0.028,-0.0116 -0.0555,-0.0227 -0.0841,-0.0338 -0.028,-0.0111 -0.056,-0.0222 -0.084,-0.0327 l -0.0459,-0.0174 c -0.0153,-0.006 -0.0306,-0.0115 -0.046,-0.0169 -0.0137,-0.005 -0.027,-0.0101 -0.0407,-0.0148 l -0.0365,-0.0132 -0.0565,-0.0195 c -0.0391,-0.0132 -0.0782,-0.0265 -0.11784,-0.0392 l -0.027,-0.009 -0.0323,-0.0105 -0.0486,-0.0154 -0.0328,-0.01 -0.029,-0.008 -0.0412,-0.0122 -0.0829,-0.0238 c -0.019,-0.005 -0.038,-0.0104 -0.0571,-0.0153 l -0.0539,-0.0143 h -0.002 l -0.0116,-0.003 c -0.0312,-0.008 -0.0618,-0.0159 -0.093,-0.0233 l -0.0318,-0.007 -0.037,-0.009 c -0.019,-0.004 -0.037,-0.008 -0.0555,-0.0127 l -0.004,-0.001 -0.0555,-0.0122 c -0.0386,-0.008 -0.0772,-0.0164 -0.11576,-0.0243 l -0.0338,-0.006 -0.0491,-0.01 c -0.0111,-0.002 -0.0222,-0.004 -0.0327,-0.006 l -0.0471,-0.008 -0.0169,-0.003 c -0.037,-0.006 -0.074,-0.0122 -0.11094,-0.0185 -0.0389,-0.006 -0.0778,-0.0121 -0.11682,-0.0174 l -0.0465,-0.006 -0.0264,-0.003 c -0.003,0 -0.006,-0.001 -0.01,-0.001 l -0.0158,-0.002 -0.0159,-0.002 -0.0306,-0.004 -0.0212,-0.003 -0.0407,-0.005 -0.0127,-0.002 c -0.0164,-0.002 -0.0328,-0.004 -0.0497,-0.005 l -0.0459,-0.004 -0.0159,-0.002 -0.0454,-0.004 c -0.018,-0.002 -0.0359,-0.003 -0.054,-0.004 -0.0814,-0.006 -0.16305,-0.0112 -0.24465,-0.0148 h -0.0185 l -0.0105,-5.6e-4 -0.0397,-0.002 -0.056,-0.002 c -0.0414,-9.5e-4 -0.0828,-0.002 -0.12417,-0.002 h -0.12154 c -0.0174,0 -0.0344,0 -0.0518,5.6e-4 -0.0175,5.1e-4 -0.0333,5.1e-4 -0.0496,0.001 -0.0164,0 -0.0328,5.6e-4 -0.0497,10e-4 -0.0238,5.1e-4 -0.0481,0.002 -0.0719,0.003 l -0.0417,0.002 -0.019,10e-4 -0.0312,0.002 -0.0407,0.002 -0.037,0.002 h -0.005 c -0.32608,0.0206 -0.65004,0.0634 -0.96978,0.12844 l -0.0116,0.002 c -0.0259,0.005 -0.0518,0.0111 -0.0782,0.0164 l -0.004,0.001 c -0.0116,0.003 -0.0233,0.005 -0.0349,0.007 -0.1147,0.0254 -0.22828,0.0534 -0.3414,0.084 -0.56854,0.1553 -1.11566,0.3806 -1.62874,0.67067 l -0.0555,0.0317 -0.0222,0.0127 -0.01,0.006 -0.01,0.006 c -0.10381,0.0657 -0.1834,0.16354 -0.22664,0.27852 -0.0432,0.11492 -0.0482,0.24083 -0.0143,0.35884 0.0345,0.11778 0.10606,0.22143 0.20398,0.2954 0.0983,0.0738 0.21801,0.11347 0.34089,0.11313 h 5.6e-4 z"
   style="fill:#1066df;fill-rule:nonzero;stroke-width:0.056086"
   id="path2" />
        </g>
        <g
   transform="matrix(3.9987,0,0,3.9987,-38.875,0.251891)"
   id="g3">
            <path
   d="m 116.97498,125.39758 -0.005,0.008 c -0.26097,0.42518 -0.4552,0.88789 -0.57601,1.37192 -5.6e-4,0.003 -0.002,0.005 -0.002,0.008 l -0.008,0.0333 c -0.001,0.005 -0.003,0.0111 -0.004,0.0164 -0.003,0.0105 -0.005,0.0211 -0.007,0.0317 -0.14038,0.60803 -0.16332,1.23732 -0.0676,1.85393 0.001,0.005 0.002,0.0105 0.002,0.0158 0.003,0.0156 0.005,0.0314 0.008,0.0471 l 0.001,0.005 c 0,0 0,0.003 5.7e-4,0.004 0.1134,0.66883 0.36422,1.30697 0.73663,1.874 l 0.01,0.0148 c 0.0359,0.0545 0.0729,0.10786 0.11094,0.16069 0.0143,0.0201 0.0291,0.0396 0.0434,0.0592 0.77572,1.04432 1.93569,1.73844 3.22264,1.92841 l 0.007,0.001 0.0322,0.005 h 0.005 l 0.0264,0.004 h 0.006 l 0.0285,0.004 c 0.38761,0.049 0.77971,0.0515 1.16794,0.007 l 0.0249,-0.003 c 0.008,-10e-4 0.0159,-0.002 0.0238,-0.003 l 0.0333,-0.004 0.006,-0.001 h 0.004 l 0.007,-0.002 0.0312,-0.004 0.0111,-0.002 c 0.019,-0.003 0.037,-0.005 0.055,-0.008 h 5.1e-4 c 0.81476,-0.12575 1.58476,-0.45491 2.23862,-0.95705 0.0597,-0.0449 0.10981,-0.10135 0.14745,-0.16596 0.0377,-0.0647 0.0623,-0.13612 0.0724,-0.21032 0.0206,-0.1497 -0.0198,-0.30152 -0.11206,-0.42121 -0.0457,-0.0593 -0.10263,-0.10903 -0.16753,-0.14639 -0.0649,-0.0374 -0.13657,-0.0615 -0.21088,-0.0708 -0.0743,-0.01 -0.14975,-0.004 -0.22193,0.0158 -0.0721,0.0201 -0.13954,0.0541 -0.19872,0.0999 -0.4009,0.30769 -0.85951,0.53181 -1.34864,0.65901 -0.006,0.002 -0.0127,0.003 -0.019,0.004 -0.12373,0.0316 -0.24897,0.0568 -0.37522,0.0756 h -0.005 c -0.0148,0.003 -0.0296,0.005 -0.0444,0.007 l -0.0164,0.002 c -0.16209,0.0211 -0.32541,0.0317 -0.48884,0.0317 h -0.001 c -0.34897,0 -0.69631,-0.0482 -1.03209,-0.14318 l -0.003,-0.001 c -0.0261,-0.008 -0.0522,-0.0153 -0.0782,-0.0232 -0.0385,-0.0117 -0.0767,-0.0242 -0.11469,-0.0375 l -0.0587,-0.0206 -0.0254,-0.01 -0.007,-0.003 c -0.0148,-0.005 -0.0296,-0.0111 -0.0444,-0.0169 l -0.0127,-0.005 -0.0222,-0.009 -0.006,-0.002 h -10e-4 c -0.0148,-0.006 -0.0296,-0.0116 -0.0444,-0.0179 l -0.0111,-0.005 -0.0122,-0.005 c -0.0221,-0.01 -0.0439,-0.019 -0.0661,-0.0286 l -0.0179,-0.008 c -0.63663,-0.28957 -1.18111,-0.74942 -1.57321,-1.32862 l -0.01,-0.0137 -0.0164,-0.0248 -0.0143,-0.0222 c -0.3898,-0.6036 -0.60057,-1.30552 -0.60775,-2.02403 v -0.0486 c 0,-0.0196 0,-0.0391 5.6e-4,-0.0587 v -0.005 c 0.002,-0.074 0.005,-0.14745 0.0111,-0.22037 5.1e-4,-0.008 0.001,-0.0159 0.002,-0.0233 0,-0.004 5.6e-4,-0.007 10e-4,-0.0111 0.0354,-0.39658 0.13349,-0.78509 0.29058,-1.15099 0.0702,-0.16389 0.15177,-0.32261 0.2442,-0.47505 0.004,-0.006 0.008,-0.0132 0.0116,-0.0196 0.0674,-0.10859 0.14027,-0.21369 0.21829,-0.31493 0.20095,-0.26192 0.43528,-0.49641 0.69704,-0.69759 0.0772,-0.0595 0.15664,-0.11593 0.2383,-0.1691 0.0698,-0.0451 0.14106,-0.0882 0.21352,-0.129 0.4059,-0.22704 0.84988,-0.37802 1.31006,-0.44544 0.17875,-0.0254 0.35906,-0.0381 0.53961,-0.0381 h 10e-4 c 0.0137,0 0.0275,-5.6e-4 0.0417,-0.002 h 0.003 c 0.48817,0.006 0.97056,0.10679 1.41998,0.29754 0.008,0.003 0.0159,0.006 0.0238,0.01 h 10e-4 c 0.13803,0.0597 0.29434,0.0618 0.43388,0.006 0.21492,-0.0856 0.35665,-0.29473 0.35665,-0.52609 0,-0.0721 -0.0138,-0.14363 -0.0406,-0.2106 -0.0559,-0.13949 -0.16483,-0.25127 -0.3028,-0.31072 h -10e-4 c -0.83243,-0.359 -1.74865,-0.4792 -2.64552,-0.34717 l -0.0196,0.003 -0.0312,0.005 -0.006,10e-4 -0.0233,0.004 c -0.67545,0.10886 -1.32049,0.35878 -1.89296,0.73344 l -0.004,0.003 c -0.008,0.006 -0.0174,0.0111 -0.0259,0.0169 l -0.0264,0.0174 c -0.006,0.004 -0.0117,0.008 -0.0175,0.0122 -0.52827,0.3566 -0.98133,0.81359 -1.33333,1.34495 -0.007,0.0105 -0.0148,0.0221 -0.0221,0.0333 l -0.004,0.006 -0.0227,0.0353 -0.0132,0.0206 c -0.005,0.007 -0.01,0.0148 -0.0137,0.0222 -0.003,0.004 -0.005,0.008 -0.008,0.0122 l -0.01,0.0147 -0.001,0.003 5.6e-4,-10e-4 z"
   style="fill:#1066df;fill-rule:nonzero;stroke-width:0.056086"
   id="path3" />
        </g>
    </g>
</svg>
