<svg width="48" height="48" fill="none" xmlns="http://www.w3.org/2000/svg"><g clip-path="url(#a)" fill="#3551F2"><path d="m27.457 14.621-3.986 9.38h-9.355a4.673 4.673 0 0 0-4.69 4.689 4.673 4.673 0 0 0 4.69 4.69h5.37l-3.963 9.308c-.47.047-.938.07-1.407.07-7.762 0-14.07-6.307-14.07-14.068 0-7.761 6.308-14.069 14.07-14.069H27.48h-.024Z"/><path d="M48 19.31c0 7.762-6.307 14.07-14.068 14.07H19.488L23.474 24h10.458c2.58 0 4.69-2.11 4.69-4.69a4.704 4.704 0 0 0-4.69-4.689h-6.471l3.892-9.144a13.362 13.362 0 0 1 2.58-.235C41.692 5.242 48 11.55 48 19.311Z"/></g><defs><clipPath id="a"><path fill="#fff" d="M0 0h48v48H0z"/></clipPath></defs></svg>