<?xml version="1.0" encoding="UTF-8" standalone="no"?>
<svg
   width="83.9002"
   height="65.640038"
   viewBox="0 0 83.9002 65.640038"
   version="1.1"
   xml:space="preserve"
   style="clip-rule:evenodd;fill-rule:evenodd;stroke-linejoin:round;stroke-miterlimit:2"
   id="svg2"
   xmlns="http://www.w3.org/2000/svg"
   xmlns:svg="http://www.w3.org/2000/svg"><defs
   id="defs2" />
    <g
   transform="matrix(4.00296,0,0,4.00296,-470.93916,-371.47675)"
   id="g2">
        <path
   d="m 129.62853,96.899946 -1.74226,4.099514 H 123.797 c -0.002,0 -0.005,0 -0.007,0 -1.12064,0 -2.04271,0.92207 -2.04271,2.04271 0,0.002 0,0.005 0,0.007 0,0.002 0,0.005 0,0.007 0,1.12065 0.92207,2.04271 2.04271,2.04271 0.002,0 0.005,0 0.007,0 h 2.347 l -1.71489,4.09951 c -0.40977,-0.004 -0.42714,0 -0.63211,0 -3.39233,0 -6.14927,-2.75693 -6.14927,-6.14926 0,-3.392417 2.75694,-6.149274 6.14927,-6.149274 h 5.84186 z"
   style="fill:#3551f2;fill-rule:nonzero;stroke-width:0.0819542"
   id="path1" />
        <path
   d="m 138.60727,98.949703 c 0,3.392407 -2.75694,6.149267 -6.14927,6.149267 h -6.31326 l 1.74227,-4.09951 h 4.57099 c 1.12736,0 2.04976,-0.9224 2.04976,-2.049675 0,-1.127444 -0.9224,-2.049839 -2.04976,-2.049839 h -2.82873 l 1.76595,-4.099431 c 0.40977,0.0036 0.67333,0 1.06278,0 3.39233,0 6.14927,2.756857 6.14927,6.149188 z"
   style="fill:#3551f2;fill-rule:nonzero;stroke-width:0.0819542"
   id="path2" />
    </g>
</svg>
