<?xml version="1.0" encoding="UTF-8" standalone="no"?>
<svg
   width="71.547157"
   height="71.546753"
   viewBox="0 0 71.547157 71.546753"
   version="1.1"
   xml:space="preserve"
   style="clip-rule:evenodd;fill-rule:evenodd;stroke-linejoin:round;stroke-miterlimit:2"
   id="svg3"
   xmlns="http://www.w3.org/2000/svg"
   xmlns:svg="http://www.w3.org/2000/svg"><defs
   id="defs3" />
    <g
   transform="matrix(1.00373,0,0,1.01105,-476.02998,-481.88363)"
   id="g3">
        <g
   transform="matrix(3.98212,0,0,3.98212,0.583005,2.53258)"
   id="g1">
            <path
   d="m 127.93559,133.88618 c 3.32652,0 6.00458,-2.67805 6.00458,-5.91996 0,-3.24198 -2.67806,-5.91997 -6.00458,-5.91997 -3.32645,0 -6.0045,2.67806 -6.0045,5.91997 0,3.24191 2.67812,5.91996 6.0045,5.91996 z"
   style="fill:#46b549;fill-rule:nonzero;stroke-width:0.0698702"
   id="path1" />
        </g>
        <g
   transform="matrix(3.98212,0,0,3.98212,0.583005,2.53258)"
   id="g2">
            <path
   d="m 132.96534,134.23945 c 0.3228,0.30582 0.3031,0.82824 -0.0671,1.0746 -3.48261,2.31711 -8.21135,1.97733 -11.30416,-1.089 -3.52383,-3.4956 -3.52383,-9.07733 0,-12.57293 3.07667,-3.07667 7.85034,-3.40834 11.33903,-1.06545 0.35382,0.23755 0.37918,0.73608 0.0778,1.0375 -0.25712,0.25712 -0.66418,0.27766 -0.96812,0.078 -2.9008,-1.9048 -6.85308,-1.55964 -9.37749,0.96477 -2.98821,2.9036 -2.98821,7.63961 -0.0564,10.54321 2.5249,2.5249 6.47815,2.86978 9.37902,0.96372 0.30513,-0.20046 0.71233,-0.18558 0.97735,0.0655 z m 1.30091,-1.2715 c 0.30603,0.32308 0.82859,0.30512 1.07684,-0.0642 2.01981,-3.00477 2.01122,-6.97165 -0.0257,-9.96818 -0.23868,-0.3511 -0.73476,-0.37457 -1.03499,-0.0744 -0.25859,0.25866 -0.27794,0.66845 -0.075,0.97273 1.6393,2.45811 1.63685,5.6553 -0.007,8.15449 -0.20116,0.30582 -0.18544,0.71386 0.0663,0.97958 z"
   style="fill:#46b549;fill-rule:nonzero;stroke-width:0.0698702"
   id="path2" />
        </g>
    </g>
</svg>
