<?xml version="1.0" encoding="UTF-8" standalone="no"?>
<svg
   width="205.76633"
   height="136.09857"
   viewBox="0 0 205.76633 136.09857"
   version="1.1"
   xml:space="preserve"
   style="clip-rule:evenodd;fill-rule:evenodd;stroke-linejoin:round;stroke-miterlimit:2"
   id="svg3"
   xmlns="http://www.w3.org/2000/svg"
   xmlns:svg="http://www.w3.org/2000/svg"><defs
   id="defs3" />
    <g
   transform="matrix(3.98978,0,0,3.98978,-407.2272,-444.36997)"
   id="g3">
        <path
   d="m 109.81954,143.09456 c -0.0292,0.007 -0.0598,0.007 -0.0889,0 -0.0759,-0.0221 -0.13302,-0.0855 -0.1475,-0.1632 -0.0817,-0.51838 2.16928,-5.28658 3.20523,-7.13893 0.51918,-0.92024 4.40679,-3.461 7.02724,-4.70683 0.23383,-0.11048 1.74871,-0.83753 1.79499,-0.75462 0.0463,0.0827 -1.36757,1.18304 -1.44143,1.24583 -2.30491,1.84711 -6.42555,6.67951 -8.57673,9.42875 -1.36999,1.75153 -1.62052,2.05841 -1.77286,2.089 z"
   style="fill-rule:nonzero;stroke-width:0.201233"
   id="path1" />
        <path
   d="m 133.41144,117.59738 c 3.6232,-0.11329 5.53169,0.92044 6.4811,1.84128 0.7671,0.68359 1.22993,1.64629 1.28467,2.67237 0.0246,1.3714 -1.45994,1.78252 -2.34758,2.03104 -0.11973,0.0306 -0.26442,0.0706 -0.38415,0.11048 0.61295,0.2449 2.01916,0.68419 3.28492,1.07699 5.26404,1.63824 7.49189,2.45464 7.68104,3.16358 0.0403,0.1636 -0.0117,0.33666 -0.13522,0.45116 -0.28274,0.23625 -0.81721,0.19621 -1.70867,0.0461 l -0.12899,-0.0215 c -9.14542,-1.45431 -15.39912,-1.34987 -15.46351,-1.34987 -16.77877,0.25456 -25.35591,12.40136 -28.17659,16.39381 -0.74073,1.05245 -1.03574,1.46859 -1.3074,1.47604 -0.0787,-10e-4 -0.15495,-0.0272 -0.21834,-0.0738 -0.13845,-0.11652 -0.21431,-0.29179 -0.20425,-0.4725 -0.0612,-1.89319 3.92222,-13.08957 12.40297,-19.45013 3.52881,-2.65003 9.52695,-5.33306 18.15922,-3.22113 -0.49342,-0.52924 -0.77052,-1.2249 -0.77615,-1.94833 -2.53533,0.33123 -7.0683,-0.0306 -10.29607,-0.45116 -2.77499,-0.37128 -7.46452,-1.1259 -7.76556,-2.19384 -0.0646,-0.23343 0.0306,-0.48477 0.62986,-0.83471 2.69651,-1.5833 6.56702,-1.92681 6.56702,-1.92681 10.91284,-1.05325 12.42168,2.68102 12.42168,2.68102 z"
   style="fill-rule:nonzero;stroke-width:0.201233"
   id="path2" />
        <path
   d="m 121.48157,114.02249 c 0,0 -3.29759,-1.93948 -2.76614,-2.45464 0.53166,-0.51515 6.57024,0 10.54117,1.70283 3.97092,1.70263 4.22226,3.60207 4.22226,3.60207 -1.29393,-2.11697 -4.7022,-3.42438 -11.99749,-2.85026 z m 28.17759,12.39291 c -0.59001,0.0183 -1.10919,0.0278 -1.89279,0.0408 -0.19258,-0.002 -0.38315,-0.0396 -0.56265,-0.10968 l -5.0459,-1.60161 c -0.14751,-0.0461 -1.10638,-0.35578 -1.02146,-0.48175 0.0851,-0.12617 0.96793,-0.11953 1.12167,-0.11349 h 0.34109 c 6.19233,0.18111 9.83383,0.61195 10.86796,1.27923 0.13825,0.0771 0.20506,0.24128 0.15978,0.39301 -0.0559,0.22518 -0.1141,0.47974 -3.9677,0.59344 z m -39.47619,1.84147 c -0.1634,0.0312 -0.33244,0.0131 -0.48537,-0.0523 -0.25497,-0.10444 -0.3751,-0.30667 -0.61296,-0.61194 -0.61275,-0.74859 -0.86047,-1.59538 -0.66064,-2.2029 0.1312,-0.37489 0.44995,-0.65481 0.83873,-0.73631 1.2078,-0.30668 2.56914,0.1632 3.07282,0.73631 0.40851,0.44875 0.22156,0.59525 -0.30708,1.03414 -0.30889,0.25778 -0.60148,0.53467 -0.87596,0.82867 -0.44875,0.45519 -0.61215,0.82968 -0.96954,1.00435 z"
   style="fill-rule:nonzero;stroke-width:0.201233"
   id="path3" />
    </g>
</svg>
