<svg width="48" height="48" fill="none" xmlns="http://www.w3.org/2000/svg"><g clip-path="url(#a)"><path d="M47.993 0 31.994 16H21.33a5.334 5.334 0 0 0-5.053 7.046 5.322 5.322 0 0 0 1.278 2.053 5.315 5.315 0 0 0 3.773 1.567l-5.333 5.332A15.95 15.95 0 0 1 7.4 29.497C2.947 26.654-.004 21.673-.004 15.999-.004 7.162 7.16 0 15.996 0h31.997Z" fill="#B2FE92"/><path d="M47.993 31.999c0 8.837-7.162 16-15.999 16H-.004l16-16h10.666a5.333 5.333 0 0 0 5.332-5.332c0-.076 0-.15-.004-.224 0-.052-.004-.1-.008-.15 0-.012 0-.022-.004-.036a.81.81 0 0 0-.008-.098c0-.028-.004-.056-.008-.084-.004-.028-.006-.06-.012-.088 0-.018-.004-.036-.006-.052l-.02-.14c0-.004 0-.008-.004-.012-.01-.06-.02-.117-.034-.177 0-.018-.006-.036-.012-.054a5.805 5.805 0 0 0-.04-.18l-.01-.036a5.232 5.232 0 0 0-.465-1.19c-.048-.09-.1-.179-.15-.265a5.346 5.346 0 0 0-.222-.33c-.018-.025-.036-.051-.056-.075a2.587 2.587 0 0 0-.096-.124 2.294 2.294 0 0 0-.091-.114c-.044-.052-.09-.104-.136-.156a5.313 5.313 0 0 0-3.944-1.744l5.332-5.332c.104 0 .208 0 .312.004.078 0 .156.004.236.006a12.973 12.973 0 0 1 .835.052 14.345 14.345 0 0 1 1.308.164l.21.036c.016.004.034.004.05.01a13.532 13.532 0 0 1 .627.127l.072.018c.118.028.238.056.354.086.004 0 .008 0 .012.004.124.032.246.066.368.1.125.036.253.074.377.114a9.542 9.542 0 0 1 .384.124c.11.038.222.076.331.118.017.004.032.012.048.018.116.042.232.084.346.132a20.672 20.672 0 0 1 .671.282 13.6 13.6 0 0 1 .748.359c.116.06.23.118.341.18.114.06.226.124.338.188.112.064.222.13.334.195.101.062.205.124.305.188l.028.018a16.846 16.846 0 0 1 1.249.891c.092.072.182.144.272.22l.045.036c.29.24.57.49.842.75.091.09.183.177.275.269.092.092.18.182.27.276.088.091.174.185.262.28.152.167.301.337.445.51.032.037.062.077.092.115a15.08 15.08 0 0 1 .885 1.187c.072.105.142.213.214.321.068.108.136.214.202.324l.038.064c.054.09.108.18.16.271.064.112.128.224.187.338a17.38 17.38 0 0 1 .691 1.44 21.416 21.416 0 0 1 .246.626c.018.046.036.094.052.142a11.37 11.37 0 0 1 .222.661c.036.108.068.218.098.326.01.028.018.058.026.085.032.114.062.228.092.342 0 .004.004.008.004.012a19.1 19.1 0 0 1 .188.811c.02.096.036.192.054.29.02.102.036.204.052.306l.036.223c.012.09.026.18.035.27a12.465 12.465 0 0 1 .052.452v.004c.014.13.026.257.036.387a11.095 11.095 0 0 1 .03.458c.006.118.01.235.012.353v.054c.004.128.004.256.004.384l-.006-.008Z" fill="#078465"/></g><defs><clipPath id="a"><path fill="#fff" d="M0 0h48v48H0z"/></clipPath></defs></svg>