<?xml version="1.0" encoding="UTF-8" standalone="no"?>
<svg
   width="47.999786"
   height="48.000038"
   viewBox="0 0 47.999786 48.000038"
   version="1.1"
   xml:space="preserve"
   style="clip-rule:evenodd;fill-rule:evenodd;stroke-linejoin:round;stroke-miterlimit:2"
   id="svg1"
   xmlns="http://www.w3.org/2000/svg"
   xmlns:svg="http://www.w3.org/2000/svg"><defs
   id="defs1" />
    <g
   transform="matrix(4.11463,0,0,4.11463,-503.97271,-503.98569)"
   id="g1">
        <path
   d="m 131.7711,123.62074 1.00584,-1.00584 c 0.17147,-0.17147 0.44995,-0.17152 0.62147,-5e-5 l 0.62142,0.62147 c 0.17152,0.17147 0.17147,0.44996 0,0.62147 v -5e-5 l -1.0058,1.0058 c 0.71316,0.96764 1.13471,2.16277 1.13471,3.45563 0,1.29281 -0.42155,2.48798 -1.13447,3.45529 l 1.00589,1.00589 c 0.17147,0.17147 0.17147,0.44991 -5e-5,0.62143 l -0.62147,0.62146 c -0.17147,0.17147 -0.4499,0.17147 -0.62137,0 l -1.00589,-1.00589 c -0.96746,0.71307 -2.16263,1.13457 -3.45544,1.13457 -1.29286,0 -2.48798,-0.4215 -3.45539,-1.13452 l -1.00594,1.00594 c -0.17147,0.17151 -0.4499,0.17151 -0.62142,0 l -0.62147,-0.62147 c -0.17147,-0.17147 -0.17147,-0.44991 0,-0.62138 l 1.00594,-1.00593 c -0.71302,-0.96741 -1.13452,-2.16258 -1.13452,-3.45539 0,-1.29286 0.4215,-2.48799 1.13457,-3.45549 l -1.00585,-1.00584 c -0.17147,-0.17147 -0.17151,-0.44996 -4e-5,-0.62147 l 0.62146,-0.62142 c 0.17147,-0.17152 0.44996,-0.17147 0.62147,0 h -4e-5 l 1.00589,1.00589 c 0.96736,-0.71297 2.16248,-1.13447 3.45534,-1.13447 1.29281,0 2.48798,0.4215 3.45516,1.13437 z m -3.45516,0.6233 c 2.24911,0 4.07508,1.82597 4.07508,4.07513 0,2.24911 -1.82597,4.07507 -4.07508,4.07507 -2.24916,0 -4.07512,-1.82596 -4.07512,-4.07507 0,-2.24916 1.82596,-4.07513 4.07512,-4.07513 z"
   style="fill:#959595;stroke-width:0.046875"
   id="path1" />
    </g>
</svg>
