<svg xmlns="http://www.w3.org/2000/svg" width="56" height="48" fill="none"><path fill="#006F9A" d="M47.943 13.59c-1.845-3.03-4.4-5.348-7.712-6.957-3.312-1.656-7.145-2.508-11.45-2.508H10.706v16.468H5.313v6.152h5.393v17.13h18.075c4.305 0 8.138-.804 11.45-2.46 3.312-1.657 5.867-3.976 7.712-6.957 1.846-2.981 2.745-6.483 2.745-10.458 0-3.975-.9-7.43-2.745-10.41ZM37.818 33.037c-2.366 2.177-5.536 3.313-9.51 3.313h-8.375v-9.606h9.936v-6.152h-9.936v-8.897h8.375c3.974 0 7.144 1.089 9.51 3.313 2.366 2.224 3.549 5.205 3.549 8.991 0 3.786-1.183 6.814-3.55 9.038Z"/></svg>