<svg xmlns="http://www.w3.org/2000/svg" width="48" height="48" fill="none"><g fill="#C82020" clip-path="url(#a)"><path d="M45.996 24.089c0 2.948-.79 5.71-2.165 8.092a16.25 16.25 0 0 1-5.927 5.927l-.254.143a16.105 16.105 0 0 1-7.836 2.022H13.632l3.034-8.092H7.562l3.034-8.092h19.218l-3.033 8.092h3.033a8.093 8.093 0 0 0 7.836-6.07 8.093 8.093 0 0 0-7.838-10.115H13.63l3.033-8.092h13.149c2.948 0 5.71.79 8.092 2.166a16.251 16.251 0 0 1 5.927 5.927 16.118 16.118 0 0 1 2.165 8.092Zm-35.403-.001h-9.1l3.033-8.092h9.103l-3.036 8.092Z"/></g><defs><clipPath id="a"><path fill="#fff" d="M0 0h48v48H0z"/></clipPath></defs></svg>