<?xml version="1.0" encoding="UTF-8" standalone="no"?>
<svg
   width="48.000031"
   height="34.910076"
   viewBox="0 0 48.000031 34.910076"
   version="1.1"
   xml:space="preserve"
   style="clip-rule:evenodd;fill-rule:evenodd;stroke-linejoin:round;stroke-miterlimit:2"
   id="svg1"
   xmlns="http://www.w3.org/2000/svg"
   xmlns:svg="http://www.w3.org/2000/svg"><defs
   id="defs1" />
    <g
   transform="matrix(4.3809,0,0,4.3809,-512.11262,-543.29801)"
   id="g1">
        <path
   d="m 127.85333,127.99952 c 0,0.72577 -0.19444,1.40574 -0.53321,1.99219 -0.35034,0.60549 -0.8535,1.10864 -1.45898,1.45899 -0.0211,0.0118 -0.0415,0.0235 -0.0625,0.0353 -0.57159,0.31706 -1.22925,0.49786 -1.92905,0.49786 h -3.98372 l 0.74682,-1.99214 h -2.2411 l 0.74681,-1.99219 h 4.73119 l -0.74681,1.99219 h 0.74681 c 0.92831,0 1.70794,-0.63478 1.92905,-1.49433 0.0417,-0.16265 0.0627,-0.32995 0.0625,-0.49786 0,-1.09982 -0.89175,-1.99218 -1.99219,-1.99218 h -3.98376 l 0.74686,-1.99219 h 3.2369 c 0.72577,0 1.40574,0.19444 1.99219,0.5332 0.60548,0.35035 1.10864,0.8535 1.45898,1.45899 0.33877,0.58584 0.53321,1.26637 0.53321,1.99218 z m -8.71617,0 h -2.24049 l 0.74681,-1.99218 h 2.24114 z"
   style="fill:#c82020;fill-rule:nonzero;stroke-width:0.046875"
   id="path1" />
    </g>
</svg>
