<?xml version="1.0" encoding="UTF-8" standalone="no"?>
<svg
   width="47.999992"
   height="60.048061"
   viewBox="0 0 47.999992 60.048061"
   version="1.1"
   xml:space="preserve"
   style="clip-rule:evenodd;fill-rule:evenodd;stroke-linejoin:round;stroke-miterlimit:2"
   id="svg1"
   xmlns="http://www.w3.org/2000/svg"
   xmlns:svg="http://www.w3.org/2000/svg"><defs
   id="defs1" />
    <g
   transform="matrix(4.67367,0,0,4.67367,-903.15093,-1776.2396)"
   id="g1">
        <path
   d="m 193.24235,388.62064 0.5949,-1.42941 h 0.62798 c -0.0166,-0.25341 -0.0248,-0.49854 -0.0248,-0.73538 0,-0.31952 0.0138,-0.61694 0.0413,-0.89238 h -1.23939 l 0.5949,-1.42941 h 0.93368 c 0.87029,-2.72109 2.83126,-4.08164 5.88291,-4.08164 1.00249,0 1.95545,0.12668 2.85881,0.38004 v 1.80127 c -0.84825,-0.36911 -1.74892,-0.5536 -2.70181,-0.5536 -1.82877,0 -3.00483,0.818 -3.5281,2.45393 h 5.445 l -0.5949,1.42941 h -5.2054 c -0.0276,0.17626 -0.0413,0.41317 -0.0413,0.71059 0,0.34154 0.011,0.64725 0.033,0.91717 h 4.53611 l -0.58662,1.42941 h -3.6355 c 0.39107,0.9915 0.86758,1.68141 1.4294,2.06973 0.56188,0.38837 1.36331,0.5825 2.4044,0.5825 0.74361,0 1.55885,-0.17627 2.4457,-0.5288 v 1.69381 c -0.84279,0.30846 -1.84528,0.4627 -3.00752,0.4627 -3.05717,0 -4.99059,-1.42665 -5.8003,-4.27994 z"
   style="fill:#003f20;fill-rule:nonzero;stroke-width:0.0587556"
   id="path1" />
    </g>
</svg>
