<svg xmlns="http://www.w3.org/2000/svg" xml:space="preserve" style="fill-rule:evenodd;clip-rule:evenodd;stroke-linejoin:round;stroke-miterlimit:2" viewBox="0 0 48 48"><path d="M1573.26 1672.25a103.55 103.55 0 0 1 29.95 82.04 103.523 103.523 0 0 1-43.47 75.74C1399.42 1936.96 1207.01 2000 1000 2000c-207.012 0-399.418-63.04-559.046-170.95a102.326 102.326 0 0 1-42.976-74.88 102.349 102.349 0 0 1 29.6-81.11l-.823-.82c45.448-45.42 116.431-52.97 170.415-18.12C713.651 1728.14 851.976 1770 1000 1770c148.02 0 286.35-41.86 403.79-114.39 53.28-34.39 123.34-26.94 168.19 17.9 1.27-1.27 1.27-1.27 1.28-1.26Zm98.99-1245.508a103.504 103.504 0 0 1 157.78 13.521C1936.96 600.582 2000 792.988 2000 1000c0 207.01-63.04 399.42-170.95 559.05a102.319 102.319 0 0 1-74.88 42.97 102.331 102.331 0 0 1-81.11-29.6l-.82.83c-45.42-45.45-52.97-116.44-18.12-170.42C1728.14 1286.35 1770 1148.02 1770 1000c0-148.024-41.86-286.349-114.39-403.792-34.39-53.281-26.94-123.337 17.9-168.183-1.27-1.27-1.27-1.27-1.26-1.283ZM170.948 440.954a102.337 102.337 0 0 1 155.989-13.376l.823-.823c45.422 45.448 52.971 116.431 18.124 170.415C271.859 713.651 230 851.976 230 1000c0 148.02 41.859 286.35 114.393 403.79 34.393 53.29 26.93 123.35-17.916 168.2l1.27 1.27a103.544 103.544 0 0 1-82.035 29.95 103.52 103.52 0 0 1-75.743-43.47C63.039 1399.42 0 1207.01 0 1000c0-207.012 63.039-399.418 170.948-559.046ZM1000 370c347.71 0 630 282.294 630 630 0 347.71-282.29 630-630 630-347.706 0-630-282.29-630-630 0-347.706 282.294-630 630-630Zm-573.258-42.253a103.498 103.498 0 0 1 13.521-157.778C600.582 63.039 792.988 0 1000 0c207.01 0 399.42 63.039 559.05 170.948a102.33 102.33 0 0 1 42.97 74.883 102.32 102.32 0 0 1-29.6 81.106l.83.823c-45.45 45.422-116.44 52.971-170.42 18.124C1286.35 271.859 1148.02 230 1000 230c-148.024 0-286.349 41.859-403.792 114.393-53.281 34.389-123.337 26.932-168.183-17.903-1.27 1.27-1.27 1.27-1.283 1.257Z" style="fill:#208e7a" transform="scale(.024)"/><path d="M561 1044.09s-38.404-.03-38.404 53.77c0 56.23 34.783 57.82 47.945 57.82h59.226c27.263 97.77 76.619 172.04 148.066 222.8 71.448 50.77 154.647 76.15 249.597 76.15 40.43 0 77.32-3.52 110.7-10.57 33.37-7.06 61.57-16.46 84.61-28.21 23.03-11.75 40.89-25.38 53.58-40.89 12.69-15.51 19.04-32.2 19.04-50.06 0-18.8-4.47-35.37-15.51-47.95-28.85-32.86-78.85-2.86-117.04 11.99-30.44 11.83-67.69 19.04-112.82 19.04-53.583 0-101.058-12.7-142.423-38.08-41.364-25.38-72.858-63.46-94.48-114.22l317.913-1.59s50.26-10 50.14-56.23c-.14-53.77-50.14-56.4-47.95-56.4L561 1044.09Zm0-84.09s-38.404.024-38.404-53.775c0-56.225 34.783-57.816 47.945-57.816h59.226c27.263-97.771 76.619-172.039 148.066-222.805 71.448-50.765 154.647-76.148 249.597-76.148 40.43 0 77.32 3.526 110.7 10.576 33.37 7.051 61.57 16.452 84.61 28.203 23.03 11.752 40.89 25.383 53.58 40.895 12.69 15.511 19.04 32.198 19.04 50.06 0 18.802-4.47 35.366-15.51 47.945C1251 760 1201 730 1162.81 715.149c-30.44-11.832-67.69-19.037-112.82-19.037-53.583 0-101.058 12.691-142.423 38.074-41.364 25.383-72.858 63.457-94.48 114.223L1131 850s50.26 10 50.14 56.225c-.14 53.775-50.14 56.406-47.95 56.406L561 960Z" style="fill:#fff;fill-rule:nonzero" transform="matrix(.024 0 0 .024 -.096 -.049)"/></svg>