<svg width="48" height="48" fill="none" xmlns="http://www.w3.org/2000/svg"><g clip-path="url(#a)"><path d="M42.352 10.775H21.637c-.266 0-.532 0-.798.008-.786.018-1.54.056-2.276.119l-.197.019c-4.252.377-7.619 1.541-10.11 3.486-2.971 2.36-4.455 5.725-4.455 10.094 0 4.37 1.484 7.733 4.455 10.099 3.087 2.416 7.55 3.625 13.38 3.625 5.83 0 10.321-1.209 13.383-3.625 2.971-2.366 4.461-5.726 4.461-10.099 0-2.764-.596-5.124-1.793-7.086-.007-.013-.013-.02-.02-.03a.143.143 0 0 0-.025-.04l.026-.011 5.591-3.146c1.64-.926.982-3.413-.907-3.413Zm-10.39 6.968L29.56 31.26c-.105.59-.672 1.069-1.268 1.069h-3.36c-.595 0-.992-.48-.887-1.07l.77-4.335h-7.212l-.77 4.335c-.105.59-.672 1.07-1.269 1.07h-3.358c-.597 0-.994-.48-.888-1.07l2.4-13.516c.104-.592.673-1.07 1.268-1.07h3.36c.595 0 .991.478.888 1.07l-.77 4.336h7.212l.77-4.336c.104-.592.672-1.07 1.267-1.07h3.36c.595 0 .992.478.888 1.07Z" fill="#2BCCB9"/><path d="M47.804 11.173C47.146 8.673 44.953 7 42.354 7H21.638c-.297 0-.594 0-.893.006-.905.025-1.73.07-2.553.14l-.167.011c-4.967.447-9.05 1.88-12.144 4.297C1.977 14.558 0 18.944 0 24.501s1.977 9.941 5.9 13.062C9.66 40.51 14.958 42 21.638 42s12.012-1.49 15.76-4.454c3.904-3.11 5.888-7.496 5.888-13.045 0-1.99-.267-3.845-.788-5.545l2.638-1.485c2.264-1.271 3.335-3.808 2.668-6.298Zm-4.543 3.014-5.591 3.146-.026.012a.15.15 0 0 1 .026.039c.005.011.011.017.02.03 1.196 1.963 1.792 4.323 1.792 7.087 0 4.373-1.49 7.732-4.462 10.098-3.061 2.417-7.517 3.626-13.382 3.626-5.865 0-10.293-1.21-13.38-3.626-2.972-2.365-4.455-5.725-4.455-10.098 0-4.373 1.483-7.735 4.455-10.095 2.49-1.944 5.857-3.109 10.11-3.485l.197-.02c.735-.062 1.49-.1 2.276-.118.266-.008.531-.008.797-.008h20.716c1.888 0 2.547 2.486.907 3.412Z" fill="#073744"/><path d="M31.077 16.674h-3.36c-.595 0-1.164.477-1.267 1.07l-.77 4.335h-7.213l.77-4.336c.104-.592-.293-1.07-.887-1.07h-3.36c-.595 0-1.164.478-1.268 1.07l-2.4 13.517c-.106.59.291 1.069.887 1.069h3.359c.596 0 1.163-.48 1.269-1.07l.77-4.335h7.212l-.77 4.336c-.106.59.291 1.069.888 1.069h3.358c.597 0 1.163-.48 1.27-1.07l2.4-13.516c.104-.592-.293-1.07-.888-1.07Z" fill="#073744"/></g><defs><clipPath id="a"><path fill="#fff" transform="translate(0 7)" d="M0 0h48v35H0z"/></clipPath></defs></svg>