<?xml version="1.0" encoding="UTF-8" standalone="no"?>
<svg
   width="48.000011"
   height="47.929901"
   viewBox="0 0 48.000011 47.929901"
   version="1.1"
   xml:space="preserve"
   style="clip-rule:evenodd;fill-rule:evenodd;stroke-linejoin:round;stroke-miterlimit:2"
   id="svg1"
   xmlns="http://www.w3.org/2000/svg"
   xmlns:svg="http://www.w3.org/2000/svg"><defs
   id="defs1" />
    <g
   transform="matrix(74.7882,0,0,74.7882,24.000003,535.21709)"
   id="g1">
        <path
   d="m -0.06590625,-6.858875 -0.11995312,-0.2083125 c -0.0123281,-0.016172 -0.0257813,-0.031453 -0.0402656,-0.04575 -0.0167812,-0.016781 -0.0358594,-0.025172 -0.0572344,-0.025172 h -0.022875 v -0.018328 h 0.27464063 v 0.018328 h -0.022875 c -0.021375,0 -0.0328125,0.00839 -0.03435938,0.025172 -0.0015469,0.015703 0.0013125,0.031547 0.00825,0.04575 L 0.0165,-6.8987188 0.13551562,-7.0690156 c 0.007594,-0.014016 0.0114375,-0.028688 0.0114375,-0.043922 0,-0.016781 -0.0106875,-0.025172 -0.0320625,-0.025172 H 0.09201563 v -0.018328 h 0.22889062 v 0.018328 h -0.0229219 c -0.0213281,0 -0.0425625,0.00839 -0.0636094,0.025172 -0.0173906,0.013734 -0.0308438,0.027 -0.0402656,0.039797 l -0.005953,0.00825 -0.14376563,0.2060156 h 0.27651563 v 0.04575 h -0.255 l 0.12178125,0.2110312 c 0.008859,0.013734 0.0211875,0.028078 0.0370781,0.043031 0.0177188,0.016781 0.0372188,0.025172 0.0585938,0.025172 h 0.022875 v 0.018328 H 0.03159375 v -0.018328 h 0.022875 c 0.021375,0 0.0328125,-0.00839 0.03435938,-0.025172 C 0.090375,-6.575 0.087375,-6.5910313 0.08010938,-6.6052813 L -0.0165,-6.7728125 -0.13228125,-6.6071094 c -0.009469,0.01425 -0.0145781,0.030937 -0.0146719,0.048047 0,0.016781 0.0106875,0.025172 0.0320625,0.025172 h 0.02287499 v 0.018328 h -0.22889062 v -0.018328 h 0.0229219 c 0.0213281,0 0.0419531,-0.00839 0.0617813,-0.025172 0.0186094,-0.015563 0.0340312,-0.030656 0.0462187,-0.045328 l 0.14601562,-0.2087344 h -0.2769375 v -0.04575 z"
   style="fill-rule:nonzero;stroke-width:0.046875"
   id="path1" />
    </g>
</svg>
