<?xml version="1.0" encoding="UTF-8" standalone="no"?>
<svg
   width="47.999844"
   height="48.089703"
   viewBox="0 0 47.999844 48.089703"
   version="1.1"
   xml:space="preserve"
   style="clip-rule:evenodd;fill-rule:evenodd;stroke-linejoin:round;stroke-miterlimit:2"
   id="svg7"
   xmlns="http://www.w3.org/2000/svg"
   xmlns:svg="http://www.w3.org/2000/svg"><defs
   id="defs7" />
    <g
   transform="matrix(16,0,0,16,24.964363,24.044851)"
   id="g7">
        <g
   transform="translate(-32,-32)"
   id="g6">
            <clipPath
   id="_clip1">
                <rect
   x="0"
   y="0"
   width="64"
   height="64"
   id="rect1" />
            </clipPath>
            <g
   clip-path="url(#_clip1)"
   id="g5">
                <g
   transform="matrix(0.632461,0,0,0.64,-188.632,0)"
   id="g4">
                    <g
   id="g3">
                        <g
   id="g2">
                            <g
   id="g1">
                                <path
   d="m 346.94102,51.408878 h 0.002 l -0.38758,0.939252 h 0.93925 l 0.38758,-0.939252 h -0.002 l 0.38759,-0.939252 h -0.93926 z m 4.18216,-2.34813 c 0,0.777231 -0.63165,1.408878 -1.40888,1.408878 h -1.44644 l 0.39918,-0.939252 h 1.04726 c 0.2583,0 0.46963,-0.211332 0.46963,-0.469626 0,-0.258294 -0.21133,-0.469626 -0.46963,-0.469626 h -0.64808 l 0.38979,-0.939252 h 0.25829 c 0.77723,0 1.40888,0.631647 1.40888,1.408878 z m -3.41653,0.469626 h -0.93925 l -0.38758,0.939252 h 0.93925 z m 0.66344,-1.878504 h -0.93925 l -0.38758,0.939252 h 0.93925 z"
   style="fill:#77bb65;fill-rule:nonzero;stroke-width:0.0469626"
   id="path1" />
                            </g>
                        </g>
                    </g>
                </g>
            </g>
        </g>
    </g>
</svg>
