<?xml version="1.0" encoding="UTF-8" standalone="no"?>
<svg
   width="48.002323"
   height="49.548321"
   viewBox="0 0 48.002323 49.548321"
   version="1.1"
   xml:space="preserve"
   style="clip-rule:evenodd;fill-rule:evenodd;stroke-linejoin:round;stroke-miterlimit:2"
   id="svg1"
   xmlns="http://www.w3.org/2000/svg"
   xmlns:svg="http://www.w3.org/2000/svg"><defs
   id="defs1" />
    <g
   transform="matrix(4,0,0,4,-472.0002,-487.22596)"
   id="g1">
        <path
   d="m 129.97445,125.4768 c -0.0172,-0.15435 -0.0431,-0.30759 -0.0773,-0.45904 -0.0355,-0.15552 -0.0801,-0.30886 -0.13369,-0.4591 -0.056,-0.15673 -0.12135,-0.31002 -0.19553,-0.45905 -0.0793,-0.15818 -0.16853,-0.31113 -0.26734,-0.45793 -0.0697,-0.10438 -0.14453,-0.20517 -0.22427,-0.30204 -0.0434,-0.0536 -0.0884,-0.10601 -0.13481,-0.15706 -0.10195,-0.11453 -0.21078,-0.22273 -0.32589,-0.324 -0.0515,-0.0468 -0.10451,-0.0919 -0.1591,-0.13505 -0.0973,-0.0787 -0.19833,-0.15276 -0.3027,-0.22185 -0.12988,-0.0871 -0.26492,-0.16636 -0.40433,-0.23725 -0.0188,-0.0102 -0.038,-0.0197 -0.0574,-0.0285 -0.14966,-0.0745 -0.30392,-0.13941 -0.46176,-0.19442 -0.15082,-0.0532 -0.30465,-0.0976 -0.46069,-0.13288 -0.30315,-0.0679 -0.61288,-0.10219 -0.92357,-0.10214 h -6.69256 c -0.24944,-1.5e-4 -0.49225,0.0808 -0.69165,0.23066 -0.0874,0.064 -0.16485,0.14061 -0.22984,0.22732 -0.15067,0.19786 -0.23221,0.43984 -0.23197,0.68855 v 8.25886 c 0,0.0769 0.003,0.15377 0.01,0.22955 0.011,0.1543 0.0346,0.3075 0.0706,0.45793 0.0752,0.31989 0.20409,0.62477 0.38114,0.90165 0.003,0.006 0.007,0.0113 0.0111,0.0165 0.1051,0.16504 0.22689,0.31887 0.36339,0.45904 0.0276,0.0297 0.0564,0.0582 0.0862,0.0856 l 0.001,10e-4 c 0.14081,0.13553 0.29516,0.25621 0.46064,0.3602 0.005,0.004 0.0108,0.008 0.0166,0.011 0.14153,0.0894 0.29047,0.1666 0.44516,0.23066 0.14966,0.0619 0.30411,0.11148 0.46181,0.14826 0.1514,0.0358 0.30547,0.0593 0.46064,0.0703 h 10e-4 v 0.01 h 3.92298 v -0.004 c 0.0648,-0.0122 0.12339,-0.0468 0.16543,-0.0976 0.042,-0.0507 0.0648,-0.11449 0.0644,-0.18025 6.3e-4,-0.0645 -0.0217,-0.12721 -0.063,-0.1768 -0.0287,-0.036 -0.0659,-0.0643 -0.10824,-0.0824 -0.0196,-0.0107 -0.0391,-0.0217 -0.0585,-0.0329 -0.0783,-0.0438 -0.15537,-0.0899 -0.2309,-0.13839 -0.0795,-0.0494 -0.15576,-0.10321 -0.23086,-0.15812 -0.0213,-0.0144 -0.042,-0.0298 -0.0619,-0.0462 -0.0576,-0.0431 -0.1139,-0.0878 -0.16901,-0.13398 -0.0507,-0.042 -0.10045,-0.0852 -0.14913,-0.12958 -0.0694,-0.0627 -0.1365,-0.12784 -0.2011,-0.19548 -0.0255,-0.0252 -0.0502,-0.0511 -0.074,-0.078 -0.0133,-0.0132 -0.0254,-0.0274 -0.0376,-0.0406 -0.0985,-0.10873 -0.19147,-0.22234 -0.27851,-0.34045 -0.0647,-0.0869 -0.12586,-0.17628 -0.18344,-0.26797 -0.04,-0.0627 -0.0783,-0.12639 -0.11487,-0.19108 -0.0841,-0.14807 -0.15934,-0.30097 -0.22534,-0.45794 -0.0447,-0.10475 -0.0849,-0.2114 -0.12044,-0.31959 -0.0163,-0.046 -0.0311,-0.0925 -0.0442,-0.1395 -0.0233,-0.0758 -0.044,-0.15233 -0.0619,-0.22955 -0.0188,-0.076 -0.0354,-0.15257 -0.0497,-0.22955 -0.0282,-0.15184 -0.0485,-0.30508 -0.0608,-0.45905 -0.004,-0.0559 -0.008,-0.11192 -0.01,-0.168 -0.003,-0.0633 -0.005,-0.12663 -0.004,-0.19001 v -1.47717 h -1.53232 c -0.0661,2.5e-4 -0.13012,-0.0226 -0.18112,-0.0645 -0.0508,-0.0418 -0.0854,-0.10026 -0.0974,-0.16496 -0.0151,-0.0747 0.002,-0.15242 0.0464,-0.21416 l 0.01,-0.0143 0.13921,-0.19771 0.084,-0.1186 0.10055,-0.14279 0.2762,-0.39314 0.0464,-0.0659 0.32371,-0.45909 0.0917,-0.13065 0.23096,-0.3284 0.23085,-0.32724 0.0917,-0.1307 0.13921,-0.19771 0.18465,-0.26129 0.0463,-0.066 0.27731,-0.39314 0.18339,-0.26139 0.13921,-0.19766 0.0906,-0.12852 c 0.0261,-0.0374 0.0609,-0.0678 0.10137,-0.0888 0.0822,-0.0427 0.18024,-0.0427 0.2624,0 0.0405,0.021 0.0752,0.0515 0.10137,0.0888 l 0.0906,0.12852 0.1381,0.19659 0.1845,0.26246 0.0464,0.0648 0.23086,0.32836 0.0464,0.0659 0.18465,0.26134 0.13921,0.19771 0.0906,0.12958 0.23201,0.32836 0.22979,0.32729 0.0928,0.1318 0.32371,0.45905 0.0452,0.0648 0.27731,0.39431 0.18464,0.26134 0.13921,0.19766 0.01,0.0143 c 0.0447,0.0617 0.0616,0.13945 0.0464,0.21411 -0.01,0.0504 -0.0333,0.0973 -0.0677,0.13544 -0.0345,0.0383 -0.0786,0.0667 -0.12784,0.082 -0.0272,0.008 -0.0555,0.0121 -0.0839,0.0121 h -1.53121 v 1.3772 c -1.4e-4,0.15764 0.0326,0.31364 0.0961,0.45793 0.0352,0.0809 0.08,0.15726 0.13364,0.22732 0.12049,0.159 0.27944,0.28491 0.46181,0.36576 0.14569,0.0633 0.30295,0.0959 0.4618,0.0956 0.0198,0 0.0398,0 0.0597,-10e-4 0.13437,-0.001 0.26854,-0.009 0.40209,-0.0241 0.15523,-0.0171 0.30939,-0.0428 0.46181,-0.0769 0.15034,-0.0339 0.29864,-0.0764 0.4441,-0.1274 h 0.0165 v -0.005 c 0.15789,-0.055 0.3121,-0.11995 0.46181,-0.19437 0.156,-0.0767 0.30692,-0.16326 0.45184,-0.25921 h 0.01 v -0.007 c 0.16234,-0.10766 0.31669,-0.22693 0.4618,-0.3569 0.035,-0.0306 0.0693,-0.0621 0.10273,-0.0944 0.12745,-0.12073 0.24697,-0.24949 0.35792,-0.3855 0.0199,-0.0242 0.0387,-0.0483 0.0574,-0.0736 0.1141,-0.14555 0.21784,-0.29894 0.31046,-0.45905 0.033,-0.0558 0.0643,-0.11255 0.0939,-0.17022 0.0495,-0.0945 0.0951,-0.19084 0.13698,-0.28888 0.0313,-0.0758 0.0607,-0.15232 0.0884,-0.2295 0.0273,-0.0752 0.052,-0.15145 0.074,-0.22843 0.0435,-0.15097 0.0786,-0.30426 0.10495,-0.4591 0.0259,-0.15189 0.0429,-0.30518 0.0508,-0.45905 h 0.007 v -0.91824 c -1.4e-4,-0.153 -0.009,-0.30585 -0.0255,-0.45789 z"
   style="fill:#3749e7;fill-rule:nonzero;stroke-width:0.0483871"
   id="path1" />
    </g>
</svg>
