<svg width="48" height="48" fill="none" xmlns="http://www.w3.org/2000/svg"><g clip-path="url(#a)"><path d="M47.898 14.223a15.318 15.318 0 0 0-.844-3.558 16.034 16.034 0 0 0-.902-2.004 15.968 15.968 0 0 0-2.386-3.329 14.839 14.839 0 0 0-1.304-1.255c-.207-.183-.42-.357-.636-.523a15.749 15.749 0 0 0-1.21-.86 15.667 15.667 0 0 0-1.848-1.03 16.19 16.19 0 0 0-1.847-.753 16.803 16.803 0 0 0-1.843-.515A17.408 17.408 0 0 0 31.384 0H4.614a4.7 4.7 0 0 0-2.767.894c-.35.248-.66.545-.919.88A4.307 4.307 0 0 0 0 4.444v32.003c0 .298.013.596.04.89a11.125 11.125 0 0 0 1.852 5.332c.42.639.907 1.235 1.453 1.779.11.114.226.225.345.331l.004.005c.563.525 1.18.992 1.843 1.395a11.893 11.893 0 0 0 1.847.936 12.177 12.177 0 0 0 3.69.848h.004V48H26.77v-.017a1.14 1.14 0 0 0 .662-.378c.168-.197.259-.444.257-.699a1.034 1.034 0 0 0-.252-.685 1.11 1.11 0 0 0-.433-.319c-.08-.043-.159-.085-.234-.128-.314-.17-.623-.349-.923-.536-.318-.191-.623-.4-.924-.613a3.255 3.255 0 0 1-.247-.178c-.23-.166-.455-.34-.676-.52a16.568 16.568 0 0 1-1.401-1.26 6.418 6.418 0 0 1-.296-.301c-.053-.051-.102-.107-.15-.158a16.997 16.997 0 0 1-1.115-1.32c-.256-.335-.503-.68-.733-1.038a16.467 16.467 0 0 1-1.361-2.515 15.11 15.11 0 0 1-.482-1.238 7.784 7.784 0 0 1-.177-.54 12.72 12.72 0 0 1-.247-.89 15.343 15.343 0 0 1-.2-.89 16.774 16.774 0 0 1-.3-3.166v-5.724H11.41a1.153 1.153 0 0 1-.724-.25 1.08 1.08 0 0 1-.387-1.073c.032-.142.094-.277.183-.396l.04-.055.556-.766.336-.46.402-.553 1.105-1.524.186-.255 1.295-1.779.366-.506.924-1.273.924-1.268.366-.506.557-.766.739-1.013.185-.255 1.11-1.524.733-1.013.557-.766.362-.498a1.12 1.12 0 0 1 .406-.344 1.168 1.168 0 0 1 1.05 0c.161.082.3.2.405.344l.362.498.552.762.738 1.017.186.251.924 1.273.185.255.739 1.013.556.766.363.502.928 1.273.919 1.268.371.51 1.295 1.78.181.25 1.11 1.528.738 1.013.557.766.04.055a1.043 1.043 0 0 1 .185.83 1.09 1.09 0 0 1-.27.525 1.153 1.153 0 0 1-.848.365h-6.125v5.336a4.281 4.281 0 0 0 .92 2.655 4.694 4.694 0 0 0 1.847 1.418 4.743 4.743 0 0 0 1.847.37c.08 0 .159 0 .238-.004a16.784 16.784 0 0 0 1.609-.094 16.538 16.538 0 0 0 3.624-.792h.066v-.02a16.19 16.19 0 0 0 1.847-.754A16.429 16.429 0 0 0 40.576 32h.04v-.026a16.073 16.073 0 0 0 2.258-1.749c.51-.468.988-.967 1.432-1.494a6.36 6.36 0 0 0 .23-.285c.456-.564.871-1.158 1.241-1.779a15.614 15.614 0 0 0 .923-1.779c.125-.293.244-.587.355-.889a15.574 15.574 0 0 0 .715-2.664c.104-.589.172-1.183.203-1.779H48v-3.558c0-.593-.035-1.185-.102-1.774Z" fill="#3749E7"/></g><defs><clipPath id="a"><path fill="#fff" d="M0 0h48v48H0z"/></clipPath></defs></svg>