<?xml version="1.0" encoding="UTF-8" standalone="no"?>
<svg
   width="47.999992"
   height="64.988754"
   viewBox="0 0 47.999992 64.988754"
   version="1.1"
   xml:space="preserve"
   style="clip-rule:evenodd;fill-rule:evenodd;stroke-linejoin:round;stroke-miterlimit:2"
   id="svg1"
   xmlns="http://www.w3.org/2000/svg"
   xmlns:svg="http://www.w3.org/2000/svg"><defs
   id="defs1" />
    <g
   transform="matrix(4.91778,0,0,4.91778,-2284.7305,-1627.3055)"
   id="g1">
        <path
   d="m 464.58575,340.69953 h 1.62675 V 339.219 h -1.62675 v -1.57191 h 1.62675 v -6.74462 h 3.54595 c 1.42569,0 2.54675,0.35947 3.36317,1.07841 0.81642,0.71893 1.22463,1.72423 1.22463,3.01588 0,0.52397 -0.0792,1.03881 -0.23761,1.5445 -0.15841,0.50569 -0.41126,0.96265 -0.75854,1.37086 -0.34729,0.40821 -0.80119,0.73417 -1.36172,0.97788 -0.56053,0.2437 -1.24291,0.36556 -2.04715,0.36556 h -1.95576 v 1.44397 h 1.82781 v 1.57191 h -1.82781 v 1.84609 h -1.77297 v -1.84609 h -1.62675 z m 5.35548,-3.16211 c 0.51179,0 0.93828,-0.0822 1.27947,-0.24676 0.34119,-0.1645 0.61231,-0.38079 0.81337,-0.64887 0.20106,-0.26808 0.34424,-0.5453 0.42954,-0.83165 0.0853,-0.28636 0.12794,-0.5453 0.12794,-0.77682 0,-0.35338 -0.0822,-0.71894 -0.24675,-1.09669 -0.1645,-0.37775 -0.43258,-0.69457 -0.80424,-0.95046 -0.37165,-0.25589 -0.8743,-0.38384 -1.50794,-0.38384 h -2.04715 v 4.93509 z"
   style="fill:#003f20;fill-rule:nonzero;stroke-width:0.0634656"
   id="path1" />
    </g>
</svg>
