<svg xmlns="http://www.w3.org/2000/svg" xml:space="preserve" style="fill-rule:evenodd;clip-rule:evenodd;stroke-linejoin:round;stroke-miterlimit:2" viewBox="0 0 48 48"><path d="M1573.26 1672.25a103.55 103.55 0 0 1 29.95 82.04 103.523 103.523 0 0 1-43.47 75.74C1399.42 1936.96 1207.01 2000 1000 2000c-207.012 0-399.418-63.04-559.046-170.95a102.326 102.326 0 0 1-42.976-74.88 102.349 102.349 0 0 1 29.6-81.11l-.823-.82c45.448-45.42 116.431-52.97 170.415-18.12C713.651 1728.14 851.976 1770 1000 1770c148.02 0 286.35-41.86 403.79-114.39 53.28-34.39 123.34-26.94 168.19 17.9 1.27-1.27 1.27-1.27 1.28-1.26Zm98.99-1245.508a103.504 103.504 0 0 1 157.78 13.521C1936.96 600.582 2000 792.988 2000 1000c0 207.01-63.04 399.42-170.95 559.05a102.319 102.319 0 0 1-74.88 42.97 102.331 102.331 0 0 1-81.11-29.6l-.82.83c-45.42-45.45-52.97-116.44-18.12-170.42C1728.14 1286.35 1770 1148.02 1770 1000c0-148.024-41.86-286.349-114.39-403.792-34.39-53.281-26.94-123.337 17.9-168.183-1.27-1.27-1.27-1.27-1.26-1.283ZM170.948 440.954a102.337 102.337 0 0 1 155.989-13.376l.823-.823c45.422 45.448 52.971 116.431 18.124 170.415C271.859 713.651 230 851.976 230 1000c0 148.02 41.859 286.35 114.393 403.79 34.393 53.29 26.93 123.35-17.916 168.2l1.27 1.27a103.544 103.544 0 0 1-82.035 29.95 103.52 103.52 0 0 1-75.743-43.47C63.039 1399.42 0 1207.01 0 1000c0-207.012 63.039-399.418 170.948-559.046ZM1000 370c347.71 0 630 282.294 630 630 0 347.71-282.29 630-630 630-347.706 0-630-282.29-630-630 0-347.706 282.294-630 630-630Zm-573.258-42.253a103.498 103.498 0 0 1 13.521-157.778C600.582 63.039 792.988 0 1000 0c207.01 0 399.42 63.039 559.05 170.948a102.33 102.33 0 0 1 42.97 74.883 102.32 102.32 0 0 1-29.6 81.106l.83.823c-45.45 45.422-116.44 52.971-170.42 18.124C1286.35 271.859 1148.02 230 1000 230c-148.024 0-286.349 41.859-403.792 114.393-53.281 34.389-123.337 26.932-168.183-17.903-1.27 1.27-1.27 1.27-1.283 1.257Z" style="fill:#208e7a" transform="scale(.024)"/><path d="M933.212 926.083c-5.697 0-6.52-7.584-6.52-12.96 0-4.992 1.056-8.496 3.168-10.512s4.704-3.024 7.776-3.024h17.568v-59.616c0-3.456 1.008-6.192 3.024-8.208s4.656-3.504 7.92-4.464c3.072-.96 6.576-1.824 10.512-2.592 3.936-.768 7.968-1.44 12.096-2.016a180.481 180.481 0 0 1 12.384-1.296c4.13-.288 8.02-.432 11.66-.432 23.43 0 41.04 4.8 52.85 14.4 11.81 9.6 17.71 22.656 17.71 39.168 0 15.552-5.42 28.032-16.27 37.44-10.85 9.408-27.02 14.112-48.53 14.112h-85.348Zm58.568 39.456v19.279s-.662 9.072-3.788 12.673c-2.778 3.199-9.652 4.339-12.916 4.339-7.104 0-12.192-1.35-15.264-4.035-3.072-2.688-4.608-7.104-4.608-13.248v-19.008l-20.851.252c-4.093.049-6.221-3.276-6.797-5.292-.576-2.016-.864-4.176-.864-6.48 0-4.416.912-7.536 2.736-9.36 1.824-1.824 4.08-2.736 6.768-2.736 0 0 98.584-.331 120.354.408 6.2.211 8.2 1.883 9.1 4.92a23.343 23.343 0 0 1 1.01 6.768c0 3.84-.96 6.72-2.88 8.64-1.92 1.92-4.22 2.88-6.91 2.88h-65.09Zm22.75-67.392c9.99 0 17.76-1.968 23.33-5.904 5.57-3.936 8.35-9.744 8.35-17.424 0-8.064-2.97-14.112-8.93-18.144-5.95-4.032-14.11-6.048-24.48-6.048-3.45 0-7 .144-10.65.432-3.65.288-7.106.912-10.37 1.872v45.216h22.75Z" style="fill:#fff;fill-rule:nonzero" transform="matrix(.11751 0 0 .11751 -94.104 -83.1)"/></svg>