<?xml version="1.0" encoding="UTF-8" standalone="no"?>
<svg
   width="47.999786"
   height="47.999809"
   viewBox="0 0 47.999786 47.999809"
   version="1.1"
   xml:space="preserve"
   style="clip-rule:evenodd;fill-rule:evenodd;stroke-linejoin:round;stroke-miterlimit:2"
   id="svg3"
   xmlns="http://www.w3.org/2000/svg"
   xmlns:svg="http://www.w3.org/2000/svg"><defs
   id="defs3" />
    <g
   transform="matrix(1.23373,0,0,1.23373,-487.99807,-487.99805)"
   id="g3">
        <g
   transform="scale(0.415)"
   id="g1">
            <path
   d="m 1026.9245,1031.5647 c 1.0032,1.0031 1.5061,2.4042 1.3707,3.8161 -0.135,1.4119 -0.8958,2.6915 -2.071,3.4851 -7.4929,5.0513 -16.5159,8.0091 -26.2242,8.0091 -9.70842,0 -18.73144,-2.9578 -26.21616,-8.0208 -1.17192,-0.7912 -1.93012,-2.0672 -2.06507,-3.4748 -0.1351,-1.4077 0.36665,-2.8046 1.36668,-3.8044 -0.01,-0.01 -0.01,-0.01 -0.009,-0.011 2.0992,-2.099 5.36639,-2.4787 7.89103,-0.9169 5.52094,3.4571 12.04646,5.4465 19.03292,5.4465 6.9867,0 13.5122,-1.9894 19.0416,-5.4329 2.5181,-1.5576 5.7768,-1.1789 7.8707,0.915 0.012,-0.011 0.012,-0.011 0.012,-0.011 z m 4.6402,-58.48918 c 1.0031,-1.00299 2.4042,-1.50624 3.8161,-1.37082 1.4119,0.13533 2.6915,0.89578 3.4851,2.07122 5.0513,7.49264 8.0091,16.51566 8.0091,26.22408 0,9.7083 -2.9578,18.7313 -8.0208,26.2163 -0.7912,1.1718 -2.0672,1.9298 -3.4748,2.0648 -1.4077,0.1355 -2.8046,-0.3666 -3.8044,-1.3664 -0.01,0.01 -0.01,0.01 -0.011,0.01 -2.099,-2.0991 -2.4787,-5.3668 -0.9169,-7.891 3.4571,-5.5209 5.4465,-12.0464 5.4465,-19.0331 0,-6.98648 -1.9894,-13.512 -5.4329,-19.04152 -1.5576,-2.51821 -1.1789,-5.77701 0.915,-7.87073 -0.011,-0.0119 -0.011,-0.0121 -0.011,-0.0122 z m -70.41915,0.70832 c 0.88059,-1.30359 2.35472,-2.08673 3.92789,-2.08673 1.25667,0 2.46314,0.49973 3.35175,1.38834 0.0101,-0.01 0.0103,-0.01 0.0105,-0.009 2.09901,2.0992 2.47875,5.36639 0.91711,7.89103 -3.45727,5.52094 -5.44655,12.04646 -5.44655,19.03292 0,6.9867 1.98928,13.5122 5.43272,19.0416 1.55761,2.5181 1.17876,5.7768 -0.915,7.8707 0.0115,0.012 0.0113,0.012 0.0112,0.012 -1.00294,1.0032 -2.40385,1.5061 -3.81572,1.3707 -1.41188,-0.1355 -2.69161,-0.8958 -3.48558,-2.071 -5.05102,-7.4929 -8.00883,-16.5159 -8.00883,-26.2242 0,-9.7084 2.95781,-18.73142 8.02055,-26.21614 z M 1000,970.46875 c 16.2989,0 29.5313,13.23253 29.5313,29.53125 0,16.2989 -13.2324,29.5313 -29.5313,29.5313 -16.29872,0 -29.53125,-13.2324 -29.53125,-29.5313 0,-16.29872 13.23253,-29.53125 29.53125,-29.53125 z m -26.92448,-2.03362 c -0.89129,-0.89124 -1.39257,-2.10132 -1.39257,-3.36179 0,-1.57781 0.78549,-3.05629 2.09297,-3.93951 7.49264,-5.05102 16.51566,-8.00883 26.22408,-8.00883 9.7083,0 18.7313,2.95781 26.2163,8.02055 1.1718,0.79167 1.9298,2.06756 2.0648,3.47522 0.135,1.40765 -0.3666,2.80443 -1.3664,3.80442 0.01,0.0101 0.01,0.0103 0.01,0.0105 -2.0991,2.09901 -5.3668,2.47875 -7.891,0.91711 -5.5209,-3.45727 -12.0464,-5.44655 -19.0331,-5.44655 -6.98648,0 -13.512,1.98928 -19.04152,5.43272 -2.51821,1.55761 -5.77701,1.17876 -7.87073,-0.915 -0.0119,0.0115 -0.0121,0.0113 -0.0122,0.0112 z"
   style="fill:#208e7a;stroke-width:0.046875"
   id="path1" />
        </g>
        <g
   transform="matrix(2.03201,0,0,2.03201,-1627.21,-1436.95)"
   id="g2">
            <path
   d="m 1001.6537,912.07705 c -0.2671,0 -0.3056,-0.3555 -0.3056,-0.6075 0,-0.234 0.049,-0.39825 0.1485,-0.49275 0.099,-0.0945 0.2205,-0.14175 0.3645,-0.14175 h 0.8235 v -2.7945 c 0,-0.162 0.047,-0.29025 0.1417,-0.38475 0.095,-0.0945 0.2183,-0.16425 0.3713,-0.20925 0.144,-0.045 0.3082,-0.0855 0.4927,-0.1215 0.1845,-0.036 0.3735,-0.0675 0.567,-0.0945 0.1928,-0.0269 0.3863,-0.0472 0.5805,-0.0607 0.1936,-0.0135 0.3759,-0.0203 0.5466,-0.0203 1.0982,0 1.9237,0.225 2.4773,0.675 0.5536,0.45 0.8302,1.062 0.8302,1.836 0,0.729 -0.2541,1.314 -0.7627,1.755 -0.5086,0.441 -1.2666,0.6615 -2.2748,0.6615 z m 2.7454,1.8495 v 0.9037 c 0,0 -0.031,0.42525 -0.1776,0.59405 -0.1302,0.14995 -0.4524,0.20339 -0.6054,0.20339 -0.333,0 -0.5715,-0.0633 -0.7155,-0.18914 -0.144,-0.126 -0.216,-0.333 -0.216,-0.621 v -0.891 l -0.9774,0.0118 c -0.1919,0.002 -0.2916,-0.15356 -0.3186,-0.24806 -0.027,-0.0945 -0.04,-0.19575 -0.04,-0.30375 0,-0.207 0.043,-0.35325 0.1282,-0.43875 0.085,-0.0855 0.1913,-0.12825 0.3173,-0.12825 0,0 4.6211,-0.0155 5.6415,0.0191 0.2907,0.01 0.3844,0.0883 0.4266,0.23063 0.031,0.10284 0.047,0.20976 0.047,0.31725 0,0.18 -0.045,0.315 -0.135,0.405 -0.09,0.09 -0.1979,0.135 -0.324,0.135 z m 1.0664,-3.159 c 0.4682,0 0.8325,-0.0923 1.0936,-0.27675 0.261,-0.1845 0.3914,-0.45675 0.3914,-0.81675 0,-0.378 -0.1393,-0.6615 -0.4186,-0.8505 -0.2789,-0.189 -0.6614,-0.2835 -1.1475,-0.2835 -0.1618,0 -0.3282,0.007 -0.4993,0.0203 -0.171,0.0135 -0.333,0.0428 -0.486,0.0878 v 2.1195 z"
   style="fill:#ffffff;fill-rule:nonzero;stroke-width:0.046875"
   id="path2" />
        </g>
    </g>
</svg>
