<?xml version="1.0" encoding="UTF-8" standalone="no"?>
<svg
   width="48.008358"
   height="47.999802"
   viewBox="0 0 48.008358 47.999802"
   version="1.1"
   xml:space="preserve"
   style="clip-rule:evenodd;fill-rule:evenodd;stroke-linejoin:round;stroke-miterlimit:2"
   id="svg2"
   xmlns="http://www.w3.org/2000/svg"
   xmlns:svg="http://www.w3.org/2000/svg"><defs
   id="defs2" />
    <g
   transform="matrix(3.99977,0,0,3.99977,-487.95562,-487.94266)"
   id="g2">
        <path
   d="m 133.99657,121.99268 -4.00023,4.00023 h -2.66644 c -0.7363,0 -1.33374,0.59692 -1.33374,1.33322 0,0.14983 0.025,0.29422 0.0704,0.42858 0.0657,0.19343 0.17515,0.36918 0.31973,0.51352 0.24124,0.24176 0.57493,0.39164 0.94308,0.39164 l -1.33327,1.33322 c -0.79072,0 -1.528,-0.22976 -2.14893,-0.62543 -1.1134,-0.71079 -1.85125,-1.95611 -1.85125,-3.37475 0,-2.20946 1.79082,-4.00023 4.00023,-4.00023 z"
   style="fill:#b2fe92;fill-rule:nonzero;stroke-width:0.04688"
   id="path1" />
        <path
   d="m 133.99657,129.99314 c 0,2.20941 -1.79082,4.00018 -4.00023,4.00018 h -8.00041 l 4.00023,-4.00018 h 2.66696 c 0.7363,0 1.33322,-0.59693 1.33322,-1.33322 0,-0.019 0,-0.0375 -9.8e-4,-0.056 0,-0.013 -9.9e-4,-0.025 -0.002,-0.0375 0,-0.003 0,-0.005 -9.9e-4,-0.009 0,-0.008 -9.8e-4,-0.0164 -0.002,-0.0245 0,-0.007 -9.9e-4,-0.014 -0.002,-0.0209 -9.8e-4,-0.007 -0.001,-0.015 -0.003,-0.022 0,-0.005 -9.8e-4,-0.009 -10e-4,-0.013 -0.001,-0.012 -0.004,-0.0235 -0.005,-0.035 0,-9.8e-4 0,-0.002 -9.8e-4,-0.003 -0.002,-0.015 -0.005,-0.0295 -0.008,-0.0444 -2.8e-4,-0.005 -0.001,-0.009 -0.003,-0.0135 -0.003,-0.015 -0.007,-0.03 -0.01,-0.045 -9.9e-4,-0.003 -0.001,-0.006 -0.002,-0.009 -0.004,-0.0141 -0.007,-0.028 -0.0115,-0.042 -0.005,-0.0176 -0.0105,-0.0351 -0.0165,-0.0525 -0.0105,-0.0309 -0.0225,-0.0619 -0.035,-0.0919 -0.008,-0.0195 -0.0171,-0.0389 -0.0265,-0.0579 -0.008,-0.0181 -0.0174,-0.036 -0.027,-0.0535 -0.012,-0.0224 -0.025,-0.0444 -0.0375,-0.0659 -0.008,-0.0133 -0.0168,-0.0264 -0.0255,-0.0395 -0.009,-0.0147 -0.0194,-0.029 -0.03,-0.043 -0.004,-0.007 -0.009,-0.0128 -0.014,-0.019 -0.007,-0.0105 -0.0155,-0.0205 -0.024,-0.031 -0.007,-0.009 -0.015,-0.019 -0.023,-0.0285 -0.0112,-0.0131 -0.0225,-0.0261 -0.034,-0.0389 -0.014,-0.0155 -0.0279,-0.0305 -0.0429,-0.045 -0.24959,-0.25072 -0.58933,-0.39159 -0.94309,-0.39112 l 1.33323,-1.33327 c 0.026,0 0.0519,0 0.0779,0.001 0.0195,0 0.039,9.4e-4 0.059,10e-4 0.0525,0.002 0.10496,0.004 0.15732,0.008 0.017,10e-4 0.0345,0.003 0.0515,0.005 0.0654,0.005 0.13084,0.0125 0.1953,0.0209 0.019,0.002 0.0375,0.005 0.0564,0.008 0.025,0.004 0.0505,0.008 0.0754,0.012 l 0.0525,0.009 c 0.004,9.9e-4 0.008,9.9e-4 0.0125,0.002 0.023,0.004 0.0465,0.009 0.0694,0.013 0.029,0.006 0.0585,0.0125 0.0874,0.0189 l 0.018,0.005 c 0.0295,0.007 0.0594,0.014 0.0884,0.0215 0.001,0 0.002,0 0.003,9.4e-4 0.031,0.008 0.0615,0.0165 0.0919,0.025 0.0315,0.009 0.0634,0.0185 0.0944,0.0285 0.0283,0.008 0.0565,0.0174 0.0844,0.0269 0.003,10e-4 0.007,0.003 0.0115,0.004 0.0275,0.009 0.0554,0.0189 0.0829,0.0294 0.004,10e-4 0.008,0.003 0.012,0.004 0.029,0.0105 0.0579,0.021 0.0864,0.0329 0.0305,0.0115 0.0604,0.024 0.0904,0.037 0.0618,0.0257 0.12278,0.0534 0.18283,0.0829 0.0273,0.0131 0.0545,0.0266 0.0814,0.0405 0.029,0.015 0.0574,0.0294 0.0854,0.045 0.0285,0.015 0.0565,0.0309 0.0844,0.0469 0.0279,0.016 0.0554,0.0325 0.0834,0.049 0.0255,0.0155 0.0515,0.0309 0.0764,0.0469 0.003,0.002 0.005,0.003 0.007,0.005 0.0536,0.0346 0.10637,0.0704 0.15832,0.1074 0.0523,0.0371 0.10355,0.0756 0.15386,0.11538 0.023,0.018 0.0455,0.036 0.0679,0.055 0.004,0.003 0.007,0.006 0.0115,0.009 0.0723,0.0599 0.14247,0.1224 0.2103,0.18733 0.023,0.0225 0.046,0.0445 0.069,0.0675 0.023,0.023 0.045,0.0454 0.0674,0.0689 0.022,0.023 0.0435,0.0465 0.0654,0.0699 0.038,0.042 0.0754,0.0844 0.11139,0.12789 0.008,0.009 0.0155,0.0189 0.023,0.0285 0.0175,0.0209 0.0345,0.0419 0.0515,0.0634 0.0392,0.0496 0.0772,0.10027 0.11387,0.15184 0.0367,0.0516 0.001,0.001 0.001,0.002 0.019,0.026 0.0369,0.0525 0.0549,0.0794 0.018,0.0265 0.0354,0.0534 0.0534,0.0804 0.017,0.0269 0.034,0.0534 0.0504,0.0809 0.003,0.005 0.007,0.011 0.01,0.016 0.0135,0.0225 0.027,0.045 0.04,0.0679 0.016,0.028 0.032,0.0559 0.047,0.0844 0.0115,0.0209 0.023,0.0425 0.0339,0.0639 0.0296,0.0573 0.0579,0.11528 0.0849,0.17383 0.007,0.016 0.0149,0.032 0.0219,0.0484 0.011,0.0245 0.0215,0.049 0.032,0.0739 0.011,0.0265 0.022,0.0534 0.0325,0.0799 0.01,0.025 0.02,0.051 0.029,0.0764 0.005,0.0115 0.009,0.0235 0.013,0.0355 0.007,0.0185 0.0135,0.0365 0.0195,0.0549 0.0125,0.0365 0.0249,0.0734 0.036,0.1104 0.009,0.027 0.017,0.0544 0.0245,0.0814 0.002,0.007 0.004,0.0145 0.006,0.0215 0.008,0.0285 0.0155,0.057 0.023,0.0854 0,9.8e-4 9.9e-4,0.002 9.9e-4,0.003 0.007,0.0269 0.014,0.0544 0.02,0.0814 0.01,0.0399 0.0185,0.0809 0.027,0.12137 0.005,0.024 0.009,0.048 0.0135,0.0724 0.005,0.0255 0.009,0.051 0.013,0.0764 0.003,0.0185 0.006,0.037 0.009,0.056 0.003,0.0225 0.007,0.045 0.009,0.0674 0.002,0.014 0.003,0.0275 0.005,0.0415 0.003,0.0234 0.006,0.0474 0.008,0.0714 v 0.001 c 0.004,0.0324 0.006,0.0644 0.009,0.0969 0,0.003 0,0.007 9.9e-4,0.0105 0.002,0.0305 0.004,0.0604 0.005,0.0909 0,0.004 0,0.008 0.001,0.013 0.001,0.0295 0.002,0.0589 0.003,0.0884 v 0.0135 c 0.001,0.032 0.001,0.0639 0.001,0.0959 z"
   style="fill:#078465;fill-rule:nonzero;stroke-width:0.04688"
   id="path2" />
    </g>
</svg>
