<?xml version="1.0" encoding="UTF-8" standalone="no"?>
<svg
   width="71.54557"
   height="71.510307"
   viewBox="0 0 71.54557 71.510307"
   version="1.1"
   xml:space="preserve"
   style="clip-rule:evenodd;fill-rule:evenodd;stroke-linejoin:round;stroke-miterlimit:2"
   id="svg2"
   xmlns="http://www.w3.org/2000/svg"
   xmlns:svg="http://www.w3.org/2000/svg"><defs
   id="defs2" />
    <g
   transform="matrix(3.95941,0,0,3.98627,-470.48736,-474.24584)"
   id="g2">
        <path
   d="m 127.89444,133.94301 c 3.35804,0 6.06155,-2.70351 6.06155,-5.97615 0,-3.27265 -2.70351,-5.97609 -6.06155,-5.97609 -3.35797,0 -6.06147,2.70344 -6.06147,5.97609 0,3.27264 2.7035,5.97615 6.06147,5.97615 z"
   style="fill:#ef4800;fill-rule:nonzero;stroke-width:0.0701081"
   id="path1" />
        <path
   d="m 132.97461,134.3 c 0.32587,0.30869 0.30603,0.83611 -0.0677,1.08478 -3.51557,2.33909 -8.28923,1.99612 -11.41136,-1.09929 -3.55721,-3.52875 -3.55721,-9.16341 0,-12.69216 3.10593,-3.10586 7.92481,-3.4407 11.44662,-1.07553 0.35713,0.23991 0.38279,0.74315 0.0786,1.04742 -0.25961,0.25954 -0.67052,0.28029 -0.97731,0.0787 -2.92835,-1.92293 -6.91806,-1.57449 -9.46649,0.97394 -3.01647,2.93108 -3.01647,7.71196 -0.0569,10.64311 2.54885,2.54885 6.53955,2.89701 9.46796,0.97289 0.30799,-0.2024 0.71903,-0.18733 0.98656,0.0661 z m 1.31299,-1.28326 c 0.30889,0.32608 0.83646,0.30792 1.08702,-0.0649 2.03896,-3.03322 2.03034,-7.03773 -0.0259,-10.06275 -0.24096,-0.3544 -0.74174,-0.3781 -1.04482,-0.075 -0.26108,0.26101 -0.28057,0.67472 -0.0757,0.98187 1.65483,2.48147 1.6523,5.70897 -0.007,8.23188 -0.20311,0.30868 -0.18719,0.72057 0.0669,0.98887 z"
   style="fill:#ef4800;fill-rule:nonzero;stroke-width:0.0701081"
   id="path2" />
    </g>
</svg>
