<svg xmlns="http://www.w3.org/2000/svg" width="48" height="48" fill="none"><g clip-path="url(#a)"><g clip-path="url(#b)"><path fill="#EF4800" d="M42.954 14.08c-1.754-2.885-4.182-5.095-7.33-6.628-3.147-1.578-6.79-2.39-10.882-2.39H7.564v15.692H2.437v5.861h5.127v16.323h17.178c4.092 0 7.735-.767 10.882-2.345 3.148-1.578 5.576-3.788 7.33-6.628 1.754-2.84 2.608-6.178 2.608-9.965 0-3.788-.854-7.079-2.608-9.92Zm-9.623 18.532c-2.248 2.074-5.261 3.156-9.039 3.156h-7.96v-9.153h9.444v-5.861h-9.443v-8.477h7.96c3.777 0 6.79 1.037 9.038 3.156 2.248 2.12 3.373 4.96 3.373 8.567s-1.125 6.493-3.373 8.612Z"/></g></g><defs><clipPath id="a"><path fill="#fff" d="M0 0h48v48H0z"/></clipPath><clipPath id="b"><path fill="#fff" d="M0 0h43.125v37.875H0z" transform="translate(2.438 5.063)"/></clipPath></defs></svg>