<svg xmlns="http://www.w3.org/2000/svg" width="48" height="48" fill="none"><g fill="#EF4800" clip-path="url(#a)"><path d="M46.12 26.044c0 2.922-.784 5.66-2.148 8.022a16.11 16.11 0 0 1-5.875 5.875l-.252.142a15.965 15.965 0 0 1-7.767 2.005H14.037l3.007-8.022H8.02l3.007-8.022h19.05l-3.006 8.022h3.007a8.022 8.022 0 0 0 7.767-6.017 8.023 8.023 0 0 0-7.77-10.027h-16.04L17.04 10h13.034c2.923 0 5.66.783 8.022 2.147a16.11 16.11 0 0 1 5.875 5.875 15.978 15.978 0 0 1 2.147 8.022Zm-35.098-.001H2l3.007-8.021h9.025l-3.01 8.021Z"/></g><defs><clipPath id="a"><path fill="#fff" d="M0 0h48v48H0z"/></clipPath></defs></svg>