<svg xmlns="http://www.w3.org/2000/svg" width="48" height="48" fill="none"><path fill="#26A17B" d="M28.117 26.74v-.005c-.252.018-1.554.094-4.451.094-2.316 0-3.94-.065-4.515-.094v.006c-8.908-.392-15.552-1.938-15.552-3.794 0-1.85 6.65-3.401 15.552-3.793V25.2c.58.041 2.252.14 4.556.14 2.768 0 4.152-.116 4.41-.14v-6.04c8.89.398 15.516 1.943 15.516 3.793s-6.632 3.396-15.516 3.794m0-8.214v-5.41h12.402V4.876H6.754v8.249h12.403v5.41c-10.08.46-17.657 2.45-17.657 4.838 0 2.39 7.582 4.38 17.657 4.848v17.34h8.966v-17.34c10.062-.463 17.627-2.453 17.627-4.841 0-2.383-7.565-4.38-17.627-4.842"/></svg>