<?xml version="1.0" encoding="UTF-8" standalone="no"?>
<svg
   width="47.999966"
   height="44.135586"
   viewBox="0 0 47.999966 44.135586"
   version="1.1"
   xml:space="preserve"
   style="clip-rule:evenodd;fill-rule:evenodd;stroke-linejoin:round;stroke-miterlimit:2"
   id="svg1"
   xmlns="http://www.w3.org/2000/svg"
   xmlns:svg="http://www.w3.org/2000/svg"><defs
   id="defs1" />
    <g
   transform="matrix(4.33898,0,0,4.33898,-522.7115,-561.52502)"
   id="g1">
        <path
   d="m 127.12298,134.88053 v -0.001 c -0.063,0.004 -0.3885,0.0234 -1.11271,0.0234 -0.5791,0 -0.98518,-0.0161 -1.12885,-0.0234 v 0.001 c -2.22684,-0.0981 -3.88781,-0.48445 -3.88781,-0.94842 0,-0.46247 1.66242,-0.85031 3.88781,-0.94838 v 1.51186 c 0.14517,0.0103 0.56297,0.0352 1.13911,0.0352 0.69197,0 1.03791,-0.0293 1.10245,-0.0352 v -1.5104 c 2.22244,0.0995 3.87905,0.4859 3.87905,0.94842 0,0.46247 -1.65806,0.84886 -3.87905,0.94837 m 0,-2.0534 v -1.35235 h 3.1006 v -2.06217 h -8.44125 v 2.06217 h 3.10059 v 1.35235 c -2.52009,0.11564 -4.41417,0.61326 -4.41417,1.2104 0,0.59715 1.89553,1.09477 4.41417,1.21182 v 4.33514 h 2.24152 v -4.33514 c 2.51564,-0.1156 4.40681,-0.61322 4.40681,-1.21036 0,-0.59569 -1.89117,-1.09477 -4.40681,-1.21041"
   style="fill:#26a17b;fill-rule:nonzero;stroke-width:0.046875"
   id="path1" />
    </g>
</svg>
