<?xml version="1.0" encoding="UTF-8" standalone="no"?>
<svg
   width="47.999897"
   height="93.838852"
   viewBox="0 0 47.999897 93.838852"
   version="1.1"
   xml:space="preserve"
   style="clip-rule:evenodd;fill-rule:evenodd;stroke-linejoin:round;stroke-miterlimit:2"
   id="svg1"
   xmlns="http://www.w3.org/2000/svg"
   xmlns:svg="http://www.w3.org/2000/svg"><defs
   id="defs1" />
    <g
   transform="matrix(3.12899,0,0,3.12899,-772.32482,-977.76379)"
   id="g1">
        <path
   d="m 255.00412,342.47557 h -2.76293 v -3.5052 h -5.4124 v -22.35082 h 5.4124 v -4.13412 h 2.76293 v 4.19598 c 1.4983,0.0275 2.75605,0.26117 3.77324,0.70104 h -0.0103 c 0.79039,0.3299 1.42609,0.93124 1.90719,1.8041 0.21307,0.40551 0.37463,0.81275 0.48459,1.22164 0.10997,0.40899 0.16495,0.82998 0.16495,1.26298 0,1.89006 -0.7354,3.43299 -2.20621,4.62888 -0.1787,0.1512 -0.35914,0.2904 -0.54122,0.41751 -0.18218,0.12719 -0.39011,0.26291 -0.62379,0.40724 0.66667,0.24056 1.27672,0.55845 1.82994,0.9536 0.55332,0.39524 1.03608,0.86086 1.44845,1.39695 0.62544,0.82475 0.93821,1.89006 0.93821,3.19592 0,1.13403 -0.28867,2.18559 -0.866,3.15468 -0.56358,0.95534 -1.34709,1.70449 -2.35054,2.24745 -1.01033,0.55671 -2.32654,0.85573 -3.94855,0.89697 z m 0,-16.73223 c 0.15807,-0.0412 0.32477,-0.0996 0.50007,-0.17521 0.17522,-0.0756 0.35904,-0.16495 0.55149,-0.26805 0.21993,-0.11684 0.43299,-0.28866 0.63918,-0.51547 0.20619,-0.22681 0.39176,-0.50521 0.55671,-0.83511 0.16495,-0.33677 0.2904,-0.65632 0.37636,-0.95873 0.0859,-0.30241 0.12885,-0.59455 0.12885,-0.87634 0,-0.69417 -0.28528,-1.28176 -0.85573,-1.76287 -0.3299,-0.32303 -0.96221,-0.55332 -1.89693,-0.69078 z m -2.76293,-6.14441 h -1.81446 v 6.38157 h 1.81446 z m 2.76293,16.41259 c 0.24055,-0.0138 0.47258,-0.0395 0.6959,-0.0773 0.22342,-0.0378 0.445,-0.091 0.66494,-0.15973 0.24055,-0.0756 0.46049,-0.17018 0.6598,-0.28353 0.19932,-0.11345 0.3815,-0.24569 0.54645,-0.39689 h -0.0104 c 0.61857,-0.59795 0.92785,-1.33335 0.92785,-2.20622 0,-0.66667 -0.19244,-1.30247 -0.57733,-1.90729 h 0.0104 c -0.35052,-0.53609 -0.91411,-0.9897 -1.69075,-1.36084 -0.41925,-0.20619 -0.82823,-0.36766 -1.22686,-0.4845 z m -4.57739,-7.09288 v 7.10323 h 1.81446 v -7.10323 z"
   style="fill:#003f20;fill-rule:nonzero;stroke-width:0.0916393"
   id="path1" />
    </g>
</svg>
