<svg xmlns="http://www.w3.org/2000/svg" xml:space="preserve" style="fill-rule:evenodd;clip-rule:evenodd;stroke-linejoin:round;stroke-miterlimit:2" viewBox="0 0 48 48"><path d="M1573.26 1672.25a103.55 103.55 0 0 1 29.95 82.04 103.523 103.523 0 0 1-43.47 75.74C1399.42 1936.96 1207.01 2000 1000 2000c-207.012 0-399.418-63.04-559.046-170.95a102.326 102.326 0 0 1-42.976-74.88 102.349 102.349 0 0 1 29.6-81.11l-.823-.82c45.448-45.42 116.431-52.97 170.415-18.12C713.651 1728.14 851.976 1770 1000 1770c148.02 0 286.35-41.86 403.79-114.39 53.28-34.39 123.34-26.94 168.19 17.9 1.27-1.27 1.27-1.27 1.28-1.26Zm98.99-1245.508a103.504 103.504 0 0 1 157.78 13.521C1936.96 600.582 2000 792.988 2000 1000c0 207.01-63.04 399.42-170.95 559.05a102.319 102.319 0 0 1-74.88 42.97 102.331 102.331 0 0 1-81.11-29.6l-.82.83c-45.42-45.45-52.97-116.44-18.12-170.42C1728.14 1286.35 1770 1148.02 1770 1000c0-148.024-41.86-286.349-114.39-403.792-34.39-53.281-26.94-123.337 17.9-168.183-1.27-1.27-1.27-1.27-1.26-1.283ZM170.948 440.954a102.337 102.337 0 0 1 155.989-13.376l.823-.823c45.422 45.448 52.971 116.431 18.124 170.415C271.859 713.651 230 851.976 230 1000c0 148.02 41.859 286.35 114.393 403.79 34.393 53.29 26.93 123.35-17.916 168.2l1.27 1.27a103.544 103.544 0 0 1-82.035 29.95 103.52 103.52 0 0 1-75.743-43.47C63.039 1399.42 0 1207.01 0 1000c0-207.012 63.039-399.418 170.948-559.046ZM1000 370c347.71 0 630 282.294 630 630 0 347.71-282.29 630-630 630-347.706 0-630-282.29-630-630 0-347.706 282.294-630 630-630Zm-573.258-42.253a103.498 103.498 0 0 1 13.521-157.778C600.582 63.039 792.988 0 1000 0c207.01 0 399.42 63.039 559.05 170.948a102.33 102.33 0 0 1 42.97 74.883 102.32 102.32 0 0 1-29.6 81.106l.83.823c-45.45 45.422-116.44 52.971-170.42 18.124C1286.35 271.859 1148.02 230 1000 230c-148.024 0-286.349 41.859-403.792 114.393-53.281 34.389-123.337 26.932-168.183-17.903-1.27 1.27-1.27 1.27-1.283 1.257Z" style="fill:#208e7a" transform="scale(.024)"/><path d="M1067.85 899.888c2.17-2.606 4.07-5.503 5.69-8.692 3.54-6.972 5.3-14.311 5.3-22.013v-14.071c0-14.776-5.77-26.64-17.27-35.611-10.45-8.145-24.03-12.533-40.87-12.81v-21.938a7.281 7.281 0 0 0-7.28-7.281H994.3a7.281 7.281 0 0 0-7.281 7.281v21.924h-28.556c-13.996 0-25.341 11.346-25.341 25.341v150.535c0 7.274 2.397 13.113 6.911 17.627 4.515 4.52 10.354 6.91 17.628 6.91h29.358v21.93c0 4.02 3.26 7.28 7.281 7.28h19.12a7.28 7.28 0 0 0 7.28-7.28v-21.93h11.3c17.9 0 32-5.19 42.46-15.148 10.61-10.1 16.07-23.455 16.07-40.187v-12.744c0-10.57-3.16-19.806-9.4-27.734-3.7-4.707-8.12-8.508-13.28-11.389Zm-11.53 39.123v12.744c0 6.95-2.18 12.582-6.79 16.792-4.9 4.467-11.67 6.459-20.18 6.459h-62.018V921.6h67.328c6.7 0 12.16 1.552 16.26 5.037 3.65 3.107 5.4 7.256 5.4 12.374Zm-88.988-48.435v-51.813h51.658c7.99 0 14.54 1.602 19.55 5.161 4.01 2.844 6.09 6.543 6.09 11.188v14.071c0 6.541-1.72 11.846-5.52 15.783-3.71 3.842-8.69 5.61-14.81 5.61h-56.968Z" style="fill:#fff;fill-rule:nonzero" transform="matrix(.0932 0 0 .0932 -70.298 -60.518)"/></svg>