<?xml version="1.0" encoding="UTF-8" standalone="no"?>
<svg
   width="47.999882"
   height="19.78027"
   viewBox="0 0 47.999882 19.78027"
   version="1.1"
   xml:space="preserve"
   style="clip-rule:evenodd;fill-rule:evenodd;stroke-linejoin:round;stroke-miterlimit:2"
   id="svg3"
   xmlns="http://www.w3.org/2000/svg"
   xmlns:svg="http://www.w3.org/2000/svg"><defs
   id="defs3" />
    <g
   transform="matrix(4,0,0,4,23.98388,9.392396)"
   id="g3">
        <g
   transform="translate(-128,-53)"
   id="g2">
            <clipPath
   id="_clip1">
                <rect
   x="0"
   y="0"
   width="256"
   height="106"
   id="rect1" />
            </clipPath>
            <g
   clip-path="url(#_clip1)"
   id="g1">
                <path
   d="m 125.06208,51.760778 h 0.90365 c 0.0423,0 0.0764,0.03403 0.0764,0.07617 v 2.480766 c 0,0.04219 -0.0341,0.07617 -0.0764,0.07617 h -0.90365 c -0.0423,0 -0.0764,-0.03403 -0.0764,-0.07617 V 51.83695 c 0,-0.04214 0.0341,-0.07617 0.0764,-0.07617 z m 3.32358,-0.04402 c 0.44597,0 0.78651,0.1155 1.02131,0.346593 0.22898,0.225188 0.34331,0.547172 0.34331,0.965391 v 1.288594 c 0,0.04219 -0.0341,0.07617 -0.0764,0.07617 h -0.9036 c -0.0423,0 -0.0764,-0.03403 -0.0764,-0.07617 v -1.27111 c 0,-0.301406 -0.22008,-0.451968 -0.66019,-0.451968 -0.44011,0 -0.66014,0.150843 -0.66014,0.451968 v 1.27111 c 0,0.04219 -0.0342,0.07617 -0.0764,0.07617 h -0.90366 c -0.0423,0 -0.0764,-0.03403 -0.0764,-0.07617 v -2.480719 c 0,-0.04219 0.0341,-0.07622 0.0764,-0.07622 h 0.90366 c 0.0422,0 0.0764,0.03403 0.0764,0.07622 v 0.217828 c 0.23456,-0.225 0.57202,-0.337687 1.01213,-0.337687 z m 5.61834,0.07744 c -1.4e-4,-0.04125 -0.0337,-0.07537 -0.0749,-0.07617 -0.1709,-0.0046 -0.55954,0.0292 -0.81473,0.202125 -0.0614,0.04163 -0.12075,0.08405 -0.17348,0.134532 v 5.15e-4 c -0.30127,-0.225469 -0.73144,-0.338437 -1.29202,-0.338437 -0.57511,0 -1.0155,0.120093 -1.32061,0.359765 -0.29339,0.234141 -0.44011,0.567516 -0.44011,1.000688 0,0.432937 0.14672,0.766594 0.44011,1.000687 0.19613,0.154125 0.44827,0.258469 0.75595,0.313594 v 2.34e-4 c 0.17878,0.03328 0.38738,0.0503 0.63699,0.04777 0.0705,-0.0022 0.1409,-0.0063 0.21112,-0.01247 0.0553,-0.0042 0.11035,-0.0099 0.16528,-0.01725 0.0329,-0.004 0.0658,-0.0084 0.0986,-0.01322 0.0743,-0.01116 0.14461,0.04073 0.15586,0.115031 0.0109,0.0743 -0.0413,0.144422 -0.11559,0.15539 -0.19946,0.02949 -0.41672,0.04725 -0.58149,0.04725 -0.19584,0 -0.37875,-0.01322 -0.54834,-0.03961 -0.11138,-0.01697 -0.22153,-0.04116 -0.32981,-0.07238 -0.039,-0.0112 -0.0805,0.0105 -0.0935,0.04898 l -0.22308,0.667313 c -0.0126,0.03816 0.007,0.08016 0.0443,0.09497 0.285,0.114515 0.60539,0.156375 0.91055,0.173156 0.42023,0.02311 0.87309,0.01322 1.28236,-0.09089 0.10036,-0.02541 0.20043,-0.05892 0.29137,-0.107156 0.0601,-0.03173 0.11639,-0.07008 0.16608,-0.116578 0.11381,-0.106641 0.18745,-0.251625 0.22256,-0.403453 0.0723,-0.311063 0.0306,-0.693188 -0.27201,-0.866344 -0.0104,-0.0059 -0.0216,-0.01172 -0.0331,-0.01725 0.22439,-0.2265 0.33671,-0.529219 0.33671,-0.907781 0,-0.16861 -0.0226,-0.321938 -0.067,-0.460313 0.0757,-0.01477 0.16172,-0.02264 0.2588,-0.02264 0.11864,0 0.2213,0.01092 0.30792,0.03305 0.006,0.0015 0.0123,0.0023 0.0186,0.0023 0.0418,0 0.0762,-0.03441 0.0762,-0.07617 0,0 0,-4.7e-5 0,-4.7e-5 z m -2.35514,0.800344 c 0.46936,0 0.7042,0.160969 0.7042,0.482672 0,0.321984 -0.23484,0.482719 -0.7042,0.482719 -0.46969,0 -0.70425,-0.161016 -0.70425,-0.482719 0,-0.321703 0.23456,-0.482672 0.70425,-0.482672 z m -6.93802,-0.07641 V 51.83685 c 0,-0.04214 -0.0341,-0.07617 -0.0764,-0.07617 h -0.97978 v -1.032188 c 0,-0.05203 -0.0512,-0.08859 -0.1006,-0.07233 l -0.90365,0.300891 c -0.0311,0.01031 -0.0522,0.03956 -0.0522,0.07233 v 0.731531 h -0.51778 c -0.0423,0 -0.0764,0.03403 -0.0764,0.07617 v 0.681047 c 0,0.04214 0.0341,0.07617 0.0764,0.07617 h 0.51778 v 0.836109 c 0,0.365625 0.12173,0.627656 0.36525,0.785625 0.23175,0.149062 0.60895,0.223687 1.13133,0.223687 0.1964,0 0.38076,-0.01523 0.55368,-0.04547 0.036,-0.0066 0.0624,-0.03825 0.0624,-0.07486 v -0.721125 c 0,-0.04772 -0.0436,-0.08353 -0.0907,-0.07467 -0.13903,0.02592 -0.27024,0.03862 -0.39347,0.03862 -0.19664,0 -0.3375,-0.01781 -0.42253,-0.05283 -0.0999,-0.03783 -0.14953,-0.108187 -0.14953,-0.210468 v -0.704672 h 0.97978 c 0.0423,0 0.0764,-0.03403 0.0764,-0.07617 z m 1.25489,-1.03111 h -0.90365 c -0.0423,0 -0.0764,-0.03403 -0.0764,-0.07617 v -0.682781 c 0,-0.04219 0.0341,-0.07617 0.0764,-0.07617 h 0.90365 c 0.0423,0 0.0764,0.03403 0.0764,0.07617 v 0.682781 c 0,0.04191 -0.0344,0.07617 -0.0764,0.07617 z"
   style="fill:#ff9920;fill-rule:nonzero;stroke-width:0.046875"
   id="path1" />
            </g>
        </g>
    </g>
</svg>
