<svg width="48" height="48" fill="none" xmlns="http://www.w3.org/2000/svg"><g clip-path="url(#a)" fill="#FF9920"><path d="M12.231 18.568h3.615c.17 0 .306.136.306.305v9.923a.305.305 0 0 1-.306.305h-3.615a.305.305 0 0 1-.305-.305v-9.923c0-.169.136-.305.305-.305Zm13.297-.175c1.784 0 3.146.462 4.086 1.386.915.9 1.373 2.189 1.373 3.861v5.155a.305.305 0 0 1-.306.305h-3.614a.305.305 0 0 1-.306-.305v-5.084c0-1.206-.88-1.808-2.64-1.808-1.761 0-2.641.603-2.641 1.808v5.084a.305.305 0 0 1-.306.305H17.56a.305.305 0 0 1-.306-.305v-9.923c0-.169.136-.305.305-.305h3.615c.17 0 .306.136.306.305v.871c.938-.9 2.288-1.35 4.048-1.35Zm22.47.309c0-.165-.132-.3-.299-.304-.684-.019-2.238.117-3.26.808a5.227 5.227 0 0 0-.693.538v.003c-1.205-.902-2.926-1.354-5.168-1.354-2.3 0-4.062.48-5.282 1.439-1.174.936-1.76 2.27-1.76 4.002 0 1.732.586 3.067 1.76 4.003.784.617 1.793 1.034 3.023 1.255.715.134 1.55.202 2.548.192a16.076 16.076 0 0 0 1.506-.12c.132-.016.265-.033.394-.052.3-.045.579.161.624.46a.548.548 0 0 1-.463.622c-.797.117-1.666.188-2.326.188-.783 0-1.514-.052-2.193-.158a10.428 10.428 0 0 1-1.32-.29.305.305 0 0 0-.373.197l-.893 2.669c-.05.153.027.32.178.38 1.14.458 2.421.625 3.642.692 1.68.093 3.492.053 5.13-.363a5.217 5.217 0 0 0 1.165-.429c.24-.127.465-.28.664-.466.455-.427.75-1.007.89-1.614.29-1.244.123-2.773-1.088-3.465a2.675 2.675 0 0 0-.132-.07c.897-.905 1.347-2.116 1.347-3.63 0-.675-.091-1.288-.268-1.842.302-.059.647-.09 1.035-.09.474 0 .885.043 1.231.132a.305.305 0 0 0 .38-.296l.002-3.037Zm-9.42 3.202c1.877 0 2.817.644 2.817 1.93 0 1.288-.94 1.931-2.817 1.931-1.879 0-2.817-.644-2.817-1.93 0-1.287.938-1.931 2.817-1.931Zm-27.75-.306v-2.725a.305.305 0 0 0-.306-.305h-3.92V14.44a.306.306 0 0 0-.402-.29l-3.614 1.204a.305.305 0 0 0-.21.29v2.926H.307a.305.305 0 0 0-.306.304v2.724c0 .169.137.305.306.305h2.07v3.344c0 1.463.488 2.511 1.462 3.143.927.596 2.436.895 4.525.895.786 0 1.523-.061 2.215-.182a.304.304 0 0 0 .25-.3V25.92a.305.305 0 0 0-.363-.299 8.609 8.609 0 0 1-1.574.155c-.787 0-1.35-.072-1.69-.212-.4-.151-.598-.432-.598-.842v-2.818h3.919a.305.305 0 0 0 .306-.305Zm5.018-4.125h-3.615a.305.305 0 0 1-.305-.304v-2.732c0-.168.136-.304.305-.304h3.615c.17 0 .306.136.306.305v2.73a.306.306 0 0 1-.306.305Z"/></g><defs><clipPath id="a"><path fill="#fff" d="M0 0h48v48H0z"/></clipPath></defs></svg>