<?xml version="1.0" encoding="UTF-8" standalone="no"?>
<svg
   width="48.000004"
   height="63.906151"
   viewBox="0 0 48.000004 63.906151"
   version="1.1"
   xml:space="preserve"
   style="clip-rule:evenodd;fill-rule:evenodd;stroke-linejoin:round;stroke-miterlimit:2"
   id="svg1"
   xmlns="http://www.w3.org/2000/svg"
   xmlns:svg="http://www.w3.org/2000/svg"><defs
   id="defs1" />
    <g
   transform="matrix(4.02784,0,0,4.02784,-360.18948,-483.57218)"
   id="g1">
        <path
   d="m 89.424972,123.6969 c 0,-0.57222 0.464958,-1.03686 1.037863,-1.03686 h 4.920696 l 2.547743,-2.43074 c 0.240131,-0.22914 0.623005,-0.22914 0.863137,0 l 2.547619,2.4308 v 9.56653 c 0,0.60395 -0.4907,1.09421 -1.09527,1.09421 h -4.863354 l -2.547617,2.43086 c -0.240132,0.22914 -0.623068,0.22914 -0.8632,0 l -2.547617,-2.43092 z m 7.657034,3.73185 c -0.114819,0.11463 -0.303663,0.11463 -0.418481,0 l -1.88e-4,-1.9e-4 -0.819283,-0.81829 c -0.254187,-0.25406 -0.667171,-0.25406 -0.921358,0 l -0.819221,0.81848 c -0.114943,0.11456 -0.3036,0.11456 -0.418543,0 l -1.87e-4,-1.9e-4 -0.819783,-0.81897 c -0.254375,-0.25413 -0.667171,-0.25413 -0.921546,0 l -0.921545,0.92061 c -0.254187,0.25406 -0.254187,0.66648 0,0.9206 l 0.921545,0.92042 c 0.254375,0.25413 0.667171,0.25413 0.921546,0 l 0.81997,-0.81915 c 0.114443,-0.1142 0.302601,-0.11413 0.416919,1.8e-4 h 3.75e-4 l 0.82047,0.81972 c 0.254187,0.25407 0.667171,0.25407 0.921358,0 l 0.820533,-0.81972 c 0.11463,-0.11438 0.302975,-0.11438 0.417606,0 l 0.819845,0.81897 c 0.254312,0.25413 0.667171,0.25413 0.921483,0 l 0.921545,-0.92042 c 0.254187,-0.25412 0.254187,-0.66654 0,-0.9206 l -0.921545,-0.92061 c -0.254312,-0.25413 -0.667171,-0.25413 -0.921483,0 z"
   style="fill:#f1a200;stroke-width:0.0624692"
   id="path1" />
    </g>
</svg>
