<?xml version="1.0" encoding="UTF-8" standalone="no"?>
<svg
   width="48.000053"
   height="73.860207"
   viewBox="0 0 48.000053 73.860207"
   version="1.1"
   xml:space="preserve"
   style="clip-rule:evenodd;fill-rule:evenodd;stroke-linejoin:round;stroke-miterlimit:2"
   id="svg1"
   xmlns="http://www.w3.org/2000/svg"
   xmlns:svg="http://www.w3.org/2000/svg"><defs
   id="defs1" />
    <g
   transform="matrix(4.36557,0,0,4.36557,-1392.992,-1865.8538)"
   id="g1">
        <path
   d="m 324.09659,442.60668 c -1.44705,-0.0541 -2.58142,-0.39389 -3.40297,-1.0194 -0.82162,-0.62543 -1.35754,-1.56368 -1.60769,-2.81469 l 2.3126,-0.44626 c 0.14203,0.77762 0.42939,1.35242 0.86216,1.72432 0.43278,0.37189 1.04479,0.59167 1.8359,0.65926 v -4.32097 c -0.30424,-0.0744 -0.6255,-0.16056 -0.96357,-0.25865 -0.33814,-0.098 -0.65933,-0.20283 -0.96357,-0.31441 -0.30431,-0.11159 -0.55453,-0.22483 -0.75065,-0.3398 -0.60177,-0.34485 -1.05315,-0.77092 -1.35408,-1.27806 -0.30092,-0.50714 -0.45138,-1.13603 -0.45138,-1.8866 0,-1.10221 0.38373,-1.95593 1.15125,-2.56116 0.76753,-0.60524 1.87817,-0.93826 3.332,-0.99906 v -1.3491 h 1.15638 v 1.3491 c 0.8385,0.0405 1.55185,0.17239 2.14014,0.39556 0.58835,0.22316 1.07349,0.57984 1.45556,1.0701 0.38207,0.49026 0.67794,1.15125 0.88755,1.98297 l -2.37348,0.37529 c -0.11497,-0.60184 -0.33814,-1.06837 -0.6695,-1.39974 -0.33129,-0.33136 -0.81145,-0.53418 -1.44027,-0.60862 v 3.88487 c 0.30424,0.0609 0.63221,0.13863 0.98384,0.23327 0.35162,0.0947 0.73708,0.21638 1.1563,0.36518 0.91964,0.33129 1.59758,0.79285 2.03375,1.38452 0.43616,0.59168 0.65421,1.34059 0.65421,2.24668 0,1.19013 -0.41078,2.1216 -1.2324,2.79449 -0.82155,0.67282 -2.02019,1.04306 -3.5957,1.11064 v 1.73449 h -1.15638 z m -2.13004,-10.33587 c 0,0.33814 0.0643,0.6154 0.19273,0.83179 0.14202,0.25692 0.35668,0.45982 0.64411,0.60855 0.28736,0.14881 0.71848,0.3111 1.2932,0.48687 v -3.6718 c -1.42,0.0946 -2.13004,0.67621 -2.13004,1.74459 z m 5.77148,6.45108 c 0,-0.3719 -0.0693,-0.67621 -0.20795,-0.91287 -0.13863,-0.23673 -0.3398,-0.43277 -0.6035,-0.58836 -0.27049,-0.14873 -0.82841,-0.34146 -1.67361,-0.57811 v 4.06736 c 0.81816,-0.0541 1.43688,-0.24849 1.85616,-0.58324 0.41922,-0.33468 0.6289,-0.80294 0.6289,-1.40478 z"
   style="fill:#003f20;fill-rule:nonzero;stroke-width:0.072129"
   id="path1" />
    </g>
</svg>
