<svg xmlns="http://www.w3.org/2000/svg" xml:space="preserve" style="fill-rule:evenodd;clip-rule:evenodd;stroke-linejoin:round;stroke-miterlimit:2" viewBox="0 0 48 48"><path d="M1573.26 1672.25a103.55 103.55 0 0 1 29.95 82.04 103.523 103.523 0 0 1-43.47 75.74C1399.42 1936.96 1207.01 2000 1000 2000c-207.012 0-399.418-63.04-559.046-170.95a102.326 102.326 0 0 1-42.976-74.88 102.349 102.349 0 0 1 29.6-81.11l-.823-.82c45.448-45.42 116.431-52.97 170.415-18.12C713.651 1728.14 851.976 1770 1000 1770c148.02 0 286.35-41.86 403.79-114.39 53.28-34.39 123.34-26.94 168.19 17.9 1.27-1.27 1.27-1.27 1.28-1.26Zm98.99-1245.508a103.504 103.504 0 0 1 157.78 13.521C1936.96 600.582 2000 792.988 2000 1000c0 207.01-63.04 399.42-170.95 559.05a102.319 102.319 0 0 1-74.88 42.97 102.331 102.331 0 0 1-81.11-29.6l-.82.83c-45.42-45.45-52.97-116.44-18.12-170.42C1728.14 1286.35 1770 1148.02 1770 1000c0-148.024-41.86-286.349-114.39-403.792-34.39-53.281-26.94-123.337 17.9-168.183-1.27-1.27-1.27-1.27-1.26-1.283ZM170.948 440.954a102.337 102.337 0 0 1 155.989-13.376l.823-.823c45.422 45.448 52.971 116.431 18.124 170.415C271.859 713.651 230 851.976 230 1000c0 148.02 41.859 286.35 114.393 403.79 34.393 53.29 26.93 123.35-17.916 168.2l1.27 1.27a103.544 103.544 0 0 1-82.035 29.95 103.52 103.52 0 0 1-75.743-43.47C63.039 1399.42 0 1207.01 0 1000c0-207.012 63.039-399.418 170.948-559.046ZM1000 370c347.71 0 630 282.294 630 630 0 347.71-282.29 630-630 630-347.706 0-630-282.29-630-630 0-347.706 282.294-630 630-630Zm-573.258-42.253a103.498 103.498 0 0 1 13.521-157.778C600.582 63.039 792.988 0 1000 0c207.01 0 399.42 63.039 559.05 170.948a102.33 102.33 0 0 1 42.97 74.883 102.32 102.32 0 0 1-29.6 81.106l.83.823c-45.45 45.422-116.44 52.971-170.42 18.124C1286.35 271.859 1148.02 230 1000 230c-148.024 0-286.349 41.859-403.792 114.393-53.281 34.389-123.337 26.932-168.183-17.903-1.27 1.27-1.27 1.27-1.283 1.257Z" style="fill:#208e7a" transform="scale(.024)"/><path d="M1275 1158.33c0-145.83-87.5-195.83-262.5-216.66-125-16.67-150-50-150-108.34s41.67-95.83 125-95.83c75 0 116.67 25 137.5 87.5 4.17 12.5 16.67 20.83 29.17 20.83h66.66c16.67 0 29.17-12.5 29.17-29.16v-4.17c-16.67-91.67-91.67-162.5-187.5-170.83v-100c0-16.67-12.5-29.17-33.33-33.34h-62.5c-16.67 0-29.17 12.5-33.34 33.34v95.83c-125 16.67-204.16 100-204.16 204.17 0 137.5 83.33 191.66 258.33 212.5 116.67 20.83 154.17 45.83 154.17 112.5s-58.34 112.5-137.5 112.5c-108.34 0-145.84-45.84-158.34-108.34-4.16-16.66-16.66-25-29.16-25h-70.84c-16.66 0-29.16 12.5-29.16 29.17v4.17c16.66 104.16 83.33 179.16 220.83 200v100c0 16.66 12.5 29.16 33.33 33.33h62.5c16.67 0 29.17-12.5 33.34-33.33v-100c125-20.84 208.33-108.34 208.33-220.84Z" style="fill:#fff;fill-rule:nonzero" transform="matrix(.024 0 0 .024 .1 -.25)"/></svg>