<?xml version="1.0" encoding="UTF-8" standalone="no"?>
<svg
   width="47.998161"
   height="63.529228"
   viewBox="0 0 47.998161 63.529228"
   version="1.1"
   xml:space="preserve"
   style="clip-rule:evenodd;fill-rule:evenodd;stroke-linejoin:round;stroke-miterlimit:2"
   id="svg1"
   xmlns="http://www.w3.org/2000/svg"
   xmlns:svg="http://www.w3.org/2000/svg"><defs
   id="defs1" />
    <g
   transform="matrix(4.06892,0,0,4.06892,-480.14322,-480.23546)"
   id="g1">
        <path
   d="m 129.76807,124.3022 c 0.2455,-1.64061 -1.00375,-2.52258 -2.71198,-3.11091 l 0.55408,-2.22242 -1.35292,-0.33713 -0.53944,2.16385 c -0.35568,-0.0887 -0.72098,-0.17222 -1.08398,-0.25505 l 0.54335,-2.17812 -1.35218,-0.33713 -0.55445,2.22168 c -0.29445,-0.0671 -0.58344,-0.13339 -0.86398,-0.20312 l 0.002,-0.007 -1.86582,-0.46586 -0.35983,1.44486 c 0,0 1.00382,0.23005 0.98254,0.24426 0.548,0.1368 0.64702,0.49936 0.63046,0.7868 l -0.63121,2.53182 c 0.0378,0.01 0.0867,0.0234 0.14065,0.045 -0.0451,-0.0112 -0.0933,-0.0235 -0.14294,-0.0354 l -0.8847,3.54668 c -0.0671,0.16639 -0.237,0.41611 -0.62004,0.32131 0.0135,0.0197 -0.98335,-0.24544 -0.98335,-0.24544 l -0.67171,1.54854 1.76059,0.43882 c 0.32758,0.0821 0.64858,0.168 0.96455,0.2489 l -0.55992,2.2478 1.35137,0.33719 0.55452,-2.22397 c 0.35835,0.0971 0.71775,0.1904 1.07815,0.27974 l -0.55254,2.21355 1.35293,0.33713 0.55985,-2.24358 c 2.30705,0.43652 4.04183,0.26045 4.77205,-1.82592 0.5884,-1.67994 -0.0293,-2.64895 -1.24311,-3.28084 0.88396,-0.2038 1.54984,-0.78525 1.72746,-1.98617 z m -3.09118,4.33417 c -0.41809,1.67994 -3.24684,0.77178 -4.16392,0.54403 l 0.74293,-2.97795 c 0.91709,0.22886 3.85801,0.68201 3.42099,2.43392 z m 0.41847,-4.35849 c -0.38149,1.52812 -2.73587,0.75175 -3.4996,0.56141 l 0.67358,-2.70095 c 0.76372,0.19034 3.22333,0.54559 2.82602,2.13954 z"
   style="fill-rule:nonzero;stroke-width:0.0620408"
   id="path1" />
    </g>
</svg>
