<svg xmlns="http://www.w3.org/2000/svg" width="48" height="48" fill="none"><path fill="#000" d="M40.965 18.97c.742-4.958-3.033-7.624-8.196-9.402l1.675-6.716-4.09-1.02-1.63 6.54c-1.074-.267-2.178-.52-3.276-.77l1.643-6.583L23.004 0l-1.676 6.714c-.89-.202-1.763-.403-2.61-.613l.004-.021-5.639-1.408-1.088 4.366s3.034.696 2.97.739c1.656.413 1.955 1.509 1.905 2.378l-1.907 7.651c.114.03.262.071.425.136l-.432-.107-2.674 10.719c-.203.503-.716 1.258-1.874.971.04.06-2.972-.742-2.972-.742l-2.03 4.68 5.321 1.327c.99.248 1.96.507 2.915.752l-1.692 6.793 4.084 1.02 1.676-6.722c1.116.303 2.199.582 3.258.845l-1.67 6.69 4.09 1.019 1.691-6.78c6.973 1.319 12.216.787 14.422-5.519 1.779-5.077-.088-8.005-3.756-9.915 2.671-.616 4.683-2.373 5.22-6.003Zm-9.342 13.099C30.36 37.146 21.81 34.4 19.04 33.713l2.245-9c2.772.692 11.66 2.061 10.34 7.356Zm1.265-13.172c-1.153 4.618-8.269 2.272-10.577 1.696l2.036-8.162c2.308.575 9.742 1.648 8.54 6.466Z"/></svg>