<svg xmlns="http://www.w3.org/2000/svg" width="48" height="48" fill="none"><g clip-path="url(#a)"><g clip-path="url(#b)"><path fill="#000" d="M44.273 13.393c-1.876-3.086-4.473-5.448-7.84-7.088-3.367-1.687-7.263-2.555-11.64-2.555H6.422v16.779H.937v6.267h5.484V44.25h18.373c4.376 0 8.272-.82 11.64-2.507 3.366-1.688 5.963-4.05 7.839-7.088 1.876-3.037 2.79-6.605 2.79-10.655 0-4.05-.914-7.57-2.79-10.607ZM33.98 33.209c-2.405 2.218-5.627 3.375-9.667 3.375H15.8v-9.788h10.1V20.53H15.8v-9.065h8.513c4.04 0 7.262 1.11 9.667 3.375 2.405 2.266 3.607 5.304 3.607 9.161 0 3.857-1.202 6.943-3.607 9.209Z"/></g></g><defs><clipPath id="a"><path fill="#fff" d="M0 0h48v48H0z"/></clipPath><clipPath id="b"><path fill="#fff" d="M0 0h46.125v40.5H0z" transform="translate(.938 3.75)"/></clipPath></defs></svg>