<svg xmlns="http://www.w3.org/2000/svg" width="48" height="48" fill="none"><g clip-path="url(#a)"><g clip-path="url(#b)"><path fill="#000" d="M47.677 21.486a3.754 3.754 0 0 0-1.27-2.567 3.74 3.74 0 0 0-2.709-.92h-.145a3.64 3.64 0 0 0-2.4 1.304c-.6.73-.893 1.665-.82 2.608v.147a14.566 14.566 0 0 1 0 3.913v.147a18.229 18.229 0 0 1-1.183 4.264 16.6 16.6 0 0 1-5.235 6.753 16.544 16.544 0 0 1-16.355 2.132 16.581 16.581 0 0 1-6.786-5.186 16.621 16.621 0 0 1-2.268-16.366 16.6 16.6 0 0 1 5.118-6.842A16.562 16.562 0 0 1 21.46 7.49a18.327 18.327 0 0 1 5.852.147 4.389 4.389 0 0 1 2.883 1.715 4.4 4.4 0 0 1 .833 3.253 4.015 4.015 0 0 1-1.736 2.448 4 4 0 0 1-2.944.557h-.147a4.506 4.506 0 0 0-.98-.132h-.132a12.514 12.514 0 0 0-1.61-.073 8.617 8.617 0 0 0-4.472 1.56 8.643 8.643 0 0 0-2.977 3.69 8.663 8.663 0 0 0 1.397 9.018 8.616 8.616 0 0 0 12.778.347 8.651 8.651 0 0 0 2.213-4.195l.204-1.26c.062-.697.087-1.397.075-2.096a11.237 11.237 0 0 1 2.744-7.367 11.2 11.2 0 0 1 6.896-3.757h.219a8.85 8.85 0 0 1 1.39-.073h.351a24.099 24.099 0 0 0-8.72-8.256A24.048 24.048 0 0 0 23.963 0 24.334 24.334 0 0 0 6.959 7.322 24.427 24.427 0 0 0 0 24.505a24.122 24.122 0 0 0 5.598 14.86 24.04 24.04 0 0 0 13.61 8.143 24.011 24.011 0 0 0 15.713-2.113 24.076 24.076 0 0 0 10.986-11.451l.074-.132c1.12-2.6 1.802-5.37 2.019-8.193-.044-1.539-.191-2.8-.323-4.133Z"/></g></g><defs><clipPath id="a"><path fill="#fff" d="M0 0h48v48H0z"/></clipPath><clipPath id="b"><rect width="48" height="48" fill="#fff" rx="24"/></clipPath></defs></svg>