<?xml version="1.0" encoding="UTF-8" standalone="no"?>
<svg
   width="47.999756"
   height="47.999184"
   viewBox="0 0 47.999756 47.999184"
   version="1.1"
   xml:space="preserve"
   style="clip-rule:evenodd;fill-rule:evenodd;stroke-linejoin:round;stroke-miterlimit:2"
   id="svg5"
   xmlns="http://www.w3.org/2000/svg"
   xmlns:svg="http://www.w3.org/2000/svg"><defs
   id="defs5" />
    <g
   transform="matrix(4,0,0,4,24.002357,24.00308)"
   id="g5">
        <g
   transform="translate(-128,-128)"
   id="g4">
            <g
   id="g3">
                <clipPath
   id="_clip1">
                    <rect
   x="0"
   y="0"
   width="256"
   height="256"
   id="rect1" />
                </clipPath>
                <g
   clip-path="url(#_clip1)"
   id="g2">
                    <g
   id="g1">
                        <path
   d="m 133.91862,127.37078 c -0.0168,-0.24745 -0.13106,-0.47835 -0.31753,-0.6419 -0.18623,-0.16336 -0.42993,-0.24618 -0.67715,-0.23011 h -0.0364 c -0.23456,0.0268 -0.44971,0.14382 -0.59967,0.32616 -0.15009,0.18257 -0.22363,0.41648 -0.20503,0.65212 v 0.0367 c 0.044,0.32461 0.044,0.65362 0,0.97822 v 0.0367 c -0.055,0.36609 -0.15445,0.72411 -0.2961,1.06611 -0.28144,0.66721 -0.7326,1.24925 -1.3086,1.68814 -0.57557,0.43851 -1.25614,0.71863 -1.97365,0.81224 -0.71728,0.0935 -1.44669,-0.003 -2.11512,-0.27928 -0.66895,-0.2766 -1.25394,-0.72369 -1.69648,-1.29655 -0.44283,-0.57327 -0.7282,-1.25253 -0.82757,-1.97009 -0.0994,-0.71769 -0.009,-1.44903 0.26076,-2.1213 0.2699,-0.67195 0.71099,-1.26168 1.2793,-1.71041 0.56793,-0.4484 1.24358,-0.74015 1.9594,-0.84608 0.48647,-0.0662 0.98038,-0.0538 1.46291,0.0367 0.28743,0.0419 0.54684,0.19617 0.72074,0.42885 0.17409,0.23283 0.249,0.52542 0.20822,0.81328 -0.0601,0.25228 -0.21572,0.47174 -0.43392,0.6119 -0.21801,0.13997 -0.48206,0.18993 -0.73612,0.13922 h -0.0368 c -0.0802,-0.02 -0.16238,-0.031 -0.24502,-0.033 h -0.0329 c -0.13363,-0.0148 -0.26807,-0.0209 -0.40251,-0.0183 -0.40171,0.0231 -0.78908,0.1583 -1.11791,0.39023 -0.3292,0.23208 -0.58706,0.55162 -0.74432,0.92245 -0.1574,0.3711 -0.20812,0.77886 -0.14644,1.1772 0.0617,0.3982 0.23344,0.77132 0.49575,1.07718 0.26212,0.30567 0.60463,0.53198 0.98863,0.6532 0.38376,0.12103 0.79387,0.13214 1.18363,0.032 0.3899,-0.10012 0.74404,-0.30749 1.02219,-0.59844 0.27848,-0.29119 0.47011,-0.65447 0.55322,-1.04873 l 0.0511,-0.31504 c 0.0153,-0.17424 0.0217,-0.34917 0.0186,-0.52401 -5.1e-4,-0.67636 0.24323,-1.33068 0.6861,-1.84184 0.44236,-0.5107 1.05501,-0.84445 1.724,-0.93914 h 0.0547 c 0.11517,-0.0153 0.23137,-0.0214 0.34753,-0.0184 h 0.0878 c -0.54089,-0.86085 -1.29092,-1.57095 -2.18009,-2.06388 -0.8886,-0.49251 -1.88773,-0.75182 -2.90369,-0.75365 -1.60222,0.0263 -3.13089,0.6846 -4.25091,1.83059 -1.12147,1.14725 -1.74687,2.69144 -1.7398,4.29572 0.0338,1.36049 0.52716,2.6703 1.39935,3.715 0.87112,1.04371 2.0711,1.76159 3.40267,2.03557 1.33114,0.27365 2.71652,0.0873 3.92804,-0.52827 1.21246,-0.61631 2.18093,-1.6258 2.74652,-2.86273 l 0.0186,-0.0329 c 0.27993,-0.65029 0.45046,-1.34244 0.5047,-2.04833 -0.011,-0.3847 -0.0478,-0.69974 -0.0807,-1.03316 z"
   style="fill:#ef4800;fill-rule:nonzero;stroke-width:0.0468745"
   id="path1" />
                    </g>
                </g>
            </g>
        </g>
    </g>
</svg>
