<?xml version="1.0" encoding="UTF-8" standalone="no"?>
<svg
   width="48.000076"
   height="47.999546"
   viewBox="0 0 48.000076 47.999546"
   version="1.1"
   xml:space="preserve"
   style="clip-rule:evenodd;fill-rule:evenodd;stroke-linejoin:round;stroke-miterlimit:2"
   id="svg1"
   xmlns="http://www.w3.org/2000/svg"
   xmlns:svg="http://www.w3.org/2000/svg"><defs
   id="defs1" />
    <g
   transform="matrix(3.99999,0,0,3.99999,-487.9963,-487.99586)"
   id="g1">
        <path
   d="m 133.91868,127.37078 c -0.0168,-0.24746 -0.13107,-0.47836 -0.31753,-0.64191 -0.18624,-0.16336 -0.42994,-0.24619 -0.67716,-0.23011 h -0.0364 c -0.23456,0.0268 -0.44972,0.14381 -0.59967,0.32616 -0.1501,0.18257 -0.22364,0.41648 -0.20504,0.65212 v 0.0367 c 0.044,0.32461 0.044,0.65363 0,0.97824 v 0.0367 c -0.055,0.3661 -0.15445,0.72413 -0.2961,1.06613 -0.28144,0.66722 -0.73261,1.24926 -1.30861,1.68815 -0.57558,0.43852 -1.25616,0.71864 -1.97368,0.81225 -0.71728,0.0935 -1.4467,-0.003 -2.11514,-0.27928 -0.66895,-0.27661 -1.25395,-0.7237 -1.6965,-1.29656 -0.44282,-0.57328 -0.7282,-1.25255 -0.82757,-1.97011 -0.0994,-0.7177 -0.009,-1.44905 0.26076,-2.12133 0.26991,-0.67195 0.711,-1.26169 1.27931,-1.71042 0.56794,-0.44841 1.2436,-0.74016 1.95943,-0.84609 0.48646,-0.0662 0.98039,-0.0538 1.46292,0.0367 0.28743,0.0419 0.54684,0.19617 0.72075,0.42886 0.17409,0.23283 0.249,0.52542 0.20822,0.81328 -0.0601,0.25228 -0.21572,0.47175 -0.43393,0.61191 -0.21801,0.13996 -0.48206,0.18993 -0.73612,0.13921 h -0.0368 c -0.0802,-0.02 -0.16237,-0.031 -0.24501,-0.0329 h -0.0329 c -0.13364,-0.0148 -0.26808,-0.0209 -0.40252,-0.0183 -0.40172,0.0231 -0.78909,0.1583 -1.11792,0.39023 -0.3292,0.23208 -0.58706,0.55163 -0.74433,0.92246 -0.1574,0.37111 -0.20812,0.77887 -0.14644,1.17722 0.0617,0.3982 0.23344,0.77132 0.49575,1.07718 0.26213,0.30568 0.60464,0.53199 0.98864,0.65321 0.38377,0.12103 0.79388,0.13214 1.18365,0.032 0.3899,-0.10012 0.74404,-0.3075 1.0222,-0.59845 0.27848,-0.29119 0.47011,-0.65447 0.55322,-1.04873 l 0.0511,-0.31505 c 0.0153,-0.17424 0.0217,-0.34917 0.0186,-0.52402 -5.1e-4,-0.67636 0.24324,-1.33068 0.68611,-1.84186 0.44236,-0.5107 1.05502,-0.84445 1.72402,-0.93914 h 0.0547 c 0.11518,-0.0153 0.23138,-0.0214 0.34754,-0.0184 h 0.0878 c -0.54089,-0.86086 -1.29094,-1.57097 -2.18011,-2.06391 -0.88861,-0.49251 -1.88775,-0.75182 -2.90372,-0.75365 -1.60223,0.0263 -3.13092,0.68461 -4.25095,1.83061 -1.12149,1.14726 -1.74689,2.69147 -1.73981,4.29576 0.0338,1.3605 0.52715,2.67033 1.39936,3.71503 0.87112,1.04372 2.07112,1.76161 3.4027,2.0356 1.33115,0.27365 2.71655,0.0873 3.92808,-0.52828 1.21247,-0.61632 2.18095,-1.62582 2.74654,-2.86275 l 0.0186,-0.0329 c 0.27994,-0.6503 0.45047,-1.34245 0.50471,-2.04834 -0.011,-0.38471 -0.0478,-0.69975 -0.0807,-1.03317 z"
   style="fill:#46b549;fill-rule:nonzero;stroke-width:0.046875"
   id="path1" />
    </g>
</svg>
